<svg xmlns="http://www.w3.org/2000/svg" width="175.826" height="87.913" viewBox="0 0 175.826 87.913"><path d="M131.847,93.913H43.971l-.015-4.564c0-9.224.733-14.55,11.634-17.07,12.337-2.85,24.5-5.392,18.645-16.183C56.9,24.132,69.3,6,87.906,6c18.249,0,30.96,17.458,13.67,50.1-5.678,10.725,6.051,13.275,18.645,16.183,10.916,2.52,11.641,7.854,11.641,17.092l-.015,4.535Zm35.246-16.22c-9.451-2.183-18.242-4.1-13.985-12.139,12.96-24.484,3.436-37.575-10.256-37.575-9.267,0-16.469,5.985-16.469,17.026,0,28.594,16.616,12.967,16.454,48.909h32.975l.015-3.392c0-6.93-.542-10.938-8.733-12.828ZM.015,93.913H32.989C32.835,57.971,49.444,73.6,49.444,45c0-11.04-7.2-17.026-16.469-17.026-13.692,0-23.216,13.092-10.249,37.575C26.982,73.6,18.191,75.51,8.74,77.693.542,79.583,0,83.59,0,90.521l.015,3.392Z" transform="translate(0 -6)" fill="#fff"/></svg>