<svg xmlns="http://www.w3.org/2000/svg" xmlns:xlink="http://www.w3.org/1999/xlink" width="1762.9" height="161.67" viewBox="0 0 1762.9 161.67"><defs><linearGradient id="a" x1="0.5" x2="0.5" y2="1" gradientUnits="objectBoundingBox"><stop offset="0" stop-color="#fff"/><stop offset="1" stop-color="#fff" stop-opacity="0"/></linearGradient></defs><path d="M80.352,0h-33.3V-129.336H4.4v-27.715H123v27.715H80.352ZM275.859,0H242.666V-67.783h-62.2V0h-33.3V-157.051h33.3V-95.5h62.2v-61.553h33.193ZM405.947,0H315.5V-157.051h90.449v27.285H348.8v34.482h53.174V-68H348.8v40.5h57.148ZM562.568-131.592q-18.8,0-29.111,14.126T523.145-78.1q0,52.529,39.424,52.529,16.543,0,40.068-8.271v27.93Q583.3,2.148,559.453,2.148q-34.268,0-52.422-20.786T488.877-78.311q0-24.492,8.916-42.915a64.441,64.441,0,0,1,25.62-28.252q16.7-9.829,39.155-9.829,22.881,0,45.977,11.064L597.8-121.172a177.811,177.811,0,0,0-17.725-7.3A52.876,52.876,0,0,0,562.568-131.592ZM774.189-78.74q0,38.994-19.336,59.941T699.424,2.148q-36.094,0-55.43-20.947T624.658-78.955q0-39.209,19.39-59.888t55.591-20.679q36.2,0,55.376,20.84T774.189-78.74Zm-114.619,0q0,26.318,9.99,39.639t29.863,13.32q39.854,0,39.854-52.959,0-53.066-39.639-53.066-19.873,0-29.971,13.374T659.57-78.74ZM873.232,0,835.42-123.213h-.967q2.041,37.6,2.041,50.166V0H806.738V-157.051H852.07l37.168,120.1h.645l39.424-120.1h45.332V0H943.594V-74.336q0-5.264.161-12.139T945.205-123h-.967L903.74,0Zm207.432,0-37.812-123.213h-.967q2.041,37.6,2.041,50.166V0H1014.17V-157.051H1059.5l37.168,120.1h.645l39.424-120.1h45.332V0h-31.045V-74.336q0-5.264.161-12.139t1.45-36.523h-.967l-40.5,123ZM1221.6,0V-157.051h33.3V0ZM1355.02,0h-33.3V-129.336h-42.646v-27.715h118.594v27.715H1355.02Zm131.807,0h-33.3V-129.336h-42.646v-27.715h118.594v27.715h-42.646Zm157.266,0h-90.449V-157.051h90.449v27.285h-57.148v34.482h53.174V-68h-53.174v40.5h57.148ZM1767.3,0h-90.449V-157.051H1767.3v27.285h-57.148v34.482h53.174V-68h-53.174v40.5H1767.3Z" transform="translate(-4.404 159.521)" fill="url(#a)"/></svg>