<?xml version="1.0" encoding="UTF-8" standalone="no"?>
<!DOCTYPE svg PUBLIC "-//W3C//DTD SVG 1.1//EN" "http://www.w3.org/Graphics/SVG/1.1/DTD/svg11.dtd">
<svg width="100%" height="100%" viewBox="0 0 413 429" version="1.1" xmlns="http://www.w3.org/2000/svg" xmlns:xlink="http://www.w3.org/1999/xlink" xml:space="preserve" xmlns:serif="http://www.serif.com/" style="fill-rule:evenodd;clip-rule:evenodd;stroke-linejoin:round;stroke-miterlimit:2;">
    <g transform="matrix(1,0,0,1,-6601.36,-1683.9)">
        <g id="Artboard1" transform="matrix(0.412992,0,0,0.42846,6601.36,1683.9)">
            <rect x="0" y="0" width="1000" height="1000" style="fill:none;"/>
            <g transform="matrix(2.02571,0,0,1.95258,-34512.6,-4394.57)">
                <g transform="matrix(0.935268,0,0,0.935268,928.727,45.3947)">
                    <g transform="matrix(1,0,0,1,16725.9,2225.11)">
                        <path d="M867.066,441.219L862.338,437.877L862.076,430.387L862.151,430.289L863.033,435.14C863.194,436.024 864.04,436.609 864.923,436.449C865.807,436.288 866.392,435.442 866.232,434.558L864.816,426.773L862.354,418.441L863.22,411.974L855.072,411.777L852.608,417.881L851.108,426.039C850.938,426.965 850.981,427.917 851.234,428.823L853.472,439.047L853.474,439.047L853.611,439.668L859.487,443.94C860.072,444.354 860.832,444.32 861.38,443.919L861.931,444.308C862.664,444.826 863.678,444.652 864.197,443.919C864.322,443.743 864.404,443.55 864.451,443.351L865.189,443.874C865.922,444.392 866.937,444.217 867.455,443.485C867.973,442.752 867.799,441.737 867.066,441.219Z" style="fill:rgb(99,30,43);fill-rule:nonzero;"/>
                    </g>
                    <g transform="matrix(1,0,0,1,16725.9,2225.11)">
                        <path d="M993.814,425.06L991.249,417.172L988.001,411.447L979.951,412.718L981.663,419.015L980.323,427.598L979.948,435.504C979.906,436.4 980.598,437.162 981.495,437.204C982.391,437.247 983.153,436.554 983.195,435.657L983.429,430.732L983.516,430.819L984.246,438.278L980,442.216C979.342,442.826 979.304,443.854 979.914,444.512C980.525,445.171 981.553,445.21 982.211,444.598L982.875,443.983C982.948,444.174 983.054,444.354 983.202,444.512C983.812,445.171 984.84,445.21 985.498,444.598L985.993,444.14C986.589,444.466 987.348,444.399 987.873,443.911L993.133,438.9L993.186,438.267L993.189,438.266L993.389,435.862L993.391,435.836L994.057,427.837C994.188,426.905 994.105,425.956 993.814,425.06Z" style="fill:rgb(99,30,43);fill-rule:nonzero;"/>
                    </g>
                    <g transform="matrix(1,0,0,1,16725.9,2225.11)">
                        <path d="M910.344,605.724L896.931,605.716L896.931,584.888L910.019,586.958L910.344,605.724Z" style="fill:rgb(211,211,240);fill-rule:nonzero;"/>
                    </g>
                    <g transform="matrix(1,0,0,1,16725.9,2225.11)">
                        <path d="M897.057,603.473L876.508,626.017C875.707,626.51 876.056,627.744 876.997,627.744L890.452,627.744L892.519,627.171C896.773,625.991 900.727,623.919 904.119,621.093L910.344,621.073L910.344,603.719L897.057,603.473Z" style="fill:rgb(29,29,41);fill-rule:nonzero;"/>
                    </g>
                    <g transform="matrix(1,0,0,1,16725.9,2225.11)">
                        <path d="M932.232,605.743L945.633,606.317L946.539,585.51L933.373,587.008L932.232,605.743Z" style="fill:rgb(211,211,240);fill-rule:nonzero;"/>
                    </g>
                    <g transform="matrix(1,0,0,1,16725.9,2225.11)">
                        <path d="M936.666,273.17L926.313,278.351L913.56,273.17L913.56,241.846L936.666,241.846L936.666,273.17Z" style="fill:rgb(255,187,141);fill-rule:nonzero;"/>
                    </g>
                    <g transform="matrix(1,0,0,1,16725.9,2225.11)">
                        <path d="M929.217,257.093C926.831,258.578 923.796,258.525 921.464,256.957C912.92,251.214 907.87,241.531 908.049,231.238L908.116,215.368L943.6,216.051L943.522,231.857C943.342,242.151 937.956,251.651 929.217,257.093Z" style="fill:rgb(255,187,141);fill-rule:nonzero;"/>
                    </g>
                    <g transform="matrix(1,0,0,1,16725.9,2225.11)">
                        <path d="M944.702,315.77L905.952,315.77L906.519,262.172L925.605,266.437L944.125,263.075L944.702,315.77Z" style="fill:white;fill-rule:nonzero;"/>
                    </g>
                    <g transform="matrix(1,0,0,1,16725.9,2225.11)">
                        <path d="M941.379,238.149C942.892,238.281 944.284,237.312 944.683,235.846L946.587,228.871C947.103,226.98 945.782,225.083 943.829,224.913L942.542,224.801L941.379,238.149Z" style="fill:rgb(255,187,141);fill-rule:nonzero;"/>
                    </g>
                    <g transform="matrix(1,0,0,1,16725.9,2225.11)">
                        <path d="M909.825,238.149C908.311,238.281 906.92,237.312 906.52,235.846L904.617,228.871C904.1,226.98 905.422,225.083 907.375,224.913L908.661,224.801L909.825,238.149Z" style="fill:rgb(255,187,141);fill-rule:nonzero;"/>
                    </g>
                    <g transform="matrix(1,0,0,1,16725.9,2225.11)">
                        <path d="M965.355,215.092C965.355,225.334 947.558,233.636 925.605,233.636C903.652,233.636 885.855,225.334 885.855,215.092C885.855,204.85 903.652,196.548 925.605,196.548C947.558,196.548 965.355,204.85 965.355,215.092Z" style="fill:rgb(29,29,41);fill-rule:nonzero;"/>
                    </g>
                    <g transform="matrix(1,0,0,1,16725.9,2225.11)">
                        <path d="M943.383,214.419L907.828,214.419L907.828,199.36C907.828,192.055 913.748,186.133 921.053,186.133L930.157,186.133C937.461,186.133 943.383,192.055 943.383,199.36L943.383,214.419Z" style="fill:rgb(29,29,41);fill-rule:nonzero;"/>
                    </g>
                    <g transform="matrix(1,0,0,1,16725.9,2225.11)">
                        <path d="M918.102,276.965L906.519,262.172L913.56,257.172L925.823,264.672L918.102,276.965Z" style="fill:rgb(237,237,237);fill-rule:nonzero;"/>
                    </g>
                    <g transform="matrix(1,0,0,1,16725.9,2225.11)">
                        <path d="M932.269,276.965L944.125,263.075L936.666,257.484L925.823,264.672L932.269,276.965Z" style="fill:rgb(237,237,237);fill-rule:nonzero;"/>
                    </g>
                    <g transform="matrix(1,0,0,1,16725.9,2225.11)">
                        <path d="M920.192,362.232L878.347,411.221L867.536,477.336C864.086,498.428 865.402,520.026 871.385,540.544L888.227,598.297L911.969,598.297L903.853,558.613C896.946,527.867 900.372,495.701 913.601,467.099L922.369,448.143L926.705,598.297L949.935,598.297L963.841,408.478L920.192,362.232Z" style="fill:rgb(29,29,41);fill-rule:nonzero;"/>
                    </g>
                    <g transform="matrix(1,0,0,1,16725.9,2225.11)">
                        <path d="M925.605,280.405L921.869,270.967L925.823,264.672L929.341,271.382L925.605,280.405Z" style="fill:rgb(29,29,41);fill-rule:nonzero;"/>
                    </g>
                    <g transform="matrix(1,0,0,1,16725.9,2225.11)">
                        <path d="M927.356,276.177L923.931,276.177L916.702,324.937L931.613,329.312L927.356,276.177Z" style="fill:rgb(29,29,41);fill-rule:nonzero;"/>
                    </g>
                    <g transform="matrix(1,0,0,1,16725.9,2225.11)">
                        <path d="M864.452,412.968L850.202,416.093L850.202,411.221L864.869,407.603L864.452,412.968Z" style="fill:white;fill-rule:nonzero;"/>
                    </g>
                    <g transform="matrix(1,0,0,1,16725.9,2225.11)">
                        <path d="M978.601,414.404L994.697,420.503L993.945,415.346L977.228,408.56L978.601,414.404Z" style="fill:white;fill-rule:nonzero;"/>
                    </g>
                    <g transform="matrix(1,0,0,1,16725.9,2225.11)">
                        <path d="M945.52,603.473L966.069,626.017C966.87,626.51 966.521,627.744 965.581,627.744L952.125,627.744L950.058,627.171C945.804,625.991 941.849,623.919 938.458,621.093L932.232,621.073L932.232,603.812L945.52,603.473Z" style="fill:rgb(29,29,41);fill-rule:nonzero;"/>
                    </g>
                    <g transform="matrix(1,0,0,1,16725.9,2225.11)">
                        <path d="M887.741,596.647L888.222,598.297L888.741,598.297L888.741,399.047L887.741,400.217L887.741,596.647ZM875.557,554.869L876.557,558.298L876.557,422.134L875.557,428.249L875.557,554.869ZM911.963,470.779C912.29,470.018 912.623,469.26 912.963,468.504L912.963,370.689L911.963,371.859L911.963,470.779ZM899.971,598.297L900.971,598.297L900.971,540.316C900.169,531.583 900.173,522.816 900.971,514.125L900.971,384.728L899.971,385.899L899.971,598.297ZM924.106,508.477L925.106,543.107L925.106,367.444L924.106,366.384L924.106,508.477ZM948.338,598.297L949.338,598.297L949.338,393.118L948.338,392.059L948.338,598.297ZM936.346,598.297L937.346,598.297L937.346,380.413L936.346,379.353L936.346,598.297ZM960.523,404.967L960.523,453.713L961.523,440.063L961.523,406.027L960.523,404.967Z" style="fill:rgb(49,49,69);fill-rule:nonzero;"/>
                    </g>
                    <g transform="matrix(1,0,0,1,16725.9,2225.11)">
                        <path d="M991.36,365.809L982.217,284.151C982.013,282.331 980.886,280.745 979.236,279.953L944.125,263.119L924.064,324.828L906.519,262.172L868.311,280.491C866.815,281.208 865.74,282.585 865.406,284.211L849.219,363.023L849.22,363.023L849.219,363.023L850.202,411.221L864.869,407.603L867.03,374.151L881.061,332.695L888.536,357.929L878.347,411.221L905.952,423.117L922.952,387.95L933.872,423.117L963.841,408.478L957.409,356.256L963.129,338.723L972.531,373.202L977.228,408.56L993.945,415.346L991.36,365.809Z" style="fill:rgb(29,29,41);fill-rule:nonzero;"/>
                    </g>
                    <g transform="matrix(1,0,0,1,16725.9,2225.11)">
                        <path d="M924.158,346.763C924.158,347.942 923.202,348.897 922.023,348.897C920.844,348.897 919.889,347.942 919.889,346.763C919.889,345.584 920.844,344.629 922.023,344.629C923.202,344.629 924.158,345.584 924.158,346.763Z" style="fill:rgb(40,40,56);fill-rule:nonzero;"/>
                    </g>
                    <g transform="matrix(1,0,0,1,16725.9,2225.11)">
                        <path d="M922.952,320.27L894.536,276.965L898.728,265.907L906.519,262.172L922.952,320.27Z" style="fill:rgb(40,40,56);fill-rule:nonzero;"/>
                    </g>
                    <g transform="matrix(1,0,0,1,16725.9,2225.11)">
                        <path d="M925.494,320.645L956.132,277.913L951.94,266.855L944.148,263.119L925.494,320.645Z" style="fill:rgb(40,40,56);fill-rule:nonzero;"/>
                    </g>
                    <g transform="matrix(1,0,0,1,16725.9,2225.11)">
                        <path d="M958.358,363.91L938.968,368.317C939.886,372.356 943.905,374.886 947.944,373.968L959.28,371.392L958.358,363.91Z" style="fill:rgb(40,40,56);fill-rule:nonzero;"/>
                    </g>
                    <g transform="matrix(1,0,0,1,16725.9,2225.11)">
                        <path d="M906.703,368.134L887.41,363.75L886,371.121L897.727,373.786C901.766,374.703 905.785,372.174 906.703,368.134Z" style="fill:rgb(40,40,56);fill-rule:nonzero;"/>
                    </g>
                    <g transform="matrix(1,0,0,1,16725.9,2225.11)">
                        <path d="M925.872,217.45C919.899,217.45 913.2,216.679 908.129,214.755C908.071,214.732 907.956,214.688 907.956,214.688C907.956,214.688 908.029,205.687 907.96,205.575C908.017,205.656 908.094,205.742 908.194,205.833C909.68,207.188 915.914,209.45 925.872,209.45C936.347,209.45 942.589,207.034 943.635,205.708C943.65,205.689 943.664,205.671 943.676,205.653C943.707,205.876 943.676,205.935 943.676,206.209L943.677,214.734C943.677,214.734 943.593,214.766 943.551,214.781C938.5,216.685 931.846,217.45 925.872,217.45Z" style="fill:rgb(49,49,69);fill-rule:nonzero;"/>
                    </g>
                    <g transform="matrix(1,0,0,1,16725.9,2225.11)">
                        <rect x="947.827" y="302.744" width="14.687" height="3.188" style="fill:white;fill-rule:nonzero;"/>
                    </g>
                </g>
                <g transform="matrix(0.935268,0,0,0.935268,16761.8,2128.42)">
                    <path d="M604.558,583.73L617.958,584.304L613.976,563.497L600.811,564.996L604.558,583.73Z" style="fill:rgb(211,211,240);fill-rule:nonzero;"/>
                </g>
                <g transform="matrix(0.935268,0,0,0.935268,16761.8,2128.42)">
                    <path d="M617.845,581.461L638.394,604.005C639.195,604.497 638.846,605.732 637.906,605.732L624.451,605.732L622.383,605.158C618.129,603.978 614.175,601.906 610.784,599.08L604.558,599.06L604.558,581.8L617.845,581.461Z" style="fill:rgb(97,46,46);fill-rule:nonzero;"/>
                </g>
                <g transform="matrix(0.935268,0,0,0.935268,16761.8,2128.42)">
                    <path d="M525.832,582.782L512.431,583.355L514.521,561.799L527.686,563.298L525.832,582.782Z" style="fill:rgb(211,211,240);fill-rule:nonzero;"/>
                </g>
                <g transform="matrix(0.935268,0,0,0.935268,16761.8,2128.42)">
                    <path d="M512.544,580.511L491.996,603.056C491.195,603.549 491.543,604.783 492.484,604.783L505.939,604.783L508.007,604.21C512.261,603.029 516.215,600.958 519.606,598.132L525.832,598.112L525.832,580.85L512.544,580.511Z" style="fill:rgb(97,46,46);fill-rule:nonzero;"/>
                </g>
                <g transform="matrix(0.935268,0,0,0.935268,16761.8,2128.42)">
                    <path d="M606.48,375.622L595.447,339.478L530.76,339.478L524.262,370.931L506.415,573.811L531.4,573.811L565.099,419.53L596.713,573.811L621.699,573.811L606.48,375.622Z" style="fill:rgb(29,29,41);fill-rule:nonzero;"/>
                </g>
                <g transform="matrix(0.935268,0,0,0.935268,16761.8,2128.42)">
                    <path d="M574.53,180.817C574.043,194.494 574.811,209.176 561.134,208.691C547.456,208.205 536.762,196.723 537.247,183.046C537.733,169.368 550.713,158.658 564.391,159.144C573.64,159.472 583.259,161.827 584.66,167.954C585.581,171.986 574.687,176.389 574.53,180.817Z" style="fill:rgb(29,29,41);fill-rule:nonzero;"/>
                </g>
                <g transform="matrix(0.935268,0,0,0.935268,16761.8,2128.42)">
                    <path d="M573.26,235.178L548.925,234.315L551.099,173.095L575.434,173.959L573.26,235.178Z" style="fill:rgb(255,187,141);fill-rule:nonzero;"/>
                </g>
                <g transform="matrix(0.935268,0,0,0.935268,16761.8,2128.42)">
                    <path d="M592.567,189.411L586.707,181.983L584.66,167.954C584.638,167.834 561.976,173.379 550.306,171.818C547.422,171.432 550.914,181.134 551.432,183.996L553.621,196.084C555.589,205.584 566.849,209.014 577.489,212.827C580.478,213.898 583.945,213.156 586.286,211.009L586.926,211.88C589.004,209.825 588.98,202.88 588.696,195.839L591.501,194.141C593.135,193.153 593.619,191.004 592.567,189.411Z" style="fill:rgb(255,187,141);fill-rule:nonzero;"/>
                </g>
                <g transform="matrix(0.935268,0,0,0.935268,16761.8,2128.42)">
                    <path d="M614.144,242.788L572.568,225.122L560.957,223.178L549.346,225.456L507.769,243.121C503.54,244.918 500.98,249.265 501.459,253.836L507.586,312.262L561.294,309.759L614.425,310.996L620.455,253.502C620.934,248.932 618.373,244.585 614.144,242.788Z" style="fill:rgb(29,29,41);fill-rule:nonzero;"/>
                </g>
                <g transform="matrix(0.935268,0,0,0.935268,16761.8,2128.42)">
                    <path d="M600.736,236.697L579.649,227.737L563.269,264.521L544.126,227.28L520.403,237.36L533.319,314.502L529.81,348.747L541.726,370.495L564.747,346.238L586.388,369.678L597.325,347.512L593.579,315.752L600.736,236.697Z" style="fill:rgb(139,139,153);fill-rule:nonzero;"/>
                </g>
                <g transform="matrix(0.935268,0,0,0.935268,16761.8,2128.42)">
                    <path d="M563.643,326.363C562.464,326.363 561.508,327.319 561.508,328.498C561.508,329.676 562.464,330.632 563.643,330.632C564.822,330.632 565.777,329.676 565.777,328.498C565.777,327.319 564.822,326.363 563.643,326.363ZM563.643,311.229C562.464,311.229 561.508,312.185 561.508,313.363C561.508,314.542 562.464,315.498 563.643,315.498C564.822,315.498 565.777,314.542 565.777,313.363C565.777,312.185 564.822,311.229 563.643,311.229ZM563.643,291.296C562.464,291.296 561.508,292.252 561.508,293.43C561.508,294.609 562.464,295.565 563.643,295.565C564.822,295.565 565.777,294.609 565.777,293.43C565.777,292.252 564.822,291.296 563.643,291.296ZM563.643,279.81C564.822,279.81 565.777,278.854 565.777,277.676C565.777,276.497 564.822,275.541 563.643,275.541C562.464,275.541 561.508,276.497 561.508,277.676C561.508,278.854 562.464,279.81 563.643,279.81Z" style="fill:rgb(29,29,41);fill-rule:nonzero;"/>
                </g>
                <g transform="matrix(0.935268,0,0,0.935268,16761.8,2128.42)">
                    <path d="M605.108,322.889L533.07,296.323L542.589,286.54L615.562,300.755L613.537,317.729C613.054,321.768 608.924,324.297 605.108,322.889Z" style="fill:rgb(255,187,141);fill-rule:nonzero;"/>
                </g>
                <g transform="matrix(0.935268,0,0,0.935268,16761.8,2128.42)">
                    <path d="M507.001,302.909L580.141,289.988L582.806,297.673L517.943,325.838C514.084,327.514 509.699,325.004 509.189,320.827L507.001,302.909Z" style="fill:rgb(255,187,141);fill-rule:nonzero;"/>
                </g>
                <g transform="matrix(0.935268,0,0,0.935268,16761.8,2128.42)">
                    <path d="M556.436,235.178L544.126,227.674L549.563,219.344L560.957,223.178L556.436,235.178Z" style="fill:rgb(40,40,56);fill-rule:nonzero;"/>
                </g>
                <g transform="matrix(0.935268,0,0,0.935268,16761.8,2128.42)">
                    <path d="M565.477,235.178L578.993,227.852L573.825,219.269L560.957,223.178L565.477,235.178Z" style="fill:rgb(40,40,56);fill-rule:nonzero;"/>
                </g>
                <g transform="matrix(0.935268,0,0,0.935268,16761.8,2128.42)">
                    <path d="M593.862,284.434L585.925,286.848L580.141,289.988L581.26,298.062L587.587,296.468L595.293,296.807L596.642,284.244C595.713,284.095 594.762,284.16 593.862,284.434Z" style="fill:rgb(255,187,141);fill-rule:nonzero;"/>
                </g>
                <g transform="matrix(0.935268,0,0,0.935268,16761.8,2128.42)">
                    <path d="M534.653,284.126L542.589,286.54L548.374,289.679L547.255,297.753L540.562,298.062L530.678,298.727L528.243,284.166L531.873,283.935C532.802,283.786 533.753,283.852 534.653,284.126Z" style="fill:rgb(255,187,141);fill-rule:nonzero;"/>
                </g>
                <g transform="matrix(0.935268,0,0,0.935268,16761.8,2128.42)">
                    <path d="M561.582,198.389L549.721,211.88L548.715,170.63L584.66,167.954L584.983,169.743L573.846,175.43C570.855,176.86 568.639,179.526 567.78,182.727L565.116,192.655C564.592,194.608 563.31,196.672 561.582,198.389Z" style="fill:rgb(29,29,41);fill-rule:nonzero;"/>
                </g>
                <g transform="matrix(0.935268,0,0,0.935268,16761.8,2128.42)">
                    <path d="M549.721,211.88L540.765,196.672L558.473,197.198L549.721,211.88Z" style="fill:rgb(29,29,41);fill-rule:nonzero;"/>
                </g>
                <g transform="matrix(0.935268,0,0,0.935268,16761.8,2128.42)">
                    <path d="M582.173,218.36L560.388,199.748L565.659,190.632L588.867,205.231L588.867,215.275C588.867,218.738 584.807,220.609 582.173,218.36Z" style="fill:rgb(29,29,41);fill-rule:nonzero;"/>
                </g>
                <g transform="matrix(0.935268,0,0,0.935268,16761.8,2128.42)">
                    <path d="M560.166,167.285C560.166,171.496 556.752,174.91 552.541,174.91C548.33,174.91 544.916,171.496 544.916,167.285C544.916,163.074 548.33,159.66 552.541,159.66C556.752,159.66 560.166,163.074 560.166,167.285Z" style="fill:rgb(29,29,41);fill-rule:nonzero;"/>
                </g>
                <g transform="matrix(0.935268,0,0,0.935268,16761.8,2128.42)">
                    <path d="M588.302,163.577C588.302,167.788 584.888,171.202 580.677,171.202C576.466,171.202 573.052,167.788 573.052,163.577C573.052,159.365 576.466,155.952 580.677,155.952C584.888,155.952 588.302,159.365 588.302,163.577Z" style="fill:rgb(29,29,41);fill-rule:nonzero;"/>
                </g>
                <g transform="matrix(0.935268,0,0,0.935268,16761.8,2128.42)">
                    <path d="M580.171,166.577L546.051,164.702L551.555,159.728L580.171,155.977L580.171,166.577Z" style="fill:rgb(29,29,41);fill-rule:nonzero;"/>
                </g>
                <g transform="matrix(0.935268,0,0,0.935268,16761.8,2128.42)">
                    <path d="M432.678,241.715L428.292,214.137L427.56,214.301C428.921,208.314 428.529,201.86 426.123,196.575C420.784,184.843 407.575,183.321 395.843,188.661C386.968,192.7 381.846,201.602 382.185,210.777L382.165,210.767L378.428,242.571C377.211,246.526 379.431,250.717 383.385,251.934C386.254,252.816 389.242,251.884 391.134,249.799L400.508,255.132L399.13,232.35C403.222,233.515 407.643,233.576 411.924,232.347L410.599,254.276L419.972,248.943C421.864,251.028 424.852,251.96 427.721,251.077C431.675,249.861 433.894,245.669 432.678,241.715Z" style="fill:rgb(54,28,33);fill-rule:nonzero;"/>
                </g>
                <g transform="matrix(0.935268,0,0,0.935268,16761.8,2128.42)">
                    <path d="M373.835,615.396L353.287,637.941C352.485,638.433 352.834,639.668 353.774,639.668L361.008,639.668L364.075,639.094C368.329,637.914 377.505,635.843 380.897,633.016L387.122,632.996L387.122,615.641L373.835,615.396Z" style="fill:rgb(97,46,46);fill-rule:nonzero;"/>
                </g>
                <g transform="matrix(0.935268,0,0,0.935268,16761.8,2128.42)">
                    <path d="M364.075,636.844L361.008,637.418L353.774,637.418C353.771,637.418 353.768,637.416 353.765,637.416L353.287,637.941C352.485,638.433 352.834,639.668 353.774,639.668L361.008,639.668L364.075,639.094C368.329,637.914 377.505,635.843 380.897,633.015L387.122,632.996L387.122,630.746L380.897,630.765C377.505,633.593 368.329,635.664 364.075,636.844Z" style="fill:rgb(29,29,41);fill-rule:nonzero;"/>
                </g>
                <g transform="matrix(0.935268,0,0,0.935268,16761.8,2128.42)">
                    <path d="M432.217,616.463L445.112,618.431L444.974,599.925L432.088,599.985L432.217,616.463Z" style="fill:rgb(211,211,240);fill-rule:nonzero;"/>
                </g>
                <g transform="matrix(0.935268,0,0,0.935268,16761.8,2128.42)">
                    <path d="M444.812,615.536L471.267,632.442C472.037,632.935 471.677,634.13 470.762,634.113L447.473,633.701L439.86,630.623L439.808,633.565L431.572,633.392L431.883,615.85L444.812,615.536Z" style="fill:rgb(97,46,46);fill-rule:nonzero;"/>
                </g>
                <g transform="matrix(0.935268,0,0,0.935268,16761.8,2128.42)">
                    <path d="M471.267,632.442L470.26,631.8L447.473,631.395L439.86,628.318L439.808,631.26L431.613,631.089L431.572,633.392L439.808,633.565L439.86,630.623L447.473,633.7L470.762,634.113C471.677,634.13 472.037,632.935 471.267,632.442Z" style="fill:rgb(29,29,41);fill-rule:nonzero;"/>
                </g>
                <g transform="matrix(0.935268,0,0,0.935268,16761.8,2128.42)">
                    <path d="M350.648,332.384L438.431,404.057L449.741,558.438L372.476,562.661L350.648,332.384Z" style="fill:rgb(29,29,41);fill-rule:nonzero;"/>
                </g>
                <g transform="matrix(0.935268,0,0,0.935268,16761.8,2128.42)">
                    <path d="M376.219,325.276L424.293,312.459L426.758,283.507L421.805,249.832L405.706,261.253L390.075,249.934L376.219,325.276Z" style="fill:rgb(247,229,208);fill-rule:nonzero;"/>
                </g>
                <g transform="matrix(0.935268,0,0,0.935268,16761.8,2128.42)">
                    <path d="M403.74,316.947L414.375,316.671L410.37,270.938L405.509,271.065L403.74,316.947Z" style="fill:rgb(99,30,43);fill-rule:nonzero;"/>
                </g>
                <g transform="matrix(0.935268,0,0,0.935268,16761.8,2128.42)">
                    <path d="M407.436,441.481L421.162,377.708L446.2,387.062L446.638,438.403L451.758,618.148L426.32,618.277L407.436,441.481Z" style="fill:rgb(30,50,59);fill-rule:nonzero;"/>
                </g>
                <g transform="matrix(0.935268,0,0,0.935268,16761.8,2128.42)">
                    <path d="M411.348,424.741L421.162,377.708L376.188,376.649L368.508,428.257L367.137,617.676L392.131,618.213L411.348,424.741Z" style="fill:rgb(30,50,59);fill-rule:nonzero;"/>
                </g>
                <g transform="matrix(0.935268,0,0,0.935268,16761.8,2128.42)">
                    <path d="M383.718,282.464L409.017,311.522L426.222,282.552L437.752,377.967L425.979,404.162L411.187,387.116L397.301,404.907L376.188,376.649L371.697,357.193L383.718,282.464Z" style="fill:rgb(139,139,153);fill-rule:nonzero;"/>
                </g>
                <g transform="matrix(0.935268,0,0,0.935268,16761.8,2128.42)">
                    <rect x="371.089" y="354.32" width="18.75" height="2.625" style="fill:rgb(120,120,133);fill-rule:nonzero;"/>
                </g>
                <g transform="matrix(0.935268,0,0,0.935268,16761.8,2128.42)">
                    <path d="M396.433,251.955L408.877,261.961L419.371,250.888L417.78,216.702L394.842,217.77L396.433,251.955Z" style="fill:rgb(255,187,141);fill-rule:nonzero;"/>
                </g>
                <g transform="matrix(0.935268,0,0,0.935268,16761.8,2128.42)">
                    <rect x="426.758" y="354.32" width="18.75" height="2.625" style="fill:rgb(120,120,133);fill-rule:nonzero;"/>
                </g>
                <g transform="matrix(0.935268,0,0,0.935268,16761.8,2128.42)">
                    <path d="M411.84,244.386L411.84,244.382C414.206,245.75 417.154,245.601 419.371,244.003L419.371,244.007C427.492,238.152 429.048,224.501 428.545,214.501L428.134,203.939C428.037,201.438 425.53,199.757 423.179,200.617C415.478,203.437 400.855,203.738 395.561,203.75C394.479,203.753 393.622,204.653 393.665,205.734L394.086,216.234C394.589,226.234 403.171,239.375 411.84,244.386Z" style="fill:rgb(255,187,141);fill-rule:nonzero;"/>
                </g>
                <g transform="matrix(0.935268,0,0,0.935268,16761.8,2128.42)">
                    <path d="M405.507,271.065L410.368,270.938L414.536,258.183L399.71,258.569L405.507,271.065Z" style="fill:rgb(99,30,43);fill-rule:nonzero;"/>
                </g>
                <g transform="matrix(0.935268,0,0,0.935268,16761.8,2128.42)">
                    <path d="M382.477,397.821L375.799,407.494L364.414,393.364L370.542,386.307L380.323,391.958L386.19,397.267C386.856,397.87 386.908,398.898 386.305,399.564L386.305,399.563C385.703,400.229 384.675,400.28 384.009,399.678L380.353,396.369L380.354,396.493L382.477,397.821Z" style="fill:rgb(255,187,141);fill-rule:nonzero;"/>
                </g>
                <g transform="matrix(0.935268,0,0,0.935268,16761.8,2128.42)">
                    <path d="M407.123,258.368L414.409,271.109L421.805,250.35L419.178,246.757L407.123,258.368Z" style="fill:rgb(247,229,208);fill-rule:nonzero;"/>
                </g>
                <g transform="matrix(0.935268,0,0,0.935268,16761.8,2128.42)">
                    <path d="M407.123,258.368L400.54,271.773L390.075,249.934L396.136,245.587L407.123,258.368Z" style="fill:rgb(247,229,208);fill-rule:nonzero;"/>
                </g>
                <g transform="matrix(0.935268,0,0,0.935268,16761.8,2128.42)">
                    <path d="M319.296,348.872L347.704,272C348.195,269.814 349.688,267.988 351.733,267.073L390.075,249.921L368.633,400.091L367.533,562.964L339.191,561.382L350.036,382.869L319.296,348.872Z" style="fill:rgb(29,29,41);fill-rule:nonzero;"/>
                </g>
                <g transform="matrix(0.935268,0,0,0.935268,16761.8,2128.42)">
                    <path d="M466.334,268.794L494.841,349.599L472.366,346.78L461.641,314.69L464.305,364.813L491.78,552.248L449.741,558.438L421.805,249.832L463.127,265.512C464.627,266.081 465.8,267.281 466.334,268.794Z" style="fill:rgb(29,29,41);fill-rule:nonzero;"/>
                </g>
                <g transform="matrix(0.935268,0,0,0.935268,16761.8,2128.42)">
                    <path d="M394.901,222.052C393.429,222.176 392.08,221.228 391.695,219.801L389.866,213.012C389.371,211.172 390.662,209.331 392.562,209.172L394.645,208.882L397.534,221.833L394.901,222.052Z" style="fill:rgb(255,187,141);fill-rule:nonzero;"/>
                </g>
                <g transform="matrix(0.935268,0,0,0.935268,16761.8,2128.42)">
                    <path d="M429.09,197.032L429.358,194.288C430.379,183.792 422.697,174.455 412.201,173.434L408.425,173.067C397.929,172.046 388.592,179.727 387.571,190.223L387.41,191.882C375.817,192.519 369.454,195.607 368.935,199.848C368.167,206.123 380.465,212.537 404.842,215.521C429.219,218.505 444.146,214.755 444.914,208.48C445.414,204.397 439.791,200.253 429.09,197.032Z" style="fill:rgb(97,46,46);fill-rule:nonzero;"/>
                </g>
                <g transform="matrix(0.935268,0,0,0.935268,16761.8,2128.42)">
                    <path d="M494.841,349.599L455.049,256.341L441.118,268.776L463.671,340.718C467.889,353.98 484.267,358.646 494.841,349.599Z" style="fill:rgb(29,29,41);fill-rule:nonzero;"/>
                </g>
                <g transform="matrix(0.935268,0,0,0.935268,16761.8,2128.42)">
                    <path d="M326.627,340.035L378.038,389.004L371.089,404.135L326.443,372.445C314.889,364.689 314.985,347.66 326.627,340.035Z" style="fill:rgb(29,29,41);fill-rule:nonzero;"/>
                </g>
                <g transform="matrix(0.935268,0,0,0.935268,16761.8,2128.42)">
                    <path d="M349.733,362.06L318.779,362.06C318.881,362.395 318.99,362.729 319.111,363.06L350.779,363.06L349.733,362.06ZM374.047,385.307L344.215,385.307L345.592,386.307L375.093,386.307L374.047,385.307Z" style="fill:rgb(30,59,59);fill-rule:nonzero;"/>
                </g>
                <g transform="matrix(0.935268,0,0,0.935268,16761.8,2128.42)">
                    <path d="M341.344,527.699L371.076,527.699L371.035,526.699L341.405,526.699L341.344,527.699ZM345.639,456.999L368.144,456.999L368.102,455.999L345.7,455.999L345.639,456.999ZM339.992,549.946L339.932,550.946L372.04,550.946L371.998,549.946L339.992,549.946ZM350.632,267.776C350.219,268.069 349.843,268.405 349.504,268.776L386.951,268.776L387.122,267.776L350.632,267.776ZM344.207,480.562L369.122,480.562L369.08,479.562L344.268,479.562L344.207,480.562ZM342.775,504.134L370.099,504.134L370.058,503.134L342.836,503.134L342.775,504.134ZM366.989,385.296L349.996,385.296L349.935,386.296L366.818,386.296L366.989,385.296ZM322.872,339.484L374.838,339.484L375.009,338.484L323.242,338.484L322.872,339.484ZM331.583,315.912L378.876,315.912L379.047,314.912L331.952,314.912L331.583,315.912ZM340.291,292.347L382.913,292.347L383.084,291.347L340.661,291.347L340.291,292.347ZM348.503,409.861L371.245,409.861L371.414,408.731L348.564,408.861L348.503,409.861ZM370.972,362.049L331.317,362.049L332.222,363.049L370.801,363.049L370.972,362.049ZM347.071,433.432L368.47,433.432L368.477,432.432L347.132,432.432L347.071,433.432Z" style="fill:rgb(30,59,59);fill-rule:nonzero;"/>
                </g>
                <g transform="matrix(0.935268,0,0,0.935268,16761.8,2128.42)">
                    <path d="M477.624,455.999L439.39,455.999L439.491,456.999L477.771,456.999L477.624,455.999ZM491.396,549.946L448.84,549.946L448.941,550.946L491.542,550.946L491.396,549.946ZM465.801,267.776L424.157,267.776L424.258,268.776L466.28,268.776C466.154,268.424 465.992,268.09 465.801,267.776ZM487.988,526.699L446.502,526.699L446.602,527.699L488.135,527.699L487.988,526.699ZM470.715,408.861L434.649,408.861L434.749,409.861L470.861,409.861L470.715,408.861ZM481.079,479.562L441.76,479.562L441.861,480.562L481.225,480.562L481.079,479.562ZM484.534,503.134L444.132,503.134L444.232,504.134L484.681,504.134L484.534,503.134ZM474.17,432.432L437.019,432.432L437.121,433.432L474.317,433.432L474.17,432.432ZM461.164,315.912L482.91,315.912L482.557,314.912L460.835,314.912L461.164,315.912ZM469.881,339.484L491.226,339.484L490.872,338.484L469.546,338.484L469.881,339.484ZM474.244,291.347L426.344,291.32L426.445,292.32L474.597,292.347L474.244,291.347ZM462.859,338.484L430.824,338.507L430.924,339.507L462.912,339.484L462.859,338.484ZM461.606,314.912L429.449,314.882L429.549,315.882L461.659,315.912L461.606,314.912ZM464.111,362.049L431.969,361.976L432.07,362.976L464.164,363.049L464.111,362.049ZM467.26,385.296L434.063,385.226L434.164,386.226L467.407,386.296L467.26,385.296Z" style="fill:rgb(30,59,59);fill-rule:nonzero;"/>
                </g>
                <g transform="matrix(0.935268,0,0,0.935268,16761.8,2128.42)">
                    <path d="M334.515,365.698L335.515,366.804L335.515,304.979L334.515,307.685L334.515,365.698ZM359.848,263.438L359.848,562.53L360.848,562.586L360.848,262.991L359.848,263.438Z" style="fill:rgb(30,59,59);fill-rule:nonzero;"/>
                </g>
                <g transform="matrix(0.935268,0,0,0.935268,16761.8,2128.42)">
                    <path d="M334.515,378.186L335.515,378.912L335.515,348.411L334.515,347.454L334.515,378.186ZM359.848,371.676L359.848,396.59L360.848,397.316L360.848,372.632L359.848,371.676Z" style="fill:rgb(30,59,59);fill-rule:nonzero;"/>
                </g>
                <g transform="matrix(0.935268,0,0,0.935268,16761.8,2128.42)">
                    <path d="M443.216,493.662L444.216,503.603L444.216,258.427L443.216,258.048L443.216,493.662ZM468.55,275.166L468.673,348.765L469.67,349.715L469.55,278.001L468.55,275.166ZM468.55,555.76L469.55,555.613L469.55,400.686L468.55,393.864L468.55,555.76Z" style="fill:rgb(30,59,59);fill-rule:nonzero;"/>
                </g>
                <g transform="matrix(0.935268,0,0,0.935268,16761.8,2128.42)">
                    <path d="M432.081,363.344L447.096,272.727L431.007,272.319L436.845,261.121L421.805,249.832L432.081,363.344Z" style="fill:rgb(40,40,56);fill-rule:nonzero;"/>
                </g>
                <g transform="matrix(0.935268,0,0,0.935268,16761.8,2128.42)">
                    <path d="M371.834,356.396L362.847,275.505L378.893,274.261L372.48,263.382L390.075,249.934L371.834,356.396Z" style="fill:rgb(40,40,56);fill-rule:nonzero;"/>
                </g>
                <g transform="matrix(0.935268,0,0,0.935268,16761.8,2128.42)">
                    <path d="M411.192,320.897C411.192,322.076 410.236,323.031 409.057,323.031C407.878,323.031 406.923,322.076 406.923,320.897C406.923,319.718 407.878,318.763 409.057,318.763C410.236,318.763 411.192,319.718 411.192,320.897Z" style="fill:rgb(40,40,56);fill-rule:nonzero;"/>
                </g>
                <g transform="matrix(0.935268,0,0,0.935268,16761.8,2128.42)">
                    <path d="M411.192,334.518C411.192,335.696 410.236,336.652 409.057,336.652C407.878,336.652 406.923,335.696 406.923,334.518C406.923,333.339 407.878,332.384 409.057,332.384C410.236,332.384 411.192,333.339 411.192,334.518Z" style="fill:rgb(40,40,56);fill-rule:nonzero;"/>
                </g>
                <g transform="matrix(0.935268,0,0,0.935268,16761.8,2128.42)">
                    <path d="M411.192,349.585C411.192,350.764 410.236,351.72 409.057,351.72C407.878,351.72 406.923,350.764 406.923,349.585C406.923,348.406 407.878,347.451 409.057,347.451C410.236,347.451 411.192,348.406 411.192,349.585Z" style="fill:rgb(40,40,56);fill-rule:nonzero;"/>
                </g>
                <g transform="matrix(0.935268,0,0,0.935268,16761.8,2128.42)">
                    <path d="M411.192,363.206C411.192,364.384 410.236,365.34 409.057,365.34C407.878,365.34 406.923,364.384 406.923,363.206C406.923,362.027 407.878,361.071 409.057,361.071C410.236,361.071 411.192,362.027 411.192,363.206Z" style="fill:rgb(40,40,56);fill-rule:nonzero;"/>
                </g>
                <g transform="matrix(0.935268,0,0,0.935268,16761.8,2128.42)">
                    <path d="M411.192,377.757C411.192,378.936 410.236,379.891 409.057,379.891C407.878,379.891 406.923,378.936 406.923,377.757C406.923,376.578 407.878,375.623 409.057,375.623C410.236,375.623 411.192,376.578 411.192,377.757Z" style="fill:rgb(40,40,56);fill-rule:nonzero;"/>
                </g>
                <g transform="matrix(0.935268,0,0,0.935268,16761.8,2128.42)">
                    <path d="M407.46,201.66C400.541,200.9 392.864,199.281 387.2,196.722C387.135,196.693 387.006,196.634 387.006,196.634C387.006,196.634 388.074,187.696 388.007,187.576C388.063,187.664 388.144,187.759 388.249,187.862C389.823,189.398 396.798,192.44 408.334,193.708C420.469,195.041 427.965,193.435 429.322,192.25C429.34,192.233 429.358,192.217 429.375,192.2C429.386,192.426 429.344,192.481 429.314,192.753L428.384,201.227C428.384,201.227 428.283,201.248 428.233,201.259C422.174,202.508 414.382,202.421 407.46,201.66Z" style="fill:rgb(29,29,41);fill-rule:nonzero;"/>
                </g>
                <g transform="matrix(0.935268,0,0,0.935268,16761.8,2128.42)">
                    <path d="M411.616,231.549L395.192,222.098C397.832,230.86 404.82,240.303 411.865,244.375L411.865,244.372C414.231,245.739 417.179,245.591 419.396,243.993L419.396,243.997C425.387,239.677 427.799,231.116 428.454,222.907L421.757,230.042C419.135,232.835 414.936,233.459 411.616,231.549Z" style="fill:rgb(54,28,33);fill-rule:nonzero;"/>
                </g>
                <g transform="matrix(0.935268,0,0,0.935268,16761.8,2128.42)">
                    <path d="M444.214,233.03C443.335,233.21 442.754,234.136 442.574,233.257L441.503,227.806C441.274,226.744 442.116,225.754 443.201,225.809C443.953,225.847 444.583,226.389 444.735,227.126L445.48,231.111C445.66,231.99 445.094,232.849 444.214,233.03Z" style="fill:rgb(255,187,141);fill-rule:nonzero;"/>
                </g>
                <g transform="matrix(0.935268,0,0,0.935268,16761.8,2128.42)">
                    <path d="M430.682,232.177C431.578,232.116 432.353,232.794 432.414,233.689L432.946,241.585L429.603,240.34L429.169,233.908C429.109,233.012 429.787,232.237 430.682,232.177Z" style="fill:rgb(255,187,141);fill-rule:nonzero;"/>
                </g>
                <g transform="matrix(0.935268,0,0,0.935268,16761.8,2128.42)">
                    <path d="M436.654,251.37L441.816,256.249L447.801,266.992L452.633,260.427L447.965,240.937L445.418,231.04L441.578,230.835L440.298,230.767L440.01,228.638L430.913,230.265L431.978,237.682L429.603,240.34L434.53,249.567C435.092,250.321 435.818,250.938 436.654,251.37Z" style="fill:rgb(255,187,141);fill-rule:nonzero;"/>
                </g>
                <g transform="matrix(0.935268,0,0,0.935268,16761.8,2128.42)">
                    <path d="M424.857,233.253L452.382,237.658L453.162,232.783L425.637,228.378L424.857,233.253Z" style="fill:rgb(97,46,46);fill-rule:nonzero;"/>
                </g>
                <g transform="matrix(0.935268,0,0,0.935268,16761.8,2128.42)">
                    <path d="M436.084,231.821C435.384,231.259 435.271,230.236 435.833,229.536L437.083,227.889C437.755,227.034 439.055,227.051 439.705,227.921C440.155,228.524 440.141,229.356 439.67,229.943L438.369,231.571C437.807,232.271 436.784,232.383 436.084,231.821Z" style="fill:rgb(255,187,141);fill-rule:nonzero;"/>
                </g>
                <g transform="matrix(0.935268,0,0,0.935268,16761.8,2128.42)">
                    <path d="M432.858,231.022C432.158,230.46 432.046,229.436 432.608,228.736L433.858,227.089C434.53,226.235 435.83,226.251 436.479,227.122C436.93,227.725 436.915,228.556 436.444,229.143L435.143,230.771C434.582,231.471 433.559,231.583 432.858,231.022Z" style="fill:rgb(255,187,141);fill-rule:nonzero;"/>
                </g>
                <g transform="matrix(0.935268,0,0,0.935268,16761.8,2128.42)">
                    <path d="M430.87,231.2C430,230.977 429.477,230.091 429.7,229.221L430.16,227.205C430.42,226.15 431.611,225.629 432.562,226.155C433.221,226.518 433.55,227.281 433.363,228.011L432.849,230.03C432.625,230.9 431.74,231.424 430.87,231.2Z" style="fill:rgb(255,187,141);fill-rule:nonzero;"/>
                </g>
                <g transform="matrix(0.935268,0,0,0.935268,16761.8,2128.42)">
                    <path d="M650.408,615.88C647.201,609.431 646.542,602.011 648.563,595.099L649.843,590.718L632.574,587.35C632.574,600.292 635.581,613.054 641.358,624.635L641.725,625.372L641.812,625.329C643.773,629.384 646.099,632.347 650.362,632.062C654.406,631.792 657.714,628.416 657.911,624.368C658.125,619.908 654.738,616.199 650.408,615.88Z" style="fill:rgb(29,29,41);fill-rule:nonzero;"/>
                </g>
                <g transform="matrix(0.935268,0,0,0.935268,16761.8,2128.42)">
                    <path d="M529.753,615.88C532.959,609.431 533.619,602.011 531.598,595.099L530.317,590.718L547.586,587.35C547.586,600.292 544.58,613.054 538.803,624.635L538.435,625.372L538.348,625.329C536.388,629.384 534.061,632.347 529.798,632.062C525.755,631.792 522.445,628.416 522.25,624.368C522.034,619.908 525.423,616.199 529.753,615.88Z" style="fill:rgb(29,29,41);fill-rule:nonzero;"/>
                </g>
                <g transform="matrix(0.935268,0,0,0.935268,16761.8,2128.42)">
                    <path d="M514.125,624.434L500.712,624.426L504.006,603.598L517.093,605.668L514.125,624.434Z" style="fill:rgb(211,211,240);fill-rule:nonzero;"/>
                </g>
                <g transform="matrix(0.935268,0,0,0.935268,16761.8,2128.42)">
                    <path d="M501.067,622.183L473.561,639.083C472.76,639.575 473.108,640.809 474.049,640.809L498,640.809L505.883,637.784L505.883,640.809L514.354,640.783L514.354,622.742L501.067,622.183Z" style="fill:rgb(97,46,46);fill-rule:nonzero;"/>
                </g>
                <g transform="matrix(0.935268,0,0,0.935268,16761.8,2128.42)">
                    <path d="M572.743,624.434L583.873,630.099L592.775,610.984L580.763,605.391L572.743,624.434Z" style="fill:rgb(211,211,240);fill-rule:nonzero;"/>
                </g>
                <g transform="matrix(0.935268,0,0,0.935268,16761.8,2128.42)">
                    <path d="M586.241,624.122L609.705,644.161C610.354,644.841 609.702,645.945 608.792,645.706L584.457,642.915L577.606,638.988L577.018,641.221L568.651,640.289L572.613,623.828L586.241,624.122Z" style="fill:rgb(97,46,46);fill-rule:nonzero;"/>
                </g>
                <g transform="matrix(0.935268,0,0,0.935268,16761.8,2128.42)">
                    <path d="M653.553,464.339L653.553,462.596L655.742,463.799C655.002,463.953 654.275,464.137 653.553,464.339ZM697.187,495.167C696.094,478.698 683.151,465.109 666.747,463.287C662.999,462.871 659.356,463.059 655.9,463.763L675.676,382.916C677.116,377.033 674.013,370.987 668.396,368.724L640.422,357.457C629.624,344.559 609.505,335.879 586.451,335.879C564.07,335.879 544.453,344.056 533.446,356.334L533.445,356.324L504.652,367.921C499.035,370.183 495.933,376.23 497.372,382.113L516.638,460.88L516.638,465.4C512.681,464.178 508.42,463.648 503.995,463.958C487.118,465.139 473.407,478.75 472.122,495.618C470.777,513.251 482.722,528.339 498.985,531.942L498.985,561.324C498.985,578.623 513.008,592.647 530.309,592.647L642.592,592.647C659.892,592.647 673.915,578.623 673.915,561.324L673.915,530.125C688.19,525.267 698.258,511.315 697.187,495.167Z" style="fill:rgb(30,80,99);fill-rule:nonzero;"/>
                </g>
                <g transform="matrix(0.935268,0,0,0.935268,16761.8,2128.42)">
                    <path d="M644.032,336.296C644.032,342.371 639.107,347.296 633.032,347.296C626.956,347.296 622.032,342.371 622.032,336.296C622.032,330.221 626.956,325.296 633.032,325.296C639.107,325.296 644.032,330.221 644.032,336.296Z" style="fill:rgb(29,29,41);fill-rule:nonzero;"/>
                </g>
                <g transform="matrix(0.935268,0,0,0.935268,16761.8,2128.42)">
                    <path d="M648.574,343.245C648.574,346.625 645.834,349.364 642.455,349.364C639.076,349.364 636.336,346.625 636.336,343.245C636.336,339.866 639.076,337.127 642.455,337.127C645.834,337.127 648.574,339.866 648.574,343.245Z" style="fill:rgb(29,29,41);fill-rule:nonzero;"/>
                </g>
                <g transform="matrix(0.935268,0,0,0.935268,16761.8,2128.42)">
                    <path d="M634.968,432.035L606.801,430.619L584.641,418.369L602.566,386.829L630.301,392.077L634.968,432.035Z" style="fill:white;fill-rule:nonzero;"/>
                </g>
                <g transform="matrix(0.935268,0,0,0.935268,16761.8,2128.42)">
                    <rect x="606.287" y="367.068" width="21.654" height="31.323" style="fill:rgb(255,187,141);fill-rule:nonzero;"/>
                </g>
                <g transform="matrix(0.935268,0,0,0.935268,16761.8,2128.42)">
                    <path d="M647.831,346.167L645.116,359.226C645.116,359.226 633.298,369.649 626.188,369.649C614.671,369.649 605.335,360.313 605.335,348.796C605.335,337.28 614.671,327.944 626.188,327.944C637.705,327.944 647.831,346.167 647.831,346.167Z" style="fill:rgb(29,29,41);fill-rule:nonzero;"/>
                </g>
                <g transform="matrix(0.935268,0,0,0.935268,16761.8,2128.42)">
                    <path d="M625.485,388.322C622.999,389.634 619.976,389.364 617.761,387.634C609.649,381.295 605.303,371.276 606.218,361.021L607.06,350.184C607.26,347.618 609.903,345.991 612.284,346.968L612.284,346.969C621.92,350.926 642.561,351.271 642.553,351.379L641.555,364.173C640.641,374.427 634.59,383.519 625.485,388.322Z" style="fill:rgb(255,187,141);fill-rule:nonzero;"/>
                </g>
                <g transform="matrix(0.935268,0,0,0.935268,16761.8,2128.42)">
                    <path d="M606.827,364.277C605.316,364.115 604.138,362.896 604.028,361.381L603.502,354.169C603.361,352.214 605.023,350.608 606.972,350.817L608.255,350.954L606.827,364.277Z" style="fill:rgb(255,187,141);fill-rule:nonzero;"/>
                </g>
                <g transform="matrix(0.935268,0,0,0.935268,16761.8,2128.42)">
                    <path d="M639.855,368.106C641.363,368.292 642.787,367.372 643.239,365.922L645.388,359.018C645.971,357.146 644.717,355.204 642.772,354.965L641.491,354.807L639.855,368.106Z" style="fill:rgb(255,187,141);fill-rule:nonzero;"/>
                </g>
                <g transform="matrix(0.935268,0,0,0.935268,16761.8,2128.42)">
                    <path d="M617.761,387.634C619.976,389.364 622.999,389.634 625.485,388.322C634.59,383.519 640.641,374.427 641.555,364.173L641.737,361.798L636.688,371.356C635.131,374.302 632.561,376.586 629.452,377.784C625.406,379.342 620.864,378.908 617.187,376.611L616.535,376.203C613.732,374.452 611.652,371.754 610.671,368.598L606.638,355.612L606.218,361.021C605.303,371.276 609.649,381.295 617.761,387.634Z" style="fill:rgb(29,29,41);fill-rule:nonzero;"/>
                </g>
                <g transform="matrix(0.935268,0,0,0.935268,16761.8,2128.42)">
                    <path d="M614.767,408.25L621.456,403.103L615.378,398.391L608.757,402.68L612.597,407.796C611.178,407.88 609.927,408.881 609.612,410.338L602.816,441.694L609.686,443.183L616.482,411.827C616.801,410.35 616.055,408.9 614.767,408.25Z" style="fill:rgb(29,29,41);fill-rule:nonzero;"/>
                </g>
                <g transform="matrix(0.935268,0,0,0.935268,16761.8,2128.42)">
                    <path d="M615.378,398.391L603.649,405.808L602.566,386.829L606.287,385.266L615.378,398.391Z" style="fill:white;fill-rule:nonzero;"/>
                </g>
                <g transform="matrix(0.935268,0,0,0.935268,16761.8,2128.42)">
                    <path d="M615.378,398.395L624.553,408.806L630.921,390.894L627.789,388.35L615.378,398.395Z" style="fill:white;fill-rule:nonzero;"/>
                </g>
                <g transform="matrix(0.935268,0,0,0.935268,16761.8,2128.42)">
                    <path d="M621.7,490.047L569.85,481.156L568.315,478.141L512.503,507.166C509.143,508.913 506.772,512.105 506.069,515.826L487.917,611.974L516.584,611.974L538.673,539.756C539.941,535.61 543.29,532.434 547.496,531.388L590.024,520.808L592.691,524.151C595.475,527.641 596.209,532.343 594.623,536.516L565.941,611.974L595.458,611.974L635.088,530.727C636.737,527.347 636.793,523.409 635.244,519.982L621.7,490.047Z" style="fill:rgb(237,237,237);fill-rule:nonzero;"/>
                </g>
                <g transform="matrix(0.935268,0,0,0.935268,16761.8,2128.42)">
                    <path d="M607.726,427.405L592.816,402.391L568.315,478.141L575.566,495.641L594.563,486.642L607.606,502.703L621.7,490.047L632.296,411.141L607.726,427.405Z" style="fill:rgb(139,139,153);fill-rule:nonzero;"/>
                </g>
                <g transform="matrix(0.935268,0,0,0.935268,16761.8,2128.42)">
                    <path d="M581.357,464.462L563.135,460.045L563.753,457.494L581.975,461.911L581.357,464.462Z" style="fill:rgb(29,29,41);fill-rule:nonzero;"/>
                </g>
                <g transform="matrix(0.935268,0,0,0.935268,16761.8,2128.42)">
                    <path d="M633.537,475.156L615.314,470.739L615.932,468.188L634.155,472.605L633.537,475.156Z" style="fill:rgb(29,29,41);fill-rule:nonzero;"/>
                </g>
                <g transform="matrix(0.935268,0,0,0.935268,16761.8,2128.42)">
                    <path d="M563.057,396.414L538.2,436.803C535.751,440.875 532.095,444.082 527.739,445.98L499.167,458.271L504.5,470.183L537.208,462.393C540.645,461.447 543.813,459.711 546.459,457.323L566.023,438.889C566.63,445.277 565.093,451.685 561.656,457.103L538.456,493.67L568.315,480.391L602.566,386.829L567.321,393.449C565.542,393.783 563.99,394.862 563.057,396.414Z" style="fill:rgb(237,237,237);fill-rule:nonzero;"/>
                </g>
                <g transform="matrix(0.935268,0,0,0.935268,16761.8,2128.42)">
                    <path d="M677.524,470.391L666.32,391.258C666.062,389.443 664.543,388.071 662.711,388L632.296,386.829L621.7,490.047L634.331,517.966L638.756,463.553C638.823,462.727 639.001,461.913 639.285,461.134L649.378,433.421L659.857,470.391L677.524,470.391Z" style="fill:rgb(237,237,237);fill-rule:nonzero;"/>
                </g>
                <g transform="matrix(0.935268,0,0,0.935268,16761.8,2128.42)">
                    <path d="M627.281,435.029L641.286,411.069L643.346,387.26L632.147,386.829L627.281,435.029Z" style="fill:rgb(209,209,209);fill-rule:nonzero;"/>
                </g>
                <g transform="matrix(0.935268,0,0,0.935268,16761.8,2128.42)">
                    <path d="M677.524,470.391L673.373,475.764C667.355,483.555 655.115,481.681 651.705,472.446L633.827,424.037L646.273,416.851L677.524,470.391Z" style="fill:rgb(237,237,237);fill-rule:nonzero;"/>
                </g>
                <g transform="matrix(0.935268,0,0,0.935268,16761.8,2128.42)">
                    <path d="M646.273,416.851L633.827,424.037L629.867,417.178L642.313,409.993L646.273,416.851Z" style="fill:white;fill-rule:nonzero;"/>
                </g>
                <g transform="matrix(0.935268,0,0,0.935268,16761.8,2128.42)">
                    <path d="M625.732,391.573C625.688,391.416 625.616,391.277 625.533,391.146L626.417,390.715L627.126,396.217L627.061,396.322L625.732,391.573ZM637.716,407.79L638.451,399.527C638.535,398.59 638.403,397.646 638.067,396.767L633.424,382.28L633.423,382.281C633.109,381.301 632.003,380.82 631.072,381.259L621.721,385.664C621.097,385.967 620.771,386.63 620.857,387.282L620.269,387.568C619.488,387.949 619.163,388.891 619.543,389.673C619.653,389.899 619.813,390.081 619.999,390.225L618.755,390.831C618.028,391.185 617.595,392.011 617.829,392.787C618.125,393.775 619.213,394.224 620.101,393.791L622.631,392.559L624.734,400.07L627.959,408.137L632.296,415.776L639.807,411.439L637.716,407.79Z" style="fill:rgb(255,187,141);fill-rule:nonzero;"/>
                </g>
                <g transform="matrix(0.935268,0,0,0.935268,16761.8,2128.42)">
                    <path d="M605.905,436.642C604.759,436.364 603.605,437.068 603.328,438.214C603.05,439.359 603.753,440.512 604.899,440.791C606.044,441.068 607.199,440.365 607.476,439.219C607.753,438.073 607.05,436.92 605.905,436.642Z" style="fill:rgb(29,29,41);fill-rule:nonzero;"/>
                </g>
                <g transform="matrix(0.935268,0,0,0.935268,16761.8,2128.42)">
                    <path d="M602.696,449.879C601.55,449.601 600.397,450.305 600.119,451.451C599.841,452.596 600.544,453.75 601.691,454.028C602.836,454.305 603.99,453.601 604.267,452.456C604.545,451.31 603.841,450.157 602.696,449.879Z" style="fill:rgb(29,29,41);fill-rule:nonzero;"/>
                </g>
                <g transform="matrix(0.935268,0,0,0.935268,16761.8,2128.42)">
                    <path d="M599.146,464.522C598,464.245 596.847,464.949 596.57,466.094C596.291,467.24 596.995,468.393 598.141,468.672C599.287,468.949 600.44,468.245 600.717,467.099C600.996,465.954 600.291,464.801 599.146,464.522Z" style="fill:rgb(29,29,41);fill-rule:nonzero;"/>
                </g>
                <g transform="matrix(0.935268,0,0,0.935268,16761.8,2128.42)">
                    <path d="M595.938,477.759C594.791,477.482 593.638,478.185 593.361,479.331C593.082,480.477 593.787,481.631 594.932,481.908C596.078,482.186 597.232,481.482 597.509,480.337C597.787,479.191 597.083,478.038 595.938,477.759Z" style="fill:rgb(29,29,41);fill-rule:nonzero;"/>
                </g>
                <g transform="matrix(0.935268,0,0,0.935268,16761.8,2128.42)">
                    <path d="M488.067,466.24L495.19,461.99L500.069,460.286L501.51,469.244L501.193,469.689L496.55,477.033L492.026,477.354L486.085,482.941L479.843,476.592L486.056,468.17C486.571,467.383 487.259,466.722 488.067,466.24Z" style="fill:rgb(255,187,141);fill-rule:nonzero;"/>
                </g>
                <g transform="matrix(0.935268,0,0,0.935268,16761.8,2128.42)">
                    <path d="M489.345,483.491C490.048,484.05 491.071,483.932 491.629,483.229L496.55,477.033L494.004,475.01L489.083,481.207C488.525,481.91 488.642,482.932 489.345,483.491Z" style="fill:rgb(255,187,141);fill-rule:nonzero;"/>
                </g>
                <g transform="matrix(0.935268,0,0,0.935268,16761.8,2128.42)">
                    <path d="M485.723,490.033C486.616,489.939 487.264,489.139 487.17,488.247L486.347,480.377L483.113,480.715L483.937,488.585C484.03,489.478 484.83,490.126 485.723,490.033Z" style="fill:rgb(255,187,141);fill-rule:nonzero;"/>
                </g>
                <g transform="matrix(0.935268,0,0,0.935268,16761.8,2128.42)">
                    <path d="M483.248,487.869C484.142,487.775 484.789,486.975 484.696,486.083L483.872,478.213L480.639,478.551L481.463,486.422C481.556,487.314 482.356,487.963 483.248,487.869Z" style="fill:rgb(255,187,141);fill-rule:nonzero;"/>
                </g>
                <g transform="matrix(0.935268,0,0,0.935268,16761.8,2128.42)">
                    <path d="M481.914,485.788C482.807,485.694 483.455,484.894 483.361,484.002L482.538,476.132L481.291,474.629L479.468,477.105L480.128,484.341C480.221,485.233 481.021,485.882 481.914,485.788Z" style="fill:rgb(255,187,141);fill-rule:nonzero;"/>
                </g>
                <g transform="matrix(0.935268,0,0,0.935268,16761.8,2128.42)">
                    <path d="M499.209,458.271L504.542,470.183L498.182,472.837L493.048,461.086L499.209,458.271Z" style="fill:white;fill-rule:nonzero;"/>
                </g>
                <g transform="matrix(0.935268,0,0,0.935268,16761.8,2128.42)">
                    <path d="M502.285,614.577L502.127,615.577L515.542,615.577L515.7,614.577L502.285,614.577ZM501.554,619.202L514.968,619.202L515.125,618.202L501.712,618.202L501.554,619.202Z" style="fill:rgb(29,29,41);fill-rule:nonzero;"/>
                </g>
                <g transform="matrix(0.935268,0,0,0.935268,16761.8,2128.42)">
                    <path d="M576.719,614.994L576.297,615.994L590.442,615.994L590.908,614.994L576.719,614.994ZM574.771,619.619L588.754,619.619L589.219,618.619L575.192,618.619L574.771,619.619Z" style="fill:rgb(29,29,41);fill-rule:nonzero;"/>
                </g>
                <g transform="matrix(0.935268,0,0,0.935268,16761.8,2128.42)">
                    <path d="M585.56,433.284L584.641,405.043L591.918,388.829L602.566,386.829L585.56,433.284Z" style="fill:rgb(209,209,209);fill-rule:nonzero;"/>
                </g>
            </g>
        </g>
    </g>
</svg>
