<svg xmlns="http://www.w3.org/2000/svg" xmlns:xlink="http://www.w3.org/1999/xlink" width="159" height="221" viewBox="0 0 159 221">
  <defs>
    <filter id="Ellipse_119" x="29" y="98" width="100" height="100" filterUnits="userSpaceOnUse">
      <feOffset dy="3" input="SourceAlpha"/>
      <feGaussianBlur stdDeviation="3" result="blur"/>
      <feFlood flood-opacity="0.161"/>
      <feComposite operator="in" in2="blur"/>
      <feComposite in="SourceGraphic"/>
    </filter>
    <linearGradient id="linear-gradient" x1="1" y1="0.539" x2="0" y2="0.533" gradientUnits="objectBoundingBox">
      <stop offset="0" stop-opacity="0"/>
      <stop offset="1"/>
    </linearGradient>
    <linearGradient id="linear-gradient-2" x1="0" y1="0.539" x2="1" y2="0.533" xlink:href="#linear-gradient"/>
    <filter id="Rectangle_491" x="1.5" y="4.5" width="156" height="87" filterUnits="userSpaceOnUse">
      <feOffset dy="3" input="SourceAlpha"/>
      <feGaussianBlur stdDeviation="2.5" result="blur-2"/>
      <feFlood flood-opacity="0.404"/>
      <feComposite operator="in" in2="blur-2"/>
      <feComposite in="SourceGraphic"/>
    </filter>
    <filter id="Ellipse_118" x="54" y="57" width="53" height="53" filterUnits="userSpaceOnUse">
      <feOffset dy="3" input="SourceAlpha"/>
      <feGaussianBlur stdDeviation="3" result="blur-3"/>
      <feFlood flood-opacity="0.161"/>
      <feComposite operator="in" in2="blur-3"/>
      <feComposite in="SourceGraphic"/>
    </filter>
  </defs>
  <g id="Group_1203" data-name="Group 1203" transform="translate(-7264 -16699)">
    <rect id="Rectangle_497" data-name="Rectangle 497" width="159" height="221" transform="translate(7264 16699)" fill="none"/>
    <g id="Group_1202" data-name="Group 1202" transform="translate(-15 674)">
      <g id="Group_1180" data-name="Group 1180" transform="translate(7288 16034)">
        <g id="Rectangle_490" data-name="Rectangle 490" fill="#ff0f0f" stroke="#ffce19" stroke-width="2">
          <rect width="141" height="204" rx="3" stroke="none"/>
          <rect x="1" y="1" width="139" height="202" rx="2" fill="none"/>
        </g>
        <path id="Path_5555" data-name="Path 5555" d="M3.563,0H65.321a3.563,3.563,0,0,1,3.563,3.563V199.525H3.563A3.563,3.563,0,0,1,0,195.962V3.563A3.563,3.563,0,0,1,3.563,0Z" transform="translate(2.375 2.375)" fill="#d51313"/>
        <g id="Group_1184" data-name="Group 1184" transform="translate(29.443 94.64)">
          <g transform="matrix(1, 0, 0, 1, -38.44, -103.64)" filter="url(#Ellipse_119)">
            <g id="Ellipse_119-2" data-name="Ellipse 119" transform="translate(38 104)" fill="#900200" stroke="#ffce19" stroke-width="1">
              <circle cx="41" cy="41" r="41" stroke="none"/>
              <circle cx="41" cy="41" r="40.5" fill="none"/>
            </g>
          </g>
          <g id="_99_Q2hpbmVzZSBsZXR0ZXJpbmcgNQ" data-name="99_Q2hpbmVzZSBsZXR0ZXJpbmcgNQ" transform="translate(16.204 14.57)">
            <path id="Path_5510" data-name="Path 5510" d="M.758,30.811l.056.04.148-.208L.909,30.6l-.151.207Zm2.3-1.633a2.283,2.283,0,0,1,.295-.317,2.154,2.154,0,0,1,.407-.178.86.86,0,0,1,.821-.485.584.584,0,0,0,.3-.128c.615-.453,1.23-.9,1.83-1.377.117-.092.312-.146.31-.362,0-.031.1-.065.148-.1.075-.049.217-.1.213-.146-.011-.151.049-.16.166-.147.03,0,.093-.037.1-.061.04-.494.552-.568.792-.887a4.81,4.81,0,0,1,.643-.634c.1-.093.232-.155.328-.251a9.22,9.22,0,0,0,1.164-1.482c.138-.208.275-.417.425-.616a12.133,12.133,0,0,0,1.438-2.331,8.03,8.03,0,0,1,.608-1.092,5.266,5.266,0,0,0,.561-1.769.8.8,0,0,0-.217.038,8.463,8.463,0,0,1-1.43.665,12.474,12.474,0,0,0-1.65.786c-.544.276-1.081.57-1.623.852-.294.153-.6.277-.883.454-.221.14-.39.359-.605.507a1.142,1.142,0,0,0-.408,1.525,4.894,4.894,0,0,0,.321,1.07.366.366,0,0,1-.073.426c-.27.337-.508.7-.8,1.017s-.6.569-.911.846a.235.235,0,0,1-.147.074c-.418-.032-.852.113-1.254-.146a2.9,2.9,0,0,0-.683-.3c-.31-.1-.4-.385-.513-.618a2.148,2.148,0,0,0-.586-.842.591.591,0,0,1-.182-.354,3.683,3.683,0,0,1-.037-.748,3.689,3.689,0,0,0-.4-1.978A2.917,2.917,0,0,1,1.5,17.63a1.3,1.3,0,0,1,.448-.537.779.779,0,0,0,.383-.648c-.005-.334.219-.527.413-.778.229.172.442.323.643.488a1.435,1.435,0,0,0,1.421.375c.782-.249,1.581-.448,2.35-.73a38,38,0,0,1,4.127-1.2c.81-.2,1.607-.448,2.406-.692a3.291,3.291,0,0,0,.412-.256,3.109,3.109,0,0,1,.4-.135c.173-.255.326-.518.516-.751a3.3,3.3,0,0,1,1.3-.941,2.223,2.223,0,0,1,1.161-.266A.994.994,0,0,1,18.24,12a4.492,4.492,0,0,0,.506.7,3.588,3.588,0,0,0,.67.477,13.58,13.58,0,0,1,1.208.734,2.081,2.081,0,0,1,.687.816,4.073,4.073,0,0,0,.751,1.083,1.211,1.211,0,0,0,.262.269,3.865,3.865,0,0,1,1.056,1.374,2.184,2.184,0,0,1,.084.969,1.355,1.355,0,0,1-.055.405,2.921,2.921,0,0,1-.256.739,2.6,2.6,0,0,1-1.065.976,1.247,1.247,0,0,1-.924.126c-.5-.154-.506-.149-.737.336a.327.327,0,0,1-.051.066,1.355,1.355,0,0,0-1.167.234,2.9,2.9,0,0,0-.477.5c-.162.219-.4.38-.582.586-.274.311-.535.635-.791.961-.162.208-.305.43-.473.67a2.418,2.418,0,0,0,.218.23c.527.433,1.066.852,1.586,1.293.4.341.8.692,1.175,1.063a20.759,20.759,0,0,1,2.788,3.1,1.906,1.906,0,0,1,.486,1.124.4.4,0,0,1-.108.286,4.182,4.182,0,0,0-1.281,1.326,2.386,2.386,0,0,1-1,.793,1.049,1.049,0,0,1-1-.118c-.406-.212-.806-.439-1.209-.66-.012-.006-.024-.019-.036-.019A2.4,2.4,0,0,1,18,32.418c-.171-.047-.318-.16-.516-.082a.437.437,0,0,1-.49-.154,6.641,6.641,0,0,1-1.241-1.45,4,4,0,0,0-.7-.936,1.678,1.678,0,0,0,0,.256,5.97,5.97,0,0,1-.023,1.49c-.062.551-.06,1.111-.083,1.667q-.065,1.565-.129,3.13c-.023.543-.075,1.086-.061,1.628a18.952,18.952,0,0,0,.152,2.119,4.5,4.5,0,0,1-.044,1.487,4.465,4.465,0,0,0,.036,1.411,4.908,4.908,0,0,1-.066,1.985A4.912,4.912,0,0,0,14.687,46c-.045.751-.079,1.5-.09,2.255a8.205,8.205,0,0,1-.291,2.1c-.131.469-.262.937-.39,1.406-.042.159-.1.282-.3.3-.07.005-.138.077-.2.126-.043.032-.071.1-.117.113a10.029,10.029,0,0,1-.983.309,1.892,1.892,0,0,0-.424.115c-.122.057-.367.071-.434,0-.192-.217-.346-.068-.518,0-.26-.265-.616-.174-.909-.2a1.066,1.066,0,0,0-.891.441,1.193,1.193,0,0,0-.406-.563c-.131-.088-.146-.374-.179-.576-.067-.426-.11-.855-.164-1.282a.653.653,0,0,0-.014-.123c-.273-.77-.509-1.555-.831-2.3a7.412,7.412,0,0,1-.713-3.425,3.942,3.942,0,0,1,.471-1.879c.238-.388.407-.818.629-1.216a1.912,1.912,0,0,1,.35-.412,10.871,10.871,0,0,0,2.536-3.58c.06-.141.136-.274.206-.411a2.8,2.8,0,0,0,.291-1.074c.1-1.233.239-2.462.374-3.692.058-.538.127-1.077.21-1.613.039-.246.128-.482.185-.726.122-.524.239-1.051.373-1.633a1.476,1.476,0,0,0-.574.221c-1.051.7-2.089,1.429-3.15,2.118-.369.24-.8.376-1.186.6a14.773,14.773,0,0,1-2.286.888c-.022.009-.053-.006-.115-.015l.157-.305-.571.212A1.506,1.506,0,0,0,4.344,32a3.084,3.084,0,0,1-.938-.136c-.107-.048-.321.109-.47.2-.118.071-.21.185-.372.12a1.048,1.048,0,0,0-1.008.244c-.355.232-.453.239-.672-.094-.168-.253-.3-.516-.62-.628-.088-.031-.144-.155-.265-.294L.621,31.2c0-.1,0-.193,0-.289a.745.745,0,0,1,.478-.793,2.732,2.732,0,0,0,.475-.333,1.2,1.2,0,0,1,.236-.083c-.112.418-.577.409-.672.769l1.9-1.284s.012-.014.012-.014Z" transform="translate(0 0.96)" fill="#ffce19"/>
            <path id="Path_5511" data-name="Path 5511" d="M26.715,38.6a5.915,5.915,0,0,0,.044,1.38c.048.233.109.386.317.431.008.161.015.294.024.467.158-.032.277-.054.4-.082.2-.047.4-.113.605-.144.479-.074.969-.094,1.437-.209a2.306,2.306,0,0,1,1.226.086c.132.038.27.061.406.089a.467.467,0,0,0,.427-.086c-.114-.8-.222-1.561-.33-2.324l-.186.024c-.027-.171-.049-.315-.077-.493l-4.289.862Zm4.818-6.827a8.088,8.088,0,0,0-3.222,1.976,4.606,4.606,0,0,0-1.4,2.984c.178-.022.353-.037.527-.065.77-.125,1.538-.255,2.308-.377.316-.05.635-.09.953-.12.208-.021.3-.117.278-.326-.026-.275-.055-.55-.064-.826a.516.516,0,0,1,.078-.3,2.578,2.578,0,0,0,.468-1.145,3.582,3.582,0,0,0,.074-1.8Zm1.893,8.563c.138.024.179.036.219.037a6.228,6.228,0,0,1,3.171.874,3.233,3.233,0,0,1,.987,1.18c.043.064,0,.184,0,.277a3.289,3.289,0,0,0-.028.776.754.754,0,0,1-.1.509c-.1.224-.223.441-.3.674a.309.309,0,0,0,.086.282,1.737,1.737,0,0,0,.787.294c-.029-.186-.049-.321-.071-.455A12.664,12.664,0,0,1,38,42.039c.055-1.264.134-2.528.245-3.789.108-1.246.283-2.486.4-3.731a5.635,5.635,0,0,0,0-1.859,2.59,2.59,0,0,0-1.2-1.578,1.806,1.806,0,0,0-1.063-.33,11.57,11.57,0,0,0-2.611.274c-.131.032-.257.08-.347.108.258.648.5,1.26.744,1.877l.2-.105a2.191,2.191,0,0,0,.238.594,1.016,1.016,0,0,1,.236.688,2.6,2.6,0,0,0,.693,1.558c.212.285.477.531.755.835-.128.121-.214.257-.338.312-.309.138-.611.365-1.013.138-.3.846-.6,1.66-.895,2.491l-.393-.1c-.08.316-.152.6-.231.92Zm1.865,6.071-1.75-.769a.958.958,0,0,1-.759.429,10.773,10.773,0,0,1-5.006-.083c-.239-.073-.492-.1-.738-.147a.817.817,0,0,0-.739.183.778.778,0,0,1-.414.145,2.9,2.9,0,0,1-.65-.015c-.445-.062-.717.207-1.013.491a2.134,2.134,0,0,0-.325-.22.478.478,0,0,0-.3-.038c-.43.122-.428.129-.693-.194a.438.438,0,0,0-.09-.083.315.315,0,0,0-.093-.023c-.166.066-.127.442-.438.314a5.535,5.535,0,0,1-.724-2.614c-.034-.4-.1-.8-.161-1.2a.406.406,0,0,0-.133-.195c-.361-.34-.445-.526-.188-.9a2.658,2.658,0,0,0,.3-1.8,1.885,1.885,0,0,1,0-.375,1.308,1.308,0,0,0-.22-.989.9.9,0,0,1-.029-.731,2.81,2.81,0,0,1,.273-.784,14.526,14.526,0,0,0,.832-2.259c.207-.589.36-1.2.546-1.794a4.006,4.006,0,0,1,.914-1.381c.244-.282.516-.539.8-.833,1.142.769,1.2,2.047,1.441,3.287a1.1,1.1,0,0,0,.257-.11c.185-.147.364-.3.537-.465a9.279,9.279,0,0,1,2.812-1.689c.742-.312,1.48-.644,2.24-.9a11.38,11.38,0,0,1,2.506-.607c.553-.056,1.1-.169,1.647-.272a.51.51,0,0,0,.415-.243c.035-.067.154-.1.24-.128.238-.078.482-.14.72-.22a.653.653,0,0,0,.282-.153,1.65,1.65,0,0,1,1.579-.427c.367.045.721.191,1.087.265a1.266,1.266,0,0,0,.565.016,2.953,2.953,0,0,1,1.282-.049,3.31,3.31,0,0,0,1.16-.027,2.609,2.609,0,0,1,.33-.048,1.366,1.366,0,0,1,1.043.305,20.449,20.449,0,0,0,2.044,1.351A2.922,2.922,0,0,1,48,32.012a13.507,13.507,0,0,0,.55,1.35c.156.381.155.382,0,.816l-.406-.1.232.589-.236-.206c-.066.076-.14.128-.166.2-.091.244-.173.491-.243.741a1.6,1.6,0,0,1-.256.508,2.884,2.884,0,0,0-.329.792,10.877,10.877,0,0,1-.955,2.342,3.255,3.255,0,0,0-.517,1.689c0,.082-.016.165-.027.277-.274.036-.4.227-.49.472-.2.547-.425,1.085-.624,1.633a6.393,6.393,0,0,1-.87,1.454c-.094.134-.185.272-.283.4a.916.916,0,0,1-.66.456,2,2,0,0,0-.7.2c-.225.115-.453.247-.478.576-.015.192-.216.37-.227.562-.026.454-.327.522-.673.617a3.344,3.344,0,0,0-.682.381,1.829,1.829,0,0,1,.064.39,1.735,1.735,0,0,1-.094.387c-.392-.1-.421-.138-.538-.649a3.487,3.487,0,0,0-.509.161.719.719,0,0,1-.747-.064c-.249-.151-.512-.278-.769-.416l.017.01a7.406,7.406,0,0,0-1.823-1.16.9.9,0,0,0-.278-.03l.015.016Z" transform="translate(1.739 2.376)" fill="#ffce19"/>
            <path id="Path_5512" data-name="Path 5512" d="M29.335,27.156c.519-.119.976-.239,1.438-.327a19.9,19.9,0,0,1,3.2-.195,5.208,5.208,0,0,0,1.47-.255c.132-.705.249-1.33.367-1.956.015-.082.024-.165.043-.246.123-.526.243-1.055.377-1.579.142-.551.315-1.094.444-1.647A.837.837,0,0,0,36.1,19.9a5.915,5.915,0,0,0-.9-.152.61.61,0,0,0-.492.174c-.209.177-.442.325-.667.482a6.907,6.907,0,0,0-.74.52A21.086,21.086,0,0,1,31.653,22.3c-.495.37-.912.845-1.37,1.265a1.8,1.8,0,0,0-.5.837,1.845,1.845,0,0,1-.291.59.709.709,0,0,0-.158.579,3.919,3.919,0,0,0,.092.491.914.914,0,0,1-.068.841c-.032.045-.012.129-.019.256ZM43.194,28.4l-.381.127c.008.107.014.2.023.328a9.568,9.568,0,0,1-1.024.393,3.069,3.069,0,0,1-.707.017c-.123,0-.288-.03-.365.035-.328.278-.764.353-1.1.609-.1.074-.213.18-.316.175a1.233,1.233,0,0,1-.566-.146,7.816,7.816,0,0,0-2.137-.812,1.5,1.5,0,0,1-.283-.068.65.65,0,0,0-.638-.017.889.889,0,0,1-.285.038c-.3.042-.605.089-.91.128-.563.073-1.132.116-1.69.222a6.631,6.631,0,0,0-1.064.348c-.518.195-1.026.415-1.543.609a.526.526,0,0,1-.516-.064c-.282-.2-.587-.375-.862-.586-.094-.071-.129-.222-.2-.352a3.227,3.227,0,0,0-1.545.755.31.31,0,0,1-.448.044,5.864,5.864,0,0,1-.739-.539c-.3-.272-.564-.575-.837-.872a2.965,2.965,0,0,1-.429-1.116,17.651,17.651,0,0,1-.591-2.421,5.856,5.856,0,0,0-.337-.929.816.816,0,0,1,.005-.718.764.764,0,0,0,.014-.434,3.016,3.016,0,0,0-.159-.471A.48.48,0,0,1,23.834,22a2.242,2.242,0,0,1,.263-.125c.231-.08.294-.235.315-.477a5.864,5.864,0,0,1,.216-1.1,1,1,0,0,1,1.212-.469,1.329,1.329,0,0,0,1.226-.11,26.623,26.623,0,0,0,2.28-1.542c1.633-1.254,3.243-2.54,4.848-3.83a13.263,13.263,0,0,0,1.016-.99.4.4,0,0,0,.1-.22,3.663,3.663,0,0,1-1.46.757,6.858,6.858,0,0,0-1.326.595c-.439.314-1.013.486-1.264,1.043a.8.8,0,0,1-.3.34,8.074,8.074,0,0,1-1.237.675,1.544,1.544,0,0,1-1.8-.6,5.879,5.879,0,0,1-.839-1.928,7.365,7.365,0,0,1-.2-2.439,4.076,4.076,0,0,1,.171-.856.914.914,0,0,1,.256-.42,3.767,3.767,0,0,0,.78-.956c.041-.07.139-.107.284-.216.01.281.017.481.023.682.01.362.088.442.437.469a2.644,2.644,0,0,0,1.377-.255A10.513,10.513,0,0,1,33.192,9.1,4.112,4.112,0,0,0,34.2,8.838a5.2,5.2,0,0,1,2.368-.362.879.879,0,0,0,.46-.122,1.685,1.685,0,0,1,.905-.376c.1,0,.2-.088.3-.142a.6.6,0,0,1,.845.147,1.182,1.182,0,0,0,.17.182,3.363,3.363,0,0,1,1.071,1.655,2.2,2.2,0,0,1-.069,1.066c-.01.079-.18.17-.291.2-.239.067-.488.1-.759.151l-.153.245c-.041.016-.07.04-.092.034a.6.6,0,0,0-.508.093c-.271.169-.57.29-.845.454-.126.075-.283.183-.316.307a2.255,2.255,0,0,1-.624.85c-.289.336-.573.678-.875,1A13.628,13.628,0,0,1,34.7,15.315a14.079,14.079,0,0,1-1.469,1.1,19.012,19.012,0,0,0-1.84,1.364c-.415.346-.847.675-1.291.983-.809.562-1.634,1.1-2.449,1.656-.129.088-.363.167-.286.359.09.223.31.091.478.06a11.062,11.062,0,0,0,3.614-1.47c.885-.524,1.8-1,2.719-1.46a5.138,5.138,0,0,0,1.178-.772,2.57,2.57,0,0,1,1.2-.644c.815-.181,1.624-.388,2.446-.524a2.214,2.214,0,0,1,2.008.8,3.076,3.076,0,0,1,.8,1.439c.166.7.342,1.4.539,2.1.179.627.382,1.248.591,1.865a5.121,5.121,0,0,1,.276,1.969,4.744,4.744,0,0,1-.081.617c-.134.668-.269,1.335-.421,2-.047.2-.083.376.126.511a.5.5,0,0,1,.183.524.641.641,0,0,0,.18.616Z" transform="translate(1.955 0.642)" fill="#ffce19"/>
            <path id="Path_5513" data-name="Path 5513" d="M17.42,11.482a1.866,1.866,0,0,0-.416.162,1.3,1.3,0,0,1-.832.272,2.88,2.88,0,0,0-.851.01.293.293,0,0,1-.2-.018c-.239-.131-.47-.279-.708-.415a3.852,3.852,0,0,0-2.146-.682,13.291,13.291,0,0,1-2.244-.091,11.355,11.355,0,0,1-1.495-.387q-.626-.161-1.258-.3a1.032,1.032,0,0,1-.615-.4,4.46,4.46,0,0,1-.781-1.267c-.166-.5-.462-.952-.617-1.452-.187-.607-.282-1.241-.424-1.862-.053-.23-.131-.453-.193-.68a3.341,3.341,0,0,1-.1-.444c-.043-.343-.057-.692-.115-1.033a2.665,2.665,0,0,1,0-1.035,1.342,1.342,0,0,0-.043-.325,1.341,1.341,0,0,1,.3-1.149A1.046,1.046,0,0,0,4.82.042c.207-.109.311.013.442.165a5.843,5.843,0,0,0,.726.929,8.982,8.982,0,0,0,.771.613,3.012,3.012,0,0,0,.7.244c.4.121.794.246,1.2.35a4.788,4.788,0,0,0,.659.1,11.777,11.777,0,0,1,3.039.72,17.055,17.055,0,0,1,1.763.855,6.818,6.818,0,0,1,1.8,1.271,2.3,2.3,0,0,0,.312.208c.1.076.242.153.264.252.073.31.314.482.493.705A1.68,1.68,0,0,1,17.47,7.57a5.764,5.764,0,0,0,.107,1.157,4.839,4.839,0,0,0,.294.952,1.315,1.315,0,0,1,.062.9,7.707,7.707,0,0,1-.43.952l-.082-.045Z" transform="translate(0.363 0)" fill="#ffce19"/>
            <path id="Path_5514" data-name="Path 5514" d="M36.276,46.2c.108.126.217.25.322.379.015.017.012.052.022.109-.312.025-.4-.288-.613-.394-.234-.117-.449-.273-.677-.4s-.464-.25-.7-.376a2.846,2.846,0,0,1-.663-.452l.236-.027-.015-.016c.494.295.986.594,1.484.882.2.115.411.207.617.309Z" transform="translate(2.824 3.742)" fill="#ffce19"/>
            <path id="Path_5515" data-name="Path 5515" d="M2.839,27.838s-.014.014-.012.014c-.069-.006-.14-.011-.235-.017.086-.136.156-.217.279-.133C2.886,27.711,2.851,27.79,2.839,27.838Z" transform="translate(0.215 2.3)" fill="#ffce19"/>
          </g>
        </g>
        <path id="Path_5556" data-name="Path 5556" d="M3.563,0H65.321a3.563,3.563,0,0,1,3.563,3.563V199.525H3.563A3.563,3.563,0,0,1,0,195.962V3.563A3.563,3.563,0,0,1,3.563,0Z" transform="translate(2.375 2.375)" opacity="0.127" fill="url(#linear-gradient)"/>
        <path id="Path_5557" data-name="Path 5557" d="M65.321,0H3.563A3.563,3.563,0,0,0,0,3.563V199.525H65.321a3.563,3.563,0,0,0,3.563-3.563V3.563A3.563,3.563,0,0,0,65.321,0Z" transform="translate(71.259 2.375)" opacity="0.127" fill="url(#linear-gradient-2)"/>
      </g>
      <g id="Group_1183" data-name="Group 1183" transform="translate(7288 16034)">
        <g id="Group_1181" data-name="Group 1181">
          <g transform="matrix(1, 0, 0, 1, -9, -9)" filter="url(#Rectangle_491)">
            <g id="Rectangle_491-2" data-name="Rectangle 491" transform="translate(9 9)" fill="#ff0f0f" stroke="#ffce19" stroke-width="2">
              <path d="M3,0H138a3,3,0,0,1,3,3V15A57,57,0,0,1,84,72H57A57,57,0,0,1,0,15V3A3,3,0,0,1,3,0Z" stroke="none"/>
              <path d="M3,1H138a2,2,0,0,1,2,2V15A56,56,0,0,1,84,71H57A56,56,0,0,1,1,15V3A2,2,0,0,1,3,1Z" fill="none"/>
            </g>
          </g>
        </g>
        <g transform="matrix(1, 0, 0, 1, -9, -9)" filter="url(#Ellipse_118)">
          <g id="Ellipse_118-2" data-name="Ellipse 118" transform="translate(63 63)" fill="#ffad29" stroke="#ffce19" stroke-width="2">
            <circle cx="17.5" cy="17.5" r="17.5" stroke="none"/>
            <circle cx="17.5" cy="17.5" r="16.5" fill="none"/>
          </g>
        </g>
      </g>
    </g>
  </g>
</svg>
