<svg id="eyoKtplUHVk1" xmlns="http://www.w3.org/2000/svg" xmlns:xlink="http://www.w3.org/1999/xlink" viewBox="0 0 159 221" shape-rendering="geometricPrecision" text-rendering="geometricPrecision"><defs><linearGradient id="eyoKtplUHVk22-fill" x1="1" y1="0.539" x2="0" y2="0.533" spreadMethod="pad" gradientUnits="objectBoundingBox" gradientTransform="matrix(1 0 0 1 0 0)"><stop id="eyoKtplUHVk22-fill-0" offset="0%" stop-color="rgba(0,0,0,0)"/><stop id="eyoKtplUHVk22-fill-1" offset="100%" stop-color="rgb(0,0,0)"/></linearGradient><linearGradient id="eyoKtplUHVk23-fill" x1="0" y1="0.539" x2="1" y2="0.533" spreadMethod="pad" gradientUnits="objectBoundingBox" gradientTransform="matrix(1 0 0 1 0 0)"><stop id="eyoKtplUHVk23-fill-0" offset="0%" stop-color="rgba(0,0,0,0)"/><stop id="eyoKtplUHVk23-fill-1" offset="100%" stop-color="rgb(0,0,0)"/></linearGradient></defs><g id="eyoKtplUHVk2" transform="matrix(1 0 0 1 -7264 -16694)"><rect id="eyoKtplUHVk3" width="159" height="221" rx="0" ry="0" transform="matrix(1 0 0 1 7264 16699)" fill="none" stroke="none" stroke-width="1"/><g id="eyoKtplUHVk4" transform="matrix(1 0 0 1 -15 674)"><g id="eyoKtplUHVk5" transform="matrix(1 0 0 1 7288 16034)"><g id="eyoKtplUHVk6"><rect id="eyoKtplUHVk7" width="141" height="204" rx="3" ry="3" fill="rgb(255,15,15)" stroke="none" stroke-width="2"/><rect id="eyoKtplUHVk8" width="139" height="202" rx="2" ry="2" transform="matrix(1 0 0 1 1 1)" fill="none" stroke="rgb(255,206,25)" stroke-width="2"/></g><path id="eyoKtplUHVk9" d="M3.563,0L65.321,0C66.265966,0,67.172229,0.375386,67.840421,1.043579C68.508614,1.711771,68.884,2.618034,68.884,3.563L68.884,199.525L3.563,199.525C2.618034,199.525,1.711771,199.149614,1.043579,198.481421C0.375386,197.813229,0,196.906966,0,195.962L0,3.563C0,2.618034,0.375386,1.711771,1.043579,1.043579C1.711771,0.375386,2.618034,0,3.563,0Z" transform="matrix(1 0 0 1 2.375 2.375)" fill="rgb(213,19,19)" stroke="none" stroke-width="1"/><g id="eyoKtplUHVk10" transform="matrix(1 0 0 1 29.443 94.64)"><g id="eyoKtplUHVk11" transform="matrix(1 0 0 1 -38.44 -103.64)"><g id="eyoKtplUHVk12" transform="matrix(1 0 0 1 38 104)"><circle id="eyoKtplUHVk13" r="41" transform="matrix(1 0 0 1 41 41)" fill="rgb(144,2,0)" stroke="none" stroke-width="1"/><circle id="eyoKtplUHVk14" r="40.5" transform="matrix(1 0 0 1 41 41)" fill="none" stroke="rgb(255,206,25)" stroke-width="1"/></g></g><g id="eyoKtplUHVk15" transform="matrix(1 0 0 1 16.204 14.57)"><path id="eyoKtplUHVk16" d="M0.758,30.811L0.814,30.851L0.962,30.643L0.909,30.6L0.758,30.807ZM3.058,29.178C3.146067,29.063225,3.244845,28.957081,3.353,28.861C3.48217,28.787799,3.618561,28.728148,3.76,28.683C3.91078,28.370525,4.234556,28.179257,4.581,28.198C4.691127,28.184691,4.795186,28.140293,4.881,28.07C5.496,27.617,6.111,27.17,6.711,26.693C6.828,26.601,7.023,26.547,7.021,26.331C7.021,26.3,7.121,26.266,7.169,26.231C7.244,26.182,7.386,26.131,7.382,26.085C7.371,25.934,7.431,25.925,7.548,25.938C7.578,25.938,7.641,25.901,7.648,25.877C7.688,25.383,8.2,25.309,8.44,24.99C8.633978,24.758971,8.84926,24.546702,9.083,24.356C9.183,24.263,9.315,24.201,9.411,24.105C9.848598,23.652052,10.238635,23.155459,10.575,22.623C10.713,22.415,10.85,22.206,11,22.007C11.565777,21.286766,12.048183,20.504785,12.438,19.676C12.611988,19.296757,12.81527,18.931651,13.046,18.584C13.336249,18.032194,13.526198,17.433228,13.607,16.815C13.53326,16.817599,13.460235,16.830387,13.39,16.853C12.935071,17.118693,12.456326,17.341326,11.96,17.518C11.39152,17.739301,10.840041,18.002006,10.31,18.304C9.766,18.58,9.229,18.874,8.687,19.156C8.393,19.309,8.087,19.433,7.804,19.61C7.583,19.75,7.414,19.969,7.199,20.117C6.67699,20.434374,6.497205,21.106365,6.791,21.642C6.856809,22.00975,6.964511,22.368754,7.112,22.712C7.18306,22.854741,7.153531,23.027062,7.039,23.138C6.769,23.475,6.531,23.838,6.239,24.155C5.947,24.472,5.639,24.724,5.328,25.001C5.289521,25.042579,5.237318,25.068858,5.181,25.075C4.763,25.043,4.329,25.188,3.927,24.929C3.713198,24.800013,3.483633,24.699179,3.244,24.629C2.934,24.529,2.844,24.244,2.731,24.011C2.606538,23.687124,2.405471,23.398219,2.145,23.169C2.045226,23.075594,1.980909,22.950495,1.963,22.815C1.925283,22.567572,1.912885,22.316943,1.926,22.067C1.979105,21.383304,1.840589,20.698339,1.526,20.089C1.155369,19.313219,1.145855,18.413444,1.5,17.63C1.597479,17.413439,1.752419,17.227719,1.948,17.093C2.178477,16.957106,2.323087,16.71244,2.331,16.445C2.326,16.111,2.55,15.918,2.744,15.667C2.973,15.839,3.186,15.99,3.387,16.155C3.755858,16.531472,4.301409,16.675442,4.808,16.53C5.59,16.281,6.389,16.082,7.158,15.8C8.509926,15.322462,9.887796,14.921821,11.285,14.6C12.095,14.4,12.892,14.152,13.691,13.908C13.834444,13.832917,13.972151,13.747352,14.103,13.652C14.233121,13.597989,14.366762,13.552885,14.503,13.517C14.676,13.262,14.829,12.999,15.019,12.766C15.3683,12.350139,15.814837,12.026915,16.319,11.825C16.674599,11.632377,17.076009,11.540409,17.48,11.559C17.788081,11.57997,18.068919,11.74293,18.24,12C18.38579,12.249045,18.55524,12.483462,18.746,12.7C18.950312,12.884156,19.175121,13.044207,19.416,13.177C19.831136,13.40053,20.234348,13.645529,20.624,13.911C20.920006,14.118693,21.156785,14.399932,21.311,14.727C21.500881,15.126375,21.754534,15.492163,22.062,15.81C22.134816,15.912744,22.223211,16.003501,22.324,16.079C22.775461,16.451167,23.136536,16.920975,23.38,17.453C23.480482,17.76558,23.509194,18.096792,23.464,18.422C23.46625,18.559004,23.447705,18.695557,23.409,18.827C23.357179,19.083695,23.271074,19.332256,23.153,19.566C22.89732,19.985402,22.528066,20.323798,22.088,20.542C21.807887,20.70192,21.476704,20.747082,21.164,20.668C20.664,20.514,20.658,20.519,20.427,21.004C20.412887,21.028087,20.395748,21.050267,20.376,21.07C19.97173,20.963832,19.541088,21.050182,19.209,21.304C19.03064,21.451059,18.870503,21.618917,18.732,21.804C18.57,22.023,18.332,22.184,18.15,22.39C17.876,22.701,17.615,23.025,17.359,23.351C17.197,23.559,17.054,23.781,16.886,24.021C16.953559,24.102351,17.026382,24.179183,17.104,24.251C17.631,24.684,18.17,25.103,18.69,25.544C19.09,25.885,19.49,26.236,19.865,26.607C20.89601,27.544154,21.830053,28.582724,22.653,29.707C22.934225,30.01801,23.105045,30.413075,23.139,30.831C23.142288,30.936873,23.103448,31.039727,23.031,31.117C22.510672,31.458199,22.073038,31.911207,21.75,32.443C21.494858,32.793233,21.149156,33.067374,20.75,33.236C20.418342,33.369678,20.041434,33.325203,19.75,33.118C19.344,32.906,18.944,32.679,18.541,32.458C18.529,32.452,18.517,32.439,18.505,32.439C18.336397,32.449794,18.167125,32.442755,18,32.418C17.829,32.371,17.682,32.258,17.484,32.336C17.304552,32.3962,17.106747,32.334033,16.994,32.182C16.512676,31.76094,16.094694,31.272564,15.753,30.732C15.566754,30.387409,15.330904,30.072043,15.053,29.796C15.046481,29.881209,15.046481,29.966791,15.053,30.052C15.107593,30.547678,15.099867,31.048243,15.03,31.542C14.968,32.093,14.97,32.653,14.947,33.209Q14.882,34.774,14.818,36.339C14.795,36.882,14.743,37.425,14.757,37.967C14.768007,38.67562,14.818753,39.383064,14.909,40.086C14.976933,40.580675,14.962063,41.083207,14.865,41.573C14.802114,42.042267,14.814266,42.51855,14.901,42.984C15.014506,43.64325,14.992046,44.318745,14.835,44.969C14.749267,45.30645,14.699654,45.652059,14.687,46C14.642,46.751,14.608,47.5,14.597,48.255C14.591224,48.964639,14.493408,49.67053,14.306,50.355C14.175,50.824,14.044,51.292,13.916,51.761C13.874,51.92,13.816,52.043,13.616,52.061C13.546,52.066,13.478,52.138,13.416,52.187C13.373,52.219,13.345,52.287,13.299,52.3C12.976845,52.419776,12.648745,52.522912,12.316,52.609C12.170681,52.630739,12.028388,52.669332,11.892,52.724C11.77,52.781,11.525,52.795,11.458,52.724C11.266,52.507,11.112,52.656,10.94,52.724C10.68,52.459,10.324,52.55,10.031,52.524C9.679439,52.515029,9.346074,52.680028,9.14,52.965C9.06346,52.741241,8.922144,52.545278,8.734,52.402C8.603,52.314,8.588,52.028,8.555,51.826C8.488,51.4,8.445,50.971,8.391,50.544C8.390239,50.502649,8.385551,50.461464,8.377,50.421C8.104,49.651,7.868,48.866,7.546,48.121C7.038448,47.052581,6.793972,45.878204,6.833,44.696C6.831268,44.04024,6.993156,43.394408,7.304,42.817C7.542,42.429,7.711,41.999,7.933,41.601C8.029565,41.447783,8.147409,41.309064,8.283,41.189C9.362848,40.180416,10.225751,38.962281,10.819,37.609C10.879,37.468,10.955,37.335,11.025,37.198C11.192874,36.863073,11.291828,36.497863,11.316,36.124C11.416,34.891,11.555,33.662,11.69,32.432C11.748,31.894,11.817,31.355,11.9,30.819C11.939,30.573,12.028,30.337,12.085,30.093C12.207,29.569,12.324,29.042,12.458,28.46C12.25327,28.492541,12.057691,28.567842,11.884,28.681C10.833,29.381,9.795,30.11,8.734,30.799C8.365,31.039,7.934,31.175,7.548,31.399C6.811928,31.757846,6.047294,32.054869,5.262,32.287C5.24,32.296,5.209,32.281,5.147,32.272L5.304,31.967L4.733,32.179C4.612521,32.101109,4.481531,32.040834,4.344,32C4.026193,32.003271,3.709791,31.957396,3.406,31.864C3.299,31.816,3.085,31.973,2.936,32.064C2.818,32.135,2.726,32.249,2.564,32.184C2.208485,32.081726,1.825385,32.17446,1.556,32.428C1.201,32.66,1.103,32.667,0.884,32.334C0.716,32.081,0.584,31.818,0.264,31.706C0.176,31.675,0.12,31.551,-0.001,31.412L0.621,31.2C0.621,31.1,0.621,31.007,0.621,30.911C0.576783,30.567724,0.774805,30.239207,1.099,30.118C1.268703,30.024172,1.427933,29.912543,1.574,29.785C1.64956,29.749186,1.728656,29.721369,1.81,29.702C1.698,30.12,1.233,30.111,1.138,30.471L3.038,29.187C3.038,29.187,3.05,29.173,3.05,29.173Z" transform="matrix(1 0 0 1 0 0.96)" fill="rgb(255,206,25)" stroke="none" stroke-width="1"/><path id="eyoKtplUHVk17" d="M26.715,38.6C26.675745,39.06014,26.690512,39.523295,26.759,39.98C26.807,40.213,26.868,40.366,27.076,40.411C27.084,40.572,27.091,40.705,27.1,40.878C27.258,40.846,27.377,40.824,27.5,40.796C27.7,40.749,27.9,40.683,28.105,40.652C28.584,40.578,29.074,40.558,29.542,40.443C29.950922,40.360232,30.374638,40.389954,30.768,40.529C30.9,40.567,31.038,40.59,31.174,40.618C31.321805,40.661531,31.48157,40.629354,31.601,40.532C31.487,39.732,31.379,38.971,31.271,38.208L31.085,38.232C31.058,38.061,31.036,37.917,31.008,37.739L26.719,38.601ZM31.533,31.773C30.31801,32.167951,29.213863,32.845106,28.311,33.749C27.492229,34.536922,26.99361,35.599694,26.911,36.733C27.089,36.711,27.264,36.696,27.438,36.668C28.208,36.543,28.976,36.413,29.746,36.291C30.062,36.241,30.381,36.201,30.699,36.171C30.907,36.15,30.999,36.054,30.977,35.845C30.951,35.57,30.922,35.295,30.913,35.019C30.907639,34.913369,30.934868,34.808643,30.991,34.719C31.237609,34.380969,31.398232,33.987991,31.459,33.574C31.636609,32.990102,31.662081,32.370506,31.533,31.774ZM33.426,40.336C33.564,40.36,33.605,40.372,33.645,40.373C34.761223,40.374905,35.856421,40.676766,36.816,41.247C37.235151,41.555189,37.573736,41.959981,37.803,42.427C37.846,42.491,37.803,42.611,37.803,42.704C37.763058,42.960654,37.753659,43.221135,37.775,43.48C37.802915,43.656154,37.767484,43.8365,37.675,43.989C37.575,44.213,37.452,44.43,37.375,44.663C37.354084,44.765497,37.386447,44.871617,37.461,44.945C37.695325,45.10592,37.965562,45.206872,38.248,45.239C38.219,45.053,38.199,44.918,38.177,44.784C38.018508,43.878141,37.959158,42.957713,38,42.039C38.055,40.775,38.134,39.511,38.245,38.25C38.353,37.004,38.528,35.764,38.645,34.519C38.74792,33.903607,38.74792,33.275393,38.645,32.66C38.470101,31.995673,38.038443,31.428043,37.445,31.082C37.134245,30.862832,36.762239,30.747345,36.382,30.752C35.50409,30.743974,34.628119,30.835899,33.771,31.026C33.64,31.058,33.514,31.106,33.424,31.134C33.682,31.782,33.924,32.394,34.168,33.011L34.368,32.906C34.417836,33.114581,34.498024,33.314715,34.606,33.5C34.766873,33.692352,34.850931,33.937401,34.842,34.188C34.891291,34.77047,35.135427,35.319336,35.535,35.746C35.747,36.031,36.012,36.277,36.29,36.581C36.162,36.702,36.076,36.838,35.952,36.893C35.643,37.031,35.341,37.258,34.939,37.031C34.639,37.877,34.339,38.691,34.044,39.522L33.651,39.422C33.571,39.738,33.499,40.022,33.42,40.342ZM35.291,46.407L33.541,45.638C33.371498,45.894509,33.089182,46.054079,32.782,46.067C31.12997,46.432849,29.414993,46.404415,27.776,45.984C27.537,45.911,27.284,45.884,27.038,45.837C26.776561,45.772486,26.500123,45.840941,26.299,46.02C26.177764,46.107042,26.034051,46.157377,25.885,46.165C25.668456,46.184381,25.450419,46.179349,25.235,46.15C24.79,46.088,24.518,46.357,24.222,46.641C24.120654,46.55784,24.011861,46.484195,23.897,46.421C23.803747,46.376202,23.698477,46.362868,23.597,46.383C23.167,46.505,23.169,46.512,22.904,46.189C22.878034,46.157256,22.847738,46.129317,22.814,46.106C22.784354,46.093637,22.752991,46.08588,22.721,46.083C22.555,46.149,22.594,46.525,22.283,46.397C21.8286,45.5992,21.579797,44.700895,21.559,43.783C21.525,43.383,21.459,42.983,21.398,42.583C21.373957,42.506263,21.327667,42.438394,21.265,42.388C20.904,42.048,20.82,41.862,21.077,41.488C21.386283,40.942203,21.49255,40.304602,21.377,39.688C21.364535,39.563311,21.364535,39.437689,21.377,39.313C21.439509,38.967165,21.36022,38.610724,21.157,38.324C21.044269,38.09543,21.03373,37.829782,21.128,37.593C21.179682,37.319592,21.271686,37.055376,21.401,36.809C21.740359,36.080317,22.018648,35.324723,22.233,34.55C22.44,33.961,22.593,33.35,22.779,32.756C22.984152,32.23703,23.29547,31.766647,23.693,31.375C23.937,31.093,24.209,30.836,24.493,30.542C25.635,31.311,25.693,32.589,25.934,33.829C26.023996,33.803412,26.11036,33.766447,26.191,33.719C26.376,33.572,26.555,33.419,26.728,33.254C27.557592,32.528473,28.509801,31.956538,29.54,31.565C30.282,31.253,31.02,30.921,31.78,30.665C32.589639,30.36838,33.430368,30.16474,34.286,30.058C34.839,30.002,35.386,29.889,35.933,29.786C36.103237,29.7794,36.258937,29.688231,36.348,29.543C36.383,29.476,36.502,29.443,36.588,29.415C36.826,29.337,37.07,29.275,37.308,29.195C37.413261,29.168245,37.510186,29.115658,37.59,29.042C38.003779,28.630435,38.60419,28.468069,39.169,28.615C39.536,28.66,39.89,28.806,40.256,28.88C40.440721,28.927845,40.633868,28.933314,40.821,28.896C41.239579,28.785914,41.677239,28.769186,42.103,28.847C42.48824,28.906371,42.880939,28.897231,43.263,28.82C43.371864,28.796979,43.482089,28.780947,43.593,28.772C43.967885,28.725053,44.345473,28.83547,44.636,29.077C45.289718,29.567783,45.972276,30.018926,46.68,30.428C47.297862,30.778058,47.767099,31.341142,48,32.012C48.158899,32.471572,48.3425,32.922228,48.55,33.362C48.706,33.743,48.705,33.744,48.55,34.178L48.144,34.078L48.376,34.667L48.14,34.461C48.074,34.537,48,34.589,47.974,34.661C47.883,34.905,47.801,35.152,47.731,35.402C47.676695,35.585265,47.589992,35.757317,47.475,35.91C47.326474,36.156128,47.215582,36.423079,47.146,36.702C46.919823,37.517147,46.599323,38.303126,46.191,39.044C45.866282,39.548585,45.687361,40.133109,45.674,40.733C45.674,40.815,45.658,40.898,45.647,41.01C45.373,41.046,45.247,41.237,45.157,41.482C44.957,42.029,44.732,42.567,44.533,43.115C44.308797,43.636121,44.016228,44.125081,43.663,44.569C43.569,44.703,43.478,44.841,43.38,44.969C43.241795,45.214375,42.9984,45.382539,42.72,45.425C42.476396,45.44828,42.239133,45.51607,42.02,45.625C41.795,45.74,41.567,45.872,41.542,46.201C41.527,46.393,41.326,46.571,41.315,46.763C41.289,47.217,40.988,47.285,40.642,47.38C40.400562,47.479918,40.171667,47.607791,39.96,47.761C39.995357,47.888307,40.016816,48.01907,40.024,48.151C40.007625,48.28318,39.976084,48.413036,39.93,48.538C39.538,48.438,39.509,48.4,39.392,47.889C39.218468,47.929581,39.048303,47.983405,38.883,48.05C38.641703,48.170451,38.353291,48.145741,38.136,47.986C37.887,47.835,37.624,47.708,37.367,47.57L37.384,47.58C36.836311,47.10629,36.222109,46.715464,35.561,46.42C35.470462,46.395578,35.376664,46.385456,35.283,46.39L35.298,46.406Z" transform="matrix(1 0 0 1 1.739 2.376)" fill="rgb(255,206,25)" stroke="none" stroke-width="1"/><path id="eyoKtplUHVk18" d="M29.335,27.156C29.854,27.037,30.311,26.917,30.773,26.829C31.832686,26.678045,32.902825,26.612833,33.973,26.634C34.472699,26.61999,34.967778,26.534109,35.443,26.379C35.575,25.674,35.692,25.049,35.81,24.423C35.825,24.341,35.834,24.258,35.853,24.177C35.976,23.651,36.096,23.122,36.23,22.598C36.372,22.047,36.545,21.504,36.674,20.951C36.740022,20.735489,36.716334,20.502458,36.608297,20.30464C36.500259,20.106821,36.317004,19.960938,36.1,19.9C35.804363,19.826228,35.503467,19.77541,35.2,19.748C35.018216,19.729379,34.837659,19.793235,34.708,19.922C34.499,20.099,34.266,20.247,34.041,20.404C33.783238,20.56098,33.536041,20.734686,33.301,20.924C32.775388,21.410353,32.225342,21.869615,31.653,22.3C31.158,22.67,30.741,23.145,30.283,23.565C30.042508,23.79269,29.869494,24.082316,29.783,24.402C29.722129,24.614512,29.623562,24.814354,29.492,24.992C29.356215,25.152092,29.298354,25.364127,29.334,25.571C29.354194,25.736457,29.384923,25.900456,29.426,26.062C29.541823,26.336651,29.516444,26.650525,29.358,26.903C29.326,26.948,29.346,27.032,29.339,27.159ZM43.194,28.4L42.813,28.527C42.821,28.634,42.827,28.727,42.836,28.855C42.502462,29.005473,42.160567,29.136688,41.812,29.248C41.577776,29.280891,41.340534,29.286596,41.105,29.265C40.982,29.265,40.817,29.235,40.74,29.3C40.412,29.578,39.976,29.653,39.64,29.909C39.54,29.983,39.427,30.089,39.324,30.084C39.126358,30.081404,38.932237,30.03133,38.758,29.938C38.089314,29.564059,37.36928,29.290467,36.621,29.126C36.524685,29.112561,36.429906,29.089787,36.338,29.058C36.142946,28.941129,35.901001,28.934682,35.7,29.041C35.607691,29.069047,35.511433,29.081882,35.415,29.079C35.115,29.121,34.81,29.168,34.505,29.207C33.942,29.28,33.373,29.323,32.815,29.429C32.451158,29.514801,32.095223,29.631216,31.751,29.777C31.233,29.972,30.725,30.192,30.208,30.386C30.036743,30.457113,29.840695,30.432796,29.692,30.322C29.41,30.122,29.105,29.947,28.83,29.736C28.736,29.665,28.701,29.514,28.63,29.384C28.056191,29.491292,27.522232,29.752223,27.085,30.139C27.032777,30.206243,26.955197,30.249048,26.870465,30.25737C26.785733,30.265692,26.701307,30.238798,26.637,30.183C26.377009,30.022849,26.129924,29.842634,25.898,29.644C25.598,29.372,25.334,29.069,25.061,28.772C24.843702,28.43299,24.697735,28.053272,24.632,27.656C24.378206,26.863932,24.180714,26.054916,24.041,25.235C23.955043,24.916391,23.842308,24.605618,23.704,24.306C23.594622,24.078754,23.596468,23.813701,23.709,23.588C23.755545,23.447732,23.760408,23.296976,23.723,23.154C23.683051,22.992892,23.629871,22.835357,23.564,22.683C23.496772,22.558354,23.488019,22.410381,23.540083,22.278678C23.592147,22.146975,23.699714,22.044985,23.834,22C23.918865,21.952678,24.006717,21.910923,24.097,21.875C24.328,21.795,24.391,21.64,24.412,21.398C24.448707,21.025277,24.521037,20.656928,24.628,20.298C24.86151,19.86468,25.375633,19.665734,25.84,19.829C26.242039,19.995205,26.699969,19.954118,27.066,19.719C27.85208,19.244657,28.613097,18.72997,29.346,18.177C30.979,16.923,32.589,15.637,34.194,14.347C34.550085,14.035361,34.889236,13.704888,35.21,13.357C35.265218,13.295731,35.300146,13.218889,35.31,13.137C34.887002,13.496733,34.387753,13.75559,33.85,13.894C33.388173,14.044806,32.943677,14.244259,32.524,14.489C32.085,14.803,31.511,14.975,31.26,15.532C31.194883,15.671894,31.090697,15.789971,30.96,15.872C30.568127,16.132622,30.154218,16.358482,29.723,16.547C29.056395,16.782739,28.31484,16.535555,27.923,15.947C27.529746,15.359973,27.245535,14.706863,27.084,14.019C26.881786,13.222842,26.814186,12.398465,26.884,11.58C26.910194,11.289368,26.967523,11.00239,27.055,10.724C27.100352,10.563238,27.188892,10.417977,27.311,10.304C27.621775,10.030368,27.885309,9.70737,28.091,9.348C28.132,9.278,28.23,9.241,28.375,9.132C28.385,9.413,28.392,9.613,28.398,9.814C28.408,10.176,28.486,10.256,28.835,10.283C29.308576,10.323311,29.784263,10.235221,30.212,10.028C31.153626,9.572116,32.158026,9.259336,33.192,9.1C33.537747,9.055743,33.876463,8.967704,34.2,8.838C34.950404,8.534687,35.761251,8.410731,36.568,8.476C36.729634,8.478405,36.888802,8.436191,37.028,8.354C37.285752,8.141772,37.600744,8.010903,37.933,7.978C38.033,7.978,38.133,7.89,38.233,7.836C38.363973,7.741701,38.527413,7.704141,38.686413,7.731801C38.845414,7.759462,38.986567,7.85001,39.078,7.983C39.1281,8.049484,39.185082,8.110489,39.248,8.165C39.762302,8.5973,40.135332,9.173737,40.319,9.82C40.383927,10.175606,40.360229,10.541732,40.25,10.886C40.24,10.965,40.07,11.056,39.959,11.086C39.72,11.153,39.471,11.186,39.2,11.237L39.047,11.482C39.006,11.498,38.977,11.522,38.955,11.516C38.780306,11.46881,38.593646,11.502982,38.447,11.609C38.176,11.778,37.877,11.899,37.602,12.063C37.476,12.138,37.319,12.246,37.286,12.37C37.148098,12.698666,36.934252,12.989963,36.662,13.22C36.373,13.556,36.089,13.898,35.787,14.22C35.445636,14.605235,35.082721,14.97082,34.7,15.315C34.234777,15.713224,33.744069,16.080672,33.231,16.415C32.590812,16.832275,31.976364,17.287768,31.391,17.779C30.976,18.125,30.544,18.454,30.1,18.762C29.291,19.324,28.466,19.862,27.651,20.418C27.522,20.506,27.288,20.585,27.365,20.777C27.455,21,27.675,20.868,27.843,20.837C29.125245,20.564988,30.348941,20.067248,31.457,19.367C32.342,18.843,33.257,18.367,34.176,17.907C34.602242,17.704961,34.998632,17.445187,35.354,17.135C35.688809,16.816327,36.103365,16.593849,36.554,16.491C37.369,16.31,38.178,16.103,39,15.967C39.762874,15.866621,40.523157,16.169522,41.008,16.767C41.400468,17.165063,41.677043,17.662552,41.808,18.206C41.974,18.906,42.15,19.606,42.347,20.306C42.526,20.933,42.729,21.554,42.938,22.171C43.157752,22.802999,43.251519,23.471938,43.214,24.14C43.200533,24.347218,43.173475,24.553328,43.133,24.757C42.999,25.425,42.864,26.092,42.712,26.757C42.665,26.957,42.629,27.133,42.838,27.268C42.999246,27.389666,43.071447,27.596403,43.021,27.792C42.966492,28.014749,43.035131,28.249647,43.201,28.408Z" transform="matrix(1 0 0 1 1.955 0.642)" fill="rgb(255,206,25)" stroke="none" stroke-width="1"/><path id="eyoKtplUHVk19" d="M17.42,11.482C17.27535,11.519158,17.135684,11.573547,17.004,11.644C16.766447,11.828117,16.472437,11.924235,16.172,11.916C15.889403,11.877171,15.602606,11.880541,15.321,11.926C15.254294,11.943746,15.183465,11.937371,15.121,11.908C14.882,11.777,14.651,11.629,14.413,11.493C13.781563,11.056993,13.034295,10.819511,12.267,10.811C11.517772,10.844031,10.767093,10.813589,10.023,10.72C9.516462,10.625075,9.016974,10.495776,8.528,10.333Q7.902,10.172,7.27,10.033C7.022927,9.979493,6.804088,9.837159,6.655,9.633C6.325537,9.257393,6.061529,8.829097,5.874,8.366C5.708,7.866,5.412,7.414,5.257,6.914C5.07,6.307,4.975,5.673,4.833,5.052C4.78,4.822,4.702,4.599,4.64,4.372C4.596613,4.226445,4.563202,4.078101,4.54,3.928C4.497,3.585,4.483,3.236,4.425,2.895C4.357363,2.553315,4.357363,2.201685,4.425,1.86C4.424002,1.750316,4.409561,1.641169,4.382,1.535C4.297725,1.126183,4.408625,0.701436,4.682,0.386C4.748111,0.280463,4.794845,0.163967,4.82,0.042C5.027,-0.067,5.131,0.055,5.262,0.207C5.472058,0.540353,5.715296,0.851604,5.988,1.136C6.233594,1.354282,6.490981,1.558923,6.759,1.749C6.981396,1.858846,7.21651,1.9408,7.459,1.993C7.859,2.114,8.253,2.239,8.659,2.343C8.876077,2.391601,9.096277,2.425016,9.318,2.443C10.358472,2.547022,11.380456,2.789151,12.357,3.163C12.960566,3.413979,13.549204,3.69945,14.12,4.018C14.784946,4.341266,15.392884,4.770538,15.92,5.289C16.018165,5.36671,16.122512,5.436274,16.232,5.497C16.332,5.573,16.474,5.65,16.496,5.749C16.569,6.059,16.81,6.231,16.989,6.454C17.282975,6.752946,17.454542,7.151012,17.47,7.57C17.466604,7.958286,17.502453,8.345922,17.577,8.727C17.641982,9.053604,17.740504,9.372628,17.871,9.679C17.997144,9.962304,18.019104,10.281075,17.933,10.579C17.811362,10.905693,17.667699,11.223757,17.503,11.531L17.421,11.486Z" transform="matrix(1 0 0 1 0.363 0)" fill="rgb(255,206,25)" stroke="none" stroke-width="1"/><path id="eyoKtplUHVk20" d="M36.276,46.2C36.384,46.326,36.493,46.45,36.598,46.579C36.613,46.596,36.61,46.631,36.62,46.688C36.308,46.713,36.22,46.4,36.007,46.294C35.773,46.177,35.558,46.021,35.33,45.894C35.102,45.767,34.866,45.644,34.63,45.518C34.388763,45.399401,34.165544,45.247222,33.967,45.066L34.203,45.039L34.188,45.023C34.682,45.318,35.174,45.617,35.672,45.905C35.872,46.02,36.083,46.112,36.289,46.214Z" transform="matrix(1 0 0 1 2.824 3.742)" fill="rgb(255,206,25)" stroke="none" stroke-width="1"/><path id="eyoKtplUHVk21" d="M2.839,27.838C2.839,27.838,2.825,27.852,2.827,27.852C2.758,27.846,2.687,27.841,2.592,27.835C2.678,27.699,2.748,27.618,2.871,27.702C2.886,27.711,2.851,27.79,2.839,27.838Z" transform="matrix(1 0 0 1 0.215 2.3)" fill="rgb(255,206,25)" stroke="none" stroke-width="1"/></g></g><path id="eyoKtplUHVk22" d="M3.563,0L65.321,0C66.265966,0,67.172229,0.375386,67.840421,1.043579C68.508614,1.711771,68.884,2.618034,68.884,3.563L68.884,199.525L3.563,199.525C2.618034,199.525,1.711771,199.149614,1.043579,198.481421C0.375386,197.813229,0,196.906966,0,195.962L0,3.563C0,2.618034,0.375386,1.711771,1.043579,1.043579C1.711771,0.375386,2.618034,0,3.563,0Z" transform="matrix(1 0 0 1 2.375 2.375)" opacity="0.127" fill="url(#eyoKtplUHVk22-fill)" stroke="none" stroke-width="1"/><path id="eyoKtplUHVk23" d="M65.321,0L3.563,0C2.618034,0,1.711771,0.375386,1.043579,1.043579C0.375386,1.711771,0,2.618034,0,3.563L0,199.525L65.321,199.525C67.288791,199.525,68.884,197.929791,68.884,195.962L68.884,3.563C68.884,2.618034,68.508614,1.711771,67.840421,1.043579C67.172229,0.375386,66.265966,0,65.321,0Z" transform="matrix(1 0 0 1 71.259 2.375)" opacity="0.127" fill="url(#eyoKtplUHVk23-fill)" stroke="none" stroke-width="1"/></g><g id="eyoKtplUHVk24" transform="matrix(1 0 0 1 7288 16034)"><g id="eyoKtplUHVk25"><g id="eyoKtplUHVk26" transform="matrix(1 0 0 1 -9 -9)"><g id="eyoKtplUHVk27" transform="matrix(1 0 0 1 9 9)"><path id="eyoKtplUHVk28" d="M3,0L138,0C139.656854,0,141,1.343146,141,3L141,15C141,46.480231,115.480231,72,84,72L57,72C25.519769,72,0,46.480231,0,15L0,3C0,1.343146,1.343146,0,3,0Z" fill="rgb(255,15,15)" stroke="none" stroke-width="2"/><path id="eyoKtplUHVk29" d="M3,1L138,1C139.104569,1,140,1.895431,140,3L140,15C140,45.927946,114.927946,71,84,71L57,71C26.072054,71,1,45.927946,1,15L1,3C1,1.895431,1.895431,1,3,1Z" fill="none" stroke="rgb(255,206,25)" stroke-width="2"/></g></g></g><g id="eyoKtplUHVk30" transform="matrix(1 0 0 1 -9 -9)"><g id="eyoKtplUHVk31" transform="matrix(1 0 0 1 63 63)"><circle id="eyoKtplUHVk32" r="17.5" transform="matrix(1 0 0 1 17.5 17.5)" fill="rgb(255,173,41)" stroke="none" stroke-width="2"/><circle id="eyoKtplUHVk33" r="16.5" transform="matrix(1 0 0 1 17.5 17.5)" fill="none" stroke="rgb(255,206,25)" stroke-width="2"/></g></g><path id="eyoKtplUHVk34" d="M8.8,-1.512Q8.944,-1.248,8.416,-0.744C8.285125,-0.618043,8.129973,-0.520052,7.96,-0.456C7.833563,-0.406216,7.69098,-0.419583,7.576,-0.492C7.46124,-0.566539,7.359827,-0.659839,7.276,-0.768C7.169277,-0.910587,7.076832,-1.063321,7,-1.224Q6.664,-1.872,5.968,-3.384Q5.272,-4.896,4.836,-5.664C5.04207,-4.709253,5.381393,-3.788233,5.844,-2.928C6.052414,-2.386205,6.292838,-1.857273,6.564,-1.344C6.628123,-1.230951,6.70031,-1.122671,6.78,-1.02Q6.948,-0.792,7.08,-0.576C7.147727,-0.483716,7.192931,-0.37687,7.212,-0.264C7.050498,-0.185344,6.857865,-0.208836,6.72,-0.324C6.489635,-0.492998,6.294058,-0.704873,6.144,-0.948Q5.844,-1.392,5.556,-1.896C5.344872,-2.270134,5.15263,-2.654617,4.98,-3.048Q4.692,-3.696,4.5,-4.148Q4.308,-4.6,4.116,-5.084Q3.924,-5.564,3.9,-5.612C2.903096,-5.246573,1.83148,-5.132542,0.78,-5.28Q0.68,-5.28,0.396,-5.316C0.231558,-5.338126,0.065914,-5.350149,-0.1,-5.352C-0.206829,-5.360791,-0.313269,-5.330988,-0.4,-5.268C-0.500856,-5.144827,-0.574472,-5.001684,-0.616,-4.848Q-0.736,-4.512,-0.736,-4.488Q-1.048,-3.816,-1.276,-3.388C-1.465986,-3.03601,-1.674271,-2.694209,-1.9,-2.364C-2.121864,-2.0221,-2.383713,-1.707881,-2.68,-1.428C-2.963728,-1.175522,-3.281496,-0.964126,-3.624,-0.8C-4.003688,-0.616455,-4.415193,-0.507807,-4.836,-0.48C-5.930538,-0.408039,-7.018739,-0.694482,-7.936,-1.296C-8.280919,-1.481339,-8.57071,-1.75457,-8.776,-2.088C-8.826042,-2.185885,-8.859817,-2.291263,-8.876,-2.4Q-8.852,-2.568,-8.852,-2.592Q-8.852,-2.616,-8.76,-2.6C-8.706157,-2.592345,-8.651261,-2.597835,-8.6,-2.616C-8.35541,-2.628084,-8.110224,-2.616026,-7.868,-2.58C-7.617443,-2.536998,-7.361066,-2.541067,-7.112,-2.592C-6.561716,-2.7484,-6.043173,-3.000225,-5.58,-3.336C-4.650201,-4.052208,-3.942787,-5.017619,-3.54,-6.12Q-3.684,-6.144,-4.032,-6.228Q-4.38,-6.312,-4.608,-6.372C-4.780249,-6.42039,-4.947634,-6.484666,-5.108,-6.564C-5.272127,-6.63647,-5.416242,-6.747644,-5.528,-6.888C-5.627361,-7.020644,-5.687009,-7.178778,-5.7,-7.344C-5.697662,-7.860046,-5.458843,-8.34653,-5.052,-8.664C-4.860722,-8.928663,-4.615279,-9.149561,-4.332,-9.312C-4.192104,-9.360618,-4.039896,-9.360618,-3.9,-9.312C-3.700202,-9.25707,-3.503854,-9.190285,-3.312,-9.112C-3.168244,-9.048628,-3.019802,-8.996472,-2.868,-8.956C-2.709218,-8.892709,-2.538747,-8.86407,-2.368,-8.872C-2.251048,-8.999951,-2.160032,-9.149379,-2.1,-9.312Q-1.908,-9.744,-1.716,-10.224C-0.934179,-11.850789,-0.237243,-13.517027,0.372,-15.216C0.419807,-15.378068,0.436101,-15.547797,0.42,-15.716C0.40399,-15.899652,0.40399,-16.084348,0.42,-16.268C0.419219,-16.425991,0.489764,-16.5759,0.612,-16.676C0.959991,-16.820318,1.343689,-16.8552,1.712,-16.776C1.891175,-16.746298,2.061768,-16.678061,2.212,-16.576C2.343368,-16.484882,2.489529,-16.417215,2.644,-16.376C2.747408,-16.337338,2.857824,-16.32098,2.968,-16.328C3.088318,-16.335079,3.208369,-16.310241,3.316,-16.256C3.43673,-16.156277,3.524558,-16.022444,3.568,-15.872C3.650992,-15.636837,3.717815,-15.396276,3.768,-15.152Q3.868,-14.72,3.868,-14.696C5.094631,-10.1563,6.745916,-5.742158,8.8,-1.512ZM-4.284,-7.776L-4.308,-7.728L-4.188,-7.848L-4.236,-7.812ZM-4.284,-7.584L-4.184,-7.608L-4.184,-7.656L-4.232,-7.632Q-4.284,-7.608,-4.284,-7.584ZM-4.308,-2.16Q-4.208,-2.136,-4.26,-2.232Q-4.356,-2.28,-4.308,-2.16ZM-4,-1.752C-3.970718,-1.777153,-3.95331,-1.81342,-3.952,-1.852C-3.998667,-1.836,-4.049333,-1.836,-4.096,-1.852Q-4.068,-1.7,-4,-1.752ZM-3.928,-1.584Q-3.808,-1.536,-3.904,-1.656Q-4,-1.656,-3.924,-1.584ZM-3.856,-1.776Q-3.756,-1.8,-3.832,-1.92C-3.837666,-1.927554,-3.846557,-1.932,-3.856,-1.932C-3.865443,-1.932,-3.874334,-1.927554,-3.88,-1.92L-3.88,-1.9Q-3.876,-1.776,-3.852,-1.776ZM6.708,-3.96C6.693508,-3.97397,6.681353,-3.990176,6.672,-4.008C6.662647,-4.025824,6.650492,-4.04203,6.636,-4.056C6.633796,-4.010851,6.664039,-3.970526,6.708,-3.96ZM6.156,-5.208C6.122432,-5.206288,6.08902,-5.202279,6.056,-5.196C6.02298,-5.189721,5.989568,-5.185712,5.956,-5.184Q5.932,-5.136,6.028,-5.112L6.18,-5.112C6.179647,-5.14544,6.171425,-5.178328,6.156,-5.208ZM5.724,-6.648Q5.652,-6.576,5.748,-6.576Q5.844,-6.648,5.724,-6.648ZM4.692,-8.712Q4.62,-8.688,4.668,-8.64C4.690593,-8.608047,4.733366,-8.597782,4.768,-8.616C4.748082,-8.651938,4.722408,-8.684367,4.692,-8.712ZM3.66,-9.624L3.684,-9.524Q3.732,-9.424,3.804,-9.476Q3.9,-9.624,3.66,-9.624ZM3.636,-9.724Q3.684,-9.624,3.736,-9.724Q3.66,-9.792,3.636,-9.72ZM3.492,-9.988Q3.612,-9.796,3.804,-9.988Q3.948,-10.132,3.828,-10.18L3.728,-10.18ZM3.444,-8.5Q3.544,-8.572,3.42,-8.6Q3.348,-8.52,3.444,-8.5ZM3.156,-7.4L3.156,-7.4ZM3.156,-8.864L3.276,-8.816Q3.108,-8.984,3.108,-8.916ZM3.3,-10.184Q3.324,-10.232,3.228,-10.284Q3.18,-10.284,3.18,-10.26C3.193226,-10.205836,3.24458,-10.169888,3.3,-10.176ZM3.132,-9.2Q3.204,-9.152,3.232,-9.272Q3.256,-9.372,3.22,-9.38Q3.184,-9.388,3.136,-9.32ZM3.232,-10.9Q3.304,-10.972,3.208,-10.972Q3.108,-10.92,3.228,-10.9ZM3.184,-10.732L3.156,-10.732Q3.084,-10.804,3.056,-10.708Q3.132,-10.608,3.18,-10.728ZM3.424,-8.668C3.374947,-8.683811,3.321274,-8.674865,3.28,-8.644C3.313615,-8.627628,3.350615,-8.619405,3.388,-8.62Q3.444,-8.616,3.42,-8.664ZM3.4,-10.3L3.4,-10.276C3.420044,-10.259229,3.447601,-10.254636,3.472,-10.264Q3.52,-10.276,3.52,-10.3Q3.444,-10.368,3.4,-10.3ZM3.424,-11.068Q3.352,-10.968,3.472,-10.968Q3.636,-11.064,3.42,-11.064ZM3.712,-10.368Q3.664,-10.296,3.688,-10.268Q3.712,-10.24,3.76,-10.268L3.736,-10.388ZM3.472,-11.544Q3.304,-11.568,3.4,-11.444C3.423594,-11.420366,3.456947,-11.409234,3.490006,-11.413956C3.523066,-11.418679,3.551967,-11.438705,3.568,-11.468C3.558967,-11.515154,3.515851,-11.547922,3.468,-11.544ZM3.256,-12.408L3.256,-12.384L3.304,-12.432C3.290962,-12.416845,3.271992,-12.408089,3.252,-12.408ZM3.328,-11.256Q3.304,-11.328,3.268,-11.34C3.234309,-11.348168,3.198802,-11.343907,3.168,-11.328L3.108,-11.304L3.208,-11.184Q3.324,-11.112,3.324,-11.256ZM2.968,-12.356L2.968,-12.332C3.019827,-12.367171,3.06806,-12.407365,3.112,-12.452ZM2.868,-10.172L2.844,-10.172L2.844,-10.148C2.851519,-10.1464,2.859311,-10.149037,2.864314,-10.154874C2.869317,-10.16071,2.870731,-10.168814,2.868,-10.176ZM2.844,-12L2.844,-11.976L2.868,-11.976Q2.968,-11.928,2.988,-11.952Q2.868,-12.12,2.844,-12ZM2.744,-11.352C2.718847,-11.381282,2.68258,-11.39869,2.644,-11.4Q2.572,-11.352,2.668,-11.328Q2.748,-11.3,2.748,-11.352ZM2.696,-12.652Q2.768,-12.58,2.796,-12.676Q2.748,-12.748,2.696,-12.7ZM2.936,-11.26Q2.864,-11.188,3.008,-11.16Q3.084,-11.232,2.94,-11.256ZM3.036,-9.892Q2.964,-9.94,2.964,-9.868Q3.036,-9.792,3.036,-9.888ZM2.628,-13.592L2.628,-13.568C2.615654,-13.535862,2.607585,-13.502241,2.604,-13.468Q2.652,-13.516,2.688,-13.468Q2.724,-13.42,2.748,-13.444Q2.772,-13.56,2.628,-13.584ZM2.58,-11.808Q2.508,-11.784,2.556,-11.76C2.587311,-11.728182,2.634859,-11.718672,2.676,-11.736Q2.748,-11.832,2.58,-11.808ZM2.604,-11.184L2.484,-11.16L2.508,-11.136Q2.628,-11.16,2.6,-11.184ZM2.364,-11.352L2.532,-11.52Q2.604,-11.64,2.484,-11.64C2.419859,-11.639907,2.362491,-11.600069,2.34,-11.54C2.309639,-11.47818,2.319082,-11.40421,2.364,-11.352ZM2.34,-11.616Q2.316,-11.664,2.28,-11.724Q2.244,-11.784,2.196,-11.712Q2.2,-11.592,2.34,-11.616ZM2.24,-12.024L2.268,-12Q2.316,-11.784,2.388,-12Q2.436,-12.1,2.388,-12.1C2.327353,-12.117699,2.263609,-12.084056,2.244,-12.024ZM2.34,-12.648Q2.388,-12.696,2.34,-12.72ZM2.292,-14.712L2.268,-14.712C2.252023,-14.696195,2.24333,-14.674463,2.244,-14.652Q2.244,-14.616,2.292,-14.592C2.326715,-14.612592,2.345648,-14.652034,2.34,-14.692Q2.34,-14.736,2.292,-14.712ZM2.172,-14.568L2.172,-14.544L2.196,-14.444C2.22235,-14.456158,2.246642,-14.472353,2.268,-14.492C2.240367,-14.522408,2.207938,-14.548082,2.172,-14.568ZM2.052,-14.736Q1.952,-14.664,2.1,-14.664Q2.172,-14.736,2.052,-14.736ZM1.38,-12.96L1.38,-12.936Q0.708,-11.136,0.54,-10.512C1.119326,-11.16404,1.420783,-12.01673,1.38,-12.888Q1.4,-12.912,1.38,-12.96ZM0.492,-12.384L0.468,-12.384C0.499143,-12.365954,0.536979,-12.363676,0.570062,-12.377854C0.603146,-12.392033,0.62759,-12.421003,0.636,-12.456Q0.636,-12.576,0.492,-12.384ZM0.636,-13.368L0.612,-13.368Q0.512,-13.368,0.588,-13.296Q0.732,-13.32,0.636,-13.368ZM0.612,-13.224L0.588,-13.2Q0.54,-13.152,0.612,-13.128Q0.732,-13.128,0.732,-13.2ZM0.4,-13.512L0.4,-13.488Q0.28,-13.44,0.424,-13.464Q0.712,-13.464,0.688,-13.564L0.616,-13.636ZM0.472,-13.152L0.444,-13.152C0.443101,-13.131503,0.439054,-13.111266,0.432,-13.092C0.42319,-13.071445,0.427962,-13.047586,0.444,-13.032C0.475818,-13.063311,0.485328,-13.110859,0.468,-13.152ZM0.16,-12.052L0.132,-12.052Q0.108,-12.028,0.204,-11.98Q0.276,-11.932,0.304,-12.004C0.282642,-12.023647,0.25835,-12.039842,0.232,-12.052Q0.18,-12.072,0.156,-12.048ZM0.28,-12.124L0.252,-12.1Q0.324,-12.148,0.204,-12.172L0.132,-12.172C0.171203,-12.136253,0.223003,-12.117548,0.276,-12.12ZM0.18,-13.156L0.18,-13.132L0.132,-13.18Q0.132,-13.1,0.18,-13.152ZM0.108,-12.916L0.108,-12.892Q0.008,-12.892,0.084,-12.844Q0.18,-12.84,0.108,-12.912ZM0.036,-12.416L0.036,-12.392Q0.136,-12.248,0.156,-12.248Q0.228,-12.2,0.276,-12.296C0.26371,-12.335773,0.243277,-12.372553,0.216,-12.404Q0.156,-12.488,0.108,-12.488Q0.06,-12.488,0.132,-12.44Q0.204,-12.392,0.18,-12.392Q0.084,-12.336,0.036,-12.408ZM-0.064,-11.864L-0.064,-11.84Q-0.064,-11.816,0.008,-11.756Q0.08,-11.696,0.128,-11.744Q0.152,-11.792,0.008,-11.888Q-0.06,-11.952,-0.06,-11.856ZM0.06,-8.88L0.06,-8.856Q0.036,-8.784,0.16,-8.784Q0.084,-8.952,0.06,-8.88ZM-0.012,-10.368Q0.132,-10.368,0.06,-10.488Q-0.108,-10.488,-0.012,-10.368ZM-0.324,-10.656L-0.252,-10.68Q-0.18,-10.704,-0.18,-10.728C-0.23136,-10.760239,-0.29664,-10.760239,-0.348,-10.728ZM-0.468,-8.568Q-0.492,-8.688,-0.568,-8.64Q-0.564,-8.52,-0.468,-8.568ZM-1.284,-8.928L-1.284,-8.952Q-1.164,-8.952,-1.212,-9.052Q-1.332,-9.024,-1.284,-8.928ZM-1.74,-5.4Q-1.74,-5.52,-1.84,-5.448Q-1.86,-5.328,-1.74,-5.4ZM-1.908,-4.584L-1.884,-4.584Q-1.908,-4.704,-1.984,-4.656L-1.936,-4.536ZM-2,-5.352Q-2.1,-5.352,-2.048,-5.28Q-1.932,-5.256,-2,-5.352ZM-2.34,-5.52L-2.34,-5.5Q-2.388,-5.4,-2.268,-5.356L-2.2,-5.4C-2.207353,-5.470853,-2.268856,-5.52357,-2.34,-5.52ZM-2.84,-4.08L-2.84,-4.056L-3.008,-4.032L-2.96,-4.056Q-2.844,-4.056,-2.844,-4.08ZM-2.984,-7.512L-2.96,-7.512C-2.957323,-7.492204,-2.964042,-7.472293,-2.978168,-7.458168C-2.992293,-7.444042,-3.012204,-7.437323,-3.032,-7.44Q-2.984,-7.416,-2.984,-7.464ZM-2.912,-5.472Q-2.96,-5.592,-3.032,-5.496Q-3.036,-5.4,-2.916,-5.472ZM-3.012,-4.128Q-2.988,-4.176,-3.084,-4.2L-3.084,-4.176Q-3.084,-4.1,-3.012,-4.128ZM-3.084,-4.2C-3.096106,-4.214149,-3.113417,-4.222805,-3.132,-4.224C-3.119894,-4.209851,-3.102583,-4.201195,-3.084,-4.2ZM-3.372,-6.984L-3.4,-7.032Q-3.4,-6.984,-3.372,-6.984ZM-3.732,-7.416L-3.732,-7.44Q-3.732,-7.464,-3.804,-7.392C-3.788414,-7.375962,-3.764555,-7.37119,-3.744,-7.38Q-3.708,-7.392,-3.732,-7.416ZM-3.684,-7.056L-3.708,-7.1C-3.713666,-7.107554,-3.722557,-7.112,-3.732,-7.112C-3.741443,-7.112,-3.750334,-7.107554,-3.756,-7.1C-3.770149,-7.087894,-3.778805,-7.070583,-3.78,-7.052Q-3.78,-6.984,-3.684,-7.056ZM-3.612,-7.368Q-3.636,-7.344,-3.492,-7.56L-3.468,-7.608Q-3.468,-7.776,-3.612,-7.536Q-3.712,-7.392,-3.66,-7.368Q-3.66,-7.344,-3.612,-7.368ZM-3.4,-2.64Q-3.424,-2.64,-3.4,-2.52L-3.352,-2.64ZM-3.4,-2.712Q-3.232,-2.76,-3.316,-2.904Q-3.4,-3.048,-3.472,-3.048Q-3.52,-3.024,-3.508,-2.948C-3.498265,-2.894275,-3.482151,-2.841905,-3.46,-2.792Q-3.42,-2.712,-3.4,-2.712ZM-3.28,-6.864L-3.28,-6.984C-3.295977,-6.968195,-3.30467,-6.946463,-3.304,-6.924C-3.30364,-6.900924,-3.293455,-6.879098,-3.276,-6.864ZM-3.064,-3.792L-3.04,-3.792L-3.04,-3.692L-3.016,-3.692Q-2.872,-3.792,-3.064,-3.836C-3.086071,-3.823083,-3.110593,-3.81491,-3.136,-3.812C-3.130334,-3.819554,-3.121443,-3.824,-3.112,-3.824C-3.102557,-3.824,-3.093666,-3.819554,-3.088,-3.812ZM-3.016,-2.568Q-2.968,-2.544,-2.944,-2.616Q-2.944,-2.736,-3.016,-2.736Q-3.04,-2.736,-3.04,-2.664C-3.042899,-2.629635,-3.03292,-2.595418,-3.012,-2.568ZM-2.944,-3.668C-2.922642,-3.648353,-2.89835,-3.632158,-2.872,-3.62Q-2.868,-3.72,-2.94,-3.672ZM-2.8,-3.168C-2.78674,-3.165921,-2.773285,-3.170304,-2.763794,-3.179794C-2.754304,-3.189285,-2.749921,-3.20274,-2.752,-3.216Q-2.844,-3.216,-2.8,-3.168ZM-2.656,-5.136Q-2.776,-5.088,-2.608,-4.992Q-2.508,-4.92,-2.508,-4.992L-2.508,-5.04Q-2.556,-5.16,-2.652,-5.136ZM-2.656,-3.312Q-2.556,-3.336,-2.584,-3.384Q-2.632,-3.408,-2.656,-3.384ZM-2.556,-4.2L-2.556,-4.224Q-2.532,-4.176,-2.532,-4.2L-2.556,-4.368L-2.58,-4.344ZM-2.34,-5.136Q-2.364,-5.016,-2.22,-4.944L-2.196,-5.136Q-2.244,-5.232,-2.34,-5.136ZM-2.196,-4.296C-2.201666,-4.303554,-2.210557,-4.308,-2.22,-4.308C-2.229443,-4.308,-2.238334,-4.303554,-2.244,-4.296Q-2.268,-4.272,-2.196,-4.196Q-2.148,-4.148,-2.124,-4.172ZM-2.244,-3.864L-2.22,-3.864L-2.12,-3.764Q-2.072,-3.74,-2.072,-3.764C-2.05485,-3.783914,-2.046228,-3.809779,-2.048,-3.836Q-2.072,-3.956,-2.148,-3.884C-2.178009,-3.869958,-2.21088,-3.86311,-2.244,-3.864ZM-2.028,-4.992L-2.028,-5.016Q-2.128,-4.992,-2.052,-4.872Q-1.956,-4.872,-2.028,-4.992ZM-1.836,-3.984Q-1.764,-4.084,-1.884,-4.152C-1.905575,-4.122934,-1.918098,-4.088149,-1.92,-4.052Q-1.932,-3.984,-1.836,-3.984ZM-1.812,-4.368L-1.712,-4.392L-1.736,-4.416Q-1.836,-4.464,-1.952,-4.356Q-2.068,-4.248,-2.052,-4.176C-2.00744,-4.163068,-1.959561,-4.168468,-1.919001,-4.191001C-1.878441,-4.213535,-1.848561,-4.251334,-1.836,-4.296C-1.837772,-4.322221,-1.82915,-4.348086,-1.812,-4.368ZM-1.668,-4.632Q-1.644,-4.632,-1.74,-4.704Q-1.788,-4.68,-1.668,-4.632ZM-1.356,-5.352Q-1.212,-5.352,-1.308,-5.424Q-1.4,-5.424,-1.356,-5.352ZM-1.38,-6.984L-1.356,-6.984Q-1.256,-6.936,-1.256,-7.056Q-1.256,-7.176,-1.356,-7.176Q-1.548,-7.08,-1.38,-6.984ZM-1.212,-5.592L-1.188,-5.616L-1.236,-5.616C-1.22937,-5.61704,-1.222643,-5.614848,-1.217897,-5.610103C-1.213152,-5.605357,-1.21096,-5.59863,-1.212,-5.592ZM-1.164,-7.512L-1.14,-7.512Q-1.14,-7.392,-1.068,-7.464Q-1.092,-7.512,-1.116,-7.512ZM-0.852,-10.44L-0.828,-10.464Q-0.828,-10.344,-0.756,-10.392Q-0.756,-10.488,-0.852,-10.44ZM-0.66,-9.864Q-0.54,-9.888,-0.612,-9.936Q-0.708,-9.936,-0.66,-9.864ZM-0.204,-9.336Q-0.348,-9.436,-0.396,-9.264Q-0.42,-9.216,-0.396,-9.192Q-0.252,-9.168,-0.2,-9.336ZM-0.276,-8.9Q-0.176,-8.9,-0.228,-8.972Q-0.324,-8.976,-0.276,-8.9ZM-0.176,-9.4L-0.176,-9.376Q-0.2,-9.376,-0.2,-9.328Q-0.108,-9.36,-0.18,-9.408ZM-0.032,-8.68Q-0.008,-8.728,-0.044,-8.752Q-0.08,-8.776,-0.128,-8.728Q-0.176,-8.68,-0.2,-8.68Q-0.224,-8.632,-0.2,-8.608Q-0.108,-8.568,-0.036,-8.688ZM-0.084,-6.072Q-0.06,-6.1,-0.156,-6.36L-0.156,-6.1C-0.152407,-6.085012,-0.141694,-6.072738,-0.12733,-6.067152C-0.112965,-6.061566,-0.096775,-6.063377,-0.084,-6.072ZM0.156,-6.12L0.156,-6.24Q0.132,-6.312,0.108,-6.24Q0.06,-6.168,0.156,-6.12ZM0.2,-5.976L0.228,-5.976C0.242516,-6.015802,0.250617,-6.057657,0.252,-6.1ZM0.2,-11.16Q0.176,-11.16,0.248,-11.232Q0.32,-11.352,0.296,-11.376C0.235935,-11.369187,0.19187,-11.316309,0.196,-11.256L0.096,-11.356L0.144,-11.38Q0.2,-11.4,0.2,-11.424L0.1,-11.472L-0.02,-11.304Q-0.284,-11.232,0.052,-11.184C0.100785,-11.172923,0.150215,-11.164907,0.2,-11.16ZM0.248,-11.736C0.28104,-11.713368,0.319961,-11.700858,0.36,-11.7Q0.444,-11.688,0.444,-11.736Q0.468,-11.836,0.252,-11.76Q0.152,-11.712,0.18,-11.64ZM0.468,-6.648C0.424828,-6.625102,0.40453,-6.574355,0.42,-6.528Q0.564,-6.408,0.54,-6.6C0.51365,-6.612158,0.489358,-6.628353,0.468,-6.648ZM0.54,-6.432C0.554936,-6.44309,0.55996,-6.463186,0.552,-6.48Q0.54,-6.5,0.516,-6.48ZM0.492,-7.92C1.35295,-7.696242,2.246129,-7.623164,3.132,-7.704Q3.06,-7.704,2.916,-8.052Q2.772,-8.4,2.6,-8.916Q2.432,-9.432,2.276,-9.936Q2.12,-10.44,1.988,-10.884Q1.856,-11.328,1.832,-11.4Q1.664,-10.992,1.196,-9.792Q0.728,-8.592,0.492,-7.92ZM2.868,-7.272C2.927215,-7.236132,2.964703,-7.173152,2.968,-7.104Q3.04,-7.104,2.92,-7.344Q2.82,-7.368,2.868,-7.272ZM2.8,-7.056Q2.776,-7.08,2.776,-7.032Q2.776,-6.932,2.824,-6.932C2.806198,-6.970819,2.797968,-7.013342,2.8,-7.056ZM2.652,-7.44Q2.676,-7.392,2.676,-7.488Q2.652,-7.488,2.652,-7.44ZM2.752,-7.176C2.739894,-7.161851,2.722583,-7.153195,2.704,-7.152C2.69737,-7.15304,2.690643,-7.150848,2.685897,-7.146103C2.681152,-7.141357,2.67896,-7.13463,2.68,-7.128Q2.7,-7.1,2.748,-7.176ZM2.292,-7.1C2.289742,-7.129574,2.292446,-7.159318,2.3,-7.188C2.30751,-7.216471,2.303182,-7.24677,2.288,-7.272L2.264,-7.152Q2.288,-7.128,2.264,-7.252Q2.24,-7.352,2.264,-7.352L2.24,-7.16ZM2.172,-7.028L2.148,-7.128C2.151923,-7.095117,2.159987,-7.062861,2.172,-7.032ZM2.072,-6.928L2.1,-7.08Q2.076,-7.08,2.076,-6.96ZM1.88,-6.88L1.916,-6.82Q1.952,-6.76,1.976,-6.72Q2,-6.68,1.976,-6.66Q2.048,-6.708,1.952,-6.852Q1.908,-6.96,1.884,-6.888ZM1.928,-7.168L1.928,-7.2C1.926691,-7.175628,1.922666,-7.151479,1.916,-7.128C1.908637,-7.100584,1.904608,-7.072381,1.904,-7.044L1.904,-6.984L1.928,-7.032Q1.98,-7.152,1.932,-7.176ZM1.76,-6.784C1.776112,-6.822378,1.776112,-6.865622,1.76,-6.904L1.66,-6.928L1.62,-6.984Q1.38,-6.96,1.62,-6.72L1.72,-6.648C1.719908,-6.712742,1.711847,-6.777227,1.696,-6.84C1.711828,-6.840279,1.72617,-6.830718,1.732,-6.816C1.737252,-6.802579,1.749645,-6.793284,1.764,-6.792ZM1.16,-6.568Q1.26,-6.616,1.184,-6.688Q1.136,-6.664,1.136,-6.628C1.138456,-6.607761,1.148455,-6.589192,1.164,-6.576ZM1.304,-6.904L1.304,-6.96Q1.28,-7.032,1.256,-7.032ZM2.8,-5.976L2.8,-6C3.110937,-5.968227,3.423843,-5.960204,3.736,-5.976C3.693515,-6.082231,3.611914,-6.168127,3.508,-6.216C3.414431,-6.261546,3.312048,-6.286118,3.208,-6.288C3.071377,-6.284609,2.935106,-6.272585,2.8,-6.252C2.67284,-6.23229,2.544607,-6.220268,2.416,-6.216Q1.6,-6.192,1.316,-6.168C1.452811,-6.079194,1.609462,-6.025603,1.772,-6.012C1.950981,-5.988557,2.131645,-5.980528,2.312,-5.988C2.474742,-5.995901,2.637843,-5.99189,2.8,-5.976ZM4.02,-8.76L4.02,-8.784Q4.092,-8.856,3.972,-8.856Q3.9,-8.76,4.02,-8.76ZM3.756,-9.168Q3.828,-8.952,4.02,-9.216L4.044,-9.24L3.78,-9.312Q3.708,-9.288,3.756,-9.168ZM3.972,-11.424Q4.092,-11.352,4.072,-11.472Q4,-11.544,3.972,-11.424ZM4.164,-8.136L4.164,-8.16Q4.212,-8.232,4.164,-8.28Q4.116,-8.328,4.116,-8.3Q4.092,-8.3,4.164,-8.136ZM4.116,-9.96Q4.092,-9.86,4.14,-9.852C4.183622,-9.843841,4.228378,-9.843841,4.272,-9.852L4.356,-9.864L4.4,-9.864Q4.352,-10.032,4.232,-10.032Q4.164,-10.056,4.116,-9.96ZM4.356,-8.736L4.38,-8.76Q4.28,-8.66,4.404,-8.64Q4.476,-8.736,4.356,-8.736ZM4.764,-8.28L4.864,-8.38C4.808731,-8.398776,4.750103,-8.405593,4.692,-8.4Q4.572,-8.4,4.548,-8.352C4.53931,-8.339775,4.536977,-8.324136,4.54172,-8.309907C4.546463,-8.295677,4.557713,-8.284566,4.572,-8.28Q4.716,-8.232,4.764,-8.28ZM4.788,-8.688Q4.86,-8.616,4.888,-8.736L4.86,-8.808C4.816443,-8.783573,4.789056,-8.737928,4.788,-8.688ZM5.1,-7.944Q5.028,-7.872,5.1,-7.824Q5.2,-7.9,5.1,-7.944ZM5.124,-6.12Q5.024,-6.02,5.172,-6Q5.268,-6.1,5.124,-6.12ZM5.7,-5.376L5.7,-5.4C5.698691,-5.375628,5.694666,-5.351479,5.688,-5.328L5.676,-5.28C5.724886,-5.276012,5.774051,-5.282841,5.82,-5.3L5.748,-5.52L5.772,-5.544C5.699974,-5.575532,5.618938,-5.579797,5.544,-5.556C5.525126,-5.548473,5.510381,-5.533219,5.503499,-5.5141C5.496616,-5.494982,5.498255,-5.47383,5.508,-5.456Q5.532,-5.396,5.568,-5.324Q5.604,-5.252,5.58,-5.252C5.595977,-5.267805,5.60467,-5.289537,5.604,-5.312C5.60467,-5.334463,5.595977,-5.356195,5.58,-5.372C5.595805,-5.356023,5.617537,-5.34733,5.64,-5.348C5.663076,-5.34836,5.684902,-5.358545,5.7,-5.376ZM5.844,-4.92Q5.892,-4.944,5.904,-5.04Q5.916,-5.136,5.868,-5.14Q5.748,-4.9,5.724,-4.9C5.765006,-4.897344,5.806072,-4.904188,5.844,-4.92ZM6.036,-4.896L6.084,-4.848L6.156,-4.9Q6.132,-4.992,6.036,-4.9ZM6.156,-4.464L6.084,-4.3Q6.084,-4.276,6.156,-4.3C6.186593,-4.350387,6.186593,-4.413613,6.156,-4.464ZM6.132,-4.752Q6.18,-4.728,6.232,-4.824L6.256,-4.848C6.200163,-4.841225,6.152545,-4.80436,6.132,-4.752ZM6.42,-4.632L6.444,-4.656C6.43286,-4.669232,6.417156,-4.677798,6.4,-4.68L6.52,-4.78L6.444,-4.78C6.391139,-4.779273,6.338635,-4.771196,6.288,-4.756Q6.204,-4.732,6.228,-4.656C6.243805,-4.640023,6.265537,-4.63133,6.288,-4.632L6.42,-4.632ZM6.564,-3.768C6.598715,-3.788592,6.617648,-3.828034,6.612,-3.868C6.566883,-3.853796,6.525765,-3.829124,6.492,-3.796Q6.516,-3.796,6.516,-3.748Q6.516,-3.7,6.564,-3.768ZM6.636,-3.456C6.634228,-3.429779,6.64285,-3.403914,6.66,-3.384C6.672106,-3.369851,6.689417,-3.361195,6.708,-3.36Q6.708,-3.408,6.636,-3.456ZM6.708,-4.392Q6.78,-4.32,6.808,-4.416Q6.732,-4.488,6.708,-4.392ZM6.948,-3.672L6.948,-3.72Q6.996,-3.84,6.948,-3.84Q6.924,-3.84,6.888,-3.768Q6.852,-3.696,6.828,-3.636L6.804,-3.576Q6.948,-3.48,6.948,-3.672ZM2.8,-6L2.82,-6ZM6.4,-4.68Q6.376,-4.68,6.376,-4.668Q6.376,-4.656,6.348,-4.68ZM1.38,-12.888L1.38,-12.888Z" transform="matrix(1 0 0 1 71 80)" opacity="0.762" fill="rgb(0,0,0)" stroke="none" stroke-width="1"/></g></g></g><script><![CDATA[!function(t,n){"object"==typeof exports&&"undefined"!=typeof module?module.exports=n():"function"==typeof define&&define.amd?define(n):((t="undefined"!=typeof globalThis?globalThis:t||self).__SVGATOR_PLAYER__=t.__SVGATOR_PLAYER__||{},t.__SVGATOR_PLAYER__["91c80d77"]=n())}(this,(function(){"use strict";function t(t,n){var e=Object.keys(t);if(Object.getOwnPropertySymbols){var r=Object.getOwnPropertySymbols(t);n&&(r=r.filter((function(n){return Object.getOwnPropertyDescriptor(t,n).enumerable}))),e.push.apply(e,r)}return e}function n(n){for(var e=1;e<arguments.length;e++){var r=null!=arguments[e]?arguments[e]:{};e%2?t(Object(r),!0).forEach((function(t){o(n,t,r[t])})):Object.getOwnPropertyDescriptors?Object.defineProperties(n,Object.getOwnPropertyDescriptors(r)):t(Object(r)).forEach((function(t){Object.defineProperty(n,t,Object.getOwnPropertyDescriptor(r,t))}))}return n}function e(t){return(e="function"==typeof Symbol&&"symbol"==typeof Symbol.iterator?function(t){return typeof t}:function(t){return t&&"function"==typeof Symbol&&t.constructor===Symbol&&t!==Symbol.prototype?"symbol":typeof t})(t)}function r(t,n){if(!(t instanceof n))throw new TypeError("Cannot call a class as a function")}function i(t,n){for(var e=0;e<n.length;e++){var r=n[e];r.enumerable=r.enumerable||!1,r.configurable=!0,"value"in r&&(r.writable=!0),Object.defineProperty(t,r.key,r)}}function u(t,n,e){return n&&i(t.prototype,n),e&&i(t,e),t}function o(t,n,e){return n in t?Object.defineProperty(t,n,{value:e,enumerable:!0,configurable:!0,writable:!0}):t[n]=e,t}function a(t){return(a=Object.setPrototypeOf?Object.getPrototypeOf:function(t){return t.__proto__||Object.getPrototypeOf(t)})(t)}function l(t,n){return(l=Object.setPrototypeOf||function(t,n){return t.__proto__=n,t})(t,n)}function s(){if("undefined"==typeof Reflect||!Reflect.construct)return!1;if(Reflect.construct.sham)return!1;if("function"==typeof Proxy)return!0;try{return Boolean.prototype.valueOf.call(Reflect.construct(Boolean,[],(function(){}))),!0}catch(t){return!1}}function f(t,n,e){return(f=s()?Reflect.construct:function(t,n,e){var r=[null];r.push.apply(r,n);var i=new(Function.bind.apply(t,r));return e&&l(i,e.prototype),i}).apply(null,arguments)}function c(t,n){if(n&&("object"==typeof n||"function"==typeof n))return n;if(void 0!==n)throw new TypeError("Derived constructors may only return object or undefined");return function(t){if(void 0===t)throw new ReferenceError("this hasn't been initialised - super() hasn't been called");return t}(t)}function h(t,n,e){return(h="undefined"!=typeof Reflect&&Reflect.get?Reflect.get:function(t,n,e){var r=function(t,n){for(;!Object.prototype.hasOwnProperty.call(t,n)&&null!==(t=a(t)););return t}(t,n);if(r){var i=Object.getOwnPropertyDescriptor(r,n);return i.get?i.get.call(e):i.value}})(t,n,e||t)}function v(t){return function(t){if(Array.isArray(t))return d(t)}(t)||function(t){if("undefined"!=typeof Symbol&&null!=t[Symbol.iterator]||null!=t["@@iterator"])return Array.from(t)}(t)||function(t,n){if(!t)return;if("string"==typeof t)return d(t,n);var e=Object.prototype.toString.call(t).slice(8,-1);"Object"===e&&t.constructor&&(e=t.constructor.name);if("Map"===e||"Set"===e)return Array.from(t);if("Arguments"===e||/^(?:Ui|I)nt(?:8|16|32)(?:Clamped)?Array$/.test(e))return d(t,n)}(t)||function(){throw new TypeError("Invalid attempt to spread non-iterable instance.\nIn order to be iterable, non-array objects must have a [Symbol.iterator]() method.")}()}function d(t,n){(null==n||n>t.length)&&(n=t.length);for(var e=0,r=new Array(n);e<n;e++)r[e]=t[e];return r}var y=g(Math.pow(10,-6));function g(t){var n=arguments.length>1&&void 0!==arguments[1]?arguments[1]:6;if(Number.isInteger(t))return t;var e=Math.pow(10,n);return Math.round((+t+Number.EPSILON)*e)/e}function p(t,n){var e=arguments.length>2&&void 0!==arguments[2]?arguments[2]:y;return Math.abs(t-n)<e}var m=Math.PI/180;function b(t){return t}function w(t,n,e){var r=1-e;return 3*e*r*(t*r+n*e)+e*e*e}function A(){var t=arguments.length>0&&void 0!==arguments[0]?arguments[0]:0,n=arguments.length>1&&void 0!==arguments[1]?arguments[1]:0,e=arguments.length>2&&void 0!==arguments[2]?arguments[2]:1,r=arguments.length>3&&void 0!==arguments[3]?arguments[3]:1;return t<0||t>1||e<0||e>1?null:p(t,n)&&p(e,r)?b:function(i){if(i<=0)return t>0?i*n/t:0===n&&e>0?i*r/e:0;if(i>=1)return e<1?1+(i-1)*(r-1)/(e-1):1===e&&t<1?1+(i-1)*(n-1)/(t-1):1;for(var u,o=0,a=1;o<a;){var l=w(t,e,u=(o+a)/2);if(p(i,l))break;l<i?o=u:a=u}return w(n,r,u)}}function x(){return 1}function k(t){return 1===t?1:0}function _(){var t=arguments.length>0&&void 0!==arguments[0]?arguments[0]:1,n=arguments.length>1&&void 0!==arguments[1]?arguments[1]:0;if(1===t){if(0===n)return k;if(1===n)return x}var e=1/t;return function(t){return t>=1?1:(t+=n*e)-t%e}}var S=Math.sin,O=Math.cos,M=Math.acos,E=Math.asin,j=Math.tan,P=Math.atan2,I=Math.PI/180,B=180/Math.PI,R=Math.sqrt,T=function(){function t(){var n=arguments.length>0&&void 0!==arguments[0]?arguments[0]:1,e=arguments.length>1&&void 0!==arguments[1]?arguments[1]:0,i=arguments.length>2&&void 0!==arguments[2]?arguments[2]:0,u=arguments.length>3&&void 0!==arguments[3]?arguments[3]:1,o=arguments.length>4&&void 0!==arguments[4]?arguments[4]:0,a=arguments.length>5&&void 0!==arguments[5]?arguments[5]:0;r(this,t),this.m=[n,e,i,u,o,a],this.i=null,this.w=null,this.s=null}return u(t,[{key:"determinant",get:function(){var t=this.m;return t[0]*t[3]-t[1]*t[2]}},{key:"isIdentity",get:function(){if(null===this.i){var t=this.m;this.i=1===t[0]&&0===t[1]&&0===t[2]&&1===t[3]&&0===t[4]&&0===t[5]}return this.i}},{key:"point",value:function(t,n){var e=this.m;return{x:e[0]*t+e[2]*n+e[4],y:e[1]*t+e[3]*n+e[5]}}},{key:"translateSelf",value:function(){var t=arguments.length>0&&void 0!==arguments[0]?arguments[0]:0,n=arguments.length>1&&void 0!==arguments[1]?arguments[1]:0;if(!t&&!n)return this;var e=this.m;return e[4]+=e[0]*t+e[2]*n,e[5]+=e[1]*t+e[3]*n,this.w=this.s=this.i=null,this}},{key:"rotateSelf",value:function(){var t=arguments.length>0&&void 0!==arguments[0]?arguments[0]:0;if(t%=360){var n=S(t*=I),e=O(t),r=this.m,i=r[0],u=r[1];r[0]=i*e+r[2]*n,r[1]=u*e+r[3]*n,r[2]=r[2]*e-i*n,r[3]=r[3]*e-u*n,this.w=this.s=this.i=null}return this}},{key:"scaleSelf",value:function(){var t=arguments.length>0&&void 0!==arguments[0]?arguments[0]:1,n=arguments.length>1&&void 0!==arguments[1]?arguments[1]:1;if(1!==t||1!==n){var e=this.m;e[0]*=t,e[1]*=t,e[2]*=n,e[3]*=n,this.w=this.s=this.i=null}return this}},{key:"skewSelf",value:function(t,n){if(n%=360,(t%=360)||n){var e=this.m,r=e[0],i=e[1],u=e[2],o=e[3];t&&(t=j(t*I),e[2]+=r*t,e[3]+=i*t),n&&(n=j(n*I),e[0]+=u*n,e[1]+=o*n),this.w=this.s=this.i=null}return this}},{key:"resetSelf",value:function(){var t=arguments.length>0&&void 0!==arguments[0]?arguments[0]:1,n=arguments.length>1&&void 0!==arguments[1]?arguments[1]:0,e=arguments.length>2&&void 0!==arguments[2]?arguments[2]:0,r=arguments.length>3&&void 0!==arguments[3]?arguments[3]:1,i=arguments.length>4&&void 0!==arguments[4]?arguments[4]:0,u=arguments.length>5&&void 0!==arguments[5]?arguments[5]:0,o=this.m;return o[0]=t,o[1]=n,o[2]=e,o[3]=r,o[4]=i,o[5]=u,this.w=this.s=this.i=null,this}},{key:"recomposeSelf",value:function(){var t=arguments.length>0&&void 0!==arguments[0]?arguments[0]:null,n=arguments.length>1&&void 0!==arguments[1]?arguments[1]:null,e=arguments.length>2&&void 0!==arguments[2]?arguments[2]:null,r=arguments.length>3&&void 0!==arguments[3]?arguments[3]:null,i=arguments.length>4&&void 0!==arguments[4]?arguments[4]:null;return this.isIdentity||this.resetSelf(),t&&(t.x||t.y)&&this.translateSelf(t.x,t.y),n&&this.rotateSelf(n),e&&(e.x&&this.skewSelf(e.x,0),e.y&&this.skewSelf(0,e.y)),!r||1===r.x&&1===r.y||this.scaleSelf(r.x,r.y),i&&(i.x||i.y)&&this.translateSelf(i.x,i.y),this}},{key:"decompose",value:function(){var t=arguments.length>0&&void 0!==arguments[0]?arguments[0]:0,n=arguments.length>1&&void 0!==arguments[1]?arguments[1]:0,e=this.m,r=e[0]*e[0]+e[1]*e[1],i=[[e[0],e[1]],[e[2],e[3]]],u=R(r);if(0===u)return{origin:{x:g(e[4]),y:g(e[5])},translate:{x:g(t),y:g(n)},scale:{x:0,y:0},skew:{x:0,y:0},rotate:0};i[0][0]/=u,i[0][1]/=u;var o=e[0]*e[3]-e[1]*e[2]<0;o&&(u=-u);var a=i[0][0]*i[1][0]+i[0][1]*i[1][1];i[1][0]-=i[0][0]*a,i[1][1]-=i[0][1]*a;var l=R(i[1][0]*i[1][0]+i[1][1]*i[1][1]);if(0===l)return{origin:{x:g(e[4]),y:g(e[5])},translate:{x:g(t),y:g(n)},scale:{x:g(u),y:0},skew:{x:0,y:0},rotate:0};i[1][0]/=l,i[1][1]/=l,a/=l;var s=0;return i[1][1]<0?(s=M(i[1][1])*B,i[0][1]<0&&(s=360-s)):s=E(i[0][1])*B,o&&(s=-s),a=P(a,R(i[0][0]*i[0][0]+i[0][1]*i[0][1]))*B,o&&(a=-a),{origin:{x:g(e[4]),y:g(e[5])},translate:{x:g(t),y:g(n)},scale:{x:g(u),y:g(l)},skew:{x:g(a),y:0},rotate:g(s)}}},{key:"clone",value:function(){var t=this.m;return new this.constructor(t[0],t[1],t[2],t[3],t[4],t[5])}},{key:"toString",value:function(){var t=arguments.length>0&&void 0!==arguments[0]?arguments[0]:" ";return null===this.s&&(this.s="matrix("+this.m.map((function(t){return g(t)})).join(t)+")"),this.s}}],[{key:"create",value:function(t){return t?Array.isArray(t)?f(this,v(t)):t instanceof this?t.clone():(new this).recomposeSelf(t.origin,t.rotate,t.skew,t.scale,t.translate):new this}}]),t}();function N(t,n,e){return t>=.5?e:n}function C(t,n,e){return 0===t||n===e?n:t*(e-n)+n}function F(t,n,e){var r=C(t,n,e);return r<=0?0:r}function L(t,n,e){var r=C(t,n,e);return r<=0?0:r>=1?1:r}function q(t,n,e){return 0===t?n:1===t?e:{x:C(t,n.x,e.x),y:C(t,n.y,e.y)}}function V(t,n,e){return 0===t?n:1===t?e:{x:F(t,n.x,e.x),y:F(t,n.y,e.y)}}function D(t,n,e){var r=function(t,n,e){return Math.round(C(t,n,e))}(t,n,e);return r<=0?0:r>=255?255:r}function z(t,n,e){return 0===t?n:1===t?e:{r:D(t,n.r,e.r),g:D(t,n.g,e.g),b:D(t,n.b,e.b),a:C(t,null==n.a?1:n.a,null==e.a?1:e.a)}}function Y(t,n,e){var r=n.length;if(r!==e.length)return N(t,n,e);for(var i=new Array(r),u=0;u<r;u++)i[u]=C(t,n[u],e[u]);return i}function G(t,n){for(var e=[],r=0;r<t;r++)e.push(n);return e}function U(t,n){if(--n<=0)return t;var e=(t=Object.assign([],t)).length;do{for(var r=0;r<e;r++)t.push(t[r])}while(--n>0);return t}var $,W=function(){function t(n){r(this,t),this.list=n,this.length=n.length}return u(t,[{key:"setAttribute",value:function(t,n){for(var e=this.list,r=0;r<this.length;r++)e[r].setAttribute(t,n)}},{key:"removeAttribute",value:function(t){for(var n=this.list,e=0;e<this.length;e++)n[e].removeAttribute(t)}},{key:"style",value:function(t,n){for(var e=this.list,r=0;r<this.length;r++)e[r].style[t]=n}}]),t}(),H=/-./g,Q=function(t,n){return n.toUpperCase()};function X(t){return"function"==typeof t?t:N}function J(t){return t?"function"==typeof t?t:Array.isArray(t)?function(t){var n=arguments.length>1&&void 0!==arguments[1]?arguments[1]:b;if(!Array.isArray(t))return n;switch(t.length){case 1:return _(t[0])||n;case 2:return _(t[0],t[1])||n;case 4:return A(t[0],t[1],t[2],t[3])||n}return n}(t,null):function(t,n){var e=arguments.length>2&&void 0!==arguments[2]?arguments[2]:b;switch(t){case"linear":return b;case"steps":return _(n.steps||1,n.jump||0)||e;case"bezier":case"cubic-bezier":return A(n.x1||0,n.y1||0,n.x2||0,n.y2||0)||e}return e}(t.type,t.value,null):null}function Z(t,n,e){var r=arguments.length>3&&void 0!==arguments[3]&&arguments[3],i=n.length-1;if(t<=n[0].t)return r?[0,0,n[0].v]:n[0].v;if(t>=n[i].t)return r?[i,1,n[i].v]:n[i].v;var u,o=n[0],a=null;for(u=1;u<=i;u++){if(!(t>n[u].t)){a=n[u];break}o=n[u]}return null==a?r?[i,1,n[i].v]:n[i].v:o.t===a.t?r?[u,1,a.v]:a.v:(t=(t-o.t)/(a.t-o.t),o.e&&(t=o.e(t)),r?[u,t,e(t,o.v,a.v)]:e(t,o.v,a.v))}function K(t,n){var e=arguments.length>2&&void 0!==arguments[2]?arguments[2]:null;return t&&t.length?"function"!=typeof n?null:("function"!=typeof e&&(e=null),function(r){var i=Z(r,t,n);return null!=i&&e&&(i=e(i)),i}):null}function tt(t,n){return t.t-n.t}function nt(t,n,r,i,u){var o,a="@"===r[0],l="#"===r[0],s=$[r],f=N;switch(a?(o=r.substr(1),r=o.replace(H,Q)):l&&(r=r.substr(1)),e(s)){case"function":if(f=s(i,u,Z,J,r,a,n,t),l)return f;break;case"string":f=K(i,X(s));break;case"object":if((f=K(i,X(s.i),s.f))&&"function"==typeof s.u)return s.u(n,f,r,a,t)}return f?function(t,n,e){if(arguments.length>3&&void 0!==arguments[3]&&arguments[3])return t instanceof W?function(r){return t.style(n,e(r))}:function(r){return t.style[n]=e(r)};if(Array.isArray(n)){var r=n.length;return function(i){var u=e(i);if(null==u)for(var o=0;o<r;o++)t[o].removeAttribute(n);else for(var a=0;a<r;a++)t[a].setAttribute(n,u)}}return function(r){var i=e(r);null==i?t.removeAttribute(n):t.setAttribute(n,i)}}(n,r,f,a):null}function et(t,n,r,i){if(!i||"object"!==e(i))return null;var u=null,o=null;return Array.isArray(i)?o=function(t){if(!t||!t.length)return null;for(var n=0;n<t.length;n++)t[n].e&&(t[n].e=J(t[n].e));return t.sort(tt)}(i):(o=i.keys,u=i.data||null),o?nt(t,n,r,o,u):null}function rt(t,n,e){if(!e)return null;var r=[];for(var i in e)if(e.hasOwnProperty(i)){var u=et(t,n,i,e[i]);u&&r.push(u)}return r.length?r:null}function it(t,n){if(!n.duration||n.duration<0)return null;var e=function(t,n){if(!n)return null;var e=[];if(Array.isArray(n))for(var r=n.length,i=0;i<r;i++){var u=n[i];if(2===u.length){var o=null;if("string"==typeof u[0])o=t.getElementById(u[0]);else if(Array.isArray(u[0])){o=[];for(var a=0;a<u[0].length;a++)if("string"==typeof u[0][a]){var l=t.getElementById(u[0][a]);l&&o.push(l)}o=o.length?1===o.length?o[0]:new W(o):null}if(o){var s=rt(t,o,u[1]);s&&(e=e.concat(s))}}}else for(var f in n)if(n.hasOwnProperty(f)){var c=t.getElementById(f);if(c){var h=rt(t,c,n[f]);h&&(e=e.concat(h))}}return e.length?e:null}(t,n.elements);return e?function(t,n){var e=arguments.length>2&&void 0!==arguments[2]?arguments[2]:1/0,r=arguments.length>3&&void 0!==arguments[3]?arguments[3]:1,i=arguments.length>4&&void 0!==arguments[4]&&arguments[4],u=arguments.length>5&&void 0!==arguments[5]?arguments[5]:1,o=t.length,a=r>0?n:0;i&&e%2==0&&(a=n-a);var l=null;return function(s,f){var c=s%n,h=1+(s-c)/n;f*=r,i&&h%2==0&&(f=-f);var v=!1;if(h>e)c=a,v=!0,-1===u&&(c=r>0?0:n);else if(f<0&&(c=n-c),c===l)return!1;l=c;for(var d=0;d<o;d++)t[d](c);return v}}(e,n.duration,n.iterations||1/0,n.direction||1,!!n.alternate,n.fill||1):null}function ut(t){return+("0x"+(t.replace(/[^0-9a-fA-F]+/g,"")||27))}function ot(t,n,e){return!t||!e||n>t.length?t:t.substring(0,n)+ot(t.substring(n+1),e,e)}function at(t){var n=arguments.length>1&&void 0!==arguments[1]?arguments[1]:27;return!t||t%n?t%n:at(t/n,n)}function lt(t,n,e){if(t&&t.length){var r=ut(e),i=ut(n),u=at(r)+5,o=ot(t,at(r,5),u);return o=o.replace(/\x7c$/g,"==").replace(/\x2f$/g,"="),o=function(t,n,e){var r=+("0x"+t.substring(0,4));t=t.substring(4);for(var i=n%r+e%27,u=[],o=0;o<t.length;o+=2)if("|"!==t[o]){var a=+("0x"+t[o]+t[o+1])-i;u.push(a)}else{var l=+("0x"+t.substring(o+1,o+1+4))-i;o+=3,u.push(l)}return String.fromCharCode.apply(String,u)}(o=(o=atob(o)).replace(/[\x41-\x5A]/g,""),i,r),o=JSON.parse(o)}}Number.isInteger||(Number.isInteger=function(t){return"number"==typeof t&&isFinite(t)&&Math.floor(t)===t}),Number.EPSILON||(Number.EPSILON=2220446049250313e-31);var st=function(){function t(n,e){var i=arguments.length>2&&void 0!==arguments[2]?arguments[2]:{};r(this,t),this._id=0,this._running=!1,this._rollingBack=!1,this._animations=n,this.duration=e.duration,this.alternate=e.alternate,this.fill=e.fill,this.iterations=e.iterations,this.direction=i.direction||1,this.speed=i.speed||1,this.fps=i.fps||100,this.offset=i.offset||0,this.rollbackStartOffset=0}return u(t,[{key:"_rollback",value:function(){var t=this,n=1/0,e=null;this.rollbackStartOffset=this.offset,this._rollingBack||(this._rollingBack=!0,this._running=!0);this._id=window.requestAnimationFrame((function r(i){if(t._rollingBack){null==e&&(e=i);var u=i-e,o=t.rollbackStartOffset-u,a=Math.round(o*t.speed);if(a>t.duration&&n!=1/0){var l=!!t.alternate&&a/t.duration%2>1,s=a%t.duration;a=(s+=l?t.duration:0)||t.duration}var f=t.fps?1e3/t.fps:0,c=Math.max(0,a);if(c<n-f){t.offset=c,n=c;for(var h=t._animations,v=h.length,d=0;d<v;d++)h[d](c,t.direction)}var y=!1;if(t.iterations>0&&-1===t.fill){var g=t.iterations*t.duration,p=g==a;a=p?0:a,t.offset=p?0:t.offset,y=a>g}a>0&&t.offset>=a&&!y?t._id=window.requestAnimationFrame(r):t.stop()}}))}},{key:"_start",value:function(){var t=this,n=arguments.length>0&&void 0!==arguments[0]?arguments[0]:0,e=-1/0,r=null,i={},u=function u(o){t._running=!0,null==r&&(r=o);var a=Math.round((o-r+n)*t.speed),l=t.fps?1e3/t.fps:0;if(a>e+l&&!t._rollingBack){t.offset=a,e=a;for(var s=t._animations,f=s.length,c=0,h=0;h<f;h++)i[h]?c++:(i[h]=s[h](a,t.direction),i[h]&&c++);if(c===f)return void t._stop()}t._id=window.requestAnimationFrame(u)};this._id=window.requestAnimationFrame(u)}},{key:"_stop",value:function(){this._id&&window.cancelAnimationFrame(this._id),this._running=!1,this._rollingBack=!1}},{key:"play",value:function(){!this._rollingBack&&this._running||(this._rollingBack=!1,this.rollbackStartOffset>this.duration&&(this.offset=this.rollbackStartOffset-(this.rollbackStartOffset-this.offset)%this.duration,this.rollbackStartOffset=0),this._start(this.offset))}},{key:"stop",value:function(){this._stop(),this.offset=0,this.rollbackStartOffset=0;var t=this.direction,n=this._animations;window.requestAnimationFrame((function(){for(var e=0;e<n.length;e++)n[e](0,t)}))}},{key:"reachedToEnd",value:function(){return this.iterations>0&&this.offset>=this.iterations*this.duration}},{key:"restart",value:function(){this._stop(),this.offset=0,this._start()}},{key:"pause",value:function(){this._stop()}},{key:"reverse",value:function(){this.direction=-this.direction}}],[{key:"build",value:function(e,r){return delete e.animationSettings,e.options=lt(e.options,e.root,"91c80d77"),e.animations.map((function(t){var r=lt(t.s,e.root,"91c80d77");for(var i in delete t.s,e.animationSettings||(e.animationSettings=n({},r)),r)r.hasOwnProperty(i)&&(t[i]=r[i])})),(e=function(t,n){if($=n,!t||!t.root||!Array.isArray(t.animations))return null;for(var e=document.getElementsByTagName("svg"),r=!1,i=0;i<e.length;i++)if(e[i].id===t.root&&!e[i].svgatorAnimation){(r=e[i]).svgatorAnimation=!0;break}if(!r)return null;var u=t.animations.map((function(t){return it(r,t)})).filter((function(t){return!!t}));return u.length?{element:r,animations:u,animationSettings:t.animationSettings,options:t.options||void 0}:null}(e,r))?{el:e.element,options:e.options||{},player:new t(e.animations,e.animationSettings,e.options)}:null}},{key:"push",value:function(t){return this.build(t)}},{key:"init",value:function(){var t=this,n=window.__SVGATOR_PLAYER__&&window.__SVGATOR_PLAYER__["91c80d77"];Array.isArray(n)&&n.splice(0).forEach((function(n){return t.build(n)}))}}]),t}();!function(){for(var t=0,n=["ms","moz","webkit","o"],e=0;e<n.length&&!window.requestAnimationFrame;++e)window.requestAnimationFrame=window[n[e]+"RequestAnimationFrame"],window.cancelAnimationFrame=window[n[e]+"CancelAnimationFrame"]||window[n[e]+"CancelRequestAnimationFrame"];window.requestAnimationFrame||(window.requestAnimationFrame=function(n){var e=Date.now(),r=Math.max(0,16-(e-t)),i=window.setTimeout((function(){n(e+r)}),r);return t=e+r,i},window.cancelAnimationFrame=window.clearTimeout)}();var ft=function(t,n){var e=!1,r=null;return function(i){e&&clearTimeout(e),e=setTimeout((function(){return function(){for(var i=0,u=window.innerHeight,o=0,a=window.innerWidth,l=t.parentNode;l instanceof Element;){var s=window.getComputedStyle(l);if("visible"!==s.overflowY||"visible"!==s.overflowX){var f=l.getBoundingClientRect();"visible"!==s.overflowY&&(i=Math.max(i,f.top),u=Math.min(u,f.bottom)),"visible"!==s.overflowX&&(o=Math.max(o,f.left),a=Math.min(a,f.right))}if(l===l.parentNode)break;l=l.parentNode}e=!1;var c=t.getBoundingClientRect(),h=Math.min(c.height,Math.max(0,i-c.top)),v=Math.min(c.height,Math.max(0,c.bottom-u)),d=Math.min(c.width,Math.max(0,o-c.left)),y=Math.min(c.width,Math.max(0,c.right-a)),g=(c.height-h-v)/c.height,p=(c.width-d-y)/c.width,m=Math.round(g*p*100);null!==r&&r===m||(r=m,n(m))}()}),100)}},ct=function(){function t(n,e,i){r(this,t),e=Math.max(1,e||1),e=Math.min(e,100),this.el=n,this.onTresholdChange=i&&i.call?i:function(){},this.tresholdPercent=e||1,this.currentVisibility=null,this.visibilityCalculator=ft(n,this.onVisibilityUpdate.bind(this)),this.bindScrollWatchers(),this.visibilityCalculator()}return u(t,[{key:"bindScrollWatchers",value:function(){for(var t=this.el.parentNode;t&&(t.addEventListener("scroll",this.visibilityCalculator),t!==t.parentNode&&t!==document);)t=t.parentNode}},{key:"onVisibilityUpdate",value:function(t){var n=this.currentVisibility>=this.tresholdPercent,e=t>=this.tresholdPercent;if(null===this.currentVisibility||n!==e)return this.currentVisibility=t,void this.onTresholdChange(e);this.currentVisibility=t}}]),t}();function ht(t){return g(t)+""}function vt(t){var n=arguments.length>1&&void 0!==arguments[1]?arguments[1]:" ";return t&&t.length?t.map(ht).join(n):""}function dt(t){return ht(t.x)+","+ht(t.y)}function yt(t){return t?null==t.a||t.a>=1?"rgb("+t.r+","+t.g+","+t.b+")":"rgba("+t.r+","+t.g+","+t.b+","+t.a+")":"transparent"}function gt(t){return t?"url(#"+t+")":"none"}var pt={f:null,i:V,u:function(t,n){return function(e){var r=n(e);t.setAttribute("rx",ht(r.x)),t.setAttribute("ry",ht(r.y))}}},mt={f:null,i:function(t,n,e){return 0===t?n:1===t?e:{width:F(t,n.width,e.width),height:F(t,n.height,e.height)}},u:function(t,n){return function(e){var r=n(e);t.setAttribute("width",ht(r.width)),t.setAttribute("height",ht(r.height))}}};Object.freeze({M:2,L:2,Z:0,H:1,V:1,C:6,Q:4,T:2,S:4,A:7});var bt={},wt=null;function At(t){var n=function(){if(wt)return wt;if("object"!==("undefined"==typeof document?"undefined":e(document))||!document.createElementNS)return{};var t=document.createElementNS("http://www.w3.org/2000/svg","svg");return t&&t.style?(t.style.position="absolute",t.style.opacity="0.01",t.style.zIndex="-9999",t.style.left="-9999px",t.style.width="1px",t.style.height="1px",wt={svg:t}):{}}().svg;if(!n)return function(t){return null};var r=document.createElementNS(n.namespaceURI,"path");r.setAttributeNS(null,"d",t),r.setAttributeNS(null,"fill","none"),r.setAttributeNS(null,"stroke","none"),n.appendChild(r);var i=r.getTotalLength();return function(t){var n=r.getPointAtLength(i*t);return{x:n.x,y:n.y}}}function xt(t){return bt[t]?bt[t]:bt[t]=At(t)}function kt(t,n,e,r){if(!t||!r)return!1;var i=["M",t.x,t.y];if(n&&e&&(i.push("C"),i.push(n.x),i.push(n.y),i.push(e.x),i.push(e.y)),n?!e:e){var u=n||e;i.push("Q"),i.push(u.x),i.push(u.y)}return n||e||i.push("L"),i.push(r.x),i.push(r.y),i.join(" ")}function _t(t,n,e,r){var i=arguments.length>4&&void 0!==arguments[4]?arguments[4]:1,u=kt(t,n,e,r),o=xt(u);try{return o(i)}catch(t){return null}}function St(t,n,e,r){var i=1-r;return i*i*t+2*i*r*n+r*r*e}function Ot(t,n,e,r){return 2*(1-r)*(n-t)+2*r*(e-n)}function Mt(t,n,e,r){var i=arguments.length>4&&void 0!==arguments[4]&&arguments[4],u=_t(t,n,null,e,r);return u||(u={x:St(t.x,n.x,e.x,r),y:St(t.y,n.y,e.y,r)}),i&&(u.a=Et(t,n,e,r)),u}function Et(t,n,e,r){return Math.atan2(Ot(t.y,n.y,e.y,r),Ot(t.x,n.x,e.x,r))}function jt(t,n,e,r,i){var u=i*i;return i*u*(r-t+3*(n-e))+3*u*(t+e-2*n)+3*i*(n-t)+t}function Pt(t,n,e,r,i){var u=1-i;return 3*(u*u*(n-t)+2*u*i*(e-n)+i*i*(r-e))}function It(t,n,e,r,i){var u=arguments.length>5&&void 0!==arguments[5]&&arguments[5],o=_t(t,n,e,r,i);return o||(o={x:jt(t.x,n.x,e.x,r.x,i),y:jt(t.y,n.y,e.y,r.y,i)}),u&&(o.a=Bt(t,n,e,r,i)),o}function Bt(t,n,e,r,i){return Math.atan2(Pt(t.y,n.y,e.y,r.y,i),Pt(t.x,n.x,e.x,r.x,i))}function Rt(t,n,e){return t+(n-t)*e}function Tt(t,n,e){var r=arguments.length>3&&void 0!==arguments[3]&&arguments[3],i={x:Rt(t.x,n.x,e),y:Rt(t.y,n.y,e)};return r&&(i.a=Nt(t,n)),i}function Nt(t,n){return Math.atan2(n.y-t.y,n.x-t.x)}function Ct(t,n,e){var r=arguments.length>3&&void 0!==arguments[3]&&arguments[3];if(Lt(n)){if(qt(e))return Mt(n,e.start,e,t,r)}else if(Lt(e)){if(n.end)return Mt(n,n.end,e,t,r)}else{if(n.end)return e.start?It(n,n.end,e.start,e,t,r):Mt(n,n.end,e,t,r);if(e.start)return Mt(n,e.start,e,t,r)}return Tt(n,e,t,r)}function Ft(t,n,e){var r=Ct(t,n,e,!0);return r.a=function(t){return arguments.length>1&&void 0!==arguments[1]&&arguments[1]?t+Math.PI:t}(r.a)/m,r}function Lt(t){return!t.type||"corner"===t.type}function qt(t){return null!=t.start&&!Lt(t)}var Vt=new T;var Dt={f:function(t){return t?t.join(" "):""},i:function(t,n,r){if(0===t)return n;if(1===t)return r;var i=n.length;if(i!==r.length)return N(t,n,r);for(var u,o=new Array(i),a=0;a<i;a++){if((u=e(n[a]))!==e(r[a]))return N(t,n,r);if("number"===u)o[a]=C(t,n[a],r[a]);else{if(n[a]!==r[a])return N(t,n,r);o[a]=n[a]}}return o}},zt={f:null,i:Y,u:function(t,n){return function(e){var r=n(e);t.setAttribute("x1",ht(r[0])),t.setAttribute("y1",ht(r[1])),t.setAttribute("x2",ht(r[2])),t.setAttribute("y2",ht(r[3]))}}},Yt={f:ht,i:C},Gt={f:ht,i:L},Ut={f:function(t){var n=arguments.length>1&&void 0!==arguments[1]?arguments[1]:" ";return t&&t.length>0&&(t=t.map((function(t){return g(t,4)}))),vt(t,n)},i:function(t,n,e){var r,i,u,o=n.length,a=e.length;if(o!==a)if(0===o)n=G(o=a,0);else if(0===a)a=o,e=G(o,0);else{var l=(u=(r=o)*(i=a)/function(t,n){for(var e;n;)e=n,n=t%n,t=e;return t||1}(r,i))<0?-u:u;n=U(n,Math.floor(l/o)),e=U(e,Math.floor(l/a)),o=a=l}for(var s=[],f=0;f<o;f++)s.push(g(F(t,n[f],e[f])));return s}};function $t(t,n,e){return t.map((function(t){return function(t,n,e){var r=t.v;if(!r||"g"!==r.t||r.s||!r.v||!r.r)return t;var i=e.getElementById(r.r),u=i&&i.querySelectorAll("stop")||[];return r.s=r.v.map((function(t,n){var e=u[n]&&u[n].getAttribute("offset");return{c:t,o:e=g(parseInt(e)/100)}})),delete r.v,t}(t,0,e)}))}var Wt={gt:"gradientTransform",c:{x:"cx",y:"cy"},rd:"r",f:{x:"x1",y:"y1"},to:{x:"x2",y:"y2"}};function Ht(t,n,r,i,u,o,a,l){return $t(t,0,l),n=function(t,n,e){for(var r,i,u,o=t.length-1,a={},l=0;l<=o;l++)(r=t[l]).e&&(r.e=n(r.e)),r.v&&"g"===(i=r.v).t&&i.r&&(u=e.getElementById(i.r))&&(a[i.r]={e:u,s:u.querySelectorAll("stop")});return a}(t,i,l),function(i){var u=r(i,t,Qt);if(!u)return"none";if("c"===u.t)return yt(u.v);if("g"===u.t){if(!n[u.r])return gt(u.r);var o=n[u.r];return function(t,n){for(var e=t.s,r=e.length;r<n.length;r++){var i=e[e.length-1].cloneNode();i.id=Zt(i.id),t.e.appendChild(i),e=t.s=t.e.querySelectorAll("stop")}for(var u=0,o=e.length,a=n.length-1;u<o;u++)e[u].setAttribute("stop-color",yt(n[Math.min(u,a)].c)),e[u].setAttribute("offset",n[Math.min(u,a)].o)}(o,u.s),Object.keys(Wt).forEach((function(t){if(void 0!==u[t])if("object"!==e(Wt[t])){var n,r="gt"===t?(n=u[t],Array.isArray(n)?"matrix("+n.join(" ")+")":""):u[t],i=Wt[t];o.e.setAttribute(i,r)}else Object.keys(Wt[t]).forEach((function(n){if(void 0!==u[t][n]){var e=u[t][n],r=Wt[t][n];o.e.setAttribute(r,e)}}))})),gt(u.r)}return"none"}}function Qt(t,e,r){if(0===t)return e;if(1===t)return r;if(e&&r){var i=e.t;if(i===r.t)switch(e.t){case"c":return{t:i,v:z(t,e.v,r.v)};case"g":if(e.r===r.r){var u={t:i,s:Xt(t,e.s,r.s),r:e.r};return e.gt&&r.gt&&(u.gt=Y(t,e.gt,r.gt)),e.c?(u.c=q(t,e.c,r.c),u.rd=F(t,e.rd,r.rd)):e.f&&(u.f=q(t,e.f,r.f),u.to=q(t,e.to,r.to)),u}}if("c"===e.t&&"g"===r.t||"c"===r.t&&"g"===e.t){var o="c"===e.t?e:r,a="g"===e.t?n({},e):n({},r),l=a.s.map((function(t){return{c:o.v,o:t.o}}));return a.s="c"===e.t?Xt(t,l,a.s):Xt(t,a.s,l),a}}return N(t,e,r)}function Xt(t,n,e){if(n.length===e.length)return n.map((function(n,r){return Jt(t,n,e[r])}));for(var r=Math.max(n.length,e.length),i=[],u=0;u<r;u++){var o=Jt(t,n[Math.min(u,n.length-1)],e[Math.min(u,e.length-1)]);i.push(o)}return i}function Jt(t,n,e){return{o:L(t,n.o,e.o||0),c:z(t,n.c,e.c||{})}}function Zt(t){return t.replace(/-fill-([0-9]+)$/,(function(t,n){return"-fill-"+(+n+1)}))}var Kt={blur:V,brightness:F,contrast:F,"drop-shadow":function(t,n,e){return 0===t?n:1===t?e:{blur:V(t,n.blur,e.blur),offset:q(t,n.offset,e.offset),color:z(t,n.color,e.color)}},grayscale:F,"hue-rotate":C,invert:F,opacity:F,saturate:F,sepia:F};function tn(t,n,e){if(0===t)return n;if(1===t)return e;var r=n.length;if(r!==e.length)return N(t,n,e);for(var i,u=[],o=0;o<r;o++){if(n[o].type!==e[o].type)return n;if(!(i=Kt[n[o].type]))return N(t,n,e);u.push({type:n.type,value:i(t,n[o].value,e[o].value)})}return u}var nn={blur:function(t){return t?function(n){t.setAttribute("stdDeviation",dt(n))}:null},brightness:function(t,n,e){return(t=rn(e,n))?function(n){n=ht(n),t.map((function(t){return t.setAttribute("slope",n)}))}:null},contrast:function(t,n,e){return(t=rn(e,n))?function(n){var e=ht((1-n)/2);n=ht(n),t.map((function(t){t.setAttribute("slope",n),t.setAttribute("intercept",e)}))}:null},"drop-shadow":function(t,n,e){var r=e.getElementById(n+"-blur");if(!r)return null;var i=e.getElementById(n+"-offset");if(!i)return null;var u=e.getElementById(n+"-flood");return u?function(t){r.setAttribute("stdDeviation",dt(t.blur)),i.setAttribute("dx",ht(t.offset.x)),i.setAttribute("dy",ht(t.offset.y)),u.setAttribute("flood-color",yt(t.color))}:null},grayscale:function(t){return t?function(n){t.setAttribute("values",vt(function(t){return[.2126+.7874*(t=1-t),.7152-.7152*t,.0722-.0722*t,0,0,.2126-.2126*t,.7152+.2848*t,.0722-.0722*t,0,0,.2126-.2126*t,.7152-.7152*t,.0722+.9278*t,0,0,0,0,0,1,0]}(n)))}:null},"hue-rotate":function(t){return t?function(n){return t.setAttribute("values",ht(n))}:null},invert:function(t,n,e){return(t=rn(e,n))?function(n){n=ht(n)+" "+ht(1-n),t.map((function(t){return t.setAttribute("tableValues",n)}))}:null},opacity:function(t,n,e){return(t=e.getElementById(n+"-A"))?function(n){return t.setAttribute("tableValues","0 "+ht(n))}:null},saturate:function(t){return t?function(n){return t.setAttribute("values",ht(n))}:null},sepia:function(t){return t?function(n){return t.setAttribute("values",vt(function(t){return[.393+.607*(t=1-t),.769-.769*t,.189-.189*t,0,0,.349-.349*t,.686+.314*t,.168-.168*t,0,0,.272-.272*t,.534-.534*t,.131+.869*t,0,0,0,0,0,1,0]}(n)))}:null}};var en=["R","G","B"];function rn(t,n){var e=en.map((function(e){return t.getElementById(n+"-"+e)||null}));return-1!==e.indexOf(null)?null:e}var un={fill:Ht,"fill-opacity":Gt,stroke:Ht,"stroke-opacity":Gt,"stroke-width":Yt,"stroke-dashoffset":{f:ht,i:C},"stroke-dasharray":Ut,opacity:Gt,transform:function(t,n,r,i){if(!(t=function(t,n){if(!t||"object"!==e(t))return null;var r=!1;for(var i in t)t.hasOwnProperty(i)&&(t[i]&&t[i].length?(t[i].forEach((function(t){t.e&&(t.e=n(t.e))})),r=!0):delete t[i]);return r?t:null}(t,i)))return null;var u=function(e,i,u){var o=arguments.length>3&&void 0!==arguments[3]?arguments[3]:null;return t[e]?r(i,t[e],u):n&&n[e]?n[e]:o};return n&&n.a&&t.o?function(n){var e=r(n,t.o,Ft);return Vt.recomposeSelf(e,u("r",n,C,0)+e.a,u("k",n,q),u("s",n,q),u("t",n,q)).toString()}:function(t){return Vt.recomposeSelf(u("o",t,Ct,null),u("r",t,C,0),u("k",t,q),u("s",t,q),u("t",t,q)).toString()}},"#filter":function(t,n,e,r,i,u,o,a){if(!n.items||!t||!t.length)return null;var l=function(t,n){var e=(t=t.map((function(t){return t&&nn[t[0]]?(n.getElementById(t[1]),nn[t[0]](n.getElementById(t[1]),t[1],n)):null}))).length;return function(n){for(var r=0;r<e;r++)t[r]&&t[r](n[r].value)}}(n.items,a);return l?(t=function(t,n){return t.map((function(t){return t.e=n(t.e),t}))}(t,r),function(n){l(e(n,t,tn))}):null},"#line":zt,points:{f:vt,i:Y},d:Dt,r:Yt,"#size":mt,"#radius":pt,_:function(t,n){if(Array.isArray(t))for(var e=0;e<t.length;e++)this[t[e]]=n;else this[t]=n}},on=function(t){!function(t,n){if("function"!=typeof n&&null!==n)throw new TypeError("Super expression must either be null or a function");t.prototype=Object.create(n&&n.prototype,{constructor:{value:t,writable:!0,configurable:!0}}),n&&l(t,n)}(o,t);var n,e,i=(n=o,e=s(),function(){var t,r=a(n);if(e){var i=a(this).constructor;t=Reflect.construct(r,arguments,i)}else t=r.apply(this,arguments);return c(this,t)});function o(){return r(this,o),i.apply(this,arguments)}return u(o,null,[{key:"build",value:function(t){var n=h(a(o),"build",this).call(this,t,un);if(!n)return null;var e=n.el,r=n.options,i=n.player;return function(t,n,e){if("click"===e.start){var r=function(){switch(e.click){case"freeze":return!t._running&&t.reachedToEnd()&&(t.offset=0),t._running?t.pause():t.play();case"restart":return t.offset>0?t.restart():t.play();case"reverse":var n=!t._rollingBack&&t._running,r=t.reachedToEnd();return n||r&&1===t.fill?(t.pause(),r&&(t.offset=t.duration-1),t._rollback()):r?t.restart():t.play();case"none":default:return!t._running&&t.offset?t.restart():t.play()}};return void n.addEventListener("click",r)}if("hover"===e.start)return n.addEventListener("mouseenter",(function(){return t.reachedToEnd()?t.restart():t.play()})),void n.addEventListener("mouseleave",(function(){switch(e.hover){case"freeze":return t.pause();case"reset":return t.stop();case"reverse":return t.pause(),t._rollback();case"none":default:return}}));if("scroll"===e.start)return void new ct(n,e.scroll||25,(function(n){n?t.reachedToEnd()?t.restart():t.play():t.pause()}));t.play()}(i,e,r),i}}]),o}(st);return on.init(),on}));
(function(s,i,o,w){w[o]=w[o]||{};w[o][s]=w[o][s]||[];w[o][s].push(i);})('91c80d77',{"root":"eyoKtplUHVk1","animations":[{"elements":{"eyoKtplUHVk2":{"transform":{"keys":{"o":[{"t":0,"v":{"x":-7264,"y":-16694,"type":"corner"},"e":[0.42,0,0.58,1]},{"t":1200,"v":{"x":-7264,"y":-16704,"type":"corner"},"e":[0.42,0,0.58,1]},{"t":2200,"v":{"x":-7264,"y":-16693,"type":"corner"},"e":[0.42,0,0.58,1]},{"t":2700,"v":{"x":-7264,"y":-16696,"type":"corner"},"e":[0.42,0,0.58,1]},{"t":3000,"v":{"x":-7264,"y":-16694,"type":"corner"}}]}}},"eyoKtplUHVk10":{"transform":{"data":{"o":{"x":70.5,"y":136,"type":"corner"},"t":{"x":-41.057,"y":-41.36}},"keys":{"r":[{"t":0,"v":0,"e":[0.42,0,0.58,1]},{"t":1000,"v":0.759793,"e":[0.42,0,0.58,1]},{"t":2300,"v":-3.663344,"e":[0.42,0,0.58,1]},{"t":3000,"v":0}],"s":[{"t":0,"v":{"x":1,"y":1},"e":[0.42,0,0.58,1]},{"t":800,"v":{"x":1.075199,"y":1.075199},"e":[0.42,0,0.58,1]},{"t":1800,"v":{"x":0.91472,"y":0.91472},"e":[0.42,0,0.58,1]},{"t":3000,"v":{"x":1,"y":1}}]}}},"eyoKtplUHVk24":{"transform":{"keys":{"o":[{"t":0,"v":{"x":7288,"y":16034,"type":"corner"},"e":[0.42,0,0.58,1]},{"t":900,"v":{"x":7288,"y":16032,"type":"corner"},"e":[0.42,0,0.58,1]},{"t":2000,"v":{"x":7288,"y":16036,"type":"corner"},"e":[0.42,0,0.58,1]},{"t":3000,"v":{"x":7288,"y":16034,"type":"corner"}}]}}}},"s":"MDWA1M2JjNjNhNRWI2YjNhMmI1GVWFhYjBhZjYAzN2I3NDcxNzRE3MTZkNjNhNMWFhYjNhNmE0KYjVhYWIwYWYK2MzdiNzI2ZEJU2M2FhYjVhNGmIzRGEyYjVhYYWIwYWZiNDYWzN2I3MTZkNjVNhN2FhYWRhZSDYzN2I3MjZkPNjNhMmFkYjVIhNmIzYWZTYTTJiNWE2NjM3YWmE3TGEyYWRCYYjRhNjZkNjNQiNGIxYTZUYTHZhNTYzSDdiNQzJiZQ|"}],"options":"MDGAxMDgyMjk3YHTdiNjg3OTdiVMjk0MTI5NzNGINzY2OFQ2YjEI5ODQ/"},'__SVGATOR_PLAYER__',window)]]></script></svg>