<svg id="eeil4cmYOx61" xmlns="http://www.w3.org/2000/svg" xmlns:xlink="http://www.w3.org/1999/xlink" viewBox="0 0 159 221" shape-rendering="geometricPrecision" text-rendering="geometricPrecision"><defs><linearGradient id="eeil4cmYOx622-fill" x1="1" y1="0.539" x2="0" y2="0.533" spreadMethod="pad" gradientUnits="objectBoundingBox" gradientTransform="matrix(1 0 0 1 0 0)"><stop id="eeil4cmYOx622-fill-0" offset="0%" stop-color="rgba(0,0,0,0)"/><stop id="eeil4cmYOx622-fill-1" offset="100%" stop-color="rgb(0,0,0)"/></linearGradient><linearGradient id="eeil4cmYOx623-fill" x1="0" y1="0.539" x2="1" y2="0.533" spreadMethod="pad" gradientUnits="objectBoundingBox" gradientTransform="matrix(1 0 0 1 0 0)"><stop id="eeil4cmYOx623-fill-0" offset="0%" stop-color="rgba(0,0,0,0)"/><stop id="eeil4cmYOx623-fill-1" offset="100%" stop-color="rgb(0,0,0)"/></linearGradient></defs><g id="eeil4cmYOx62" transform="matrix(1 0 0 1 -7264 -16699)"><rect id="eeil4cmYOx63" width="159" height="221" rx="0" ry="0" transform="matrix(1 0 0 1 7264 16699)" fill="none" stroke="none" stroke-width="1"/><g id="eeil4cmYOx64" transform="matrix(1 0 0 1 -15 674)"><g id="eeil4cmYOx65" transform="matrix(1 0 0 1 7288 16034)"><g id="eeil4cmYOx66"><rect id="eeil4cmYOx67" width="141" height="204" rx="3" ry="3" fill="rgb(255,15,15)" stroke="none" stroke-width="2"/><rect id="eeil4cmYOx68" width="139" height="202" rx="2" ry="2" transform="matrix(1 0 0 1 1 1)" fill="none" stroke="rgb(255,206,25)" stroke-width="2"/></g><path id="eeil4cmYOx69" d="M3.563,0L65.321,0C66.265966,0,67.172229,0.375386,67.840421,1.043579C68.508614,1.711771,68.884,2.618034,68.884,3.563L68.884,199.525L3.563,199.525C2.618034,199.525,1.711771,199.149614,1.043579,198.481421C0.375386,197.813229,0,196.906966,0,195.962L0,3.563C0,2.618034,0.375386,1.711771,1.043579,1.043579C1.711771,0.375386,2.618034,0,3.563,0Z" transform="matrix(1 0 0 1 2.375 2.375)" fill="rgb(213,19,19)" stroke="none" stroke-width="1"/><g id="eeil4cmYOx610" transform="matrix(0.99023 0.139445 -0.139445 0.99023 35.606716 89.388215)"><g id="eeil4cmYOx611" transform="matrix(1 0 0 1 -38.44 -103.64)"><g id="eeil4cmYOx612" transform="matrix(1 0 0 1 38 104)"><circle id="eeil4cmYOx613" r="41" transform="matrix(1 0 0 1 41 41)" fill="rgb(144,2,0)" stroke="none" stroke-width="1"/><circle id="eeil4cmYOx614" r="40.5" transform="matrix(1 0 0 1 41 41)" fill="none" stroke="rgb(255,206,25)" stroke-width="1"/></g></g><g id="eeil4cmYOx615" transform="matrix(1 0 0 1 16.204 14.57)"><path id="eeil4cmYOx616" d="M0.758,30.811L0.814,30.851L0.962,30.643L0.909,30.6L0.758,30.807ZM3.058,29.178C3.146067,29.063225,3.244845,28.957081,3.353,28.861C3.48217,28.787799,3.618561,28.728148,3.76,28.683C3.91078,28.370525,4.234556,28.179257,4.581,28.198C4.691127,28.184691,4.795186,28.140293,4.881,28.07C5.496,27.617,6.111,27.17,6.711,26.693C6.828,26.601,7.023,26.547,7.021,26.331C7.021,26.3,7.121,26.266,7.169,26.231C7.244,26.182,7.386,26.131,7.382,26.085C7.371,25.934,7.431,25.925,7.548,25.938C7.578,25.938,7.641,25.901,7.648,25.877C7.688,25.383,8.2,25.309,8.44,24.99C8.633978,24.758971,8.84926,24.546702,9.083,24.356C9.183,24.263,9.315,24.201,9.411,24.105C9.848598,23.652052,10.238635,23.155459,10.575,22.623C10.713,22.415,10.85,22.206,11,22.007C11.565777,21.286766,12.048183,20.504785,12.438,19.676C12.611988,19.296757,12.81527,18.931651,13.046,18.584C13.336249,18.032194,13.526198,17.433228,13.607,16.815C13.53326,16.817599,13.460235,16.830387,13.39,16.853C12.935071,17.118693,12.456326,17.341326,11.96,17.518C11.39152,17.739301,10.840041,18.002006,10.31,18.304C9.766,18.58,9.229,18.874,8.687,19.156C8.393,19.309,8.087,19.433,7.804,19.61C7.583,19.75,7.414,19.969,7.199,20.117C6.67699,20.434374,6.497205,21.106365,6.791,21.642C6.856809,22.00975,6.964511,22.368754,7.112,22.712C7.18306,22.854741,7.153531,23.027062,7.039,23.138C6.769,23.475,6.531,23.838,6.239,24.155C5.947,24.472,5.639,24.724,5.328,25.001C5.289521,25.042579,5.237318,25.068858,5.181,25.075C4.763,25.043,4.329,25.188,3.927,24.929C3.713198,24.800013,3.483633,24.699179,3.244,24.629C2.934,24.529,2.844,24.244,2.731,24.011C2.606538,23.687124,2.405471,23.398219,2.145,23.169C2.045226,23.075594,1.980909,22.950495,1.963,22.815C1.925283,22.567572,1.912885,22.316943,1.926,22.067C1.979105,21.383304,1.840589,20.698339,1.526,20.089C1.155369,19.313219,1.145855,18.413444,1.5,17.63C1.597479,17.413439,1.752419,17.227719,1.948,17.093C2.178477,16.957106,2.323087,16.71244,2.331,16.445C2.326,16.111,2.55,15.918,2.744,15.667C2.973,15.839,3.186,15.99,3.387,16.155C3.755858,16.531472,4.301409,16.675442,4.808,16.53C5.59,16.281,6.389,16.082,7.158,15.8C8.509926,15.322462,9.887796,14.921821,11.285,14.6C12.095,14.4,12.892,14.152,13.691,13.908C13.834444,13.832917,13.972151,13.747352,14.103,13.652C14.233121,13.597989,14.366762,13.552885,14.503,13.517C14.676,13.262,14.829,12.999,15.019,12.766C15.3683,12.350139,15.814837,12.026915,16.319,11.825C16.674599,11.632377,17.076009,11.540409,17.48,11.559C17.788081,11.57997,18.068919,11.74293,18.24,12C18.38579,12.249045,18.55524,12.483462,18.746,12.7C18.950312,12.884156,19.175121,13.044207,19.416,13.177C19.831136,13.40053,20.234348,13.645529,20.624,13.911C20.920006,14.118693,21.156785,14.399932,21.311,14.727C21.500881,15.126375,21.754534,15.492163,22.062,15.81C22.134816,15.912744,22.223211,16.003501,22.324,16.079C22.775461,16.451167,23.136536,16.920975,23.38,17.453C23.480482,17.76558,23.509194,18.096792,23.464,18.422C23.46625,18.559004,23.447705,18.695557,23.409,18.827C23.357179,19.083695,23.271074,19.332256,23.153,19.566C22.89732,19.985402,22.528066,20.323798,22.088,20.542C21.807887,20.70192,21.476704,20.747082,21.164,20.668C20.664,20.514,20.658,20.519,20.427,21.004C20.412887,21.028087,20.395748,21.050267,20.376,21.07C19.97173,20.963832,19.541088,21.050182,19.209,21.304C19.03064,21.451059,18.870503,21.618917,18.732,21.804C18.57,22.023,18.332,22.184,18.15,22.39C17.876,22.701,17.615,23.025,17.359,23.351C17.197,23.559,17.054,23.781,16.886,24.021C16.953559,24.102351,17.026382,24.179183,17.104,24.251C17.631,24.684,18.17,25.103,18.69,25.544C19.09,25.885,19.49,26.236,19.865,26.607C20.89601,27.544154,21.830053,28.582724,22.653,29.707C22.934225,30.01801,23.105045,30.413075,23.139,30.831C23.142288,30.936873,23.103448,31.039727,23.031,31.117C22.510672,31.458199,22.073038,31.911207,21.75,32.443C21.494858,32.793233,21.149156,33.067374,20.75,33.236C20.418342,33.369678,20.041434,33.325203,19.75,33.118C19.344,32.906,18.944,32.679,18.541,32.458C18.529,32.452,18.517,32.439,18.505,32.439C18.336397,32.449794,18.167125,32.442755,18,32.418C17.829,32.371,17.682,32.258,17.484,32.336C17.304552,32.3962,17.106747,32.334033,16.994,32.182C16.512676,31.76094,16.094694,31.272564,15.753,30.732C15.566754,30.387409,15.330904,30.072043,15.053,29.796C15.046481,29.881209,15.046481,29.966791,15.053,30.052C15.107593,30.547678,15.099867,31.048243,15.03,31.542C14.968,32.093,14.97,32.653,14.947,33.209Q14.882,34.774,14.818,36.339C14.795,36.882,14.743,37.425,14.757,37.967C14.768007,38.67562,14.818753,39.383064,14.909,40.086C14.976933,40.580675,14.962063,41.083207,14.865,41.573C14.802114,42.042267,14.814266,42.51855,14.901,42.984C15.014506,43.64325,14.992046,44.318745,14.835,44.969C14.749267,45.30645,14.699654,45.652059,14.687,46C14.642,46.751,14.608,47.5,14.597,48.255C14.591224,48.964639,14.493408,49.67053,14.306,50.355C14.175,50.824,14.044,51.292,13.916,51.761C13.874,51.92,13.816,52.043,13.616,52.061C13.546,52.066,13.478,52.138,13.416,52.187C13.373,52.219,13.345,52.287,13.299,52.3C12.976845,52.419776,12.648745,52.522912,12.316,52.609C12.170681,52.630739,12.028388,52.669332,11.892,52.724C11.77,52.781,11.525,52.795,11.458,52.724C11.266,52.507,11.112,52.656,10.94,52.724C10.68,52.459,10.324,52.55,10.031,52.524C9.679439,52.515029,9.346074,52.680028,9.14,52.965C9.06346,52.741241,8.922144,52.545278,8.734,52.402C8.603,52.314,8.588,52.028,8.555,51.826C8.488,51.4,8.445,50.971,8.391,50.544C8.390239,50.502649,8.385551,50.461464,8.377,50.421C8.104,49.651,7.868,48.866,7.546,48.121C7.038448,47.052581,6.793972,45.878204,6.833,44.696C6.831268,44.04024,6.993156,43.394408,7.304,42.817C7.542,42.429,7.711,41.999,7.933,41.601C8.029565,41.447783,8.147409,41.309064,8.283,41.189C9.362848,40.180416,10.225751,38.962281,10.819,37.609C10.879,37.468,10.955,37.335,11.025,37.198C11.192874,36.863073,11.291828,36.497863,11.316,36.124C11.416,34.891,11.555,33.662,11.69,32.432C11.748,31.894,11.817,31.355,11.9,30.819C11.939,30.573,12.028,30.337,12.085,30.093C12.207,29.569,12.324,29.042,12.458,28.46C12.25327,28.492541,12.057691,28.567842,11.884,28.681C10.833,29.381,9.795,30.11,8.734,30.799C8.365,31.039,7.934,31.175,7.548,31.399C6.811928,31.757846,6.047294,32.054869,5.262,32.287C5.24,32.296,5.209,32.281,5.147,32.272L5.304,31.967L4.733,32.179C4.612521,32.101109,4.481531,32.040834,4.344,32C4.026193,32.003271,3.709791,31.957396,3.406,31.864C3.299,31.816,3.085,31.973,2.936,32.064C2.818,32.135,2.726,32.249,2.564,32.184C2.208485,32.081726,1.825385,32.17446,1.556,32.428C1.201,32.66,1.103,32.667,0.884,32.334C0.716,32.081,0.584,31.818,0.264,31.706C0.176,31.675,0.12,31.551,-0.001,31.412L0.621,31.2C0.621,31.1,0.621,31.007,0.621,30.911C0.576783,30.567724,0.774805,30.239207,1.099,30.118C1.268703,30.024172,1.427933,29.912543,1.574,29.785C1.64956,29.749186,1.728656,29.721369,1.81,29.702C1.698,30.12,1.233,30.111,1.138,30.471L3.038,29.187C3.038,29.187,3.05,29.173,3.05,29.173Z" transform="matrix(1 0 0 1 0 0.96)" fill="rgb(255,206,25)" stroke="none" stroke-width="1"/><path id="eeil4cmYOx617" d="M26.715,38.6C26.675745,39.06014,26.690512,39.523295,26.759,39.98C26.807,40.213,26.868,40.366,27.076,40.411C27.084,40.572,27.091,40.705,27.1,40.878C27.258,40.846,27.377,40.824,27.5,40.796C27.7,40.749,27.9,40.683,28.105,40.652C28.584,40.578,29.074,40.558,29.542,40.443C29.950922,40.360232,30.374638,40.389954,30.768,40.529C30.9,40.567,31.038,40.59,31.174,40.618C31.321805,40.661531,31.48157,40.629354,31.601,40.532C31.487,39.732,31.379,38.971,31.271,38.208L31.085,38.232C31.058,38.061,31.036,37.917,31.008,37.739L26.719,38.601ZM31.533,31.773C30.31801,32.167951,29.213863,32.845106,28.311,33.749C27.492229,34.536922,26.99361,35.599694,26.911,36.733C27.089,36.711,27.264,36.696,27.438,36.668C28.208,36.543,28.976,36.413,29.746,36.291C30.062,36.241,30.381,36.201,30.699,36.171C30.907,36.15,30.999,36.054,30.977,35.845C30.951,35.57,30.922,35.295,30.913,35.019C30.907639,34.913369,30.934868,34.808643,30.991,34.719C31.237609,34.380969,31.398232,33.987991,31.459,33.574C31.636609,32.990102,31.662081,32.370506,31.533,31.774ZM33.426,40.336C33.564,40.36,33.605,40.372,33.645,40.373C34.761223,40.374905,35.856421,40.676766,36.816,41.247C37.235151,41.555189,37.573736,41.959981,37.803,42.427C37.846,42.491,37.803,42.611,37.803,42.704C37.763058,42.960654,37.753659,43.221135,37.775,43.48C37.802915,43.656154,37.767484,43.8365,37.675,43.989C37.575,44.213,37.452,44.43,37.375,44.663C37.354084,44.765497,37.386447,44.871617,37.461,44.945C37.695325,45.10592,37.965562,45.206872,38.248,45.239C38.219,45.053,38.199,44.918,38.177,44.784C38.018508,43.878141,37.959158,42.957713,38,42.039C38.055,40.775,38.134,39.511,38.245,38.25C38.353,37.004,38.528,35.764,38.645,34.519C38.74792,33.903607,38.74792,33.275393,38.645,32.66C38.470101,31.995673,38.038443,31.428043,37.445,31.082C37.134245,30.862832,36.762239,30.747345,36.382,30.752C35.50409,30.743974,34.628119,30.835899,33.771,31.026C33.64,31.058,33.514,31.106,33.424,31.134C33.682,31.782,33.924,32.394,34.168,33.011L34.368,32.906C34.417836,33.114581,34.498024,33.314715,34.606,33.5C34.766873,33.692352,34.850931,33.937401,34.842,34.188C34.891291,34.77047,35.135427,35.319336,35.535,35.746C35.747,36.031,36.012,36.277,36.29,36.581C36.162,36.702,36.076,36.838,35.952,36.893C35.643,37.031,35.341,37.258,34.939,37.031C34.639,37.877,34.339,38.691,34.044,39.522L33.651,39.422C33.571,39.738,33.499,40.022,33.42,40.342ZM35.291,46.407L33.541,45.638C33.371498,45.894509,33.089182,46.054079,32.782,46.067C31.12997,46.432849,29.414993,46.404415,27.776,45.984C27.537,45.911,27.284,45.884,27.038,45.837C26.776561,45.772486,26.500123,45.840941,26.299,46.02C26.177764,46.107042,26.034051,46.157377,25.885,46.165C25.668456,46.184381,25.450419,46.179349,25.235,46.15C24.79,46.088,24.518,46.357,24.222,46.641C24.120654,46.55784,24.011861,46.484195,23.897,46.421C23.803747,46.376202,23.698477,46.362868,23.597,46.383C23.167,46.505,23.169,46.512,22.904,46.189C22.878034,46.157256,22.847738,46.129317,22.814,46.106C22.784354,46.093637,22.752991,46.08588,22.721,46.083C22.555,46.149,22.594,46.525,22.283,46.397C21.8286,45.5992,21.579797,44.700895,21.559,43.783C21.525,43.383,21.459,42.983,21.398,42.583C21.373957,42.506263,21.327667,42.438394,21.265,42.388C20.904,42.048,20.82,41.862,21.077,41.488C21.386283,40.942203,21.49255,40.304602,21.377,39.688C21.364535,39.563311,21.364535,39.437689,21.377,39.313C21.439509,38.967165,21.36022,38.610724,21.157,38.324C21.044269,38.09543,21.03373,37.829782,21.128,37.593C21.179682,37.319592,21.271686,37.055376,21.401,36.809C21.740359,36.080317,22.018648,35.324723,22.233,34.55C22.44,33.961,22.593,33.35,22.779,32.756C22.984152,32.23703,23.29547,31.766647,23.693,31.375C23.937,31.093,24.209,30.836,24.493,30.542C25.635,31.311,25.693,32.589,25.934,33.829C26.023996,33.803412,26.11036,33.766447,26.191,33.719C26.376,33.572,26.555,33.419,26.728,33.254C27.557592,32.528473,28.509801,31.956538,29.54,31.565C30.282,31.253,31.02,30.921,31.78,30.665C32.589639,30.36838,33.430368,30.16474,34.286,30.058C34.839,30.002,35.386,29.889,35.933,29.786C36.103237,29.7794,36.258937,29.688231,36.348,29.543C36.383,29.476,36.502,29.443,36.588,29.415C36.826,29.337,37.07,29.275,37.308,29.195C37.413261,29.168245,37.510186,29.115658,37.59,29.042C38.003779,28.630435,38.60419,28.468069,39.169,28.615C39.536,28.66,39.89,28.806,40.256,28.88C40.440721,28.927845,40.633868,28.933314,40.821,28.896C41.239579,28.785914,41.677239,28.769186,42.103,28.847C42.48824,28.906371,42.880939,28.897231,43.263,28.82C43.371864,28.796979,43.482089,28.780947,43.593,28.772C43.967885,28.725053,44.345473,28.83547,44.636,29.077C45.289718,29.567783,45.972276,30.018926,46.68,30.428C47.297862,30.778058,47.767099,31.341142,48,32.012C48.158899,32.471572,48.3425,32.922228,48.55,33.362C48.706,33.743,48.705,33.744,48.55,34.178L48.144,34.078L48.376,34.667L48.14,34.461C48.074,34.537,48,34.589,47.974,34.661C47.883,34.905,47.801,35.152,47.731,35.402C47.676695,35.585265,47.589992,35.757317,47.475,35.91C47.326474,36.156128,47.215582,36.423079,47.146,36.702C46.919823,37.517147,46.599323,38.303126,46.191,39.044C45.866282,39.548585,45.687361,40.133109,45.674,40.733C45.674,40.815,45.658,40.898,45.647,41.01C45.373,41.046,45.247,41.237,45.157,41.482C44.957,42.029,44.732,42.567,44.533,43.115C44.308797,43.636121,44.016228,44.125081,43.663,44.569C43.569,44.703,43.478,44.841,43.38,44.969C43.241795,45.214375,42.9984,45.382539,42.72,45.425C42.476396,45.44828,42.239133,45.51607,42.02,45.625C41.795,45.74,41.567,45.872,41.542,46.201C41.527,46.393,41.326,46.571,41.315,46.763C41.289,47.217,40.988,47.285,40.642,47.38C40.400562,47.479918,40.171667,47.607791,39.96,47.761C39.995357,47.888307,40.016816,48.01907,40.024,48.151C40.007625,48.28318,39.976084,48.413036,39.93,48.538C39.538,48.438,39.509,48.4,39.392,47.889C39.218468,47.929581,39.048303,47.983405,38.883,48.05C38.641703,48.170451,38.353291,48.145741,38.136,47.986C37.887,47.835,37.624,47.708,37.367,47.57L37.384,47.58C36.836311,47.10629,36.222109,46.715464,35.561,46.42C35.470462,46.395578,35.376664,46.385456,35.283,46.39L35.298,46.406Z" transform="matrix(1 0 0 1 1.739 2.376)" fill="rgb(255,206,25)" stroke="none" stroke-width="1"/><path id="eeil4cmYOx618" d="M29.335,27.156C29.854,27.037,30.311,26.917,30.773,26.829C31.832686,26.678045,32.902825,26.612833,33.973,26.634C34.472699,26.61999,34.967778,26.534109,35.443,26.379C35.575,25.674,35.692,25.049,35.81,24.423C35.825,24.341,35.834,24.258,35.853,24.177C35.976,23.651,36.096,23.122,36.23,22.598C36.372,22.047,36.545,21.504,36.674,20.951C36.740022,20.735489,36.716334,20.502458,36.608297,20.30464C36.500259,20.106821,36.317004,19.960938,36.1,19.9C35.804363,19.826228,35.503467,19.77541,35.2,19.748C35.018216,19.729379,34.837659,19.793235,34.708,19.922C34.499,20.099,34.266,20.247,34.041,20.404C33.783238,20.56098,33.536041,20.734686,33.301,20.924C32.775388,21.410353,32.225342,21.869615,31.653,22.3C31.158,22.67,30.741,23.145,30.283,23.565C30.042508,23.79269,29.869494,24.082316,29.783,24.402C29.722129,24.614512,29.623562,24.814354,29.492,24.992C29.356215,25.152092,29.298354,25.364127,29.334,25.571C29.354194,25.736457,29.384923,25.900456,29.426,26.062C29.541823,26.336651,29.516444,26.650525,29.358,26.903C29.326,26.948,29.346,27.032,29.339,27.159ZM43.194,28.4L42.813,28.527C42.821,28.634,42.827,28.727,42.836,28.855C42.502462,29.005473,42.160567,29.136688,41.812,29.248C41.577776,29.280891,41.340534,29.286596,41.105,29.265C40.982,29.265,40.817,29.235,40.74,29.3C40.412,29.578,39.976,29.653,39.64,29.909C39.54,29.983,39.427,30.089,39.324,30.084C39.126358,30.081404,38.932237,30.03133,38.758,29.938C38.089314,29.564059,37.36928,29.290467,36.621,29.126C36.524685,29.112561,36.429906,29.089787,36.338,29.058C36.142946,28.941129,35.901001,28.934682,35.7,29.041C35.607691,29.069047,35.511433,29.081882,35.415,29.079C35.115,29.121,34.81,29.168,34.505,29.207C33.942,29.28,33.373,29.323,32.815,29.429C32.451158,29.514801,32.095223,29.631216,31.751,29.777C31.233,29.972,30.725,30.192,30.208,30.386C30.036743,30.457113,29.840695,30.432796,29.692,30.322C29.41,30.122,29.105,29.947,28.83,29.736C28.736,29.665,28.701,29.514,28.63,29.384C28.056191,29.491292,27.522232,29.752223,27.085,30.139C27.032777,30.206243,26.955197,30.249048,26.870465,30.25737C26.785733,30.265692,26.701307,30.238798,26.637,30.183C26.377009,30.022849,26.129924,29.842634,25.898,29.644C25.598,29.372,25.334,29.069,25.061,28.772C24.843702,28.43299,24.697735,28.053272,24.632,27.656C24.378206,26.863932,24.180714,26.054916,24.041,25.235C23.955043,24.916391,23.842308,24.605618,23.704,24.306C23.594622,24.078754,23.596468,23.813701,23.709,23.588C23.755545,23.447732,23.760408,23.296976,23.723,23.154C23.683051,22.992892,23.629871,22.835357,23.564,22.683C23.496772,22.558354,23.488019,22.410381,23.540083,22.278678C23.592147,22.146975,23.699714,22.044985,23.834,22C23.918865,21.952678,24.006717,21.910923,24.097,21.875C24.328,21.795,24.391,21.64,24.412,21.398C24.448707,21.025277,24.521037,20.656928,24.628,20.298C24.86151,19.86468,25.375633,19.665734,25.84,19.829C26.242039,19.995205,26.699969,19.954118,27.066,19.719C27.85208,19.244657,28.613097,18.72997,29.346,18.177C30.979,16.923,32.589,15.637,34.194,14.347C34.550085,14.035361,34.889236,13.704888,35.21,13.357C35.265218,13.295731,35.300146,13.218889,35.31,13.137C34.887002,13.496733,34.387753,13.75559,33.85,13.894C33.388173,14.044806,32.943677,14.244259,32.524,14.489C32.085,14.803,31.511,14.975,31.26,15.532C31.194883,15.671894,31.090697,15.789971,30.96,15.872C30.568127,16.132622,30.154218,16.358482,29.723,16.547C29.056395,16.782739,28.31484,16.535555,27.923,15.947C27.529746,15.359973,27.245535,14.706863,27.084,14.019C26.881786,13.222842,26.814186,12.398465,26.884,11.58C26.910194,11.289368,26.967523,11.00239,27.055,10.724C27.100352,10.563238,27.188892,10.417977,27.311,10.304C27.621775,10.030368,27.885309,9.70737,28.091,9.348C28.132,9.278,28.23,9.241,28.375,9.132C28.385,9.413,28.392,9.613,28.398,9.814C28.408,10.176,28.486,10.256,28.835,10.283C29.308576,10.323311,29.784263,10.235221,30.212,10.028C31.153626,9.572116,32.158026,9.259336,33.192,9.1C33.537747,9.055743,33.876463,8.967704,34.2,8.838C34.950404,8.534687,35.761251,8.410731,36.568,8.476C36.729634,8.478405,36.888802,8.436191,37.028,8.354C37.285752,8.141772,37.600744,8.010903,37.933,7.978C38.033,7.978,38.133,7.89,38.233,7.836C38.363973,7.741701,38.527413,7.704141,38.686413,7.731801C38.845414,7.759462,38.986567,7.85001,39.078,7.983C39.1281,8.049484,39.185082,8.110489,39.248,8.165C39.762302,8.5973,40.135332,9.173737,40.319,9.82C40.383927,10.175606,40.360229,10.541732,40.25,10.886C40.24,10.965,40.07,11.056,39.959,11.086C39.72,11.153,39.471,11.186,39.2,11.237L39.047,11.482C39.006,11.498,38.977,11.522,38.955,11.516C38.780306,11.46881,38.593646,11.502982,38.447,11.609C38.176,11.778,37.877,11.899,37.602,12.063C37.476,12.138,37.319,12.246,37.286,12.37C37.148098,12.698666,36.934252,12.989963,36.662,13.22C36.373,13.556,36.089,13.898,35.787,14.22C35.445636,14.605235,35.082721,14.97082,34.7,15.315C34.234777,15.713224,33.744069,16.080672,33.231,16.415C32.590812,16.832275,31.976364,17.287768,31.391,17.779C30.976,18.125,30.544,18.454,30.1,18.762C29.291,19.324,28.466,19.862,27.651,20.418C27.522,20.506,27.288,20.585,27.365,20.777C27.455,21,27.675,20.868,27.843,20.837C29.125245,20.564988,30.348941,20.067248,31.457,19.367C32.342,18.843,33.257,18.367,34.176,17.907C34.602242,17.704961,34.998632,17.445187,35.354,17.135C35.688809,16.816327,36.103365,16.593849,36.554,16.491C37.369,16.31,38.178,16.103,39,15.967C39.762874,15.866621,40.523157,16.169522,41.008,16.767C41.400468,17.165063,41.677043,17.662552,41.808,18.206C41.974,18.906,42.15,19.606,42.347,20.306C42.526,20.933,42.729,21.554,42.938,22.171C43.157752,22.802999,43.251519,23.471938,43.214,24.14C43.200533,24.347218,43.173475,24.553328,43.133,24.757C42.999,25.425,42.864,26.092,42.712,26.757C42.665,26.957,42.629,27.133,42.838,27.268C42.999246,27.389666,43.071447,27.596403,43.021,27.792C42.966492,28.014749,43.035131,28.249647,43.201,28.408Z" transform="matrix(1 0 0 1 1.955 0.642)" fill="rgb(255,206,25)" stroke="none" stroke-width="1"/><path id="eeil4cmYOx619" d="M17.42,11.482C17.27535,11.519158,17.135684,11.573547,17.004,11.644C16.766447,11.828117,16.472437,11.924235,16.172,11.916C15.889403,11.877171,15.602606,11.880541,15.321,11.926C15.254294,11.943746,15.183465,11.937371,15.121,11.908C14.882,11.777,14.651,11.629,14.413,11.493C13.781563,11.056993,13.034295,10.819511,12.267,10.811C11.517772,10.844031,10.767093,10.813589,10.023,10.72C9.516462,10.625075,9.016974,10.495776,8.528,10.333Q7.902,10.172,7.27,10.033C7.022927,9.979493,6.804088,9.837159,6.655,9.633C6.325537,9.257393,6.061529,8.829097,5.874,8.366C5.708,7.866,5.412,7.414,5.257,6.914C5.07,6.307,4.975,5.673,4.833,5.052C4.78,4.822,4.702,4.599,4.64,4.372C4.596613,4.226445,4.563202,4.078101,4.54,3.928C4.497,3.585,4.483,3.236,4.425,2.895C4.357363,2.553315,4.357363,2.201685,4.425,1.86C4.424002,1.750316,4.409561,1.641169,4.382,1.535C4.297725,1.126183,4.408625,0.701436,4.682,0.386C4.748111,0.280463,4.794845,0.163967,4.82,0.042C5.027,-0.067,5.131,0.055,5.262,0.207C5.472058,0.540353,5.715296,0.851604,5.988,1.136C6.233594,1.354282,6.490981,1.558923,6.759,1.749C6.981396,1.858846,7.21651,1.9408,7.459,1.993C7.859,2.114,8.253,2.239,8.659,2.343C8.876077,2.391601,9.096277,2.425016,9.318,2.443C10.358472,2.547022,11.380456,2.789151,12.357,3.163C12.960566,3.413979,13.549204,3.69945,14.12,4.018C14.784946,4.341266,15.392884,4.770538,15.92,5.289C16.018165,5.36671,16.122512,5.436274,16.232,5.497C16.332,5.573,16.474,5.65,16.496,5.749C16.569,6.059,16.81,6.231,16.989,6.454C17.282975,6.752946,17.454542,7.151012,17.47,7.57C17.466604,7.958286,17.502453,8.345922,17.577,8.727C17.641982,9.053604,17.740504,9.372628,17.871,9.679C17.997144,9.962304,18.019104,10.281075,17.933,10.579C17.811362,10.905693,17.667699,11.223757,17.503,11.531L17.421,11.486Z" transform="matrix(1 0 0 1 0.363 0)" fill="rgb(255,206,25)" stroke="none" stroke-width="1"/><path id="eeil4cmYOx620" d="M36.276,46.2C36.384,46.326,36.493,46.45,36.598,46.579C36.613,46.596,36.61,46.631,36.62,46.688C36.308,46.713,36.22,46.4,36.007,46.294C35.773,46.177,35.558,46.021,35.33,45.894C35.102,45.767,34.866,45.644,34.63,45.518C34.388763,45.399401,34.165544,45.247222,33.967,45.066L34.203,45.039L34.188,45.023C34.682,45.318,35.174,45.617,35.672,45.905C35.872,46.02,36.083,46.112,36.289,46.214Z" transform="matrix(1 0 0 1 2.824 3.742)" fill="rgb(255,206,25)" stroke="none" stroke-width="1"/><path id="eeil4cmYOx621" d="M2.839,27.838C2.839,27.838,2.825,27.852,2.827,27.852C2.758,27.846,2.687,27.841,2.592,27.835C2.678,27.699,2.748,27.618,2.871,27.702C2.886,27.711,2.851,27.79,2.839,27.838Z" transform="matrix(1 0 0 1 0.215 2.3)" fill="rgb(255,206,25)" stroke="none" stroke-width="1"/></g></g><path id="eeil4cmYOx622" d="M3.563,0L65.321,0C66.265966,0,67.172229,0.375386,67.840421,1.043579C68.508614,1.711771,68.884,2.618034,68.884,3.563L68.884,199.525L3.563,199.525C2.618034,199.525,1.711771,199.149614,1.043579,198.481421C0.375386,197.813229,0,196.906966,0,195.962L0,3.563C0,2.618034,0.375386,1.711771,1.043579,1.043579C1.711771,0.375386,2.618034,0,3.563,0Z" transform="matrix(1 0 0 1 2.375 2.375)" opacity="0.127" fill="url(#eeil4cmYOx622-fill)" stroke="none" stroke-width="1"/><path id="eeil4cmYOx623" d="M65.321,0L3.563,0C2.618034,0,1.711771,0.375386,1.043579,1.043579C0.375386,1.711771,0,2.618034,0,3.563L0,199.525L65.321,199.525C67.288791,199.525,68.884,197.929791,68.884,195.962L68.884,3.563C68.884,2.618034,68.508614,1.711771,67.840421,1.043579C67.172229,0.375386,66.265966,0,65.321,0Z" transform="matrix(1 0 0 1 71.259 2.375)" opacity="0.127" fill="url(#eeil4cmYOx623-fill)" stroke="none" stroke-width="1"/></g><g id="eeil4cmYOx624" transform="matrix(1 0 0 1 7288 16034)"><g id="eeil4cmYOx625"><g id="eeil4cmYOx626" transform="matrix(1 0 0 1 -9 -9)"><g id="eeil4cmYOx627" transform="matrix(1 0 0 1 9 9)"><path id="eeil4cmYOx628" d="M3,0L138,0C139.656854,0,141,1.343146,141,3L141,15C141,46.480231,115.480231,72,84,72L57,72C25.519769,72,0,46.480231,0,15L0,3C0,1.343146,1.343146,0,3,0Z" fill="rgb(255,15,15)" stroke="none" stroke-width="2"/><path id="eeil4cmYOx629" d="M3,1L138,1C139.104569,1,140,1.895431,140,3L140,15C140,45.927946,114.927946,71,84,71L57,71C26.072054,71,1,45.927946,1,15L1,3C1,1.895431,1.895431,1,3,1Z" fill="none" stroke="rgb(255,206,25)" stroke-width="2"/></g></g></g><g id="eeil4cmYOx630" transform="matrix(1 0 0 1 -9 -9)"><g id="eeil4cmYOx631" transform="matrix(1 0 0 1 63 63)"><circle id="eeil4cmYOx632" r="17.5" transform="matrix(1 0 0 1 17.5 17.5)" fill="rgb(255,173,41)" stroke="none" stroke-width="2"/><circle id="eeil4cmYOx633" r="16.5" transform="matrix(1 0 0 1 17.5 17.5)" fill="none" stroke="rgb(255,206,25)" stroke-width="2"/></g></g><path id="eeil4cmYOx634" d="M1.9,-1.8L1.828,-1.776C1.83914,-1.789232,1.854844,-1.797798,1.872,-1.8ZM7.516,-10.968C7.732871,-9.083378,7.264327,-7.183645,6.196,-5.616C5.160109,-3.96377,3.668051,-2.646757,1.9,-1.824L1.876,-1.848C1.863842,-1.82165,1.847647,-1.797358,1.828,-1.776C0.317171,-1.057928,-1.327722,-0.665443,-3,-0.624Q-2.88,0.528,-4.008,0.528C-4.162381,0.535827,-4.314802,0.490666,-4.44,0.4C-4.56073,0.297674,-4.641472,0.156021,-4.668,0Q-4.728,-0.264,-4.752,-0.444C-4.76994,-0.599331,-4.777956,-0.755648,-4.776,-0.912L-4.776,-1.012C-4.743604,-2.447424,-4.799711,-3.883479,-4.944,-5.312C-5.10532,-4.336511,-5.138936,-3.344169,-5.044,-2.36Q-5.068,-1.52,-5.044,-0.872C-5.036436,-0.743086,-5.020402,-0.614809,-4.996,-0.488Q-4.948,-0.2,-4.924,-0.032C-4.908526,0.088419,-4.916678,0.2107,-4.948,0.328Q-5.164,0.328,-5.332,-0.044C-5.465642,-0.383247,-5.555694,-0.738081,-5.6,-1.1Q-5.708,-1.8,-5.78,-2.624Q-5.852,-3.448,-5.888,-4.524Q-5.924,-5.592,-5.936,-6.524Q-5.948,-7.456,-5.936,-8.54Q-5.924,-9.62,-5.912,-10.316Q-5.9,-11.012,-5.888,-11.768Q-5.876,-12.524,-5.876,-12.644C-5.812202,-12.984434,-5.804097,-13.332968,-5.852,-13.676C-5.995698,-13.755209,-6.148943,-13.8157,-6.308,-13.856Q-6.716,-13.988,-6.764,-14.012Q-7.772,-14.612,-7.7,-15.284C-7.682374,-15.430385,-7.624186,-15.56893,-7.532,-15.684C-7.462832,-15.7652,-7.370852,-15.823732,-7.268,-15.852Q-7.124,-15.888,-6.908,-15.936C-6.783607,-15.961364,-6.662732,-16.001655,-6.548,-16.056C-6.440594,-16.116362,-6.343397,-16.19331,-6.26,-16.284C-6.194744,-16.359768,-6.117768,-16.42459,-6.032,-16.476C-5.914289,-16.524429,-5.786968,-16.544965,-5.66,-16.536Q-2.804,-16.68,-1.58,-16.8C0.064381,-16.962627,1.724056,-16.740789,3.268,-16.152L3.316,-16.152L3.364,-16.128L3.388,-16.128L3.412,-16.104L3.46,-16.08C3.415416,-16.110298,3.366989,-16.134511,3.316,-16.152C4.416898,-15.748044,5.386484,-15.050938,6.12,-14.136C6.863891,-13.2265,7.345213,-12.131076,7.512,-10.968ZM-3.624,-3.528Q-3.724,-3.48,-3.624,-3.456Q-3.528,-3.48,-3.624,-3.528ZM-3.864,-3.84Q-3.936,-3.864,-3.84,-3.888L-3.696,-3.912L-3.936,-3.984Q-4.008,-3.96,-4.008,-3.912Q-4.008,-3.888,-3.908,-3.84Q-3.808,-3.792,-3.788,-3.816Q-3.716,-3.84,-3.788,-3.84ZM-3.84,-3.12L-3.84,-3.168C-3.841195,-3.186583,-3.849851,-3.203894,-3.864,-3.216C-3.87992,-3.182372,-3.869872,-3.14218,-3.84,-3.12ZM-4.1,-4.2L-4.052,-4.128L-3.98,-4.152Q-3.984,-4.248,-4.1,-4.2ZM-4.244,-7.848L-4.232,-7.8C-4.22153,-7.765482,-4.194518,-7.73847,-4.16,-7.728C-4.09907,-7.714015,-4.035137,-7.722539,-3.98,-7.752ZM-4.604,-8.448Q-4.652,-8.52,-4.704,-8.448Q-4.656,-8.352,-4.608,-8.448ZM-4.704,-7.92L-4.804,-7.82Q-4.8,-7.68,-4.7,-7.92ZM-4.728,-7.632Q-4.728,-7.608,-4.608,-7.732Q-4.824,-7.68,-4.728,-7.632ZM-4.608,-8.712Q-4.32,-8.736,-4.632,-8.952L-4.752,-8.784Q-4.776,-8.712,-4.608,-8.712ZM-4.464,-12.264L-4.488,-12.288L-4.416,-12.264L-4.464,-12.264ZM-4.224,-10.992Q-4.152,-11.064,-4.296,-11.092Q-4.416,-11.068,-4.396,-11.02C-4.353617,-10.969175,-4.280315,-10.957242,-4.224,-10.992ZM-4.464,-10.56Q-4.272,-10.608,-4.488,-10.66Q-4.56,-10.608,-4.464,-10.56ZM-4.416,-9.84Q-4.368,-9.888,-4.44,-9.94Q-4.536,-9.864,-4.416,-9.84ZM-4.536,-10.872Q-4.512,-10.972,-4.636,-10.992Q-4.736,-11.016,-4.736,-10.944Q-4.76,-10.92,-4.688,-10.844C-4.67759,-10.814587,-4.645776,-10.798681,-4.616,-10.808C-4.58019,-10.814351,-4.550057,-10.838457,-4.536,-10.872ZM-4.416,-12.024L-4.368,-12.024L-4.536,-11.976Q-4.536,-11.952,-4.464,-12ZM-4.632,-11.616Q-4.68,-11.784,-4.752,-11.688Q-4.656,-11.592,-4.632,-11.616ZM-4.7,-9.984Q-4.748,-10.008,-4.748,-9.984L-4.676,-9.912Q-4.584,-9.96,-4.7,-9.984ZM-4.484,-9.768L-4.484,-9.744C-4.569157,-9.710584,-4.657669,-9.686445,-4.748,-9.672Q-4.748,-9.648,-4.7,-9.636C-4.668051,-9.628134,-4.641498,-9.606006,-4.628,-9.576L-4.628,-9.552Q-4.436,-9.264,-4.412,-9.576C-4.418435,-9.645955,-4.444813,-9.712593,-4.488,-9.768ZM-4.7,-9.288L-4.724,-9.168Q-4.7,-9.068,-4.624,-9.096Q-4.512,-9.192,-4.7,-9.288ZM-4.7,-9.388L-4.7,-9.364Q-4.676,-9.264,-4.628,-9.34Q-4.656,-9.432,-4.7,-9.384ZM-4.316,-8.26Q-4.436,-8.212,-4.316,-8.16Q-4.224,-8.232,-4.32,-8.256ZM-4.052,-4.492Q-4.124,-4.444,-3.932,-4.348L-3.884,-4.348C-3.866817,-4.385602,-3.858602,-4.426681,-3.86,-4.468C-3.894207,-4.45193,-3.933793,-4.45193,-3.968,-4.468C-3.996032,-4.479467,-4.025765,-4.486225,-4.056,-4.488ZM-3.952,-8.092L-3.928,-8.068Q-3.904,-7.996,-3.856,-8.068Q-3.784,-8.14,-3.856,-8.168C-3.895088,-8.147635,-3.93029,-8.120556,-3.96,-8.088ZM-3.852,-7.252Q-3.876,-7.352,-3.952,-7.252Q-3.936,-7.128,-3.864,-7.248ZM-3.996,-8.596Q-4.068,-8.548,-3.996,-8.524Q-3.912,-8.568,-4.008,-8.592ZM-3.972,-8.02L-3.972,-7.996C-3.973199,-8.047727,-3.989923,-8.097899,-4.02,-8.14C-4.03326,-8.142079,-4.046715,-8.137696,-4.056206,-8.128206C-4.065696,-8.118715,-4.070079,-8.10526,-4.068,-8.092Q-4.08,-8.016,-3.984,-8.016ZM-3.9,-4.084L-4.068,-4.06L-4.044,-4.036Q-4.02,-4.012,-3.944,-4.06C-3.935399,-4.069511,-3.924318,-4.076436,-3.912,-4.08ZM-3.768,-5.9Q-3.84,-5.852,-3.744,-5.828Q-3.672,-5.856,-3.768,-5.9ZM-3.744,-10.844Q-3.792,-10.944,-3.864,-10.82Q-3.768,-10.752,-3.744,-10.848ZM-3.888,-9.284Q-3.864,-9.284,-3.924,-9.356C-3.957746,-9.401058,-4.003489,-9.435712,-4.056,-9.456C-4.094378,-9.472112,-4.137622,-9.472112,-4.176,-9.456Q-4.276,-9.356,-4.032,-9.288Q-3.912,-9.264,-3.888,-9.288ZM-4.224,-11.9L-4.248,-11.948C-4.233851,-11.935894,-4.225195,-11.918583,-4.224,-11.9ZM-4.248,-11.972Q-4.32,-12.044,-4.348,-11.948ZM-4.392,-13.124L-4.392,-13.1C-4.45194,-13.176401,-4.525099,-13.241431,-4.608,-13.292L-4.68,-13.22Q-4.728,-13.12,-4.58,-13.1ZM-4.7,-13.44L-4.676,-13.32L-4.652,-13.344Q-4.632,-13.368,-4.7,-13.44ZM-4.916,-10.94Q-4.892,-10.82,-4.816,-10.892Q-4.848,-11.04,-4.92,-10.944ZM-4.892,-10.388L-4.892,-10.364Q-4.772,-10.412,-4.868,-10.484Q-5.016,-10.464,-4.9,-10.392ZM-4.992,-12.62Q-4.92,-12.644,-4.944,-12.668Q-4.992,-12.72,-4.992,-12.624ZM-5.04,-13.244Q-5.14,-13.244,-5.016,-13.124L-4.968,-13.1Q-4.9,-13.152,-5.04,-13.248ZM-5.016,-11.516L-4.992,-11.492Q-4.944,-11.516,-4.992,-11.564Q-5.092,-11.664,-5.112,-11.564C-5.10723,-11.543932,-5.093483,-11.52718,-5.074732,-11.518585C-5.05598,-11.509991,-5.034316,-11.510513,-5.016,-11.52ZM-5.088,-11.108Q-4.988,-11.108,-5.136,-11.208Q-5.208,-11.136,-5.088,-11.112ZM-5.28,-11.3L-5.16,-11.348Q-5.16,-11.324,-5.184,-11.396L-5.208,-11.564C-5.324395,-11.503102,-5.398089,-11.383349,-5.4,-11.252Q-5.376,-11.232,-5.28,-11.3ZM-5.256,-10.988Q-5.184,-11.012,-5.28,-11.036L-5.352,-11.036Q-5.376,-11.012,-5.28,-10.988ZM-5.328,-10.316Q-5.448,-10.268,-5.352,-10.216Q-5.256,-10.272,-5.328,-10.32ZM-5.352,-8.66Q-5.304,-8.78,-5.424,-8.804Q-5.52,-8.712,-5.352,-8.664ZM-5.252,-8.492C-5.294667,-8.524,-5.353333,-8.524,-5.396,-8.492C-5.364138,-8.47625,-5.33059,-8.464172,-5.296,-8.456Q-5.256,-8.448,-5.256,-8.5ZM-5.352,-9.044Q-5.232,-8.924,-5.232,-9.068C-5.241037,-9.127052,-5.257153,-9.184802,-5.28,-9.24C-5.329392,-9.188631,-5.355436,-9.11918,-5.352,-9.048ZM-5.328,-9.692L-5.3,-9.692Q-5.252,-9.62,-5.228,-9.692Q-5.28,-9.792,-5.328,-9.7ZM-5.16,-11.876L-5.328,-11.924Q-5.376,-11.9,-5.328,-11.824Q-5.28,-11.724,-5.228,-11.8ZM-5.352,-11.492C-5.336279,-11.527537,-5.340862,-11.56878,-5.364,-11.6C-5.384448,-11.639106,-5.432178,-11.655016,-5.472,-11.636Q-5.5,-11.52,-5.352,-11.5ZM-5.568,-9.72Q-5.52,-9.6,-5.424,-9.72Q-5.5,-9.816,-5.568,-9.72ZM-5.4,-6.864Q-5.376,-6.864,-5.352,-6.912ZM-5.328,-8.376Q-5.28,-8.256,-5.228,-8.352Q-5.256,-8.472,-5.328,-8.376ZM-5.184,-6.84Q-5.112,-6.864,-5.208,-6.888C-5.226583,-6.889195,-5.243894,-6.897851,-5.256,-6.912L-5.28,-6.912Q-5.208,-6.84,-5.184,-6.84ZM-5.064,-7.008C-5.068241,-7.054609,-5.037548,-7.097239,-4.992,-7.108Q-5.016,-7.276,-5.064,-7.084ZM-5.04,-7.464L-4.968,-7.584Q-5.04,-7.632,-5.148,-7.56Q-5.256,-7.488,-5.232,-7.416Q-5.208,-7.392,-5.112,-7.44ZM-4.968,-10.008L-4.896,-9.888L-4.872,-9.912L-4.944,-10.012ZM-4.68,-6.576C-4.621769,-6.610164,-4.59258,-6.678272,-4.608,-6.744C-4.648609,-6.74307,-4.686409,-6.723067,-4.710019,-6.690014C-4.733629,-6.65696,-4.740291,-6.614716,-4.728,-6.576ZM-4.512,-5.496Q-4.368,-5.544,-4.512,-5.616Q-4.632,-5.568,-4.512,-5.5ZM-4.368,-4.796L-4.344,-4.796L-4.368,-4.772Q-4.416,-4.7,-4.392,-4.672Q-4.32,-4.696,-4.368,-4.792C-4.318332,-4.781523,-4.27002,-4.765419,-4.224,-4.744L-4.248,-4.696L-4.3,-4.68C-4.258726,-4.649135,-4.205053,-4.640189,-4.156,-4.656Q-4.012,-4.848,-4.276,-4.968Q-4.396,-5.016,-4.396,-4.92C-4.392921,-4.878794,-4.383475,-4.838314,-4.368,-4.8ZM-4.392,-4.316Q-4.344,-4.216,-4.2,-4.34Q-4.08,-4.44,-4.176,-4.508L-4.344,-4.316ZM-4.248,-3.716L-4.224,-3.716Q-4.324,-3.644,-4.224,-3.616L-4.2,-3.64Q-4.128,-3.712,-4.152,-3.74C-4.184709,-3.737367,-4.21696,-3.730648,-4.248,-3.72ZM-4.032,-2.996C-4.010642,-3.015647,-3.98635,-3.031842,-3.96,-3.044C-4.006667,-3.06,-4.057333,-3.06,-4.104,-3.044L-4.104,-3Q-4.1,-2.976,-4.032,-3ZM-3.912,-2.732L-3.888,-2.732Q-3.888,-2.564,-3.72,-2.756Q-3.62,-2.876,-3.672,-2.924C-3.70378,-2.915779,-3.732783,-2.899207,-3.756,-2.876C-3.793847,-2.844719,-3.829904,-2.811333,-3.864,-2.776ZM5.88,-10.92L5.88,-10.896Q5.88,-11.016,5.808,-10.944C5.788995,-10.905658,5.789446,-10.860545,5.809214,-10.822591C5.828982,-10.784636,5.865689,-10.758406,5.908,-10.752C5.90549,-10.808926,5.896088,-10.865337,5.88,-10.92ZM5.78,-11.328L5.804,-11.304C5.82115,-11.323914,5.829772,-11.349779,5.828,-11.376C5.830079,-11.38926,5.825696,-11.402715,5.816206,-11.412206C5.806715,-11.421696,5.79326,-11.426079,5.78,-11.424C5.764023,-11.408195,5.75533,-11.386463,5.756,-11.364Q5.76,-11.328,5.784,-11.328ZM5.828,-11.88L5.852,-11.88Q5.752,-12,5.752,-11.856Q5.832,-11.688,5.832,-11.88ZM5.728,-12.24L5.728,-12.216C5.712023,-12.200195,5.70333,-12.178463,5.704,-12.156Q5.704,-12.12,5.752,-12.096C5.768771,-12.116044,5.773364,-12.143601,5.764,-12.168C5.761023,-12.194011,5.751378,-12.218812,5.736,-12.24ZM5.028,-13.656Q4.86,-13.656,5.004,-13.464Q5.172,-13.272,5.34,-13.344Q5.388,-13.368,5.316,-13.444C5.263463,-13.495899,5.207323,-13.544019,5.148,-13.588C5.116458,-13.617076,5.079853,-13.640124,5.04,-13.656ZM4.98,-10.776Q5.028,-10.656,5.052,-10.776Q5.04,-10.92,4.992,-10.776ZM5.052,-11.016Q5.052,-10.896,5.1,-11.016Q5.088,-11.112,5.064,-11.016ZM5.076,-10.416L5.1,-10.316C5.179719,-10.378409,5.208997,-10.485759,5.172,-10.58C5.130093,-10.533652,5.101122,-10.477091,5.088,-10.416ZM5.176,-11.64C5.145813,-11.61633,5.131827,-11.577479,5.14,-11.54C5.147866,-11.508051,5.169994,-11.481498,5.2,-11.468C5.23148,-11.482901,5.24692,-11.518927,5.236,-11.552C5.233843,-11.587994,5.214489,-11.620748,5.184,-11.64ZM4.984,-12.48Q4.884,-12.432,4.884,-12.36C4.884972,-12.309616,4.906678,-12.261862,4.944,-12.228C4.98198,-12.189817,5.022041,-12.153762,5.064,-12.12Q5.124,-12.072,5.124,-12.048L5.172,-12.408Q5.16,-12.576,4.992,-12.48ZM4.848,-8.76Q4.848,-8.592,4.92,-8.76Q4.9,-8.9,4.848,-8.76ZM4.872,-12.72Q4.944,-12.936,4.68,-12.96L4.752,-12.744Q4.824,-12.648,4.872,-12.72ZM4.68,-13.032Q4.728,-13.132,4.58,-13.152Q4.56,-13.056,4.68,-13.032ZM4.464,-8.832Q4.584,-8.592,4.564,-8.76Q4.56,-8.808,4.464,-8.832ZM4.32,-11.976L4.344,-11.976Q4.272,-11.832,4.464,-11.784C4.464403,-11.830478,4.451944,-11.876162,4.428,-11.916C4.406183,-11.954754,4.36443,-11.97795,4.32,-11.976ZM4.22,-12.624L4.22,-12.552Q4.292,-12.288,4.34,-12.288Q4.364,-12.288,4.388,-12.36C4.410556,-12.477305,4.339155,-12.592243,4.224,-12.624ZM4.604,-11.544Q4.58,-11.616,4.52,-11.58C4.486389,-11.555186,4.439344,-11.560413,4.412,-11.592Q4.436,-11.52,4.556,-11.492Q4.608,-11.472,4.608,-11.544ZM4.604,-11.424Q4.504,-11.352,4.604,-11.256Q4.7,-11.328,4.608,-11.424ZM4.416,-13.44Q4.824,-13.416,4.608,-13.656Q4.416,-13.872,4.296,-13.8L4.224,-13.512L4.2,-13.512C4.274882,-13.497714,4.347523,-13.4735,4.416,-13.44ZM4.224,-13.008L4.2,-13.008Q4.248,-13.008,4.2,-13.056ZM4.176,-14.472Q4.056,-14.52,4.152,-14.4Q4.2,-14.4,4.2,-14.412C4.195144,-14.433118,4.187048,-14.453358,4.176,-14.472ZM4.224,-13.944C4.208131,-14.007828,4.16392,-14.060881,4.104,-14.088Q4.056,-14.088,4.224,-13.944ZM3.792,-14.736L3.72,-14.712C3.75394,-14.668441,3.810713,-14.649517,3.864,-14.664Q3.888,-14.736,3.792,-14.736ZM3.528,-14.088L3.48,-14.088ZM3.312,-15.1L3.192,-15.124Q3.144,-15.124,3.192,-15.1Q3.336,-15.048,3.312,-15.1ZM3.312,-14.188Q3.336,-14.212,3.288,-14.236ZM2.784,-15.556L2.76,-15.556L2.736,-15.58Q2.616,-15.58,2.736,-15.48Q2.836,-15.38,2.88,-15.48ZM2.592,-15.456L2.592,-15.48Q2.448,-15.504,2.568,-15.408Q2.688,-15.384,2.592,-15.456ZM2.136,-15.168Q1.968,-15.144,2.184,-15.096L2.3,-15.096Q2.348,-15.144,2.276,-15.168ZM1.416,-15.048Q1.296,-15.048,1.392,-14.976Q1.512,-14.976,1.416,-15.048ZM1.152,-15L1.128,-15Q1.104,-15,1.128,-15.072Q1.152,-15.144,1.128,-15.144Q1.08,-15.144,0.912,-15Q1.008,-14.9,1.152,-15ZM0.936,-16.008L0.768,-16.032ZM0.6,-15.648Q0.48,-15.624,0.552,-15.528L0.576,-15.552Q0.744,-15.624,0.6,-15.648ZM0.48,-15.528Q0.432,-15.552,0.408,-15.528Q0.408,-15.48,0.552,-15.428Q0.6,-15.48,0.48,-15.528ZM0.36,-15.428L0.36,-15.356Q0.48,-15.212,0.504,-15.256L0.384,-15.4ZM0.1,-15.408Q0.1,-15.432,-0.02,-15.456L-0.072,-15.456Q-0.024,-15.408,-0.172,-15.356Q0.1,-15.312,0.1,-15.408ZM-0.14,-15.552Q-0.24,-15.528,-0.164,-15.452L-0.064,-15.452Q-0.048,-15.528,-0.144,-15.552ZM-0.116,-15.192Q-0.116,-15.292,-0.236,-15.24C-0.265248,-15.22811,-0.284274,-15.199571,-0.284,-15.168C-0.260447,-15.145958,-0.228139,-15.135841,-0.196221,-15.140511C-0.164303,-15.145182,-0.136249,-15.164133,-0.12,-15.192ZM-1.028,-15.456Q-1.148,-15.432,-1.052,-15.384Q-0.912,-15.432,-1.032,-15.456ZM-1.128,-15.264Q-1.228,-15.264,-1.104,-15.216C-1.062448,-15.210547,-1.020258,-15.218985,-0.984,-15.24ZM-1.56,-15.6Q-1.66,-15.528,-1.512,-15.528Q-1.392,-15.6,-1.56,-15.6ZM-1.68,-15.336C-1.794242,-15.270279,-1.899174,-15.189562,-1.992,-15.096C-1.916222,-15.080468,-1.837729,-15.084599,-1.764,-15.108C-1.687949,-15.124347,-1.62002,-15.166802,-1.572,-15.228Q-1.512,-15.312,-1.56,-15.336ZM-1.56,-14.784Q-1.584,-14.832,-1.704,-14.784Q-1.824,-14.736,-1.824,-14.684C-1.809099,-14.65252,-1.773073,-14.63708,-1.74,-14.648C-1.690773,-14.660842,-1.645449,-14.685565,-1.608,-14.72Q-1.536,-14.784,-1.56,-14.784ZM-2.06,-15.048C-2.120626,-15.036687,-2.177997,-15.0121,-2.228,-14.976L-2.204,-14.976Q-2.04,-15.024,-2.064,-15.048ZM-2.18,-14.712Q-2.324,-14.664,-2.18,-14.64Q-2.064,-14.688,-2.184,-14.712ZM-2.66,-15.24Q-2.732,-15.192,-2.684,-15.168L-2.584,-15.168Q-2.5,-15.24,-2.664,-15.24ZM-3.068,-15.96Q-3.188,-15.936,-3.092,-15.888Q-2.976,-15.912,-3.072,-15.96ZM-2.948,-13.8C-3.025952,-13.622513,-3.062868,-13.429729,-3.056,-13.236C-3.063354,-12.947778,-3.055343,-12.659369,-3.032,-12.372Q-3,-11.9,-3,-11.784L-3,-7.44Q-3.048,-3.912,-3.024,-2.016C-1.404859,-2.43048,0.092391,-3.224351,1.344,-4.332C2.54401,-5.412309,3.389039,-6.830452,3.768,-8.4L3.6,-7.752C3.677737,-7.981346,3.741849,-8.215087,3.792,-8.452C4.016259,-9.285447,4.168815,-10.136549,4.248,-10.996C4.296176,-11.377138,4.271746,-11.763952,4.176,-12.136C4.080896,-12.509932,3.926977,-12.866377,3.72,-13.192C3.513864,-13.518059,3.24458,-13.799583,2.928,-14.02C2.265653,-14.401686,1.507559,-14.584961,0.744,-14.548C0.130714,-14.531377,-0.479794,-14.45908,-1.08,-14.332Q-1.128,-14.332,-1.488,-14.272Q-1.848,-14.212,-2.088,-14.152Q-2.328,-14.092,-2.604,-13.996C-2.735132,-13.962193,-2.855116,-13.894615,-2.952,-13.8ZM0.984,-1.872L1.084,-1.944Q1.084,-2.044,0.94,-1.92Q0.888,-1.872,0.9,-1.86Q0.912,-1.848,0.984,-1.872ZM1.608,-2.112L1.608,-2.088C1.580656,-2.119587,1.533611,-2.124814,1.5,-2.1Q1.44,-2.064,1.464,-2.016Q1.488,-1.968,1.584,-2.04C1.596917,-2.062071,1.60509,-2.086593,1.608,-2.112ZM1.536,-1.776L1.656,-1.848Q1.68,-1.92,1.368,-1.9Q1.152,-1.828,1.176,-1.732Q1.176,-1.708,1.236,-1.708C1.272355,-1.707583,1.308624,-1.711613,1.344,-1.72C1.380763,-1.729576,1.416844,-1.741603,1.452,-1.756C1.478772,-1.767048,1.507122,-1.773798,1.536,-1.776ZM1.68,-2.208L1.7,-2.208Q1.82,-2.28,1.676,-2.352C1.641366,-2.370218,1.598593,-2.359953,1.576,-2.328Q1.552,-2.304,1.6,-2.228Q1.656,-2.184,1.68,-2.208ZM1.92,-2.232L1.992,-2.3C2.021336,-2.329147,2.045662,-2.362934,2.064,-2.4C1.989159,-2.374149,1.9341,-2.309914,1.92,-2.232ZM2.088,-2.5L2.112,-2.5Q2.16,-2.6,2.04,-2.548Q1.992,-2.448,2.088,-2.5ZM1.388,-3C2.448711,-3.815837,3.304685,-4.867657,3.888,-6.072C3.08248,-4.914012,2.104493,-3.886114,0.988,-3.024C0.382827,-2.657823,-0.252874,-2.344656,-0.912,-2.088C-1.231912,-1.96003,-1.560798,-1.855749,-1.896,-1.776Q-2.016,-1.752,-2.376,-1.716C-2.548179,-1.711859,-2.716871,-1.6666,-2.868,-1.584C-2.966147,-1.499832,-3.023041,-1.377291,-3.024,-1.248C-1.422173,-1.428033,0.102432,-2.032903,1.392,-3ZM3.6,-5.232Q3.5,-5.232,3.552,-5.132C3.586715,-5.152592,3.605648,-5.192034,3.6,-5.232ZM3.432,-4.872Q3.532,-4.944,3.456,-4.944L3.384,-4.872Q3.384,-4.848,3.432,-4.872ZM2.712,-3.312L2.712,-3.288Q2.448,-3.24,2.448,-3.216Q2.424,-3.192,2.472,-3.168Q2.496,-3.144,2.556,-3.18C2.595309,-3.203464,2.631582,-3.231676,2.664,-3.264ZM2.184,-1.992L2.208,-1.992Q2.308,-2.016,2.256,-2.112Q2.16,-2.04,2.184,-1.992ZM2.448,-2.952Q2.548,-3.096,2.424,-3.052Q2.3,-2.928,2.448,-2.952ZM2.616,-2.544Q2.516,-2.424,2.664,-2.472Q2.808,-2.616,2.616,-2.544ZM2.736,-2.352Q2.808,-2.452,2.664,-2.4Q2.616,-2.3,2.736,-2.352ZM3.024,-3.1Q3.124,-3.1,3.108,-3.136C3.096925,-3.163283,3.075283,-3.184925,3.048,-3.196ZM3.048,-3.244C3.096443,-3.23893,3.144532,-3.230915,3.192,-3.22L3.24,-3.22Q3.072,-3.576,3.048,-3.24ZM3.168,-3.556L3.312,-3.556L3.24,-3.656L3.14,-3.584ZM3.384,-3.724L3.408,-3.724Q3.48,-3.748,3.408,-3.844C3.354684,-3.86384,3.294749,-3.843861,3.264,-3.796C3.297339,-3.761426,3.338493,-3.735362,3.384,-3.72ZM3.484,-4.156L3.5,-4.156Q3.668,-4.3,3.668,-4.372C3.611566,-4.30424,3.528179,-4.264741,3.44,-4.264Q3.284,-4.252,3.284,-4.228Q3.236,-4.156,3.356,-4.128C3.398229,-4.108798,3.447985,-4.118428,3.48,-4.152ZM3.772,-4.036L3.796,-4.036L3.78,-4.14Q3.768,-4.248,3.72,-4.248Q3.672,-4.248,3.66,-4.164C3.652378,-4.109599,3.652378,-4.054401,3.66,-4L3.672,-3.916ZM3.892,-4.612L4.036,-4.78L4.108,-4.88C4.210086,-4.911692,4.272077,-5.01501,4.252,-5.12Q4.228,-5.288,3.988,-5.168Q3.844,-4.976,3.724,-4.784C3.765627,-4.786528,3.804449,-4.805831,3.831589,-4.837495C3.85873,-4.869159,3.871868,-4.910476,3.868,-4.952Q3.892,-4.952,3.868,-4.88C3.865633,-4.859237,3.869829,-4.838255,3.88,-4.82Q3.892,-4.808,3.94,-4.832C3.924665,-4.800668,3.899332,-4.775335,3.868,-4.76C3.84165,-4.747842,3.817358,-4.731647,3.796,-4.712C3.789664,-4.685128,3.796774,-4.656853,3.815067,-4.636174C3.833359,-4.615496,3.860556,-4.604989,3.888,-4.608ZM4.3,-4.588Q4.324,-4.708,4.228,-4.636Q4.2,-4.512,4.3,-4.584ZM4.324,-8.788L4.324,-8.764Q4.372,-8.764,4.372,-8.836ZM4.372,-8.908Q4.396,-8.74,4.444,-8.908L4.444,-8.98Q4.368,-9.024,4.368,-8.9ZM4.42,-6.316L4.42,-6.172C4.459966,-6.166352,4.499408,-6.185285,4.52,-6.22C4.538949,-6.268776,4.529744,-6.324006,4.496,-6.364Q4.464,-6.408,4.416,-6.312ZM4.42,-5.932L4.44,-5.932Q4.416,-5.812,4.488,-5.908Q4.488,-6.048,4.416,-5.928ZM4.564,-5.068L4.564,-5.044Q4.612,-5.164,4.516,-5.092Q4.464,-4.968,4.56,-5.064ZM4.732,-5.836L4.732,-5.812Q4.756,-5.788,4.78,-5.86L4.78,-5.98Q4.78,-6.004,4.732,-5.968C4.702337,-5.946011,4.674267,-5.921951,4.648,-5.896L4.612,-5.86C4.648059,-5.842035,4.687716,-5.832462,4.728,-5.832ZM4.7,-8.976Q4.8,-9.192,4.772,-9.24Q4.7,-9.34,4.652,-9.168L4.676,-8.976ZM4.68,-9.648Q4.704,-9.624,4.728,-9.696Q4.8,-9.768,4.828,-9.768L4.928,-9.984Q4.784,-10.176,4.688,-9.864Q4.632,-9.7,4.68,-9.648ZM4.824,-8.04Q4.824,-7.968,4.872,-8.112Q4.824,-8.112,4.824,-8.04ZM4.896,-8.14L4.896,-8.116Q4.968,-8.068,4.996,-8.092C5.028439,-8.143994,5.052721,-8.200652,5.068,-8.26C5.100239,-8.31136,5.100239,-8.37664,5.068,-8.428Q4.872,-8.376,4.9,-8.136ZM5.112,-9.532L5.112,-9.5Q5.064,-9.548,5.064,-9.476L5.112,-9.356Q5.136,-9.356,5.136,-9.404C5.155202,-9.446229,5.145572,-9.495985,5.112,-9.528ZM5.304,-10.372L5.244,-10.312C5.201751,-10.269021,5.16543,-10.220593,5.136,-10.168Q5.088,-10.084,5.136,-10.06L5.196,-10.132C5.236828,-10.178796,5.270525,-10.231362,5.296,-10.288Q5.328,-10.368,5.3,-10.368ZM5.184,-8.072C5.210039,-8.068091,5.235196,-8.083185,5.244,-8.108C5.25281,-8.128555,5.248038,-8.152414,5.232,-8.168Q5.136,-8.136,5.184,-8.064ZM5.284,-7.28L5.284,-7.256C5.314006,-7.269498,5.336134,-7.296051,5.344,-7.328C5.35305,-7.361633,5.34875,-7.397463,5.332,-7.428Q5.208,-7.368,5.28,-7.272ZM5.428,-6.464C5.443977,-6.479805,5.45267,-6.501537,5.452,-6.524C5.45267,-6.546463,5.443977,-6.568195,5.428,-6.584Q5.352,-6.6,5.352,-6.5C5.365112,-6.472318,5.393385,-6.455041,5.424,-6.456ZM5.428,-7.736Q5.528,-7.76,5.476,-7.856Q5.352,-7.824,5.424,-7.728ZM5.472,-10.8L5.472,-10.776Q5.52,-10.632,5.544,-10.824Q5.5,-10.944,5.472,-10.8ZM5.572,-11.256L5.572,-11.232C5.54052,-11.217099,5.52508,-11.181073,5.536,-11.148C5.541135,-11.111903,5.56352,-11.080565,5.596,-11.064Q5.62,-11.064,5.632,-11.112C5.640468,-11.144796,5.640468,-11.179204,5.632,-11.212C5.625505,-11.24118,5.597571,-11.260385,5.568,-11.256ZM5.672,-9.528L5.64,-9.528Q5.688,-9.552,5.688,-9.588C5.68867,-9.610463,5.679977,-9.632195,5.664,-9.648Q5.616,-9.624,5.616,-9.588Q5.616,-9.552,5.664,-9.528ZM5.672,-10.248L5.672,-10.224Q5.672,-10.032,5.84,-10.2L5.912,-10.272Q5.912,-10.32,5.84,-10.372C5.795416,-10.402298,5.746989,-10.426511,5.696,-10.444Q5.624,-10.468,5.596,-10.444C5.590367,-10.372046,5.615014,-10.301005,5.664,-10.248ZM5.744,-9.816C5.765876,-9.826233,5.781585,-9.846254,5.786322,-9.869936C5.791058,-9.893617,5.784257,-9.91814,5.768,-9.936C5.744832,-9.927441,5.727268,-9.908157,5.720904,-9.884292C5.714541,-9.860428,5.72017,-9.834959,5.736,-9.816ZM5.864,-9.216Q5.84,-9.116,5.888,-9.116C5.924223,-9.137218,5.949978,-9.172557,5.959085,-9.213537C5.968191,-9.254517,5.959827,-9.297438,5.936,-9.332C5.885062,-9.317387,5.851558,-9.268806,5.856,-9.216ZM5.9,-8.4L5.9,-8.376C5.930006,-8.389498,5.952134,-8.416051,5.96,-8.448C5.969319,-8.477776,5.953413,-8.50959,5.924,-8.52C5.907468,-8.503095,5.895137,-8.482543,5.888,-8.46C5.87919,-8.439445,5.883962,-8.415586,5.9,-8.4ZM6,-10.824C6.045887,-10.836908,6.079206,-10.876574,6.084,-10.924C6.090915,-10.974841,6.078027,-11.026395,6.048,-11.068Q6.024,-11.068,5.976,-11.02Q5.928,-10.848,6,-10.824ZM6.144,-10.68L6.12,-10.68C6.147283,-10.691075,6.168925,-10.712717,6.18,-10.74Q6.192,-10.776,6.144,-10.8C6.127468,-10.783095,6.115137,-10.762543,6.108,-10.74Q6.1,-10.7,6.144,-10.68ZM-4.728,-6.58L-4.728,-6.58Z" transform="matrix(1 0 0 1 71 80)" opacity="0.762" fill="rgb(0,0,0)" stroke="none" stroke-width="1"/></g></g></g><script><![CDATA[!function(t,n){"object"==typeof exports&&"undefined"!=typeof module?module.exports=n():"function"==typeof define&&define.amd?define(n):((t="undefined"!=typeof globalThis?globalThis:t||self).__SVGATOR_PLAYER__=t.__SVGATOR_PLAYER__||{},t.__SVGATOR_PLAYER__["91c80d77"]=n())}(this,(function(){"use strict";function t(t,n){var e=Object.keys(t);if(Object.getOwnPropertySymbols){var r=Object.getOwnPropertySymbols(t);n&&(r=r.filter((function(n){return Object.getOwnPropertyDescriptor(t,n).enumerable}))),e.push.apply(e,r)}return e}function n(n){for(var e=1;e<arguments.length;e++){var r=null!=arguments[e]?arguments[e]:{};e%2?t(Object(r),!0).forEach((function(t){o(n,t,r[t])})):Object.getOwnPropertyDescriptors?Object.defineProperties(n,Object.getOwnPropertyDescriptors(r)):t(Object(r)).forEach((function(t){Object.defineProperty(n,t,Object.getOwnPropertyDescriptor(r,t))}))}return n}function e(t){return(e="function"==typeof Symbol&&"symbol"==typeof Symbol.iterator?function(t){return typeof t}:function(t){return t&&"function"==typeof Symbol&&t.constructor===Symbol&&t!==Symbol.prototype?"symbol":typeof t})(t)}function r(t,n){if(!(t instanceof n))throw new TypeError("Cannot call a class as a function")}function i(t,n){for(var e=0;e<n.length;e++){var r=n[e];r.enumerable=r.enumerable||!1,r.configurable=!0,"value"in r&&(r.writable=!0),Object.defineProperty(t,r.key,r)}}function u(t,n,e){return n&&i(t.prototype,n),e&&i(t,e),t}function o(t,n,e){return n in t?Object.defineProperty(t,n,{value:e,enumerable:!0,configurable:!0,writable:!0}):t[n]=e,t}function a(t){return(a=Object.setPrototypeOf?Object.getPrototypeOf:function(t){return t.__proto__||Object.getPrototypeOf(t)})(t)}function l(t,n){return(l=Object.setPrototypeOf||function(t,n){return t.__proto__=n,t})(t,n)}function s(){if("undefined"==typeof Reflect||!Reflect.construct)return!1;if(Reflect.construct.sham)return!1;if("function"==typeof Proxy)return!0;try{return Boolean.prototype.valueOf.call(Reflect.construct(Boolean,[],(function(){}))),!0}catch(t){return!1}}function f(t,n,e){return(f=s()?Reflect.construct:function(t,n,e){var r=[null];r.push.apply(r,n);var i=new(Function.bind.apply(t,r));return e&&l(i,e.prototype),i}).apply(null,arguments)}function c(t,n){if(n&&("object"==typeof n||"function"==typeof n))return n;if(void 0!==n)throw new TypeError("Derived constructors may only return object or undefined");return function(t){if(void 0===t)throw new ReferenceError("this hasn't been initialised - super() hasn't been called");return t}(t)}function h(t,n,e){return(h="undefined"!=typeof Reflect&&Reflect.get?Reflect.get:function(t,n,e){var r=function(t,n){for(;!Object.prototype.hasOwnProperty.call(t,n)&&null!==(t=a(t)););return t}(t,n);if(r){var i=Object.getOwnPropertyDescriptor(r,n);return i.get?i.get.call(e):i.value}})(t,n,e||t)}function v(t){return function(t){if(Array.isArray(t))return d(t)}(t)||function(t){if("undefined"!=typeof Symbol&&null!=t[Symbol.iterator]||null!=t["@@iterator"])return Array.from(t)}(t)||function(t,n){if(!t)return;if("string"==typeof t)return d(t,n);var e=Object.prototype.toString.call(t).slice(8,-1);"Object"===e&&t.constructor&&(e=t.constructor.name);if("Map"===e||"Set"===e)return Array.from(t);if("Arguments"===e||/^(?:Ui|I)nt(?:8|16|32)(?:Clamped)?Array$/.test(e))return d(t,n)}(t)||function(){throw new TypeError("Invalid attempt to spread non-iterable instance.\nIn order to be iterable, non-array objects must have a [Symbol.iterator]() method.")}()}function d(t,n){(null==n||n>t.length)&&(n=t.length);for(var e=0,r=new Array(n);e<n;e++)r[e]=t[e];return r}var y=g(Math.pow(10,-6));function g(t){var n=arguments.length>1&&void 0!==arguments[1]?arguments[1]:6;if(Number.isInteger(t))return t;var e=Math.pow(10,n);return Math.round((+t+Number.EPSILON)*e)/e}function p(t,n){var e=arguments.length>2&&void 0!==arguments[2]?arguments[2]:y;return Math.abs(t-n)<e}var m=Math.PI/180;function b(t){return t}function w(t,n,e){var r=1-e;return 3*e*r*(t*r+n*e)+e*e*e}function A(){var t=arguments.length>0&&void 0!==arguments[0]?arguments[0]:0,n=arguments.length>1&&void 0!==arguments[1]?arguments[1]:0,e=arguments.length>2&&void 0!==arguments[2]?arguments[2]:1,r=arguments.length>3&&void 0!==arguments[3]?arguments[3]:1;return t<0||t>1||e<0||e>1?null:p(t,n)&&p(e,r)?b:function(i){if(i<=0)return t>0?i*n/t:0===n&&e>0?i*r/e:0;if(i>=1)return e<1?1+(i-1)*(r-1)/(e-1):1===e&&t<1?1+(i-1)*(n-1)/(t-1):1;for(var u,o=0,a=1;o<a;){var l=w(t,e,u=(o+a)/2);if(p(i,l))break;l<i?o=u:a=u}return w(n,r,u)}}function x(){return 1}function k(t){return 1===t?1:0}function _(){var t=arguments.length>0&&void 0!==arguments[0]?arguments[0]:1,n=arguments.length>1&&void 0!==arguments[1]?arguments[1]:0;if(1===t){if(0===n)return k;if(1===n)return x}var e=1/t;return function(t){return t>=1?1:(t+=n*e)-t%e}}var S=Math.sin,O=Math.cos,M=Math.acos,E=Math.asin,j=Math.tan,P=Math.atan2,I=Math.PI/180,B=180/Math.PI,R=Math.sqrt,T=function(){function t(){var n=arguments.length>0&&void 0!==arguments[0]?arguments[0]:1,e=arguments.length>1&&void 0!==arguments[1]?arguments[1]:0,i=arguments.length>2&&void 0!==arguments[2]?arguments[2]:0,u=arguments.length>3&&void 0!==arguments[3]?arguments[3]:1,o=arguments.length>4&&void 0!==arguments[4]?arguments[4]:0,a=arguments.length>5&&void 0!==arguments[5]?arguments[5]:0;r(this,t),this.m=[n,e,i,u,o,a],this.i=null,this.w=null,this.s=null}return u(t,[{key:"determinant",get:function(){var t=this.m;return t[0]*t[3]-t[1]*t[2]}},{key:"isIdentity",get:function(){if(null===this.i){var t=this.m;this.i=1===t[0]&&0===t[1]&&0===t[2]&&1===t[3]&&0===t[4]&&0===t[5]}return this.i}},{key:"point",value:function(t,n){var e=this.m;return{x:e[0]*t+e[2]*n+e[4],y:e[1]*t+e[3]*n+e[5]}}},{key:"translateSelf",value:function(){var t=arguments.length>0&&void 0!==arguments[0]?arguments[0]:0,n=arguments.length>1&&void 0!==arguments[1]?arguments[1]:0;if(!t&&!n)return this;var e=this.m;return e[4]+=e[0]*t+e[2]*n,e[5]+=e[1]*t+e[3]*n,this.w=this.s=this.i=null,this}},{key:"rotateSelf",value:function(){var t=arguments.length>0&&void 0!==arguments[0]?arguments[0]:0;if(t%=360){var n=S(t*=I),e=O(t),r=this.m,i=r[0],u=r[1];r[0]=i*e+r[2]*n,r[1]=u*e+r[3]*n,r[2]=r[2]*e-i*n,r[3]=r[3]*e-u*n,this.w=this.s=this.i=null}return this}},{key:"scaleSelf",value:function(){var t=arguments.length>0&&void 0!==arguments[0]?arguments[0]:1,n=arguments.length>1&&void 0!==arguments[1]?arguments[1]:1;if(1!==t||1!==n){var e=this.m;e[0]*=t,e[1]*=t,e[2]*=n,e[3]*=n,this.w=this.s=this.i=null}return this}},{key:"skewSelf",value:function(t,n){if(n%=360,(t%=360)||n){var e=this.m,r=e[0],i=e[1],u=e[2],o=e[3];t&&(t=j(t*I),e[2]+=r*t,e[3]+=i*t),n&&(n=j(n*I),e[0]+=u*n,e[1]+=o*n),this.w=this.s=this.i=null}return this}},{key:"resetSelf",value:function(){var t=arguments.length>0&&void 0!==arguments[0]?arguments[0]:1,n=arguments.length>1&&void 0!==arguments[1]?arguments[1]:0,e=arguments.length>2&&void 0!==arguments[2]?arguments[2]:0,r=arguments.length>3&&void 0!==arguments[3]?arguments[3]:1,i=arguments.length>4&&void 0!==arguments[4]?arguments[4]:0,u=arguments.length>5&&void 0!==arguments[5]?arguments[5]:0,o=this.m;return o[0]=t,o[1]=n,o[2]=e,o[3]=r,o[4]=i,o[5]=u,this.w=this.s=this.i=null,this}},{key:"recomposeSelf",value:function(){var t=arguments.length>0&&void 0!==arguments[0]?arguments[0]:null,n=arguments.length>1&&void 0!==arguments[1]?arguments[1]:null,e=arguments.length>2&&void 0!==arguments[2]?arguments[2]:null,r=arguments.length>3&&void 0!==arguments[3]?arguments[3]:null,i=arguments.length>4&&void 0!==arguments[4]?arguments[4]:null;return this.isIdentity||this.resetSelf(),t&&(t.x||t.y)&&this.translateSelf(t.x,t.y),n&&this.rotateSelf(n),e&&(e.x&&this.skewSelf(e.x,0),e.y&&this.skewSelf(0,e.y)),!r||1===r.x&&1===r.y||this.scaleSelf(r.x,r.y),i&&(i.x||i.y)&&this.translateSelf(i.x,i.y),this}},{key:"decompose",value:function(){var t=arguments.length>0&&void 0!==arguments[0]?arguments[0]:0,n=arguments.length>1&&void 0!==arguments[1]?arguments[1]:0,e=this.m,r=e[0]*e[0]+e[1]*e[1],i=[[e[0],e[1]],[e[2],e[3]]],u=R(r);if(0===u)return{origin:{x:g(e[4]),y:g(e[5])},translate:{x:g(t),y:g(n)},scale:{x:0,y:0},skew:{x:0,y:0},rotate:0};i[0][0]/=u,i[0][1]/=u;var o=e[0]*e[3]-e[1]*e[2]<0;o&&(u=-u);var a=i[0][0]*i[1][0]+i[0][1]*i[1][1];i[1][0]-=i[0][0]*a,i[1][1]-=i[0][1]*a;var l=R(i[1][0]*i[1][0]+i[1][1]*i[1][1]);if(0===l)return{origin:{x:g(e[4]),y:g(e[5])},translate:{x:g(t),y:g(n)},scale:{x:g(u),y:0},skew:{x:0,y:0},rotate:0};i[1][0]/=l,i[1][1]/=l,a/=l;var s=0;return i[1][1]<0?(s=M(i[1][1])*B,i[0][1]<0&&(s=360-s)):s=E(i[0][1])*B,o&&(s=-s),a=P(a,R(i[0][0]*i[0][0]+i[0][1]*i[0][1]))*B,o&&(a=-a),{origin:{x:g(e[4]),y:g(e[5])},translate:{x:g(t),y:g(n)},scale:{x:g(u),y:g(l)},skew:{x:g(a),y:0},rotate:g(s)}}},{key:"clone",value:function(){var t=this.m;return new this.constructor(t[0],t[1],t[2],t[3],t[4],t[5])}},{key:"toString",value:function(){var t=arguments.length>0&&void 0!==arguments[0]?arguments[0]:" ";return null===this.s&&(this.s="matrix("+this.m.map((function(t){return g(t)})).join(t)+")"),this.s}}],[{key:"create",value:function(t){return t?Array.isArray(t)?f(this,v(t)):t instanceof this?t.clone():(new this).recomposeSelf(t.origin,t.rotate,t.skew,t.scale,t.translate):new this}}]),t}();function N(t,n,e){return t>=.5?e:n}function C(t,n,e){return 0===t||n===e?n:t*(e-n)+n}function F(t,n,e){var r=C(t,n,e);return r<=0?0:r}function L(t,n,e){var r=C(t,n,e);return r<=0?0:r>=1?1:r}function q(t,n,e){return 0===t?n:1===t?e:{x:C(t,n.x,e.x),y:C(t,n.y,e.y)}}function V(t,n,e){return 0===t?n:1===t?e:{x:F(t,n.x,e.x),y:F(t,n.y,e.y)}}function D(t,n,e){var r=function(t,n,e){return Math.round(C(t,n,e))}(t,n,e);return r<=0?0:r>=255?255:r}function z(t,n,e){return 0===t?n:1===t?e:{r:D(t,n.r,e.r),g:D(t,n.g,e.g),b:D(t,n.b,e.b),a:C(t,null==n.a?1:n.a,null==e.a?1:e.a)}}function Y(t,n,e){var r=n.length;if(r!==e.length)return N(t,n,e);for(var i=new Array(r),u=0;u<r;u++)i[u]=C(t,n[u],e[u]);return i}function G(t,n){for(var e=[],r=0;r<t;r++)e.push(n);return e}function U(t,n){if(--n<=0)return t;var e=(t=Object.assign([],t)).length;do{for(var r=0;r<e;r++)t.push(t[r])}while(--n>0);return t}var $,W=function(){function t(n){r(this,t),this.list=n,this.length=n.length}return u(t,[{key:"setAttribute",value:function(t,n){for(var e=this.list,r=0;r<this.length;r++)e[r].setAttribute(t,n)}},{key:"removeAttribute",value:function(t){for(var n=this.list,e=0;e<this.length;e++)n[e].removeAttribute(t)}},{key:"style",value:function(t,n){for(var e=this.list,r=0;r<this.length;r++)e[r].style[t]=n}}]),t}(),H=/-./g,Q=function(t,n){return n.toUpperCase()};function X(t){return"function"==typeof t?t:N}function J(t){return t?"function"==typeof t?t:Array.isArray(t)?function(t){var n=arguments.length>1&&void 0!==arguments[1]?arguments[1]:b;if(!Array.isArray(t))return n;switch(t.length){case 1:return _(t[0])||n;case 2:return _(t[0],t[1])||n;case 4:return A(t[0],t[1],t[2],t[3])||n}return n}(t,null):function(t,n){var e=arguments.length>2&&void 0!==arguments[2]?arguments[2]:b;switch(t){case"linear":return b;case"steps":return _(n.steps||1,n.jump||0)||e;case"bezier":case"cubic-bezier":return A(n.x1||0,n.y1||0,n.x2||0,n.y2||0)||e}return e}(t.type,t.value,null):null}function Z(t,n,e){var r=arguments.length>3&&void 0!==arguments[3]&&arguments[3],i=n.length-1;if(t<=n[0].t)return r?[0,0,n[0].v]:n[0].v;if(t>=n[i].t)return r?[i,1,n[i].v]:n[i].v;var u,o=n[0],a=null;for(u=1;u<=i;u++){if(!(t>n[u].t)){a=n[u];break}o=n[u]}return null==a?r?[i,1,n[i].v]:n[i].v:o.t===a.t?r?[u,1,a.v]:a.v:(t=(t-o.t)/(a.t-o.t),o.e&&(t=o.e(t)),r?[u,t,e(t,o.v,a.v)]:e(t,o.v,a.v))}function K(t,n){var e=arguments.length>2&&void 0!==arguments[2]?arguments[2]:null;return t&&t.length?"function"!=typeof n?null:("function"!=typeof e&&(e=null),function(r){var i=Z(r,t,n);return null!=i&&e&&(i=e(i)),i}):null}function tt(t,n){return t.t-n.t}function nt(t,n,r,i,u){var o,a="@"===r[0],l="#"===r[0],s=$[r],f=N;switch(a?(o=r.substr(1),r=o.replace(H,Q)):l&&(r=r.substr(1)),e(s)){case"function":if(f=s(i,u,Z,J,r,a,n,t),l)return f;break;case"string":f=K(i,X(s));break;case"object":if((f=K(i,X(s.i),s.f))&&"function"==typeof s.u)return s.u(n,f,r,a,t)}return f?function(t,n,e){if(arguments.length>3&&void 0!==arguments[3]&&arguments[3])return t instanceof W?function(r){return t.style(n,e(r))}:function(r){return t.style[n]=e(r)};if(Array.isArray(n)){var r=n.length;return function(i){var u=e(i);if(null==u)for(var o=0;o<r;o++)t[o].removeAttribute(n);else for(var a=0;a<r;a++)t[a].setAttribute(n,u)}}return function(r){var i=e(r);null==i?t.removeAttribute(n):t.setAttribute(n,i)}}(n,r,f,a):null}function et(t,n,r,i){if(!i||"object"!==e(i))return null;var u=null,o=null;return Array.isArray(i)?o=function(t){if(!t||!t.length)return null;for(var n=0;n<t.length;n++)t[n].e&&(t[n].e=J(t[n].e));return t.sort(tt)}(i):(o=i.keys,u=i.data||null),o?nt(t,n,r,o,u):null}function rt(t,n,e){if(!e)return null;var r=[];for(var i in e)if(e.hasOwnProperty(i)){var u=et(t,n,i,e[i]);u&&r.push(u)}return r.length?r:null}function it(t,n){if(!n.duration||n.duration<0)return null;var e=function(t,n){if(!n)return null;var e=[];if(Array.isArray(n))for(var r=n.length,i=0;i<r;i++){var u=n[i];if(2===u.length){var o=null;if("string"==typeof u[0])o=t.getElementById(u[0]);else if(Array.isArray(u[0])){o=[];for(var a=0;a<u[0].length;a++)if("string"==typeof u[0][a]){var l=t.getElementById(u[0][a]);l&&o.push(l)}o=o.length?1===o.length?o[0]:new W(o):null}if(o){var s=rt(t,o,u[1]);s&&(e=e.concat(s))}}}else for(var f in n)if(n.hasOwnProperty(f)){var c=t.getElementById(f);if(c){var h=rt(t,c,n[f]);h&&(e=e.concat(h))}}return e.length?e:null}(t,n.elements);return e?function(t,n){var e=arguments.length>2&&void 0!==arguments[2]?arguments[2]:1/0,r=arguments.length>3&&void 0!==arguments[3]?arguments[3]:1,i=arguments.length>4&&void 0!==arguments[4]&&arguments[4],u=arguments.length>5&&void 0!==arguments[5]?arguments[5]:1,o=t.length,a=r>0?n:0;i&&e%2==0&&(a=n-a);var l=null;return function(s,f){var c=s%n,h=1+(s-c)/n;f*=r,i&&h%2==0&&(f=-f);var v=!1;if(h>e)c=a,v=!0,-1===u&&(c=r>0?0:n);else if(f<0&&(c=n-c),c===l)return!1;l=c;for(var d=0;d<o;d++)t[d](c);return v}}(e,n.duration,n.iterations||1/0,n.direction||1,!!n.alternate,n.fill||1):null}function ut(t){return+("0x"+(t.replace(/[^0-9a-fA-F]+/g,"")||27))}function ot(t,n,e){return!t||!e||n>t.length?t:t.substring(0,n)+ot(t.substring(n+1),e,e)}function at(t){var n=arguments.length>1&&void 0!==arguments[1]?arguments[1]:27;return!t||t%n?t%n:at(t/n,n)}function lt(t,n,e){if(t&&t.length){var r=ut(e),i=ut(n),u=at(r)+5,o=ot(t,at(r,5),u);return o=o.replace(/\x7c$/g,"==").replace(/\x2f$/g,"="),o=function(t,n,e){var r=+("0x"+t.substring(0,4));t=t.substring(4);for(var i=n%r+e%27,u=[],o=0;o<t.length;o+=2)if("|"!==t[o]){var a=+("0x"+t[o]+t[o+1])-i;u.push(a)}else{var l=+("0x"+t.substring(o+1,o+1+4))-i;o+=3,u.push(l)}return String.fromCharCode.apply(String,u)}(o=(o=atob(o)).replace(/[\x41-\x5A]/g,""),i,r),o=JSON.parse(o)}}Number.isInteger||(Number.isInteger=function(t){return"number"==typeof t&&isFinite(t)&&Math.floor(t)===t}),Number.EPSILON||(Number.EPSILON=2220446049250313e-31);var st=function(){function t(n,e){var i=arguments.length>2&&void 0!==arguments[2]?arguments[2]:{};r(this,t),this._id=0,this._running=!1,this._rollingBack=!1,this._animations=n,this.duration=e.duration,this.alternate=e.alternate,this.fill=e.fill,this.iterations=e.iterations,this.direction=i.direction||1,this.speed=i.speed||1,this.fps=i.fps||100,this.offset=i.offset||0,this.rollbackStartOffset=0}return u(t,[{key:"_rollback",value:function(){var t=this,n=1/0,e=null;this.rollbackStartOffset=this.offset,this._rollingBack||(this._rollingBack=!0,this._running=!0);this._id=window.requestAnimationFrame((function r(i){if(t._rollingBack){null==e&&(e=i);var u=i-e,o=t.rollbackStartOffset-u,a=Math.round(o*t.speed);if(a>t.duration&&n!=1/0){var l=!!t.alternate&&a/t.duration%2>1,s=a%t.duration;a=(s+=l?t.duration:0)||t.duration}var f=t.fps?1e3/t.fps:0,c=Math.max(0,a);if(c<n-f){t.offset=c,n=c;for(var h=t._animations,v=h.length,d=0;d<v;d++)h[d](c,t.direction)}var y=!1;if(t.iterations>0&&-1===t.fill){var g=t.iterations*t.duration,p=g==a;a=p?0:a,t.offset=p?0:t.offset,y=a>g}a>0&&t.offset>=a&&!y?t._id=window.requestAnimationFrame(r):t.stop()}}))}},{key:"_start",value:function(){var t=this,n=arguments.length>0&&void 0!==arguments[0]?arguments[0]:0,e=-1/0,r=null,i={},u=function u(o){t._running=!0,null==r&&(r=o);var a=Math.round((o-r+n)*t.speed),l=t.fps?1e3/t.fps:0;if(a>e+l&&!t._rollingBack){t.offset=a,e=a;for(var s=t._animations,f=s.length,c=0,h=0;h<f;h++)i[h]?c++:(i[h]=s[h](a,t.direction),i[h]&&c++);if(c===f)return void t._stop()}t._id=window.requestAnimationFrame(u)};this._id=window.requestAnimationFrame(u)}},{key:"_stop",value:function(){this._id&&window.cancelAnimationFrame(this._id),this._running=!1,this._rollingBack=!1}},{key:"play",value:function(){!this._rollingBack&&this._running||(this._rollingBack=!1,this.rollbackStartOffset>this.duration&&(this.offset=this.rollbackStartOffset-(this.rollbackStartOffset-this.offset)%this.duration,this.rollbackStartOffset=0),this._start(this.offset))}},{key:"stop",value:function(){this._stop(),this.offset=0,this.rollbackStartOffset=0;var t=this.direction,n=this._animations;window.requestAnimationFrame((function(){for(var e=0;e<n.length;e++)n[e](0,t)}))}},{key:"reachedToEnd",value:function(){return this.iterations>0&&this.offset>=this.iterations*this.duration}},{key:"restart",value:function(){this._stop(),this.offset=0,this._start()}},{key:"pause",value:function(){this._stop()}},{key:"reverse",value:function(){this.direction=-this.direction}}],[{key:"build",value:function(e,r){return delete e.animationSettings,e.options=lt(e.options,e.root,"91c80d77"),e.animations.map((function(t){var r=lt(t.s,e.root,"91c80d77");for(var i in delete t.s,e.animationSettings||(e.animationSettings=n({},r)),r)r.hasOwnProperty(i)&&(t[i]=r[i])})),(e=function(t,n){if($=n,!t||!t.root||!Array.isArray(t.animations))return null;for(var e=document.getElementsByTagName("svg"),r=!1,i=0;i<e.length;i++)if(e[i].id===t.root&&!e[i].svgatorAnimation){(r=e[i]).svgatorAnimation=!0;break}if(!r)return null;var u=t.animations.map((function(t){return it(r,t)})).filter((function(t){return!!t}));return u.length?{element:r,animations:u,animationSettings:t.animationSettings,options:t.options||void 0}:null}(e,r))?{el:e.element,options:e.options||{},player:new t(e.animations,e.animationSettings,e.options)}:null}},{key:"push",value:function(t){return this.build(t)}},{key:"init",value:function(){var t=this,n=window.__SVGATOR_PLAYER__&&window.__SVGATOR_PLAYER__["91c80d77"];Array.isArray(n)&&n.splice(0).forEach((function(n){return t.build(n)}))}}]),t}();!function(){for(var t=0,n=["ms","moz","webkit","o"],e=0;e<n.length&&!window.requestAnimationFrame;++e)window.requestAnimationFrame=window[n[e]+"RequestAnimationFrame"],window.cancelAnimationFrame=window[n[e]+"CancelAnimationFrame"]||window[n[e]+"CancelRequestAnimationFrame"];window.requestAnimationFrame||(window.requestAnimationFrame=function(n){var e=Date.now(),r=Math.max(0,16-(e-t)),i=window.setTimeout((function(){n(e+r)}),r);return t=e+r,i},window.cancelAnimationFrame=window.clearTimeout)}();var ft=function(t,n){var e=!1,r=null;return function(i){e&&clearTimeout(e),e=setTimeout((function(){return function(){for(var i=0,u=window.innerHeight,o=0,a=window.innerWidth,l=t.parentNode;l instanceof Element;){var s=window.getComputedStyle(l);if("visible"!==s.overflowY||"visible"!==s.overflowX){var f=l.getBoundingClientRect();"visible"!==s.overflowY&&(i=Math.max(i,f.top),u=Math.min(u,f.bottom)),"visible"!==s.overflowX&&(o=Math.max(o,f.left),a=Math.min(a,f.right))}if(l===l.parentNode)break;l=l.parentNode}e=!1;var c=t.getBoundingClientRect(),h=Math.min(c.height,Math.max(0,i-c.top)),v=Math.min(c.height,Math.max(0,c.bottom-u)),d=Math.min(c.width,Math.max(0,o-c.left)),y=Math.min(c.width,Math.max(0,c.right-a)),g=(c.height-h-v)/c.height,p=(c.width-d-y)/c.width,m=Math.round(g*p*100);null!==r&&r===m||(r=m,n(m))}()}),100)}},ct=function(){function t(n,e,i){r(this,t),e=Math.max(1,e||1),e=Math.min(e,100),this.el=n,this.onTresholdChange=i&&i.call?i:function(){},this.tresholdPercent=e||1,this.currentVisibility=null,this.visibilityCalculator=ft(n,this.onVisibilityUpdate.bind(this)),this.bindScrollWatchers(),this.visibilityCalculator()}return u(t,[{key:"bindScrollWatchers",value:function(){for(var t=this.el.parentNode;t&&(t.addEventListener("scroll",this.visibilityCalculator),t!==t.parentNode&&t!==document);)t=t.parentNode}},{key:"onVisibilityUpdate",value:function(t){var n=this.currentVisibility>=this.tresholdPercent,e=t>=this.tresholdPercent;if(null===this.currentVisibility||n!==e)return this.currentVisibility=t,void this.onTresholdChange(e);this.currentVisibility=t}}]),t}();function ht(t){return g(t)+""}function vt(t){var n=arguments.length>1&&void 0!==arguments[1]?arguments[1]:" ";return t&&t.length?t.map(ht).join(n):""}function dt(t){return ht(t.x)+","+ht(t.y)}function yt(t){return t?null==t.a||t.a>=1?"rgb("+t.r+","+t.g+","+t.b+")":"rgba("+t.r+","+t.g+","+t.b+","+t.a+")":"transparent"}function gt(t){return t?"url(#"+t+")":"none"}var pt={f:null,i:V,u:function(t,n){return function(e){var r=n(e);t.setAttribute("rx",ht(r.x)),t.setAttribute("ry",ht(r.y))}}},mt={f:null,i:function(t,n,e){return 0===t?n:1===t?e:{width:F(t,n.width,e.width),height:F(t,n.height,e.height)}},u:function(t,n){return function(e){var r=n(e);t.setAttribute("width",ht(r.width)),t.setAttribute("height",ht(r.height))}}};Object.freeze({M:2,L:2,Z:0,H:1,V:1,C:6,Q:4,T:2,S:4,A:7});var bt={},wt=null;function At(t){var n=function(){if(wt)return wt;if("object"!==("undefined"==typeof document?"undefined":e(document))||!document.createElementNS)return{};var t=document.createElementNS("http://www.w3.org/2000/svg","svg");return t&&t.style?(t.style.position="absolute",t.style.opacity="0.01",t.style.zIndex="-9999",t.style.left="-9999px",t.style.width="1px",t.style.height="1px",wt={svg:t}):{}}().svg;if(!n)return function(t){return null};var r=document.createElementNS(n.namespaceURI,"path");r.setAttributeNS(null,"d",t),r.setAttributeNS(null,"fill","none"),r.setAttributeNS(null,"stroke","none"),n.appendChild(r);var i=r.getTotalLength();return function(t){var n=r.getPointAtLength(i*t);return{x:n.x,y:n.y}}}function xt(t){return bt[t]?bt[t]:bt[t]=At(t)}function kt(t,n,e,r){if(!t||!r)return!1;var i=["M",t.x,t.y];if(n&&e&&(i.push("C"),i.push(n.x),i.push(n.y),i.push(e.x),i.push(e.y)),n?!e:e){var u=n||e;i.push("Q"),i.push(u.x),i.push(u.y)}return n||e||i.push("L"),i.push(r.x),i.push(r.y),i.join(" ")}function _t(t,n,e,r){var i=arguments.length>4&&void 0!==arguments[4]?arguments[4]:1,u=kt(t,n,e,r),o=xt(u);try{return o(i)}catch(t){return null}}function St(t,n,e,r){var i=1-r;return i*i*t+2*i*r*n+r*r*e}function Ot(t,n,e,r){return 2*(1-r)*(n-t)+2*r*(e-n)}function Mt(t,n,e,r){var i=arguments.length>4&&void 0!==arguments[4]&&arguments[4],u=_t(t,n,null,e,r);return u||(u={x:St(t.x,n.x,e.x,r),y:St(t.y,n.y,e.y,r)}),i&&(u.a=Et(t,n,e,r)),u}function Et(t,n,e,r){return Math.atan2(Ot(t.y,n.y,e.y,r),Ot(t.x,n.x,e.x,r))}function jt(t,n,e,r,i){var u=i*i;return i*u*(r-t+3*(n-e))+3*u*(t+e-2*n)+3*i*(n-t)+t}function Pt(t,n,e,r,i){var u=1-i;return 3*(u*u*(n-t)+2*u*i*(e-n)+i*i*(r-e))}function It(t,n,e,r,i){var u=arguments.length>5&&void 0!==arguments[5]&&arguments[5],o=_t(t,n,e,r,i);return o||(o={x:jt(t.x,n.x,e.x,r.x,i),y:jt(t.y,n.y,e.y,r.y,i)}),u&&(o.a=Bt(t,n,e,r,i)),o}function Bt(t,n,e,r,i){return Math.atan2(Pt(t.y,n.y,e.y,r.y,i),Pt(t.x,n.x,e.x,r.x,i))}function Rt(t,n,e){return t+(n-t)*e}function Tt(t,n,e){var r=arguments.length>3&&void 0!==arguments[3]&&arguments[3],i={x:Rt(t.x,n.x,e),y:Rt(t.y,n.y,e)};return r&&(i.a=Nt(t,n)),i}function Nt(t,n){return Math.atan2(n.y-t.y,n.x-t.x)}function Ct(t,n,e){var r=arguments.length>3&&void 0!==arguments[3]&&arguments[3];if(Lt(n)){if(qt(e))return Mt(n,e.start,e,t,r)}else if(Lt(e)){if(n.end)return Mt(n,n.end,e,t,r)}else{if(n.end)return e.start?It(n,n.end,e.start,e,t,r):Mt(n,n.end,e,t,r);if(e.start)return Mt(n,e.start,e,t,r)}return Tt(n,e,t,r)}function Ft(t,n,e){var r=Ct(t,n,e,!0);return r.a=function(t){return arguments.length>1&&void 0!==arguments[1]&&arguments[1]?t+Math.PI:t}(r.a)/m,r}function Lt(t){return!t.type||"corner"===t.type}function qt(t){return null!=t.start&&!Lt(t)}var Vt=new T;var Dt={f:function(t){return t?t.join(" "):""},i:function(t,n,r){if(0===t)return n;if(1===t)return r;var i=n.length;if(i!==r.length)return N(t,n,r);for(var u,o=new Array(i),a=0;a<i;a++){if((u=e(n[a]))!==e(r[a]))return N(t,n,r);if("number"===u)o[a]=C(t,n[a],r[a]);else{if(n[a]!==r[a])return N(t,n,r);o[a]=n[a]}}return o}},zt={f:null,i:Y,u:function(t,n){return function(e){var r=n(e);t.setAttribute("x1",ht(r[0])),t.setAttribute("y1",ht(r[1])),t.setAttribute("x2",ht(r[2])),t.setAttribute("y2",ht(r[3]))}}},Yt={f:ht,i:C},Gt={f:ht,i:L},Ut={f:function(t){var n=arguments.length>1&&void 0!==arguments[1]?arguments[1]:" ";return t&&t.length>0&&(t=t.map((function(t){return g(t,4)}))),vt(t,n)},i:function(t,n,e){var r,i,u,o=n.length,a=e.length;if(o!==a)if(0===o)n=G(o=a,0);else if(0===a)a=o,e=G(o,0);else{var l=(u=(r=o)*(i=a)/function(t,n){for(var e;n;)e=n,n=t%n,t=e;return t||1}(r,i))<0?-u:u;n=U(n,Math.floor(l/o)),e=U(e,Math.floor(l/a)),o=a=l}for(var s=[],f=0;f<o;f++)s.push(g(F(t,n[f],e[f])));return s}};function $t(t,n,e){return t.map((function(t){return function(t,n,e){var r=t.v;if(!r||"g"!==r.t||r.s||!r.v||!r.r)return t;var i=e.getElementById(r.r),u=i&&i.querySelectorAll("stop")||[];return r.s=r.v.map((function(t,n){var e=u[n]&&u[n].getAttribute("offset");return{c:t,o:e=g(parseInt(e)/100)}})),delete r.v,t}(t,0,e)}))}var Wt={gt:"gradientTransform",c:{x:"cx",y:"cy"},rd:"r",f:{x:"x1",y:"y1"},to:{x:"x2",y:"y2"}};function Ht(t,n,r,i,u,o,a,l){return $t(t,0,l),n=function(t,n,e){for(var r,i,u,o=t.length-1,a={},l=0;l<=o;l++)(r=t[l]).e&&(r.e=n(r.e)),r.v&&"g"===(i=r.v).t&&i.r&&(u=e.getElementById(i.r))&&(a[i.r]={e:u,s:u.querySelectorAll("stop")});return a}(t,i,l),function(i){var u=r(i,t,Qt);if(!u)return"none";if("c"===u.t)return yt(u.v);if("g"===u.t){if(!n[u.r])return gt(u.r);var o=n[u.r];return function(t,n){for(var e=t.s,r=e.length;r<n.length;r++){var i=e[e.length-1].cloneNode();i.id=Zt(i.id),t.e.appendChild(i),e=t.s=t.e.querySelectorAll("stop")}for(var u=0,o=e.length,a=n.length-1;u<o;u++)e[u].setAttribute("stop-color",yt(n[Math.min(u,a)].c)),e[u].setAttribute("offset",n[Math.min(u,a)].o)}(o,u.s),Object.keys(Wt).forEach((function(t){if(void 0!==u[t])if("object"!==e(Wt[t])){var n,r="gt"===t?(n=u[t],Array.isArray(n)?"matrix("+n.join(" ")+")":""):u[t],i=Wt[t];o.e.setAttribute(i,r)}else Object.keys(Wt[t]).forEach((function(n){if(void 0!==u[t][n]){var e=u[t][n],r=Wt[t][n];o.e.setAttribute(r,e)}}))})),gt(u.r)}return"none"}}function Qt(t,e,r){if(0===t)return e;if(1===t)return r;if(e&&r){var i=e.t;if(i===r.t)switch(e.t){case"c":return{t:i,v:z(t,e.v,r.v)};case"g":if(e.r===r.r){var u={t:i,s:Xt(t,e.s,r.s),r:e.r};return e.gt&&r.gt&&(u.gt=Y(t,e.gt,r.gt)),e.c?(u.c=q(t,e.c,r.c),u.rd=F(t,e.rd,r.rd)):e.f&&(u.f=q(t,e.f,r.f),u.to=q(t,e.to,r.to)),u}}if("c"===e.t&&"g"===r.t||"c"===r.t&&"g"===e.t){var o="c"===e.t?e:r,a="g"===e.t?n({},e):n({},r),l=a.s.map((function(t){return{c:o.v,o:t.o}}));return a.s="c"===e.t?Xt(t,l,a.s):Xt(t,a.s,l),a}}return N(t,e,r)}function Xt(t,n,e){if(n.length===e.length)return n.map((function(n,r){return Jt(t,n,e[r])}));for(var r=Math.max(n.length,e.length),i=[],u=0;u<r;u++){var o=Jt(t,n[Math.min(u,n.length-1)],e[Math.min(u,e.length-1)]);i.push(o)}return i}function Jt(t,n,e){return{o:L(t,n.o,e.o||0),c:z(t,n.c,e.c||{})}}function Zt(t){return t.replace(/-fill-([0-9]+)$/,(function(t,n){return"-fill-"+(+n+1)}))}var Kt={blur:V,brightness:F,contrast:F,"drop-shadow":function(t,n,e){return 0===t?n:1===t?e:{blur:V(t,n.blur,e.blur),offset:q(t,n.offset,e.offset),color:z(t,n.color,e.color)}},grayscale:F,"hue-rotate":C,invert:F,opacity:F,saturate:F,sepia:F};function tn(t,n,e){if(0===t)return n;if(1===t)return e;var r=n.length;if(r!==e.length)return N(t,n,e);for(var i,u=[],o=0;o<r;o++){if(n[o].type!==e[o].type)return n;if(!(i=Kt[n[o].type]))return N(t,n,e);u.push({type:n.type,value:i(t,n[o].value,e[o].value)})}return u}var nn={blur:function(t){return t?function(n){t.setAttribute("stdDeviation",dt(n))}:null},brightness:function(t,n,e){return(t=rn(e,n))?function(n){n=ht(n),t.map((function(t){return t.setAttribute("slope",n)}))}:null},contrast:function(t,n,e){return(t=rn(e,n))?function(n){var e=ht((1-n)/2);n=ht(n),t.map((function(t){t.setAttribute("slope",n),t.setAttribute("intercept",e)}))}:null},"drop-shadow":function(t,n,e){var r=e.getElementById(n+"-blur");if(!r)return null;var i=e.getElementById(n+"-offset");if(!i)return null;var u=e.getElementById(n+"-flood");return u?function(t){r.setAttribute("stdDeviation",dt(t.blur)),i.setAttribute("dx",ht(t.offset.x)),i.setAttribute("dy",ht(t.offset.y)),u.setAttribute("flood-color",yt(t.color))}:null},grayscale:function(t){return t?function(n){t.setAttribute("values",vt(function(t){return[.2126+.7874*(t=1-t),.7152-.7152*t,.0722-.0722*t,0,0,.2126-.2126*t,.7152+.2848*t,.0722-.0722*t,0,0,.2126-.2126*t,.7152-.7152*t,.0722+.9278*t,0,0,0,0,0,1,0]}(n)))}:null},"hue-rotate":function(t){return t?function(n){return t.setAttribute("values",ht(n))}:null},invert:function(t,n,e){return(t=rn(e,n))?function(n){n=ht(n)+" "+ht(1-n),t.map((function(t){return t.setAttribute("tableValues",n)}))}:null},opacity:function(t,n,e){return(t=e.getElementById(n+"-A"))?function(n){return t.setAttribute("tableValues","0 "+ht(n))}:null},saturate:function(t){return t?function(n){return t.setAttribute("values",ht(n))}:null},sepia:function(t){return t?function(n){return t.setAttribute("values",vt(function(t){return[.393+.607*(t=1-t),.769-.769*t,.189-.189*t,0,0,.349-.349*t,.686+.314*t,.168-.168*t,0,0,.272-.272*t,.534-.534*t,.131+.869*t,0,0,0,0,0,1,0]}(n)))}:null}};var en=["R","G","B"];function rn(t,n){var e=en.map((function(e){return t.getElementById(n+"-"+e)||null}));return-1!==e.indexOf(null)?null:e}var un={fill:Ht,"fill-opacity":Gt,stroke:Ht,"stroke-opacity":Gt,"stroke-width":Yt,"stroke-dashoffset":{f:ht,i:C},"stroke-dasharray":Ut,opacity:Gt,transform:function(t,n,r,i){if(!(t=function(t,n){if(!t||"object"!==e(t))return null;var r=!1;for(var i in t)t.hasOwnProperty(i)&&(t[i]&&t[i].length?(t[i].forEach((function(t){t.e&&(t.e=n(t.e))})),r=!0):delete t[i]);return r?t:null}(t,i)))return null;var u=function(e,i,u){var o=arguments.length>3&&void 0!==arguments[3]?arguments[3]:null;return t[e]?r(i,t[e],u):n&&n[e]?n[e]:o};return n&&n.a&&t.o?function(n){var e=r(n,t.o,Ft);return Vt.recomposeSelf(e,u("r",n,C,0)+e.a,u("k",n,q),u("s",n,q),u("t",n,q)).toString()}:function(t){return Vt.recomposeSelf(u("o",t,Ct,null),u("r",t,C,0),u("k",t,q),u("s",t,q),u("t",t,q)).toString()}},"#filter":function(t,n,e,r,i,u,o,a){if(!n.items||!t||!t.length)return null;var l=function(t,n){var e=(t=t.map((function(t){return t&&nn[t[0]]?(n.getElementById(t[1]),nn[t[0]](n.getElementById(t[1]),t[1],n)):null}))).length;return function(n){for(var r=0;r<e;r++)t[r]&&t[r](n[r].value)}}(n.items,a);return l?(t=function(t,n){return t.map((function(t){return t.e=n(t.e),t}))}(t,r),function(n){l(e(n,t,tn))}):null},"#line":zt,points:{f:vt,i:Y},d:Dt,r:Yt,"#size":mt,"#radius":pt,_:function(t,n){if(Array.isArray(t))for(var e=0;e<t.length;e++)this[t[e]]=n;else this[t]=n}},on=function(t){!function(t,n){if("function"!=typeof n&&null!==n)throw new TypeError("Super expression must either be null or a function");t.prototype=Object.create(n&&n.prototype,{constructor:{value:t,writable:!0,configurable:!0}}),n&&l(t,n)}(o,t);var n,e,i=(n=o,e=s(),function(){var t,r=a(n);if(e){var i=a(this).constructor;t=Reflect.construct(r,arguments,i)}else t=r.apply(this,arguments);return c(this,t)});function o(){return r(this,o),i.apply(this,arguments)}return u(o,null,[{key:"build",value:function(t){var n=h(a(o),"build",this).call(this,t,un);if(!n)return null;var e=n.el,r=n.options,i=n.player;return function(t,n,e){if("click"===e.start){var r=function(){switch(e.click){case"freeze":return!t._running&&t.reachedToEnd()&&(t.offset=0),t._running?t.pause():t.play();case"restart":return t.offset>0?t.restart():t.play();case"reverse":var n=!t._rollingBack&&t._running,r=t.reachedToEnd();return n||r&&1===t.fill?(t.pause(),r&&(t.offset=t.duration-1),t._rollback()):r?t.restart():t.play();case"none":default:return!t._running&&t.offset?t.restart():t.play()}};return void n.addEventListener("click",r)}if("hover"===e.start)return n.addEventListener("mouseenter",(function(){return t.reachedToEnd()?t.restart():t.play()})),void n.addEventListener("mouseleave",(function(){switch(e.hover){case"freeze":return t.pause();case"reset":return t.stop();case"reverse":return t.pause(),t._rollback();case"none":default:return}}));if("scroll"===e.start)return void new ct(n,e.scroll||25,(function(n){n?t.reachedToEnd()?t.restart():t.play():t.pause()}));t.play()}(i,e,r),i}}]),o}(st);return on.init(),on}));
(function(s,i,o,w){w[o]=w[o]||{};w[o][s]=w[o][s]||[];w[o][s].push(i);})('91c80d77',{"root":"eeil4cmYOx61","animations":[{"elements":{"eeil4cmYOx62":{"transform":{"keys":{"o":[{"t":0,"v":{"x":-7264,"y":-16699,"type":"corner"},"e":[0.42,0,0.58,1]},{"t":800,"v":{"x":-7264,"y":-16693,"type":"corner"},"e":[0.42,0,0.58,1]},{"t":2000,"v":{"x":-7264,"y":-16700,"type":"corner"},"e":[0.42,0,0.58,1]},{"t":3000,"v":{"x":-7264,"y":-16699,"type":"corner"}}]}}},"eeil4cmYOx610":{"transform":{"data":{"o":{"x":70.003,"y":136,"type":"corner"},"t":{"x":-40.559996,"y":-41.36}},"keys":{"r":[{"t":0,"v":8.015718,"e":[0.42,0,0.58,1]},{"t":800,"v":-4.543643,"e":[0.42,0,0.58,1]},{"t":1700,"v":13.371553,"e":[0.42,0,0.58,1]},{"t":2400,"v":-7.544329,"e":[0.42,0,0.58,1]},{"t":3000,"v":8.015718}],"s":[{"t":0,"v":{"x":1,"y":1},"e":[0.42,0,0.58,1]},{"t":1300,"v":{"x":1.083714,"y":1.083714},"e":[0.42,0,0.58,1]},{"t":3000,"v":{"x":1,"y":1}}]}}},"eeil4cmYOx624":{"transform":{"keys":{"o":[{"t":0,"v":{"x":7288,"y":16034,"type":"corner"},"e":[0.42,0,0.58,1]},{"t":1100,"v":{"x":7288,"y":16027,"type":"corner"},"e":[0.42,0,0.58,1]},{"t":3000,"v":{"x":7288,"y":16034,"type":"corner"}}]}}}},"s":"MDSA1Mzg4MmZRNSzE4MjdmNmU4EMTc2N2M3YjJHmNDc0MDNkM2QQzZDM5MmY3MWTc2N2Y3MjcwWVTgxNzY3YzdEiTzJmNDczZTWM5QzJmNzY4MSTcyN2Y2ZU44XMTc2N2M3YjgNwRzJmNDczZDJM5MmY3M1k3NOjc5NzkyZjQ3UM2UzOTJmNmUA3OTgxNzI3ZjPdiNmVQQzgxNVzIyZkw0NzczFNmU3OTgwVDcQyMzkyZjgwN2UQ3MjcyNzEyZRjQ3M2U4YQ|"}],"options":"MDBAxMDgyMjlONO2E3YjY4Nzk3PYjI5NDFOMjkC3Mzc2Njg2YjXI5ODQ/"},'__SVGATOR_PLAYER__',window)]]></script></svg>