<svg cache-id="96e52f22aa424208af2aa4bb6a5eb197" id="eAVfrBJyOls1" xmlns="http://www.w3.org/2000/svg" xmlns:xlink="http://www.w3.org/1999/xlink" viewBox="0 0 159 221" shape-rendering="geometricPrecision" text-rendering="geometricPrecision"><defs><linearGradient id="eAVfrBJyOls22-fill" x1="1" y1="0.539" x2="0" y2="0.533" spreadMethod="pad" gradientUnits="objectBoundingBox" gradientTransform="matrix(1 0 0 1 0 0)"><stop id="eAVfrBJyOls22-fill-0" offset="0%" stop-color="rgba(0,0,0,0)"/><stop id="eAVfrBJyOls22-fill-1" offset="100%" stop-color="rgb(0,0,0)"/></linearGradient><linearGradient id="eAVfrBJyOls23-fill" x1="0" y1="0.539" x2="1" y2="0.533" spreadMethod="pad" gradientUnits="objectBoundingBox" gradientTransform="matrix(1 0 0 1 0 0)"><stop id="eAVfrBJyOls23-fill-0" offset="0%" stop-color="rgba(0,0,0,0)"/><stop id="eAVfrBJyOls23-fill-1" offset="100%" stop-color="rgb(0,0,0)"/></linearGradient></defs><g id="eAVfrBJyOls2" transform="matrix(1 0 0 1 -7264 -16699)"><rect id="eAVfrBJyOls3" width="159" height="221" rx="0" ry="0" transform="matrix(1 0 0 1 7264 16699)" fill="none" stroke="none" stroke-width="1"/><g id="eAVfrBJyOls4" transform="matrix(1 0 0 1 -15 674)"><g id="eAVfrBJyOls5" transform="matrix(1 0 0 1 7288 16034)"><g id="eAVfrBJyOls6"><rect id="eAVfrBJyOls7" width="141" height="204" rx="3" ry="3" fill="rgb(255,15,15)" stroke="none" stroke-width="2"/><rect id="eAVfrBJyOls8" width="139" height="202" rx="2" ry="2" transform="matrix(1 0 0 1 1 1)" fill="none" stroke="rgb(255,206,25)" stroke-width="2"/></g><path id="eAVfrBJyOls9" d="M3.563,0L65.321,0C66.265966,0,67.172229,0.375386,67.840421,1.043579C68.508614,1.711771,68.884,2.618034,68.884,3.563L68.884,199.525L3.563,199.525C2.618034,199.525,1.711771,199.149614,1.043579,198.481421C0.375386,197.813229,0,196.906966,0,195.962L0,3.563C0,2.618034,0.375386,1.711771,1.043579,1.043579C1.711771,0.375386,2.618034,0,3.563,0Z" transform="matrix(1 0 0 1 2.375 2.375)" fill="rgb(213,19,19)" stroke="none" stroke-width="1"/><g id="eAVfrBJyOls10" transform="matrix(0.913092 0.167399 -0.167399 0.913092 39.934817 91.361604)"><g id="eAVfrBJyOls11" transform="matrix(1 0 0 1 -38.44 -103.64)"><g id="eAVfrBJyOls12" transform="matrix(1 0 0 1 38 104)"><circle id="eAVfrBJyOls13" r="41" transform="matrix(1 0 0 1 41 41)" fill="rgb(144,2,0)" stroke="none" stroke-width="1"/><circle id="eAVfrBJyOls14" r="40.5" transform="matrix(1 0 0 1 41 41)" fill="none" stroke="rgb(255,206,25)" stroke-width="1"/></g></g><g id="eAVfrBJyOls15" transform="matrix(1 0 0 1 16.204 14.57)"><path id="eAVfrBJyOls16" d="M0.758,30.811L0.814,30.851L0.962,30.643L0.909,30.6L0.758,30.807ZM3.058,29.178C3.146067,29.063225,3.244845,28.957081,3.353,28.861C3.48217,28.787799,3.618561,28.728148,3.76,28.683C3.91078,28.370525,4.234556,28.179257,4.581,28.198C4.691127,28.184691,4.795186,28.140293,4.881,28.07C5.496,27.617,6.111,27.17,6.711,26.693C6.828,26.601,7.023,26.547,7.021,26.331C7.021,26.3,7.121,26.266,7.169,26.231C7.244,26.182,7.386,26.131,7.382,26.085C7.371,25.934,7.431,25.925,7.548,25.938C7.578,25.938,7.641,25.901,7.648,25.877C7.688,25.383,8.2,25.309,8.44,24.99C8.633978,24.758971,8.84926,24.546702,9.083,24.356C9.183,24.263,9.315,24.201,9.411,24.105C9.848598,23.652052,10.238635,23.155459,10.575,22.623C10.713,22.415,10.85,22.206,11,22.007C11.565777,21.286766,12.048183,20.504785,12.438,19.676C12.611988,19.296757,12.81527,18.931651,13.046,18.584C13.336249,18.032194,13.526198,17.433228,13.607,16.815C13.53326,16.817599,13.460235,16.830387,13.39,16.853C12.935071,17.118693,12.456326,17.341326,11.96,17.518C11.39152,17.739301,10.840041,18.002006,10.31,18.304C9.766,18.58,9.229,18.874,8.687,19.156C8.393,19.309,8.087,19.433,7.804,19.61C7.583,19.75,7.414,19.969,7.199,20.117C6.67699,20.434374,6.497205,21.106365,6.791,21.642C6.856809,22.00975,6.964511,22.368754,7.112,22.712C7.18306,22.854741,7.153531,23.027062,7.039,23.138C6.769,23.475,6.531,23.838,6.239,24.155C5.947,24.472,5.639,24.724,5.328,25.001C5.289521,25.042579,5.237318,25.068858,5.181,25.075C4.763,25.043,4.329,25.188,3.927,24.929C3.713198,24.800013,3.483633,24.699179,3.244,24.629C2.934,24.529,2.844,24.244,2.731,24.011C2.606538,23.687124,2.405471,23.398219,2.145,23.169C2.045226,23.075594,1.980909,22.950495,1.963,22.815C1.925283,22.567572,1.912885,22.316943,1.926,22.067C1.979105,21.383304,1.840589,20.698339,1.526,20.089C1.155369,19.313219,1.145855,18.413444,1.5,17.63C1.597479,17.413439,1.752419,17.227719,1.948,17.093C2.178477,16.957106,2.323087,16.71244,2.331,16.445C2.326,16.111,2.55,15.918,2.744,15.667C2.973,15.839,3.186,15.99,3.387,16.155C3.755858,16.531472,4.301409,16.675442,4.808,16.53C5.59,16.281,6.389,16.082,7.158,15.8C8.509926,15.322462,9.887796,14.921821,11.285,14.6C12.095,14.4,12.892,14.152,13.691,13.908C13.834444,13.832917,13.972151,13.747352,14.103,13.652C14.233121,13.597989,14.366762,13.552885,14.503,13.517C14.676,13.262,14.829,12.999,15.019,12.766C15.3683,12.350139,15.814837,12.026915,16.319,11.825C16.674599,11.632377,17.076009,11.540409,17.48,11.559C17.788081,11.57997,18.068919,11.74293,18.24,12C18.38579,12.249045,18.55524,12.483462,18.746,12.7C18.950312,12.884156,19.175121,13.044207,19.416,13.177C19.831136,13.40053,20.234348,13.645529,20.624,13.911C20.920006,14.118693,21.156785,14.399932,21.311,14.727C21.500881,15.126375,21.754534,15.492163,22.062,15.81C22.134816,15.912744,22.223211,16.003501,22.324,16.079C22.775461,16.451167,23.136536,16.920975,23.38,17.453C23.480482,17.76558,23.509194,18.096792,23.464,18.422C23.46625,18.559004,23.447705,18.695557,23.409,18.827C23.357179,19.083695,23.271074,19.332256,23.153,19.566C22.89732,19.985402,22.528066,20.323798,22.088,20.542C21.807887,20.70192,21.476704,20.747082,21.164,20.668C20.664,20.514,20.658,20.519,20.427,21.004C20.412887,21.028087,20.395748,21.050267,20.376,21.07C19.97173,20.963832,19.541088,21.050182,19.209,21.304C19.03064,21.451059,18.870503,21.618917,18.732,21.804C18.57,22.023,18.332,22.184,18.15,22.39C17.876,22.701,17.615,23.025,17.359,23.351C17.197,23.559,17.054,23.781,16.886,24.021C16.953559,24.102351,17.026382,24.179183,17.104,24.251C17.631,24.684,18.17,25.103,18.69,25.544C19.09,25.885,19.49,26.236,19.865,26.607C20.89601,27.544154,21.830053,28.582724,22.653,29.707C22.934225,30.01801,23.105045,30.413075,23.139,30.831C23.142288,30.936873,23.103448,31.039727,23.031,31.117C22.510672,31.458199,22.073038,31.911207,21.75,32.443C21.494858,32.793233,21.149156,33.067374,20.75,33.236C20.418342,33.369678,20.041434,33.325203,19.75,33.118C19.344,32.906,18.944,32.679,18.541,32.458C18.529,32.452,18.517,32.439,18.505,32.439C18.336397,32.449794,18.167125,32.442755,18,32.418C17.829,32.371,17.682,32.258,17.484,32.336C17.304552,32.3962,17.106747,32.334033,16.994,32.182C16.512676,31.76094,16.094694,31.272564,15.753,30.732C15.566754,30.387409,15.330904,30.072043,15.053,29.796C15.046481,29.881209,15.046481,29.966791,15.053,30.052C15.107593,30.547678,15.099867,31.048243,15.03,31.542C14.968,32.093,14.97,32.653,14.947,33.209Q14.882,34.774,14.818,36.339C14.795,36.882,14.743,37.425,14.757,37.967C14.768007,38.67562,14.818753,39.383064,14.909,40.086C14.976933,40.580675,14.962063,41.083207,14.865,41.573C14.802114,42.042267,14.814266,42.51855,14.901,42.984C15.014506,43.64325,14.992046,44.318745,14.835,44.969C14.749267,45.30645,14.699654,45.652059,14.687,46C14.642,46.751,14.608,47.5,14.597,48.255C14.591224,48.964639,14.493408,49.67053,14.306,50.355C14.175,50.824,14.044,51.292,13.916,51.761C13.874,51.92,13.816,52.043,13.616,52.061C13.546,52.066,13.478,52.138,13.416,52.187C13.373,52.219,13.345,52.287,13.299,52.3C12.976845,52.419776,12.648745,52.522912,12.316,52.609C12.170681,52.630739,12.028388,52.669332,11.892,52.724C11.77,52.781,11.525,52.795,11.458,52.724C11.266,52.507,11.112,52.656,10.94,52.724C10.68,52.459,10.324,52.55,10.031,52.524C9.679439,52.515029,9.346074,52.680028,9.14,52.965C9.06346,52.741241,8.922144,52.545278,8.734,52.402C8.603,52.314,8.588,52.028,8.555,51.826C8.488,51.4,8.445,50.971,8.391,50.544C8.390239,50.502649,8.385551,50.461464,8.377,50.421C8.104,49.651,7.868,48.866,7.546,48.121C7.038448,47.052581,6.793972,45.878204,6.833,44.696C6.831268,44.04024,6.993156,43.394408,7.304,42.817C7.542,42.429,7.711,41.999,7.933,41.601C8.029565,41.447783,8.147409,41.309064,8.283,41.189C9.362848,40.180416,10.225751,38.962281,10.819,37.609C10.879,37.468,10.955,37.335,11.025,37.198C11.192874,36.863073,11.291828,36.497863,11.316,36.124C11.416,34.891,11.555,33.662,11.69,32.432C11.748,31.894,11.817,31.355,11.9,30.819C11.939,30.573,12.028,30.337,12.085,30.093C12.207,29.569,12.324,29.042,12.458,28.46C12.25327,28.492541,12.057691,28.567842,11.884,28.681C10.833,29.381,9.795,30.11,8.734,30.799C8.365,31.039,7.934,31.175,7.548,31.399C6.811928,31.757846,6.047294,32.054869,5.262,32.287C5.24,32.296,5.209,32.281,5.147,32.272L5.304,31.967L4.733,32.179C4.612521,32.101109,4.481531,32.040834,4.344,32C4.026193,32.003271,3.709791,31.957396,3.406,31.864C3.299,31.816,3.085,31.973,2.936,32.064C2.818,32.135,2.726,32.249,2.564,32.184C2.208485,32.081726,1.825385,32.17446,1.556,32.428C1.201,32.66,1.103,32.667,0.884,32.334C0.716,32.081,0.584,31.818,0.264,31.706C0.176,31.675,0.12,31.551,-0.001,31.412L0.621,31.2C0.621,31.1,0.621,31.007,0.621,30.911C0.576783,30.567724,0.774805,30.239207,1.099,30.118C1.268703,30.024172,1.427933,29.912543,1.574,29.785C1.64956,29.749186,1.728656,29.721369,1.81,29.702C1.698,30.12,1.233,30.111,1.138,30.471L3.038,29.187C3.038,29.187,3.05,29.173,3.05,29.173Z" transform="matrix(1 0 0 1 0 0.96)" fill="rgb(255,206,25)" stroke="none" stroke-width="1"/><path id="eAVfrBJyOls17" d="M26.715,38.6C26.675745,39.06014,26.690512,39.523295,26.759,39.98C26.807,40.213,26.868,40.366,27.076,40.411C27.084,40.572,27.091,40.705,27.1,40.878C27.258,40.846,27.377,40.824,27.5,40.796C27.7,40.749,27.9,40.683,28.105,40.652C28.584,40.578,29.074,40.558,29.542,40.443C29.950922,40.360232,30.374638,40.389954,30.768,40.529C30.9,40.567,31.038,40.59,31.174,40.618C31.321805,40.661531,31.48157,40.629354,31.601,40.532C31.487,39.732,31.379,38.971,31.271,38.208L31.085,38.232C31.058,38.061,31.036,37.917,31.008,37.739L26.719,38.601ZM31.533,31.773C30.31801,32.167951,29.213863,32.845106,28.311,33.749C27.492229,34.536922,26.99361,35.599694,26.911,36.733C27.089,36.711,27.264,36.696,27.438,36.668C28.208,36.543,28.976,36.413,29.746,36.291C30.062,36.241,30.381,36.201,30.699,36.171C30.907,36.15,30.999,36.054,30.977,35.845C30.951,35.57,30.922,35.295,30.913,35.019C30.907639,34.913369,30.934868,34.808643,30.991,34.719C31.237609,34.380969,31.398232,33.987991,31.459,33.574C31.636609,32.990102,31.662081,32.370506,31.533,31.774ZM33.426,40.336C33.564,40.36,33.605,40.372,33.645,40.373C34.761223,40.374905,35.856421,40.676766,36.816,41.247C37.235151,41.555189,37.573736,41.959981,37.803,42.427C37.846,42.491,37.803,42.611,37.803,42.704C37.763058,42.960654,37.753659,43.221135,37.775,43.48C37.802915,43.656154,37.767484,43.8365,37.675,43.989C37.575,44.213,37.452,44.43,37.375,44.663C37.354084,44.765497,37.386447,44.871617,37.461,44.945C37.695325,45.10592,37.965562,45.206872,38.248,45.239C38.219,45.053,38.199,44.918,38.177,44.784C38.018508,43.878141,37.959158,42.957713,38,42.039C38.055,40.775,38.134,39.511,38.245,38.25C38.353,37.004,38.528,35.764,38.645,34.519C38.74792,33.903607,38.74792,33.275393,38.645,32.66C38.470101,31.995673,38.038443,31.428043,37.445,31.082C37.134245,30.862832,36.762239,30.747345,36.382,30.752C35.50409,30.743974,34.628119,30.835899,33.771,31.026C33.64,31.058,33.514,31.106,33.424,31.134C33.682,31.782,33.924,32.394,34.168,33.011L34.368,32.906C34.417836,33.114581,34.498024,33.314715,34.606,33.5C34.766873,33.692352,34.850931,33.937401,34.842,34.188C34.891291,34.77047,35.135427,35.319336,35.535,35.746C35.747,36.031,36.012,36.277,36.29,36.581C36.162,36.702,36.076,36.838,35.952,36.893C35.643,37.031,35.341,37.258,34.939,37.031C34.639,37.877,34.339,38.691,34.044,39.522L33.651,39.422C33.571,39.738,33.499,40.022,33.42,40.342ZM35.291,46.407L33.541,45.638C33.371498,45.894509,33.089182,46.054079,32.782,46.067C31.12997,46.432849,29.414993,46.404415,27.776,45.984C27.537,45.911,27.284,45.884,27.038,45.837C26.776561,45.772486,26.500123,45.840941,26.299,46.02C26.177764,46.107042,26.034051,46.157377,25.885,46.165C25.668456,46.184381,25.450419,46.179349,25.235,46.15C24.79,46.088,24.518,46.357,24.222,46.641C24.120654,46.55784,24.011861,46.484195,23.897,46.421C23.803747,46.376202,23.698477,46.362868,23.597,46.383C23.167,46.505,23.169,46.512,22.904,46.189C22.878034,46.157256,22.847738,46.129317,22.814,46.106C22.784354,46.093637,22.752991,46.08588,22.721,46.083C22.555,46.149,22.594,46.525,22.283,46.397C21.8286,45.5992,21.579797,44.700895,21.559,43.783C21.525,43.383,21.459,42.983,21.398,42.583C21.373957,42.506263,21.327667,42.438394,21.265,42.388C20.904,42.048,20.82,41.862,21.077,41.488C21.386283,40.942203,21.49255,40.304602,21.377,39.688C21.364535,39.563311,21.364535,39.437689,21.377,39.313C21.439509,38.967165,21.36022,38.610724,21.157,38.324C21.044269,38.09543,21.03373,37.829782,21.128,37.593C21.179682,37.319592,21.271686,37.055376,21.401,36.809C21.740359,36.080317,22.018648,35.324723,22.233,34.55C22.44,33.961,22.593,33.35,22.779,32.756C22.984152,32.23703,23.29547,31.766647,23.693,31.375C23.937,31.093,24.209,30.836,24.493,30.542C25.635,31.311,25.693,32.589,25.934,33.829C26.023996,33.803412,26.11036,33.766447,26.191,33.719C26.376,33.572,26.555,33.419,26.728,33.254C27.557592,32.528473,28.509801,31.956538,29.54,31.565C30.282,31.253,31.02,30.921,31.78,30.665C32.589639,30.36838,33.430368,30.16474,34.286,30.058C34.839,30.002,35.386,29.889,35.933,29.786C36.103237,29.7794,36.258937,29.688231,36.348,29.543C36.383,29.476,36.502,29.443,36.588,29.415C36.826,29.337,37.07,29.275,37.308,29.195C37.413261,29.168245,37.510186,29.115658,37.59,29.042C38.003779,28.630435,38.60419,28.468069,39.169,28.615C39.536,28.66,39.89,28.806,40.256,28.88C40.440721,28.927845,40.633868,28.933314,40.821,28.896C41.239579,28.785914,41.677239,28.769186,42.103,28.847C42.48824,28.906371,42.880939,28.897231,43.263,28.82C43.371864,28.796979,43.482089,28.780947,43.593,28.772C43.967885,28.725053,44.345473,28.83547,44.636,29.077C45.289718,29.567783,45.972276,30.018926,46.68,30.428C47.297862,30.778058,47.767099,31.341142,48,32.012C48.158899,32.471572,48.3425,32.922228,48.55,33.362C48.706,33.743,48.705,33.744,48.55,34.178L48.144,34.078L48.376,34.667L48.14,34.461C48.074,34.537,48,34.589,47.974,34.661C47.883,34.905,47.801,35.152,47.731,35.402C47.676695,35.585265,47.589992,35.757317,47.475,35.91C47.326474,36.156128,47.215582,36.423079,47.146,36.702C46.919823,37.517147,46.599323,38.303126,46.191,39.044C45.866282,39.548585,45.687361,40.133109,45.674,40.733C45.674,40.815,45.658,40.898,45.647,41.01C45.373,41.046,45.247,41.237,45.157,41.482C44.957,42.029,44.732,42.567,44.533,43.115C44.308797,43.636121,44.016228,44.125081,43.663,44.569C43.569,44.703,43.478,44.841,43.38,44.969C43.241795,45.214375,42.9984,45.382539,42.72,45.425C42.476396,45.44828,42.239133,45.51607,42.02,45.625C41.795,45.74,41.567,45.872,41.542,46.201C41.527,46.393,41.326,46.571,41.315,46.763C41.289,47.217,40.988,47.285,40.642,47.38C40.400562,47.479918,40.171667,47.607791,39.96,47.761C39.995357,47.888307,40.016816,48.01907,40.024,48.151C40.007625,48.28318,39.976084,48.413036,39.93,48.538C39.538,48.438,39.509,48.4,39.392,47.889C39.218468,47.929581,39.048303,47.983405,38.883,48.05C38.641703,48.170451,38.353291,48.145741,38.136,47.986C37.887,47.835,37.624,47.708,37.367,47.57L37.384,47.58C36.836311,47.10629,36.222109,46.715464,35.561,46.42C35.470462,46.395578,35.376664,46.385456,35.283,46.39L35.298,46.406Z" transform="matrix(1 0 0 1 1.739 2.376)" fill="rgb(255,206,25)" stroke="none" stroke-width="1"/><path id="eAVfrBJyOls18" d="M29.335,27.156C29.854,27.037,30.311,26.917,30.773,26.829C31.832686,26.678045,32.902825,26.612833,33.973,26.634C34.472699,26.61999,34.967778,26.534109,35.443,26.379C35.575,25.674,35.692,25.049,35.81,24.423C35.825,24.341,35.834,24.258,35.853,24.177C35.976,23.651,36.096,23.122,36.23,22.598C36.372,22.047,36.545,21.504,36.674,20.951C36.740022,20.735489,36.716334,20.502458,36.608297,20.30464C36.500259,20.106821,36.317004,19.960938,36.1,19.9C35.804363,19.826228,35.503467,19.77541,35.2,19.748C35.018216,19.729379,34.837659,19.793235,34.708,19.922C34.499,20.099,34.266,20.247,34.041,20.404C33.783238,20.56098,33.536041,20.734686,33.301,20.924C32.775388,21.410353,32.225342,21.869615,31.653,22.3C31.158,22.67,30.741,23.145,30.283,23.565C30.042508,23.79269,29.869494,24.082316,29.783,24.402C29.722129,24.614512,29.623562,24.814354,29.492,24.992C29.356215,25.152092,29.298354,25.364127,29.334,25.571C29.354194,25.736457,29.384923,25.900456,29.426,26.062C29.541823,26.336651,29.516444,26.650525,29.358,26.903C29.326,26.948,29.346,27.032,29.339,27.159ZM43.194,28.4L42.813,28.527C42.821,28.634,42.827,28.727,42.836,28.855C42.502462,29.005473,42.160567,29.136688,41.812,29.248C41.577776,29.280891,41.340534,29.286596,41.105,29.265C40.982,29.265,40.817,29.235,40.74,29.3C40.412,29.578,39.976,29.653,39.64,29.909C39.54,29.983,39.427,30.089,39.324,30.084C39.126358,30.081404,38.932237,30.03133,38.758,29.938C38.089314,29.564059,37.36928,29.290467,36.621,29.126C36.524685,29.112561,36.429906,29.089787,36.338,29.058C36.142946,28.941129,35.901001,28.934682,35.7,29.041C35.607691,29.069047,35.511433,29.081882,35.415,29.079C35.115,29.121,34.81,29.168,34.505,29.207C33.942,29.28,33.373,29.323,32.815,29.429C32.451158,29.514801,32.095223,29.631216,31.751,29.777C31.233,29.972,30.725,30.192,30.208,30.386C30.036743,30.457113,29.840695,30.432796,29.692,30.322C29.41,30.122,29.105,29.947,28.83,29.736C28.736,29.665,28.701,29.514,28.63,29.384C28.056191,29.491292,27.522232,29.752223,27.085,30.139C27.032777,30.206243,26.955197,30.249048,26.870465,30.25737C26.785733,30.265692,26.701307,30.238798,26.637,30.183C26.377009,30.022849,26.129924,29.842634,25.898,29.644C25.598,29.372,25.334,29.069,25.061,28.772C24.843702,28.43299,24.697735,28.053272,24.632,27.656C24.378206,26.863932,24.180714,26.054916,24.041,25.235C23.955043,24.916391,23.842308,24.605618,23.704,24.306C23.594622,24.078754,23.596468,23.813701,23.709,23.588C23.755545,23.447732,23.760408,23.296976,23.723,23.154C23.683051,22.992892,23.629871,22.835357,23.564,22.683C23.496772,22.558354,23.488019,22.410381,23.540083,22.278678C23.592147,22.146975,23.699714,22.044985,23.834,22C23.918865,21.952678,24.006717,21.910923,24.097,21.875C24.328,21.795,24.391,21.64,24.412,21.398C24.448707,21.025277,24.521037,20.656928,24.628,20.298C24.86151,19.86468,25.375633,19.665734,25.84,19.829C26.242039,19.995205,26.699969,19.954118,27.066,19.719C27.85208,19.244657,28.613097,18.72997,29.346,18.177C30.979,16.923,32.589,15.637,34.194,14.347C34.550085,14.035361,34.889236,13.704888,35.21,13.357C35.265218,13.295731,35.300146,13.218889,35.31,13.137C34.887002,13.496733,34.387753,13.75559,33.85,13.894C33.388173,14.044806,32.943677,14.244259,32.524,14.489C32.085,14.803,31.511,14.975,31.26,15.532C31.194883,15.671894,31.090697,15.789971,30.96,15.872C30.568127,16.132622,30.154218,16.358482,29.723,16.547C29.056395,16.782739,28.31484,16.535555,27.923,15.947C27.529746,15.359973,27.245535,14.706863,27.084,14.019C26.881786,13.222842,26.814186,12.398465,26.884,11.58C26.910194,11.289368,26.967523,11.00239,27.055,10.724C27.100352,10.563238,27.188892,10.417977,27.311,10.304C27.621775,10.030368,27.885309,9.70737,28.091,9.348C28.132,9.278,28.23,9.241,28.375,9.132C28.385,9.413,28.392,9.613,28.398,9.814C28.408,10.176,28.486,10.256,28.835,10.283C29.308576,10.323311,29.784263,10.235221,30.212,10.028C31.153626,9.572116,32.158026,9.259336,33.192,9.1C33.537747,9.055743,33.876463,8.967704,34.2,8.838C34.950404,8.534687,35.761251,8.410731,36.568,8.476C36.729634,8.478405,36.888802,8.436191,37.028,8.354C37.285752,8.141772,37.600744,8.010903,37.933,7.978C38.033,7.978,38.133,7.89,38.233,7.836C38.363973,7.741701,38.527413,7.704141,38.686413,7.731801C38.845414,7.759462,38.986567,7.85001,39.078,7.983C39.1281,8.049484,39.185082,8.110489,39.248,8.165C39.762302,8.5973,40.135332,9.173737,40.319,9.82C40.383927,10.175606,40.360229,10.541732,40.25,10.886C40.24,10.965,40.07,11.056,39.959,11.086C39.72,11.153,39.471,11.186,39.2,11.237L39.047,11.482C39.006,11.498,38.977,11.522,38.955,11.516C38.780306,11.46881,38.593646,11.502982,38.447,11.609C38.176,11.778,37.877,11.899,37.602,12.063C37.476,12.138,37.319,12.246,37.286,12.37C37.148098,12.698666,36.934252,12.989963,36.662,13.22C36.373,13.556,36.089,13.898,35.787,14.22C35.445636,14.605235,35.082721,14.97082,34.7,15.315C34.234777,15.713224,33.744069,16.080672,33.231,16.415C32.590812,16.832275,31.976364,17.287768,31.391,17.779C30.976,18.125,30.544,18.454,30.1,18.762C29.291,19.324,28.466,19.862,27.651,20.418C27.522,20.506,27.288,20.585,27.365,20.777C27.455,21,27.675,20.868,27.843,20.837C29.125245,20.564988,30.348941,20.067248,31.457,19.367C32.342,18.843,33.257,18.367,34.176,17.907C34.602242,17.704961,34.998632,17.445187,35.354,17.135C35.688809,16.816327,36.103365,16.593849,36.554,16.491C37.369,16.31,38.178,16.103,39,15.967C39.762874,15.866621,40.523157,16.169522,41.008,16.767C41.400468,17.165063,41.677043,17.662552,41.808,18.206C41.974,18.906,42.15,19.606,42.347,20.306C42.526,20.933,42.729,21.554,42.938,22.171C43.157752,22.802999,43.251519,23.471938,43.214,24.14C43.200533,24.347218,43.173475,24.553328,43.133,24.757C42.999,25.425,42.864,26.092,42.712,26.757C42.665,26.957,42.629,27.133,42.838,27.268C42.999246,27.389666,43.071447,27.596403,43.021,27.792C42.966492,28.014749,43.035131,28.249647,43.201,28.408Z" transform="matrix(1 0 0 1 1.955 0.642)" fill="rgb(255,206,25)" stroke="none" stroke-width="1"/><path id="eAVfrBJyOls19" d="M17.42,11.482C17.27535,11.519158,17.135684,11.573547,17.004,11.644C16.766447,11.828117,16.472437,11.924235,16.172,11.916C15.889403,11.877171,15.602606,11.880541,15.321,11.926C15.254294,11.943746,15.183465,11.937371,15.121,11.908C14.882,11.777,14.651,11.629,14.413,11.493C13.781563,11.056993,13.034295,10.819511,12.267,10.811C11.517772,10.844031,10.767093,10.813589,10.023,10.72C9.516462,10.625075,9.016974,10.495776,8.528,10.333Q7.902,10.172,7.27,10.033C7.022927,9.979493,6.804088,9.837159,6.655,9.633C6.325537,9.257393,6.061529,8.829097,5.874,8.366C5.708,7.866,5.412,7.414,5.257,6.914C5.07,6.307,4.975,5.673,4.833,5.052C4.78,4.822,4.702,4.599,4.64,4.372C4.596613,4.226445,4.563202,4.078101,4.54,3.928C4.497,3.585,4.483,3.236,4.425,2.895C4.357363,2.553315,4.357363,2.201685,4.425,1.86C4.424002,1.750316,4.409561,1.641169,4.382,1.535C4.297725,1.126183,4.408625,0.701436,4.682,0.386C4.748111,0.280463,4.794845,0.163967,4.82,0.042C5.027,-0.067,5.131,0.055,5.262,0.207C5.472058,0.540353,5.715296,0.851604,5.988,1.136C6.233594,1.354282,6.490981,1.558923,6.759,1.749C6.981396,1.858846,7.21651,1.9408,7.459,1.993C7.859,2.114,8.253,2.239,8.659,2.343C8.876077,2.391601,9.096277,2.425016,9.318,2.443C10.358472,2.547022,11.380456,2.789151,12.357,3.163C12.960566,3.413979,13.549204,3.69945,14.12,4.018C14.784946,4.341266,15.392884,4.770538,15.92,5.289C16.018165,5.36671,16.122512,5.436274,16.232,5.497C16.332,5.573,16.474,5.65,16.496,5.749C16.569,6.059,16.81,6.231,16.989,6.454C17.282975,6.752946,17.454542,7.151012,17.47,7.57C17.466604,7.958286,17.502453,8.345922,17.577,8.727C17.641982,9.053604,17.740504,9.372628,17.871,9.679C17.997144,9.962304,18.019104,10.281075,17.933,10.579C17.811362,10.905693,17.667699,11.223757,17.503,11.531L17.421,11.486Z" transform="matrix(1 0 0 1 0.363 0)" fill="rgb(255,206,25)" stroke="none" stroke-width="1"/><path id="eAVfrBJyOls20" d="M36.276,46.2C36.384,46.326,36.493,46.45,36.598,46.579C36.613,46.596,36.61,46.631,36.62,46.688C36.308,46.713,36.22,46.4,36.007,46.294C35.773,46.177,35.558,46.021,35.33,45.894C35.102,45.767,34.866,45.644,34.63,45.518C34.388763,45.399401,34.165544,45.247222,33.967,45.066L34.203,45.039L34.188,45.023C34.682,45.318,35.174,45.617,35.672,45.905C35.872,46.02,36.083,46.112,36.289,46.214Z" transform="matrix(1 0 0 1 2.824 3.742)" fill="rgb(255,206,25)" stroke="none" stroke-width="1"/><path id="eAVfrBJyOls21" d="M2.839,27.838C2.839,27.838,2.825,27.852,2.827,27.852C2.758,27.846,2.687,27.841,2.592,27.835C2.678,27.699,2.748,27.618,2.871,27.702C2.886,27.711,2.851,27.79,2.839,27.838Z" transform="matrix(1 0 0 1 0.215 2.3)" fill="rgb(255,206,25)" stroke="none" stroke-width="1"/></g></g><path id="eAVfrBJyOls22" d="M3.563,0L65.321,0C66.265966,0,67.172229,0.375386,67.840421,1.043579C68.508614,1.711771,68.884,2.618034,68.884,3.563L68.884,199.525L3.563,199.525C2.618034,199.525,1.711771,199.149614,1.043579,198.481421C0.375386,197.813229,0,196.906966,0,195.962L0,3.563C0,2.618034,0.375386,1.711771,1.043579,1.043579C1.711771,0.375386,2.618034,0,3.563,0Z" transform="matrix(1 0 0 1 2.375 2.375)" opacity="0.127" fill="url(#eAVfrBJyOls22-fill)" stroke="none" stroke-width="1"/><path id="eAVfrBJyOls23" d="M65.321,0L3.563,0C2.618034,0,1.711771,0.375386,1.043579,1.043579C0.375386,1.711771,0,2.618034,0,3.563L0,199.525L65.321,199.525C67.288791,199.525,68.884,197.929791,68.884,195.962L68.884,3.563C68.884,2.618034,68.508614,1.711771,67.840421,1.043579C67.172229,0.375386,66.265966,0,65.321,0Z" transform="matrix(1 0 0 1 71.259 2.375)" opacity="0.127" fill="url(#eAVfrBJyOls23-fill)" stroke="none" stroke-width="1"/></g><g id="eAVfrBJyOls24" transform="matrix(1 0 0 1 7288 16034)"><g id="eAVfrBJyOls25"><g id="eAVfrBJyOls26" transform="matrix(1 0 0 1 -9 -9)"><g id="eAVfrBJyOls27" transform="matrix(1 0 0 1 9 9)"><path id="eAVfrBJyOls28" d="M3,0L138,0C139.656854,0,141,1.343146,141,3L141,15C141,46.480231,115.480231,72,84,72L57,72C25.519769,72,0,46.480231,0,15L0,3C0,1.343146,1.343146,0,3,0Z" fill="rgb(255,15,15)" stroke="none" stroke-width="2"/><path id="eAVfrBJyOls29" d="M3,1L138,1C139.104569,1,140,1.895431,140,3L140,15C140,45.927946,114.927946,71,84,71L57,71C26.072054,71,1,45.927946,1,15L1,3C1,1.895431,1.895431,1,3,1Z" fill="none" stroke="rgb(255,206,25)" stroke-width="2"/></g></g></g><g id="eAVfrBJyOls30" transform="matrix(1 0 0 1 -9 -9)"><g id="eAVfrBJyOls31" transform="matrix(1 0 0 1 63 63)"><circle id="eAVfrBJyOls32" r="17.5" transform="matrix(1 0 0 1 17.5 17.5)" fill="rgb(255,173,41)" stroke="none" stroke-width="2"/><circle id="eAVfrBJyOls33" r="16.5" transform="matrix(1 0 0 1 17.5 17.5)" fill="none" stroke="rgb(255,206,25)" stroke-width="2"/></g></g><path id="eAVfrBJyOls34" d="M5.52,-4.632Q6.288,-4.608,5.232,-2.688L4.776,-1.944C4.059884,-1.203661,3.155442,-0.672613,2.16,-0.408C1.22779,-0.135401,0.238777,-0.122951,-0.7,-0.372C-1.639076,-0.606985,-2.500716,-1.08261,-3.2,-1.752C-4.60686,-3.035631,-5.478121,-4.802434,-5.64,-6.7C-5.93036,-8.686873,-5.766242,-10.713727,-5.16,-12.628C-5.033408,-13.043544,-4.865922,-13.44551,-4.66,-13.828C-4.454227,-14.208745,-4.20887,-14.566726,-3.928,-14.896C-3.648281,-15.223728,-3.338975,-15.525001,-3.004,-15.796C-2.66692,-16.068719,-2.305386,-16.309741,-1.924,-16.516C-0.927528,-16.978074,0.17581,-17.160581,1.268,-17.044C1.694895,-17.012675,2.11961,-16.956581,2.54,-16.876C2.769776,-16.778459,3.012165,-16.713822,3.26,-16.684Q3.38,-16.732,3.524,-16.804Q4.316,-16.876,5.424,-15.652C5.602202,-15.454591,5.700584,-15.197943,5.7,-14.932C5.709793,-14.660208,5.669105,-14.388957,5.58,-14.132L5.268,-13.256C5.172962,-13.006041,5.09675,-12.749325,5.04,-12.488C4.945592,-11.963965,4.898735,-11.43247,4.9,-10.9L4.9,-10.78Q4.924,-10.348,4.828,-10.252Q4.732,-10.156,4.276,-10.204C4.233043,-10.217441,4.192527,-10.237699,4.156,-10.264C4.121256,-10.289832,4.085208,-10.313864,4.048,-10.336C4.015889,-10.357486,3.978581,-10.369922,3.94,-10.372C3.868893,-10.388033,3.795107,-10.388033,3.724,-10.372Q3.624,-10.348,3.568,-10.336C3.51632,-10.327838,3.46368,-10.327838,3.412,-10.336C3.337735,-10.349549,3.270144,-10.387569,3.22,-10.444C2.888796,-10.733982,2.675339,-11.135281,2.62,-11.572C2.483913,-12.105928,2.394246,-12.650624,2.352,-13.2C2.286281,-13.938452,2.376218,-14.682477,2.616,-15.384C2.131188,-15.512162,1.620389,-15.503857,1.14,-15.36C0.655545,-15.217187,0.214272,-14.955997,-0.144,-14.6C-0.503737,-14.249097,-0.824285,-13.860148,-1.1,-13.44C-1.374071,-13.022842,-1.60843,-12.580909,-1.8,-12.12C-2.129286,-11.298101,-2.339411,-10.433358,-2.424,-9.552C-2.519386,-8.610636,-2.474904,-7.660338,-2.292,-6.732C-2.143869,-5.86784,-1.812442,-5.045408,-1.32,-4.32C-0.867782,-3.515061,-0.034097,-2.998538,0.888,-2.952C1.361182,-2.981625,1.817429,-3.139237,2.208,-3.408C2.346011,-3.498774,2.47114,-3.607757,2.58,-3.732C2.688672,-3.858598,2.785103,-3.995208,2.868,-4.14C2.943595,-4.275369,3.036362,-4.400404,3.144,-4.512C3.379586,-4.751817,3.687301,-4.907782,4.02,-4.956C4.342679,-5.059757,4.695584,-5.001685,4.968,-4.8C5.123267,-4.580793,5.183813,-4.308336,5.136,-4.044C5.063911,-3.733561,4.910691,-3.447827,4.692,-3.216C4.470309,-2.954643,4.229657,-2.70998,3.972,-2.484Q3.624,-2.184,3.36,-1.992C2.25885,-1.280973,0.914825,-1.051188,-0.36,-1.356C-1.642196,-1.619666,-2.755901,-2.407091,-3.432,-3.528C-3.231098,-2.901428,-2.830737,-2.357779,-2.292,-1.98C-1.721894,-1.546596,-1.068143,-1.236064,-0.372,-1.068C0.250522,-0.902872,0.901375,-0.874218,1.536,-0.984C2.51541,-1.138314,3.435431,-1.552738,4.2,-2.184C4.574724,-2.492299,4.891655,-2.86476,5.136,-3.284C5.233721,-3.507321,5.30099,-3.742761,5.336,-3.984C5.369689,-4.206911,5.431515,-4.424649,5.52,-4.632ZM1.68,-15.888L1.58,-15.816Q1.58,-15.716,1.7,-15.792Q1.8,-15.864,1.68,-15.888ZM1.488,-15.696C1.433143,-15.712,1.374857,-15.712,1.32,-15.696L1.368,-15.672Q1.488,-15.624,1.468,-15.6C1.421333,-15.616,1.370667,-15.616,1.324,-15.6L1.54,-15.648Q1.564,-15.648,1.54,-15.672ZM1.272,-16.08Q1.172,-16.056,1.296,-16.008Q1.392,-16.032,1.272,-16.08ZM1.344,-15.816L1.08,-15.816L1.32,-15.792ZM1.008,-15.716Q0.864,-15.716,0.984,-15.644Q1.128,-15.648,1.008,-15.72ZM0.816,-16.124Q0.672,-16.124,0.768,-16.076Q0.912,-16.1,0.816,-16.128ZM-3.384,-6.788L-3.384,-6.716Q-3.36,-6.616,-3.284,-6.788Q-3.26,-6.888,-3.332,-6.888Q-3.356,-6.888,-3.38,-6.852Q-3.404,-6.816,-3.384,-6.792ZM-3.528,-10.052L-3.456,-10.028C-3.416751,-10.016618,-3.376607,-10.00859,-3.336,-10.004C-3.343062,-10.045318,-3.355152,-10.085618,-3.372,-10.124C-3.395499,-10.185298,-3.429321,-10.242119,-3.472,-10.292Q-3.532,-10.364,-3.556,-10.34C-3.631976,-10.275161,-3.660538,-10.170434,-3.628,-10.076C-3.596778,-10.061334,-3.562461,-10.054471,-3.528,-10.056ZM-3.528,-9.092Q-3.552,-9.192,-3.6,-9.116Q-3.576,-9,-3.528,-9.1ZM-3.6,-8.18Q-3.624,-8.18,-3.648,-8.132Q-3.672,-8.012,-3.528,-7.988C-3.523434,-8.060542,-3.549561,-8.131664,-3.6,-8.184ZM-3.648,-12.212Q-3.648,-12.14,-3.528,-12.112C-3.522334,-12.104446,-3.513443,-12.1,-3.504,-12.1C-3.494557,-12.1,-3.485666,-12.104446,-3.48,-12.112C-3.463937,-12.140611,-3.459972,-12.174455,-3.468986,-12.206004C-3.478,-12.237553,-3.499246,-12.264193,-3.528,-12.28Q-3.6,-12.336,-3.648,-12.216ZM-3.36,-5.588Q-3.288,-5.488,-3.26,-5.612Q-3.312,-5.712,-3.36,-5.592ZM-3.144,-4.004Q-3.044,-4.148,-3.244,-4.172Q-3.312,-4.032,-3.144,-4.008ZM-3.144,-5.252Q-3.244,-5.372,-3.244,-5.204Q-3.144,-5.136,-3.144,-5.256ZM-3.072,-6.188Q-3,-6.26,-3.072,-6.288Q-3.144,-6.216,-3.072,-6.192ZM-3.048,-11.948Q-3.024,-12.048,-3.072,-12.048Q-3.1,-11.952,-3.048,-11.952ZM-2.856,-3.86Q-2.808,-3.96,-2.928,-3.96Q-2.952,-3.864,-2.856,-3.864ZM-2.808,-12.5L-2.808,-12.524Q-2.808,-12.424,-2.736,-12.476Q-2.736,-12.6,-2.808,-12.5ZM-2.736,-2.876Q-2.636,-2.828,-2.636,-2.852C-2.638193,-2.871217,-2.648352,-2.888632,-2.664,-2.9Q-2.736,-3,-2.736,-2.88ZM-2.712,-3.976L-2.612,-4.076Q-2.588,-4.1,-2.612,-4.136C-2.627917,-4.15992,-2.655314,-4.173619,-2.684,-4.172Q-2.732,-4.172,-2.732,-4.072Q-2.732,-3.972,-2.712,-3.984ZM-1.512,-2.704Q-1.412,-2.656,-1.44,-2.752Q-1.488,-2.776,-1.5,-2.764C-1.508637,-2.748074,-1.512784,-2.7301,-1.512,-2.712ZM1.056,-1.936L1.056,-1.912Q0.956,-1.888,0.956,-1.84L1.124,-1.912ZM0.672,-2.256L0.888,-2.04C0.832936,-2.127149,0.759149,-2.200936,0.672,-2.256ZM0.572,-2.04Q0.472,-1.992,0.596,-1.94Q0.672,-1.992,0.576,-2.04ZM0.452,-1.872C0.456241,-1.918609,0.425548,-1.961239,0.38,-1.972Q0.332,-1.924,0.38,-1.852Q0.428,-1.804,0.452,-1.828Q0.48,-1.824,0.456,-1.872ZM0.352,-2.088C0.318291,-2.087706,0.284683,-2.091738,0.252,-2.1C0.227601,-2.109364,0.200044,-2.104771,0.18,-2.088C0.234135,-2.050482,0.305865,-2.050482,0.36,-2.088ZM-0.032,-2.448Q-0.032,-2.548,-0.152,-2.496Q-0.12,-2.376,-0.024,-2.448ZM-0.416,-2.064Q-0.56,-2.112,-0.488,-2.016Q-0.336,-1.968,-0.408,-2.064ZM-0.584,-2.016L-0.6,-2.016Q-0.576,-2.04,-0.636,-2.088C-0.675371,-2.119654,-0.720071,-2.144036,-0.768,-2.16L-0.668,-1.968Q-0.624,-1.944,-0.576,-2.016ZM-0.92,-2.516Q-1.04,-2.444,-0.848,-2.444Q-0.608,-2.42,-0.608,-2.516Q-0.656,-2.564,-0.776,-2.492L-0.752,-2.54C-0.738068,-2.567132,-0.726039,-2.595199,-0.716,-2.624Q-0.704,-2.66,-0.68,-2.66Q-0.704,-2.684,-0.764,-2.66C-0.806708,-2.641896,-0.84394,-2.612938,-0.872,-2.576ZM-1.136,-2.54L-1.136,-2.5Q-1.064,-2.4,-1.064,-2.5L-1.064,-2.6ZM-1.208,-2.66Q-1.232,-2.732,-1.352,-2.612C-1.36069,-2.599775,-1.363023,-2.584136,-1.35828,-2.569907C-1.353537,-2.555677,-1.342287,-2.544566,-1.328,-2.54C-1.301101,-2.545016,-1.276152,-2.55749,-1.256,-2.576C-1.222302,-2.592504,-1.200678,-2.626483,-1.2,-2.664ZM-1.616,-2.948Q-1.736,-2.948,-1.568,-2.876Q-1.376,-2.804,-1.352,-2.876Q-1.304,-3.044,-1.592,-2.948ZM-1.616,-2.708Q-1.716,-2.852,-1.784,-2.852C-1.764196,-2.789012,-1.748167,-2.724898,-1.736,-2.66Q-1.712,-2.54,-1.736,-2.516Q-1.688,-2.468,-1.616,-2.564Q-1.544,-2.66,-1.608,-2.712ZM-1.784,-3.356Q-1.76,-3.428,-1.832,-3.404C-1.846936,-3.39291,-1.85196,-3.372814,-1.844,-3.356Q-1.824,-3.336,-1.776,-3.36ZM-2.192,-3.404Q-2.456,-3.716,-2.456,-3.38Q-2.456,-2.996,-2.264,-2.924L-2.192,-2.924Q-2.168,-2.972,-2.312,-3.116C-2.272751,-3.127382,-2.232607,-3.13541,-2.192,-3.14Q-2.168,-3.14,-2.144,-3.08C-2.130596,-3.050012,-2.111589,-3.022859,-2.088,-3C-2.038072,-3.001056,-1.992427,-3.028443,-1.968,-3.072C-2.045616,-3.180288,-2.117708,-3.292432,-2.184,-3.408ZM-2.4,-2.64Q-2.376,-2.688,-2.472,-2.74C-2.476241,-2.693391,-2.445548,-2.650761,-2.4,-2.64ZM-2.376,-14.088L-2.276,-14.064C-2.256204,-14.061323,-2.236293,-14.068042,-2.222168,-14.082168C-2.208042,-14.096293,-2.201323,-14.116204,-2.204,-14.136Q-2.232,-14.208,-2.376,-14.088ZM-2.276,-13.988Q-2.276,-13.868,-2.204,-13.94Q-2.18,-14.06,-2.276,-14.04C-2.268877,-14.033727,-2.265142,-14.024453,-2.26593,-14.014994C-2.266719,-14.005535,-2.271937,-13.997007,-2.28,-13.992ZM-2.176,-14.444L-2.032,-14.516Q-2.104,-14.54,-2.032,-14.684Q-2.056,-14.708,-2.132,-14.576Q-2.208,-14.444,-2.184,-14.448ZM-0.784,-15.068Q-0.712,-15.168,-0.832,-15.14Q-0.936,-15.024,-0.792,-15.072ZM0.128,-15.62L0.1,-15.62Q0,-15.548,0.172,-15.572Q0.288,-15.648,0.12,-15.624ZM-0.4,-16.148Q-0.544,-16.048,-0.376,-16.048Q-0.216,-16.152,-0.408,-16.152ZM-0.28,-15.812C-0.359678,-15.849479,-0.454745,-15.81779,-0.496,-15.74Q-0.5,-15.7,-0.288,-15.816ZM-0.568,-15.668C-0.653856,-15.705547,-0.753959,-15.68648,-0.82,-15.62C-0.871033,-15.56968,-0.897362,-15.499468,-0.892,-15.428Q-0.88,-15.328,-0.904,-15.308Q-0.832,-15.284,-0.736,-15.368C-0.676817,-15.418129,-0.627915,-15.479257,-0.592,-15.548Q-0.552,-15.648,-0.576,-15.672ZM-0.832,-16.028Q-0.88,-16.076,-1.096,-15.884L-0.904,-15.884Q-0.792,-15.936,-0.84,-16.032ZM-1.312,-15.02Q-1.212,-15.092,-1.336,-15.092Q-1.44,-15,-1.32,-15.024ZM-1.456,-15.236Q-1.48,-15.212,-1.456,-15.212Q-1.336,-15.188,-1.312,-15.26ZM-1.816,-15.5L-1.84,-15.5Q-1.888,-15.4,-1.768,-15.452Q-1.728,-15.528,-1.824,-15.5ZM-1.96,-13.58Q-1.888,-13.48,-1.84,-13.628Q-1.9,-13.728,-1.968,-13.584ZM-2.032,-14.516L-1.864,-14.516L-1.888,-14.564Q-1.912,-14.612,-1.96,-14.564Q-2.008,-14.516,-2.04,-14.52ZM-1.932,-14.852C-1.912204,-14.849323,-1.892293,-14.856042,-1.878168,-14.870168C-1.864042,-14.884293,-1.857323,-14.904204,-1.86,-14.924Q-1.968,-14.952,-1.944,-14.856ZM-1.884,-15.404L-1.92,-15.404Q-1.968,-15.428,-2.04,-15.356Q-1.872,-15.312,-1.9,-15.408ZM-2.1,-14.78Q-2.124,-14.852,-2.184,-14.84C-2.223452,-14.832875,-2.250056,-14.79563,-2.244,-14.756Q-2.22,-14.708,-2.184,-14.72C-2.155855,-14.736156,-2.131344,-14.757943,-2.112,-14.784ZM-2.2,-15.236C-2.267986,-15.255006,-2.340956,-15.236763,-2.392,-15.188Q-2.44,-15.164,-2.392,-15.164Q-2.232,-15.168,-2.208,-15.24ZM-2.464,-14.828Q-2.564,-14.728,-2.464,-14.756Q-2.376,-14.832,-2.472,-14.832ZM-2.272,-14.252C-2.352612,-14.267937,-2.43614,-14.259584,-2.512,-14.228ZM-2.512,-4.82Q-2.632,-4.94,-2.632,-4.796Q-2.544,-4.7,-2.52,-4.824ZM-2.752,-12.356Q-2.68,-12.212,-2.608,-12.332Q-2.616,-12.48,-2.76,-12.36ZM-2.752,-14.856Q-2.728,-14.976,-2.852,-14.856Q-2.88,-14.736,-2.76,-14.856ZM-2.872,-14.156Q-2.972,-14.18,-2.92,-14.084Q-2.832,-14.064,-2.88,-14.16ZM-3.04,-13.964L-3.064,-13.796L-2.964,-13.94L-3,-13.992C-3.018583,-13.990805,-3.035894,-13.982149,-3.048,-13.968ZM-3.088,-13.604L-3.12,-13.604Q-3.22,-13.604,-3.168,-13.504Q-3.072,-13.536,-3.1,-13.608ZM-3.112,-12.932Q-3.212,-13.004,-3.232,-12.86C-3.237648,-12.820034,-3.218715,-12.780592,-3.184,-12.76Q-3.064,-12.712,-3.04,-12.76C-3.055715,-12.823053,-3.082828,-12.882701,-3.12,-12.936ZM-3.256,-7.94Q-3.184,-7.988,-3.256,-8.04Q-3.336,-7.992,-3.264,-7.944ZM-3.256,-11.468C-3.245403,-11.493488,-3.24753,-11.522492,-3.261731,-11.546161C-3.275933,-11.56983,-3.300524,-11.585356,-3.328,-11.588L-3.28,-11.468ZM-3.472,-14.468C-3.502077,-14.425899,-3.518801,-14.375727,-3.52,-14.324Q-3.352,-14.156,-3.28,-14.516L-3.28,-14.616C-3.354132,-14.579325,-3.421706,-14.530672,-3.48,-14.472ZM-3.544,-13.94C-3.56075,-13.909463,-3.56505,-13.873633,-3.556,-13.84C-3.55141,-13.810898,-3.525399,-13.79009,-3.496,-13.792Q-3.396,-13.768,-3.396,-13.84Q-3.396,-13.96,-3.468,-13.984ZM-3.496,-13.652Q-3.616,-13.652,-3.568,-13.58Q-3.456,-13.584,-3.5,-13.656ZM-3.596,-13.22Q-3.644,-13.172,-3.572,-13.148L-3.5,-13.2Q-3.528,-13.272,-3.6,-13.224ZM-3.548,-12.86C-3.568627,-12.868707,-3.591938,-12.868488,-3.612398,-12.859395C-3.632857,-12.850302,-3.648641,-12.833145,-3.656,-12.812C-3.680036,-12.763763,-3.688425,-12.709231,-3.68,-12.656Q-3.668,-12.572,-3.596,-12.572Q-3.476,-12.548,-3.464,-12.68C-3.448187,-12.746526,-3.471434,-12.816267,-3.524,-12.86ZM-3.908,-14.108Q-3.98,-13.964,-3.86,-13.916C-3.813743,-13.943174,-3.778387,-13.985601,-3.76,-14.036C-3.744189,-14.085053,-3.753135,-14.138726,-3.784,-14.18Q-3.888,-14.232,-3.912,-14.112ZM-4.028,-13.58L-4.172,-13.508L-4.148,-13.484Q-4.028,-13.436,-3.836,-13.628C-3.731706,-13.711599,-3.663074,-13.831704,-3.644,-13.964Q-3.96,-13.968,-4.032,-13.584ZM-3.908,-10.412Q-3.548,-10.652,-3.932,-10.748Q-4.172,-10.82,-4.244,-10.772Q-4.22,-10.772,-4.184,-10.652C-4.161096,-10.574164,-4.124526,-10.501025,-4.076,-10.436C-4.059057,-10.408725,-4.030664,-10.390601,-3.998791,-10.386714C-3.966918,-10.382827,-3.935002,-10.393597,-3.912,-10.416ZM-3.98,-7.964Q-3.88,-8.036,-3.98,-8.084Q-4.08,-8.016,-3.984,-7.968ZM-3.98,-8.324L-4.004,-8.324Q-3.904,-8.156,-3.86,-8.324Q-3.884,-8.424,-3.96,-8.396Q-4.008,-8.4,-3.984,-8.328ZM-4.1,-11.252Q-4.148,-11.276,-4.148,-11.228L-4.076,-11.128Q-3.984,-11.184,-4.1,-11.256ZM-4.028,-11.804L-4.052,-11.804Q-3.952,-11.828,-4.004,-11.904Q-4.1,-11.88,-4.032,-11.808ZM-4.148,-11.924Q-4.004,-11.972,-4.076,-12.092Q-4.248,-12.072,-4.152,-11.928ZM-3.764,-11.132Q-3.836,-11.204,-3.836,-11.06L-3.812,-10.96C-3.779521,-11.01272,-3.764152,-11.074198,-3.768,-11.136ZM-3.908,-12.284Q-3.884,-12.14,-3.788,-12.26Q-3.792,-12.408,-3.912,-12.288ZM-3.836,-12.716Q-3.716,-12.764,-3.788,-12.908L-3.824,-12.872C-3.839454,-12.849888,-3.851583,-12.82563,-3.86,-12.8Q-3.888,-12.744,-3.84,-12.72ZM-3.884,-13.364Q-4.004,-13.364,-3.932,-13.22Q-3.908,-13.148,-3.86,-13.196C-3.842552,-13.254599,-3.852866,-13.317961,-3.888,-13.368ZM-4.268,-13.148Q-4.34,-13.1,-4.22,-13.048Q-4.148,-13.024,-4.148,-13.072Q-4.148,-13.096,-4.196,-13.132Q-4.244,-13.168,-4.272,-13.152ZM-4.196,-10.172Q-4.196,-10.34,-4.268,-10.244Q-4.3,-10.056,-4.2,-10.176ZM-4.172,-9.884L-4.292,-10.076L-4.32,-10.1Q-4.368,-10.028,-4.272,-9.812Q-4.2,-9.672,-4.176,-9.888ZM-4.364,-11.108Q-4.264,-11.208,-4.412,-11.324C-4.428855,-11.250297,-4.412793,-11.172908,-4.368,-11.112ZM-4.244,-9.572L-4.244,-9.548C-4.298624,-9.554891,-4.353919,-9.54213,-4.4,-9.512C-4.42584,-9.485649,-4.435066,-9.447208,-4.424,-9.412C-4.413908,-9.367769,-4.39333,-9.326612,-4.364,-9.292Q-4.316,-9.232,-4.28,-9.184Q-4.244,-9.136,-4.244,-9.16C-4.222414,-9.182633,-4.202369,-9.206687,-4.184,-9.232C-4.153123,-9.276879,-4.125069,-9.323636,-4.1,-9.372C-4.068954,-9.413817,-4.064303,-9.469621,-4.088,-9.516Q-4.128,-9.576,-4.248,-9.576ZM-4.268,-8.708L-4.268,-8.684Q-4.34,-8.852,-4.368,-8.684Q-4.32,-8.544,-4.272,-8.712ZM-4.484,-8.18L-4.508,-8.156Q-4.408,-8.204,-4.484,-8.276Q-4.56,-8.232,-4.488,-8.184ZM-4.484,-7.988L-4.508,-7.988Q-4.556,-8.108,-4.58,-7.988Q-4.536,-7.9,-4.488,-7.992ZM-4.604,-11.732C-4.651861,-11.701251,-4.67184,-11.641316,-4.652,-11.588C-4.621994,-11.601498,-4.599866,-11.628051,-4.592,-11.66C-4.582041,-11.686285,-4.588289,-11.715962,-4.608,-11.736ZM-4.676,-11.924C-4.695198,-11.935188,-4.718695,-11.936129,-4.738727,-11.926514C-4.758759,-11.916898,-4.772721,-11.897977,-4.776,-11.876Q-4.8,-11.804,-4.752,-11.776Q-4.704,-11.748,-4.668,-11.836Q-4.632,-11.928,-4.68,-11.928ZM-4.844,-10.916L-4.844,-10.94Q-4.964,-10.868,-4.844,-10.772Q-4.752,-10.848,-4.848,-10.92ZM-5.04,-9.7Q-4.848,-9.628,-4.94,-9.94C-4.951382,-9.979249,-4.95941,-10.019393,-4.964,-10.06C-4.976603,-10.01671,-4.99693,-9.976056,-5.024,-9.94C-5.054555,-9.895567,-5.078787,-9.847104,-5.096,-9.796Q-5.112,-9.744,-5.04,-9.7ZM-5.064,-8.716C-5.034752,-8.72789,-5.015726,-8.756429,-5.016,-8.788C-5.014228,-8.814221,-5.02285,-8.840086,-5.04,-8.86Q-5.088,-8.884,-5.148,-8.824Q-5.208,-8.764,-5.208,-8.884L-5.208,-8.812ZM-5.112,-11.016Q-5.256,-10.968,-5.136,-10.824Q-5.088,-10.824,-5.036,-10.908Q-4.984,-10.992,-5.112,-11.016ZM-5.184,-9.336Q-5.304,-9.192,-5.136,-9.072C-5.134288,-9.105568,-5.130279,-9.13898,-5.124,-9.172C-5.115978,-9.215634,-5.115978,-9.260366,-5.124,-9.304Q-5.136,-9.36,-5.184,-9.336ZM-5.208,-7.656Q-5.16,-7.704,-5.232,-7.756Q-5.3,-7.68,-5.208,-7.656ZM-5.064,-8.472Q-4.944,-8.544,-5.04,-8.664Q-5.16,-8.592,-5.064,-8.472ZM-4.944,-5.972Q-4.896,-5.972,-4.92,-6.044C-4.936179,-6.025107,-4.944735,-6.000863,-4.944,-5.976ZM-4.92,-6.044C-4.896348,-6.059951,-4.880635,-6.085245,-4.876815,-6.113516C-4.872994,-6.141787,-4.88143,-6.170343,-4.9,-6.192C-4.905666,-6.199554,-4.914557,-6.204,-4.924,-6.204C-4.933443,-6.204,-4.942334,-6.199554,-4.948,-6.192C-4.964434,-6.169525,-4.970755,-6.141217,-4.965441,-6.113887C-4.960126,-6.086556,-4.943659,-6.062679,-4.92,-6.048ZM-4.896,-6.932Q-4.848,-6.832,-4.68,-7.124L-4.632,-7.244Q-4.752,-7.344,-4.848,-7.184C-4.906639,-7.115683,-4.926258,-7.022118,-4.9,-6.936ZM-4.656,-6.98L-4.632,-7.004C-4.635981,-7.017752,-4.646013,-7.028939,-4.659251,-7.03439C-4.672489,-7.039841,-4.68749,-7.038961,-4.7,-7.032Q-4.68,-7.032,-4.656,-6.984ZM-4.68,-5.976Q-4.608,-6.024,-4.704,-6.048C-4.743249,-6.059382,-4.783393,-6.06741,-4.824,-6.072C-4.822805,-6.053417,-4.814149,-6.036106,-4.8,-6.024Q-4.728,-5.952,-4.68,-5.976ZM-4.608,-6.288L-4.584,-6.36C-4.569219,-6.393971,-4.565036,-6.431613,-4.572,-6.468C-4.579137,-6.490543,-4.591468,-6.511095,-4.608,-6.528Q-4.708,-6.576,-4.708,-6.504Q-4.7,-6.312,-4.608,-6.288ZM-4.344,-7.824L-4.344,-7.848L-4.368,-7.8Q-4.536,-7.608,-4.392,-7.584Q-4.272,-7.608,-4.344,-7.8ZM-4.32,-6.072Q-4.22,-6.172,-4.344,-6.216Q-4.416,-6.12,-4.32,-6.072ZM-4.272,-6.72Q-4.2,-6.744,-4.272,-6.84L-4.32,-6.864Q-4.44,-6.792,-4.272,-6.72ZM-4.372,-7.344L-4.252,-7.512L-4.18,-7.612L-4.2,-7.632L-4.248,-7.608Q-4.464,-7.392,-4.368,-7.344ZM-4.056,-5.5L-4.032,-5.5Q-4.008,-5.524,-4.056,-5.6Q-4.128,-5.544,-4.056,-5.5ZM-4.008,-5.62C-3.944876,-5.650201,-3.910287,-5.71938,-3.924,-5.788Q-3.936,-5.908,-4.008,-5.908Q-4.176,-5.836,-4.056,-5.596ZM-3.72,-5.692Q-3.648,-5.74,-3.72,-5.792Q-3.792,-5.736,-3.72,-5.688ZM-3.72,-6.992L-3.7,-6.992Q-3.652,-7.064,-3.724,-7.092Q-3.792,-7.008,-3.72,-6.984ZM-3.648,-7.52L-3.504,-7.62Q-3.528,-7.668,-3.696,-7.728Q-3.864,-7.788,-3.888,-7.74Q-3.912,-7.668,-3.816,-7.572Q-3.72,-7.476,-3.648,-7.512ZM-3.548,-8.82Q-3.448,-8.892,-3.548,-8.94Q-3.672,-8.856,-3.552,-8.808ZM-3.476,-8.12Q-3.452,-8.02,-3.376,-8.096Q-3.256,-8.24,-3.376,-8.24C-3.432664,-8.221268,-3.473264,-8.171298,-3.48,-8.112ZM-4.052,-5.62C-4.05304,-5.62663,-4.050848,-5.633357,-4.046103,-5.638103C-4.041357,-5.642848,-4.03463,-5.64504,-4.028,-5.644C-4.02137,-5.64504,-4.014643,-5.642848,-4.009897,-5.638103C-4.005152,-5.633357,-4.00296,-5.62663,-4.004,-5.62L-4.052,-5.62ZM-3.524,-12.868L-3.548,-12.868Z" transform="matrix(1 0 0 1 71 80)" opacity="0.762" fill="rgb(0,0,0)" stroke="none" stroke-width="1"/></g></g></g><script><![CDATA[!function(t,n){"object"==typeof exports&&"undefined"!=typeof module?module.exports=n():"function"==typeof define&&define.amd?define(n):((t="undefined"!=typeof globalThis?globalThis:t||self).__SVGATOR_PLAYER__=t.__SVGATOR_PLAYER__||{},t.__SVGATOR_PLAYER__["91c80d77"]=n())}(this,(function(){"use strict";function t(t,n){var e=Object.keys(t);if(Object.getOwnPropertySymbols){var r=Object.getOwnPropertySymbols(t);n&&(r=r.filter((function(n){return Object.getOwnPropertyDescriptor(t,n).enumerable}))),e.push.apply(e,r)}return e}function n(n){for(var e=1;e<arguments.length;e++){var r=null!=arguments[e]?arguments[e]:{};e%2?t(Object(r),!0).forEach((function(t){o(n,t,r[t])})):Object.getOwnPropertyDescriptors?Object.defineProperties(n,Object.getOwnPropertyDescriptors(r)):t(Object(r)).forEach((function(t){Object.defineProperty(n,t,Object.getOwnPropertyDescriptor(r,t))}))}return n}function e(t){return(e="function"==typeof Symbol&&"symbol"==typeof Symbol.iterator?function(t){return typeof t}:function(t){return t&&"function"==typeof Symbol&&t.constructor===Symbol&&t!==Symbol.prototype?"symbol":typeof t})(t)}function r(t,n){if(!(t instanceof n))throw new TypeError("Cannot call a class as a function")}function i(t,n){for(var e=0;e<n.length;e++){var r=n[e];r.enumerable=r.enumerable||!1,r.configurable=!0,"value"in r&&(r.writable=!0),Object.defineProperty(t,r.key,r)}}function u(t,n,e){return n&&i(t.prototype,n),e&&i(t,e),t}function o(t,n,e){return n in t?Object.defineProperty(t,n,{value:e,enumerable:!0,configurable:!0,writable:!0}):t[n]=e,t}function a(t){return(a=Object.setPrototypeOf?Object.getPrototypeOf:function(t){return t.__proto__||Object.getPrototypeOf(t)})(t)}function l(t,n){return(l=Object.setPrototypeOf||function(t,n){return t.__proto__=n,t})(t,n)}function s(){if("undefined"==typeof Reflect||!Reflect.construct)return!1;if(Reflect.construct.sham)return!1;if("function"==typeof Proxy)return!0;try{return Boolean.prototype.valueOf.call(Reflect.construct(Boolean,[],(function(){}))),!0}catch(t){return!1}}function f(t,n,e){return(f=s()?Reflect.construct:function(t,n,e){var r=[null];r.push.apply(r,n);var i=new(Function.bind.apply(t,r));return e&&l(i,e.prototype),i}).apply(null,arguments)}function c(t,n){if(n&&("object"==typeof n||"function"==typeof n))return n;if(void 0!==n)throw new TypeError("Derived constructors may only return object or undefined");return function(t){if(void 0===t)throw new ReferenceError("this hasn't been initialised - super() hasn't been called");return t}(t)}function h(t,n,e){return(h="undefined"!=typeof Reflect&&Reflect.get?Reflect.get:function(t,n,e){var r=function(t,n){for(;!Object.prototype.hasOwnProperty.call(t,n)&&null!==(t=a(t)););return t}(t,n);if(r){var i=Object.getOwnPropertyDescriptor(r,n);return i.get?i.get.call(e):i.value}})(t,n,e||t)}function v(t){return function(t){if(Array.isArray(t))return d(t)}(t)||function(t){if("undefined"!=typeof Symbol&&null!=t[Symbol.iterator]||null!=t["@@iterator"])return Array.from(t)}(t)||function(t,n){if(!t)return;if("string"==typeof t)return d(t,n);var e=Object.prototype.toString.call(t).slice(8,-1);"Object"===e&&t.constructor&&(e=t.constructor.name);if("Map"===e||"Set"===e)return Array.from(t);if("Arguments"===e||/^(?:Ui|I)nt(?:8|16|32)(?:Clamped)?Array$/.test(e))return d(t,n)}(t)||function(){throw new TypeError("Invalid attempt to spread non-iterable instance.\nIn order to be iterable, non-array objects must have a [Symbol.iterator]() method.")}()}function d(t,n){(null==n||n>t.length)&&(n=t.length);for(var e=0,r=new Array(n);e<n;e++)r[e]=t[e];return r}var y=g(Math.pow(10,-6));function g(t){var n=arguments.length>1&&void 0!==arguments[1]?arguments[1]:6;if(Number.isInteger(t))return t;var e=Math.pow(10,n);return Math.round((+t+Number.EPSILON)*e)/e}function p(t,n){var e=arguments.length>2&&void 0!==arguments[2]?arguments[2]:y;return Math.abs(t-n)<e}var m=Math.PI/180;function b(t){return t}function w(t,n,e){var r=1-e;return 3*e*r*(t*r+n*e)+e*e*e}function A(){var t=arguments.length>0&&void 0!==arguments[0]?arguments[0]:0,n=arguments.length>1&&void 0!==arguments[1]?arguments[1]:0,e=arguments.length>2&&void 0!==arguments[2]?arguments[2]:1,r=arguments.length>3&&void 0!==arguments[3]?arguments[3]:1;return t<0||t>1||e<0||e>1?null:p(t,n)&&p(e,r)?b:function(i){if(i<=0)return t>0?i*n/t:0===n&&e>0?i*r/e:0;if(i>=1)return e<1?1+(i-1)*(r-1)/(e-1):1===e&&t<1?1+(i-1)*(n-1)/(t-1):1;for(var u,o=0,a=1;o<a;){var l=w(t,e,u=(o+a)/2);if(p(i,l))break;l<i?o=u:a=u}return w(n,r,u)}}function x(){return 1}function k(t){return 1===t?1:0}function _(){var t=arguments.length>0&&void 0!==arguments[0]?arguments[0]:1,n=arguments.length>1&&void 0!==arguments[1]?arguments[1]:0;if(1===t){if(0===n)return k;if(1===n)return x}var e=1/t;return function(t){return t>=1?1:(t+=n*e)-t%e}}var S=Math.sin,O=Math.cos,M=Math.acos,E=Math.asin,j=Math.tan,P=Math.atan2,I=Math.PI/180,B=180/Math.PI,R=Math.sqrt,T=function(){function t(){var n=arguments.length>0&&void 0!==arguments[0]?arguments[0]:1,e=arguments.length>1&&void 0!==arguments[1]?arguments[1]:0,i=arguments.length>2&&void 0!==arguments[2]?arguments[2]:0,u=arguments.length>3&&void 0!==arguments[3]?arguments[3]:1,o=arguments.length>4&&void 0!==arguments[4]?arguments[4]:0,a=arguments.length>5&&void 0!==arguments[5]?arguments[5]:0;r(this,t),this.m=[n,e,i,u,o,a],this.i=null,this.w=null,this.s=null}return u(t,[{key:"determinant",get:function(){var t=this.m;return t[0]*t[3]-t[1]*t[2]}},{key:"isIdentity",get:function(){if(null===this.i){var t=this.m;this.i=1===t[0]&&0===t[1]&&0===t[2]&&1===t[3]&&0===t[4]&&0===t[5]}return this.i}},{key:"point",value:function(t,n){var e=this.m;return{x:e[0]*t+e[2]*n+e[4],y:e[1]*t+e[3]*n+e[5]}}},{key:"translateSelf",value:function(){var t=arguments.length>0&&void 0!==arguments[0]?arguments[0]:0,n=arguments.length>1&&void 0!==arguments[1]?arguments[1]:0;if(!t&&!n)return this;var e=this.m;return e[4]+=e[0]*t+e[2]*n,e[5]+=e[1]*t+e[3]*n,this.w=this.s=this.i=null,this}},{key:"rotateSelf",value:function(){var t=arguments.length>0&&void 0!==arguments[0]?arguments[0]:0;if(t%=360){var n=S(t*=I),e=O(t),r=this.m,i=r[0],u=r[1];r[0]=i*e+r[2]*n,r[1]=u*e+r[3]*n,r[2]=r[2]*e-i*n,r[3]=r[3]*e-u*n,this.w=this.s=this.i=null}return this}},{key:"scaleSelf",value:function(){var t=arguments.length>0&&void 0!==arguments[0]?arguments[0]:1,n=arguments.length>1&&void 0!==arguments[1]?arguments[1]:1;if(1!==t||1!==n){var e=this.m;e[0]*=t,e[1]*=t,e[2]*=n,e[3]*=n,this.w=this.s=this.i=null}return this}},{key:"skewSelf",value:function(t,n){if(n%=360,(t%=360)||n){var e=this.m,r=e[0],i=e[1],u=e[2],o=e[3];t&&(t=j(t*I),e[2]+=r*t,e[3]+=i*t),n&&(n=j(n*I),e[0]+=u*n,e[1]+=o*n),this.w=this.s=this.i=null}return this}},{key:"resetSelf",value:function(){var t=arguments.length>0&&void 0!==arguments[0]?arguments[0]:1,n=arguments.length>1&&void 0!==arguments[1]?arguments[1]:0,e=arguments.length>2&&void 0!==arguments[2]?arguments[2]:0,r=arguments.length>3&&void 0!==arguments[3]?arguments[3]:1,i=arguments.length>4&&void 0!==arguments[4]?arguments[4]:0,u=arguments.length>5&&void 0!==arguments[5]?arguments[5]:0,o=this.m;return o[0]=t,o[1]=n,o[2]=e,o[3]=r,o[4]=i,o[5]=u,this.w=this.s=this.i=null,this}},{key:"recomposeSelf",value:function(){var t=arguments.length>0&&void 0!==arguments[0]?arguments[0]:null,n=arguments.length>1&&void 0!==arguments[1]?arguments[1]:null,e=arguments.length>2&&void 0!==arguments[2]?arguments[2]:null,r=arguments.length>3&&void 0!==arguments[3]?arguments[3]:null,i=arguments.length>4&&void 0!==arguments[4]?arguments[4]:null;return this.isIdentity||this.resetSelf(),t&&(t.x||t.y)&&this.translateSelf(t.x,t.y),n&&this.rotateSelf(n),e&&(e.x&&this.skewSelf(e.x,0),e.y&&this.skewSelf(0,e.y)),!r||1===r.x&&1===r.y||this.scaleSelf(r.x,r.y),i&&(i.x||i.y)&&this.translateSelf(i.x,i.y),this}},{key:"decompose",value:function(){var t=arguments.length>0&&void 0!==arguments[0]?arguments[0]:0,n=arguments.length>1&&void 0!==arguments[1]?arguments[1]:0,e=this.m,r=e[0]*e[0]+e[1]*e[1],i=[[e[0],e[1]],[e[2],e[3]]],u=R(r);if(0===u)return{origin:{x:g(e[4]),y:g(e[5])},translate:{x:g(t),y:g(n)},scale:{x:0,y:0},skew:{x:0,y:0},rotate:0};i[0][0]/=u,i[0][1]/=u;var o=e[0]*e[3]-e[1]*e[2]<0;o&&(u=-u);var a=i[0][0]*i[1][0]+i[0][1]*i[1][1];i[1][0]-=i[0][0]*a,i[1][1]-=i[0][1]*a;var l=R(i[1][0]*i[1][0]+i[1][1]*i[1][1]);if(0===l)return{origin:{x:g(e[4]),y:g(e[5])},translate:{x:g(t),y:g(n)},scale:{x:g(u),y:0},skew:{x:0,y:0},rotate:0};i[1][0]/=l,i[1][1]/=l,a/=l;var s=0;return i[1][1]<0?(s=M(i[1][1])*B,i[0][1]<0&&(s=360-s)):s=E(i[0][1])*B,o&&(s=-s),a=P(a,R(i[0][0]*i[0][0]+i[0][1]*i[0][1]))*B,o&&(a=-a),{origin:{x:g(e[4]),y:g(e[5])},translate:{x:g(t),y:g(n)},scale:{x:g(u),y:g(l)},skew:{x:g(a),y:0},rotate:g(s)}}},{key:"clone",value:function(){var t=this.m;return new this.constructor(t[0],t[1],t[2],t[3],t[4],t[5])}},{key:"toString",value:function(){var t=arguments.length>0&&void 0!==arguments[0]?arguments[0]:" ";return null===this.s&&(this.s="matrix("+this.m.map((function(t){return g(t)})).join(t)+")"),this.s}}],[{key:"create",value:function(t){return t?Array.isArray(t)?f(this,v(t)):t instanceof this?t.clone():(new this).recomposeSelf(t.origin,t.rotate,t.skew,t.scale,t.translate):new this}}]),t}();function N(t,n,e){return t>=.5?e:n}function C(t,n,e){return 0===t||n===e?n:t*(e-n)+n}function F(t,n,e){var r=C(t,n,e);return r<=0?0:r}function L(t,n,e){var r=C(t,n,e);return r<=0?0:r>=1?1:r}function q(t,n,e){return 0===t?n:1===t?e:{x:C(t,n.x,e.x),y:C(t,n.y,e.y)}}function V(t,n,e){return 0===t?n:1===t?e:{x:F(t,n.x,e.x),y:F(t,n.y,e.y)}}function D(t,n,e){var r=function(t,n,e){return Math.round(C(t,n,e))}(t,n,e);return r<=0?0:r>=255?255:r}function z(t,n,e){return 0===t?n:1===t?e:{r:D(t,n.r,e.r),g:D(t,n.g,e.g),b:D(t,n.b,e.b),a:C(t,null==n.a?1:n.a,null==e.a?1:e.a)}}function Y(t,n,e){var r=n.length;if(r!==e.length)return N(t,n,e);for(var i=new Array(r),u=0;u<r;u++)i[u]=C(t,n[u],e[u]);return i}function G(t,n){for(var e=[],r=0;r<t;r++)e.push(n);return e}function U(t,n){if(--n<=0)return t;var e=(t=Object.assign([],t)).length;do{for(var r=0;r<e;r++)t.push(t[r])}while(--n>0);return t}var $,W=function(){function t(n){r(this,t),this.list=n,this.length=n.length}return u(t,[{key:"setAttribute",value:function(t,n){for(var e=this.list,r=0;r<this.length;r++)e[r].setAttribute(t,n)}},{key:"removeAttribute",value:function(t){for(var n=this.list,e=0;e<this.length;e++)n[e].removeAttribute(t)}},{key:"style",value:function(t,n){for(var e=this.list,r=0;r<this.length;r++)e[r].style[t]=n}}]),t}(),H=/-./g,Q=function(t,n){return n.toUpperCase()};function X(t){return"function"==typeof t?t:N}function J(t){return t?"function"==typeof t?t:Array.isArray(t)?function(t){var n=arguments.length>1&&void 0!==arguments[1]?arguments[1]:b;if(!Array.isArray(t))return n;switch(t.length){case 1:return _(t[0])||n;case 2:return _(t[0],t[1])||n;case 4:return A(t[0],t[1],t[2],t[3])||n}return n}(t,null):function(t,n){var e=arguments.length>2&&void 0!==arguments[2]?arguments[2]:b;switch(t){case"linear":return b;case"steps":return _(n.steps||1,n.jump||0)||e;case"bezier":case"cubic-bezier":return A(n.x1||0,n.y1||0,n.x2||0,n.y2||0)||e}return e}(t.type,t.value,null):null}function Z(t,n,e){var r=arguments.length>3&&void 0!==arguments[3]&&arguments[3],i=n.length-1;if(t<=n[0].t)return r?[0,0,n[0].v]:n[0].v;if(t>=n[i].t)return r?[i,1,n[i].v]:n[i].v;var u,o=n[0],a=null;for(u=1;u<=i;u++){if(!(t>n[u].t)){a=n[u];break}o=n[u]}return null==a?r?[i,1,n[i].v]:n[i].v:o.t===a.t?r?[u,1,a.v]:a.v:(t=(t-o.t)/(a.t-o.t),o.e&&(t=o.e(t)),r?[u,t,e(t,o.v,a.v)]:e(t,o.v,a.v))}function K(t,n){var e=arguments.length>2&&void 0!==arguments[2]?arguments[2]:null;return t&&t.length?"function"!=typeof n?null:("function"!=typeof e&&(e=null),function(r){var i=Z(r,t,n);return null!=i&&e&&(i=e(i)),i}):null}function tt(t,n){return t.t-n.t}function nt(t,n,r,i,u){var o,a="@"===r[0],l="#"===r[0],s=$[r],f=N;switch(a?(o=r.substr(1),r=o.replace(H,Q)):l&&(r=r.substr(1)),e(s)){case"function":if(f=s(i,u,Z,J,r,a,n,t),l)return f;break;case"string":f=K(i,X(s));break;case"object":if((f=K(i,X(s.i),s.f))&&"function"==typeof s.u)return s.u(n,f,r,a,t)}return f?function(t,n,e){if(arguments.length>3&&void 0!==arguments[3]&&arguments[3])return t instanceof W?function(r){return t.style(n,e(r))}:function(r){return t.style[n]=e(r)};if(Array.isArray(n)){var r=n.length;return function(i){var u=e(i);if(null==u)for(var o=0;o<r;o++)t[o].removeAttribute(n);else for(var a=0;a<r;a++)t[a].setAttribute(n,u)}}return function(r){var i=e(r);null==i?t.removeAttribute(n):t.setAttribute(n,i)}}(n,r,f,a):null}function et(t,n,r,i){if(!i||"object"!==e(i))return null;var u=null,o=null;return Array.isArray(i)?o=function(t){if(!t||!t.length)return null;for(var n=0;n<t.length;n++)t[n].e&&(t[n].e=J(t[n].e));return t.sort(tt)}(i):(o=i.keys,u=i.data||null),o?nt(t,n,r,o,u):null}function rt(t,n,e){if(!e)return null;var r=[];for(var i in e)if(e.hasOwnProperty(i)){var u=et(t,n,i,e[i]);u&&r.push(u)}return r.length?r:null}function it(t,n){if(!n.duration||n.duration<0)return null;var e=function(t,n){if(!n)return null;var e=[];if(Array.isArray(n))for(var r=n.length,i=0;i<r;i++){var u=n[i];if(2===u.length){var o=null;if("string"==typeof u[0])o=t.getElementById(u[0]);else if(Array.isArray(u[0])){o=[];for(var a=0;a<u[0].length;a++)if("string"==typeof u[0][a]){var l=t.getElementById(u[0][a]);l&&o.push(l)}o=o.length?1===o.length?o[0]:new W(o):null}if(o){var s=rt(t,o,u[1]);s&&(e=e.concat(s))}}}else for(var f in n)if(n.hasOwnProperty(f)){var c=t.getElementById(f);if(c){var h=rt(t,c,n[f]);h&&(e=e.concat(h))}}return e.length?e:null}(t,n.elements);return e?function(t,n){var e=arguments.length>2&&void 0!==arguments[2]?arguments[2]:1/0,r=arguments.length>3&&void 0!==arguments[3]?arguments[3]:1,i=arguments.length>4&&void 0!==arguments[4]&&arguments[4],u=arguments.length>5&&void 0!==arguments[5]?arguments[5]:1,o=t.length,a=r>0?n:0;i&&e%2==0&&(a=n-a);var l=null;return function(s,f){var c=s%n,h=1+(s-c)/n;f*=r,i&&h%2==0&&(f=-f);var v=!1;if(h>e)c=a,v=!0,-1===u&&(c=r>0?0:n);else if(f<0&&(c=n-c),c===l)return!1;l=c;for(var d=0;d<o;d++)t[d](c);return v}}(e,n.duration,n.iterations||1/0,n.direction||1,!!n.alternate,n.fill||1):null}function ut(t){return+("0x"+(t.replace(/[^0-9a-fA-F]+/g,"")||27))}function ot(t,n,e){return!t||!e||n>t.length?t:t.substring(0,n)+ot(t.substring(n+1),e,e)}function at(t){var n=arguments.length>1&&void 0!==arguments[1]?arguments[1]:27;return!t||t%n?t%n:at(t/n,n)}function lt(t,n,e){if(t&&t.length){var r=ut(e),i=ut(n),u=at(r)+5,o=ot(t,at(r,5),u);return o=o.replace(/\x7c$/g,"==").replace(/\x2f$/g,"="),o=function(t,n,e){var r=+("0x"+t.substring(0,4));t=t.substring(4);for(var i=n%r+e%27,u=[],o=0;o<t.length;o+=2)if("|"!==t[o]){var a=+("0x"+t[o]+t[o+1])-i;u.push(a)}else{var l=+("0x"+t.substring(o+1,o+1+4))-i;o+=3,u.push(l)}return String.fromCharCode.apply(String,u)}(o=(o=atob(o)).replace(/[\x41-\x5A]/g,""),i,r),o=JSON.parse(o)}}Number.isInteger||(Number.isInteger=function(t){return"number"==typeof t&&isFinite(t)&&Math.floor(t)===t}),Number.EPSILON||(Number.EPSILON=2220446049250313e-31);var st=function(){function t(n,e){var i=arguments.length>2&&void 0!==arguments[2]?arguments[2]:{};r(this,t),this._id=0,this._running=!1,this._rollingBack=!1,this._animations=n,this.duration=e.duration,this.alternate=e.alternate,this.fill=e.fill,this.iterations=e.iterations,this.direction=i.direction||1,this.speed=i.speed||1,this.fps=i.fps||100,this.offset=i.offset||0,this.rollbackStartOffset=0}return u(t,[{key:"_rollback",value:function(){var t=this,n=1/0,e=null;this.rollbackStartOffset=this.offset,this._rollingBack||(this._rollingBack=!0,this._running=!0);this._id=window.requestAnimationFrame((function r(i){if(t._rollingBack){null==e&&(e=i);var u=i-e,o=t.rollbackStartOffset-u,a=Math.round(o*t.speed);if(a>t.duration&&n!=1/0){var l=!!t.alternate&&a/t.duration%2>1,s=a%t.duration;a=(s+=l?t.duration:0)||t.duration}var f=t.fps?1e3/t.fps:0,c=Math.max(0,a);if(c<n-f){t.offset=c,n=c;for(var h=t._animations,v=h.length,d=0;d<v;d++)h[d](c,t.direction)}var y=!1;if(t.iterations>0&&-1===t.fill){var g=t.iterations*t.duration,p=g==a;a=p?0:a,t.offset=p?0:t.offset,y=a>g}a>0&&t.offset>=a&&!y?t._id=window.requestAnimationFrame(r):t.stop()}}))}},{key:"_start",value:function(){var t=this,n=arguments.length>0&&void 0!==arguments[0]?arguments[0]:0,e=-1/0,r=null,i={},u=function u(o){t._running=!0,null==r&&(r=o);var a=Math.round((o-r+n)*t.speed),l=t.fps?1e3/t.fps:0;if(a>e+l&&!t._rollingBack){t.offset=a,e=a;for(var s=t._animations,f=s.length,c=0,h=0;h<f;h++)i[h]?c++:(i[h]=s[h](a,t.direction),i[h]&&c++);if(c===f)return void t._stop()}t._id=window.requestAnimationFrame(u)};this._id=window.requestAnimationFrame(u)}},{key:"_stop",value:function(){this._id&&window.cancelAnimationFrame(this._id),this._running=!1,this._rollingBack=!1}},{key:"play",value:function(){!this._rollingBack&&this._running||(this._rollingBack=!1,this.rollbackStartOffset>this.duration&&(this.offset=this.rollbackStartOffset-(this.rollbackStartOffset-this.offset)%this.duration,this.rollbackStartOffset=0),this._start(this.offset))}},{key:"stop",value:function(){this._stop(),this.offset=0,this.rollbackStartOffset=0;var t=this.direction,n=this._animations;window.requestAnimationFrame((function(){for(var e=0;e<n.length;e++)n[e](0,t)}))}},{key:"reachedToEnd",value:function(){return this.iterations>0&&this.offset>=this.iterations*this.duration}},{key:"restart",value:function(){this._stop(),this.offset=0,this._start()}},{key:"pause",value:function(){this._stop()}},{key:"reverse",value:function(){this.direction=-this.direction}}],[{key:"build",value:function(e,r){return delete e.animationSettings,e.options=lt(e.options,e.root,"91c80d77"),e.animations.map((function(t){var r=lt(t.s,e.root,"91c80d77");for(var i in delete t.s,e.animationSettings||(e.animationSettings=n({},r)),r)r.hasOwnProperty(i)&&(t[i]=r[i])})),(e=function(t,n){if($=n,!t||!t.root||!Array.isArray(t.animations))return null;for(var e=document.getElementsByTagName("svg"),r=!1,i=0;i<e.length;i++)if(e[i].id===t.root&&!e[i].svgatorAnimation){(r=e[i]).svgatorAnimation=!0;break}if(!r)return null;var u=t.animations.map((function(t){return it(r,t)})).filter((function(t){return!!t}));return u.length?{element:r,animations:u,animationSettings:t.animationSettings,options:t.options||void 0}:null}(e,r))?{el:e.element,options:e.options||{},player:new t(e.animations,e.animationSettings,e.options)}:null}},{key:"push",value:function(t){return this.build(t)}},{key:"init",value:function(){var t=this,n=window.__SVGATOR_PLAYER__&&window.__SVGATOR_PLAYER__["91c80d77"];Array.isArray(n)&&n.splice(0).forEach((function(n){return t.build(n)}))}}]),t}();!function(){for(var t=0,n=["ms","moz","webkit","o"],e=0;e<n.length&&!window.requestAnimationFrame;++e)window.requestAnimationFrame=window[n[e]+"RequestAnimationFrame"],window.cancelAnimationFrame=window[n[e]+"CancelAnimationFrame"]||window[n[e]+"CancelRequestAnimationFrame"];window.requestAnimationFrame||(window.requestAnimationFrame=function(n){var e=Date.now(),r=Math.max(0,16-(e-t)),i=window.setTimeout((function(){n(e+r)}),r);return t=e+r,i},window.cancelAnimationFrame=window.clearTimeout)}();var ft=function(t,n){var e=!1,r=null;return function(i){e&&clearTimeout(e),e=setTimeout((function(){return function(){for(var i=0,u=window.innerHeight,o=0,a=window.innerWidth,l=t.parentNode;l instanceof Element;){var s=window.getComputedStyle(l);if("visible"!==s.overflowY||"visible"!==s.overflowX){var f=l.getBoundingClientRect();"visible"!==s.overflowY&&(i=Math.max(i,f.top),u=Math.min(u,f.bottom)),"visible"!==s.overflowX&&(o=Math.max(o,f.left),a=Math.min(a,f.right))}if(l===l.parentNode)break;l=l.parentNode}e=!1;var c=t.getBoundingClientRect(),h=Math.min(c.height,Math.max(0,i-c.top)),v=Math.min(c.height,Math.max(0,c.bottom-u)),d=Math.min(c.width,Math.max(0,o-c.left)),y=Math.min(c.width,Math.max(0,c.right-a)),g=(c.height-h-v)/c.height,p=(c.width-d-y)/c.width,m=Math.round(g*p*100);null!==r&&r===m||(r=m,n(m))}()}),100)}},ct=function(){function t(n,e,i){r(this,t),e=Math.max(1,e||1),e=Math.min(e,100),this.el=n,this.onTresholdChange=i&&i.call?i:function(){},this.tresholdPercent=e||1,this.currentVisibility=null,this.visibilityCalculator=ft(n,this.onVisibilityUpdate.bind(this)),this.bindScrollWatchers(),this.visibilityCalculator()}return u(t,[{key:"bindScrollWatchers",value:function(){for(var t=this.el.parentNode;t&&(t.addEventListener("scroll",this.visibilityCalculator),t!==t.parentNode&&t!==document);)t=t.parentNode}},{key:"onVisibilityUpdate",value:function(t){var n=this.currentVisibility>=this.tresholdPercent,e=t>=this.tresholdPercent;if(null===this.currentVisibility||n!==e)return this.currentVisibility=t,void this.onTresholdChange(e);this.currentVisibility=t}}]),t}();function ht(t){return g(t)+""}function vt(t){var n=arguments.length>1&&void 0!==arguments[1]?arguments[1]:" ";return t&&t.length?t.map(ht).join(n):""}function dt(t){return ht(t.x)+","+ht(t.y)}function yt(t){return t?null==t.a||t.a>=1?"rgb("+t.r+","+t.g+","+t.b+")":"rgba("+t.r+","+t.g+","+t.b+","+t.a+")":"transparent"}function gt(t){return t?"url(#"+t+")":"none"}var pt={f:null,i:V,u:function(t,n){return function(e){var r=n(e);t.setAttribute("rx",ht(r.x)),t.setAttribute("ry",ht(r.y))}}},mt={f:null,i:function(t,n,e){return 0===t?n:1===t?e:{width:F(t,n.width,e.width),height:F(t,n.height,e.height)}},u:function(t,n){return function(e){var r=n(e);t.setAttribute("width",ht(r.width)),t.setAttribute("height",ht(r.height))}}};Object.freeze({M:2,L:2,Z:0,H:1,V:1,C:6,Q:4,T:2,S:4,A:7});var bt={},wt=null;function At(t){var n=function(){if(wt)return wt;if("object"!==("undefined"==typeof document?"undefined":e(document))||!document.createElementNS)return{};var t=document.createElementNS("http://www.w3.org/2000/svg","svg");return t&&t.style?(t.style.position="absolute",t.style.opacity="0.01",t.style.zIndex="-9999",t.style.left="-9999px",t.style.width="1px",t.style.height="1px",wt={svg:t}):{}}().svg;if(!n)return function(t){return null};var r=document.createElementNS(n.namespaceURI,"path");r.setAttributeNS(null,"d",t),r.setAttributeNS(null,"fill","none"),r.setAttributeNS(null,"stroke","none"),n.appendChild(r);var i=r.getTotalLength();return function(t){var n=r.getPointAtLength(i*t);return{x:n.x,y:n.y}}}function xt(t){return bt[t]?bt[t]:bt[t]=At(t)}function kt(t,n,e,r){if(!t||!r)return!1;var i=["M",t.x,t.y];if(n&&e&&(i.push("C"),i.push(n.x),i.push(n.y),i.push(e.x),i.push(e.y)),n?!e:e){var u=n||e;i.push("Q"),i.push(u.x),i.push(u.y)}return n||e||i.push("L"),i.push(r.x),i.push(r.y),i.join(" ")}function _t(t,n,e,r){var i=arguments.length>4&&void 0!==arguments[4]?arguments[4]:1,u=kt(t,n,e,r),o=xt(u);try{return o(i)}catch(t){return null}}function St(t,n,e,r){var i=1-r;return i*i*t+2*i*r*n+r*r*e}function Ot(t,n,e,r){return 2*(1-r)*(n-t)+2*r*(e-n)}function Mt(t,n,e,r){var i=arguments.length>4&&void 0!==arguments[4]&&arguments[4],u=_t(t,n,null,e,r);return u||(u={x:St(t.x,n.x,e.x,r),y:St(t.y,n.y,e.y,r)}),i&&(u.a=Et(t,n,e,r)),u}function Et(t,n,e,r){return Math.atan2(Ot(t.y,n.y,e.y,r),Ot(t.x,n.x,e.x,r))}function jt(t,n,e,r,i){var u=i*i;return i*u*(r-t+3*(n-e))+3*u*(t+e-2*n)+3*i*(n-t)+t}function Pt(t,n,e,r,i){var u=1-i;return 3*(u*u*(n-t)+2*u*i*(e-n)+i*i*(r-e))}function It(t,n,e,r,i){var u=arguments.length>5&&void 0!==arguments[5]&&arguments[5],o=_t(t,n,e,r,i);return o||(o={x:jt(t.x,n.x,e.x,r.x,i),y:jt(t.y,n.y,e.y,r.y,i)}),u&&(o.a=Bt(t,n,e,r,i)),o}function Bt(t,n,e,r,i){return Math.atan2(Pt(t.y,n.y,e.y,r.y,i),Pt(t.x,n.x,e.x,r.x,i))}function Rt(t,n,e){return t+(n-t)*e}function Tt(t,n,e){var r=arguments.length>3&&void 0!==arguments[3]&&arguments[3],i={x:Rt(t.x,n.x,e),y:Rt(t.y,n.y,e)};return r&&(i.a=Nt(t,n)),i}function Nt(t,n){return Math.atan2(n.y-t.y,n.x-t.x)}function Ct(t,n,e){var r=arguments.length>3&&void 0!==arguments[3]&&arguments[3];if(Lt(n)){if(qt(e))return Mt(n,e.start,e,t,r)}else if(Lt(e)){if(n.end)return Mt(n,n.end,e,t,r)}else{if(n.end)return e.start?It(n,n.end,e.start,e,t,r):Mt(n,n.end,e,t,r);if(e.start)return Mt(n,e.start,e,t,r)}return Tt(n,e,t,r)}function Ft(t,n,e){var r=Ct(t,n,e,!0);return r.a=function(t){return arguments.length>1&&void 0!==arguments[1]&&arguments[1]?t+Math.PI:t}(r.a)/m,r}function Lt(t){return!t.type||"corner"===t.type}function qt(t){return null!=t.start&&!Lt(t)}var Vt=new T;var Dt={f:function(t){return t?t.join(" "):""},i:function(t,n,r){if(0===t)return n;if(1===t)return r;var i=n.length;if(i!==r.length)return N(t,n,r);for(var u,o=new Array(i),a=0;a<i;a++){if((u=e(n[a]))!==e(r[a]))return N(t,n,r);if("number"===u)o[a]=C(t,n[a],r[a]);else{if(n[a]!==r[a])return N(t,n,r);o[a]=n[a]}}return o}},zt={f:null,i:Y,u:function(t,n){return function(e){var r=n(e);t.setAttribute("x1",ht(r[0])),t.setAttribute("y1",ht(r[1])),t.setAttribute("x2",ht(r[2])),t.setAttribute("y2",ht(r[3]))}}},Yt={f:ht,i:C},Gt={f:ht,i:L},Ut={f:function(t){var n=arguments.length>1&&void 0!==arguments[1]?arguments[1]:" ";return t&&t.length>0&&(t=t.map((function(t){return g(t,4)}))),vt(t,n)},i:function(t,n,e){var r,i,u,o=n.length,a=e.length;if(o!==a)if(0===o)n=G(o=a,0);else if(0===a)a=o,e=G(o,0);else{var l=(u=(r=o)*(i=a)/function(t,n){for(var e;n;)e=n,n=t%n,t=e;return t||1}(r,i))<0?-u:u;n=U(n,Math.floor(l/o)),e=U(e,Math.floor(l/a)),o=a=l}for(var s=[],f=0;f<o;f++)s.push(g(F(t,n[f],e[f])));return s}};function $t(t,n,e){return t.map((function(t){return function(t,n,e){var r=t.v;if(!r||"g"!==r.t||r.s||!r.v||!r.r)return t;var i=e.getElementById(r.r),u=i&&i.querySelectorAll("stop")||[];return r.s=r.v.map((function(t,n){var e=u[n]&&u[n].getAttribute("offset");return{c:t,o:e=g(parseInt(e)/100)}})),delete r.v,t}(t,0,e)}))}var Wt={gt:"gradientTransform",c:{x:"cx",y:"cy"},rd:"r",f:{x:"x1",y:"y1"},to:{x:"x2",y:"y2"}};function Ht(t,n,r,i,u,o,a,l){return $t(t,0,l),n=function(t,n,e){for(var r,i,u,o=t.length-1,a={},l=0;l<=o;l++)(r=t[l]).e&&(r.e=n(r.e)),r.v&&"g"===(i=r.v).t&&i.r&&(u=e.getElementById(i.r))&&(a[i.r]={e:u,s:u.querySelectorAll("stop")});return a}(t,i,l),function(i){var u=r(i,t,Qt);if(!u)return"none";if("c"===u.t)return yt(u.v);if("g"===u.t){if(!n[u.r])return gt(u.r);var o=n[u.r];return function(t,n){for(var e=t.s,r=e.length;r<n.length;r++){var i=e[e.length-1].cloneNode();i.id=Zt(i.id),t.e.appendChild(i),e=t.s=t.e.querySelectorAll("stop")}for(var u=0,o=e.length,a=n.length-1;u<o;u++)e[u].setAttribute("stop-color",yt(n[Math.min(u,a)].c)),e[u].setAttribute("offset",n[Math.min(u,a)].o)}(o,u.s),Object.keys(Wt).forEach((function(t){if(void 0!==u[t])if("object"!==e(Wt[t])){var n,r="gt"===t?(n=u[t],Array.isArray(n)?"matrix("+n.join(" ")+")":""):u[t],i=Wt[t];o.e.setAttribute(i,r)}else Object.keys(Wt[t]).forEach((function(n){if(void 0!==u[t][n]){var e=u[t][n],r=Wt[t][n];o.e.setAttribute(r,e)}}))})),gt(u.r)}return"none"}}function Qt(t,e,r){if(0===t)return e;if(1===t)return r;if(e&&r){var i=e.t;if(i===r.t)switch(e.t){case"c":return{t:i,v:z(t,e.v,r.v)};case"g":if(e.r===r.r){var u={t:i,s:Xt(t,e.s,r.s),r:e.r};return e.gt&&r.gt&&(u.gt=Y(t,e.gt,r.gt)),e.c?(u.c=q(t,e.c,r.c),u.rd=F(t,e.rd,r.rd)):e.f&&(u.f=q(t,e.f,r.f),u.to=q(t,e.to,r.to)),u}}if("c"===e.t&&"g"===r.t||"c"===r.t&&"g"===e.t){var o="c"===e.t?e:r,a="g"===e.t?n({},e):n({},r),l=a.s.map((function(t){return{c:o.v,o:t.o}}));return a.s="c"===e.t?Xt(t,l,a.s):Xt(t,a.s,l),a}}return N(t,e,r)}function Xt(t,n,e){if(n.length===e.length)return n.map((function(n,r){return Jt(t,n,e[r])}));for(var r=Math.max(n.length,e.length),i=[],u=0;u<r;u++){var o=Jt(t,n[Math.min(u,n.length-1)],e[Math.min(u,e.length-1)]);i.push(o)}return i}function Jt(t,n,e){return{o:L(t,n.o,e.o||0),c:z(t,n.c,e.c||{})}}function Zt(t){return t.replace(/-fill-([0-9]+)$/,(function(t,n){return"-fill-"+(+n+1)}))}var Kt={blur:V,brightness:F,contrast:F,"drop-shadow":function(t,n,e){return 0===t?n:1===t?e:{blur:V(t,n.blur,e.blur),offset:q(t,n.offset,e.offset),color:z(t,n.color,e.color)}},grayscale:F,"hue-rotate":C,invert:F,opacity:F,saturate:F,sepia:F};function tn(t,n,e){if(0===t)return n;if(1===t)return e;var r=n.length;if(r!==e.length)return N(t,n,e);for(var i,u=[],o=0;o<r;o++){if(n[o].type!==e[o].type)return n;if(!(i=Kt[n[o].type]))return N(t,n,e);u.push({type:n.type,value:i(t,n[o].value,e[o].value)})}return u}var nn={blur:function(t){return t?function(n){t.setAttribute("stdDeviation",dt(n))}:null},brightness:function(t,n,e){return(t=rn(e,n))?function(n){n=ht(n),t.map((function(t){return t.setAttribute("slope",n)}))}:null},contrast:function(t,n,e){return(t=rn(e,n))?function(n){var e=ht((1-n)/2);n=ht(n),t.map((function(t){t.setAttribute("slope",n),t.setAttribute("intercept",e)}))}:null},"drop-shadow":function(t,n,e){var r=e.getElementById(n+"-blur");if(!r)return null;var i=e.getElementById(n+"-offset");if(!i)return null;var u=e.getElementById(n+"-flood");return u?function(t){r.setAttribute("stdDeviation",dt(t.blur)),i.setAttribute("dx",ht(t.offset.x)),i.setAttribute("dy",ht(t.offset.y)),u.setAttribute("flood-color",yt(t.color))}:null},grayscale:function(t){return t?function(n){t.setAttribute("values",vt(function(t){return[.2126+.7874*(t=1-t),.7152-.7152*t,.0722-.0722*t,0,0,.2126-.2126*t,.7152+.2848*t,.0722-.0722*t,0,0,.2126-.2126*t,.7152-.7152*t,.0722+.9278*t,0,0,0,0,0,1,0]}(n)))}:null},"hue-rotate":function(t){return t?function(n){return t.setAttribute("values",ht(n))}:null},invert:function(t,n,e){return(t=rn(e,n))?function(n){n=ht(n)+" "+ht(1-n),t.map((function(t){return t.setAttribute("tableValues",n)}))}:null},opacity:function(t,n,e){return(t=e.getElementById(n+"-A"))?function(n){return t.setAttribute("tableValues","0 "+ht(n))}:null},saturate:function(t){return t?function(n){return t.setAttribute("values",ht(n))}:null},sepia:function(t){return t?function(n){return t.setAttribute("values",vt(function(t){return[.393+.607*(t=1-t),.769-.769*t,.189-.189*t,0,0,.349-.349*t,.686+.314*t,.168-.168*t,0,0,.272-.272*t,.534-.534*t,.131+.869*t,0,0,0,0,0,1,0]}(n)))}:null}};var en=["R","G","B"];function rn(t,n){var e=en.map((function(e){return t.getElementById(n+"-"+e)||null}));return-1!==e.indexOf(null)?null:e}var un={fill:Ht,"fill-opacity":Gt,stroke:Ht,"stroke-opacity":Gt,"stroke-width":Yt,"stroke-dashoffset":{f:ht,i:C},"stroke-dasharray":Ut,opacity:Gt,transform:function(t,n,r,i){if(!(t=function(t,n){if(!t||"object"!==e(t))return null;var r=!1;for(var i in t)t.hasOwnProperty(i)&&(t[i]&&t[i].length?(t[i].forEach((function(t){t.e&&(t.e=n(t.e))})),r=!0):delete t[i]);return r?t:null}(t,i)))return null;var u=function(e,i,u){var o=arguments.length>3&&void 0!==arguments[3]?arguments[3]:null;return t[e]?r(i,t[e],u):n&&n[e]?n[e]:o};return n&&n.a&&t.o?function(n){var e=r(n,t.o,Ft);return Vt.recomposeSelf(e,u("r",n,C,0)+e.a,u("k",n,q),u("s",n,q),u("t",n,q)).toString()}:function(t){return Vt.recomposeSelf(u("o",t,Ct,null),u("r",t,C,0),u("k",t,q),u("s",t,q),u("t",t,q)).toString()}},"#filter":function(t,n,e,r,i,u,o,a){if(!n.items||!t||!t.length)return null;var l=function(t,n){var e=(t=t.map((function(t){return t&&nn[t[0]]?(n.getElementById(t[1]),nn[t[0]](n.getElementById(t[1]),t[1],n)):null}))).length;return function(n){for(var r=0;r<e;r++)t[r]&&t[r](n[r].value)}}(n.items,a);return l?(t=function(t,n){return t.map((function(t){return t.e=n(t.e),t}))}(t,r),function(n){l(e(n,t,tn))}):null},"#line":zt,points:{f:vt,i:Y},d:Dt,r:Yt,"#size":mt,"#radius":pt,_:function(t,n){if(Array.isArray(t))for(var e=0;e<t.length;e++)this[t[e]]=n;else this[t]=n}},on=function(t){!function(t,n){if("function"!=typeof n&&null!==n)throw new TypeError("Super expression must either be null or a function");t.prototype=Object.create(n&&n.prototype,{constructor:{value:t,writable:!0,configurable:!0}}),n&&l(t,n)}(o,t);var n,e,i=(n=o,e=s(),function(){var t,r=a(n);if(e){var i=a(this).constructor;t=Reflect.construct(r,arguments,i)}else t=r.apply(this,arguments);return c(this,t)});function o(){return r(this,o),i.apply(this,arguments)}return u(o,null,[{key:"build",value:function(t){var n=h(a(o),"build",this).call(this,t,un);if(!n)return null;var e=n.el,r=n.options,i=n.player;return function(t,n,e){if("click"===e.start){var r=function(){switch(e.click){case"freeze":return!t._running&&t.reachedToEnd()&&(t.offset=0),t._running?t.pause():t.play();case"restart":return t.offset>0?t.restart():t.play();case"reverse":var n=!t._rollingBack&&t._running,r=t.reachedToEnd();return n||r&&1===t.fill?(t.pause(),r&&(t.offset=t.duration-1),t._rollback()):r?t.restart():t.play();case"none":default:return!t._running&&t.offset?t.restart():t.play()}};return void n.addEventListener("click",r)}if("hover"===e.start)return n.addEventListener("mouseenter",(function(){return t.reachedToEnd()?t.restart():t.play()})),void n.addEventListener("mouseleave",(function(){switch(e.hover){case"freeze":return t.pause();case"reset":return t.stop();case"reverse":return t.pause(),t._rollback();case"none":default:return}}));if("scroll"===e.start)return void new ct(n,e.scroll||25,(function(n){n?t.reachedToEnd()?t.restart():t.play():t.pause()}));t.play()}(i,e,r),i}}]),o}(st);return on.init(),on}));
(function(s,i,o,w){w[o]=w[o]||{};w[o][s]=w[o][s]||[];w[o][s].push(i);})('91c80d77',{"root":"eAVfrBJyOls1","animations":[{"elements":{"eAVfrBJyOls2":{"transform":{"keys":{"o":[{"t":0,"v":{"x":-7264,"y":-16699,"type":"corner"},"e":[0.42,0,0.58,1]},{"t":1100,"v":{"x":-7264,"y":-16692,"type":"corner"},"e":[0.42,0,0.58,1]},{"t":2200,"v":{"x":-7264,"y":-16702,"type":"corner"},"e":[0.42,0,0.58,1]},{"t":3000,"v":{"x":-7264,"y":-16699,"type":"corner"}}]}}},"eAVfrBJyOls10":{"transform":{"data":{"o":{"x":70.5,"y":136,"type":"corner"},"t":{"x":-41.057,"y":-41.36}},"keys":{"r":[{"t":0,"v":10.388802,"e":[0.42,0,0.58,1]},{"t":800,"v":-12.829864,"e":[0.42,0,0.58,1]},{"t":2000,"v":15.239494,"e":[0.42,0,0.58,1]},{"t":3000,"v":10.388802}],"s":[{"t":0,"v":{"x":0.92831,"y":0.92831},"e":[0.42,0,0.58,1]},{"t":1100,"v":{"x":1.031682,"y":1.031682},"e":[0.42,0,0.58,1]},{"t":2300,"v":{"x":0.837765,"y":0.837765},"e":[0.42,0,0.58,1]},{"t":3000,"v":{"x":0.92831,"y":0.92831}}]}}},"eAVfrBJyOls24":{"transform":{"keys":{"o":[{"t":0,"v":{"x":7288,"y":16034,"type":"corner"},"e":[0.42,0,0.58,1]},{"t":900,"v":{"x":7288,"y":16027,"type":"corner"},"e":[0.42,0,0.58,1]},{"t":2200,"v":{"x":7288,"y":16034,"type":"corner"},"e":[0.42,0,0.58,1]},{"t":3000,"v":{"x":7288,"y":16034,"type":"corner"}}]}}}},"s":"MDPA1MzhlQzM1NOzc4ODg1NzQ4FNzdjODI4MTMC1SzRkNDY0MzVQzNDMzZjM1NQzc3Yzg1Nzg3ONjg3N2M4MjgLxMzU0ZDQ0M2OYzNTdjODc3OBDg1NzQ4NzdjJWTgyODE4NjMS1RzRkUDQzM2YYzNTc5N2M3ZHjdmMzU0ZDQ0DM2YzNTc0N2ZSMODc3ODg1ODOE3NDg3NzgzNGTRkNzk3NDdmIODY3ODNmMzUN4NjgzNzg3ODFc3MzVCNGQ0NSDkw"}],"options":"MDRAxMDgyMjk3YOTdiVjY4Nzk3NYjI5SzQxMjkI3Mzc2Njg2YjUI5ODQ/"},'__SVGATOR_PLAYER__',window)]]></script></svg>