<svg id="ezPgcOQuUvm1" xmlns="http://www.w3.org/2000/svg" xmlns:xlink="http://www.w3.org/1999/xlink" viewBox="0 0 159 221" shape-rendering="geometricPrecision" text-rendering="geometricPrecision"><defs><linearGradient id="ezPgcOQuUvm22-fill" x1="1" y1="0.539" x2="0" y2="0.533" spreadMethod="pad" gradientUnits="objectBoundingBox" gradientTransform="matrix(1 0 0 1 0 0)"><stop id="ezPgcOQuUvm22-fill-0" offset="0%" stop-color="rgba(0,0,0,0)"/><stop id="ezPgcOQuUvm22-fill-1" offset="100%" stop-color="rgb(0,0,0)"/></linearGradient><linearGradient id="ezPgcOQuUvm23-fill" x1="0" y1="0.539" x2="1" y2="0.533" spreadMethod="pad" gradientUnits="objectBoundingBox" gradientTransform="matrix(1 0 0 1 0 0)"><stop id="ezPgcOQuUvm23-fill-0" offset="0%" stop-color="rgba(0,0,0,0)"/><stop id="ezPgcOQuUvm23-fill-1" offset="100%" stop-color="rgb(0,0,0)"/></linearGradient></defs><g id="ezPgcOQuUvm2" transform="matrix(1 0 0 1 -7264 -16699)"><rect id="ezPgcOQuUvm3" width="159" height="221" rx="0" ry="0" transform="matrix(1 0 0 1 7264 16699)" fill="none" stroke="none" stroke-width="1"/><g id="ezPgcOQuUvm4" transform="matrix(1 0 0 1 -15 674)"><g id="ezPgcOQuUvm5" transform="matrix(1 0 0 1 7288 16034)"><g id="ezPgcOQuUvm6"><rect id="ezPgcOQuUvm7" width="141" height="204" rx="3" ry="3" fill="rgb(255,15,15)" stroke="none" stroke-width="2"/><rect id="ezPgcOQuUvm8" width="139" height="202" rx="2" ry="2" transform="matrix(1 0 0 1 1 1)" fill="none" stroke="rgb(255,206,25)" stroke-width="2"/></g><path id="ezPgcOQuUvm9" d="M3.563,0L65.321,0C66.265966,0,67.172229,0.375386,67.840421,1.043579C68.508614,1.711771,68.884,2.618034,68.884,3.563L68.884,199.525L3.563,199.525C2.618034,199.525,1.711771,199.149614,1.043579,198.481421C0.375386,197.813229,0,196.906966,0,195.962L0,3.563C0,2.618034,0.375386,1.711771,1.043579,1.043579C1.711771,0.375386,2.618034,0,3.563,0Z" transform="matrix(1 0 0 1 2.375 2.375)" fill="rgb(213,19,19)" stroke="none" stroke-width="1"/><g id="ezPgcOQuUvm10" transform="matrix(0.993001 -0.118107 0.118107 0.993001 24.841978 99.719906)"><g id="ezPgcOQuUvm11" transform="matrix(1 0 0 1 -38.44 -103.64)"><g id="ezPgcOQuUvm12" transform="matrix(1 0 0 1 38 104)"><circle id="ezPgcOQuUvm13" r="41" transform="matrix(1 0 0 1 41 41)" fill="rgb(144,2,0)" stroke="none" stroke-width="1"/><circle id="ezPgcOQuUvm14" r="40.5" transform="matrix(1 0 0 1 41 41)" fill="none" stroke="rgb(255,206,25)" stroke-width="1"/></g></g><g id="ezPgcOQuUvm15" transform="matrix(1 0 0 1 16.204 14.57)"><path id="ezPgcOQuUvm16" d="M0.758,30.811L0.814,30.851L0.962,30.643L0.909,30.6L0.758,30.807ZM3.058,29.178C3.146067,29.063225,3.244845,28.957081,3.353,28.861C3.48217,28.787799,3.618561,28.728148,3.76,28.683C3.91078,28.370525,4.234556,28.179257,4.581,28.198C4.691127,28.184691,4.795186,28.140293,4.881,28.07C5.496,27.617,6.111,27.17,6.711,26.693C6.828,26.601,7.023,26.547,7.021,26.331C7.021,26.3,7.121,26.266,7.169,26.231C7.244,26.182,7.386,26.131,7.382,26.085C7.371,25.934,7.431,25.925,7.548,25.938C7.578,25.938,7.641,25.901,7.648,25.877C7.688,25.383,8.2,25.309,8.44,24.99C8.633978,24.758971,8.84926,24.546702,9.083,24.356C9.183,24.263,9.315,24.201,9.411,24.105C9.848598,23.652052,10.238635,23.155459,10.575,22.623C10.713,22.415,10.85,22.206,11,22.007C11.565777,21.286766,12.048183,20.504785,12.438,19.676C12.611988,19.296757,12.81527,18.931651,13.046,18.584C13.336249,18.032194,13.526198,17.433228,13.607,16.815C13.53326,16.817599,13.460235,16.830387,13.39,16.853C12.935071,17.118693,12.456326,17.341326,11.96,17.518C11.39152,17.739301,10.840041,18.002006,10.31,18.304C9.766,18.58,9.229,18.874,8.687,19.156C8.393,19.309,8.087,19.433,7.804,19.61C7.583,19.75,7.414,19.969,7.199,20.117C6.67699,20.434374,6.497205,21.106365,6.791,21.642C6.856809,22.00975,6.964511,22.368754,7.112,22.712C7.18306,22.854741,7.153531,23.027062,7.039,23.138C6.769,23.475,6.531,23.838,6.239,24.155C5.947,24.472,5.639,24.724,5.328,25.001C5.289521,25.042579,5.237318,25.068858,5.181,25.075C4.763,25.043,4.329,25.188,3.927,24.929C3.713198,24.800013,3.483633,24.699179,3.244,24.629C2.934,24.529,2.844,24.244,2.731,24.011C2.606538,23.687124,2.405471,23.398219,2.145,23.169C2.045226,23.075594,1.980909,22.950495,1.963,22.815C1.925283,22.567572,1.912885,22.316943,1.926,22.067C1.979105,21.383304,1.840589,20.698339,1.526,20.089C1.155369,19.313219,1.145855,18.413444,1.5,17.63C1.597479,17.413439,1.752419,17.227719,1.948,17.093C2.178477,16.957106,2.323087,16.71244,2.331,16.445C2.326,16.111,2.55,15.918,2.744,15.667C2.973,15.839,3.186,15.99,3.387,16.155C3.755858,16.531472,4.301409,16.675442,4.808,16.53C5.59,16.281,6.389,16.082,7.158,15.8C8.509926,15.322462,9.887796,14.921821,11.285,14.6C12.095,14.4,12.892,14.152,13.691,13.908C13.834444,13.832917,13.972151,13.747352,14.103,13.652C14.233121,13.597989,14.366762,13.552885,14.503,13.517C14.676,13.262,14.829,12.999,15.019,12.766C15.3683,12.350139,15.814837,12.026915,16.319,11.825C16.674599,11.632377,17.076009,11.540409,17.48,11.559C17.788081,11.57997,18.068919,11.74293,18.24,12C18.38579,12.249045,18.55524,12.483462,18.746,12.7C18.950312,12.884156,19.175121,13.044207,19.416,13.177C19.831136,13.40053,20.234348,13.645529,20.624,13.911C20.920006,14.118693,21.156785,14.399932,21.311,14.727C21.500881,15.126375,21.754534,15.492163,22.062,15.81C22.134816,15.912744,22.223211,16.003501,22.324,16.079C22.775461,16.451167,23.136536,16.920975,23.38,17.453C23.480482,17.76558,23.509194,18.096792,23.464,18.422C23.46625,18.559004,23.447705,18.695557,23.409,18.827C23.357179,19.083695,23.271074,19.332256,23.153,19.566C22.89732,19.985402,22.528066,20.323798,22.088,20.542C21.807887,20.70192,21.476704,20.747082,21.164,20.668C20.664,20.514,20.658,20.519,20.427,21.004C20.412887,21.028087,20.395748,21.050267,20.376,21.07C19.97173,20.963832,19.541088,21.050182,19.209,21.304C19.03064,21.451059,18.870503,21.618917,18.732,21.804C18.57,22.023,18.332,22.184,18.15,22.39C17.876,22.701,17.615,23.025,17.359,23.351C17.197,23.559,17.054,23.781,16.886,24.021C16.953559,24.102351,17.026382,24.179183,17.104,24.251C17.631,24.684,18.17,25.103,18.69,25.544C19.09,25.885,19.49,26.236,19.865,26.607C20.89601,27.544154,21.830053,28.582724,22.653,29.707C22.934225,30.01801,23.105045,30.413075,23.139,30.831C23.142288,30.936873,23.103448,31.039727,23.031,31.117C22.510672,31.458199,22.073038,31.911207,21.75,32.443C21.494858,32.793233,21.149156,33.067374,20.75,33.236C20.418342,33.369678,20.041434,33.325203,19.75,33.118C19.344,32.906,18.944,32.679,18.541,32.458C18.529,32.452,18.517,32.439,18.505,32.439C18.336397,32.449794,18.167125,32.442755,18,32.418C17.829,32.371,17.682,32.258,17.484,32.336C17.304552,32.3962,17.106747,32.334033,16.994,32.182C16.512676,31.76094,16.094694,31.272564,15.753,30.732C15.566754,30.387409,15.330904,30.072043,15.053,29.796C15.046481,29.881209,15.046481,29.966791,15.053,30.052C15.107593,30.547678,15.099867,31.048243,15.03,31.542C14.968,32.093,14.97,32.653,14.947,33.209Q14.882,34.774,14.818,36.339C14.795,36.882,14.743,37.425,14.757,37.967C14.768007,38.67562,14.818753,39.383064,14.909,40.086C14.976933,40.580675,14.962063,41.083207,14.865,41.573C14.802114,42.042267,14.814266,42.51855,14.901,42.984C15.014506,43.64325,14.992046,44.318745,14.835,44.969C14.749267,45.30645,14.699654,45.652059,14.687,46C14.642,46.751,14.608,47.5,14.597,48.255C14.591224,48.964639,14.493408,49.67053,14.306,50.355C14.175,50.824,14.044,51.292,13.916,51.761C13.874,51.92,13.816,52.043,13.616,52.061C13.546,52.066,13.478,52.138,13.416,52.187C13.373,52.219,13.345,52.287,13.299,52.3C12.976845,52.419776,12.648745,52.522912,12.316,52.609C12.170681,52.630739,12.028388,52.669332,11.892,52.724C11.77,52.781,11.525,52.795,11.458,52.724C11.266,52.507,11.112,52.656,10.94,52.724C10.68,52.459,10.324,52.55,10.031,52.524C9.679439,52.515029,9.346074,52.680028,9.14,52.965C9.06346,52.741241,8.922144,52.545278,8.734,52.402C8.603,52.314,8.588,52.028,8.555,51.826C8.488,51.4,8.445,50.971,8.391,50.544C8.390239,50.502649,8.385551,50.461464,8.377,50.421C8.104,49.651,7.868,48.866,7.546,48.121C7.038448,47.052581,6.793972,45.878204,6.833,44.696C6.831268,44.04024,6.993156,43.394408,7.304,42.817C7.542,42.429,7.711,41.999,7.933,41.601C8.029565,41.447783,8.147409,41.309064,8.283,41.189C9.362848,40.180416,10.225751,38.962281,10.819,37.609C10.879,37.468,10.955,37.335,11.025,37.198C11.192874,36.863073,11.291828,36.497863,11.316,36.124C11.416,34.891,11.555,33.662,11.69,32.432C11.748,31.894,11.817,31.355,11.9,30.819C11.939,30.573,12.028,30.337,12.085,30.093C12.207,29.569,12.324,29.042,12.458,28.46C12.25327,28.492541,12.057691,28.567842,11.884,28.681C10.833,29.381,9.795,30.11,8.734,30.799C8.365,31.039,7.934,31.175,7.548,31.399C6.811928,31.757846,6.047294,32.054869,5.262,32.287C5.24,32.296,5.209,32.281,5.147,32.272L5.304,31.967L4.733,32.179C4.612521,32.101109,4.481531,32.040834,4.344,32C4.026193,32.003271,3.709791,31.957396,3.406,31.864C3.299,31.816,3.085,31.973,2.936,32.064C2.818,32.135,2.726,32.249,2.564,32.184C2.208485,32.081726,1.825385,32.17446,1.556,32.428C1.201,32.66,1.103,32.667,0.884,32.334C0.716,32.081,0.584,31.818,0.264,31.706C0.176,31.675,0.12,31.551,-0.001,31.412L0.621,31.2C0.621,31.1,0.621,31.007,0.621,30.911C0.576783,30.567724,0.774805,30.239207,1.099,30.118C1.268703,30.024172,1.427933,29.912543,1.574,29.785C1.64956,29.749186,1.728656,29.721369,1.81,29.702C1.698,30.12,1.233,30.111,1.138,30.471L3.038,29.187C3.038,29.187,3.05,29.173,3.05,29.173Z" transform="matrix(1 0 0 1 0 0.96)" fill="rgb(255,206,25)" stroke="none" stroke-width="1"/><path id="ezPgcOQuUvm17" d="M26.715,38.6C26.675745,39.06014,26.690512,39.523295,26.759,39.98C26.807,40.213,26.868,40.366,27.076,40.411C27.084,40.572,27.091,40.705,27.1,40.878C27.258,40.846,27.377,40.824,27.5,40.796C27.7,40.749,27.9,40.683,28.105,40.652C28.584,40.578,29.074,40.558,29.542,40.443C29.950922,40.360232,30.374638,40.389954,30.768,40.529C30.9,40.567,31.038,40.59,31.174,40.618C31.321805,40.661531,31.48157,40.629354,31.601,40.532C31.487,39.732,31.379,38.971,31.271,38.208L31.085,38.232C31.058,38.061,31.036,37.917,31.008,37.739L26.719,38.601ZM31.533,31.773C30.31801,32.167951,29.213863,32.845106,28.311,33.749C27.492229,34.536922,26.99361,35.599694,26.911,36.733C27.089,36.711,27.264,36.696,27.438,36.668C28.208,36.543,28.976,36.413,29.746,36.291C30.062,36.241,30.381,36.201,30.699,36.171C30.907,36.15,30.999,36.054,30.977,35.845C30.951,35.57,30.922,35.295,30.913,35.019C30.907639,34.913369,30.934868,34.808643,30.991,34.719C31.237609,34.380969,31.398232,33.987991,31.459,33.574C31.636609,32.990102,31.662081,32.370506,31.533,31.774ZM33.426,40.336C33.564,40.36,33.605,40.372,33.645,40.373C34.761223,40.374905,35.856421,40.676766,36.816,41.247C37.235151,41.555189,37.573736,41.959981,37.803,42.427C37.846,42.491,37.803,42.611,37.803,42.704C37.763058,42.960654,37.753659,43.221135,37.775,43.48C37.802915,43.656154,37.767484,43.8365,37.675,43.989C37.575,44.213,37.452,44.43,37.375,44.663C37.354084,44.765497,37.386447,44.871617,37.461,44.945C37.695325,45.10592,37.965562,45.206872,38.248,45.239C38.219,45.053,38.199,44.918,38.177,44.784C38.018508,43.878141,37.959158,42.957713,38,42.039C38.055,40.775,38.134,39.511,38.245,38.25C38.353,37.004,38.528,35.764,38.645,34.519C38.74792,33.903607,38.74792,33.275393,38.645,32.66C38.470101,31.995673,38.038443,31.428043,37.445,31.082C37.134245,30.862832,36.762239,30.747345,36.382,30.752C35.50409,30.743974,34.628119,30.835899,33.771,31.026C33.64,31.058,33.514,31.106,33.424,31.134C33.682,31.782,33.924,32.394,34.168,33.011L34.368,32.906C34.417836,33.114581,34.498024,33.314715,34.606,33.5C34.766873,33.692352,34.850931,33.937401,34.842,34.188C34.891291,34.77047,35.135427,35.319336,35.535,35.746C35.747,36.031,36.012,36.277,36.29,36.581C36.162,36.702,36.076,36.838,35.952,36.893C35.643,37.031,35.341,37.258,34.939,37.031C34.639,37.877,34.339,38.691,34.044,39.522L33.651,39.422C33.571,39.738,33.499,40.022,33.42,40.342ZM35.291,46.407L33.541,45.638C33.371498,45.894509,33.089182,46.054079,32.782,46.067C31.12997,46.432849,29.414993,46.404415,27.776,45.984C27.537,45.911,27.284,45.884,27.038,45.837C26.776561,45.772486,26.500123,45.840941,26.299,46.02C26.177764,46.107042,26.034051,46.157377,25.885,46.165C25.668456,46.184381,25.450419,46.179349,25.235,46.15C24.79,46.088,24.518,46.357,24.222,46.641C24.120654,46.55784,24.011861,46.484195,23.897,46.421C23.803747,46.376202,23.698477,46.362868,23.597,46.383C23.167,46.505,23.169,46.512,22.904,46.189C22.878034,46.157256,22.847738,46.129317,22.814,46.106C22.784354,46.093637,22.752991,46.08588,22.721,46.083C22.555,46.149,22.594,46.525,22.283,46.397C21.8286,45.5992,21.579797,44.700895,21.559,43.783C21.525,43.383,21.459,42.983,21.398,42.583C21.373957,42.506263,21.327667,42.438394,21.265,42.388C20.904,42.048,20.82,41.862,21.077,41.488C21.386283,40.942203,21.49255,40.304602,21.377,39.688C21.364535,39.563311,21.364535,39.437689,21.377,39.313C21.439509,38.967165,21.36022,38.610724,21.157,38.324C21.044269,38.09543,21.03373,37.829782,21.128,37.593C21.179682,37.319592,21.271686,37.055376,21.401,36.809C21.740359,36.080317,22.018648,35.324723,22.233,34.55C22.44,33.961,22.593,33.35,22.779,32.756C22.984152,32.23703,23.29547,31.766647,23.693,31.375C23.937,31.093,24.209,30.836,24.493,30.542C25.635,31.311,25.693,32.589,25.934,33.829C26.023996,33.803412,26.11036,33.766447,26.191,33.719C26.376,33.572,26.555,33.419,26.728,33.254C27.557592,32.528473,28.509801,31.956538,29.54,31.565C30.282,31.253,31.02,30.921,31.78,30.665C32.589639,30.36838,33.430368,30.16474,34.286,30.058C34.839,30.002,35.386,29.889,35.933,29.786C36.103237,29.7794,36.258937,29.688231,36.348,29.543C36.383,29.476,36.502,29.443,36.588,29.415C36.826,29.337,37.07,29.275,37.308,29.195C37.413261,29.168245,37.510186,29.115658,37.59,29.042C38.003779,28.630435,38.60419,28.468069,39.169,28.615C39.536,28.66,39.89,28.806,40.256,28.88C40.440721,28.927845,40.633868,28.933314,40.821,28.896C41.239579,28.785914,41.677239,28.769186,42.103,28.847C42.48824,28.906371,42.880939,28.897231,43.263,28.82C43.371864,28.796979,43.482089,28.780947,43.593,28.772C43.967885,28.725053,44.345473,28.83547,44.636,29.077C45.289718,29.567783,45.972276,30.018926,46.68,30.428C47.297862,30.778058,47.767099,31.341142,48,32.012C48.158899,32.471572,48.3425,32.922228,48.55,33.362C48.706,33.743,48.705,33.744,48.55,34.178L48.144,34.078L48.376,34.667L48.14,34.461C48.074,34.537,48,34.589,47.974,34.661C47.883,34.905,47.801,35.152,47.731,35.402C47.676695,35.585265,47.589992,35.757317,47.475,35.91C47.326474,36.156128,47.215582,36.423079,47.146,36.702C46.919823,37.517147,46.599323,38.303126,46.191,39.044C45.866282,39.548585,45.687361,40.133109,45.674,40.733C45.674,40.815,45.658,40.898,45.647,41.01C45.373,41.046,45.247,41.237,45.157,41.482C44.957,42.029,44.732,42.567,44.533,43.115C44.308797,43.636121,44.016228,44.125081,43.663,44.569C43.569,44.703,43.478,44.841,43.38,44.969C43.241795,45.214375,42.9984,45.382539,42.72,45.425C42.476396,45.44828,42.239133,45.51607,42.02,45.625C41.795,45.74,41.567,45.872,41.542,46.201C41.527,46.393,41.326,46.571,41.315,46.763C41.289,47.217,40.988,47.285,40.642,47.38C40.400562,47.479918,40.171667,47.607791,39.96,47.761C39.995357,47.888307,40.016816,48.01907,40.024,48.151C40.007625,48.28318,39.976084,48.413036,39.93,48.538C39.538,48.438,39.509,48.4,39.392,47.889C39.218468,47.929581,39.048303,47.983405,38.883,48.05C38.641703,48.170451,38.353291,48.145741,38.136,47.986C37.887,47.835,37.624,47.708,37.367,47.57L37.384,47.58C36.836311,47.10629,36.222109,46.715464,35.561,46.42C35.470462,46.395578,35.376664,46.385456,35.283,46.39L35.298,46.406Z" transform="matrix(1 0 0 1 1.739 2.376)" fill="rgb(255,206,25)" stroke="none" stroke-width="1"/><path id="ezPgcOQuUvm18" d="M29.335,27.156C29.854,27.037,30.311,26.917,30.773,26.829C31.832686,26.678045,32.902825,26.612833,33.973,26.634C34.472699,26.61999,34.967778,26.534109,35.443,26.379C35.575,25.674,35.692,25.049,35.81,24.423C35.825,24.341,35.834,24.258,35.853,24.177C35.976,23.651,36.096,23.122,36.23,22.598C36.372,22.047,36.545,21.504,36.674,20.951C36.740022,20.735489,36.716334,20.502458,36.608297,20.30464C36.500259,20.106821,36.317004,19.960938,36.1,19.9C35.804363,19.826228,35.503467,19.77541,35.2,19.748C35.018216,19.729379,34.837659,19.793235,34.708,19.922C34.499,20.099,34.266,20.247,34.041,20.404C33.783238,20.56098,33.536041,20.734686,33.301,20.924C32.775388,21.410353,32.225342,21.869615,31.653,22.3C31.158,22.67,30.741,23.145,30.283,23.565C30.042508,23.79269,29.869494,24.082316,29.783,24.402C29.722129,24.614512,29.623562,24.814354,29.492,24.992C29.356215,25.152092,29.298354,25.364127,29.334,25.571C29.354194,25.736457,29.384923,25.900456,29.426,26.062C29.541823,26.336651,29.516444,26.650525,29.358,26.903C29.326,26.948,29.346,27.032,29.339,27.159ZM43.194,28.4L42.813,28.527C42.821,28.634,42.827,28.727,42.836,28.855C42.502462,29.005473,42.160567,29.136688,41.812,29.248C41.577776,29.280891,41.340534,29.286596,41.105,29.265C40.982,29.265,40.817,29.235,40.74,29.3C40.412,29.578,39.976,29.653,39.64,29.909C39.54,29.983,39.427,30.089,39.324,30.084C39.126358,30.081404,38.932237,30.03133,38.758,29.938C38.089314,29.564059,37.36928,29.290467,36.621,29.126C36.524685,29.112561,36.429906,29.089787,36.338,29.058C36.142946,28.941129,35.901001,28.934682,35.7,29.041C35.607691,29.069047,35.511433,29.081882,35.415,29.079C35.115,29.121,34.81,29.168,34.505,29.207C33.942,29.28,33.373,29.323,32.815,29.429C32.451158,29.514801,32.095223,29.631216,31.751,29.777C31.233,29.972,30.725,30.192,30.208,30.386C30.036743,30.457113,29.840695,30.432796,29.692,30.322C29.41,30.122,29.105,29.947,28.83,29.736C28.736,29.665,28.701,29.514,28.63,29.384C28.056191,29.491292,27.522232,29.752223,27.085,30.139C27.032777,30.206243,26.955197,30.249048,26.870465,30.25737C26.785733,30.265692,26.701307,30.238798,26.637,30.183C26.377009,30.022849,26.129924,29.842634,25.898,29.644C25.598,29.372,25.334,29.069,25.061,28.772C24.843702,28.43299,24.697735,28.053272,24.632,27.656C24.378206,26.863932,24.180714,26.054916,24.041,25.235C23.955043,24.916391,23.842308,24.605618,23.704,24.306C23.594622,24.078754,23.596468,23.813701,23.709,23.588C23.755545,23.447732,23.760408,23.296976,23.723,23.154C23.683051,22.992892,23.629871,22.835357,23.564,22.683C23.496772,22.558354,23.488019,22.410381,23.540083,22.278678C23.592147,22.146975,23.699714,22.044985,23.834,22C23.918865,21.952678,24.006717,21.910923,24.097,21.875C24.328,21.795,24.391,21.64,24.412,21.398C24.448707,21.025277,24.521037,20.656928,24.628,20.298C24.86151,19.86468,25.375633,19.665734,25.84,19.829C26.242039,19.995205,26.699969,19.954118,27.066,19.719C27.85208,19.244657,28.613097,18.72997,29.346,18.177C30.979,16.923,32.589,15.637,34.194,14.347C34.550085,14.035361,34.889236,13.704888,35.21,13.357C35.265218,13.295731,35.300146,13.218889,35.31,13.137C34.887002,13.496733,34.387753,13.75559,33.85,13.894C33.388173,14.044806,32.943677,14.244259,32.524,14.489C32.085,14.803,31.511,14.975,31.26,15.532C31.194883,15.671894,31.090697,15.789971,30.96,15.872C30.568127,16.132622,30.154218,16.358482,29.723,16.547C29.056395,16.782739,28.31484,16.535555,27.923,15.947C27.529746,15.359973,27.245535,14.706863,27.084,14.019C26.881786,13.222842,26.814186,12.398465,26.884,11.58C26.910194,11.289368,26.967523,11.00239,27.055,10.724C27.100352,10.563238,27.188892,10.417977,27.311,10.304C27.621775,10.030368,27.885309,9.70737,28.091,9.348C28.132,9.278,28.23,9.241,28.375,9.132C28.385,9.413,28.392,9.613,28.398,9.814C28.408,10.176,28.486,10.256,28.835,10.283C29.308576,10.323311,29.784263,10.235221,30.212,10.028C31.153626,9.572116,32.158026,9.259336,33.192,9.1C33.537747,9.055743,33.876463,8.967704,34.2,8.838C34.950404,8.534687,35.761251,8.410731,36.568,8.476C36.729634,8.478405,36.888802,8.436191,37.028,8.354C37.285752,8.141772,37.600744,8.010903,37.933,7.978C38.033,7.978,38.133,7.89,38.233,7.836C38.363973,7.741701,38.527413,7.704141,38.686413,7.731801C38.845414,7.759462,38.986567,7.85001,39.078,7.983C39.1281,8.049484,39.185082,8.110489,39.248,8.165C39.762302,8.5973,40.135332,9.173737,40.319,9.82C40.383927,10.175606,40.360229,10.541732,40.25,10.886C40.24,10.965,40.07,11.056,39.959,11.086C39.72,11.153,39.471,11.186,39.2,11.237L39.047,11.482C39.006,11.498,38.977,11.522,38.955,11.516C38.780306,11.46881,38.593646,11.502982,38.447,11.609C38.176,11.778,37.877,11.899,37.602,12.063C37.476,12.138,37.319,12.246,37.286,12.37C37.148098,12.698666,36.934252,12.989963,36.662,13.22C36.373,13.556,36.089,13.898,35.787,14.22C35.445636,14.605235,35.082721,14.97082,34.7,15.315C34.234777,15.713224,33.744069,16.080672,33.231,16.415C32.590812,16.832275,31.976364,17.287768,31.391,17.779C30.976,18.125,30.544,18.454,30.1,18.762C29.291,19.324,28.466,19.862,27.651,20.418C27.522,20.506,27.288,20.585,27.365,20.777C27.455,21,27.675,20.868,27.843,20.837C29.125245,20.564988,30.348941,20.067248,31.457,19.367C32.342,18.843,33.257,18.367,34.176,17.907C34.602242,17.704961,34.998632,17.445187,35.354,17.135C35.688809,16.816327,36.103365,16.593849,36.554,16.491C37.369,16.31,38.178,16.103,39,15.967C39.762874,15.866621,40.523157,16.169522,41.008,16.767C41.400468,17.165063,41.677043,17.662552,41.808,18.206C41.974,18.906,42.15,19.606,42.347,20.306C42.526,20.933,42.729,21.554,42.938,22.171C43.157752,22.802999,43.251519,23.471938,43.214,24.14C43.200533,24.347218,43.173475,24.553328,43.133,24.757C42.999,25.425,42.864,26.092,42.712,26.757C42.665,26.957,42.629,27.133,42.838,27.268C42.999246,27.389666,43.071447,27.596403,43.021,27.792C42.966492,28.014749,43.035131,28.249647,43.201,28.408Z" transform="matrix(1 0 0 1 1.955 0.642)" fill="rgb(255,206,25)" stroke="none" stroke-width="1"/><path id="ezPgcOQuUvm19" d="M17.42,11.482C17.27535,11.519158,17.135684,11.573547,17.004,11.644C16.766447,11.828117,16.472437,11.924235,16.172,11.916C15.889403,11.877171,15.602606,11.880541,15.321,11.926C15.254294,11.943746,15.183465,11.937371,15.121,11.908C14.882,11.777,14.651,11.629,14.413,11.493C13.781563,11.056993,13.034295,10.819511,12.267,10.811C11.517772,10.844031,10.767093,10.813589,10.023,10.72C9.516462,10.625075,9.016974,10.495776,8.528,10.333Q7.902,10.172,7.27,10.033C7.022927,9.979493,6.804088,9.837159,6.655,9.633C6.325537,9.257393,6.061529,8.829097,5.874,8.366C5.708,7.866,5.412,7.414,5.257,6.914C5.07,6.307,4.975,5.673,4.833,5.052C4.78,4.822,4.702,4.599,4.64,4.372C4.596613,4.226445,4.563202,4.078101,4.54,3.928C4.497,3.585,4.483,3.236,4.425,2.895C4.357363,2.553315,4.357363,2.201685,4.425,1.86C4.424002,1.750316,4.409561,1.641169,4.382,1.535C4.297725,1.126183,4.408625,0.701436,4.682,0.386C4.748111,0.280463,4.794845,0.163967,4.82,0.042C5.027,-0.067,5.131,0.055,5.262,0.207C5.472058,0.540353,5.715296,0.851604,5.988,1.136C6.233594,1.354282,6.490981,1.558923,6.759,1.749C6.981396,1.858846,7.21651,1.9408,7.459,1.993C7.859,2.114,8.253,2.239,8.659,2.343C8.876077,2.391601,9.096277,2.425016,9.318,2.443C10.358472,2.547022,11.380456,2.789151,12.357,3.163C12.960566,3.413979,13.549204,3.69945,14.12,4.018C14.784946,4.341266,15.392884,4.770538,15.92,5.289C16.018165,5.36671,16.122512,5.436274,16.232,5.497C16.332,5.573,16.474,5.65,16.496,5.749C16.569,6.059,16.81,6.231,16.989,6.454C17.282975,6.752946,17.454542,7.151012,17.47,7.57C17.466604,7.958286,17.502453,8.345922,17.577,8.727C17.641982,9.053604,17.740504,9.372628,17.871,9.679C17.997144,9.962304,18.019104,10.281075,17.933,10.579C17.811362,10.905693,17.667699,11.223757,17.503,11.531L17.421,11.486Z" transform="matrix(1 0 0 1 0.363 0)" fill="rgb(255,206,25)" stroke="none" stroke-width="1"/><path id="ezPgcOQuUvm20" d="M36.276,46.2C36.384,46.326,36.493,46.45,36.598,46.579C36.613,46.596,36.61,46.631,36.62,46.688C36.308,46.713,36.22,46.4,36.007,46.294C35.773,46.177,35.558,46.021,35.33,45.894C35.102,45.767,34.866,45.644,34.63,45.518C34.388763,45.399401,34.165544,45.247222,33.967,45.066L34.203,45.039L34.188,45.023C34.682,45.318,35.174,45.617,35.672,45.905C35.872,46.02,36.083,46.112,36.289,46.214Z" transform="matrix(1 0 0 1 2.824 3.742)" fill="rgb(255,206,25)" stroke="none" stroke-width="1"/><path id="ezPgcOQuUvm21" d="M2.839,27.838C2.839,27.838,2.825,27.852,2.827,27.852C2.758,27.846,2.687,27.841,2.592,27.835C2.678,27.699,2.748,27.618,2.871,27.702C2.886,27.711,2.851,27.79,2.839,27.838Z" transform="matrix(1 0 0 1 0.215 2.3)" fill="rgb(255,206,25)" stroke="none" stroke-width="1"/></g></g><path id="ezPgcOQuUvm22" d="M3.563,0L65.321,0C66.265966,0,67.172229,0.375386,67.840421,1.043579C68.508614,1.711771,68.884,2.618034,68.884,3.563L68.884,199.525L3.563,199.525C2.618034,199.525,1.711771,199.149614,1.043579,198.481421C0.375386,197.813229,0,196.906966,0,195.962L0,3.563C0,2.618034,0.375386,1.711771,1.043579,1.043579C1.711771,0.375386,2.618034,0,3.563,0Z" transform="matrix(1 0 0 1 2.375 2.375)" opacity="0.127" fill="url(#ezPgcOQuUvm22-fill)" stroke="none" stroke-width="1"/><path id="ezPgcOQuUvm23" d="M65.321,0L3.563,0C2.618034,0,1.711771,0.375386,1.043579,1.043579C0.375386,1.711771,0,2.618034,0,3.563L0,199.525L65.321,199.525C67.288791,199.525,68.884,197.929791,68.884,195.962L68.884,3.563C68.884,2.618034,68.508614,1.711771,67.840421,1.043579C67.172229,0.375386,66.265966,0,65.321,0Z" transform="matrix(1 0 0 1 71.259 2.375)" opacity="0.127" fill="url(#ezPgcOQuUvm23-fill)" stroke="none" stroke-width="1"/></g><g id="ezPgcOQuUvm24" transform="matrix(1 0 0 1 7288 16034)"><g id="ezPgcOQuUvm25"><g id="ezPgcOQuUvm26" transform="matrix(1 0 0 1 -9 -9)"><g id="ezPgcOQuUvm27" transform="matrix(1 0 0 1 9 9)"><path id="ezPgcOQuUvm28" d="M3,0L138,0C139.656854,0,141,1.343146,141,3L141,15C141,46.480231,115.480231,72,84,72L57,72C25.519769,72,0,46.480231,0,15L0,3C0,1.343146,1.343146,0,3,0Z" fill="rgb(255,15,15)" stroke="none" stroke-width="2"/><path id="ezPgcOQuUvm29" d="M3,1L138,1C139.104569,1,140,1.895431,140,3L140,15C140,45.927946,114.927946,71,84,71L57,71C26.072054,71,1,45.927946,1,15L1,3C1,1.895431,1.895431,1,3,1Z" fill="none" stroke="rgb(255,206,25)" stroke-width="2"/></g></g></g><g id="ezPgcOQuUvm30" transform="matrix(1 0 0 1 -9 -9)"><g id="ezPgcOQuUvm31" transform="matrix(1 0 0 1 63 63)"><circle id="ezPgcOQuUvm32" r="17.5" transform="matrix(1 0 0 1 17.5 17.5)" fill="rgb(255,173,41)" stroke="none" stroke-width="2"/><circle id="ezPgcOQuUvm33" r="16.5" transform="matrix(1 0 0 1 17.5 17.5)" fill="none" stroke="rgb(255,206,25)" stroke-width="2"/></g></g><path id="ezPgcOQuUvm34" d="M3.66,-8.3C4.693736,-7.952353,5.522841,-7.168579,5.928,-6.156C6.368994,-5.162183,6.347023,-4.024056,5.868,-3.048C5.029388,-1.618371,3.641562,-0.594849,2.028,-0.216C1.413739,-0.038633,0.788358,0.097668,0.156,0.192Q0.084,0.216,-0.144,0.276C-0.270494,0.310488,-0.398659,0.338525,-0.528,0.36C-0.643225,0.376798,-0.75956,0.384821,-0.876,0.384C-0.981576,0.391008,-1.085485,0.354928,-1.164,0.284Q-1.548,0,-1.332,-1.2C-1.309976,-1.351395,-1.261218,-1.49767,-1.188,-1.632C-1.101602,-1.720971,-0.99436,-1.786967,-0.876,-1.824C-0.181038,-1.872081,0.516116,-1.880095,1.212,-1.848C1.770731,-1.895531,2.309862,-2.076613,2.784,-2.376C3.264371,-2.672437,3.670701,-3.074663,3.972,-3.552C3.142019,-2.735948,2.058178,-2.227897,0.9,-2.112C0.17912,-1.968009,-0.56312,-1.968009,-1.284,-2.112Q-1.26,-2.256,-1.02,-2.352C-0.849841,-2.420198,-0.672815,-2.469819,-0.492,-2.5Q-0.204,-2.548,0.12,-2.6C0.263659,-2.615476,0.404781,-2.649077,0.54,-2.7C1.101541,-2.860845,1.618771,-3.148195,2.052,-3.54C2.597902,-4.027861,2.968838,-4.681215,3.108,-5.4C3.178709,-5.742283,3.143838,-6.097967,3.008,-6.42C2.90471,-6.658373,2.726313,-6.856436,2.5,-6.984C2.227189,-7.110978,1.932505,-7.18431,1.632,-7.2C1.322285,-7.231301,1.010418,-7.235316,0.7,-7.212Q0.3,-7.176,-0.224,-7.104C-0.427548,-7.070525,-0.634465,-7.062463,-0.84,-7.08C-1.083923,-7.095817,-1.328727,-7.091804,-1.572,-7.068C-1.752674,-7.060718,-1.930978,-7.024247,-2.1,-6.96C-2.144864,-6.929802,-2.185259,-6.893446,-2.22,-6.852C-2.230636,-6.835021,-2.242678,-6.818964,-2.256,-6.804C-2.2703,-6.771095,-2.278435,-6.735844,-2.28,-6.7C-2.286485,-6.642959,-2.298543,-6.58669,-2.316,-6.532Q-2.364,-6.196,-2.436,-5.56Q-2.508,-4.924,-2.556,-4.636C-2.577031,-4.531651,-2.591725,-4.426125,-2.6,-4.32Q-2.72,-3.552,-2.828,-3.096Q-2.936,-2.64,-3.152,-1.908C-3.274347,-1.470465,-3.461775,-1.05381,-3.708,-0.672C-3.908527,-0.356703,-4.179678,-0.092398,-4.5,0.1Q-4.284,-1.292,-4.116,-2.708Q-4.092,-2.808,-4.032,-3.188Q-3.972,-3.568,-3.912,-3.968Q-3.852,-4.368,-3.804,-4.808C-3.772907,-5.064096,-3.764874,-5.322467,-3.78,-5.58Q-3.804,-5.904,-3.924,-5.98Q-4.14,-6.124,-4.236,-5.308L-4.308,-4.06C-4.307846,-3.197219,-4.396311,-2.336704,-4.572,-1.492C-4.650604,-1.059879,-4.850359,-0.658982,-5.148,-0.336C-4.956578,-1.412791,-4.900143,-2.509246,-4.98,-3.6Q-4.956,-6.6,-4.932,-7.08Q-4.788,-10.152,-4.812,-11.592C-4.748004,-12.232279,-4.77223,-12.878313,-4.884,-13.512L-4.932,-13.704Q-4.956,-13.776,-5.004,-13.776C-5.09576,-13.783097,-5.185342,-13.807528,-5.268,-13.848Q-5.34,-13.872,-5.46,-13.92Q-5.58,-13.968,-5.628,-13.992L-5.772,-14.064C-5.824969,-14.089537,-5.873569,-14.123287,-5.916,-14.164L-6.036,-14.284C-6.084815,-14.333148,-6.12534,-14.389884,-6.156,-14.452C-6.212893,-14.53485,-6.261145,-14.623312,-6.3,-14.716C-6.332004,-14.79596,-6.340335,-14.883437,-6.324,-14.968C-6.313861,-15.033324,-6.297794,-15.09759,-6.276,-15.16C-6.240252,-15.238163,-6.200191,-15.314281,-6.156,-15.388Q-6.056,-15.556,-6.024,-15.628C-5.988172,-15.72065,-5.963987,-15.81739,-5.952,-15.916C-5.941704,-16.016301,-5.91324,-16.113891,-5.868,-16.204Q-5.724,-16.492,-4.692,-16.564C-3.531229,-16.626874,-2.367245,-16.593426,-1.212,-16.464Q2.556,-16.2,4.164,-14.832C4.649223,-14.434672,5.009041,-13.905365,5.2,-13.308C5.387823,-12.730756,5.422284,-12.114587,5.3,-11.52C5.176262,-10.912999,4.950388,-10.331405,4.632,-9.8C4.316049,-9.263835,3.905392,-8.789478,3.42,-8.4C3.450313,-8.394344,3.478999,-8.38205,3.504,-8.364C3.535548,-8.34452,3.569068,-8.328431,3.604,-8.316C3.621786,-8.307963,3.640653,-8.302572,3.66,-8.3ZM-2.964,-9.6Q-2.94,-9.624,-2.988,-9.684C-3.020055,-9.725853,-3.061053,-9.760018,-3.108,-9.784C-3.146183,-9.807283,-3.195183,-9.802383,-3.228,-9.772Q-3.276,-9.724,-3.216,-9.664C-3.177343,-9.624654,-3.126671,-9.599318,-3.072,-9.592Q-2.988,-9.576,-2.964,-9.6ZM-3.228,-8.04L-3.108,-8.088C-3.171934,-8.180554,-3.288465,-8.221016,-3.396,-8.188Q-3.42,-8.14,-3.348,-8.08Q-3.276,-8.02,-3.228,-8.04ZM-3.492,-5.76Q-3.372,-5.736,-3.348,-5.808Q-3.372,-5.908,-3.468,-5.808C-3.482149,-5.795894,-3.490805,-5.778583,-3.492,-5.76ZM-3.516,-10.968Q-3.616,-10.92,-3.492,-10.896C-3.459862,-10.883654,-3.426241,-10.875585,-3.392,-10.872Q-3.4,-10.968,-3.516,-10.968ZM-3.324,-11.28Q-3.18,-11.28,-3.324,-11.4Q-3.396,-11.448,-3.444,-11.4Q-3.468,-11.28,-3.324,-11.28ZM-3.708,-10.296L-3.708,-10.32Q-3.756,-10.32,-3.756,-10.296C-3.734642,-10.276353,-3.71035,-10.260158,-3.684,-10.248Q-3.588,-10.272,-3.708,-10.3ZM-3.732,-9.624L-3.756,-9.624Q-3.78,-9.576,-3.708,-9.456Q-3.608,-9.356,-3.608,-9.504ZM-3.66,-9.888L-3.636,-9.888Q-3.492,-9.6,-3.444,-9.888Q-3.468,-10.056,-3.516,-10.08C-3.589606,-10.033021,-3.670813,-9.999185,-3.756,-9.98L-3.708,-9.956C-3.680072,-9.944679,-3.661315,-9.918107,-3.66,-9.888ZM-3.468,-10.272Q-3.568,-10.172,-3.444,-10.152Q-3.4,-10.2,-3.468,-10.272ZM-3.444,-8.544Q-3.396,-8.444,-3.344,-8.544Q-3.4,-8.64,-3.444,-8.544ZM-3.66,-11.3Q-3.78,-11.3,-3.708,-11.2Q-3.608,-11.08,-3.54,-11.176Q-3.54,-11.28,-3.66,-11.3ZM-3.76,-8.276C-3.808533,-8.262458,-3.846458,-8.224533,-3.86,-8.176Q-3.852,-8.064,-3.756,-8.28ZM-3.828,-7.1L-3.876,-6.956Q-3.776,-6.932,-3.756,-6.98C-3.745403,-7.005488,-3.74753,-7.034492,-3.761731,-7.058161C-3.775933,-7.08183,-3.800524,-7.097356,-3.828,-7.1ZM-3.636,-8.132Q-3.66,-8.18,-3.736,-8.032L-3.676,-8.092ZM-3.756,-8.78Q-3.684,-8.708,-3.656,-8.78Q-3.708,-8.88,-3.756,-8.784ZM-3.656,-9.068L-3.632,-9.068Q-3.368,-9.068,-3.656,-9.308Q-3.948,-9.072,-3.66,-9.072ZM-3.176,-8.368Q-3.056,-8.248,-3.128,-8.416Q-3.132,-8.448,-3.18,-8.376ZM-3.3,-12.24L-3.3,-12.216L-3.2,-12.216C-3.21397,-12.230492,-3.230176,-12.242647,-3.248,-12.252C-3.265785,-12.262342,-3.288545,-12.257089,-3.3,-12.24ZM-3.324,-12.264L-3.324,-12.288Q-3.372,-12.336,-3.396,-12.24ZM-3.492,-12.312L-3.468,-12.312Q-3.588,-12.312,-3.588,-12.264ZM-3.732,-13.56C-3.747152,-13.492012,-3.729364,-13.420859,-3.684,-13.368Q-3.612,-13.268,-3.54,-13.32Q-3.444,-13.392,-3.732,-13.56ZM-3.756,-12L-3.756,-12Q-3.732,-11.9,-3.656,-11.9ZM-3.828,-13.68L-3.804,-13.58L-3.78,-13.58Q-3.756,-13.628,-3.78,-13.652C-3.791368,-13.667648,-3.808783,-13.677807,-3.828,-13.68ZM-3.828,-11.18L-3.8,-11.18Q-3.848,-11.324,-3.92,-11.252Q-3.876,-11.112,-3.828,-11.184ZM-3.876,-10.796L-3.852,-10.796Q-3.996,-10.748,-3.9,-10.676Q-3.78,-10.728,-3.876,-10.8ZM-3.876,-10.22L-3.852,-10.22L-3.924,-10.34L-3.972,-10.316L-3.9,-10.216ZM-4.116,-11.852L-4.044,-11.78C-4.01765,-11.792158,-3.993358,-11.808353,-3.972,-11.828C-3.986679,-11.851659,-4.010556,-11.868126,-4.037887,-11.873441C-4.065217,-11.878755,-4.093525,-11.872434,-4.116,-11.856ZM-4.116,-11.492Q-4.164,-11.42,-4.068,-11.392Q-4,-11.4,-4.116,-11.5ZM-4.116,-12.668L-4.092,-12.668L-4.02,-12.692L-4.02,-12.74Q-4.092,-12.768,-4.116,-12.672ZM-4.116,-13.46Q-4.216,-13.46,-4.116,-13.36Q-4.068,-13.312,-4.044,-13.336Q-4,-13.392,-4.116,-13.464ZM-4.38,-9.16Q-4.48,-9.088,-4.332,-9.016Q-4.284,-9.144,-4.38,-9.168ZM-4.28,-10.624Q-4.38,-10.576,-4.28,-10.552Q-4.188,-10.584,-4.284,-10.632ZM-4.232,-11.584L-4.26,-11.584Q-4.14,-11.584,-4.14,-11.692Q-4.14,-11.8,-4.188,-11.824C-4.273042,-11.731783,-4.323872,-11.61318,-4.332,-11.488Q-4.308,-11.488,-4.296,-11.536C-4.29575,-11.551477,-4.289216,-11.566188,-4.2779,-11.57675C-4.266583,-11.587311,-4.251458,-11.592817,-4.236,-11.592ZM-4.232,-8.848C-4.272761,-8.882981,-4.328428,-8.895017,-4.38,-8.88Q-4.236,-8.736,-4.236,-8.856ZM-4.304,-8.748Q-4.28,-8.628,-4.232,-8.724Q-4.26,-8.832,-4.308,-8.76ZM-4.304,-9.396Q-4.204,-9.276,-4.204,-9.396C-4.196684,-9.45314,-4.204978,-9.511194,-4.228,-9.564C-4.274217,-9.524601,-4.302975,-9.468523,-4.308,-9.408ZM-4.256,-12.204L-4.28,-12.156C-4.286505,-12.106681,-4.278149,-12.056543,-4.256,-12.012Q-4.136,-11.988,-4.136,-12.06ZM-4.328,-11.772L-4.304,-11.748C-4.302398,-11.790881,-4.315059,-11.833082,-4.34,-11.868C-4.356652,-11.897718,-4.394161,-11.908435,-4.424,-11.892Q-4.452,-11.784,-4.332,-11.784ZM-4.448,-10.092Q-4.568,-10.068,-4.448,-9.992Q-4.308,-10.056,-4.452,-10.1ZM-4.476,-7.3Q-4.452,-7.3,-4.428,-7.348ZM-4.26,-7.276Q-4.212,-7.3,-4.36,-7.348Q-4.284,-7.272,-4.26,-7.272ZM-4.14,-7.42Q-4.068,-7.54,-4.116,-7.564Q-4.216,-7.612,-4.216,-7.492C-4.200397,-7.458514,-4.173486,-7.431603,-4.14,-7.416ZM-4.092,-7.804L-4.116,-7.852Q-4.116,-7.8,-4.092,-7.8ZM-4.116,-7.852L-4.016,-7.972C-4.073128,-8.003796,-4.143599,-7.999098,-4.196,-7.96Q-4.304,-7.9,-4.28,-7.828C-4.227319,-7.795787,-4.159396,-7.804071,-4.116,-7.848ZM-3.876,-6.964Q-3.948,-6.916,-3.9,-6.916Q-3.852,-6.916,-3.876,-6.96ZM-3.756,-6.028Q-3.876,-5.98,-3.756,-5.908Q-3.636,-5.928,-3.756,-6.024ZM-3.588,-4.756Q-3.54,-4.856,-3.564,-4.876Q-3.588,-4.876,-3.612,-4.816Q-3.636,-4.756,-3.756,-4.78C-3.706971,-4.746097,-3.645374,-4.735831,-3.588,-4.752ZM-3.516,-5.188Q-3.468,-5.38,-3.516,-5.404Q-3.588,-5.452,-3.708,-5.212Q-3.78,-5.092,-3.756,-5.092Q-3.656,-5.116,-3.708,-5.212C-3.698411,-5.18762,-3.68168,-5.166707,-3.66,-5.152C-3.643186,-5.14404,-3.62309,-5.149064,-3.612,-5.164Q-3.588,-5.116,-3.636,-5.116C-3.650149,-5.103894,-3.658805,-5.086583,-3.66,-5.068C-3.621468,-5.053892,-3.580994,-5.045798,-3.54,-5.044ZM-3.492,-4.828C-3.492274,-4.796429,-3.473248,-4.76789,-3.444,-4.756L-3.3,-4.756C-3.331199,-4.782833,-3.364657,-4.806922,-3.4,-4.828Q-3.468,-4.872,-3.492,-4.824ZM-3.132,-7.564L-3.108,-7.564Q-3.108,-7.444,-3.036,-7.564Q-3.06,-7.68,-3.132,-7.56ZM-3.032,-6.148Q-2.96,-6.172,-3.032,-6.248Q-3.132,-6.192,-3.036,-6.144ZM-3.008,-8.356Q-2.888,-8.428,-2.96,-8.476Q-3.012,-8.448,-3.012,-8.352ZM-2.84,-11.116Q-2.768,-11.164,-2.84,-11.216Q-2.988,-11.136,-2.844,-11.112ZM3.636,-7.7Q3.536,-7.724,3.564,-7.628Q3.588,-7.604,3.624,-7.64Q3.66,-7.676,3.636,-7.7ZM3.66,-10.028Q3.78,-10.22,3.636,-10.22C3.495414,-10.205854,3.366067,-10.13687,3.276,-10.028L3.252,-9.928Q3.372,-9.928,3.372,-10.028Q3.492,-9.956,3.396,-9.908Q3.324,-9.884,3.324,-9.86C3.337542,-9.811467,3.375467,-9.773542,3.424,-9.76ZM3.108,-13.028Q2.892,-13.004,3.036,-12.788C3.100869,-12.851236,3.128147,-12.943677,3.108,-13.032ZM3.18,-12.328Q3.156,-12.376,3.08,-12.328Q3.156,-12.312,3.18,-12.336ZM3.228,-12.616Q3.18,-12.64,3.18,-12.568C3.175759,-12.521391,3.206452,-12.478761,3.252,-12.468Q3.276,-12.624,3.228,-12.624ZM3.468,-12.856Q3.396,-12.956,3.368,-12.832Q3.468,-12.768,3.468,-12.864ZM3.636,-12.088Q3.564,-12.04,3.636,-12.016Q3.66,-12.024,3.636,-12.1ZM3.708,-10.988Q3.588,-10.964,3.66,-10.844Q3.8,-10.872,3.708,-10.992ZM3.636,-12.088C3.66457,-12.084367,3.69359,-12.088513,3.72,-12.1C3.730171,-12.118255,3.734367,-12.139237,3.732,-12.16L3.732,-12.232Q3.732,-12.332,3.66,-12.256C3.630952,-12.209489,3.622275,-12.153091,3.636,-12.1ZM4.188,-11.632Q4.288,-11.68,4.212,-11.732Q4.116,-11.688,4.188,-11.64ZM4.5,-11.08L4.5,-11.104Q4.5,-11.248,4.428,-11.128Q4.428,-11.016,4.5,-11.088ZM4.428,-12.64Q4.38,-12.568,4.452,-12.54Q4.5,-12.6,4.428,-12.648ZM4.26,-12L4.236,-12Q4.212,-12.12,4.164,-12.024Q4.212,-11.9,4.26,-12ZM4.116,-13.176Q4.092,-13.176,4.116,-13.092Q4.14,-13.008,4.164,-13.008C4.18075,-13.038537,4.18505,-13.074367,4.176,-13.108C4.167069,-13.13844,4.145091,-13.163348,4.116,-13.176ZM3.876,-10.632C3.892997,-10.609337,3.919672,-10.596,3.948,-10.596C3.976328,-10.596,4.003003,-10.609337,4.02,-10.632Q4.044,-10.656,4.02,-10.704Q3.996,-10.728,3.936,-10.68ZM3.396,-13.632Q3.468,-13.488,3.564,-13.56C3.622616,-13.600039,3.665136,-13.659566,3.684,-13.728L3.636,-13.728Q3.372,-13.728,3.4,-13.632ZM3.468,-14.088L3.4,-14.088Q3.468,-14.064,3.468,-14.088ZM3.3,-14.064Q3.228,-14.016,3.372,-13.964C3.398221,-13.962228,3.424086,-13.97085,3.444,-13.988C3.403924,-14.026124,3.354088,-14.052426,3.3,-14.064ZM3.252,-13.176L3.252,-13.416L3.228,-13.176ZM3.204,-13.776Q3.084,-13.8,3.156,-13.728Q3.252,-13.68,3.2,-13.776ZM3.156,-13.32C3.159544,-13.372443,3.142301,-13.424172,3.108,-13.464L3.06,-13.464C3.043937,-13.435389,3.039972,-13.401545,3.048986,-13.369996C3.058,-13.338447,3.079246,-13.311807,3.108,-13.296Q3.132,-13.248,3.156,-13.32ZM3.108,-14.184L3.06,-14.184C3.065666,-14.176446,3.074557,-14.172,3.084,-14.172C3.093443,-14.172,3.102334,-14.176446,3.108,-14.184ZM3.06,-13.992Q2.94,-14.016,3.012,-13.892Q3.156,-13.872,3.06,-13.992ZM2.868,-14.472Q2.768,-14.472,2.82,-14.4Q2.94,-14.376,2.868,-14.472ZM2.652,-13.896Q2.532,-13.896,2.604,-13.824Q2.724,-13.8,2.652,-13.9ZM2.196,-13.996L2.388,-14.096Q2.488,-14.168,2.34,-14.24Q2.076,-14.36,2.172,-14.048ZM2.412,-13.296Q2.436,-13.396,2.34,-13.368C2.337633,-13.347237,2.341829,-13.326255,2.352,-13.308C2.370693,-13.299199,2.391654,-13.296404,2.412,-13.3ZM1.788,-14.952L1.764,-14.808C1.786898,-14.764828,1.837645,-14.74453,1.884,-14.76C1.938369,-14.781041,1.98461,-14.818874,2.016,-14.868Q2.076,-14.952,2.052,-14.976Q2.028,-15,1.92,-14.988C1.873575,-14.988,1.827997,-14.97557,1.788,-14.952ZM1.764,-14.208Q1.908,-14.136,1.98,-14.232Q1.98,-14.352,1.836,-14.304C1.80965,-14.291842,1.785358,-14.275647,1.764,-14.256ZM1.716,-14.352Q1.596,-14.376,1.644,-14.304Q1.788,-14.256,1.716,-14.352ZM1.332,-14.376Q1.548,-14.352,1.548,-14.544Q1.548,-14.712,1.428,-14.736Q1.356,-14.76,1.308,-14.664ZM1.212,-14.736L1.092,-14.784L1.092,-14.76Q1.164,-14.616,1.212,-14.736ZM1.044,-14.592Q0.944,-14.568,0.996,-14.492Q1.02,-14.468,1.044,-14.516Q1.068,-14.564,1.044,-14.592ZM1.044,-14.328C1.028508,-14.359726,0.995198,-14.37876,0.96,-14.376C0.924802,-14.37876,0.891492,-14.359726,0.876,-14.328L1,-14.3ZM0.516,-15.36Q0.444,-15.36,0.444,-15.336Q0.516,-15.336,0.516,-15.36ZM0.492,-14.5Q0.468,-14.6,0.392,-14.524Q0.4,-14.4,0.492,-14.5ZM0.276,-14.98Q0.2,-14.9,0.3,-14.88Q0.348,-14.88,0.4,-14.98Q0.444,-15.024,0.276,-14.976ZM0.228,-14.716L0.2,-14.716Q0.224,-14.616,0.3,-14.692Q0.276,-14.784,0.228,-14.712ZM0.156,-15.652Q0.036,-15.628,0.156,-15.552Q0.276,-15.6,0.156,-15.648ZM-0.18,-14.836L-0.012,-14.788L0.06,-14.86Q0.036,-15.072,-0.18,-14.832ZM-0.036,-14.644L-0.06,-14.644Q-0.084,-14.744,-0.18,-14.644Q-0.132,-14.544,-0.036,-14.64ZM-0.228,-15.196Q-0.328,-15.172,-0.276,-15.148Q-0.108,-15.048,-0.06,-15.148C-0.041782,-15.182634,-0.052047,-15.225407,-0.084,-15.248C-0.139221,-15.266398,-0.199717,-15.242872,-0.228,-15.192ZM-0.372,-14.524C-0.416905,-14.525219,-0.460323,-14.507852,-0.492,-14.476Q-0.468,-14.376,-0.372,-14.476Q-0.324,-14.52,-0.372,-14.52ZM-0.8,-14.64L-0.8,-14.616Q-0.8,-14.716,-0.872,-14.64Q-0.972,-14.568,-0.872,-14.54Q-0.8,-14.544,-0.8,-14.64ZM-0.872,-14.952L-0.872,-14.976Q-0.848,-15.076,-0.896,-15.048L-1.016,-14.928Q-0.948,-14.832,-0.876,-14.952ZM-1.064,-15.864Q-1.136,-15.816,-0.992,-15.816Q-0.968,-15.864,-0.992,-15.876C-1.017797,-15.884351,-1.046031,-15.879893,-1.068,-15.864ZM-1.116,-14.4Q-1.092,-14.52,-1.14,-14.52L-1.332,-14.448L-1.272,-14.412C-1.242411,-14.391418,-1.207919,-14.379,-1.172,-14.376C-1.150921,-14.376407,-1.130832,-14.385017,-1.116,-14.4ZM-1.188,-15.5L-1.188,-15.476Q-1.288,-15.452,-1.236,-15.404L-1.212,-15.404L-1.164,-15.452Q-1.14,-15.48,-1.188,-15.5ZM-1.288,-15.4L-1.288,-15.376Q-1.36,-15.328,-1.24,-15.304ZM-1.36,-15.3L-1.36,-15.276L-1.312,-15.156L-1.288,-15.132ZM-1.696,-15.2Q-1.528,-15.152,-1.528,-15.248Q-1.528,-15.272,-1.576,-15.272Q-1.624,-15.272,-1.624,-15.296Q-1.6,-15.272,-1.636,-15.236C-1.652207,-15.223809,-1.671737,-15.216834,-1.692,-15.216ZM-1.672,-15.056C-1.712994,-15.054202,-1.753468,-15.046108,-1.792,-15.032Q-1.716,-14.976,-1.668,-15.072ZM-1.912,-14.768L-1.912,-14.744Q-1.984,-14.672,-1.864,-14.644L-1.888,-14.744ZM-2.128,-14.792Q-2.176,-14.744,-2.08,-14.744Q-2.1,-14.808,-2.124,-14.808ZM-2.32,-15.152L-2.34,-15.152Q-2.268,-15.08,-2.22,-15.152Q-2.292,-15.24,-2.316,-15.168ZM-2.152,-8.576C-1.444529,-8.576677,-0.742392,-8.698434,-0.076,-8.936C0.609006,-9.179233,1.226091,-9.582395,1.724,-10.112C2.228822,-10.621187,2.531583,-11.296357,2.576,-12.012C2.656944,-12.642837,2.388859,-13.267858,1.876,-13.644C1.228558,-14.02795,0.499244,-14.252776,-0.252,-14.3C-0.456217,-14.363127,-0.664772,-14.411255,-0.876,-14.444C-0.870026,-14.398402,-0.848894,-14.356138,-0.816,-14.324C-0.78506,-14.306137,-0.74694,-14.306137,-0.716,-14.324C-0.678638,-14.340611,-0.63481,-14.330872,-0.608,-14.3Q-0.872,-14.228,-0.824,-14.3C-0.923447,-14.313835,-1.023618,-14.321849,-1.124,-14.324C-1.245723,-14.316249,-1.366343,-14.296145,-1.484,-14.264C-1.585918,-14.243367,-1.686187,-14.215292,-1.784,-14.18Q-2.12,-14.132,-2.168,-14.06C-2.208629,-13.919679,-2.216836,-13.771958,-2.192,-13.628Q-2.12,-12.452,-2.12,-10.988L-2.12,-10.288Q-2.12,-9.712,-2.132,-9.148ZM1.928,-7.568L2,-7.68Q1.9,-7.728,1.88,-7.656Q1.86,-7.584,1.932,-7.584ZM2.216,-7.568C2.219897,-7.637736,2.214516,-7.70768,2.2,-7.776Q2,-7.8,2,-7.68C2.05463,-7.698335,2.114929,-7.68442,2.156,-7.644ZM2.316,-7.808Q2.364,-7.736,2.416,-7.832Q2.412,-7.92,2.316,-7.824ZM2.508,-9.776L2.608,-9.876C2.893601,-10.128651,3.108631,-10.451195,3.232,-10.812C2.964314,-10.422519,2.619954,-10.09177,2.22,-9.84ZM3.06,-7.8L3.036,-7.8Q3.012,-7.68,3.136,-7.752Q3.156,-7.848,3.06,-7.8ZM3.372,-6.912L3.348,-6.912Q3.42,-7.056,3.3,-6.984Q3.252,-6.864,3.372,-6.912ZM3.42,-7.488C3.462667,-7.456,3.521333,-7.456,3.564,-7.488Q3.54,-7.536,3.42,-7.488ZM1.932,-1.32Q2.032,-1.32,2.004,-1.392L1.884,-1.344ZM5.34,-6.384Q5.268,-6.36,5.34,-6.284L5.44,-6.236C5.42765,-6.296658,5.39167,-6.349909,5.34,-6.384ZM5,-5.856Q4.976,-5.88,4.952,-5.844C4.934004,-5.810973,4.925686,-5.773541,4.928,-5.736C4.929195,-5.754583,4.937851,-5.771894,4.952,-5.784ZM4.64,-6.528Q4.592,-6.456,4.688,-6.456Q4.74,-6.528,4.644,-6.528ZM4.664,-4.536Q4.688,-4.536,4.688,-4.584Q4.62,-4.56,4.668,-4.536ZM4.564,-5.52Q4.564,-5.472,4.588,-5.472ZM4.564,-5.52L4.636,-5.62Q4.6,-5.64,4.488,-5.58Q4.376,-5.52,4.4,-5.472C4.461792,-5.45343,4.528753,-5.472117,4.572,-5.52ZM4.4,-6.984Q4.208,-6.816,4.52,-6.768L4.568,-6.768L4.544,-7.008Q4.5,-7.08,4.4,-6.984ZM4.3,-7.084L4.3,-7.1C4.306367,-7.13734,4.292706,-7.175286,4.264,-7.2Q4.228,-7.224,4.132,-7.176Q4.032,-7.176,4.18,-7.076Q4.26,-7.032,4.308,-7.08ZM4.036,-7.276Q4.136,-7.204,4.136,-7.3C4.113929,-7.312917,4.089407,-7.32109,4.064,-7.324Q4.044,-7.32,4.044,-7.272ZM3.756,-7.9Q3.684,-7.828,3.804,-7.78Q3.852,-7.756,3.852,-7.804C3.828629,-7.8436,3.7956,-7.876629,3.756,-7.9ZM3.756,-6.82L3.78,-6.82C3.77312,-6.765833,3.779999,-6.710807,3.8,-6.66Q3.824,-6.624,3.9,-6.696C3.916435,-6.725839,3.905718,-6.763348,3.876,-6.78C3.841082,-6.804941,3.798881,-6.817602,3.756,-6.816ZM3.9,-7.464L3.924,-7.488Q4.092,-7.44,4.116,-7.536Q4.14,-7.632,3.972,-7.7Q3.872,-7.724,3.828,-7.532L3.804,-7.432Q3.852,-7.408,3.852,-7.456Q3.852,-7.504,3.9,-7.464ZM2.988,-1.944Q2.964,-1.844,3.06,-1.872Q3.132,-1.92,3.132,-1.944Q3.084,-2.016,2.988,-1.944ZM2.268,-1.032L2.268,-1.056Q2.34,-1.008,2.34,-1.032Q2.34,-1.132,2.148,-1.224Q2.028,-1.296,2.028,-1.2C2.03091,-1.174593,2.039083,-1.150071,2.052,-1.128Q2.028,-1.152,2.088,-1.128C2.129536,-1.111231,2.169664,-1.091168,2.208,-1.068ZM2.316,-1.248L2.316,-1.272Q2.388,-1.344,2.268,-1.344Q2.22,-1.272,2.316,-1.248ZM2.416,-1.368Q2.516,-1.392,2.416,-1.488C2.411434,-1.502287,2.400323,-1.513537,2.386093,-1.51828C2.371864,-1.523023,2.356225,-1.52069,2.344,-1.512L2.368,-1.44Q2.388,-1.368,2.412,-1.368ZM2.56,-1.32C2.576905,-1.336532,2.597457,-1.348863,2.62,-1.356C2.642543,-1.363137,2.663095,-1.375468,2.68,-1.392C2.628638,-1.392377,2.581134,-1.364794,2.556,-1.32ZM3.136,-1.32Q3.036,-1.368,3.036,-1.272Q3.108,-1.224,3.132,-1.32ZM3.4,-1.752L3.424,-1.728Q3.568,-1.608,3.544,-1.68Q3.444,-1.896,3.4,-1.872Q3.376,-1.872,3.364,-1.764Q3.352,-1.656,3.376,-1.632Q3.424,-1.608,3.4,-1.704Q3.372,-1.776,3.4,-1.752ZM3.5,-1.944C3.522071,-1.931083,3.546593,-1.92291,3.572,-1.92Q3.62,-1.92,3.548,-1.992L3.492,-1.992Q3.444,-1.968,3.492,-1.944ZM3.668,-2.016Q3.716,-2.016,3.644,-2.136Q3.62,-2.184,3.572,-2.136C3.57491,-2.110593,3.583083,-2.086071,3.596,-2.064C3.606695,-2.037304,3.631377,-2.018793,3.66,-2.016ZM3.732,-2.3C3.789656,-2.316663,3.840247,-2.351796,3.876,-2.4Q3.588,-2.424,3.588,-2.448Q3.54,-2.4,3.624,-2.348C3.656775,-2.325554,3.693376,-2.309286,3.732,-2.3ZM3.948,-2.108Q3.972,-2.132,3.96,-2.216Q3.948,-2.3,3.924,-2.3Q3.876,-2.324,3.876,-2.276Q3.804,-2.132,3.876,-2.084Q3.9,-2.064,3.948,-2.112ZM4.02,-2.54L4.188,-2.66Q4.38,-2.66,4.356,-2.684Q4.356,-2.784,4.02,-2.828Q3.876,-2.828,3.876,-2.78Q3.852,-2.756,3.9,-2.708Q3.924,-2.684,3.96,-2.708C3.986772,-2.723598,4.0023,-2.753101,4,-2.784C3.998642,-2.759409,4.00274,-2.734822,4.012,-2.712Q4.024,-2.688,4.072,-2.688C4.06011,-2.658752,4.031571,-2.639726,4,-2.64Q3.952,-2.64,3.952,-2.616C3.966305,-2.585292,3.990159,-2.560035,4.02,-2.544ZM4.284,-5.04Q4.356,-4.968,4.384,-4.968Q4.4,-4.992,4.284,-5.04ZM4.4,-3.48Q4.544,-3.456,4.472,-3.58Q4.356,-3.6,4.4,-3.48ZM4.568,-5.232Q4.468,-5.304,4.448,-5.184Q4.472,-5.112,4.496,-5.112Q4.6,-5.208,4.572,-5.232ZM4.668,-3.168L4.692,-3.192Q4.668,-3.336,4.592,-3.264L4.568,-3.216C4.593153,-3.186718,4.62942,-3.16931,4.668,-3.168ZM4.692,-4.608Q4.812,-4.508,4.86,-4.656L4.812,-4.756Q4.764,-4.824,4.692,-4.608ZM4.764,-5.856Q4.788,-5.712,4.884,-5.856C4.901328,-5.897141,4.891818,-5.944689,4.86,-5.976Q4.836,-6,4.8,-5.94C4.78195,-5.914999,4.769656,-5.886313,4.764,-5.856ZM5.1,-6.408Q5,-6.5,5,-6.36Q5.1,-6.288,5.1,-6.408ZM5.1,-6.192Q5.028,-6.264,5.052,-6.168Q5.1,-6.1,5.1,-6.192ZM5.076,-4.008Q5.176,-4.032,5.124,-4.108Q5.028,-4.08,5.076,-4.008ZM5.124,-6.936Q5.076,-6.836,5.172,-6.836Q5.22,-6.936,5.124,-6.936ZM5.172,-3.528Q5.148,-3.408,5.244,-3.456Q5.268,-3.528,5.244,-3.54C5.219417,-3.547033,5.192973,-3.542626,5.172,-3.528ZM5.412,-5.828L5.512,-5.948C5.467237,-5.976308,5.416632,-5.994088,5.364,-6Q5.244,-6.024,5.22,-5.976Q5.196,-5.928,5.28,-5.868Q5.364,-5.808,5.412,-5.832ZM5.512,-6.308Q5.584,-6.428,5.488,-6.476Q5.412,-6.456,5.508,-6.312ZM5.56,-5.208Q5.56,-5.064,5.632,-5.208Q5.656,-5.28,5.632,-5.28C5.599175,-5.265402,5.57235,-5.239988,5.556,-5.208ZM2.508,-9.792Q2.484,-9.816,2.58,-9.892L2.544,-9.856C2.524318,-9.840004,2.51145,-9.817127,2.508,-9.792ZM-3.636,-9.892L-3.66,-9.892ZM3.684,-13.732Q3.684,-13.684,3.636,-13.732ZM-0.252,-14.3L-0.3,-14.3ZM-0.588,-14.3L-0.612,-14.3Z" transform="matrix(1 0 0 1 71 80)" opacity="0.762" fill="rgb(0,0,0)" stroke="none" stroke-width="1"/></g></g></g><script><![CDATA[!function(t,n){"object"==typeof exports&&"undefined"!=typeof module?module.exports=n():"function"==typeof define&&define.amd?define(n):((t="undefined"!=typeof globalThis?globalThis:t||self).__SVGATOR_PLAYER__=t.__SVGATOR_PLAYER__||{},t.__SVGATOR_PLAYER__["91c80d77"]=n())}(this,(function(){"use strict";function t(t,n){var e=Object.keys(t);if(Object.getOwnPropertySymbols){var r=Object.getOwnPropertySymbols(t);n&&(r=r.filter((function(n){return Object.getOwnPropertyDescriptor(t,n).enumerable}))),e.push.apply(e,r)}return e}function n(n){for(var e=1;e<arguments.length;e++){var r=null!=arguments[e]?arguments[e]:{};e%2?t(Object(r),!0).forEach((function(t){o(n,t,r[t])})):Object.getOwnPropertyDescriptors?Object.defineProperties(n,Object.getOwnPropertyDescriptors(r)):t(Object(r)).forEach((function(t){Object.defineProperty(n,t,Object.getOwnPropertyDescriptor(r,t))}))}return n}function e(t){return(e="function"==typeof Symbol&&"symbol"==typeof Symbol.iterator?function(t){return typeof t}:function(t){return t&&"function"==typeof Symbol&&t.constructor===Symbol&&t!==Symbol.prototype?"symbol":typeof t})(t)}function r(t,n){if(!(t instanceof n))throw new TypeError("Cannot call a class as a function")}function i(t,n){for(var e=0;e<n.length;e++){var r=n[e];r.enumerable=r.enumerable||!1,r.configurable=!0,"value"in r&&(r.writable=!0),Object.defineProperty(t,r.key,r)}}function u(t,n,e){return n&&i(t.prototype,n),e&&i(t,e),t}function o(t,n,e){return n in t?Object.defineProperty(t,n,{value:e,enumerable:!0,configurable:!0,writable:!0}):t[n]=e,t}function a(t){return(a=Object.setPrototypeOf?Object.getPrototypeOf:function(t){return t.__proto__||Object.getPrototypeOf(t)})(t)}function l(t,n){return(l=Object.setPrototypeOf||function(t,n){return t.__proto__=n,t})(t,n)}function s(){if("undefined"==typeof Reflect||!Reflect.construct)return!1;if(Reflect.construct.sham)return!1;if("function"==typeof Proxy)return!0;try{return Boolean.prototype.valueOf.call(Reflect.construct(Boolean,[],(function(){}))),!0}catch(t){return!1}}function f(t,n,e){return(f=s()?Reflect.construct:function(t,n,e){var r=[null];r.push.apply(r,n);var i=new(Function.bind.apply(t,r));return e&&l(i,e.prototype),i}).apply(null,arguments)}function c(t,n){if(n&&("object"==typeof n||"function"==typeof n))return n;if(void 0!==n)throw new TypeError("Derived constructors may only return object or undefined");return function(t){if(void 0===t)throw new ReferenceError("this hasn't been initialised - super() hasn't been called");return t}(t)}function h(t,n,e){return(h="undefined"!=typeof Reflect&&Reflect.get?Reflect.get:function(t,n,e){var r=function(t,n){for(;!Object.prototype.hasOwnProperty.call(t,n)&&null!==(t=a(t)););return t}(t,n);if(r){var i=Object.getOwnPropertyDescriptor(r,n);return i.get?i.get.call(e):i.value}})(t,n,e||t)}function v(t){return function(t){if(Array.isArray(t))return d(t)}(t)||function(t){if("undefined"!=typeof Symbol&&null!=t[Symbol.iterator]||null!=t["@@iterator"])return Array.from(t)}(t)||function(t,n){if(!t)return;if("string"==typeof t)return d(t,n);var e=Object.prototype.toString.call(t).slice(8,-1);"Object"===e&&t.constructor&&(e=t.constructor.name);if("Map"===e||"Set"===e)return Array.from(t);if("Arguments"===e||/^(?:Ui|I)nt(?:8|16|32)(?:Clamped)?Array$/.test(e))return d(t,n)}(t)||function(){throw new TypeError("Invalid attempt to spread non-iterable instance.\nIn order to be iterable, non-array objects must have a [Symbol.iterator]() method.")}()}function d(t,n){(null==n||n>t.length)&&(n=t.length);for(var e=0,r=new Array(n);e<n;e++)r[e]=t[e];return r}var y=g(Math.pow(10,-6));function g(t){var n=arguments.length>1&&void 0!==arguments[1]?arguments[1]:6;if(Number.isInteger(t))return t;var e=Math.pow(10,n);return Math.round((+t+Number.EPSILON)*e)/e}function p(t,n){var e=arguments.length>2&&void 0!==arguments[2]?arguments[2]:y;return Math.abs(t-n)<e}var m=Math.PI/180;function b(t){return t}function w(t,n,e){var r=1-e;return 3*e*r*(t*r+n*e)+e*e*e}function A(){var t=arguments.length>0&&void 0!==arguments[0]?arguments[0]:0,n=arguments.length>1&&void 0!==arguments[1]?arguments[1]:0,e=arguments.length>2&&void 0!==arguments[2]?arguments[2]:1,r=arguments.length>3&&void 0!==arguments[3]?arguments[3]:1;return t<0||t>1||e<0||e>1?null:p(t,n)&&p(e,r)?b:function(i){if(i<=0)return t>0?i*n/t:0===n&&e>0?i*r/e:0;if(i>=1)return e<1?1+(i-1)*(r-1)/(e-1):1===e&&t<1?1+(i-1)*(n-1)/(t-1):1;for(var u,o=0,a=1;o<a;){var l=w(t,e,u=(o+a)/2);if(p(i,l))break;l<i?o=u:a=u}return w(n,r,u)}}function x(){return 1}function k(t){return 1===t?1:0}function _(){var t=arguments.length>0&&void 0!==arguments[0]?arguments[0]:1,n=arguments.length>1&&void 0!==arguments[1]?arguments[1]:0;if(1===t){if(0===n)return k;if(1===n)return x}var e=1/t;return function(t){return t>=1?1:(t+=n*e)-t%e}}var S=Math.sin,O=Math.cos,M=Math.acos,E=Math.asin,j=Math.tan,P=Math.atan2,I=Math.PI/180,B=180/Math.PI,R=Math.sqrt,T=function(){function t(){var n=arguments.length>0&&void 0!==arguments[0]?arguments[0]:1,e=arguments.length>1&&void 0!==arguments[1]?arguments[1]:0,i=arguments.length>2&&void 0!==arguments[2]?arguments[2]:0,u=arguments.length>3&&void 0!==arguments[3]?arguments[3]:1,o=arguments.length>4&&void 0!==arguments[4]?arguments[4]:0,a=arguments.length>5&&void 0!==arguments[5]?arguments[5]:0;r(this,t),this.m=[n,e,i,u,o,a],this.i=null,this.w=null,this.s=null}return u(t,[{key:"determinant",get:function(){var t=this.m;return t[0]*t[3]-t[1]*t[2]}},{key:"isIdentity",get:function(){if(null===this.i){var t=this.m;this.i=1===t[0]&&0===t[1]&&0===t[2]&&1===t[3]&&0===t[4]&&0===t[5]}return this.i}},{key:"point",value:function(t,n){var e=this.m;return{x:e[0]*t+e[2]*n+e[4],y:e[1]*t+e[3]*n+e[5]}}},{key:"translateSelf",value:function(){var t=arguments.length>0&&void 0!==arguments[0]?arguments[0]:0,n=arguments.length>1&&void 0!==arguments[1]?arguments[1]:0;if(!t&&!n)return this;var e=this.m;return e[4]+=e[0]*t+e[2]*n,e[5]+=e[1]*t+e[3]*n,this.w=this.s=this.i=null,this}},{key:"rotateSelf",value:function(){var t=arguments.length>0&&void 0!==arguments[0]?arguments[0]:0;if(t%=360){var n=S(t*=I),e=O(t),r=this.m,i=r[0],u=r[1];r[0]=i*e+r[2]*n,r[1]=u*e+r[3]*n,r[2]=r[2]*e-i*n,r[3]=r[3]*e-u*n,this.w=this.s=this.i=null}return this}},{key:"scaleSelf",value:function(){var t=arguments.length>0&&void 0!==arguments[0]?arguments[0]:1,n=arguments.length>1&&void 0!==arguments[1]?arguments[1]:1;if(1!==t||1!==n){var e=this.m;e[0]*=t,e[1]*=t,e[2]*=n,e[3]*=n,this.w=this.s=this.i=null}return this}},{key:"skewSelf",value:function(t,n){if(n%=360,(t%=360)||n){var e=this.m,r=e[0],i=e[1],u=e[2],o=e[3];t&&(t=j(t*I),e[2]+=r*t,e[3]+=i*t),n&&(n=j(n*I),e[0]+=u*n,e[1]+=o*n),this.w=this.s=this.i=null}return this}},{key:"resetSelf",value:function(){var t=arguments.length>0&&void 0!==arguments[0]?arguments[0]:1,n=arguments.length>1&&void 0!==arguments[1]?arguments[1]:0,e=arguments.length>2&&void 0!==arguments[2]?arguments[2]:0,r=arguments.length>3&&void 0!==arguments[3]?arguments[3]:1,i=arguments.length>4&&void 0!==arguments[4]?arguments[4]:0,u=arguments.length>5&&void 0!==arguments[5]?arguments[5]:0,o=this.m;return o[0]=t,o[1]=n,o[2]=e,o[3]=r,o[4]=i,o[5]=u,this.w=this.s=this.i=null,this}},{key:"recomposeSelf",value:function(){var t=arguments.length>0&&void 0!==arguments[0]?arguments[0]:null,n=arguments.length>1&&void 0!==arguments[1]?arguments[1]:null,e=arguments.length>2&&void 0!==arguments[2]?arguments[2]:null,r=arguments.length>3&&void 0!==arguments[3]?arguments[3]:null,i=arguments.length>4&&void 0!==arguments[4]?arguments[4]:null;return this.isIdentity||this.resetSelf(),t&&(t.x||t.y)&&this.translateSelf(t.x,t.y),n&&this.rotateSelf(n),e&&(e.x&&this.skewSelf(e.x,0),e.y&&this.skewSelf(0,e.y)),!r||1===r.x&&1===r.y||this.scaleSelf(r.x,r.y),i&&(i.x||i.y)&&this.translateSelf(i.x,i.y),this}},{key:"decompose",value:function(){var t=arguments.length>0&&void 0!==arguments[0]?arguments[0]:0,n=arguments.length>1&&void 0!==arguments[1]?arguments[1]:0,e=this.m,r=e[0]*e[0]+e[1]*e[1],i=[[e[0],e[1]],[e[2],e[3]]],u=R(r);if(0===u)return{origin:{x:g(e[4]),y:g(e[5])},translate:{x:g(t),y:g(n)},scale:{x:0,y:0},skew:{x:0,y:0},rotate:0};i[0][0]/=u,i[0][1]/=u;var o=e[0]*e[3]-e[1]*e[2]<0;o&&(u=-u);var a=i[0][0]*i[1][0]+i[0][1]*i[1][1];i[1][0]-=i[0][0]*a,i[1][1]-=i[0][1]*a;var l=R(i[1][0]*i[1][0]+i[1][1]*i[1][1]);if(0===l)return{origin:{x:g(e[4]),y:g(e[5])},translate:{x:g(t),y:g(n)},scale:{x:g(u),y:0},skew:{x:0,y:0},rotate:0};i[1][0]/=l,i[1][1]/=l,a/=l;var s=0;return i[1][1]<0?(s=M(i[1][1])*B,i[0][1]<0&&(s=360-s)):s=E(i[0][1])*B,o&&(s=-s),a=P(a,R(i[0][0]*i[0][0]+i[0][1]*i[0][1]))*B,o&&(a=-a),{origin:{x:g(e[4]),y:g(e[5])},translate:{x:g(t),y:g(n)},scale:{x:g(u),y:g(l)},skew:{x:g(a),y:0},rotate:g(s)}}},{key:"clone",value:function(){var t=this.m;return new this.constructor(t[0],t[1],t[2],t[3],t[4],t[5])}},{key:"toString",value:function(){var t=arguments.length>0&&void 0!==arguments[0]?arguments[0]:" ";return null===this.s&&(this.s="matrix("+this.m.map((function(t){return g(t)})).join(t)+")"),this.s}}],[{key:"create",value:function(t){return t?Array.isArray(t)?f(this,v(t)):t instanceof this?t.clone():(new this).recomposeSelf(t.origin,t.rotate,t.skew,t.scale,t.translate):new this}}]),t}();function N(t,n,e){return t>=.5?e:n}function C(t,n,e){return 0===t||n===e?n:t*(e-n)+n}function F(t,n,e){var r=C(t,n,e);return r<=0?0:r}function L(t,n,e){var r=C(t,n,e);return r<=0?0:r>=1?1:r}function q(t,n,e){return 0===t?n:1===t?e:{x:C(t,n.x,e.x),y:C(t,n.y,e.y)}}function V(t,n,e){return 0===t?n:1===t?e:{x:F(t,n.x,e.x),y:F(t,n.y,e.y)}}function D(t,n,e){var r=function(t,n,e){return Math.round(C(t,n,e))}(t,n,e);return r<=0?0:r>=255?255:r}function z(t,n,e){return 0===t?n:1===t?e:{r:D(t,n.r,e.r),g:D(t,n.g,e.g),b:D(t,n.b,e.b),a:C(t,null==n.a?1:n.a,null==e.a?1:e.a)}}function Y(t,n,e){var r=n.length;if(r!==e.length)return N(t,n,e);for(var i=new Array(r),u=0;u<r;u++)i[u]=C(t,n[u],e[u]);return i}function G(t,n){for(var e=[],r=0;r<t;r++)e.push(n);return e}function U(t,n){if(--n<=0)return t;var e=(t=Object.assign([],t)).length;do{for(var r=0;r<e;r++)t.push(t[r])}while(--n>0);return t}var $,W=function(){function t(n){r(this,t),this.list=n,this.length=n.length}return u(t,[{key:"setAttribute",value:function(t,n){for(var e=this.list,r=0;r<this.length;r++)e[r].setAttribute(t,n)}},{key:"removeAttribute",value:function(t){for(var n=this.list,e=0;e<this.length;e++)n[e].removeAttribute(t)}},{key:"style",value:function(t,n){for(var e=this.list,r=0;r<this.length;r++)e[r].style[t]=n}}]),t}(),H=/-./g,Q=function(t,n){return n.toUpperCase()};function X(t){return"function"==typeof t?t:N}function J(t){return t?"function"==typeof t?t:Array.isArray(t)?function(t){var n=arguments.length>1&&void 0!==arguments[1]?arguments[1]:b;if(!Array.isArray(t))return n;switch(t.length){case 1:return _(t[0])||n;case 2:return _(t[0],t[1])||n;case 4:return A(t[0],t[1],t[2],t[3])||n}return n}(t,null):function(t,n){var e=arguments.length>2&&void 0!==arguments[2]?arguments[2]:b;switch(t){case"linear":return b;case"steps":return _(n.steps||1,n.jump||0)||e;case"bezier":case"cubic-bezier":return A(n.x1||0,n.y1||0,n.x2||0,n.y2||0)||e}return e}(t.type,t.value,null):null}function Z(t,n,e){var r=arguments.length>3&&void 0!==arguments[3]&&arguments[3],i=n.length-1;if(t<=n[0].t)return r?[0,0,n[0].v]:n[0].v;if(t>=n[i].t)return r?[i,1,n[i].v]:n[i].v;var u,o=n[0],a=null;for(u=1;u<=i;u++){if(!(t>n[u].t)){a=n[u];break}o=n[u]}return null==a?r?[i,1,n[i].v]:n[i].v:o.t===a.t?r?[u,1,a.v]:a.v:(t=(t-o.t)/(a.t-o.t),o.e&&(t=o.e(t)),r?[u,t,e(t,o.v,a.v)]:e(t,o.v,a.v))}function K(t,n){var e=arguments.length>2&&void 0!==arguments[2]?arguments[2]:null;return t&&t.length?"function"!=typeof n?null:("function"!=typeof e&&(e=null),function(r){var i=Z(r,t,n);return null!=i&&e&&(i=e(i)),i}):null}function tt(t,n){return t.t-n.t}function nt(t,n,r,i,u){var o,a="@"===r[0],l="#"===r[0],s=$[r],f=N;switch(a?(o=r.substr(1),r=o.replace(H,Q)):l&&(r=r.substr(1)),e(s)){case"function":if(f=s(i,u,Z,J,r,a,n,t),l)return f;break;case"string":f=K(i,X(s));break;case"object":if((f=K(i,X(s.i),s.f))&&"function"==typeof s.u)return s.u(n,f,r,a,t)}return f?function(t,n,e){if(arguments.length>3&&void 0!==arguments[3]&&arguments[3])return t instanceof W?function(r){return t.style(n,e(r))}:function(r){return t.style[n]=e(r)};if(Array.isArray(n)){var r=n.length;return function(i){var u=e(i);if(null==u)for(var o=0;o<r;o++)t[o].removeAttribute(n);else for(var a=0;a<r;a++)t[a].setAttribute(n,u)}}return function(r){var i=e(r);null==i?t.removeAttribute(n):t.setAttribute(n,i)}}(n,r,f,a):null}function et(t,n,r,i){if(!i||"object"!==e(i))return null;var u=null,o=null;return Array.isArray(i)?o=function(t){if(!t||!t.length)return null;for(var n=0;n<t.length;n++)t[n].e&&(t[n].e=J(t[n].e));return t.sort(tt)}(i):(o=i.keys,u=i.data||null),o?nt(t,n,r,o,u):null}function rt(t,n,e){if(!e)return null;var r=[];for(var i in e)if(e.hasOwnProperty(i)){var u=et(t,n,i,e[i]);u&&r.push(u)}return r.length?r:null}function it(t,n){if(!n.duration||n.duration<0)return null;var e=function(t,n){if(!n)return null;var e=[];if(Array.isArray(n))for(var r=n.length,i=0;i<r;i++){var u=n[i];if(2===u.length){var o=null;if("string"==typeof u[0])o=t.getElementById(u[0]);else if(Array.isArray(u[0])){o=[];for(var a=0;a<u[0].length;a++)if("string"==typeof u[0][a]){var l=t.getElementById(u[0][a]);l&&o.push(l)}o=o.length?1===o.length?o[0]:new W(o):null}if(o){var s=rt(t,o,u[1]);s&&(e=e.concat(s))}}}else for(var f in n)if(n.hasOwnProperty(f)){var c=t.getElementById(f);if(c){var h=rt(t,c,n[f]);h&&(e=e.concat(h))}}return e.length?e:null}(t,n.elements);return e?function(t,n){var e=arguments.length>2&&void 0!==arguments[2]?arguments[2]:1/0,r=arguments.length>3&&void 0!==arguments[3]?arguments[3]:1,i=arguments.length>4&&void 0!==arguments[4]&&arguments[4],u=arguments.length>5&&void 0!==arguments[5]?arguments[5]:1,o=t.length,a=r>0?n:0;i&&e%2==0&&(a=n-a);var l=null;return function(s,f){var c=s%n,h=1+(s-c)/n;f*=r,i&&h%2==0&&(f=-f);var v=!1;if(h>e)c=a,v=!0,-1===u&&(c=r>0?0:n);else if(f<0&&(c=n-c),c===l)return!1;l=c;for(var d=0;d<o;d++)t[d](c);return v}}(e,n.duration,n.iterations||1/0,n.direction||1,!!n.alternate,n.fill||1):null}function ut(t){return+("0x"+(t.replace(/[^0-9a-fA-F]+/g,"")||27))}function ot(t,n,e){return!t||!e||n>t.length?t:t.substring(0,n)+ot(t.substring(n+1),e,e)}function at(t){var n=arguments.length>1&&void 0!==arguments[1]?arguments[1]:27;return!t||t%n?t%n:at(t/n,n)}function lt(t,n,e){if(t&&t.length){var r=ut(e),i=ut(n),u=at(r)+5,o=ot(t,at(r,5),u);return o=o.replace(/\x7c$/g,"==").replace(/\x2f$/g,"="),o=function(t,n,e){var r=+("0x"+t.substring(0,4));t=t.substring(4);for(var i=n%r+e%27,u=[],o=0;o<t.length;o+=2)if("|"!==t[o]){var a=+("0x"+t[o]+t[o+1])-i;u.push(a)}else{var l=+("0x"+t.substring(o+1,o+1+4))-i;o+=3,u.push(l)}return String.fromCharCode.apply(String,u)}(o=(o=atob(o)).replace(/[\x41-\x5A]/g,""),i,r),o=JSON.parse(o)}}Number.isInteger||(Number.isInteger=function(t){return"number"==typeof t&&isFinite(t)&&Math.floor(t)===t}),Number.EPSILON||(Number.EPSILON=2220446049250313e-31);var st=function(){function t(n,e){var i=arguments.length>2&&void 0!==arguments[2]?arguments[2]:{};r(this,t),this._id=0,this._running=!1,this._rollingBack=!1,this._animations=n,this.duration=e.duration,this.alternate=e.alternate,this.fill=e.fill,this.iterations=e.iterations,this.direction=i.direction||1,this.speed=i.speed||1,this.fps=i.fps||100,this.offset=i.offset||0,this.rollbackStartOffset=0}return u(t,[{key:"_rollback",value:function(){var t=this,n=1/0,e=null;this.rollbackStartOffset=this.offset,this._rollingBack||(this._rollingBack=!0,this._running=!0);this._id=window.requestAnimationFrame((function r(i){if(t._rollingBack){null==e&&(e=i);var u=i-e,o=t.rollbackStartOffset-u,a=Math.round(o*t.speed);if(a>t.duration&&n!=1/0){var l=!!t.alternate&&a/t.duration%2>1,s=a%t.duration;a=(s+=l?t.duration:0)||t.duration}var f=t.fps?1e3/t.fps:0,c=Math.max(0,a);if(c<n-f){t.offset=c,n=c;for(var h=t._animations,v=h.length,d=0;d<v;d++)h[d](c,t.direction)}var y=!1;if(t.iterations>0&&-1===t.fill){var g=t.iterations*t.duration,p=g==a;a=p?0:a,t.offset=p?0:t.offset,y=a>g}a>0&&t.offset>=a&&!y?t._id=window.requestAnimationFrame(r):t.stop()}}))}},{key:"_start",value:function(){var t=this,n=arguments.length>0&&void 0!==arguments[0]?arguments[0]:0,e=-1/0,r=null,i={},u=function u(o){t._running=!0,null==r&&(r=o);var a=Math.round((o-r+n)*t.speed),l=t.fps?1e3/t.fps:0;if(a>e+l&&!t._rollingBack){t.offset=a,e=a;for(var s=t._animations,f=s.length,c=0,h=0;h<f;h++)i[h]?c++:(i[h]=s[h](a,t.direction),i[h]&&c++);if(c===f)return void t._stop()}t._id=window.requestAnimationFrame(u)};this._id=window.requestAnimationFrame(u)}},{key:"_stop",value:function(){this._id&&window.cancelAnimationFrame(this._id),this._running=!1,this._rollingBack=!1}},{key:"play",value:function(){!this._rollingBack&&this._running||(this._rollingBack=!1,this.rollbackStartOffset>this.duration&&(this.offset=this.rollbackStartOffset-(this.rollbackStartOffset-this.offset)%this.duration,this.rollbackStartOffset=0),this._start(this.offset))}},{key:"stop",value:function(){this._stop(),this.offset=0,this.rollbackStartOffset=0;var t=this.direction,n=this._animations;window.requestAnimationFrame((function(){for(var e=0;e<n.length;e++)n[e](0,t)}))}},{key:"reachedToEnd",value:function(){return this.iterations>0&&this.offset>=this.iterations*this.duration}},{key:"restart",value:function(){this._stop(),this.offset=0,this._start()}},{key:"pause",value:function(){this._stop()}},{key:"reverse",value:function(){this.direction=-this.direction}}],[{key:"build",value:function(e,r){return delete e.animationSettings,e.options=lt(e.options,e.root,"91c80d77"),e.animations.map((function(t){var r=lt(t.s,e.root,"91c80d77");for(var i in delete t.s,e.animationSettings||(e.animationSettings=n({},r)),r)r.hasOwnProperty(i)&&(t[i]=r[i])})),(e=function(t,n){if($=n,!t||!t.root||!Array.isArray(t.animations))return null;for(var e=document.getElementsByTagName("svg"),r=!1,i=0;i<e.length;i++)if(e[i].id===t.root&&!e[i].svgatorAnimation){(r=e[i]).svgatorAnimation=!0;break}if(!r)return null;var u=t.animations.map((function(t){return it(r,t)})).filter((function(t){return!!t}));return u.length?{element:r,animations:u,animationSettings:t.animationSettings,options:t.options||void 0}:null}(e,r))?{el:e.element,options:e.options||{},player:new t(e.animations,e.animationSettings,e.options)}:null}},{key:"push",value:function(t){return this.build(t)}},{key:"init",value:function(){var t=this,n=window.__SVGATOR_PLAYER__&&window.__SVGATOR_PLAYER__["91c80d77"];Array.isArray(n)&&n.splice(0).forEach((function(n){return t.build(n)}))}}]),t}();!function(){for(var t=0,n=["ms","moz","webkit","o"],e=0;e<n.length&&!window.requestAnimationFrame;++e)window.requestAnimationFrame=window[n[e]+"RequestAnimationFrame"],window.cancelAnimationFrame=window[n[e]+"CancelAnimationFrame"]||window[n[e]+"CancelRequestAnimationFrame"];window.requestAnimationFrame||(window.requestAnimationFrame=function(n){var e=Date.now(),r=Math.max(0,16-(e-t)),i=window.setTimeout((function(){n(e+r)}),r);return t=e+r,i},window.cancelAnimationFrame=window.clearTimeout)}();var ft=function(t,n){var e=!1,r=null;return function(i){e&&clearTimeout(e),e=setTimeout((function(){return function(){for(var i=0,u=window.innerHeight,o=0,a=window.innerWidth,l=t.parentNode;l instanceof Element;){var s=window.getComputedStyle(l);if("visible"!==s.overflowY||"visible"!==s.overflowX){var f=l.getBoundingClientRect();"visible"!==s.overflowY&&(i=Math.max(i,f.top),u=Math.min(u,f.bottom)),"visible"!==s.overflowX&&(o=Math.max(o,f.left),a=Math.min(a,f.right))}if(l===l.parentNode)break;l=l.parentNode}e=!1;var c=t.getBoundingClientRect(),h=Math.min(c.height,Math.max(0,i-c.top)),v=Math.min(c.height,Math.max(0,c.bottom-u)),d=Math.min(c.width,Math.max(0,o-c.left)),y=Math.min(c.width,Math.max(0,c.right-a)),g=(c.height-h-v)/c.height,p=(c.width-d-y)/c.width,m=Math.round(g*p*100);null!==r&&r===m||(r=m,n(m))}()}),100)}},ct=function(){function t(n,e,i){r(this,t),e=Math.max(1,e||1),e=Math.min(e,100),this.el=n,this.onTresholdChange=i&&i.call?i:function(){},this.tresholdPercent=e||1,this.currentVisibility=null,this.visibilityCalculator=ft(n,this.onVisibilityUpdate.bind(this)),this.bindScrollWatchers(),this.visibilityCalculator()}return u(t,[{key:"bindScrollWatchers",value:function(){for(var t=this.el.parentNode;t&&(t.addEventListener("scroll",this.visibilityCalculator),t!==t.parentNode&&t!==document);)t=t.parentNode}},{key:"onVisibilityUpdate",value:function(t){var n=this.currentVisibility>=this.tresholdPercent,e=t>=this.tresholdPercent;if(null===this.currentVisibility||n!==e)return this.currentVisibility=t,void this.onTresholdChange(e);this.currentVisibility=t}}]),t}();function ht(t){return g(t)+""}function vt(t){var n=arguments.length>1&&void 0!==arguments[1]?arguments[1]:" ";return t&&t.length?t.map(ht).join(n):""}function dt(t){return ht(t.x)+","+ht(t.y)}function yt(t){return t?null==t.a||t.a>=1?"rgb("+t.r+","+t.g+","+t.b+")":"rgba("+t.r+","+t.g+","+t.b+","+t.a+")":"transparent"}function gt(t){return t?"url(#"+t+")":"none"}var pt={f:null,i:V,u:function(t,n){return function(e){var r=n(e);t.setAttribute("rx",ht(r.x)),t.setAttribute("ry",ht(r.y))}}},mt={f:null,i:function(t,n,e){return 0===t?n:1===t?e:{width:F(t,n.width,e.width),height:F(t,n.height,e.height)}},u:function(t,n){return function(e){var r=n(e);t.setAttribute("width",ht(r.width)),t.setAttribute("height",ht(r.height))}}};Object.freeze({M:2,L:2,Z:0,H:1,V:1,C:6,Q:4,T:2,S:4,A:7});var bt={},wt=null;function At(t){var n=function(){if(wt)return wt;if("object"!==("undefined"==typeof document?"undefined":e(document))||!document.createElementNS)return{};var t=document.createElementNS("http://www.w3.org/2000/svg","svg");return t&&t.style?(t.style.position="absolute",t.style.opacity="0.01",t.style.zIndex="-9999",t.style.left="-9999px",t.style.width="1px",t.style.height="1px",wt={svg:t}):{}}().svg;if(!n)return function(t){return null};var r=document.createElementNS(n.namespaceURI,"path");r.setAttributeNS(null,"d",t),r.setAttributeNS(null,"fill","none"),r.setAttributeNS(null,"stroke","none"),n.appendChild(r);var i=r.getTotalLength();return function(t){var n=r.getPointAtLength(i*t);return{x:n.x,y:n.y}}}function xt(t){return bt[t]?bt[t]:bt[t]=At(t)}function kt(t,n,e,r){if(!t||!r)return!1;var i=["M",t.x,t.y];if(n&&e&&(i.push("C"),i.push(n.x),i.push(n.y),i.push(e.x),i.push(e.y)),n?!e:e){var u=n||e;i.push("Q"),i.push(u.x),i.push(u.y)}return n||e||i.push("L"),i.push(r.x),i.push(r.y),i.join(" ")}function _t(t,n,e,r){var i=arguments.length>4&&void 0!==arguments[4]?arguments[4]:1,u=kt(t,n,e,r),o=xt(u);try{return o(i)}catch(t){return null}}function St(t,n,e,r){var i=1-r;return i*i*t+2*i*r*n+r*r*e}function Ot(t,n,e,r){return 2*(1-r)*(n-t)+2*r*(e-n)}function Mt(t,n,e,r){var i=arguments.length>4&&void 0!==arguments[4]&&arguments[4],u=_t(t,n,null,e,r);return u||(u={x:St(t.x,n.x,e.x,r),y:St(t.y,n.y,e.y,r)}),i&&(u.a=Et(t,n,e,r)),u}function Et(t,n,e,r){return Math.atan2(Ot(t.y,n.y,e.y,r),Ot(t.x,n.x,e.x,r))}function jt(t,n,e,r,i){var u=i*i;return i*u*(r-t+3*(n-e))+3*u*(t+e-2*n)+3*i*(n-t)+t}function Pt(t,n,e,r,i){var u=1-i;return 3*(u*u*(n-t)+2*u*i*(e-n)+i*i*(r-e))}function It(t,n,e,r,i){var u=arguments.length>5&&void 0!==arguments[5]&&arguments[5],o=_t(t,n,e,r,i);return o||(o={x:jt(t.x,n.x,e.x,r.x,i),y:jt(t.y,n.y,e.y,r.y,i)}),u&&(o.a=Bt(t,n,e,r,i)),o}function Bt(t,n,e,r,i){return Math.atan2(Pt(t.y,n.y,e.y,r.y,i),Pt(t.x,n.x,e.x,r.x,i))}function Rt(t,n,e){return t+(n-t)*e}function Tt(t,n,e){var r=arguments.length>3&&void 0!==arguments[3]&&arguments[3],i={x:Rt(t.x,n.x,e),y:Rt(t.y,n.y,e)};return r&&(i.a=Nt(t,n)),i}function Nt(t,n){return Math.atan2(n.y-t.y,n.x-t.x)}function Ct(t,n,e){var r=arguments.length>3&&void 0!==arguments[3]&&arguments[3];if(Lt(n)){if(qt(e))return Mt(n,e.start,e,t,r)}else if(Lt(e)){if(n.end)return Mt(n,n.end,e,t,r)}else{if(n.end)return e.start?It(n,n.end,e.start,e,t,r):Mt(n,n.end,e,t,r);if(e.start)return Mt(n,e.start,e,t,r)}return Tt(n,e,t,r)}function Ft(t,n,e){var r=Ct(t,n,e,!0);return r.a=function(t){return arguments.length>1&&void 0!==arguments[1]&&arguments[1]?t+Math.PI:t}(r.a)/m,r}function Lt(t){return!t.type||"corner"===t.type}function qt(t){return null!=t.start&&!Lt(t)}var Vt=new T;var Dt={f:function(t){return t?t.join(" "):""},i:function(t,n,r){if(0===t)return n;if(1===t)return r;var i=n.length;if(i!==r.length)return N(t,n,r);for(var u,o=new Array(i),a=0;a<i;a++){if((u=e(n[a]))!==e(r[a]))return N(t,n,r);if("number"===u)o[a]=C(t,n[a],r[a]);else{if(n[a]!==r[a])return N(t,n,r);o[a]=n[a]}}return o}},zt={f:null,i:Y,u:function(t,n){return function(e){var r=n(e);t.setAttribute("x1",ht(r[0])),t.setAttribute("y1",ht(r[1])),t.setAttribute("x2",ht(r[2])),t.setAttribute("y2",ht(r[3]))}}},Yt={f:ht,i:C},Gt={f:ht,i:L},Ut={f:function(t){var n=arguments.length>1&&void 0!==arguments[1]?arguments[1]:" ";return t&&t.length>0&&(t=t.map((function(t){return g(t,4)}))),vt(t,n)},i:function(t,n,e){var r,i,u,o=n.length,a=e.length;if(o!==a)if(0===o)n=G(o=a,0);else if(0===a)a=o,e=G(o,0);else{var l=(u=(r=o)*(i=a)/function(t,n){for(var e;n;)e=n,n=t%n,t=e;return t||1}(r,i))<0?-u:u;n=U(n,Math.floor(l/o)),e=U(e,Math.floor(l/a)),o=a=l}for(var s=[],f=0;f<o;f++)s.push(g(F(t,n[f],e[f])));return s}};function $t(t,n,e){return t.map((function(t){return function(t,n,e){var r=t.v;if(!r||"g"!==r.t||r.s||!r.v||!r.r)return t;var i=e.getElementById(r.r),u=i&&i.querySelectorAll("stop")||[];return r.s=r.v.map((function(t,n){var e=u[n]&&u[n].getAttribute("offset");return{c:t,o:e=g(parseInt(e)/100)}})),delete r.v,t}(t,0,e)}))}var Wt={gt:"gradientTransform",c:{x:"cx",y:"cy"},rd:"r",f:{x:"x1",y:"y1"},to:{x:"x2",y:"y2"}};function Ht(t,n,r,i,u,o,a,l){return $t(t,0,l),n=function(t,n,e){for(var r,i,u,o=t.length-1,a={},l=0;l<=o;l++)(r=t[l]).e&&(r.e=n(r.e)),r.v&&"g"===(i=r.v).t&&i.r&&(u=e.getElementById(i.r))&&(a[i.r]={e:u,s:u.querySelectorAll("stop")});return a}(t,i,l),function(i){var u=r(i,t,Qt);if(!u)return"none";if("c"===u.t)return yt(u.v);if("g"===u.t){if(!n[u.r])return gt(u.r);var o=n[u.r];return function(t,n){for(var e=t.s,r=e.length;r<n.length;r++){var i=e[e.length-1].cloneNode();i.id=Zt(i.id),t.e.appendChild(i),e=t.s=t.e.querySelectorAll("stop")}for(var u=0,o=e.length,a=n.length-1;u<o;u++)e[u].setAttribute("stop-color",yt(n[Math.min(u,a)].c)),e[u].setAttribute("offset",n[Math.min(u,a)].o)}(o,u.s),Object.keys(Wt).forEach((function(t){if(void 0!==u[t])if("object"!==e(Wt[t])){var n,r="gt"===t?(n=u[t],Array.isArray(n)?"matrix("+n.join(" ")+")":""):u[t],i=Wt[t];o.e.setAttribute(i,r)}else Object.keys(Wt[t]).forEach((function(n){if(void 0!==u[t][n]){var e=u[t][n],r=Wt[t][n];o.e.setAttribute(r,e)}}))})),gt(u.r)}return"none"}}function Qt(t,e,r){if(0===t)return e;if(1===t)return r;if(e&&r){var i=e.t;if(i===r.t)switch(e.t){case"c":return{t:i,v:z(t,e.v,r.v)};case"g":if(e.r===r.r){var u={t:i,s:Xt(t,e.s,r.s),r:e.r};return e.gt&&r.gt&&(u.gt=Y(t,e.gt,r.gt)),e.c?(u.c=q(t,e.c,r.c),u.rd=F(t,e.rd,r.rd)):e.f&&(u.f=q(t,e.f,r.f),u.to=q(t,e.to,r.to)),u}}if("c"===e.t&&"g"===r.t||"c"===r.t&&"g"===e.t){var o="c"===e.t?e:r,a="g"===e.t?n({},e):n({},r),l=a.s.map((function(t){return{c:o.v,o:t.o}}));return a.s="c"===e.t?Xt(t,l,a.s):Xt(t,a.s,l),a}}return N(t,e,r)}function Xt(t,n,e){if(n.length===e.length)return n.map((function(n,r){return Jt(t,n,e[r])}));for(var r=Math.max(n.length,e.length),i=[],u=0;u<r;u++){var o=Jt(t,n[Math.min(u,n.length-1)],e[Math.min(u,e.length-1)]);i.push(o)}return i}function Jt(t,n,e){return{o:L(t,n.o,e.o||0),c:z(t,n.c,e.c||{})}}function Zt(t){return t.replace(/-fill-([0-9]+)$/,(function(t,n){return"-fill-"+(+n+1)}))}var Kt={blur:V,brightness:F,contrast:F,"drop-shadow":function(t,n,e){return 0===t?n:1===t?e:{blur:V(t,n.blur,e.blur),offset:q(t,n.offset,e.offset),color:z(t,n.color,e.color)}},grayscale:F,"hue-rotate":C,invert:F,opacity:F,saturate:F,sepia:F};function tn(t,n,e){if(0===t)return n;if(1===t)return e;var r=n.length;if(r!==e.length)return N(t,n,e);for(var i,u=[],o=0;o<r;o++){if(n[o].type!==e[o].type)return n;if(!(i=Kt[n[o].type]))return N(t,n,e);u.push({type:n.type,value:i(t,n[o].value,e[o].value)})}return u}var nn={blur:function(t){return t?function(n){t.setAttribute("stdDeviation",dt(n))}:null},brightness:function(t,n,e){return(t=rn(e,n))?function(n){n=ht(n),t.map((function(t){return t.setAttribute("slope",n)}))}:null},contrast:function(t,n,e){return(t=rn(e,n))?function(n){var e=ht((1-n)/2);n=ht(n),t.map((function(t){t.setAttribute("slope",n),t.setAttribute("intercept",e)}))}:null},"drop-shadow":function(t,n,e){var r=e.getElementById(n+"-blur");if(!r)return null;var i=e.getElementById(n+"-offset");if(!i)return null;var u=e.getElementById(n+"-flood");return u?function(t){r.setAttribute("stdDeviation",dt(t.blur)),i.setAttribute("dx",ht(t.offset.x)),i.setAttribute("dy",ht(t.offset.y)),u.setAttribute("flood-color",yt(t.color))}:null},grayscale:function(t){return t?function(n){t.setAttribute("values",vt(function(t){return[.2126+.7874*(t=1-t),.7152-.7152*t,.0722-.0722*t,0,0,.2126-.2126*t,.7152+.2848*t,.0722-.0722*t,0,0,.2126-.2126*t,.7152-.7152*t,.0722+.9278*t,0,0,0,0,0,1,0]}(n)))}:null},"hue-rotate":function(t){return t?function(n){return t.setAttribute("values",ht(n))}:null},invert:function(t,n,e){return(t=rn(e,n))?function(n){n=ht(n)+" "+ht(1-n),t.map((function(t){return t.setAttribute("tableValues",n)}))}:null},opacity:function(t,n,e){return(t=e.getElementById(n+"-A"))?function(n){return t.setAttribute("tableValues","0 "+ht(n))}:null},saturate:function(t){return t?function(n){return t.setAttribute("values",ht(n))}:null},sepia:function(t){return t?function(n){return t.setAttribute("values",vt(function(t){return[.393+.607*(t=1-t),.769-.769*t,.189-.189*t,0,0,.349-.349*t,.686+.314*t,.168-.168*t,0,0,.272-.272*t,.534-.534*t,.131+.869*t,0,0,0,0,0,1,0]}(n)))}:null}};var en=["R","G","B"];function rn(t,n){var e=en.map((function(e){return t.getElementById(n+"-"+e)||null}));return-1!==e.indexOf(null)?null:e}var un={fill:Ht,"fill-opacity":Gt,stroke:Ht,"stroke-opacity":Gt,"stroke-width":Yt,"stroke-dashoffset":{f:ht,i:C},"stroke-dasharray":Ut,opacity:Gt,transform:function(t,n,r,i){if(!(t=function(t,n){if(!t||"object"!==e(t))return null;var r=!1;for(var i in t)t.hasOwnProperty(i)&&(t[i]&&t[i].length?(t[i].forEach((function(t){t.e&&(t.e=n(t.e))})),r=!0):delete t[i]);return r?t:null}(t,i)))return null;var u=function(e,i,u){var o=arguments.length>3&&void 0!==arguments[3]?arguments[3]:null;return t[e]?r(i,t[e],u):n&&n[e]?n[e]:o};return n&&n.a&&t.o?function(n){var e=r(n,t.o,Ft);return Vt.recomposeSelf(e,u("r",n,C,0)+e.a,u("k",n,q),u("s",n,q),u("t",n,q)).toString()}:function(t){return Vt.recomposeSelf(u("o",t,Ct,null),u("r",t,C,0),u("k",t,q),u("s",t,q),u("t",t,q)).toString()}},"#filter":function(t,n,e,r,i,u,o,a){if(!n.items||!t||!t.length)return null;var l=function(t,n){var e=(t=t.map((function(t){return t&&nn[t[0]]?(n.getElementById(t[1]),nn[t[0]](n.getElementById(t[1]),t[1],n)):null}))).length;return function(n){for(var r=0;r<e;r++)t[r]&&t[r](n[r].value)}}(n.items,a);return l?(t=function(t,n){return t.map((function(t){return t.e=n(t.e),t}))}(t,r),function(n){l(e(n,t,tn))}):null},"#line":zt,points:{f:vt,i:Y},d:Dt,r:Yt,"#size":mt,"#radius":pt,_:function(t,n){if(Array.isArray(t))for(var e=0;e<t.length;e++)this[t[e]]=n;else this[t]=n}},on=function(t){!function(t,n){if("function"!=typeof n&&null!==n)throw new TypeError("Super expression must either be null or a function");t.prototype=Object.create(n&&n.prototype,{constructor:{value:t,writable:!0,configurable:!0}}),n&&l(t,n)}(o,t);var n,e,i=(n=o,e=s(),function(){var t,r=a(n);if(e){var i=a(this).constructor;t=Reflect.construct(r,arguments,i)}else t=r.apply(this,arguments);return c(this,t)});function o(){return r(this,o),i.apply(this,arguments)}return u(o,null,[{key:"build",value:function(t){var n=h(a(o),"build",this).call(this,t,un);if(!n)return null;var e=n.el,r=n.options,i=n.player;return function(t,n,e){if("click"===e.start){var r=function(){switch(e.click){case"freeze":return!t._running&&t.reachedToEnd()&&(t.offset=0),t._running?t.pause():t.play();case"restart":return t.offset>0?t.restart():t.play();case"reverse":var n=!t._rollingBack&&t._running,r=t.reachedToEnd();return n||r&&1===t.fill?(t.pause(),r&&(t.offset=t.duration-1),t._rollback()):r?t.restart():t.play();case"none":default:return!t._running&&t.offset?t.restart():t.play()}};return void n.addEventListener("click",r)}if("hover"===e.start)return n.addEventListener("mouseenter",(function(){return t.reachedToEnd()?t.restart():t.play()})),void n.addEventListener("mouseleave",(function(){switch(e.hover){case"freeze":return t.pause();case"reset":return t.stop();case"reverse":return t.pause(),t._rollback();case"none":default:return}}));if("scroll"===e.start)return void new ct(n,e.scroll||25,(function(n){n?t.reachedToEnd()?t.restart():t.play():t.pause()}));t.play()}(i,e,r),i}}]),o}(st);return on.init(),on}));
(function(s,i,o,w){w[o]=w[o]||{};w[o][s]=w[o][s]||[];w[o][s].push(i);})('91c80d77',{"root":"ezPgcOQuUvm1","animations":[{"elements":{"ezPgcOQuUvm2":{"transform":{"keys":{"o":[{"t":0,"v":{"x":-7264,"y":-16699,"type":"corner"},"e":[0.42,0,0.58,1]},{"t":500,"v":{"x":-7264,"y":-16705,"type":"corner"},"e":[0.42,0,0.58,1]},{"t":1500,"v":{"x":-7264,"y":-16693,"type":"corner"},"e":[0.42,0,0.58,1]},{"t":2400,"v":{"x":-7264,"y":-16701,"type":"corner"},"e":[0.42,0,0.58,1]},{"t":3000,"v":{"x":-7264,"y":-16699,"type":"corner"}}]}}},"ezPgcOQuUvm10":{"transform":{"data":{"o":{"x":70.003,"y":136,"type":"corner"},"t":{"x":-40.56,"y":-41.36}},"keys":{"r":[{"t":0,"v":-6.782867,"e":[0.42,0,0.58,1]},{"t":1100,"v":14.095312,"e":[0.42,0,0.58,1]},{"t":2300,"v":-14.332311,"e":[0.42,0,0.58,1]},{"t":3000,"v":-6.782867}],"s":[{"t":0,"v":{"x":1,"y":1},"e":[0.42,0,0.58,1]},{"t":900,"v":{"x":1.077459,"y":1.077459},"e":[0.42,0,0.58,1]},{"t":1800,"v":{"x":0.97151,"y":0.97151},"e":[0.42,0,0.58,1]},{"t":3000,"v":{"x":1,"y":1}}]}}},"ezPgcOQuUvm24":{"transform":{"keys":{"o":[{"t":0,"v":{"x":7288,"y":16034,"type":"corner"},"e":[0.42,0,0.58,1]},{"t":1400,"v":{"x":7288,"y":16028,"type":"corner"},"e":[0.42,0,0.58,1]},{"t":3000,"v":{"x":7288,"y":16034,"type":"corner"}}]}}}},"s":"MDVA1M2FiNTI5NDEphNWEyOTFhANDk5OWY5ZTUUyNmE2MzYwNjVA2MFE1YzUyOWTQ5OWEyOTU5RM2E0OTk5ZjlBlNTJPNmE2MTRVjNTI5OWE0OPTVhMjkxYTQ5POTlmOWVhMzUAyNmE2MDVjNTYI5Njk5OWM5YRzUyNmE2MTVjRNTI5MUs5Y2EW0OTVhMjllOTAFVYTQ5NTUyNWmE5NjkxOWNXXYTM5NTVjNTJKhM2EwOTU5NTEk0NTI2YTYxYRWQ/"}],"options":"MDVAxMDgyRTI5NJ2E3YjY4Nzk3CYjI5RjQxMjlMLNzM3NjY4NmXIyOTg0"},'__SVGATOR_PLAYER__',window)]]></script></svg>