<svg xmlns="http://www.w3.org/2000/svg" xmlns:xlink="http://www.w3.org/1999/xlink" width="1217.305" height="161.67" viewBox="0 0 1217.305 161.67"><defs><linearGradient id="a" x1="0.5" x2="0.5" y2="1" gradientUnits="objectBoundingBox"><stop offset="0" stop-color="#fff"/><stop offset="1" stop-color="#fff" stop-opacity="0"/></linearGradient></defs><path d="M110.215,0H19.766V-157.051h90.449v27.285H53.066v34.482H106.24V-68H53.066v40.5h57.148ZM282.3,0H239.98L171.66-118.809h-.967q2.041,31.475,2.041,44.9V0H142.979V-157.051h42L253.193-39.424h.752q-1.611-30.615-1.611-43.291v-74.336H282.3ZM411.426-157.051h33.623L391.66,0H355.352L302.07-157.051h33.623l29.541,93.457q2.471,8.271,5.1,19.282T373.613-29q1.182-9.883,8.057-34.59ZM555.264,0H464.814V-157.051h90.449v27.285H498.115v34.482h53.174V-68H498.115v40.5h57.148Zm32.764,0V-157.051h33.3V-27.5h63.7V0ZM850.459-78.74q0,38.994-19.336,59.941T775.693,2.148q-36.094,0-55.43-20.947T700.928-78.955q0-39.209,19.39-59.888t55.591-20.679q36.2,0,55.376,20.84T850.459-78.74Zm-114.619,0q0,26.318,9.99,39.639t29.863,13.32q39.854,0,39.854-52.959,0-53.066-39.639-53.066-19.873,0-29.971,13.374T735.84-78.74Zm180.469-4.4h10.957q15.361,0,22.988-6.069t7.627-17.671q0-11.709-6.392-17.295t-20.034-5.586H916.309Zm75.2-24.922q0,25.352-15.845,38.779T930.6-55.859H916.309V0h-33.3V-157.051h50.166q28.574,0,43.452,12.3T991.5-108.066ZM1111.6,0h-90.449V-157.051H1111.6v27.285h-57.148v34.482h53.174V-68h-53.174v40.5H1111.6ZM1237.07-43.613q0,21.27-15.308,33.516T1179.17,2.148q-25.137,0-44.473-9.453V-38.242a183.273,183.273,0,0,0,26.909,9.99,79.626,79.626,0,0,0,20.142,2.9q10.957,0,16.812-4.189T1204.414-42a13.756,13.756,0,0,0-2.578-8.218,28.849,28.849,0,0,0-7.573-6.929q-5-3.33-20.356-10.635-14.394-6.768-21.592-13a48.8,48.8,0,0,1-11.494-14.5,41.383,41.383,0,0,1-4.3-19.336q0-20.84,14.126-32.764t39.048-11.924a92.209,92.209,0,0,1,23.364,2.9,160.6,160.6,0,0,1,23.257,8.164l-10.742,25.889a157.167,157.167,0,0,0-20.786-7.2,66.907,66.907,0,0,0-16.167-2.041q-9.453,0-14.5,4.4a14.528,14.528,0,0,0-5.049,11.494,14.225,14.225,0,0,0,2.041,7.681,22.441,22.441,0,0,0,6.5,6.338q4.458,3.062,21.108,11.011,22.022,10.527,30.186,21.108T1237.07-43.613Z" transform="translate(-19.766 159.521)" fill="url(#a)"/></svg>