<?xml version="1.0" standalone="no"?>
<!DOCTYPE svg PUBLIC "-//W3C//DTD SVG 20010904//EN"
 "http://www.w3.org/TR/2001/REC-SVG-20010904/DTD/svg10.dtd">
<svg version="1.0" xmlns="http://www.w3.org/2000/svg"
 width="1075.000000pt" height="1075.000000pt" viewBox="0 0 1075.000000 1075.000000"
 preserveAspectRatio="xMidYMid meet">
<metadata>
Created by potrace 1.14, written by Peter Selinger 2001-2017
</metadata>
<g transform="translate(0.000000,1075.000000) scale(0.100000,-0.100000)"
fill="#000000" stroke="none">
<path d="M5230 10403 c-182 -257 -203 -287 -464 -678 -231 -344 -322 -483
-466 -715 -57 -91 -113 -181 -125 -200 -21 -32 -56 -91 -80 -132 -5 -9 -51
-86 -101 -170 -96 -160 -314 -537 -314 -543 0 -1 -29 -54 -64 -116 -100 -181
-292 -554 -369 -719 -24 -52 -60 -129 -80 -170 -50 -105 -190 -440 -247 -590
-104 -276 -201 -611 -236 -810 -4 -25 -8 -47 -9 -50 -1 -3 -5 -30 -9 -60 -5
-30 -10 -64 -13 -75 -3 -11 -6 -114 -8 -230 -4 -253 6 -371 51 -593 174 -861
790 -1609 1613 -1961 196 -84 423 -151 611 -181 41 -6 86 -13 100 -16 119 -20
446 -26 618 -11 592 49 1199 326 1636 746 82 79 213 222 256 280 14 18 35 45
46 59 30 38 154 221 154 227 0 3 12 24 26 47 106 168 254 535 290 718 3 14 10
42 15 63 10 37 32 169 43 252 27 211 25 497 -4 675 -5 30 -12 74 -15 97 -2 23
-10 64 -16 90 -6 26 -13 62 -16 78 -9 57 -64 261 -109 405 -79 251 -217 607
-324 837 -23 48 -56 120 -73 158 -44 100 -304 612 -367 725 -29 52 -69 124
-88 160 -220 410 -708 1193 -1097 1759 -66 96 -140 204 -165 240 -61 89 -133
194 -143 206 -18 23 -116 159 -162 225 -27 39 -55 76 -60 83 -6 7 -26 33 -43
60 -18 26 -34 47 -36 47 -1 0 -71 -98 -156 -217z m1456 -2910 c105 -35 155
-85 246 -243 146 -256 297 -595 401 -900 30 -88 101 -327 112 -380 42 -188 55
-254 60 -295 4 -27 8 -58 11 -67 3 -9 7 -41 10 -70 3 -29 7 -66 10 -83 9 -53
13 -518 4 -570 -4 -27 -11 -74 -14 -104 -4 -30 -9 -64 -11 -75 -3 -12 -7 -32
-9 -46 -14 -82 -80 -322 -95 -345 -4 -5 -13 -28 -20 -50 -38 -114 -189 -382
-277 -494 -119 -150 -305 -334 -374 -371 -39 -21 -122 -38 -176 -36 -157 7
-292 123 -320 277 -12 65 -11 78 3 144 18 78 55 133 150 225 226 218 357 454
423 758 30 136 35 204 34 417 -1 266 -41 506 -132 810 -98 323 -205 572 -398
925 -40 74 -76 153 -79 175 -4 22 -8 48 -9 59 -1 10 1 41 5 68 32 202 252 336
445 271z"/>
<path d="M3880 9641 c-334 -112 -663 -259 -905 -406 -40 -25 -76 -45 -79 -45
-27 0 -513 -350 -631 -455 -16 -14 -61 -54 -100 -88 -115 -102 -350 -341 -439
-448 -64 -77 -214 -266 -236 -299 -13 -19 -27 -37 -30 -40 -10 -9 -106 -152
-160 -240 -275 -441 -470 -900 -594 -1400 -25 -102 -48 -201 -50 -220 -3 -19
-8 -46 -11 -60 -6 -29 -11 -56 -20 -120 -4 -25 -9 -58 -12 -75 -7 -44 -11 -72
-18 -145 -4 -36 -9 -78 -11 -95 -21 -168 -21 -750 0 -875 3 -14 7 -52 10 -85
11 -115 34 -277 51 -355 3 -14 7 -38 10 -55 38 -230 171 -672 270 -900 7 -16
33 -77 59 -135 107 -248 301 -587 464 -815 76 -106 183 -245 226 -296 17 -19
58 -66 91 -105 83 -97 386 -396 479 -474 43 -36 84 -70 90 -76 85 -80 469
-344 656 -451 100 -58 382 -203 393 -203 3 0 38 -15 79 -34 262 -120 733 -267
998 -311 19 -3 42 -8 50 -10 8 -2 35 -7 60 -10 25 -3 52 -8 60 -10 8 -2 40 -7
70 -10 30 -3 66 -8 80 -10 14 -2 48 -7 75 -9 28 -3 70 -8 95 -11 154 -16 561
-22 720 -10 41 3 108 8 147 11 40 3 81 7 90 8 10 2 61 9 113 16 52 6 131 18
175 26 44 8 96 17 115 20 28 5 142 30 300 68 96 23 364 111 500 163 225 87
518 227 677 324 36 21 67 39 69 39 7 0 240 153 324 213 369 265 726 607 1001
962 47 61 108 142 135 180 27 39 52 72 56 73 5 2 8 8 8 13 0 6 8 22 19 37 92
133 187 296 285 491 73 146 104 216 201 451 64 154 181 562 220 765 3 17 8 41
10 55 13 61 44 271 50 330 4 36 8 72 10 81 25 130 25 800 0 974 -2 17 -6 53
-9 80 -3 28 -8 61 -10 75 -5 29 -16 104 -21 140 -5 45 -36 204 -50 260 -8 30
-16 66 -19 80 -16 93 -102 372 -167 547 -207 557 -508 1060 -908 1517 -68 77
-367 374 -446 442 -89 77 -249 205 -340 270 -110 80 -283 194 -295 194 -5 0
-10 5 -10 10 0 6 -5 10 -11 10 -6 0 -24 9 -40 21 -87 62 -510 270 -694 342
-163 64 -416 149 -423 143 -2 -3 50 -93 117 -200 121 -196 342 -562 389 -646
24 -44 126 -222 183 -324 31 -55 104 -189 194 -356 67 -125 330 -652 364 -730
13 -30 46 -102 73 -159 26 -57 48 -105 48 -108 0 -2 8 -23 19 -46 47 -104 62
-141 115 -277 83 -209 122 -317 187 -510 23 -69 59 -177 80 -240 60 -175 114
-404 134 -569 4 -30 8 -63 10 -73 10 -51 19 -229 19 -373 0 -149 -11 -382 -19
-395 -2 -3 -6 -30 -9 -60 -3 -30 -10 -77 -16 -105 -5 -27 -11 -63 -14 -80 -3
-16 -7 -41 -10 -55 -214 -990 -864 -1822 -1770 -2265 -151 -73 -407 -177 -471
-190 -5 -1 -41 -11 -80 -23 -152 -45 -392 -91 -580 -109 -104 -10 -528 -10
-625 0 -102 11 -205 25 -265 37 -27 5 -61 11 -75 14 -122 20 -400 103 -548
162 -465 186 -870 462 -1202 820 -103 111 -127 140 -210 249 -319 420 -529
898 -621 1410 -11 66 -22 134 -24 150 -1 17 -5 55 -9 85 -40 365 -16 711 79
1140 20 93 116 380 154 464 16 33 40 94 55 134 90 250 262 662 381 909 36 75
65 137 65 140 0 10 263 527 337 663 17 30 61 111 98 180 104 192 125 230 167
299 21 34 38 65 38 67 0 5 195 338 280 479 40 66 81 134 90 150 10 17 63 103
118 193 56 89 96 162 89 161 -7 0 -91 -26 -187 -58z"/>
</g>
</svg>
