<svg xmlns="http://www.w3.org/2000/svg" width="670.644" height="255.371" viewBox="0 0 670.644 255.371"><g transform="translate(4621 -17298)"><g transform="translate(-4621 17347)"><path d="M616.067,176.772c-.567-2.127-26.173,2.873-22.558,2.956l44.021.983c2.972.063,5.542-1.227,5.92-2.984l14.926-90.351c.416-1.9-19.46-11.5-19.46-11.5-1.877-.132-41.54,0-41.54,0-1.852-2.043,49.437-3.633,52.976-3.751,10.908-.37,10.908-10.563,11.966-14.935,2.393-9.894,5.063-20.9,7.872-32.52.428-1.987-16.1-9.113-19.46-9.2L440.274,11.09a8.025,8.025,0,0,0-4.56,1.15L412.69,27.706c-4.333,2.908-22.143,4.379-19.586.809l9.925-10.4c1.574-2.2-7.545-8.7-11.563-8.806L7.71,0C4.12-.087,1.261,1.782,1.778,3.9l8.54,41.124s1.02,7.516,7.431,7.468l58.04,4.218a7.215,7.215,0,0,1,3.968,1.395L82.7,60.533c2.872,2.364-.239,5.641-5.126,5.411L23.152,63.329c-3.678-.174-6.676,1.722-6.159,3.891l13.59,55.613,9.837,9.134c28.692,1.862,50.457,2.908,52.964,3.131l-1.209,7.677c2.456.223,4.408,1.36,4.811,2.817.592,2.085-2.116,3.981-5.668,3.981h-47.9c-4.862,0,3.073,34.974,3.073,34.974S57.361,201.1,66.656,205.1l101.607,1.276a9.1,9.1,0,0,0,2.292-.286l10.3-2.67a9.49,9.49,0,0,1,2.2-.286c169.181-1.68,154.7-3.361,156.825-2.573,11.134,4.156,11.374,5.271,13.452,5.271l278.862.544c2.9,0,5.328-1.276,5.706-2.984l1.134-5.278c.4-1.813-22.974-21.336-22.974-21.336Z" transform="translate(0.446 0)" fill="#662f14"/><path d="M569.633,169.312l-.932-3.3c-.554-1.917,2.2-3.64,5.718-3.563l42.724.886c2.884.056,5.378-1.109,5.744-2.7l18.981-81.767c.4-1.708-1.814-3.27-4.9-3.458L604.661,73.4a6.746,6.746,0,0,1-4.3-1.611l-.844-.865c-1.864-1.924.353-4.281,4.257-4.532l37.295-2.433c2.544-.16,4.56-1.269,4.874-2.671l9.85-42.414c.416-1.792-2.028-3.4-5.29-3.479L425.68,10.023a8.259,8.259,0,0,0-4.421,1.039L398.9,25.042c-4.194,2.629-11.789-.035-9.308-3.256l6.386-8.29c1.524-1.98-1.008-4.2-4.9-4.3L5.825,0C2.336-.08-.435,1.614.057,3.525L10.725,44.817c.353,1.388,2.343,2.461,4.837,2.636L71.9,51.259a9.035,9.035,0,0,1,4.282,1.192l2.431,2.259c2.784,2.141-.227,5.1-4.975,4.888L20.814,57.242c-3.577-.16-6.487,1.555-5.983,3.514l15.832,61.3c.34,1.353,2.255,2.419,4.685,2.622l52.46,4.372c2.393.2,4.27,1.227,4.673,2.552.567,1.883-2.053,3.591-5.5,3.591H40.488c-3.4,0-6.008,1.666-5.529,3.528l11.663,45.161c.39,1.52,2.746,2.65,5.517,2.65H161.656a9.338,9.338,0,0,0,2.229-.258l10-2.413a9.729,9.729,0,0,1,2.141-.258l153.79-1.422a9.224,9.224,0,0,1,3.061.467l9.824,3.41a9.054,9.054,0,0,0,2.973.474H611.966c2.809,0,5.177-1.15,5.542-2.7l1.108-4.762c.378-1.646-1.65-3.166-4.6-3.444l-39.8-3.744c-2.368-.223-4.207-1.255-4.585-2.566Z" transform="translate(0 0)" fill="#87371c"/><path d="M172.828,12.91c34.461-2,65.118-4.644,94.2-6.673L190.008,4.4C146.957,6.865,95.24,7.276,12.828.171L5.825,0C2.336-.08-.435,1.614.057,3.525l.466,1.8.2.021C50.967,10.7,122.056,16.48,172.828,12.91Z" transform="translate(0 0)" fill="#9d4a25"/><path d="M439.98,17.036l-90.435-2.161c3.753.4,7.62.8,11.651,1.206,32.181,3.131,53.757,4.316,78.784.955Z" transform="translate(90.721 -4.503)" fill="#722915"/><path d="M273.031,24.106c33.705-2.385,77.273-5.383,112.477-3.744l8.2.4,1.537-1.987a2.93,2.93,0,0,0,.315-.53c-30.783-1.75-65.307-.641-123.082,3.528-32.471,2.2-24.611,2.155-87.2,5.857-42.446,2.385-116.1.683-182.444-5.209l.542,2.085c124.858,11.812,208.177,3.953,269.655-.4Z" transform="translate(0.736 -5.283)" fill="#9d4a25"/><path d="M570.21,23.268a6.966,6.966,0,0,0-4.635-1.59L562.25,21.6C502.611,30.91,441.5,36.063,388.081,28.818c-21.84-3.619-39.6-6.317-57.221-8.053l-3.615,2.259C385.637,27.772,416.924,47.749,570.21,23.268Z" transform="translate(84.933 -6.286)" fill="#722915"/><path d="M258.354,71.384c-27.722-11.477-169.37-13.1-250.7-13.06l1.083,4.149c.353,1.388,2.343,2.461,4.837,2.636l56.339,3.807A9.035,9.035,0,0,1,74.2,70.108l2.431,2.259c2.784,2.141-.227,5.1-4.975,4.888L18.827,74.9c-2.418-.1-4.522.641-5.492,1.743C113.33,79.563,286.618,83.091,258.354,71.384Z" transform="translate(1.987 -17.657)" fill="#9d4a25"/><path d="M287.821,50.622c31.816-2.7,221.15,3.814,361.223,2.252l2.7-11.581L6.175,39.075S239.719,54.694,287.821,50.622Z" transform="translate(1.603 -11.83)" fill="#9d4a25"/><path d="M396.646,76.847c7.557,5.069,58.266,8.353,117.074,10.48l24.649-1.611c2.544-.16,4.56-1.269,4.874-2.67l1.977-8.514C468.931,71.506,386,69.714,396.646,76.847Z" transform="translate(102.705 -21.76)" fill="#722915"/><path d="M149.4,117.811c-32.383-.39-78.18-1.318-132.352,4.246l1.108,4.281c20.4-1.513,40.671-2.419,58.543-2.824,51.956-.509,77.348-.035,143.462,5.355,48.669.453,257.11,2.4,413.041,3.856l1.222-5.222c-140.124-3.424-282.187-5.083-413.393-5.738-7.494-.558-51.037-3.758-71.63-3.953Z" transform="translate(4.424 -35.572)" fill="#9d4a25"/><path d="M314.908,92.131c-15.2-.251-181.134,4.093-300.173,10.926l.794,3.1c391.5-8.681,259.641-8.653,478.3,3.73,32.924,1.862,96.292,5.264,128.763,2.726.189-.021,8.817-.879,14.434-1.408l1.02-4.442a1.674,1.674,0,0,0-.013-.865c-5.655.356-11.235.781-16.853,1.255C561.085,110.866,379.321,92.911,314.908,92.131Z" transform="translate(3.824 -27.888)" fill="#9d4a25"/><path d="M159.279,142.209c.265-.028-12.117,1.653-41.968,5.313.214-.021-39.159,4.755-94.906,6.561l2.28,8.806a751.823,751.823,0,0,0,140.741-7.112c77.9-10.452,299.3-3.047,461.369,4.435l1.738-7.461c-169.647-12.92-380.469-22.061-469.254-10.543Z" transform="translate(5.815 -41.459)" fill="#9d4a25"/><path d="M493.822,198.9c-.088.014-19.964,2.461-35.645,3.214l-11.9.314c-47.359.418-93.7-8.507-143.877-11.4-39.2-2.4-180.3.028-274.265,3.612a1.858,1.858,0,0,0-.365,1.618l.453,1.736c257.337-6.554,267.967-4.825,321.447.858,57.385,6.059,78.18,8.5,121.18,5.69,13.616-.732,26.9-4.944,72.159-3.716,23.188.635,49.147,2.524,75.522,5.146l.579-2.5c-45.419-4.783-91.657-7.516-125.286-4.574Z" transform="translate(7.192 -57.541)" fill="#9d4a25"/><path d="M397.775,202.735" transform="translate(103.238 -61.376)" fill="#ce7f42"/><path d="M464.21,185.4c-12.469-6.108-82.664-7.635-82.664-7.635s-131.849-8.66-122.667,1.018,217.787,12.732,205.33,6.617Z" transform="translate(67.07 -52.739)" fill="#722915"/><path d="M526.128,219.35c-45.923,2.036-199.423-10.187-222.384-10.187s-64.942,11.2-102.993,12.223-30.834-10.187-57.737-12.223c-13.263-1-64.526,1.088-113.069,3.465l8.9,34.493c.39,1.52,2.746,2.65,5.517,2.65H153.884a9.339,9.339,0,0,0,2.229-.258l10-2.413a9.729,9.729,0,0,1,2.141-.258l153.79-1.422a9.224,9.224,0,0,1,3.061.467l9.824,3.41a9.055,9.055,0,0,0,2.973.474H604.194c2.809,0,5.177-1.15,5.542-2.7l1.108-4.762c.378-1.646-1.65-3.166-4.6-3.444l-39.8-3.744c-2.368-.223-4.207-1.255-4.585-2.566l-.932-3.3c-.554-1.917,2.2-3.64,5.718-3.563l42.724.885a7.6,7.6,0,0,0,4.837-1.367c-36.086-3.807-70.622-6.638-88.08-5.864Z" transform="translate(7.772 -63.244)" fill="#9d4a25"/></g><g transform="translate(-4072.634 17298)"><path d="M28.174,221.97a2.868,2.868,0,0,0-.952.105c-.922.313-1.092.75-.536,1.553a4.713,4.713,0,0,0,3.443,2.217,1.426,1.426,0,0,0,1.395-.607c.3-.443-.021-.8-.258-1.122a7.36,7.36,0,0,0-1.783-1.742A1.8,1.8,0,0,0,28.174,221.97ZM19.2,220.707a1.225,1.225,0,0,0-1.187.672,1.359,1.359,0,0,0,.237,1.484,11.11,11.11,0,0,0,2.863,2.591,5.962,5.962,0,0,0,1.847.946,1.323,1.323,0,0,0,1.432-.473.936.936,0,0,0,.021-1.112,6.573,6.573,0,0,0-1.571-1.927c-.822-.635-1.707-1.185-2.535-1.811A2.236,2.236,0,0,0,19.2,220.707ZM16.861,214.9a4.561,4.561,0,0,0-.8-2.309c-.491-1.007-1.4-1.721-1.86-2.757a13.83,13.83,0,0,0-1.877-3.068,1.759,1.759,0,0,0-2.381-.605,1.855,1.855,0,0,0-.7,2.087,18.466,18.466,0,0,0,.91,3.053,13.145,13.145,0,0,0,3.168,4.676,2.359,2.359,0,0,0,2.516.54A1.689,1.689,0,0,0,16.861,214.9ZM3.413,161.347l.045-.263a20.181,20.181,0,0,0,1.382-2.423,5.645,5.645,0,0,0,.848-1.776h0a3.253,3.253,0,0,0,.815-1.517,19.216,19.216,0,0,0,.9-5.19c.9-.219,1.808-.4,2.689-.671a2.563,2.563,0,0,1,2.02.118c-.187.738-.4,1.471-.557,2.217-.417,1.988-.758,3.993-1.2,5.977a33.035,33.035,0,0,0-.739,5.556c-.138,2.717.039,5.436.154,8.15a22.615,22.615,0,0,0,.139,2.494c.282,1.822.57,3.636,1.034,5.434.446,1.727,1.052,3.4,1.572,5.1.452,1.473,1,2.929,1.559,4.373.567,1.465,1.133,2.936,1.807,4.354.565,1.189,1.281,2.305,1.936,3.451a16.687,16.687,0,0,0,1.487,2.494c.716.857,1.293,1.807,1.928,2.7a31.48,31.48,0,0,0,3.937,4.735,61.652,61.652,0,0,0,5.017,4.031,49.611,49.611,0,0,0,5.918,3.736c2.964,1.669,6.047,3.129,9.161,4.516a55.7,55.7,0,0,0,5.61,2.232c1.826.588,3.648,1.187,5.472,1.784a46.279,46.279,0,0,0,6.809,1.58c2.118.353,4.244.637,6.369.935a13.446,13.446,0,0,1,4.255,1.128,23.935,23.935,0,0,1,2.736,1.627,19.91,19.91,0,0,1,4.683,4.18,5.2,5.2,0,0,0,1.837,1.849c-.076.235-.155.471-.228.708a3.354,3.354,0,0,0-.318,2.364,43.017,43.017,0,0,1-4.779,1.778c-.589.168-1.259.027-1.774.454l-.69.029a9.159,9.159,0,0,0-1.18.063,49.759,49.759,0,0,1-6.255.721c-2.828.158-5.666.078-8.492.309h0a3.978,3.978,0,0,0-1.566-.223,30.546,30.546,0,0,1-4.059-.387c-1.106-.105-2.187-.471-3.315-.485-.186-.006-.372-.015-.558-.023-1.242-.433-2.561-.5-3.829-.817-1.091-.271-2.18-.563-3.285-.754-.821-.141-1.519-.691-2.382-.649a4.154,4.154,0,0,1-1.146-.288.224.224,0,0,0-.2-.235c-1.142-.294-2.237-.731-3.353-1.105a6.58,6.58,0,0,0-2-.622h0a4.653,4.653,0,0,0-1.958-.834v0c-.04-.156-.17-.2-.3-.248a34.462,34.462,0,0,1-3.6-1.618,7.7,7.7,0,0,0-1.955-.941l0,0a2.19,2.19,0,0,0-1.41-.826q-.431-.277-.862-.557c-.028-.082-.031-.2-.089-.24q-1.615-1.006-3.242-1.994l0,0a2.225,2.225,0,0,0-1.121-.826l-.009-.006c-.313-.351-.56-.79-1.1-.845h0c-.042-.231-.25-.338-.4-.456a21.93,21.93,0,0,1-5.231-5.6c-.612-.975-1.275-1.917-1.914-2.875l0-.006c-.8-1.641-1.554-3.31-2.511-4.873l-.153-.437-1.572-3.2a.788.788,0,0,0-.5-.994l-.019.006a.962.962,0,0,0-.036-.34A35.461,35.461,0,0,1,4.1,203.74a68.231,68.231,0,0,1-2.38-7.8,4.692,4.692,0,0,0-.506-1.767L1.2,193.76a3.412,3.412,0,0,0-.049-.622A36.476,36.476,0,0,1,.16,186.3,85.2,85.2,0,0,1,.4,173c.01-.116.04-.229.059-.343a20.563,20.563,0,0,0,.48-3.482l.273-1.265a13.053,13.053,0,0,0,.849-3.2v0c.38-.164.244-.561.365-.841.358-.828.661-1.681.985-2.526Z" transform="translate(0 -117.969)" fill="#ffc53e"/><path d="M156.991,219.485a4.488,4.488,0,0,0-1.133.153,29.233,29.233,0,0,0-3.571.691c-.635.1-1.278.128-1.912.248-1.442.271-2.888.557-4.346.7-2.286.219-4.585.048-6.879.046a24.324,24.324,0,0,0-4.034-1.469c-1.179-.326-2.332-.748-3.516-1.055-3.267-.843-6.563-1.568-9.845-2.349-2.043-.485-4.046-1.145-6.055-1.767-1.676-.517-3.342-1.074-5-1.648-2.029-.7-4.078-1.345-6.061-2.192a26.863,26.863,0,0,1-4.047-1.816,35.9,35.9,0,0,1-4.653-3.14c-.639-.565-1.282-1.126-1.915-1.692-.656-.586-1.463-1.047-2.1-1.669-2.114-2.059-4.211-4.14-6.2-6.325a25.43,25.43,0,0,1-1.995-2.4,56.971,56.971,0,0,1-4.344-7.607,65.2,65.2,0,0,1-2.929-7.109c-.7-1.961-1.09-4.018-1.677-6.01a46.507,46.507,0,0,1-1.317-6.3,37.594,37.594,0,0,0-1.085-6.609c.2-.12.162-.322.166-.5.075-3.8.118-7.605.054-11.409-.015-.37.168-.786-.245-1.065l.538-2.15a2.234,2.234,0,0,1,2.376-1.111,20.721,20.721,0,0,0,.265,3.526A23.505,23.505,0,0,0,76.7,152.79c.66,1.818,1.31,3.638,1.97,5.455.561,1.545,1.031,3.135,1.72,4.621.9,1.938,1.947,3.81,2.983,5.68,1.636,2.955,3.247,5.924,5.076,8.769a36.95,36.95,0,0,0,5.473,6.689c1.671,1.61,3.48,3.072,5.066,4.772a17.358,17.358,0,0,0,2.188,2.04c2.823,2.135,5.481,4.476,8.335,6.576a44.7,44.7,0,0,0,6.788,4.161,57.087,57.087,0,0,0,6.96,2.759c1.271.429,2.47,1.086,3.757,1.446,2.945.82,5.76,2,8.636,3a46.782,46.782,0,0,0,5.116,1.507c2.119.481,4.268.784,6.412,1.118,1.6.248,3.163.647,4.772.855a60.7,60.7,0,0,0,8.99.7c.815-.017,1.755-.21,2.444.53a8.764,8.764,0,0,1,.908,1.973c-.014.313-.355.494-.333.822h0a8.227,8.227,0,0,0-1.389,1.122l0,0c-.29-.048-.46.183-.68.3a6.16,6.16,0,0,1-1.148.595c-1.077.3-2.2.4-3.257.8-.232.09-.42.143-.486.4Z" transform="translate(-57.15 -113.664)" fill="#ffc53e"/><path d="M175.523,202.849l-.281.017a3.236,3.236,0,0,0-.76.05,26.231,26.231,0,0,1-6.317.977c-2.934.164-5.868.246-8.782.66a4.5,4.5,0,0,1-.475-.1c-2.068-.666-4.115-1.412-6.207-1.992a78.011,78.011,0,0,1-8.69-2.835,57.939,57.939,0,0,1-5.644-2.631c-1.42-.767-2.738-1.7-4.086-2.57a40.581,40.581,0,0,1-4.172-3.1c-.683-.578-1.32-1.219-1.984-1.788-.7-.6-1.476-1.149-2.155-1.8a36.28,36.28,0,0,1-2.434-2.852c-1.6-1.891-3.244-3.745-4.791-5.678a36.161,36.161,0,0,1-4.205-6.183c-1.678-3.31-3.576-6.51-5.315-9.791a24.616,24.616,0,0,0-4.639-6.367,5.873,5.873,0,0,1-1.334-1.938,22.76,22.76,0,0,1-1.758-8.5c.319-.485.555-1.065,1.259-1.116.894,1.923,2.008,3.726,3.01,5.59a21.952,21.952,0,0,0,2,3.152,11.548,11.548,0,0,0,1.465,1.917,52.134,52.134,0,0,1,4.422,3.806c1.264,1.355,2.42,2.82,3.746,4.11,1.456,1.416,2.919,2.831,4.412,4.211a59.845,59.845,0,0,0,7.46,5.884c2.022,1.351,3.9,2.9,5.815,4.388a60.584,60.584,0,0,0,7.4,4.4,38.2,38.2,0,0,0,8.088,3.276c3.184.95,6.4,1.8,9.64,2.583a49.043,49.043,0,0,0,9.315,1.311,70.445,70.445,0,0,0,7.716.109,52.189,52.189,0,0,0,8.137-1.259,70.348,70.348,0,0,0,8.061-2.627,36.276,36.276,0,0,1,6.377-1.614,13.681,13.681,0,0,1,.863,1.906c.165.41.2.9.64,1.168a2.325,2.325,0,0,1-.372,1.009,10.283,10.283,0,0,0-1.121,1.925h0c-.249.055-.35.284-.51.439-1.054,1.017-1.821,2.3-2.976,3.228a28.7,28.7,0,0,0-2.484,1.929c-.2.153-.4.309-.6.464a7.516,7.516,0,0,0-2.472,1.49l-.457.277a1.552,1.552,0,0,0-.543.069,28.661,28.661,0,0,1-2.927,1.192,8.769,8.769,0,0,0-2.261.967l-.277.023a3.639,3.639,0,0,0-1.526.542l-.006,0a3.872,3.872,0,0,0-.754.078,37.834,37.834,0,0,1-4.656,1.129,4.088,4.088,0,0,0-1.852.464Z" transform="translate(-80.166 -114.769)" fill="#ffc53e"/><path d="M142.824,62.8c.139-.011.277-.023.416-.036.526-.2,1.2-.061,1.554-.656.483.132.819-.3,1.26-.328a3.562,3.562,0,0,0,1.934-.66h0a13.977,13.977,0,0,0,3.12-1.3c.373-.187.829-.248,1.085-.639l0,0c.227-.015.468,0,.556-.288l0,0a8.081,8.081,0,0,0,3.078-1.954l0,0c.29,0,.385-.168.378-.428a1.272,1.272,0,0,1,.726-.452,8.473,8.473,0,0,0,1.927-1.93l.329-.392a11.341,11.341,0,0,0,1.93-2.118.068.068,0,0,0,.048-.065,4.042,4.042,0,0,0,1.088-1.323l0,0a.277.277,0,0,0,.274-.287c.365-.06.5-.431.659-.646a4.945,4.945,0,0,0,.887-4.384l.023-.529c.572-.065.674.414.844.769.554,1.162,1.084,2.336,1.617,3.509.161.353.292.72.452,1.074a21.905,21.905,0,0,1,1.384,4.679l-.542,2.793a1.215,1.215,0,0,0-.157.834,9.893,9.893,0,0,0-1.541,2.512v0c-.562.351-.8.981-1.251,1.433-.081-.008-.118.029-.112.109a2.1,2.1,0,0,0-.712.7l-.015.008-.131.128c-2.029,1.52-3.9,3.24-6.039,4.625a15.622,15.622,0,0,1-7.5,2.732,61.147,61.147,0,0,1-10.578-.3c-.969-.107-1.944-.143-2.906-.284-2.027-.294-4.054-.58-6.091-.8-1.472-.158-2.93.3-4.409.057-.424-.07-1.121-.225-1.245.265-.107.42.567.63.962.811a40.329,40.329,0,0,0,4.609,1.8c2.112.662,4.185,1.45,6.307,2.072,2.631.771,5.234,1.633,7.869,2.4,2.331.675,4.665,1.337,7.041,1.807a36.921,36.921,0,0,0,8.37.717c1.7-.053,3.389-.105,5.085-.126a2.472,2.472,0,0,0,.278-.023c2.253-.269,4.523-.4,6.758-.809,1.182-.219,2.366-.424,3.546-.651,1.221-.237,2.45-.443,3.652-.757.806-.21,1.643-.162,2.436-.4.5-.057,1.009-.105,1.512-.172a21.027,21.027,0,0,1,5.811-.086c.91.134,1.822.258,2.733.387a.265.265,0,0,0,.119.038,4.6,4.6,0,0,1-.2,1.992c-.583,1.914-3.382,4.165-5.532,3.875a20.743,20.743,0,0,0-2.505-.017,1.229,1.229,0,0,0-.847.244,6.729,6.729,0,0,0-2.632.3l-.139.013a2.492,2.492,0,0,0-1.4.265,9.082,9.082,0,0,0-2.309.42c-1.494.307-2.974.685-4.471.971a23.142,23.142,0,0,1-6.087.309c-2.636-.2-5.233-.67-7.858-.939-1.38-.139-2.757-.315-4.135-.475-.059-.1-.11-.225-.243-.219-.985.061-1.923-.343-3.053-.313a4.975,4.975,0,0,0,2.165.828c1.864.708,3.759,1.33,5.665,1.914a21.276,21.276,0,0,0,2.783.8c2.057.336,4.111.691,6.185.931a81.64,81.64,0,0,0,10.351.614,52.407,52.407,0,0,0,7.438-.389c1.427-.038,2.836-.328,4.267-.315a.561.561,0,0,0,.49-.214l0,0a8.28,8.28,0,0,0,2.788-.847v0a13.71,13.71,0,0,0,2.92-.847l.147-.017a8.617,8.617,0,0,0,2.447-.668,8.063,8.063,0,0,1,6.8.683,2.465,2.465,0,0,1-.071.683c-.5,1.229-.653,2.4.435,3.423a1.146,1.146,0,0,1,.173.366,6.1,6.1,0,0,0-2.58.443c-1.676.6-3.34,1.257-5.051,1.738-3.561,1-7.144,1.925-10.767,2.694-2.779.588-5.584,1.053-8.382,1.492a21.457,21.457,0,0,1-7.257-.427c-1.952-.37-3.875-.893-5.816-1.328a26.95,26.95,0,0,1-4.565-1.391c-1.452-.612-2.871-1.324-4.316-1.965-2.006-.891-4.029-1.748-6.056-2.591-2.244-.933-4.349-2.148-6.487-3.282a94.614,94.614,0,0,1-8.272-4.638c-1.384-.923-2.847-1.738-4.244-2.639-1.608-1.038-3.084-2.286-4.587-3.48-2.645-2.1-5.489-3.942-8-6.218-.668-.605-1.283-1.267-1.979-1.843a12.318,12.318,0,0,1-2.429-2.82,6.852,6.852,0,0,1-.276-2.763c.526.206.628.847,1.115,1.093h0a.892.892,0,0,0,.558.559l.007,0c.07.277.3.387.525.506.4.41.99.025,1.412.34a18.5,18.5,0,0,0,4.485.82c.046,0,.092.008.139.011a.757.757,0,0,0,.56.223c1.182.075,2.367.193,3.544.241a68.493,68.493,0,0,0,11.328-.513.787.787,0,0,0,.489-.231c.046,0,.092-.006.138-.011a13.97,13.97,0,0,0,3.769-.828Z" transform="translate(-90.63 -35.061)" fill="#efb120"/><path d="M210.837,41.872a.376.376,0,0,0-.028-.116c-.391-.727-.912-1.374-1.251-2.133a.384.384,0,0,0-.49-.168.356.356,0,0,0-.259.437,6.091,6.091,0,0,0,1.282,2.265.422.422,0,0,0,.508.113.363.363,0,0,0,.238-.4ZM237.62,21.39c.061-.331-.129-.435-.254-.556a16.486,16.486,0,0,1-1.908-1.9.936.936,0,0,0-.261-.219.347.347,0,0,0-.5.043.369.369,0,0,0,0,.508,17,17,0,0,0,2.217,2.191A.458.458,0,0,0,237.62,21.39Zm-.662,3.731a.906.906,0,0,0-.5-.723,1.158,1.158,0,0,1-.527-.44,7.162,7.162,0,0,0-1.35-1.384c-.134-.095-.258-.22-.428-.079-.146.121-.3.258-.227.468a1.855,1.855,0,0,0,.314.687c.588.668,1.384,1.082,2.021,1.694.253.244.564.163.7-.223Zm-13.985,7.331c-.239.021-.356.065-.364.2-.017.292-.135.614.1.866a11.917,11.917,0,0,0,2.893,2.31.267.267,0,0,0,.374-.03.246.246,0,0,0,.009-.319,1.328,1.328,0,0,0-.282-.389,21.007,21.007,0,0,1-2.441-2.383C223.145,32.6,223.053,32.443,222.973,32.451Zm-8.039,8.366c.1-.015.33.038.363-.223.024-.2.1-.431-.128-.563a5.07,5.07,0,0,1-1.811-2.253c-.156-.3-.351-.531-.7-.408-.4.143-.257.46-.169.759.322,1.091,1.251,1.719,1.921,2.543.109.134.278.156.519.145Zm18.755-13.088c.2-.1.46.068.58-.2s-.082-.394-.231-.529a4.472,4.472,0,0,1-.849-1.251,6.158,6.158,0,0,0-1.1-1.251.347.347,0,0,0-.436-.106c-.155.076-.113.233-.139.366-.125.642.306,1.108.557,1.607A2.437,2.437,0,0,0,233.689,27.729ZM217.28,38.949c.374-.128.658.256.811-.147.124-.326-.119-.525-.326-.7a2.323,2.323,0,0,1-.654-.956c-.233-.639-.96-.759-1.221-1.32-.073-.155-.106-.309-.316-.288-.265.025-.224.233-.257.414-.146.811.434,1.326.823,1.883C216.455,38.283,216.561,39.1,217.28,38.949ZM198.553,46.84c.1-.912-.638-1.486-.747-2.3a3.972,3.972,0,0,0-.652-1.345.784.784,0,0,0-.957-.364c-.422.17-.262.582-.132.906.224.555.444,1.118.7,1.652a4.786,4.786,0,0,0,.907,1.744c.2.179.32.49.667.37.383-.132.156-.477.218-.666Zm46.673-34.29a3.207,3.207,0,0,0-.65,1.343,34.779,34.779,0,0,1-2.357,4.878c-1.069,1.913-2.113,3.83-3.331,5.662a37.877,37.877,0,0,1-4.363,5.4c-1.219,1.261-2.5,2.461-3.8,3.646a68.01,68.01,0,0,1-6.593,4.964c-.669.479-1.387.891-2.063,1.36a40.561,40.561,0,0,1-4.191,2.358,15.059,15.059,0,0,1-1.892.75c-1.813.662-3.6,1.393-5.4,2.078-1.092.416-2.223.74-3.281,1.227a2.6,2.6,0,0,0-1.194.87,2.632,2.632,0,0,0,.705-.008c1.075-.364,2.193-.546,3.286-.828a38.488,38.488,0,0,0,4.87-1.885c1.608-.658,3.172-1.427,4.757-2.143a51.074,51.074,0,0,0,5.543-2.782,33.252,33.252,0,0,0,4.805-3.73c1.379-1.229,2.753-2.469,4.085-3.751a26.691,26.691,0,0,0,3.17-3.3,54.9,54.9,0,0,0,4.684-7.809,41.613,41.613,0,0,0,1.994-3.985,17.22,17.22,0,0,0,1.22-4.31ZM167.613,40.376a.681.681,0,0,0,.676.448,6.879,6.879,0,0,1,3.364.584c.535.25,1.2.042,1.591.322,1.057.752,2.286.437,3.411.725a43.709,43.709,0,0,0,4.646.717,26.009,26.009,0,0,0,5.771.105c1.908-.153,3.821-.324,5.73-.481a35.043,35.043,0,0,0,5.283-.693c1.544-.37,3.075-.82,4.577-1.334,1.532-.523,3.1-.948,4.586-1.61,1.075-.481,2.1-1.053,3.152-1.572a15.594,15.594,0,0,0,3.273-2.022c.932-.792,1.913-1.526,2.908-2.219a33.952,33.952,0,0,0,4.064-2.938c.732-.689,1.555-1.282,2.339-1.915,1.006-.812,1.967-1.682,2.959-2.5q2.131-1.766,4.114-3.684c2.044-1.983,4.009-4.049,6.078-6,.9-.851,1.938-1.564,2.9-2.354.576-.472,1.174-.939,1.8-1.36.971-.653,1.939-1.309,2.889-1.992.253-.182.53-.439.238-.815-.257-.331-.558-.257-.872-.093a24.1,24.1,0,0,0-2.563,1.349,47.787,47.787,0,0,0-5.749,4.681c-.949.9-1.835,1.864-2.714,2.837-1.141,1.262-2.478,2.344-3.715,3.521-.744.708-1.446,1.477-2.223,2.129-.592.5-1.272.955-1.862,1.454-1.354,1.146-2.659,2.347-4.089,3.405-1.7,1.259-3.367,2.566-5.176,3.68-.463.284-.987.45-1.408.763a19.632,19.632,0,0,1-2.322,1.366c-.355.2-.6.568-1.018.641a6.221,6.221,0,0,0-1.934.8,17.531,17.531,0,0,1-2.834,1.345c-1.1.381-2.216.731-3.322,1.11-1.63.557-3.275,1.089-4.952,1.521a26.773,26.773,0,0,1-4.067.775c-1.545.151-3.05.515-4.59.685-1.467.162-2.923.416-4.4.483-1.387.063-2.769.063-4.156,0a12.524,12.524,0,0,1-1.922-.252c-1.873-.389-3.738-.836-5.627-1.124-1.434-.221-2.893-.282-4.32-.576A.573.573,0,0,0,167.613,40.376Zm53.574,6.174c-.793.242-1.63.193-2.436.4-1.2.313-2.431.519-3.652.757-1.18.227-2.365.433-3.546.651-2.236.414-4.506.54-6.758.809a2.47,2.47,0,0,1-.278.023c-1.7.021-3.39.074-5.085.126a36.921,36.921,0,0,1-8.37-.717c-2.376-.471-4.71-1.133-7.041-1.807-2.635-.763-5.238-1.624-7.869-2.4-2.122-.622-4.2-1.41-6.307-2.072a40.334,40.334,0,0,1-4.609-1.8c-.395-.181-1.069-.391-.962-.811.125-.49.821-.334,1.245-.265,1.479.246,2.937-.215,4.409-.057,2.037.219,4.064.5,6.091.8.961.141,1.937.177,2.905.284a61.147,61.147,0,0,0,10.578.3,15.622,15.622,0,0,0,7.5-2.732c2.143-1.385,4.01-3.106,6.039-4.625l.131-.128.015-.008c.231-.086.5-.071.683-.282a4.551,4.551,0,0,0,1.831-.83c.486.071.7-.391,1.072-.548.528-.225,1.044-.477,1.566-.717a.891.891,0,0,0,.7-.416v0a1.6,1.6,0,0,0,.976-.563h0c.178,0,.284-.082.29-.269v0a1.628,1.628,0,0,0,1.093-.577l.013,0a.3.3,0,0,0,.159-.263.624.624,0,0,0,.128-.005,2,2,0,0,0,.975-.562l.973-.7a.428.428,0,0,0,.293-.4l.009-.008c.418.023.617-.274.822-.563l0-.006a2.607,2.607,0,0,0,1.095-.844l.443-.436c.542-.157.84-.631,1.249-.961l0,0a.789.789,0,0,0,.571-.542,3.827,3.827,0,0,0,1.677-1.533v-.009l.142-.131c.453-.239.613-.8,1.1-1l.146-.129h0c.581-.188.869-.707,1.258-1.113l.134-.144a20.456,20.456,0,0,0,2.1-2.1l.137-.136a19.633,19.633,0,0,0,2.1-2.1l.137-.139c.332-.281.73-.506.834-.98a4.1,4.1,0,0,1,1.4-1.277l1.119-.957h0a3.115,3.115,0,0,0,1.124-.834c.191-.084.314-.3.55-.294.533-.4,1.239-.547,1.668-1.107.312-.314.76-.355,1.126-.561A1.449,1.449,0,0,0,236,8.707l.41-.036.133-.111v0l1.4-.558a.278.278,0,0,0,.283-.129c.232-.043.5.085.69-.159l.282,0c.475-.105,1-.032,1.4-.4v0c.674.06,1.28-.342,1.952-.291h.838l1.531.3v0c.185.331.563.369.844.556a.238.238,0,0,0,.111.013l1.28,1.395.124.277a1.486,1.486,0,0,0,.306.825q.008.14.016.28a7.272,7.272,0,0,0,.541,2.235q.008.143.016.286c-.014.154-.03.309.121.415q-.006,1.387-.012,2.775a.873.873,0,0,0-.257.716l-.009.28-.807,1.956-.033.414a2.6,2.6,0,0,0-.543.98.609.609,0,0,0-.015.136,17.877,17.877,0,0,0-1.554,2.927c-.182.208-.124.552-.4.706a3.207,3.207,0,0,0-.571.973l-.265.441c-.259.094-.29.308-.284.541h0a3.161,3.161,0,0,0-.837,1.259h0a.508.508,0,0,0-.29.55l0,0c-.366.013-.4.346-.551.569l-.836,1.253a1.09,1.09,0,0,0-.572.7,14.617,14.617,0,0,1-1.38,1.69c-.319.206-.464.559-.706.83l-1.816,2.087a37.525,37.525,0,0,0-2.673,2.652.265.265,0,0,0-.115.019.483.483,0,0,0-.286.269c-.184.191-.368.38-.552.57a3.4,3.4,0,0,0-1.4,1.107v0a1.421,1.421,0,0,0-.835.563,5.341,5.341,0,0,0-1.522,1.118,2.128,2.128,0,0,1-1.137.586c-.041.036-.082.071-.123.109a.592.592,0,0,0-.017.128,1.69,1.69,0,0,0-.978.569.7.7,0,0,0-.133.013,2.757,2.757,0,0,0-.98.548.435.435,0,0,0-.137.017c-.183-.011-.27.086-.283.261h0c-.2,0-.392.019-.436.273a.246.246,0,0,0-.261.147.926.926,0,0,0-.7.418v0a.47.47,0,0,0-.432.275c-.275.147-.445.49-.825.437a6.33,6.33,0,0,0-2.093,1.065l.559.042Z" transform="translate(-129.743 -5.539)" fill="#f6e5a8"/><path d="M204.541,180.345a36.277,36.277,0,0,0-6.377,1.614,70.342,70.342,0,0,1-8.061,2.627,52.185,52.185,0,0,1-8.137,1.259,70.441,70.441,0,0,1-7.716-.109,49.043,49.043,0,0,1-9.315-1.311c-3.235-.784-6.455-1.633-9.64-2.583a38.2,38.2,0,0,1-8.088-3.276,60.583,60.583,0,0,1-7.4-4.4c-1.918-1.488-3.793-3.037-5.815-4.388a59.848,59.848,0,0,1-7.46-5.884c-1.493-1.381-2.955-2.795-4.412-4.211-1.326-1.29-2.482-2.755-3.746-4.11a52.137,52.137,0,0,0-4.422-3.806,11.547,11.547,0,0,1-1.465-1.917,21.953,21.953,0,0,1-2-3.152c-1-1.864-2.116-3.667-3.01-5.59.229-.174.36-.542.668-.53.489.017.719-.313,1.006-.588a7.7,7.7,0,0,1,1.945,2.89,5.784,5.784,0,0,0,3.7,3.461,6.257,6.257,0,0,1,2.2,1.145c1.638,1.391,3.255,2.805,4.832,4.266.794.738,1.651,1.406,2.484,2.1,1.421,1.185,2.855,2.352,4.265,3.549,1.253,1.065,2.425,2.23,3.729,3.226,2.5,1.91,4.974,3.852,7.362,5.9a29.772,29.772,0,0,0,4.073,3.007c1.748,1.044,3.624,1.875,5.382,2.9a29.286,29.286,0,0,0,5.08,2.364c1.285.452,2.542.979,3.851,1.37a32.724,32.724,0,0,0,5.156,1.034,18.443,18.443,0,0,0,4.209.319c1.14-.116,2.271-.065,3.405-.107a8.242,8.242,0,0,0,1.045-.017,52.278,52.278,0,0,1,6.213-.5c3.148-.135,6.305-.118,9.454-.322a28.979,28.979,0,0,0,3.984-.3c1.06-.219,2.04-.731,3.119-.92.325-.057.716.113.983-.214a24.98,24.98,0,0,0,2.678-.191,9.654,9.654,0,0,1,4.065.651v.044l.039,0,.181.067c.106.244.346.286.557.372a2.847,2.847,0,0,1,.93.6c-.071,1.242-.447,2.524.451,3.648Z" transform="translate(-84.898 -110.567)" fill="#efb120"/><path d="M89.382,145.322a22.76,22.76,0,0,0,1.758,8.5,5.873,5.873,0,0,0,1.334,1.938,24.616,24.616,0,0,1,4.639,6.367c1.739,3.28,3.637,6.481,5.315,9.791a36.163,36.163,0,0,0,4.205,6.183c1.547,1.933,3.192,3.787,4.791,5.678a36.28,36.28,0,0,0,2.434,2.852c.679.654,1.453,1.2,2.155,1.8.664.57,1.3,1.21,1.984,1.788a40.577,40.577,0,0,0,4.172,3.1c1.349.874,2.666,1.8,4.086,2.57a57.936,57.936,0,0,0,5.644,2.631,78.011,78.011,0,0,0,8.69,2.835c2.092.58,4.139,1.326,6.207,1.992a4.508,4.508,0,0,0,.475.1,2.451,2.451,0,0,0,1.334.506c.087.011.175.019.262.027a5.359,5.359,0,0,0,1.685.672,23.548,23.548,0,0,0,6.01,1.536c.231.006.462.015.693.023a18.5,18.5,0,0,0,3.548.471c1.83.269,3.687.044,5.539.254,2.357.267,4.758.015,7.121.376a.153.153,0,0,0,.128.019l1.539,1.124c.039.063.078.126.117.187a11.235,11.235,0,0,1-.985,2.988,2.153,2.153,0,0,0,.021,1.839c-.688-.74-1.629-.546-2.444-.53a60.7,60.7,0,0,1-8.99-.7c-1.609-.208-3.176-.607-4.772-.855-2.144-.334-4.293-.637-6.412-1.118a46.782,46.782,0,0,1-5.116-1.507c-2.877-1-5.691-2.181-8.636-3-1.286-.359-2.486-1.017-3.757-1.446a57.081,57.081,0,0,1-6.96-2.759,44.705,44.705,0,0,1-6.788-4.161c-2.853-2.1-5.512-4.44-8.335-6.576a17.358,17.358,0,0,1-2.188-2.041c-1.586-1.7-3.394-3.163-5.066-4.772a36.951,36.951,0,0,1-5.473-6.689c-1.829-2.845-3.44-5.815-5.076-8.769-1.036-1.87-2.084-3.743-2.983-5.68-.69-1.486-1.159-3.077-1.72-4.621-.66-1.818-1.31-3.638-1.97-5.455a23.506,23.506,0,0,1-1.162-5.338,20.723,20.723,0,0,1-.265-3.526,1.583,1.583,0,0,1,1.406.523,3.208,3.208,0,0,0,1.8.866Z" transform="translate(-68.053 -113.67)" fill="#efb120"/><path d="M46.1,97.6a3.208,3.208,0,0,1-1.8-.866,1.583,1.583,0,0,0-1.406-.523,2.234,2.234,0,0,0-2.376,1.111c-.266.015-.39.24-.535.4a1.181,1.181,0,0,1-1.306.408,8.422,8.422,0,0,1-1.789-.527,2.563,2.563,0,0,0-2.02-.118c-.881.273-1.792.452-2.689.671a10.787,10.787,0,0,1-.166-2.341,7.219,7.219,0,0,0-.084-1.938c-.376-1.231-.848-2.444-.344-3.751.007-.019-.007-.046-.011-.067l.279-.593a3.652,3.652,0,0,0,.819-1.087.131.131,0,0,0,.036-.118,46.168,46.168,0,0,1,3.688-4.257c.19-.2.33-.453.633-.509.078.041.212.068.227.125.384,1.491,1.561,2.111,2.852,2.592q1.4.523,2.822.989c1.815.6,3.59,1.413,5.587,1.051a.342.342,0,0,1,.4.2,3.866,3.866,0,0,0-.011.475c.082.853-.517,1.7-.01,2.555a6.853,6.853,0,0,0,.276,2.763c-.278.345-.079.748-.138,1.12-.287.275-.517.605-1.006.588-.308-.013-.439.355-.668.53-.7.05-.94.63-1.259,1.116Z" transform="translate(-24.768 -65.953)" fill="#ced902"/><path d="M340.177,19.365a21.905,21.905,0,0,0-1.384-4.679c-.159-.354-.291-.72-.452-1.074-.533-1.172-1.063-2.346-1.617-3.509-.17-.356-.272-.834-.844-.769l-.069-.175a.974.974,0,0,0-.648-.846l0,0c-.265-.995-1.206-1.4-1.818-2.1l0,0a1.119,1.119,0,0,0-.426-.707A.2.2,0,0,0,332.9,5.4a.477.477,0,0,0-.254-.45.171.171,0,0,0-.016-.109c-.373-1.156-.764-2.314.282-3.351h0c.254-.21.637-.293.691-.7a.579.579,0,0,0,.425-.148,3.872,3.872,0,0,0,1.4-.548h0A19.457,19.457,0,0,1,339.06.086h0a6.68,6.68,0,0,0,1.674.549.343.343,0,0,0,.131.015.4.4,0,0,0,.428.244.885.885,0,0,1,.684.318.458.458,0,0,0,.429.279l0,0a.269.269,0,0,0,.286.273l0,0a.372.372,0,0,0,.277.264.262.262,0,0,0,.116.037l.99.97.129.143a.764.764,0,0,0,.428.552.012.012,0,0,0,0,0,.479.479,0,0,0,.27.432.319.319,0,0,0,.023.115c.172.289.225.654.546.847,0,0,0,0,0,0a1.509,1.509,0,0,0,.285.693.788.788,0,0,0,.008.133,3.149,3.149,0,0,0,.006.693,3.747,3.747,0,0,1-.269,2.557,15.063,15.063,0,0,0-.605,1.756,4.114,4.114,0,0,1-.817,1.407,3.588,3.588,0,0,0-.84,1.4h0a7.241,7.241,0,0,0-1.387,2.242l-.275.569a.634.634,0,0,0-.286.546s0,0,0,0c-.345.064-.191.37-.271.562l-.277.718c-.178.078-.146.245-.164.391-.113.062-.121.173-.128.283l-.277.285Z" transform="translate(-262.421)" fill="#f6de86"/><path d="M443.722,204.076a.331.331,0,0,0-.12-.017c-.139-.141-.278-.279-.417-.418l0,0a2.151,2.151,0,0,1-.009-1.513h0c.094-.095.189-.187.283-.279a.783.783,0,0,0,.121-.029c.224-.13.491-.21.623-.5a3.752,3.752,0,0,0-2.014-.036l-1.251.015-.584-.038a1.229,1.229,0,0,1,.847-.244,20.741,20.741,0,0,1,2.505.017c2.15.29,4.949-1.961,5.532-3.875a4.605,4.605,0,0,0,.2-1.992c.321-.42.654-.088.982-.015a3.227,3.227,0,0,0,1.124.555h0c1.28,1,2.219,2.135,1.558,3.909-.048.273.035.574-.167.817a.824.824,0,0,0-.279.561v0a1.5,1.5,0,0,0-.553.561h0a.453.453,0,0,0-.277.282h0a2.725,2.725,0,0,0-1.135.826c-.175.107-.307.29-.534.3a21.76,21.76,0,0,0-2.256,1.093c-.188.034-.4-.036-.558.126a11.63,11.63,0,0,1-2.78.187l-.39-.038A.485.485,0,0,0,443.722,204.076Z" transform="translate(-347.812 -153.982)" fill="#f6de86"/><path d="M70.2,87.73a.342.342,0,0,0-.4-.2c-2,.362-3.772-.455-5.587-1.051q-1.42-.467-2.822-.989c-1.291-.482-2.468-1.1-2.852-2.592-.015-.057-.149-.084-.227-.125.205-.27.491-.182.759-.17,1.562.071,3.109.362,4.679.322l0,0,2.249,1.094a.092.092,0,0,0,.1.032.53.53,0,0,0,.46.261h0a6.617,6.617,0,0,0,1.666.852l0,0a2.673,2.673,0,0,0,.848.553l0,0a1.033,1.033,0,0,0,.544.46l.108.12C69.9,86.76,70.558,87.071,70.2,87.73Z" transform="translate(-46.053 -65.227)" fill="#9fa706"/><path d="M544.424,242.178a1.145,1.145,0,0,0-.173-.366c-1.088-1.026-.933-2.194-.435-3.423a2.463,2.463,0,0,0,.071-.683c.086-.053.171-.107.257-.162a4.493,4.493,0,0,1,4.017,3.18,2.409,2.409,0,0,1-.173,1.265,3.568,3.568,0,0,0-.233.851,6.478,6.478,0,0,0-.571,1.557l.007-.006c-.176.2-.353.4-.529.595-.207.067-.395.21-.632.16a1.678,1.678,0,0,1-.47-.742A9.933,9.933,0,0,0,544.424,242.178Z" transform="translate(-429.233 -187.625)" fill="#2c2016"/><path d="M392.038,533.77a3.354,3.354,0,0,1,.318-2.364c.072-.237.151-.473.228-.708a3.58,3.58,0,0,0,.5-1.837,6.128,6.128,0,0,1,.69-3.638c.145-.174-.009-.557.387-.559a2.31,2.31,0,0,1,1.51,2.354,20.6,20.6,0,0,1-.26,4.4.939.939,0,0,1-.335.651,16.461,16.461,0,0,1-2.744,1.879Z" transform="translate(-309.55 -414.407)" fill="#050303"/><path d="M504.693,456.563a2.153,2.153,0,0,1-.021-1.839,11.236,11.236,0,0,0,.985-2.988.361.361,0,0,1,.536.147c.574,1.03,1.162,2.051,1.69,3.1a1.727,1.727,0,0,1-.425,2.116c-.225.229-.441.467-.661.7a3.022,3.022,0,0,0-.7.712l-.256.168c-.079-.048-.157-.1-.236-.147a8.764,8.764,0,0,0-.908-1.973Z" transform="translate(-398.462 -356.755)" fill="#050303"/><path d="M567.112,318.33c-.9-1.124-.523-2.406-.451-3.648.743-.021,1.129.513,1.515,1.013a5.727,5.727,0,0,1,1.463,2.177,4.361,4.361,0,0,1-.589,3.331l-.435.2c-.436-.265-.474-.759-.64-1.168A13.679,13.679,0,0,0,567.112,318.33Z" transform="translate(-447.469 -248.552)" fill="#050303"/><path d="M27.558,428.108c-.223-.088-.191-.45-.489-.456,0-.179-.01-.359-.015-.538A.788.788,0,0,1,27.558,428.108Z" transform="translate(-21.368 -337.357)" fill="#f6de86"/><path d="M117.942,225.575a11.93,11.93,0,0,1,1.686,1.742c.271.439.647.836.534,1.419a6.129,6.129,0,0,0-.69,3.638,3.58,3.58,0,0,1-.5,1.837,5.2,5.2,0,0,1-1.837-1.849,19.91,19.91,0,0,0-4.682-4.18,23.941,23.941,0,0,0-2.736-1.627,13.447,13.447,0,0,0-4.255-1.128c-2.125-.3-4.251-.582-6.369-.935a46.279,46.279,0,0,1-6.809-1.58c-1.823-.6-3.646-1.2-5.472-1.784a55.7,55.7,0,0,1-5.61-2.232c-3.114-1.387-6.2-2.847-9.161-4.516a49.613,49.613,0,0,1-5.918-3.736,61.655,61.655,0,0,1-5.017-4.031,31.481,31.481,0,0,1-3.937-4.735c-.635-.9-1.213-1.847-1.928-2.7a16.686,16.686,0,0,1-1.487-2.494c-.655-1.145-1.371-2.261-1.936-3.451-.674-1.419-1.24-2.89-1.807-4.354-.558-1.444-1.107-2.9-1.559-4.373-.52-1.7-1.126-3.369-1.572-5.1-.465-1.8-.752-3.612-1.034-5.434a22.616,22.616,0,0,1-.139-2.494c-.116-2.713-.292-5.432-.154-8.149a33.035,33.035,0,0,1,.739-5.556c.446-1.984.786-3.989,1.2-5.977.156-.746.37-1.479.557-2.217a8.422,8.422,0,0,0,1.789.527,1.181,1.181,0,0,0,1.306-.408c.145-.162.27-.387.535-.4q-.269,1.075-.538,2.148a2.809,2.809,0,0,0-.283,1.488,35.77,35.77,0,0,0-.576,4.171,21.374,21.374,0,0,0,.884,7.317,37.592,37.592,0,0,1,1.085,6.609,46.509,46.509,0,0,0,1.317,6.3c.586,1.992.978,4.05,1.677,6.01a65.2,65.2,0,0,0,2.929,7.109,56.97,56.97,0,0,0,4.344,7.607,25.424,25.424,0,0,0,1.995,2.4c1.985,2.186,4.082,4.266,6.2,6.325.639.622,1.445,1.082,2.1,1.669.633.565,1.276,1.126,1.915,1.692a35.9,35.9,0,0,0,4.653,3.14,26.858,26.858,0,0,0,4.047,1.816c1.983.847,4.032,1.488,6.061,2.192,1.658.574,3.324,1.131,5,1.648,2.009.622,4.012,1.282,6.055,1.767,3.282.782,6.578,1.507,9.845,2.349,1.184.307,2.337.729,3.516,1.055a24.325,24.325,0,0,1,4.034,1.469Z" transform="translate(-35.942 -117.92)" fill="#efb120"/><path d="M51.329,427.5a1.689,1.689,0,0,1-1.027,1.616,2.359,2.359,0,0,1-2.516-.54,13.145,13.145,0,0,1-3.168-4.676,18.466,18.466,0,0,1-.91-3.053,1.855,1.855,0,0,1,.7-2.087,1.759,1.759,0,0,1,2.381.605,13.831,13.831,0,0,1,1.877,3.068c.457,1.036,1.369,1.751,1.86,2.757a4.561,4.561,0,0,1,.8,2.31Z" transform="translate(-34.468 -330.57)" fill="#fec701"/><path d="M86.4,488.884a2.236,2.236,0,0,1,1.107.37c.828.626,1.714,1.177,2.535,1.811a6.572,6.572,0,0,1,1.571,1.927.936.936,0,0,1-.021,1.112,1.323,1.323,0,0,1-1.432.473,5.963,5.963,0,0,1-1.847-.946,11.11,11.11,0,0,1-2.863-2.591,1.359,1.359,0,0,1-.237-1.484A1.225,1.225,0,0,1,86.4,488.884Z" transform="translate(-67.201 -386.146)" fill="#fec702"/><path d="M127.278,494.827a1.8,1.8,0,0,1,1.309.4,7.36,7.36,0,0,1,1.783,1.742c.236.326.557.679.258,1.122a1.426,1.426,0,0,1-1.395.607,4.713,4.713,0,0,1-3.443-2.217c-.556-.8-.386-1.24.536-1.553A2.866,2.866,0,0,1,127.278,494.827Z" transform="translate(-99.104 -390.827)" fill="#fec702"/><path d="M71.449,160.582c-.321-.042-.223.443-.529.42a2.809,2.809,0,0,1,.283-1.488C71.617,159.8,71.434,160.212,71.449,160.582Z" transform="translate(-55.999 -125.993)" fill="#f6e5a8"/><path d="M206.324,167.62l-2.8,2.232c-.687.156-1.09.742-1.65,1.089-.267.328-.659.158-.983.214-1.08.189-2.059.7-3.119.92a28.984,28.984,0,0,1-3.984.3c-3.149.2-6.306.187-9.454.322a52.274,52.274,0,0,0-6.213.5,8.248,8.248,0,0,1-1.046.017c-1.134.042-2.265-.008-3.4.107a18.444,18.444,0,0,1-4.209-.319,32.723,32.723,0,0,1-5.156-1.034c-1.309-.391-2.566-.918-3.851-1.37a29.287,29.287,0,0,1-5.08-2.364c-1.757-1.03-3.634-1.86-5.382-2.9a29.771,29.771,0,0,1-4.073-3.007c-2.387-2.051-4.86-3.993-7.362-5.9-1.3-1-2.476-2.16-3.729-3.226-1.409-1.2-2.844-2.364-4.265-3.549-.833-.7-1.69-1.364-2.484-2.1-1.576-1.461-3.194-2.875-4.832-4.266a6.256,6.256,0,0,0-2.2-1.145,5.785,5.785,0,0,1-3.7-3.461,7.7,7.7,0,0,0-1.945-2.89c.059-.372-.139-.775.138-1.12a12.319,12.319,0,0,0,2.429,2.82c.7.576,1.311,1.238,1.979,1.843,2.514,2.276,5.359,4.117,8,6.218,1.5,1.194,2.979,2.442,4.587,3.48,1.4.9,2.86,1.717,4.244,2.639a94.612,94.612,0,0,0,8.272,4.638c2.138,1.135,4.243,2.349,6.487,3.283,2.027.843,4.05,1.7,6.056,2.591,1.444.641,2.863,1.353,4.316,1.965a26.951,26.951,0,0,0,4.565,1.391c1.94.435,3.863.958,5.816,1.328a21.458,21.458,0,0,0,7.257.427c2.8-.439,5.6-.9,8.382-1.492,3.623-.769,7.205-1.692,10.767-2.694,1.711-.481,3.375-1.135,5.051-1.738a6.1,6.1,0,0,1,2.58-.443,9.931,9.931,0,0,1,1.135,2.225,1.679,1.679,0,0,0,.47.742c.623.1.415.553.3.862a6.216,6.216,0,0,1-1.624,2.585C206.51,167.416,206.42,167.521,206.324,167.62Z" transform="translate(-91.137 -106.357)" fill="#ffc53e"/><path d="M289.805,227.06c-.361.16-.888-.313-1.132.3a4.975,4.975,0,0,1-2.165-.828c1.13-.029,2.068.374,3.053.313.133-.006.184.12.243.219Z" transform="translate(-226.3 -178.923)" fill="#f6e5a8"/><path d="M180.2,49.9a.573.573,0,0,1,.513-.1c1.428.294,2.886.355,4.32.576,1.889.288,3.753.736,5.627,1.124a12.524,12.524,0,0,0,1.922.252c1.387.065,2.768.065,4.156,0,1.482-.067,2.938-.322,4.4-.483,1.54-.17,3.044-.534,4.59-.685a26.772,26.772,0,0,0,4.067-.775c1.677-.433,3.322-.964,4.952-1.521,1.106-.378,2.22-.729,3.322-1.11a17.532,17.532,0,0,0,2.834-1.345,6.221,6.221,0,0,1,1.934-.8c.418-.073.663-.443,1.018-.641a19.631,19.631,0,0,0,2.322-1.366c.422-.313.946-.479,1.408-.763,1.809-1.114,3.474-2.421,5.176-3.68,1.43-1.059,2.735-2.259,4.089-3.405.59-.5,1.269-.957,1.862-1.454.777-.652,1.479-1.421,2.223-2.129,1.236-1.177,2.574-2.259,3.715-3.521.88-.973,1.765-1.94,2.714-2.837a47.788,47.788,0,0,1,5.749-4.681,24.1,24.1,0,0,1,2.563-1.349c.314-.164.615-.238.872.093.292.376.015.633-.238.815-.95.683-1.918,1.339-2.889,1.992-.625.421-1.224.888-1.8,1.36-.965.79-2,1.5-2.9,2.354-2.07,1.955-4.034,4.021-6.078,6q-1.982,1.921-4.114,3.684c-.993.823-1.953,1.693-2.959,2.5-.784.633-1.608,1.226-2.339,1.915a33.954,33.954,0,0,1-4.064,2.938c-1,.693-1.975,1.427-2.908,2.219a15.594,15.594,0,0,1-3.273,2.022c-1.053.519-2.077,1.091-3.152,1.572-1.487.662-3.054,1.086-4.586,1.61-1.5.515-3.033.965-4.577,1.334a35.044,35.044,0,0,1-5.283.693c-1.91.158-3.822.328-5.73.481a26.01,26.01,0,0,1-5.771-.105,43.711,43.711,0,0,1-4.646-.717c-1.124-.288-2.354.027-3.411-.725-.39-.279-1.056-.071-1.591-.322a6.879,6.879,0,0,0-3.364-.584.681.681,0,0,1-.676-.448Z" transform="translate(-142.334 -15.06)" fill="#f6de86"/><path d="M402.493,33.364a17.221,17.221,0,0,1-1.22,4.31,41.6,41.6,0,0,1-1.994,3.985,54.893,54.893,0,0,1-4.684,7.809,26.692,26.692,0,0,1-3.17,3.3c-1.332,1.282-2.706,2.522-4.085,3.751a33.249,33.249,0,0,1-4.805,3.73,51.075,51.075,0,0,1-5.543,2.782c-1.585.717-3.148,1.486-4.757,2.144a38.492,38.492,0,0,1-4.87,1.885c-1.093.282-2.211.464-3.286.828a2.632,2.632,0,0,1-.705.008,2.6,2.6,0,0,1,1.194-.87c1.058-.488,2.189-.811,3.281-1.227,1.8-.685,3.591-1.416,5.4-2.078a15.057,15.057,0,0,0,1.892-.75,40.56,40.56,0,0,0,4.191-2.358c.676-.469,1.393-.881,2.063-1.36a68.01,68.01,0,0,0,6.593-4.964c1.3-1.185,2.583-2.385,3.8-3.646a37.876,37.876,0,0,0,4.363-5.4c1.218-1.832,2.262-3.749,3.331-5.662a34.777,34.777,0,0,0,2.357-4.878,3.207,3.207,0,0,1,.65-1.343Z" transform="translate(-287.011 -26.353)" fill="#f6de86"/><path d="M317.546,181.289c-.062.189.165.534-.218.666-.346.12-.466-.191-.667-.37a4.786,4.786,0,0,1-.907-1.744c-.254-.534-.474-1.1-.7-1.652-.13-.324-.29-.736.132-.906a.784.784,0,0,1,.957.364,3.972,3.972,0,0,1,.652,1.345C316.908,179.8,317.648,180.377,317.546,181.289Z" transform="translate(-248.736 -139.987)" fill="#f6de86"/><path d="M409.084,146.158c-.719.151-.825-.666-1.139-1.114-.39-.557-.969-1.072-.823-1.883.032-.181-.008-.389.257-.414.21-.021.243.132.316.288.261.561.988.681,1.221,1.32a2.324,2.324,0,0,0,.654.956c.207.174.449.374.326.7C409.743,146.415,409.458,146.03,409.084,146.158Z" transform="translate(-321.548 -112.748)" fill="#f6de86"/><path d="M486.388,92.921a2.438,2.438,0,0,1-1.614-1.359c-.251-.5-.682-.965-.557-1.607.026-.132-.015-.29.139-.366a.347.347,0,0,1,.436.106,6.158,6.158,0,0,1,1.1,1.251,4.473,4.473,0,0,0,.849,1.251c.149.136.345.278.231.529S486.591,92.824,486.388,92.921Z" transform="translate(-382.442 -70.731)" fill="#f6de86"/><path d="M395.841,154.794c-.242.011-.41-.01-.519-.145-.67-.824-1.6-1.452-1.921-2.543-.088-.3-.231-.616.169-.759.345-.124.539.112.7.408a5.07,5.07,0,0,0,1.811,2.253c.232.132.153.368.128.563C396.171,154.832,395.943,154.779,395.841,154.794Z" transform="translate(-310.65 -119.515)" fill="#f6de86"/><path d="M442.1,128.063c.08-.008.172.147.284.256a21.008,21.008,0,0,0,2.441,2.383,1.328,1.328,0,0,1,.282.389.246.246,0,0,1-.009.319.267.267,0,0,1-.374.03,11.918,11.918,0,0,1-2.893-2.31c-.231-.252-.113-.574-.1-.866C441.743,128.128,441.86,128.084,442.1,128.063Z" transform="translate(-348.87 -101.15)" fill="#f6de86"/><path d="M498.73,83.072c-.132.386-.442.467-.7.223-.636-.612-1.433-1.026-2.021-1.694a1.856,1.856,0,0,1-.314-.687c-.072-.21.081-.347.227-.468.171-.141.294-.016.428.079a7.164,7.164,0,0,1,1.35,1.384,1.158,1.158,0,0,0,.527.44A.906.906,0,0,1,498.73,83.072Z" transform="translate(-391.516 -63.491)" fill="#f6de86"/><path d="M501.969,65.063a.458.458,0,0,1-.708.069,17,17,0,0,1-2.217-2.191.369.369,0,0,1,0-.508.347.347,0,0,1,.5-.043.936.936,0,0,1,.261.219,16.479,16.479,0,0,0,1.908,1.9C501.84,64.628,502.03,64.732,501.969,65.063Z" transform="translate(-394.092 -49.212)" fill="#f6de86"/><path d="M378.2,163.711a.363.363,0,0,1-.238.4.422.422,0,0,1-.508-.113,6.091,6.091,0,0,1-1.282-2.265.356.356,0,0,1,.259-.437.384.384,0,0,1,.49.168c.339.759.86,1.406,1.251,2.133a.376.376,0,0,1,.027.116Z" transform="translate(-297.107 -127.377)" fill="#f6de86"/></g><g transform="translate(-1034 -1383)"><path d="M-73.3-39.732A7.366,7.366,0,0,0-74.69-41.2a7.2,7.2,0,0,0-2.04-1.078,9.455,9.455,0,0,0-3.2-.462,4.735,4.735,0,0,0-1.732.347,2.6,2.6,0,0,0-1.232.847,1.006,1.006,0,0,0,.038,1.155A4.118,4.118,0,0,0-80.7-39.116q.693.308,1.386.539A6.1,6.1,0,0,1-78-37.961a45.32,45.32,0,0,1,6.545,3.5,21.381,21.381,0,0,1,5.544,5.044,17.986,17.986,0,0,1,3.273,6.429,19.489,19.489,0,0,1,.616,6.622,18.122,18.122,0,0,1-1.655,6.237A19.869,19.869,0,0,1-67.3-4.812,19.328,19.328,0,0,1-72.534-.924,17.414,17.414,0,0,1-79,.924,21.218,21.218,0,0,1-83.776.847a17.357,17.357,0,0,1-4.7-1.309,18.9,18.9,0,0,1-6.814-4.7,19.817,19.817,0,0,1-4.427-8.162l13.167-4.389a5.156,5.156,0,0,0,2.5,3.2,6.846,6.846,0,0,0,3.812.809,6.074,6.074,0,0,0,2.618-.809,2.767,2.767,0,0,0,1.463-2.271,4.685,4.685,0,0,0-.616-2.656A8.818,8.818,0,0,0-78.54-21.6a14.014,14.014,0,0,0-2.348-1.694,19.14,19.14,0,0,0-2.425-1.193q-.616-.231-1.078-.424t-.924-.347a20.6,20.6,0,0,1-8.008-5.159,15.313,15.313,0,0,1-3.7-6.7,14.549,14.549,0,0,1,.077-7.123,17.124,17.124,0,0,1,3.272-6.506,17.967,17.967,0,0,1,5.852-4.736,17.635,17.635,0,0,1,7.893-1.887,19.271,19.271,0,0,1,8.431,1.54,24.483,24.483,0,0,1,5.775,3.581,18.789,18.789,0,0,1,3.349,3.58l1.078,1.617Zm28.182-17.71v43.89h13.4V.231H-58.982V-57.442Zm42.2-.924a24.043,24.043,0,0,1,10.472,2.31,26.733,26.733,0,0,1,8.547,6.468,28.914,28.914,0,0,1,5.39,9.048,31.147,31.147,0,0,1,1.925,11.05,31.019,31.019,0,0,1-1.925,10.934,27.884,27.884,0,0,1-5.39,9.009A27.233,27.233,0,0,1,7.546-3.042,23.714,23.714,0,0,1-2.926-.693,23.3,23.3,0,0,1-13.282-3.042a27.377,27.377,0,0,1-8.509-6.506,29.005,29.005,0,0,1-5.467-9.009,29.956,29.956,0,0,1-2-10.934,30.077,30.077,0,0,1,2-11.05,30.117,30.117,0,0,1,5.467-9.048,26.869,26.869,0,0,1,8.509-6.468A23.622,23.622,0,0,1-2.926-58.366ZM5.7-40.425a14.252,14.252,0,0,0-3.927-2.926,10.355,10.355,0,0,0-4.7-1.078,10.428,10.428,0,0,0-4.659,1.078A12.115,12.115,0,0,0-11.4-40.425a15.222,15.222,0,0,0-2.887,4.889,17.288,17.288,0,0,0-1.04,6.045,16.656,16.656,0,0,0,1.04,5.967A15.416,15.416,0,0,0-11.4-18.711a11.639,11.639,0,0,0,3.812,3A10.428,10.428,0,0,0-2.926-14.63a10.355,10.355,0,0,0,4.7-1.078,13.585,13.585,0,0,0,3.927-3,16.263,16.263,0,0,0,2.81-4.812,16.656,16.656,0,0,0,1.04-5.967,17.288,17.288,0,0,0-1.04-6.045A16.039,16.039,0,0,0,5.7-40.425Zm44.814-4.081v43.12H36.729v-43.2L24.948-44.66l.077-13.86,35.42.154-.077,13.937ZM87.78-39.732A7.366,7.366,0,0,0,86.394-41.2a7.2,7.2,0,0,0-2.04-1.078,9.455,9.455,0,0,0-3.2-.462,4.735,4.735,0,0,0-1.732.347,2.6,2.6,0,0,0-1.232.847,1.006,1.006,0,0,0,.038,1.155,4.118,4.118,0,0,0,2.156,1.271q.693.308,1.386.539a6.1,6.1,0,0,1,1.309.616,45.32,45.32,0,0,1,6.545,3.5,21.381,21.381,0,0,1,5.544,5.044,17.986,17.986,0,0,1,3.273,6.429,19.489,19.489,0,0,1,.616,6.622A18.122,18.122,0,0,1,97.4-10.126a19.869,19.869,0,0,1-3.619,5.313A19.328,19.328,0,0,1,88.55-.924,17.414,17.414,0,0,1,82.082.924,21.218,21.218,0,0,1,77.308.847a17.357,17.357,0,0,1-4.7-1.309,18.9,18.9,0,0,1-6.814-4.7,19.816,19.816,0,0,1-4.427-8.162L74.536-17.71a5.156,5.156,0,0,0,2.5,3.2,6.846,6.846,0,0,0,3.812.809,6.074,6.074,0,0,0,2.618-.809,2.767,2.767,0,0,0,1.463-2.271,4.685,4.685,0,0,0-.616-2.656A8.818,8.818,0,0,0,82.544-21.6,14.014,14.014,0,0,0,80.2-23.293a19.14,19.14,0,0,0-2.425-1.193q-.616-.231-1.078-.424t-.924-.347a20.6,20.6,0,0,1-8.008-5.159,15.313,15.313,0,0,1-3.7-6.7,14.549,14.549,0,0,1,.077-7.123,17.124,17.124,0,0,1,3.272-6.506,17.967,17.967,0,0,1,5.852-4.736,17.635,17.635,0,0,1,7.893-1.887,19.271,19.271,0,0,1,8.431,1.54,24.483,24.483,0,0,1,5.775,3.581,18.789,18.789,0,0,1,3.35,3.58l1.078,1.617Z" transform="matrix(0.998, -0.07, 0.07, 0.998, -3375.5, 18810.5)" fill="#ffc53e" stroke="#571815" stroke-width="6"/><path d="M-134.189-46.1a21.284,21.284,0,0,0,6.9-3.448,17.5,17.5,0,0,0,4.477-4.9A12.88,12.88,0,0,0-121-59.956a9.351,9.351,0,0,0-1.089-5.324,11.519,11.519,0,0,0-4.3-4.3,19.576,19.576,0,0,0-7.8-2.42Zm15.367,16.819a20.5,20.5,0,0,0,6.655,3.509,27.874,27.874,0,0,0,10.89.968l1.21,21.78a55.684,55.684,0,0,1-11.5-.423A47.481,47.481,0,0,1-121-5.808a36.19,36.19,0,0,1-7.5-3.751,37.15,37.15,0,0,1-5.687-4.6V-2.783h-22.022V-93.412q6.171-.121,12.645-.06a109.564,109.564,0,0,1,12.705.847A59.086,59.086,0,0,1-119-89.9a31.29,31.29,0,0,1,9.922,5.506,25.946,25.946,0,0,1,6.9,9.135,34.669,34.669,0,0,1,2.843,13.673,33.577,33.577,0,0,1-1.21,9.861,35.4,35.4,0,0,1-3.872,8.954,36.085,36.085,0,0,1-6.231,7.623A39.239,39.239,0,0,1-118.822-29.282ZM-67.4-83.49l-.484,2.722q-.484,2.723-1.089,7.2T-70.119-63.4q-.544,5.687-.726,11.556A109.808,109.808,0,0,0-70.6-40.293a47.31,47.31,0,0,0,1.755,10.1A18.138,18.138,0,0,0-65.1-23.111a7.756,7.756,0,0,0,6.292,2.541,9.252,9.252,0,0,0,5.99-2,16.9,16.9,0,0,0,4.235-5.264,29.759,29.759,0,0,0,2.722-7.562,62.943,62.943,0,0,0,1.331-8.894q.484-6.05.363-12.342t-.544-11.979q-.424-5.687-1.028-10.346t-1.089-7.441L-25.41-89.9q.484,3.146,1.21,8.349T-22.929-70q.544,6.352.665,13.552a118.671,118.671,0,0,1-.605,14.218,95.958,95.958,0,0,1-3.025,16.274,44.331,44.331,0,0,1-6.353,13.733A32.128,32.128,0,0,1-42.834-2.662,32.123,32.123,0,0,1-58.443,1.089q-8.833.242-14.883-3.509a30.119,30.119,0,0,1-9.862-9.922,47.384,47.384,0,0,1-5.687-14.1,102.832,102.832,0,0,1-2.48-16.274,148.282,148.282,0,0,1-.3-16.335q.3-7.986.968-14.278t1.331-10.164q.665-3.872.665-3.993ZM8.591-90.266V-21.3H29.645V.363H-13.189V-90.266ZM89.3-66.066l-28.677-.242V-50.7H78.287v21.78H60.621v8.228H88.572V.968H38.72V-87.967L89.3-87.6Zm49.489,3.63a11.577,11.577,0,0,0-2.178-2.3,11.311,11.311,0,0,0-3.206-1.694,14.857,14.857,0,0,0-5.021-.726,7.442,7.442,0,0,0-2.723.545,4.092,4.092,0,0,0-1.936,1.331,1.581,1.581,0,0,0,.06,1.815q.605,1.029,3.388,2,1.089.484,2.178.847a9.587,9.587,0,0,1,2.057.968,71.218,71.218,0,0,1,10.285,5.506,33.6,33.6,0,0,1,8.712,7.925,28.264,28.264,0,0,1,5.142,10.1,30.626,30.626,0,0,1,.968,10.406,28.478,28.478,0,0,1-2.6,9.8,31.223,31.223,0,0,1-5.687,8.349A30.374,30.374,0,0,1,140-1.452a27.365,27.365,0,0,1-10.164,2.9,33.342,33.342,0,0,1-7.5-.121A27.274,27.274,0,0,1,114.95-.726a29.7,29.7,0,0,1-10.709-7.381,31.14,31.14,0,0,1-6.957-12.826l20.691-6.9a8.1,8.1,0,0,0,3.933,5.021,10.758,10.758,0,0,0,5.99,1.271,9.544,9.544,0,0,0,4.114-1.271,4.348,4.348,0,0,0,2.3-3.569,7.362,7.362,0,0,0-.968-4.174,13.858,13.858,0,0,0-2.783-3.388,22.022,22.022,0,0,0-3.69-2.662,30.076,30.076,0,0,0-3.812-1.875q-.968-.363-1.694-.666t-1.452-.544A32.375,32.375,0,0,1,107.327-47.8a24.063,24.063,0,0,1-5.808-10.527,22.863,22.863,0,0,1,.121-11.193,26.91,26.91,0,0,1,5.143-10.224,28.234,28.234,0,0,1,9.2-7.441,27.713,27.713,0,0,1,12.4-2.965,30.283,30.283,0,0,1,13.249,2.42,38.473,38.473,0,0,1,9.075,5.627,29.525,29.525,0,0,1,5.264,5.627l1.694,2.541Z" transform="matrix(0.998, -0.07, 0.07, 0.998, -3171.5, 18897.5)" fill="#ffc53e" stroke="#571815" stroke-width="6"/></g></g></svg>