<svg xmlns="http://www.w3.org/2000/svg" xmlns:xlink="http://www.w3.org/1999/xlink" width="1119.766" height="161.67" viewBox="0 0 1119.766 161.67"><defs><linearGradient id="a" x1="0.5" x2="0.5" y2="1" gradientUnits="objectBoundingBox"><stop offset="0" stop-color="#fff"/><stop offset="1" stop-color="#fff" stop-opacity="0"/></linearGradient></defs><path d="M115.908,0,104.521-37.383H47.266L35.879,0H0L55.43-157.7H96.143L151.787,0ZM96.572-65.312q-15.791-50.811-17.778-57.471t-2.847-10.527q-3.545,13.75-20.3,68ZM204.854-83.145h10.957q15.361,0,22.988-6.069t7.627-17.671q0-11.709-6.392-17.295T220-129.766H204.854Zm75.2-24.922q0,25.352-15.845,38.779T219.141-55.859H204.854V0h-33.3V-157.051h50.166q28.574,0,43.452,12.3T280.049-108.066ZM400.146,0H309.7V-157.051h90.449v27.285H343v34.482h53.174V-68H343v40.5h57.148ZM582.764-43.613q0,21.27-15.308,33.516T524.863,2.148q-25.137,0-44.473-9.453V-38.242a183.27,183.27,0,0,0,26.909,9.99,79.626,79.626,0,0,0,20.142,2.9q10.957,0,16.812-4.189T550.107-42a13.756,13.756,0,0,0-2.578-8.218,28.849,28.849,0,0,0-7.573-6.929q-5-3.33-20.356-10.635-14.395-6.768-21.592-13a48.8,48.8,0,0,1-11.494-14.5,41.384,41.384,0,0,1-4.3-19.336q0-20.84,14.126-32.764t39.048-11.924a92.209,92.209,0,0,1,23.364,2.9,160.6,160.6,0,0,1,23.257,8.164L571.27-122.354a157.167,157.167,0,0,0-20.786-7.2,66.906,66.906,0,0,0-16.167-2.041q-9.453,0-14.5,4.4a14.528,14.528,0,0,0-5.049,11.494,14.225,14.225,0,0,0,2.041,7.681,22.441,22.441,0,0,0,6.5,6.338q4.458,3.062,21.108,11.011Q566.436-80.137,574.6-69.556T582.764-43.613ZM611.23,0V-157.051h33.3V-27.5h63.7V0ZM873.662-78.74q0,38.994-19.336,59.941T798.9,2.148q-36.094,0-55.43-20.947T724.131-78.955q0-39.209,19.39-59.888t55.591-20.679q36.2,0,55.376,20.84T873.662-78.74Zm-114.619,0q0,26.318,9.99,39.639T798.9-25.781q39.854,0,39.854-52.959,0-53.066-39.639-53.066-19.873,0-29.971,13.374T759.043-78.74ZM960.244,0h-33.3V-129.336H884.3v-27.715h118.594v27.715H960.244Zm159.521-43.613q0,21.27-15.308,33.516T1061.865,2.148q-25.137,0-44.473-9.453V-38.242a183.273,183.273,0,0,0,26.909,9.99,79.626,79.626,0,0,0,20.142,2.9q10.957,0,16.812-4.189T1087.109-42a13.756,13.756,0,0,0-2.578-8.218,28.849,28.849,0,0,0-7.573-6.929q-5-3.33-20.356-10.635-14.394-6.768-21.592-13a48.8,48.8,0,0,1-11.494-14.5,41.384,41.384,0,0,1-4.3-19.336q0-20.84,14.126-32.764t39.048-11.924a92.209,92.209,0,0,1,23.364,2.9,160.6,160.6,0,0,1,23.257,8.164l-10.742,25.889a157.167,157.167,0,0,0-20.786-7.2,66.907,66.907,0,0,0-16.167-2.041q-9.453,0-14.5,4.4a14.528,14.528,0,0,0-5.049,11.494,14.225,14.225,0,0,0,2.041,7.681,22.441,22.441,0,0,0,6.5,6.338q4.458,3.062,21.108,11.011,22.022,10.527,30.186,21.108T1119.766-43.613Z" transform="translate(0 159.521)" fill="url(#a)"/></svg>