<svg xmlns="http://www.w3.org/2000/svg" xmlns:xlink="http://www.w3.org/1999/xlink" width="800.141" height="406.357" viewBox="0 0 800.141 406.357"><defs><filter id="a" x="75.129" y="45.563" width="624.15" height="109.254" filterUnits="userSpaceOnUse"><feOffset dx="-7" dy="3" input="SourceAlpha"/><feGaussianBlur stdDeviation="5" result="b"/><feFlood/><feComposite operator="in" in2="b"/><feComposite in="SourceGraphic"/></filter><filter id="c" x="387" y="228" width="26" height="26" filterUnits="userSpaceOnUse"><feOffset dy="3" input="SourceAlpha"/><feGaussianBlur stdDeviation="3" result="d"/><feFlood flood-opacity="0.584" result="e"/><feComposite operator="out" in="SourceGraphic" in2="d"/><feComposite operator="in" in="e"/><feComposite operator="in" in2="SourceGraphic"/></filter><filter id="f" x="387" y="24" width="26" height="26" filterUnits="userSpaceOnUse"><feOffset dy="3" input="SourceAlpha"/><feGaussianBlur stdDeviation="3" result="g"/><feFlood flood-opacity="0.596" result="h"/><feComposite operator="out" in="SourceGraphic" in2="g"/><feComposite operator="in" in="h"/><feComposite operator="in" in2="SourceGraphic"/></filter></defs><g transform="translate(3726 -15827)"><g transform="translate(-3726 15827)"><g transform="translate(0 0)"><path d="M800.055,95.917,727.533,2.8l-2.2-2.8H74.8L0,96.049v20.3l66.342,86.827H733.783l65.692-85.971.666-.862-.085-20.429Z" transform="translate(0 0)" fill="#683312"/><path d="M694.364,14.737H82.528L16.421,97.922l66.107,83.186,619.748,7.924,1.9-2.973,56.307-88.137L694.364,14.737Z" transform="translate(11.62 -0.928)" fill="#87371c"/><path d="M753.6,106.571l6.882-8.649L694.364,14.737H82.528L16.421,97.923l6.873,8.649H753.6Z" transform="translate(11.62 -0.928)" fill="#a14f28"/><path d="M37.562,84.835,81.521,28.949l256.107.279L90.346,37.536l-52.784,47.3Z" transform="translate(26.579 -1.823)" fill="#a96441"/><path d="M560.8,127.2l-43.956,55.886-256.112-.279L508.016,174.5Z" transform="translate(184.495 -8.011)" fill="#a96441"/><path d="M756.61,122.21,702.5,190.3H422.941l-26.362-20.88-26.36,20.88H90.659L36.583,122.251,76.4,107.113v-9.19H52.228L45,91.975,99.076,23.927H365.169l31.41,23.649,31.41-23.649H694.077l54.114,68.088-7.121,5.907h-24.18v9.19l39.719,15.1Zm24.47-24.288L716.293,14.737H76.871L12.086,97.922H4.929V116.35l63.525,83.138H724.711l63.523-83.138V97.922Z" transform="translate(3.488 -0.928)" fill="#ed9a21"/><path d="M702.5,180.491H422.941l-26.362-20.88-26.36,20.88H90.659L36.583,112.443,76.4,97.305,36.583,82.167,90.659,14.119H370.221L396.579,35l26.36-20.879H702.5L756.61,82.208l-39.719,15.1,39.719,15.1Zm13.8-175.562H76.871L4.929,97.3,76.871,189.68H716.293L788.235,97.3,716.293,4.929Z" transform="translate(3.488 -0.31)" fill="#f6b318"/><path d="M76.039,97.178,36.553,82.167,90.629,14.119H370.188L396.549,35l26.36-20.879H702.463l54.116,68.088L717.2,97.178h70.9L716.263,4.929H76.84L5,97.178Z" transform="translate(3.535 -0.31)" fill="#fed551"/><path d="M234.3,35.616l-.017,11.961,31.41-23.649-5.032-9.19Z" transform="translate(165.782 -0.928)" fill="#d97f27"/><path d="M421.864,103.514v9.19l34.118,12.965,5.6-7.058Z" transform="translate(298.514 -6.519)" fill="#d97f27"/><path d="M62.97,103.379l.318,9.317L29.075,125.7l-5.609-7.058Z" transform="translate(16.605 -6.511)" fill="#d97f27"/><path d="M247.318,35.616l-26.36-20.879-5.066,9.19,30.853,23.23Z" transform="translate(152.766 -0.928)" fill="#fbaa1e"/><path d="M85.952,23.927l-8.4-9.19L23.476,82.784l12.059,4.585L85.952,23.927Z" transform="translate(16.612 -0.928)" fill="#d97f27"/><path d="M416.938,14.737l-8.434,9.19,50.46,63.493,12.09-4.6L416.938,14.737Z" transform="translate(289.061 -0.928)" fill="#d97f27"/><path d="M50.547,202.1l-8.417,9.19H698.388l-8.419-9.19H50.547Z" transform="translate(29.812 -12.728)" fill="#d97f27"/></g><g transform="matrix(1, 0, 0, 1, 0, 0)" filter="url(#a)"><path d="M-278.511-75.48a41.183,41.183,0,0,1,6.681,1.326,44.076,44.076,0,0,1,8.874,3.519,47.1,47.1,0,0,1,9.129,6.273,31.842,31.842,0,0,1,7.446,9.588,31.258,31.258,0,0,1,2.907,7.548,33.509,33.509,0,0,1,.969,7.956,30.89,30.89,0,0,1-2.4,12.444,36.121,36.121,0,0,1-6.12,9.69A43.18,43.18,0,0,1-259.131-10,60.267,60.267,0,0,1-267.495-5.2a49.145,49.145,0,0,1-7.038,2.7,13.884,13.884,0,0,1-3.978.765h-18.36V-75.48Zm0,53.448a19.7,19.7,0,0,0,9.078-3.213,19.075,19.075,0,0,0,5.814-6.12,16.923,16.923,0,0,0,2.3-7.5,13.768,13.768,0,0,0-1.53-7.4,14.806,14.806,0,0,0-5.661-5.763,21.184,21.184,0,0,0-10-2.652Zm86.5-33.66-24.174-.2v13.158H-201.3v18.36h-14.892v6.936h23.562V.816h-42.024v-74.97l42.636.306Zm51.1,2.346-.306-.306a13.883,13.883,0,0,0-4.845-2.448,15.7,15.7,0,0,0-5.355-.51,13.835,13.835,0,0,0-6.885,2.295,16.593,16.593,0,0,0-4.794,5.049,21.684,21.684,0,0,0-2.7,6.732,29.413,29.413,0,0,0-.714,7.242,31.185,31.185,0,0,0,1.326,7.7,15.93,15.93,0,0,0,3.468,6.171,11.626,11.626,0,0,0,5.3,3.366,13.508,13.508,0,0,0,6.018.459,13.325,13.325,0,0,0,5.508-2.193,10.96,10.96,0,0,0,3.876-4.692l-12.138.51-.408-18.36,31.314-.918v9.18a46.9,46.9,0,0,1-1.53,12.852A32.309,32.309,0,0,1-128.826-10.4a25.05,25.05,0,0,1-8.772,7.5A28.787,28.787,0,0,1-150.3.1a33.921,33.921,0,0,1-14.025-2.4,30.921,30.921,0,0,1-10.761-7.344,33.968,33.968,0,0,1-6.987-11.169,41.091,41.091,0,0,1-2.7-13.872,46.24,46.24,0,0,1,1.836-14.331,39.912,39.912,0,0,1,6.12-12.546,34.356,34.356,0,0,1,10.1-9.18,31.05,31.05,0,0,1,13.77-4.233,32.442,32.442,0,0,1,12.189,1.326A31.844,31.844,0,0,1-129.8-67.83a3,3,0,0,1,.816.714Zm69.258-2.346-24.174-.2v13.158h14.892v18.36H-95.829v6.936h23.562V.816h-42.024v-74.97l42.636.306Zm7.446,51.816V-69.768h18.258l22.338,35.9V-71.4H-5.355V-1.326H-23.613l-22.338-31.62v29.07ZM32.079-2.754l4.59-74.256,20.706.51,13.26,40.494L82.467-76.7l19.686-1.734,5.1,74.256L88.893-2.958l-1.53-24.684-10.3,25.4-12.036.2-12.75-30.8L50.439-1.734Zm117.4-74.562a31.85,31.85,0,0,1,13.872,3.06,35.413,35.413,0,0,1,11.322,8.568,38.3,38.3,0,0,1,7.14,11.985,41.259,41.259,0,0,1,2.55,14.637,41.09,41.09,0,0,1-2.55,14.484,36.938,36.938,0,0,1-7.14,11.934,36.074,36.074,0,0,1-11.322,8.619A31.414,31.414,0,0,1,149.481-.918a30.864,30.864,0,0,1-13.719-3.111,36.265,36.265,0,0,1-11.271-8.619,38.422,38.422,0,0,1-7.242-11.934A39.681,39.681,0,0,1,114.6-39.066,39.842,39.842,0,0,1,117.249-53.7a39.9,39.9,0,0,1,7.242-11.985,35.593,35.593,0,0,1,11.271-8.568A31.291,31.291,0,0,1,149.481-77.316ZM160.9-53.55a18.879,18.879,0,0,0-5.2-3.876,13.717,13.717,0,0,0-6.222-1.428,13.814,13.814,0,0,0-6.171,1.428,16.049,16.049,0,0,0-5.049,3.876,20.164,20.164,0,0,0-3.825,6.477,22.9,22.9,0,0,0-1.377,8.007,22.064,22.064,0,0,0,1.377,7.9,20.421,20.421,0,0,0,3.825,6.375,15.417,15.417,0,0,0,5.049,3.978,13.814,13.814,0,0,0,6.171,1.428,13.717,13.717,0,0,0,6.222-1.428,18,18,0,0,0,5.2-3.978,21.543,21.543,0,0,0,3.723-6.375,22.064,22.064,0,0,0,1.377-7.9,22.9,22.9,0,0,0-1.377-8.007A21.246,21.246,0,0,0,160.9-53.55Zm49.878-21.93a41.183,41.183,0,0,1,6.681,1.326,44.075,44.075,0,0,1,8.874,3.519,47.1,47.1,0,0,1,9.129,6.273,31.842,31.842,0,0,1,7.446,9.588,31.258,31.258,0,0,1,2.907,7.548,33.509,33.509,0,0,1,.969,7.956,30.89,30.89,0,0,1-2.4,12.444,36.121,36.121,0,0,1-6.12,9.69A43.181,43.181,0,0,1,230.163-10,60.269,60.269,0,0,1,221.8-5.2a49.144,49.144,0,0,1-7.038,2.7,13.884,13.884,0,0,1-3.978.765h-18.36V-75.48Zm0,53.448a19.7,19.7,0,0,0,9.078-3.213,19.075,19.075,0,0,0,5.814-6.12,16.923,16.923,0,0,0,2.295-7.5,13.768,13.768,0,0,0-1.53-7.4,14.806,14.806,0,0,0-5.661-5.763,21.184,21.184,0,0,0-10-2.652Zm86.5-33.66-24.174-.2v13.158H288v18.36H273.105v6.936h23.562V.816H254.643v-74.97l42.636.306Z" transform="translate(394 136)" fill="#ce0000"/></g><path d="M-278.511-75.48a41.183,41.183,0,0,1,6.681,1.326,44.076,44.076,0,0,1,8.874,3.519,47.1,47.1,0,0,1,9.129,6.273,31.842,31.842,0,0,1,7.446,9.588,31.258,31.258,0,0,1,2.907,7.548,33.509,33.509,0,0,1,.969,7.956,30.89,30.89,0,0,1-2.4,12.444,36.121,36.121,0,0,1-6.12,9.69A43.18,43.18,0,0,1-259.131-10,60.267,60.267,0,0,1-267.495-5.2a49.145,49.145,0,0,1-7.038,2.7,13.884,13.884,0,0,1-3.978.765h-18.36V-75.48Zm0,53.448a19.7,19.7,0,0,0,9.078-3.213,19.075,19.075,0,0,0,5.814-6.12,16.923,16.923,0,0,0,2.3-7.5,13.768,13.768,0,0,0-1.53-7.4,14.806,14.806,0,0,0-5.661-5.763,21.184,21.184,0,0,0-10-2.652Zm86.5-33.66-24.174-.2v13.158H-201.3v18.36h-14.892v6.936h23.562V.816h-42.024v-74.97l42.636.306Zm51.1,2.346-.306-.306a13.883,13.883,0,0,0-4.845-2.448,15.7,15.7,0,0,0-5.355-.51,13.835,13.835,0,0,0-6.885,2.295,16.593,16.593,0,0,0-4.794,5.049,21.684,21.684,0,0,0-2.7,6.732,29.413,29.413,0,0,0-.714,7.242,31.185,31.185,0,0,0,1.326,7.7,15.93,15.93,0,0,0,3.468,6.171,11.626,11.626,0,0,0,5.3,3.366,13.508,13.508,0,0,0,6.018.459,13.325,13.325,0,0,0,5.508-2.193,10.96,10.96,0,0,0,3.876-4.692l-12.138.51-.408-18.36,31.314-.918v9.18a46.9,46.9,0,0,1-1.53,12.852A32.309,32.309,0,0,1-128.826-10.4a25.05,25.05,0,0,1-8.772,7.5A28.787,28.787,0,0,1-150.3.1a33.921,33.921,0,0,1-14.025-2.4,30.921,30.921,0,0,1-10.761-7.344,33.968,33.968,0,0,1-6.987-11.169,41.091,41.091,0,0,1-2.7-13.872,46.24,46.24,0,0,1,1.836-14.331,39.912,39.912,0,0,1,6.12-12.546,34.356,34.356,0,0,1,10.1-9.18,31.05,31.05,0,0,1,13.77-4.233,32.442,32.442,0,0,1,12.189,1.326A31.844,31.844,0,0,1-129.8-67.83a3,3,0,0,1,.816.714Zm69.258-2.346-24.174-.2v13.158h14.892v18.36H-95.829v6.936h23.562V.816h-42.024v-74.97l42.636.306Zm7.446,51.816V-69.768h18.258l22.338,35.9V-71.4H-5.355V-1.326H-23.613l-22.338-31.62v29.07ZM32.079-2.754l4.59-74.256,20.706.51,13.26,40.494L82.467-76.7l19.686-1.734,5.1,74.256L88.893-2.958l-1.53-24.684-10.3,25.4-12.036.2-12.75-30.8L50.439-1.734Zm117.4-74.562a31.85,31.85,0,0,1,13.872,3.06,35.413,35.413,0,0,1,11.322,8.568,38.3,38.3,0,0,1,7.14,11.985,41.259,41.259,0,0,1,2.55,14.637,41.09,41.09,0,0,1-2.55,14.484,36.938,36.938,0,0,1-7.14,11.934,36.074,36.074,0,0,1-11.322,8.619A31.414,31.414,0,0,1,149.481-.918a30.864,30.864,0,0,1-13.719-3.111,36.265,36.265,0,0,1-11.271-8.619,38.422,38.422,0,0,1-7.242-11.934A39.681,39.681,0,0,1,114.6-39.066,39.842,39.842,0,0,1,117.249-53.7a39.9,39.9,0,0,1,7.242-11.985,35.593,35.593,0,0,1,11.271-8.568A31.291,31.291,0,0,1,149.481-77.316ZM160.9-53.55a18.879,18.879,0,0,0-5.2-3.876,13.717,13.717,0,0,0-6.222-1.428,13.814,13.814,0,0,0-6.171,1.428,16.049,16.049,0,0,0-5.049,3.876,20.164,20.164,0,0,0-3.825,6.477,22.9,22.9,0,0,0-1.377,8.007,22.064,22.064,0,0,0,1.377,7.9,20.421,20.421,0,0,0,3.825,6.375,15.417,15.417,0,0,0,5.049,3.978,13.814,13.814,0,0,0,6.171,1.428,13.717,13.717,0,0,0,6.222-1.428,18,18,0,0,0,5.2-3.978,21.543,21.543,0,0,0,3.723-6.375,22.064,22.064,0,0,0,1.377-7.9,22.9,22.9,0,0,0-1.377-8.007A21.246,21.246,0,0,0,160.9-53.55Zm49.878-21.93a41.183,41.183,0,0,1,6.681,1.326,44.075,44.075,0,0,1,8.874,3.519,47.1,47.1,0,0,1,9.129,6.273,31.842,31.842,0,0,1,7.446,9.588,31.258,31.258,0,0,1,2.907,7.548,33.509,33.509,0,0,1,.969,7.956,30.89,30.89,0,0,1-2.4,12.444,36.121,36.121,0,0,1-6.12,9.69A43.181,43.181,0,0,1,230.163-10,60.269,60.269,0,0,1,221.8-5.2a49.144,49.144,0,0,1-7.038,2.7,13.884,13.884,0,0,1-3.978.765h-18.36V-75.48Zm0,53.448a19.7,19.7,0,0,0,9.078-3.213,19.075,19.075,0,0,0,5.814-6.12,16.923,16.923,0,0,0,2.295-7.5,13.768,13.768,0,0,0-1.53-7.4,14.806,14.806,0,0,0-5.661-5.763,21.184,21.184,0,0,0-10-2.652Zm86.5-33.66-24.174-.2v13.158H288v18.36H273.105v6.936h23.562V.816H254.643v-74.97l42.636.306Z" transform="translate(404 131)" fill="#ffc53e"/></g><g transform="translate(-3726 16030.179)"><g transform="translate(0 0)"><path d="M800.055,95.917,727.533,2.8l-2.2-2.8H74.8L0,96.049v20.3l66.342,86.827H733.783l65.692-85.971.666-.862-.085-20.429Z" transform="translate(0 0)" fill="#683312"/><path d="M694.364,14.737H82.528L16.421,97.922l66.107,83.186,619.748,7.924,1.9-2.973,56.307-88.137L694.364,14.737Z" transform="translate(11.62 -0.928)" fill="#87371c"/><path d="M753.6,106.571l6.882-8.649L694.364,14.737H82.528L16.421,97.923l6.873,8.649H753.6Z" transform="translate(11.62 -0.928)" fill="#a14f28"/><path d="M37.562,84.835,81.521,28.949l256.107.279L90.346,37.536l-52.784,47.3Z" transform="translate(26.579 -1.823)" fill="#a96441"/><path d="M560.8,127.2l-43.956,55.886-256.112-.279L508.016,174.5Z" transform="translate(184.495 -8.011)" fill="#a96441"/><path d="M756.61,122.21,702.5,190.3H422.941l-26.362-20.88-26.36,20.88H90.659L36.583,122.251,76.4,107.113v-9.19H52.228L45,91.975,99.076,23.927H365.169l31.41,23.649,31.41-23.649H694.077l54.114,68.088-7.121,5.907h-24.18v9.19l39.719,15.1Zm24.47-24.288L716.293,14.737H76.871L12.086,97.922H4.929V116.35l63.525,83.138H724.711l63.523-83.138V97.922Z" transform="translate(3.488 -0.928)" fill="#ed9a21"/><path d="M702.5,180.491H422.941l-26.362-20.88-26.36,20.88H90.659L36.583,112.443,76.4,97.305,36.583,82.167,90.659,14.119H370.221L396.579,35l26.36-20.879H702.5L756.61,82.208l-39.719,15.1,39.719,15.1Zm13.8-175.562H76.871L4.929,97.3,76.871,189.68H716.293L788.235,97.3,716.293,4.929Z" transform="translate(3.488 -0.31)" fill="#f6b318"/><path d="M76.039,97.178,36.553,82.167,90.629,14.119H370.188L396.549,35l26.36-20.879H702.463l54.116,68.088L717.2,97.178h70.9L716.263,4.929H76.84L5,97.178Z" transform="translate(3.535 -0.31)" fill="#fed551"/><path d="M234.3,35.616l-.017,11.961,31.41-23.649-5.032-9.19Z" transform="translate(165.782 -0.928)" fill="#d97f27"/><path d="M421.864,103.514v9.19l34.118,12.965,5.6-7.058Z" transform="translate(298.514 -6.519)" fill="#d97f27"/><path d="M62.97,103.379l.318,9.317L29.075,125.7l-5.609-7.058Z" transform="translate(16.605 -6.511)" fill="#d97f27"/><path d="M247.318,35.616l-26.36-20.879-5.066,9.19,30.853,23.23Z" transform="translate(152.766 -0.928)" fill="#fbaa1e"/><path d="M85.952,23.927l-8.4-9.19L23.476,82.784l12.059,4.585L85.952,23.927Z" transform="translate(16.612 -0.928)" fill="#d97f27"/><path d="M416.938,14.737l-8.434,9.19,50.46,63.493,12.09-4.6L416.938,14.737Z" transform="translate(289.061 -0.928)" fill="#d97f27"/><path d="M50.547,202.1l-8.417,9.19H698.388l-8.419-9.19H50.547Z" transform="translate(29.812 -12.728)" fill="#d97f27"/><path d="M-278.511-75.48a41.183,41.183,0,0,1,6.681,1.326,44.076,44.076,0,0,1,8.874,3.519,47.1,47.1,0,0,1,9.129,6.273,31.842,31.842,0,0,1,7.446,9.588,31.258,31.258,0,0,1,2.907,7.548,33.509,33.509,0,0,1,.969,7.956,30.89,30.89,0,0,1-2.4,12.444,36.121,36.121,0,0,1-6.12,9.69A43.18,43.18,0,0,1-259.131-10,60.267,60.267,0,0,1-267.495-5.2a49.145,49.145,0,0,1-7.038,2.7,13.884,13.884,0,0,1-3.978.765h-18.36V-75.48Zm0,53.448a19.7,19.7,0,0,0,9.078-3.213,19.075,19.075,0,0,0,5.814-6.12,16.923,16.923,0,0,0,2.3-7.5,13.768,13.768,0,0,0-1.53-7.4,14.806,14.806,0,0,0-5.661-5.763,21.184,21.184,0,0,0-10-2.652Zm86.5-33.66-24.174-.2v13.158H-201.3v18.36h-14.892v6.936h23.562V.816h-42.024v-74.97l42.636.306Zm51.1,2.346-.306-.306a13.883,13.883,0,0,0-4.845-2.448,15.7,15.7,0,0,0-5.355-.51,13.835,13.835,0,0,0-6.885,2.295,16.593,16.593,0,0,0-4.794,5.049,21.684,21.684,0,0,0-2.7,6.732,29.413,29.413,0,0,0-.714,7.242,31.185,31.185,0,0,0,1.326,7.7,15.93,15.93,0,0,0,3.468,6.171,11.626,11.626,0,0,0,5.3,3.366,13.508,13.508,0,0,0,6.018.459,13.325,13.325,0,0,0,5.508-2.193,10.96,10.96,0,0,0,3.876-4.692l-12.138.51-.408-18.36,31.314-.918v9.18a46.9,46.9,0,0,1-1.53,12.852A32.309,32.309,0,0,1-128.826-10.4a25.05,25.05,0,0,1-8.772,7.5A28.787,28.787,0,0,1-150.3.1a33.921,33.921,0,0,1-14.025-2.4,30.921,30.921,0,0,1-10.761-7.344,33.968,33.968,0,0,1-6.987-11.169,41.091,41.091,0,0,1-2.7-13.872,46.24,46.24,0,0,1,1.836-14.331,39.912,39.912,0,0,1,6.12-12.546,34.356,34.356,0,0,1,10.1-9.18,31.05,31.05,0,0,1,13.77-4.233,32.442,32.442,0,0,1,12.189,1.326A31.844,31.844,0,0,1-129.8-67.83a3,3,0,0,1,.816.714Zm69.258-2.346-24.174-.2v13.158h14.892v18.36H-95.829v6.936h23.562V.816h-42.024v-74.97l42.636.306Zm7.446,51.816V-69.768h18.258l22.338,35.9V-71.4H-5.355V-1.326H-23.613l-22.338-31.62v29.07ZM32.079-2.754l4.59-74.256,20.706.51,13.26,40.494L82.467-76.7l19.686-1.734,5.1,74.256L88.893-2.958l-1.53-24.684-10.3,25.4-12.036.2-12.75-30.8L50.439-1.734Zm117.4-74.562a31.85,31.85,0,0,1,13.872,3.06,35.413,35.413,0,0,1,11.322,8.568,38.3,38.3,0,0,1,7.14,11.985,41.259,41.259,0,0,1,2.55,14.637,41.09,41.09,0,0,1-2.55,14.484,36.938,36.938,0,0,1-7.14,11.934,36.074,36.074,0,0,1-11.322,8.619A31.414,31.414,0,0,1,149.481-.918a30.864,30.864,0,0,1-13.719-3.111,36.265,36.265,0,0,1-11.271-8.619,38.422,38.422,0,0,1-7.242-11.934A39.681,39.681,0,0,1,114.6-39.066,39.842,39.842,0,0,1,117.249-53.7a39.9,39.9,0,0,1,7.242-11.985,35.593,35.593,0,0,1,11.271-8.568A31.291,31.291,0,0,1,149.481-77.316ZM160.9-53.55a18.879,18.879,0,0,0-5.2-3.876,13.717,13.717,0,0,0-6.222-1.428,13.814,13.814,0,0,0-6.171,1.428,16.049,16.049,0,0,0-5.049,3.876,20.164,20.164,0,0,0-3.825,6.477,22.9,22.9,0,0,0-1.377,8.007,22.064,22.064,0,0,0,1.377,7.9,20.421,20.421,0,0,0,3.825,6.375,15.417,15.417,0,0,0,5.049,3.978,13.814,13.814,0,0,0,6.171,1.428,13.717,13.717,0,0,0,6.222-1.428,18,18,0,0,0,5.2-3.978,21.543,21.543,0,0,0,3.723-6.375,22.064,22.064,0,0,0,1.377-7.9,22.9,22.9,0,0,0-1.377-8.007A21.246,21.246,0,0,0,160.9-53.55Zm49.878-21.93a41.183,41.183,0,0,1,6.681,1.326,44.075,44.075,0,0,1,8.874,3.519,47.1,47.1,0,0,1,9.129,6.273,31.842,31.842,0,0,1,7.446,9.588,31.258,31.258,0,0,1,2.907,7.548,33.509,33.509,0,0,1,.969,7.956,30.89,30.89,0,0,1-2.4,12.444,36.121,36.121,0,0,1-6.12,9.69A43.181,43.181,0,0,1,230.163-10,60.269,60.269,0,0,1,221.8-5.2a49.144,49.144,0,0,1-7.038,2.7,13.884,13.884,0,0,1-3.978.765h-18.36V-75.48Zm0,53.448a19.7,19.7,0,0,0,9.078-3.213,19.075,19.075,0,0,0,5.814-6.12,16.923,16.923,0,0,0,2.295-7.5,13.768,13.768,0,0,0-1.53-7.4,14.806,14.806,0,0,0-5.661-5.763,21.184,21.184,0,0,0-10-2.652Zm86.5-33.66-24.174-.2v13.158H288v18.36H273.105v6.936h23.562V.816H254.643v-74.97l42.636.306Z" transform="translate(399.769 139.296)" fill="#e2d8c0" opacity="0.756" style="mix-blend-mode:overlay;isolation:isolate"/></g><g data-type="innerShadowGroup"><rect width="26" height="26" rx="13" transform="translate(387 24.82)" fill="#c5a16c"/><g transform="matrix(1, 0, 0, 1, 0, -203.18)" filter="url(#c)"><rect width="26" height="26" rx="13" transform="translate(387 228)" fill="#fff"/></g><g transform="translate(387 24.82)" fill="none" stroke="#b08962" stroke-width="2"><rect width="26" height="26" rx="13" stroke="none"/><rect x="1" y="1" width="24" height="24" rx="12" fill="none"/></g></g><path d="M66.343,203.179,0,116.351v-20.3L74.8,0H725.331l2.2,2.8,72.419,92.979V116.59l-.477.618-65.691,85.971Z" transform="translate(0 0)" fill="#fff" opacity="0.563" style="mix-blend-mode:saturation;isolation:isolate"/></g><g data-type="innerShadowGroup"><rect width="26" height="26" rx="13" transform="translate(-3339 15851)" fill="#88ff3e"/><g transform="matrix(1, 0, 0, 1, -3726, 15827)" filter="url(#f)"><rect width="26" height="26" rx="13" transform="translate(387 24)" fill="#fff"/></g><g transform="translate(-3339 15851)" fill="none" stroke="#59c100" stroke-width="2"><rect width="26" height="26" rx="13" stroke="none"/><rect x="1" y="1" width="24" height="24" rx="12" fill="none"/></g></g></g></svg>