<svg xmlns="http://www.w3.org/2000/svg" xmlns:xlink="http://www.w3.org/1999/xlink" width="491" height="252" viewBox="0 0 491 252"><defs><linearGradient id="a" x1="1" y1="0.018" x2="0" y2="1" gradientUnits="objectBoundingBox"><stop offset="0" stop-color="#49d5ff"/><stop offset="0.322" stop-color="#71a682" stop-opacity="0.49"/><stop offset="1" stop-color="#97780a" stop-opacity="0"/></linearGradient><linearGradient id="b" x1="0.849" y1="0.224" x2="0.031" y2="0.931" gradientUnits="objectBoundingBox"><stop offset="0" stop-color="#49d5ff"/><stop offset="0.544" stop-color="#49d5ff" stop-opacity="0.2"/><stop offset="1" stop-color="#49d5ff" stop-opacity="0"/></linearGradient><clipPath id="e"><rect width="491" height="252"/></clipPath></defs><g id="d" clip-path="url(#e)"><rect width="491" height="252" fill="#0a0b1c"/><g transform="translate(-2 69)"><circle cx="113.5" cy="113.5" r="113.5" transform="translate(-111 186)" fill="#49d5ff" opacity="0.12"/><circle cx="147.5" cy="147.5" r="147.5" transform="translate(-145 152)" fill="#49d5ff" opacity="0.12"/><circle cx="179.5" cy="179.5" r="179.5" transform="translate(-177 120)" fill="#49d5ff" opacity="0.12"/><circle cx="210.5" cy="210.5" r="210.5" transform="translate(-208 89)" fill="#49d5ff" opacity="0.12"/><circle cx="245.5" cy="245.5" r="245.5" transform="translate(-243 54)" fill="#49d5ff" opacity="0.12"/><circle cx="279.5" cy="279.5" r="279.5" transform="translate(-277 20)" fill="#49d5ff" opacity="0.12"/></g><rect width="491" height="255" opacity="0.27" fill="url(#a)"/><g transform="translate(292.543 -11.301)" opacity="0.38" style="mix-blend-mode:color-dodge;isolation:isolate"><g style="mix-blend-mode:soft-light;isolation:isolate"><path d="M83.971,115.39,137.3,62.06l53.355,53.353,31.03-31.03L137.3,0,52.943,84.358l31.029,31.03M0,137.3l31.031-31.035L62.06,137.294,31.029,168.325Zm83.971,21.914,53.33,53.327,53.354-53.352L221.7,190.2l-.015.016L137.3,274.6,52.943,190.244,52.9,190.2l31.075-30.988m128.567-21.9,31.031-31.031L274.6,137.312l-31.03,31.031Z" fill="url(#b)"/><path d="M1026.165,994.677h.013L994.693,963.19l-23.272,23.265h0l-2.673,2.675-5.514,5.515-.044.043.044.045,31.459,31.464,31.487-31.487.016-.018-.029-.015" transform="translate(-857.392 -857.393)" fill="url(#b)"/></g></g></g></svg>