<svg xmlns="http://www.w3.org/2000/svg" xmlns:xlink="http://www.w3.org/1999/xlink" width="491" height="252" viewBox="0 0 491 252"><defs><linearGradient id="a" x1="1" y1="0.018" x2="0" y2="1" gradientUnits="objectBoundingBox"><stop offset="0" stop-color="#f7d75f"/><stop offset="0.33" stop-color="#d4b440" stop-opacity="0.631"/><stop offset="1" stop-color="#97780a" stop-opacity="0"/></linearGradient><linearGradient id="b" x1="0.849" y1="0.224" x2="0.031" y2="0.931" gradientUnits="objectBoundingBox"><stop offset="0" stop-color="#f7d75f"/><stop offset="0.532" stop-color="#f7d75f" stop-opacity="0.341"/><stop offset="1" stop-color="#f7d75f" stop-opacity="0"/></linearGradient><clipPath id="e"><rect width="491" height="252"/></clipPath></defs><g id="d" clip-path="url(#e)"><rect width="491" height="252" fill="#0a0b1c"/><rect width="491" height="255" opacity="0.184" fill="url(#a)"/><g transform="translate(-399.681 -24.397)"><g transform="translate(0 0)" style="mix-blend-mode:overlay;isolation:isolate"><path d="M152.3,200.906c-.054.2-5.577,19.8-21.69,43.732a172.017,172.017,0,0,1-26.444,30.5l3.362,3.894a174.092,174.092,0,0,0,27.352-31.52c16.613-24.68,22.151-44.411,22.38-45.237Z" transform="translate(240.131 -170.08)" fill="#f7d75f"/><path d="M126.645,198.243c.012.205,1.016,20.546-6.647,48.363a172.007,172.007,0,0,1-15.369,37.326l4.425,2.621a173.857,173.857,0,0,0,15.9-38.586c7.9-28.682,6.876-49.146,6.829-50Z" transform="translate(263.727 -166.195)" fill="#f7d75f"/><path d="M93.722,200.906c.05.2,5.577,19.8,21.69,43.732a171.837,171.837,0,0,0,26.444,30.5l-3.362,3.894a174.1,174.1,0,0,1-27.352-31.52c-16.617-24.68-22.151-44.411-22.384-45.237Z" transform="translate(315.273 -170.08)" fill="#f7d75f"/><path d="M101.753,206.207a7.411,7.411,0,1,0-7.353,7.469A7.408,7.408,0,0,0,101.753,206.207Z" transform="translate(362.46 -96.77)" fill="#f7d75f"/><path d="M124.308,202.962a7.411,7.411,0,1,0-7.353,7.469A7.408,7.408,0,0,0,124.308,202.962Z" transform="translate(252.437 -80.941)" fill="#f7d75f"/><path d="M130.851,206.193a7.411,7.411,0,1,0-7.357,7.469A7.414,7.414,0,0,0,130.851,206.193Z" transform="translate(220.52 -96.686)" fill="#f7d75f"/><path d="M100.169,198.243c-.012.205-1.012,20.546,6.651,48.363a171.783,171.783,0,0,0,15.369,37.326l-4.425,2.621a173.973,173.973,0,0,1-15.9-38.586c-7.9-28.682-6.876-49.146-6.829-50Z" transform="translate(310.877 -166.195)" fill="#f7d75f"/><path d="M374.869,233.754c7.543-2.272,14.4-9.687,10.715-19.716-5.189-14.12-27.8-18.087-52.667-11.316-19.181,5.224-35.115,14.833-46.086,20.491s-31.718,12.169-31.718,12.169,9.932-5.639,7.973-19.929c-2.187-15.946-18.3-18.2-24.431-16.4-7.008,2.055-9.928,10.222-5.852,13.565,2.509,2.059,6.3-2.183,12.712-1.07,6.593,1.148,11.312,9.687,5.825,17.059-3.378,4.541-12.813,8.318-28.244,2.66s-52.334-25.463-91.684-30.861-82.3,5.658-82.3,5.658L.508,219.185l2.575,4.882s52.462-17.23,101.325-18.514,68.016,14.562,75.866,27.259c7.632,12.348,11.882,47.7-16.714,54.777-24.947,6.174-35.875-11.572-35.1-24.044.5-8.1,9.385-15.3,18.386-12.088,9.458,3.378.772,11.7,6.426,13.833,4.91,1.854,12.158-4.378,6.306-13.961-7.457-12.216-25.393-9.327-32.149-3.211-5.4,4.882-11.828,16.97-6.042,31.629,5.328,13.5,16.889,25.246,38.831,25.587s42.949-18.514,41.665-43.717c-1.443-28.278-25.591-43.337-25.591-43.337s38.827,20.367,58,23.792c21.6,3.855,44.489-7.461,57.092-13.631s42.623-22.531,61.978-21.8c21.926.838,23.563,10,23.532,12.8-.066,5.74-4.371,8.485-8.229,8.3-7.4-.372-5.014-7.011-9.09-7.139-3.688-.112-5.7,4.7-2.292,9.451C359.4,233.01,366.7,236.217,374.869,233.754Z" transform="translate(412.752 -187.199)" fill="#f7d75f"/><path d="M81.813,251.784a94.435,94.435,0,0,0,45.264-5.895c24.866-10.044,37.776-25.025,37.776-25.025s-15.3,7.647-26.3,9.4-29.989,1.889-40.165,6.379C87.552,241.421,81.813,251.784,81.813,251.784Z" transform="translate(319.208 -220.864)" fill="#f7d75f"/><path d="M29.951,207.839A70.822,70.822,0,0,0,57.462,228.2c18.649,7.512,33.413,6.139,33.413,6.139s-12.243-3.828-19.091-8.6-17.176-14.581-25.005-17.451C38.44,205.233,29.951,207.839,29.951,207.839Z" transform="translate(594.308 -148.362)" fill="#f7d75f"/><path d="M35.2,199.686s-4.553,9.683,7.415,24.148c12.817,15.493,36.566,29.926,36.566,29.926S68.994,239,65.244,231.544s-7.388-15.148-12.906-21.4C46.463,203.483,35.2,199.686,35.2,199.686Z" transform="translate(588.938 -140.081)" fill="#f7d75f"/><path d="M46.123,196.735a70.791,70.791,0,0,1,12.735,31.772c2.544,19.941-2.525,33.874-2.525,33.874s-.6-12.813-3.486-20.647S43.09,221.43,42.3,213.127C41.45,204.285,46.123,196.735,46.123,196.735Z" transform="translate(578.136 -137.258)" fill="#f7d75f"/><path d="M72.411,222.316s24.1,18.742,58.093,22.865c36.4,4.417,61.765-4.983,61.765-4.983s-23.377-.958-37.7-6.127-37.147-17.567-52.3-18.925C86.131,213.707,72.411,222.316,72.411,222.316Z" transform="translate(328.253 -192.006)" fill="#f7d75f"/><path d="M82.041,204.518a111.4,111.4,0,0,0,33.948,41.809c25.479,18.75,48.518,22.442,48.518,22.442s-17.156-10.633-25.727-20.592-20.46-28.949-31.268-36.387C96,203.863,82.041,204.518,82.041,204.518Z" transform="translate(318.67 -173.777)" fill="#f7d75f"/><path d="M100.554,227.781c0-29.771,10.672-34.359,10.672-34.359S121.9,198.01,121.9,227.781s-10.672,73.453-10.672,73.453S100.554,257.557,100.554,227.781Z" transform="translate(289.485 -163.263)" fill="#f7d75f"/><path d="M118.816,233.754c-7.543-2.272-14.4-9.687-10.715-19.716,5.189-14.12,31.745-18.087,52.97-11.572,19,5.832,34.813,15.089,45.784,20.747s31.718,12.169,31.718,12.169-9.932-5.639-7.973-19.929c2.187-15.946,18.3-18.2,24.431-16.4,7.008,2.055,9.932,10.222,5.852,13.565-2.505,2.059-6.3-2.183-12.708-1.07-6.6,1.148-11.316,9.687-5.829,17.059,3.378,4.541,12.813,8.318,28.244,2.66s52.338-25.463,91.684-30.861,82.3,5.658,82.3,5.658l48.607,13.115-2.571,4.882s-52.462-17.23-101.329-18.514-68.016,14.562-75.866,27.259c-7.628,12.348-11.882,47.7,16.718,54.777,24.943,6.174,35.872-11.572,35.1-24.044-.5-8.1-9.389-15.3-18.39-12.088-9.458,3.378-.772,11.7-6.426,13.833-4.91,1.854-12.154-4.378-6.306-13.961,7.461-12.216,25.393-9.327,32.149-3.211,5.4,4.882,11.832,16.97,6.042,31.629-5.328,13.5-16.885,25.246-38.831,25.587s-42.949-18.514-41.661-43.717c1.443-28.278,25.587-43.337,25.587-43.337s-38.823,20.367-57.992,23.792c-21.6,3.855-44.492-7.461-57.092-13.631s-42.627-22.531-61.978-21.8c-21.926.838-23.567,10-23.532,12.8.062,5.74,4.371,8.485,8.229,8.3,7.4-.372,5.014-7.011,9.086-7.139,3.692-.112,5.7,4.7,2.292,9.451C134.289,233.01,126.986,236.217,118.816,233.754Z" transform="translate(-107.073 -187.199)" fill="#f7d75f"/><path d="M186.246,251.784a94.437,94.437,0,0,1-45.264-5.895c-24.862-10.044-37.772-25.025-37.772-25.025s15.3,7.647,26.3,9.4,29.989,1.889,40.165,6.379C180.51,241.421,186.246,251.784,186.246,251.784Z" transform="translate(214.837 -220.864)" fill="#f7d75f"/><path d="M222.406,207.839A70.784,70.784,0,0,1,194.9,228.2c-18.645,7.512-33.413,6.139-33.413,6.139s12.243-3.828,19.1-8.6,17.172-14.581,25-17.451C213.917,205.233,222.406,207.839,222.406,207.839Z" transform="translate(-47.302 -148.362)" fill="#f7d75f"/><path d="M205.212,199.686s4.553,9.683-7.415,24.148c-12.813,15.493-36.566,29.926-36.566,29.926s10.191-14.76,13.938-22.217,7.391-15.148,12.906-21.4C193.951,203.483,205.212,199.686,205.212,199.686Z" transform="translate(-29.988 -140.081)" fill="#f7d75f"/><path d="M173.916,196.735a70.76,70.76,0,0,0-12.732,31.772c-2.548,19.941,2.521,33.874,2.521,33.874s.605-12.813,3.49-20.647,9.757-20.305,10.548-28.608C178.589,204.285,173.916,196.735,173.916,196.735Z" transform="translate(1.187 -137.258)" fill="#f7d75f"/><path d="M223.149,222.316s-24.094,18.742-58.089,22.865C128.657,249.6,103.3,240.2,103.3,240.2s23.377-.958,37.7-6.127,37.147-17.567,52.3-18.925C209.432,213.707,223.149,222.316,223.149,222.316Z" transform="translate(177.605 -192.006)" fill="#f7d75f"/><path d="M185.772,204.518a111.446,111.446,0,0,1-33.948,41.809c-25.479,18.75-48.518,22.442-48.518,22.442s17.156-10.633,25.727-20.592,20.46-28.949,31.268-36.387C171.815,203.863,185.772,204.518,185.772,204.518Z" transform="translate(214.939 -173.777)" fill="#f7d75f"/><path d="M107.953,202.962a7.413,7.413,0,1,0-7.357,7.469A7.414,7.414,0,0,0,107.953,202.962Z" transform="translate(332.232 -80.941)" fill="#f7d75f"/></g><g transform="translate(0 0)" opacity="0.65" style="mix-blend-mode:overlay;isolation:isolate"><path d="M152.3,200.906c-.054.2-5.577,19.8-21.69,43.732a172.017,172.017,0,0,1-26.444,30.5l3.362,3.894a174.092,174.092,0,0,0,27.352-31.52c16.613-24.68,22.151-44.411,22.38-45.237Z" transform="translate(240.131 -170.08)" fill="#f7d75f"/><path d="M126.645,198.243c.012.205,1.016,20.546-6.647,48.363a172.007,172.007,0,0,1-15.369,37.326l4.425,2.621a173.857,173.857,0,0,0,15.9-38.586c7.9-28.682,6.876-49.146,6.829-50Z" transform="translate(263.727 -166.195)" fill="#f7d75f"/><path d="M93.722,200.906c.05.2,5.577,19.8,21.69,43.732a171.837,171.837,0,0,0,26.444,30.5l-3.362,3.894a174.1,174.1,0,0,1-27.352-31.52c-16.617-24.68-22.151-44.411-22.384-45.237Z" transform="translate(315.273 -170.08)" fill="#f7d75f"/><path d="M101.753,206.207a7.411,7.411,0,1,0-7.353,7.469A7.408,7.408,0,0,0,101.753,206.207Z" transform="translate(362.46 -96.77)" fill="#f7d75f"/><path d="M124.308,202.962a7.411,7.411,0,1,0-7.353,7.469A7.408,7.408,0,0,0,124.308,202.962Z" transform="translate(252.437 -80.941)" fill="#f7d75f"/><path d="M130.851,206.193a7.411,7.411,0,1,0-7.357,7.469A7.414,7.414,0,0,0,130.851,206.193Z" transform="translate(220.52 -96.686)" fill="#f7d75f"/><path d="M100.169,198.243c-.012.205-1.012,20.546,6.651,48.363a171.783,171.783,0,0,0,15.369,37.326l-4.425,2.621a173.973,173.973,0,0,1-15.9-38.586c-7.9-28.682-6.876-49.146-6.829-50Z" transform="translate(310.877 -166.195)" fill="#f7d75f"/><path d="M374.869,233.754c7.543-2.272,14.4-9.687,10.715-19.716-5.189-14.12-27.8-18.087-52.667-11.316-19.181,5.224-35.115,14.833-46.086,20.491s-31.718,12.169-31.718,12.169,9.932-5.639,7.973-19.929c-2.187-15.946-18.3-18.2-24.431-16.4-7.008,2.055-9.928,10.222-5.852,13.565,2.509,2.059,6.3-2.183,12.712-1.07,6.593,1.148,11.312,9.687,5.825,17.059-3.378,4.541-12.813,8.318-28.244,2.66s-52.334-25.463-91.684-30.861-82.3,5.658-82.3,5.658L.508,219.185l2.575,4.882s52.462-17.23,101.325-18.514,68.016,14.562,75.866,27.259c7.632,12.348,11.882,47.7-16.714,54.777-24.947,6.174-35.875-11.572-35.1-24.044.5-8.1,9.385-15.3,18.386-12.088,9.458,3.378.772,11.7,6.426,13.833,4.91,1.854,12.158-4.378,6.306-13.961-7.457-12.216-25.393-9.327-32.149-3.211-5.4,4.882-11.828,16.97-6.042,31.629,5.328,13.5,16.889,25.246,38.831,25.587s42.949-18.514,41.665-43.717c-1.443-28.278-25.591-43.337-25.591-43.337s38.827,20.367,58,23.792c21.6,3.855,44.489-7.461,57.092-13.631s42.623-22.531,61.978-21.8c21.926.838,23.563,10,23.532,12.8-.066,5.74-4.371,8.485-8.229,8.3-7.4-.372-5.014-7.011-9.09-7.139-3.688-.112-5.7,4.7-2.292,9.451C359.4,233.01,366.7,236.217,374.869,233.754Z" transform="translate(412.752 -187.199)" fill="#f7d75f"/><path d="M81.813,251.784a94.435,94.435,0,0,0,45.264-5.895c24.866-10.044,37.776-25.025,37.776-25.025s-15.3,7.647-26.3,9.4-29.989,1.889-40.165,6.379C87.552,241.421,81.813,251.784,81.813,251.784Z" transform="translate(319.208 -220.864)" fill="#f7d75f"/><path d="M29.951,207.839A70.822,70.822,0,0,0,57.462,228.2c18.649,7.512,33.413,6.139,33.413,6.139s-12.243-3.828-19.091-8.6-17.176-14.581-25.005-17.451C38.44,205.233,29.951,207.839,29.951,207.839Z" transform="translate(594.308 -148.362)" fill="#f7d75f"/><path d="M35.2,199.686s-4.553,9.683,7.415,24.148c12.817,15.493,36.566,29.926,36.566,29.926S68.994,239,65.244,231.544s-7.388-15.148-12.906-21.4C46.463,203.483,35.2,199.686,35.2,199.686Z" transform="translate(588.938 -140.081)" fill="#f7d75f"/><path d="M46.123,196.735a70.791,70.791,0,0,1,12.735,31.772c2.544,19.941-2.525,33.874-2.525,33.874s-.6-12.813-3.486-20.647S43.09,221.43,42.3,213.127C41.45,204.285,46.123,196.735,46.123,196.735Z" transform="translate(578.136 -137.258)" fill="#f7d75f"/><path d="M72.411,222.316s24.1,18.742,58.093,22.865c36.4,4.417,61.765-4.983,61.765-4.983s-23.377-.958-37.7-6.127-37.147-17.567-52.3-18.925C86.131,213.707,72.411,222.316,72.411,222.316Z" transform="translate(328.253 -192.006)" fill="#f7d75f"/><path d="M82.041,204.518a111.4,111.4,0,0,0,33.948,41.809c25.479,18.75,48.518,22.442,48.518,22.442s-17.156-10.633-25.727-20.592-20.46-28.949-31.268-36.387C96,203.863,82.041,204.518,82.041,204.518Z" transform="translate(318.67 -173.777)" fill="#f7d75f"/><path d="M100.554,227.781c0-29.771,10.672-34.359,10.672-34.359S121.9,198.01,121.9,227.781s-10.672,73.453-10.672,73.453S100.554,257.557,100.554,227.781Z" transform="translate(289.485 -163.263)" fill="#f7d75f"/><path d="M118.816,233.754c-7.543-2.272-14.4-9.687-10.715-19.716,5.189-14.12,31.745-18.087,52.97-11.572,19,5.832,34.813,15.089,45.784,20.747s31.718,12.169,31.718,12.169-9.932-5.639-7.973-19.929c2.187-15.946,18.3-18.2,24.431-16.4,7.008,2.055,9.932,10.222,5.852,13.565-2.505,2.059-6.3-2.183-12.708-1.07-6.6,1.148-11.316,9.687-5.829,17.059,3.378,4.541,12.813,8.318,28.244,2.66s52.338-25.463,91.684-30.861,82.3,5.658,82.3,5.658l48.607,13.115-2.571,4.882s-52.462-17.23-101.329-18.514-68.016,14.562-75.866,27.259c-7.628,12.348-11.882,47.7,16.718,54.777,24.943,6.174,35.872-11.572,35.1-24.044-.5-8.1-9.389-15.3-18.39-12.088-9.458,3.378-.772,11.7-6.426,13.833-4.91,1.854-12.154-4.378-6.306-13.961,7.461-12.216,25.393-9.327,32.149-3.211,5.4,4.882,11.832,16.97,6.042,31.629-5.328,13.5-16.885,25.246-38.831,25.587s-42.949-18.514-41.661-43.717c1.443-28.278,25.587-43.337,25.587-43.337s-38.823,20.367-57.992,23.792c-21.6,3.855-44.492-7.461-57.092-13.631s-42.627-22.531-61.978-21.8c-21.926.838-23.567,10-23.532,12.8.062,5.74,4.371,8.485,8.229,8.3,7.4-.372,5.014-7.011,9.086-7.139,3.692-.112,5.7,4.7,2.292,9.451C134.289,233.01,126.986,236.217,118.816,233.754Z" transform="translate(-107.073 -187.199)" fill="#f7d75f"/><path d="M186.246,251.784a94.437,94.437,0,0,1-45.264-5.895c-24.862-10.044-37.772-25.025-37.772-25.025s15.3,7.647,26.3,9.4,29.989,1.889,40.165,6.379C180.51,241.421,186.246,251.784,186.246,251.784Z" transform="translate(214.837 -220.864)" fill="#f7d75f"/><path d="M222.406,207.839A70.784,70.784,0,0,1,194.9,228.2c-18.645,7.512-33.413,6.139-33.413,6.139s12.243-3.828,19.1-8.6,17.172-14.581,25-17.451C213.917,205.233,222.406,207.839,222.406,207.839Z" transform="translate(-47.302 -148.362)" fill="#f7d75f"/><path d="M205.212,199.686s4.553,9.683-7.415,24.148c-12.813,15.493-36.566,29.926-36.566,29.926s10.191-14.76,13.938-22.217,7.391-15.148,12.906-21.4C193.951,203.483,205.212,199.686,205.212,199.686Z" transform="translate(-29.988 -140.081)" fill="#f7d75f"/><path d="M173.916,196.735a70.76,70.76,0,0,0-12.732,31.772c-2.548,19.941,2.521,33.874,2.521,33.874s.605-12.813,3.49-20.647,9.757-20.305,10.548-28.608C178.589,204.285,173.916,196.735,173.916,196.735Z" transform="translate(1.187 -137.258)" fill="#f7d75f"/><path d="M223.149,222.316s-24.094,18.742-58.089,22.865C128.657,249.6,103.3,240.2,103.3,240.2s23.377-.958,37.7-6.127,37.147-17.567,52.3-18.925C209.432,213.707,223.149,222.316,223.149,222.316Z" transform="translate(177.605 -192.006)" fill="#f7d75f"/><path d="M185.772,204.518a111.446,111.446,0,0,1-33.948,41.809c-25.479,18.75-48.518,22.442-48.518,22.442s17.156-10.633,25.727-20.592,20.46-28.949,31.268-36.387C171.815,203.863,185.772,204.518,185.772,204.518Z" transform="translate(214.939 -173.777)" fill="#f7d75f"/><path d="M107.953,202.962a7.413,7.413,0,1,0-7.357,7.469A7.414,7.414,0,0,0,107.953,202.962Z" transform="translate(332.232 -80.941)" fill="#f7d75f"/></g></g><g transform="translate(292.543 -11.301)" style="mix-blend-mode:overlay;isolation:isolate"><g style="mix-blend-mode:soft-light;isolation:isolate"><path d="M83.971,115.39,137.3,62.06l53.355,53.353,31.03-31.03L137.3,0,52.943,84.358l31.029,31.03M0,137.3l31.031-31.035L62.06,137.294,31.029,168.325Zm83.971,21.914,53.33,53.327,53.354-53.352L221.7,190.2l-.015.016L137.3,274.6,52.943,190.244,52.9,190.2l31.075-30.988m128.567-21.9,31.031-31.031L274.6,137.312l-31.03,31.031Z" fill="url(#b)"/><path d="M1026.165,994.677h.013L994.693,963.19l-23.272,23.265h0l-2.673,2.675-5.514,5.515-.044.043.044.045,31.459,31.464,31.487-31.487.016-.018-.029-.015" transform="translate(-857.392 -857.393)" fill="url(#b)"/></g></g></g></svg>