<svg id="visual" viewBox="0 0 960 540" width="960" height="540" xmlns="http://www.w3.org/2000/svg" xmlns:xlink="http://www.w3.org/1999/xlink" version="1.1"><path d="M0 473L20 474.2C40 475.3 80 477.7 120 476.8C160 476 200 472 240 473.8C280 475.7 320 483.3 360 487.7C400 492 440 493 480 490.7C520 488.3 560 482.7 600 475.8C640 469 680 461 720 457.7C760 454.3 800 455.7 840 458.8C880 462 920 467 940 469.5L960 472L960 541L940 541C920 541 880 541 840 541C800 541 760 541 720 541C680 541 640 541 600 541C560 541 520 541 480 541C440 541 400 541 360 541C320 541 280 541 240 541C200 541 160 541 120 541C80 541 40 541 20 541L0 541Z" fill="#f76060"></path><path d="M0 503L20 501.2C40 499.3 80 495.7 120 494.5C160 493.3 200 494.7 240 492.7C280 490.7 320 485.3 360 484.3C400 483.3 440 486.7 480 488.7C520 490.7 560 491.3 600 491C640 490.7 680 489.3 720 488.8C760 488.3 800 488.7 840 487.8C880 487 920 485 940 484L960 483L960 541L940 541C920 541 880 541 840 541C800 541 760 541 720 541C680 541 640 541 600 541C560 541 520 541 480 541C440 541 400 541 360 541C320 541 280 541 240 541C200 541 160 541 120 541C80 541 40 541 20 541L0 541Z" fill="#f54f4d"></path><path d="M0 500L20 501.7C40 503.3 80 506.7 120 506.2C160 505.7 200 501.3 240 500.7C280 500 320 503 360 501.5C400 500 440 494 480 494C520 494 560 500 600 499.7C640 499.3 680 492.7 720 491C760 489.3 800 492.7 840 493.7C880 494.7 920 493.3 940 492.7L960 492L960 541L940 541C920 541 880 541 840 541C800 541 760 541 720 541C680 541 640 541 600 541C560 541 520 541 480 541C440 541 400 541 360 541C320 541 280 541 240 541C200 541 160 541 120 541C80 541 40 541 20 541L0 541Z" fill="#f23d38"></path><path d="M0 519L20 516.7C40 514.3 80 509.7 120 508C160 506.3 200 507.7 240 509.7C280 511.7 320 514.3 360 514.7C400 515 440 513 480 512C520 511 560 511 600 510.2C640 509.3 680 507.7 720 506.5C760 505.3 800 504.7 840 503.5C880 502.3 920 500.7 940 499.8L960 499L960 541L940 541C920 541 880 541 840 541C800 541 760 541 720 541C680 541 640 541 600 541C560 541 520 541 480 541C440 541 400 541 360 541C320 541 280 541 240 541C200 541 160 541 120 541C80 541 40 541 20 541L0 541Z" fill="#ee2721"></path><path d="M0 520L20 519.7C40 519.3 80 518.7 120 517.7C160 516.7 200 515.3 240 514.5C280 513.7 320 513.3 360 515.7C400 518 440 523 480 525.2C520 527.3 560 526.7 600 525.2C640 523.7 680 521.3 720 519.3C760 517.3 800 515.7 840 515.3C880 515 920 516 940 516.5L960 517L960 541L940 541C920 541 880 541 840 541C800 541 760 541 720 541C680 541 640 541 600 541C560 541 520 541 480 541C440 541 400 541 360 541C320 541 280 541 240 541C200 541 160 541 120 541C80 541 40 541 20 541L0 541Z" fill="#e80000"></path></svg>