<svg id="visual" viewBox="0 0 960 540" width="960" height="540" xmlns="http://www.w3.org/2000/svg" xmlns:xlink="http://www.w3.org/1999/xlink" version="1.1"><path d="M0 491L20 487.5C40 484 80 477 120 475.8C160 474.7 200 479.3 240 480C280 480.7 320 477.3 360 469.8C400 462.3 440 450.7 480 447C520 443.3 560 447.7 600 455.8C640 464 680 476 720 474.7C760 473.3 800 458.7 840 456C880 453.3 920 462.7 940 467.3L960 472L960 541L940 541C920 541 880 541 840 541C800 541 760 541 720 541C680 541 640 541 600 541C560 541 520 541 480 541C440 541 400 541 360 541C320 541 280 541 240 541C200 541 160 541 120 541C80 541 40 541 20 541L0 541Z" fill="#f7d75f"></path><path d="M0 515L20 507.8C40 500.7 80 486.3 120 479.3C160 472.3 200 472.7 240 473C280 473.3 320 473.7 360 478.5C400 483.3 440 492.7 480 489.5C520 486.3 560 470.7 600 463C640 455.3 680 455.7 720 464.5C760 473.3 800 490.7 840 494C880 497.3 920 486.7 940 481.3L960 476L960 541L940 541C920 541 880 541 840 541C800 541 760 541 720 541C680 541 640 541 600 541C560 541 520 541 480 541C440 541 400 541 360 541C320 541 280 541 240 541C200 541 160 541 120 541C80 541 40 541 20 541L0 541Z" fill="#f3c94b"></path><path d="M0 492L20 492.2C40 492.3 80 492.7 120 498C160 503.3 200 513.7 240 514.3C280 515 320 506 360 499.7C400 493.3 440 489.7 480 489.8C520 490 560 494 600 499C640 504 680 510 720 510.3C760 510.7 800 505.3 840 506.5C880 507.7 920 515.3 940 519.2L960 523L960 541L940 541C920 541 880 541 840 541C800 541 760 541 720 541C680 541 640 541 600 541C560 541 520 541 480 541C440 541 400 541 360 541C320 541 280 541 240 541C200 541 160 541 120 541C80 541 40 541 20 541L0 541Z" fill="#f0ba37"></path><path d="M0 504L20 502C40 500 80 496 120 495.8C160 495.7 200 499.3 240 502.7C280 506 320 509 360 509C400 509 440 506 480 502.5C520 499 560 495 600 499.3C640 503.7 680 516.3 720 516.3C760 516.3 800 503.7 840 497C880 490.3 920 489.7 940 489.3L960 489L960 541L940 541C920 541 880 541 840 541C800 541 760 541 720 541C680 541 640 541 600 541C560 541 520 541 480 541C440 541 400 541 360 541C320 541 280 541 240 541C200 541 160 541 120 541C80 541 40 541 20 541L0 541Z" fill="#edab21"></path><path d="M0 514L20 517.7C40 521.3 80 528.7 120 530C160 531.3 200 526.7 240 521.8C280 517 320 512 360 513.2C400 514.3 440 521.7 480 523C520 524.3 560 519.7 600 516.3C640 513 680 511 720 509.7C760 508.3 800 507.7 840 508.5C880 509.3 920 511.7 940 512.8L960 514L960 541L940 541C920 541 880 541 840 541C800 541 760 541 720 541C680 541 640 541 600 541C560 541 520 541 480 541C440 541 400 541 360 541C320 541 280 541 240 541C200 541 160 541 120 541C80 541 40 541 20 541L0 541Z" fill="#ea9c00"></path></svg>