<svg id="visual" viewBox="0 0 1500 540" width="1500" height="540" xmlns="http://www.w3.org/2000/svg" xmlns:xlink="http://www.w3.org/1999/xlink" version="1.1"><path d="M0 393L31.3 402.3C62.7 411.7 125.3 430.3 187.8 430.5C250.3 430.7 312.7 412.3 375.2 416.5C437.7 420.7 500.3 447.3 562.8 451.7C625.3 456 687.7 438 750.2 434C812.7 430 875.3 440 937.8 440.8C1000.3 441.7 1062.7 433.3 1125.2 436.7C1187.7 440 1250.3 455 1312.8 449C1375.3 443 1437.7 416 1468.8 402.5L1500 389L1500 541L1468.8 541C1437.7 541 1375.3 541 1312.8 541C1250.3 541 1187.7 541 1125.2 541C1062.7 541 1000.3 541 937.8 541C875.3 541 812.7 541 750.2 541C687.7 541 625.3 541 562.8 541C500.3 541 437.7 541 375.2 541C312.7 541 250.3 541 187.8 541C125.3 541 62.7 541 31.3 541L0 541Z" fill="#176481"></path><path d="M0 459L31.3 453.2C62.7 447.3 125.3 435.7 187.8 433C250.3 430.3 312.7 436.7 375.2 442.7C437.7 448.7 500.3 454.3 562.8 460.7C625.3 467 687.7 474 750.2 478C812.7 482 875.3 483 937.8 471.3C1000.3 459.7 1062.7 435.3 1125.2 423C1187.7 410.7 1250.3 410.3 1312.8 413.8C1375.3 417.3 1437.7 424.7 1468.8 428.3L1500 432L1500 541L1468.8 541C1437.7 541 1375.3 541 1312.8 541C1250.3 541 1187.7 541 1125.2 541C1062.7 541 1000.3 541 937.8 541C875.3 541 812.7 541 750.2 541C687.7 541 625.3 541 562.8 541C500.3 541 437.7 541 375.2 541C312.7 541 250.3 541 187.8 541C125.3 541 62.7 541 31.3 541L0 541Z" fill="#005986"></path><path d="M0 483L31.3 478C62.7 473 125.3 463 187.8 461.7C250.3 460.3 312.7 467.7 375.2 469.3C437.7 471 500.3 467 562.8 472.3C625.3 477.7 687.7 492.3 750.2 496.5C812.7 500.7 875.3 494.3 937.8 485.8C1000.3 477.3 1062.7 466.7 1125.2 459.5C1187.7 452.3 1250.3 448.7 1312.8 454.2C1375.3 459.7 1437.7 474.3 1468.8 481.7L1500 489L1500 541L1468.8 541C1437.7 541 1375.3 541 1312.8 541C1250.3 541 1187.7 541 1125.2 541C1062.7 541 1000.3 541 937.8 541C875.3 541 812.7 541 750.2 541C687.7 541 625.3 541 562.8 541C500.3 541 437.7 541 375.2 541C312.7 541 250.3 541 187.8 541C125.3 541 62.7 541 31.3 541L0 541Z" fill="#004d88"></path><path d="M0 521L31.3 514.2C62.7 507.3 125.3 493.7 187.8 486.7C250.3 479.7 312.7 479.3 375.2 482.3C437.7 485.3 500.3 491.7 562.8 498.2C625.3 504.7 687.7 511.3 750.2 513.2C812.7 515 875.3 512 937.8 508C1000.3 504 1062.7 499 1125.2 500C1187.7 501 1250.3 508 1312.8 504.3C1375.3 500.7 1437.7 486.3 1468.8 479.2L1500 472L1500 541L1468.8 541C1437.7 541 1375.3 541 1312.8 541C1250.3 541 1187.7 541 1125.2 541C1062.7 541 1000.3 541 937.8 541C875.3 541 812.7 541 750.2 541C687.7 541 625.3 541 562.8 541C500.3 541 437.7 541 375.2 541C312.7 541 250.3 541 187.8 541C125.3 541 62.7 541 31.3 541L0 541Z" fill="#003f87"></path><path d="M0 493L31.3 497.3C62.7 501.7 125.3 510.3 187.8 511.2C250.3 512 312.7 505 375.2 505.7C437.7 506.3 500.3 514.7 562.8 516.3C625.3 518 687.7 513 750.2 508.5C812.7 504 875.3 500 937.8 497.2C1000.3 494.3 1062.7 492.7 1125.2 493.7C1187.7 494.7 1250.3 498.3 1312.8 502.3C1375.3 506.3 1437.7 510.7 1468.8 512.8L1500 515L1500 541L1468.8 541C1437.7 541 1375.3 541 1312.8 541C1250.3 541 1187.7 541 1125.2 541C1062.7 541 1000.3 541 937.8 541C875.3 541 812.7 541 750.2 541C687.7 541 625.3 541 562.8 541C500.3 541 437.7 541 375.2 541C312.7 541 250.3 541 187.8 541C125.3 541 62.7 541 31.3 541L0 541Z" fill="#122f82"></path></svg>