<?xml version="1.0" encoding="UTF-8" standalone="no"?><!DOCTYPE svg PUBLIC "-//W3C//DTD SVG 1.1//EN" "http://www.w3.org/Graphics/SVG/1.1/DTD/svg11.dtd"><svg width="100%" height="100%" viewBox="0 0 218 44" version="1.1" xmlns="http://www.w3.org/2000/svg" xmlns:xlink="http://www.w3.org/1999/xlink" xml:space="preserve" xmlns:serif="http://www.serif.com/" style="fill-rule:evenodd;clip-rule:evenodd;stroke-linejoin:round;stroke-miterlimit:2;"><g><path d="M12.415,25.565c3.229,-3.228 7.713,-3.978 7.713,-3.978c-0,0 -0.749,4.485 -3.977,7.715c-3.229,3.228 -7.714,3.976 -7.714,3.976c-0,0 0.748,-4.485 3.978,-7.713Z" style="fill:#fdd642;fill-rule:nonzero;"/><path d="M6.76,31.348c0.751,0 1.36,-0.608 1.36,-1.358c-0,-0.75 -0.609,-1.358 -1.36,-1.358c-0.751,-0 -1.357,0.608 -1.357,1.358c0,0.75 0.606,1.358 1.357,1.358Z" style="fill:#fdd642;fill-rule:nonzero;"/><path d="M3.786,28.791c0.646,0 1.168,-0.523 1.168,-1.169c0,-0.645 -0.522,-1.169 -1.168,-1.169c-0.645,0 -1.168,0.524 -1.168,1.169c-0,0.646 0.523,1.169 1.168,1.169Z" style="fill:#fdd642;fill-rule:nonzero;"/><path d="M1.626,25.947c0.462,-0 0.836,-0.374 0.836,-0.836c0,-0.462 -0.374,-0.836 -0.836,-0.836c-0.461,-0 -0.836,0.374 -0.836,0.836c0,0.462 0.375,0.836 0.836,0.836Z" style="fill:#fdd642;fill-rule:nonzero;"/><path d="M6.76,11.777c0.751,0 1.36,0.609 1.36,1.359c-0,0.751 -0.609,1.359 -1.36,1.359c-0.751,-0 -1.357,-0.608 -1.357,-1.359c0,-0.75 0.606,-1.359 1.357,-1.359Z" style="fill:#fdd642;fill-rule:nonzero;"/><path d="M3.786,14.334c0.646,0 1.168,0.524 1.168,1.169c0,0.647 -0.522,1.17 -1.168,1.17c-0.645,0 -1.168,-0.523 -1.168,-1.17c-0,-0.645 0.523,-1.169 1.168,-1.169Z" style="fill:#fdd642;fill-rule:nonzero;"/><path d="M1.626,17.18c0.462,-0 0.836,0.374 0.836,0.836c0,0.461 -0.374,0.836 -0.836,0.836c-0.461,-0 -0.836,-0.375 -0.836,-0.836c0,-0.462 0.375,-0.836 0.836,-0.836Z" style="fill:#fdd642;fill-rule:nonzero;"/><path d="M10.057,16.302c-4.87,0.888 -9.543,4.829 -10.057,5.273c0.514,0.445 5.187,4.386 10.057,5.275c0.69,-1.079 1.518,-2.157 2.513,-3.152c0.759,-0.758 1.568,-1.416 2.388,-1.995c-1.286,0.082 -3.191,0.172 -5.321,0.172c-3.871,0 -7.01,-0.3 -7.01,-0.3c0,0 3.139,-0.298 7.01,-0.298c2.13,-0 4.035,0.09 5.321,0.172c-0.82,-0.579 -1.629,-1.236 -2.388,-1.995c-0.995,-0.995 -1.823,-2.072 -2.513,-3.152Z" style="fill:#fdd642;fill-rule:nonzero;"/><path d="M12.415,17.599c3.229,3.228 7.713,3.978 7.713,3.978c-0,-0 -0.749,-4.486 -3.977,-7.715c-3.229,-3.229 -7.714,-3.978 -7.714,-3.978c-0,0 0.748,4.485 3.978,7.715Z" style="fill:#fdd642;fill-rule:nonzero;"/><path d="M36.921,12.904c2.054,4.148 6.118,6.322 6.118,6.322c0,-0 0.736,-4.55 -1.316,-8.697c-2.054,-4.148 -6.118,-6.323 -6.118,-6.323c-0,-0 -0.736,4.551 1.316,8.698Z" style="fill:#fdd642;fill-rule:nonzero;"/><path d="M56.993,34.35c3.512,-2.053 5.172,-5.752 5.172,-5.752c0,-0 -4.035,-0.371 -7.547,1.681c-3.512,2.052 -5.173,5.751 -5.173,5.751c0,0 4.036,0.371 7.548,-1.68Z" style="fill:#fdd642;fill-rule:nonzero;"/><path d="M95.025,34.882c1.603,-3.485 0.883,-7.24 0.883,-7.24c-0,0 -3.319,1.895 -4.922,5.38c-1.603,3.486 -0.883,7.24 -0.883,7.24c0,0 3.32,-1.894 4.922,-5.38Z" style="fill:#fdd642;fill-rule:nonzero;"/><path d="M74.668,38.915c3.173,-3.367 3.796,-7.934 3.796,-7.934c0,0 -4.52,0.889 -7.693,4.256c-3.173,3.366 -3.797,7.933 -3.797,7.933c-0,0 4.521,-0.89 7.694,-4.255Z" style="fill:#fdd642;fill-rule:nonzero;"/><path d="M42.326,18.648c-0,0 12.01,10.884 31.577,12.439c19.568,1.555 34.769,-9.502 34.769,-9.502c0,0 -15.22,7.86 -32.268,7.602c-14.853,-0.226 -29.733,-8.393 -33.307,-10.407c-0.529,-0.296 -0.771,-0.132 -0.771,-0.132Z" style="fill:#fdd642;fill-rule:nonzero;"/><path d="M36.921,30.266c2.053,-4.147 6.117,-6.322 6.117,-6.322c0,0 0.736,4.551 -1.317,8.698c-2.052,4.149 -6.116,6.323 -6.116,6.323c-0,-0 -0.736,-4.551 1.316,-8.699Z" style="fill:#fdd642;fill-rule:nonzero;"/><path d="M56.993,8.822c3.512,2.051 5.172,5.751 5.172,5.751c0,-0 -4.035,0.371 -7.547,-1.682c-3.513,-2.052 -5.173,-5.75 -5.173,-5.75c0,0 4.035,-0.372 7.548,1.681Z" style="fill:#fdd642;fill-rule:nonzero;"/><path d="M95.025,8.289c1.603,3.485 0.883,7.24 0.883,7.24c-0,-0 -3.319,-1.896 -4.922,-5.381c-1.603,-3.485 -0.883,-7.24 -0.883,-7.24c0,-0 3.319,1.895 4.922,5.381Z" style="fill:#fdd642;fill-rule:nonzero;"/><path d="M74.667,4.257c3.173,3.365 3.796,7.933 3.796,7.933c0,0 -4.52,-0.89 -7.693,-4.256c-3.173,-3.366 -3.796,-7.934 -3.796,-7.934c-0,-0 4.52,0.89 7.693,4.257Z" style="fill:#fdd642;fill-rule:nonzero;"/><path d="M42.326,24.523c-0,-0 12.009,-10.885 31.576,-12.44c19.569,-1.555 34.769,9.503 34.769,9.503c-0,0 -15.219,-7.861 -32.268,-7.603c-14.944,0.228 -29.873,8.468 -33.331,10.422c-0.487,0.274 -0.746,0.118 -0.746,0.118Z" style="fill:#fdd642;fill-rule:nonzero;"/><rect x="19.763" y="20.772" width="88.909" height="1.567" style="fill:#fdd642;"/><path d="M111.912,21.555c-0,1.732 -1.404,3.136 -3.136,3.136c-1.731,-0 -3.135,-1.404 -3.135,-3.136c-0,-1.73 1.404,-3.134 3.135,-3.134c1.732,-0 3.136,1.404 3.136,3.134Z" style="fill:#fdd642;fill-rule:nonzero;"/><path d="M204.929,25.565c-3.229,-3.228 -7.714,-3.977 -7.714,-3.977c0,0 0.749,4.486 3.977,7.714c3.229,3.228 7.714,3.976 7.714,3.976c0,0 -0.748,-4.485 -3.977,-7.713Z" style="fill:#fdd642;fill-rule:nonzero;"/><path d="M210.582,31.348c-0.75,0 -1.359,-0.607 -1.359,-1.358c0,-0.75 0.609,-1.358 1.359,-1.358c0.75,-0 1.359,0.608 1.359,1.358c-0,0.751 -0.609,1.358 -1.359,1.358Z" style="fill:#fdd642;fill-rule:nonzero;"/><path d="M213.556,28.792c-0.644,0 -1.167,-0.523 -1.167,-1.17c-0,-0.644 0.523,-1.169 1.167,-1.169c0.647,0 1.17,0.525 1.17,1.169c0,0.647 -0.523,1.17 -1.17,1.17Z" style="fill:#fdd642;fill-rule:nonzero;"/><path d="M215.718,25.948c-0.463,0 -0.837,-0.375 -0.837,-0.837c-0,-0.462 0.374,-0.836 0.837,-0.836c0.461,-0 0.836,0.374 0.836,0.836c-0,0.462 -0.375,0.837 -0.836,0.837Z" style="fill:#fdd642;fill-rule:nonzero;"/><path d="M210.582,11.777c-0.75,0 -1.359,0.609 -1.359,1.36c0,0.75 0.609,1.358 1.359,1.358c0.75,-0 1.359,-0.608 1.359,-1.358c-0,-0.751 -0.609,-1.36 -1.359,-1.36Z" style="fill:#fdd642;fill-rule:nonzero;"/><path d="M213.556,14.335c-0.644,0 -1.167,0.524 -1.167,1.169c-0,0.646 0.523,1.169 1.167,1.169c0.647,0 1.17,-0.523 1.17,-1.169c0,-0.645 -0.523,-1.169 -1.17,-1.169Z" style="fill:#fdd642;fill-rule:nonzero;"/><path d="M215.718,17.18c-0.463,-0 -0.837,0.374 -0.837,0.836c-0,0.461 0.374,0.836 0.837,0.836c0.461,-0 0.836,-0.375 0.836,-0.836c-0,-0.462 -0.375,-0.836 -0.836,-0.836Z" style="fill:#fdd642;fill-rule:nonzero;"/><path d="M207.288,16.302c4.868,0.889 9.54,4.83 10.056,5.275c-0.516,0.444 -5.188,4.385 -10.056,5.273c-0.692,-1.079 -1.52,-2.156 -2.515,-3.152c-0.758,-0.758 -1.567,-1.416 -2.388,-1.994c1.286,0.081 3.192,0.171 5.321,0.171c3.871,0 7.01,-0.298 7.01,-0.298c-0,-0 -3.139,-0.3 -7.01,-0.3c-2.129,-0 -4.035,0.09 -5.321,0.172c0.821,-0.579 1.63,-1.236 2.388,-1.995c0.995,-0.995 1.823,-2.072 2.515,-3.152Z" style="fill:#fdd642;fill-rule:nonzero;"/><path d="M204.929,17.599c-3.229,3.229 -7.714,3.978 -7.714,3.978c0,-0 0.749,-4.486 3.977,-7.715c3.229,-3.228 7.714,-3.977 7.714,-3.977c0,0 -0.748,4.486 -3.977,7.714Z" style="fill:#fdd642;fill-rule:nonzero;"/><path d="M180.422,12.905c-2.053,4.147 -6.117,6.321 -6.117,6.321c-0,-0 -0.736,-4.549 1.316,-8.697c2.053,-4.148 6.117,-6.322 6.117,-6.322c0,-0 0.736,4.55 -1.316,8.698Z" style="fill:#fdd642;fill-rule:nonzero;"/><path d="M160.351,34.35c-3.513,-2.052 -5.172,-5.751 -5.172,-5.751c-0,-0 4.034,-0.372 7.546,1.68c3.513,2.052 5.174,5.751 5.174,5.751c-0,0 -4.036,0.371 -7.548,-1.68Z" style="fill:#fdd642;fill-rule:nonzero;"/><path d="M122.318,34.882c-1.603,-3.485 -0.883,-7.24 -0.883,-7.24c0,0 3.319,1.895 4.922,5.38c1.603,3.486 0.883,7.241 0.883,7.241c-0,0 -3.319,-1.895 -4.922,-5.381Z" style="fill:#fdd642;fill-rule:nonzero;"/><path d="M142.676,38.915c-3.173,-3.367 -3.797,-7.934 -3.797,-7.934c-0,0 4.52,0.89 7.694,4.256c3.173,3.366 3.796,7.933 3.796,7.933c0,0 -4.52,-0.889 -7.693,-4.255Z" style="fill:#fdd642;fill-rule:nonzero;"/><path d="M175.017,18.648c0,0 -12.009,10.884 -31.577,12.439c-19.568,1.555 -34.768,-9.501 -34.768,-9.501c0,0 15.219,7.86 32.268,7.601c14.949,-0.228 29.883,-8.472 33.335,-10.423c0.485,-0.273 0.742,-0.116 0.742,-0.116Z" style="fill:#fdd642;fill-rule:nonzero;"/><path d="M180.422,30.266c-2.053,-4.147 -6.117,-6.321 -6.117,-6.321c-0,0 -0.735,4.55 1.316,8.697c2.053,4.149 6.117,6.323 6.117,6.323c0,-0 0.737,-4.551 -1.316,-8.699Z" style="fill:#fdd642;fill-rule:nonzero;"/><path d="M160.351,8.822c-3.513,2.051 -5.172,5.751 -5.172,5.751c-0,-0 4.034,0.371 7.546,-1.681c3.513,-2.053 5.174,-5.751 5.174,-5.751c-0,0 -4.035,-0.371 -7.548,1.681Z" style="fill:#fdd642;fill-rule:nonzero;"/><path d="M122.318,8.289c-1.602,3.485 -0.881,7.24 -0.881,7.24c-0,-0 3.318,-1.894 4.921,-5.38c1.603,-3.485 0.883,-7.241 0.883,-7.241c-0,-0 -3.319,1.895 -4.923,5.381Z" style="fill:#fdd642;fill-rule:nonzero;"/><path d="M142.677,4.257c-3.174,3.366 -3.797,7.933 -3.797,7.933c-0,0 4.52,-0.89 7.693,-4.255c3.173,-3.367 3.796,-7.934 3.796,-7.934c0,0 -4.52,0.889 -7.692,4.256Z" style="fill:#fdd642;fill-rule:nonzero;"/><path d="M175.018,24.523c0,-0 -12.009,-10.884 -31.577,-12.439c-19.568,-1.555 -34.769,9.502 -34.769,9.502c0,0 15.219,-7.861 32.268,-7.602c14.957,0.228 29.898,8.481 33.34,10.425c0.482,0.272 0.738,0.114 0.738,0.114Z" style="fill:#fdd642;fill-rule:nonzero;"/><rect x="108.672" y="20.772" width="88.909" height="1.568" style="fill:#fdd642;"/></g></svg>