<svg xmlns="http://www.w3.org/2000/svg" xmlns:xlink="http://www.w3.org/1999/xlink" width="1118.477" height="161.455" viewBox="0 0 1118.477 161.455"><defs><linearGradient id="a" x1="0.5" x2="0.5" y2="1" gradientUnits="objectBoundingBox"><stop offset="0" stop-color="#fff"/><stop offset="1" stop-color="#fff" stop-opacity="0"/></linearGradient></defs><path d="M19.766,0V-157.051h33.3V-27.5h63.7V0ZM269.736-157.051V-55.43q0,17.4-7.788,30.508a50.686,50.686,0,0,1-22.5,20.088q-14.717,6.982-34.8,6.982-30.293,0-47.051-15.522T140.83-55.859V-157.051h33.193v96.143q0,18.154,7.3,26.641t24.17,8.486q16.328,0,23.687-8.54t7.358-26.8v-95.928ZM374.9-131.592q-18.8,0-29.111,14.126T335.479-78.1q0,52.529,39.424,52.529,16.543,0,40.068-8.271v27.93q-19.336,8.057-43.184,8.057-34.268,0-52.422-20.786T301.211-78.311q0-24.492,8.916-42.915a64.44,64.44,0,0,1,25.62-28.252q16.7-9.829,39.155-9.829,22.881,0,45.977,11.064l-10.742,27.07a177.817,177.817,0,0,0-17.725-7.3A52.876,52.876,0,0,0,374.9-131.592ZM574.707,0H536.895L495.752-66.172l-14.072,10.1V0h-33.3V-157.051h33.3v71.865l13.105-18.477,42.539-53.389h36.953l-54.785,69.5ZM643.35-92.383l32.764-64.668h35.879l-52.1,95.928V0H626.807V-60.049l-52.1-97H610.8Zm188.74-66.709q22.559,0,36.362,10.259t13.8,27.661a36.15,36.15,0,0,1-6.66,21.431q-6.66,9.4-21.484,16.812,17.617,9.453,25.3,19.712a36.723,36.723,0,0,1,7.681,22.5q0,19.336-15.146,31.1T832.09,2.148q-25.781,0-40.5-10.957T776.875-39.854A41.163,41.163,0,0,1,784.019-63.7q7.144-10.42,22.935-18.369-13.428-8.486-19.336-18.154a39.819,39.819,0,0,1-5.908-21.162q0-16.865,13.965-27.285T832.09-159.092ZM807.6-41.787q0,9.238,6.445,14.395t17.617,5.156q12.353,0,18.477-5.317a17.662,17.662,0,0,0,6.123-14.019q0-7.2-6.069-13.481T830.479-68.428Q807.6-57.9,807.6-41.787Zm24.277-93.027q-8.486,0-13.7,4.351a14.408,14.408,0,0,0-5.21,11.655,17.852,17.852,0,0,0,4.136,11.548q4.136,5.1,14.985,10.474,10.527-4.941,14.717-10.1A18.361,18.361,0,0,0,851-118.809a14.191,14.191,0,0,0-5.371-11.709Q840.254-134.814,831.875-134.814Zm125.791-24.277q22.559,0,36.362,10.259t13.8,27.661a36.15,36.15,0,0,1-6.66,21.431q-6.66,9.4-21.484,16.812,17.617,9.453,25.3,19.712a36.723,36.723,0,0,1,7.681,22.5q0,19.336-15.146,31.1T957.666,2.148q-25.781,0-40.5-10.957T902.451-39.854A41.163,41.163,0,0,1,909.595-63.7q7.144-10.42,22.935-18.369-13.428-8.486-19.336-18.154a39.819,39.819,0,0,1-5.908-21.162q0-16.865,13.965-27.285T957.666-159.092Zm-24.492,117.3q0,9.238,6.445,14.395t17.617,5.156q12.353,0,18.477-5.317a17.662,17.662,0,0,0,6.123-14.019q0-7.2-6.069-13.481T956.055-68.428Q933.174-57.9,933.174-41.787Zm24.277-93.027q-8.486,0-13.7,4.351a14.408,14.408,0,0,0-5.21,11.655,17.852,17.852,0,0,0,4.136,11.548q4.136,5.1,14.985,10.474,10.527-4.941,14.717-10.1a18.361,18.361,0,0,0,4.189-11.924,14.191,14.191,0,0,0-5.371-11.709Q965.83-134.814,957.451-134.814Zm125.791-24.277q22.559,0,36.362,10.259t13.8,27.661a36.151,36.151,0,0,1-6.66,21.431q-6.66,9.4-21.484,16.812,17.617,9.453,25.3,19.712a36.723,36.723,0,0,1,7.681,22.5q0,19.336-15.146,31.1T1083.242,2.148q-25.781,0-40.5-10.957t-14.717-31.045a41.163,41.163,0,0,1,7.144-23.848q7.143-10.42,22.935-18.369-13.428-8.486-19.336-18.154a39.818,39.818,0,0,1-5.908-21.162q0-16.865,13.965-27.285T1083.242-159.092Zm-24.492,117.3q0,9.238,6.445,14.395t17.617,5.156q12.354,0,18.477-5.317a17.662,17.662,0,0,0,6.123-14.019q0-7.2-6.069-13.481t-19.712-13.374Q1058.75-57.9,1058.75-41.787Zm24.277-93.027q-8.486,0-13.7,4.351a14.408,14.408,0,0,0-5.21,11.655,17.851,17.851,0,0,0,4.136,11.548q4.136,5.1,14.985,10.474,10.527-4.941,14.717-10.1a18.361,18.361,0,0,0,4.189-11.924,14.191,14.191,0,0,0-5.371-11.709Q1091.406-134.814,1083.027-134.814Z" transform="translate(-19.766 159.307)" fill="url(#a)"/></svg>