<?xml version="1.0" encoding="UTF-8" standalone="no"?><!DOCTYPE svg PUBLIC "-//W3C//DTD SVG 1.1//EN" "http://www.w3.org/Graphics/SVG/1.1/DTD/svg11.dtd"><svg width="100%" height="100%" viewBox="0 0 208 41" version="1.1" xmlns="http://www.w3.org/2000/svg" xmlns:xlink="http://www.w3.org/1999/xlink" xml:space="preserve" xmlns:serif="http://www.serif.com/" style="fill-rule:evenodd;clip-rule:evenodd;stroke-linejoin:round;stroke-miterlimit:2;"><g><path d="M20.69,37.727c0,0 -2.823,1.482 -9.18,1.482c-6.357,0 -11.51,-1.482 -11.51,-1.482c-0,0 5.153,-1.483 11.51,-1.483c6.357,-0 9.18,1.483 9.18,1.483Z" style="fill:#fdd642;fill-rule:nonzero;"/><path d="M103.674,38.828c0,0 -3.514,1.857 -11.425,1.857c-7.91,0 -14.323,-1.857 -14.323,-1.857c-0,0 6.413,-1.856 14.323,-1.856c7.911,-0 11.425,1.856 11.425,1.856Z" style="fill:#fdd642;fill-rule:nonzero;"/><path d="M101.014,3.681c-1.008,1.23 -2.04,2.317 -3.046,3.236c1.025,0.93 2.079,2.037 3.108,3.292c0.998,1.219 1.88,2.465 2.628,3.681c0.748,-1.216 1.631,-2.462 2.63,-3.681c1.008,-1.23 2.039,-2.317 3.045,-3.235c-1.025,-0.931 -2.078,-2.038 -3.107,-3.293c-0.998,-1.219 -1.881,-2.465 -2.629,-3.681c-0.748,1.216 -1.631,2.462 -2.629,3.681Z" style="fill:#fdd642;fill-rule:nonzero;"/><path d="M13.298,32.226c0.071,0.726 0.09,1.412 0.061,2.035c0.634,-0.031 1.334,-0.013 2.073,0.06c0.718,0.072 1.408,0.189 2.044,0.341c-0.151,-0.637 -0.269,-1.326 -0.34,-2.043c-0.072,-0.726 -0.09,-1.412 -0.062,-2.036c-0.634,0.031 -1.333,0.014 -2.073,-0.06c-0.718,-0.071 -1.408,-0.189 -2.044,-0.34c0.152,0.636 0.269,1.326 0.341,2.043Z" style="fill:#fdd642;fill-rule:nonzero;"/><path d="M186.452,37.708c0,0 2.824,1.483 9.181,1.483c6.357,0 11.51,-1.483 11.51,-1.483c0,0 -5.153,-1.483 -11.51,-1.483c-6.357,-0 -9.181,1.483 -9.181,1.483Z" style="fill:#fdd642;fill-rule:nonzero;"/><path d="M103.469,38.828c-0,0 3.513,1.857 11.424,1.857c7.911,0 14.323,-1.857 14.323,-1.857c0,0 -6.412,-1.856 -14.323,-1.856c-7.911,-0 -11.424,1.856 -11.424,1.856Z" style="fill:#fdd642;fill-rule:nonzero;"/><path d="M106.558,12.469c-1.887,2.684 -2.625,5.772 -2.884,8.284c-0.259,-2.512 -0.998,-5.6 -2.885,-8.284c-3.612,-5.138 -8.82,-5.513 -9.512,-5.859c0,0 3.742,2.046 7.787,8.147c4.078,6.149 4.608,10.857 4.608,10.857c0.004,0 0.534,-4.708 4.611,-10.857c4.045,-6.101 7.787,-8.147 7.787,-8.147c-0.691,0.346 -5.9,0.721 -9.512,5.859Z" style="fill:#fdd642;fill-rule:nonzero;"/><path d="M193.845,32.208c-0.072,0.725 -0.09,1.411 -0.061,2.034c-0.634,-0.031 -1.334,-0.013 -2.074,0.061c-0.718,0.071 -1.407,0.188 -2.044,0.34c0.152,-0.636 0.27,-1.325 0.341,-2.043c0.072,-0.726 0.09,-1.412 0.062,-2.035c0.633,0.031 1.333,0.013 2.073,-0.061c0.718,-0.071 1.408,-0.188 2.043,-0.34c-0.151,0.636 -0.269,1.326 -0.34,2.044Z" style="fill:#fdd642;fill-rule:nonzero;"/><path d="M115.927,18.458c-7.491,4.099 -10.216,11.143 -10.216,11.143c0.663,-2.575 3.424,-8.849 9.461,-12.191c6.099,-3.377 12.162,-1.273 15.337,-0.117c-3.323,-1.071 -8.926,-1.929 -14.582,1.165Zm22.275,-0.528c-0.397,-4.86 -7.543,-4.695 -7.543,-4.695c-0,-0 1.224,-1.64 0.281,-2.851c-1.625,-2.087 -6.623,1.761 -6.623,1.761c-0,-0 0.399,-3.038 -1.683,-3.038c-2.727,-0 -5.828,4.91 -5.828,4.91c-0,-0 0.127,-2.333 -1.683,-2.291c-2.47,0.056 -5.989,4.972 -8.09,9.539c-3.241,7.041 -3.482,15.608 -3.482,15.612c0,-0 0.008,-0.026 0.025,-0.078c0.346,-1.076 4.333,-12.926 13.255,-17.192c8.036,-3.843 15.998,-0.338 18.079,0.723c0.58,0.296 1.235,0.387 1.852,0.208c0.777,-0.226 1.582,-0.872 1.44,-2.608Z" style="fill:#fdd642;fill-rule:nonzero;"/><path d="M91.162,18.458c-5.657,-3.094 -11.259,-2.236 -14.582,-1.165c3.175,-1.156 9.238,-3.26 15.337,0.117c6.037,3.342 8.798,9.616 9.461,12.191c-0,-0 -2.725,-7.044 -10.216,-11.143Zm8.907,2.807c-2.102,-4.567 -5.62,-9.483 -8.091,-9.539c-1.81,-0.042 -1.683,2.291 -1.683,2.291c0,-0 -3.1,-4.91 -5.827,-4.91c-2.083,-0 -1.683,3.038 -1.683,3.038c0,-0 -4.999,-3.848 -6.624,-1.761c-0.943,1.211 0.282,2.851 0.282,2.851c0,-0 -7.146,-0.165 -7.544,4.695c-0.142,1.736 0.663,2.382 1.441,2.608c0.616,0.179 1.272,0.088 1.852,-0.208c2.08,-1.061 10.043,-4.566 18.078,-0.723c8.923,4.266 12.91,16.116 13.256,17.192c0.017,0.052 0.025,0.078 0.025,0.078c-0,-0.004 -0.241,-8.571 -3.482,-15.612Z" style="fill:#fdd642;fill-rule:nonzero;"/><path d="M71.568,28.868c-13.797,0.228 -27.398,4.623 -33.71,7.071c5.947,-2.445 20.135,-8.442 35.037,-8.657c14.751,-0.213 23.166,5.388 24.667,6.646c0,0 -7.722,-5.363 -25.994,-5.06Zm18.657,-2.874c-8.18,-4.884 -13.064,-5.504 -15.982,-4.31c-2.471,1.01 -1.688,3.604 -1.688,3.604c0,0 -8.478,-2.782 -11.73,-1.328c-2.52,1.127 -1.393,3.647 -1.393,3.647c0,0 -7.062,-2.089 -9.449,-0.828c-2.388,1.259 -0.211,3.526 -0.211,3.526c0,0 -5.504,0.398 -12.224,4.287c-6.599,3.822 -11.782,1.879 -13.042,0.752c-1.26,-1.127 -2.82,-3.817 -1.845,-6.609c1.227,-3.515 4.553,-2.515 4.818,-3.775c0.266,-1.26 -2.365,-3.486 -5.846,-0.834c-2.585,1.969 -3.294,7.571 -0.509,11.218c2.786,3.647 8.444,4.554 13.374,3.183c7.847,-2.181 11.892,-2.211 11.892,-2.211c0,0 -1.66,2.628 0.465,3.537c2.995,1.283 10.743,-3.183 10.743,-3.183c0,0 -0.122,1.515 1.403,2.078c3.003,1.11 10.91,-4.642 10.91,-4.642c0,-0 -1.194,2.564 1.458,2.83c2.653,0.265 3.426,-1.872 9.417,-3.007c11.615,-2.199 21.432,4.05 22.749,4.936c0.013,-0.019 0.029,-0.045 0.045,-0.07c-0.733,-1.16 -5.251,-7.963 -13.355,-12.801Z" style="fill:#fdd642;fill-rule:nonzero;"/><path d="M135.602,28.852c-18.272,-0.303 -25.993,5.06 -25.993,5.06c1.484,-1.195 9.915,-6.859 24.667,-6.646c14.902,0.215 29.09,6.212 35.037,8.657c-6.312,-2.447 -19.913,-6.843 -33.711,-7.071Zm49.936,-4.742c-3.482,-2.652 -6.112,-0.426 -5.847,0.834c0.265,1.26 3.593,0.261 4.819,3.775c0.975,2.793 -0.585,5.482 -1.846,6.61c-1.259,1.127 -6.442,3.069 -13.042,-0.752c-6.72,-3.89 -12.224,-4.288 -12.224,-4.288c-0,0 2.178,-2.266 -0.21,-3.526c-2.387,-1.26 -9.45,0.829 -9.45,0.829c-0,0 1.128,-2.52 -1.392,-3.647c-3.252,-1.455 -11.73,1.327 -11.73,1.327c-0,0 0.783,-2.593 -1.688,-3.604c-2.919,-1.194 -7.802,-0.574 -15.982,4.31c-8.154,4.868 -12.675,11.721 -13.366,12.82c0.015,0.023 0.027,0.044 0.039,0.062c1.252,-0.844 11.103,-7.155 22.766,-4.946c5.991,1.134 6.764,3.271 9.416,3.006c2.653,-0.265 1.459,-2.83 1.459,-2.83c-0,0 7.907,5.752 10.909,4.642c1.525,-0.563 1.404,-2.077 1.404,-2.077c-0,-0 7.748,4.465 10.743,3.183c2.124,-0.909 0.464,-3.537 0.464,-3.537c-0,-0 4.046,0.029 11.893,2.211c4.929,1.37 10.589,0.464 13.374,-3.183c2.785,-3.647 2.076,-9.249 -0.509,-11.219Z" style="fill:#fdd642;fill-rule:nonzero;"/></g></svg>