<svg xmlns="http://www.w3.org/2000/svg" xmlns:xlink="http://www.w3.org/1999/xlink" width="612.776" height="106.413" viewBox="0 0 612.776 106.413"><defs><linearGradient id="a" x1="0.5" x2="0.5" y2="1" gradientUnits="objectBoundingBox"><stop offset="0" stop-color="#fff"/><stop offset="1" stop-color="#fff" stop-opacity="0"/></linearGradient></defs><path d="M78.35-95.365q0,14.018-10.089,22.09T40.189-65.2q-16.567,0-29.311-6.23v-20.39A120.788,120.788,0,0,0,28.613-85.24a52.48,52.48,0,0,0,13.275,1.912q7.222,0,11.08-2.761T56.827-94.3a9.066,9.066,0,0,0-1.7-5.416,19.014,19.014,0,0,0-4.991-4.567,128.374,128.374,0,0,0-13.417-7.009q-9.487-4.46-14.231-8.567a32.16,32.16,0,0,1-7.576-9.558,27.276,27.276,0,0,1-2.832-12.744q0-13.735,9.31-21.594t25.736-7.859a60.774,60.774,0,0,1,15.4,1.912,105.851,105.851,0,0,1,15.328,5.381l-7.08,17.063a103.585,103.585,0,0,0-13.7-4.744A44.1,44.1,0,0,0,46.42-153.35q-6.23,0-9.558,2.9a9.575,9.575,0,0,0-3.328,7.576,9.375,9.375,0,0,0,1.345,5.062,14.791,14.791,0,0,0,4.283,4.177q2.938,2.018,13.912,7.257,14.514,6.938,19.895,13.912T78.35-95.365ZM137.044-66.62H115.1v-85.243H86.988V-170.13h78.163v18.266H137.044Zm107.4,0-7.5-24.638H199.206L191.7-66.62H168.054l36.533-103.935H231.42L268.095-66.62ZM231.7-109.667q-10.408-33.488-11.717-37.878t-1.876-6.938q-2.336,9.062-13.381,44.816ZM364.383-66.62H339.462l-27.116-43.613-9.275,6.655V-66.62H281.122V-170.13H303.07v47.365l8.638-12.178,28.037-35.188H364.1l-36.108,45.808Zm13.027,0V-170.13h21.948V-66.62Zm139.83,0h-27.9l-45.029-78.3h-.637q1.345,20.744,1.345,29.594V-66.62H425.413V-170.13H453.1L498.054-92.6h.5q-1.062-20.178-1.062-28.532V-170.13h19.753Zm65.349-58.127h41.064V-71.08a115.77,115.77,0,0,1-18.8,4.567,122.439,122.439,0,0,1-18.019,1.31q-23.435,0-35.79-13.771t-12.355-39.542q0-25.063,14.337-39.082t39.754-14.018a76.919,76.919,0,0,1,30.727,6.372l-7.292,17.558a52.084,52.084,0,0,0-23.577-5.664q-14.231,0-22.8,9.558t-8.567,25.7q0,16.85,6.9,25.736t20.072,8.885A71,71,0,0,0,602.2-84.886v-21.594H582.589Z" transform="translate(-10.878 171.617)" fill="url(#a)"/></svg>