<svg id="twitter" xmlns="http://www.w3.org/2000/svg" width="39.087" height="31.759" viewBox="0 0 39.087 31.759">
  <g id="Group_23" data-name="Group 23" transform="translate(0 0)">
    <path id="Path_4" data-name="Path 4" d="M39.087,51.76a16.707,16.707,0,0,1-4.617,1.265A7.968,7.968,0,0,0,38,48.6a16.014,16.014,0,0,1-5.081,1.94,8.013,8.013,0,0,0-13.861,5.48,8.251,8.251,0,0,0,.186,1.827A22.681,22.681,0,0,1,2.721,49.461a8.015,8.015,0,0,0,2.462,10.71,7.914,7.914,0,0,1-3.62-.987v.088a8.05,8.05,0,0,0,6.42,7.874,8,8,0,0,1-2.1.264,7.086,7.086,0,0,1-1.517-.137,8.089,8.089,0,0,0,7.488,5.582,16.1,16.1,0,0,1-9.935,3.418A15.01,15.01,0,0,1,0,76.162a22.559,22.559,0,0,0,12.293,3.6c14.746,0,22.807-12.215,22.807-22.8,0-.354-.012-.7-.029-1.036A15.986,15.986,0,0,0,39.087,51.76Z" transform="translate(0 -48)" fill="#fff"/>
  </g>
</svg>
