<svg xmlns="http://www.w3.org/2000/svg" width="511.789" height="484.957" viewBox="0 0 511.789 484.957"><g transform="translate(0 -13.416)"><path d="M467.492,498.373H44.3A43.853,43.853,0,0,1,5.975,476.292c-7.85-13.545-7.97-29.521-.33-43.836l211.6-396.372c7.577-14.194,22.026-22.668,38.649-22.668s31.072,8.474,38.65,22.668h0l211.6,396.371c7.642,14.314,7.521,30.293-.33,43.837A43.849,43.849,0,0,1,467.492,498.373Z" fill="#ff4842"/><path d="M506.143,432.455,294.544,36.084c-7.578-14.194-22.026-22.668-38.65-22.668V498.373h211.6a43.848,43.848,0,0,0,38.32-22.081C513.663,462.748,513.784,446.769,506.143,432.455Z" fill="#e10000"/><path d="M255.9,433.392a40,40,0,1,1,40-40A40.045,40.045,0,0,1,255.9,433.392Z" fill="#fff"/><path d="M255.9,313.393a40.046,40.046,0,0,1-40-40v-86.5a40,40,0,1,1,80,0v86.5A40.045,40.045,0,0,1,255.9,313.393Z" fill="#fff"/><path d="M255.9,146.893h0v166.5h0a40.045,40.045,0,0,0,40-40v-86.5A40.046,40.046,0,0,0,255.9,146.893Z" fill="#dad0cb"/><path d="M255.9,353.393h0v80h0a40,40,0,1,0,0-80Z" fill="#dad0cb"/></g></svg>