<svg xmlns="http://www.w3.org/2000/svg" xmlns:xlink="http://www.w3.org/1999/xlink" width="783.034" height="106.406" viewBox="0 0 783.034 106.406"><defs><linearGradient id="a" x1="0.5" x2="0.5" y2="1" gradientUnits="objectBoundingBox"><stop offset="0" stop-color="#fff"/><stop offset="1" stop-color="#fff" stop-opacity="0"/></linearGradient></defs><path d="M21.293-67.114V-170.137H43.138v84.984H84.925v18.04Zm140.864,0H102.824V-170.137h59.334v17.9H124.669v22.62H159.55v17.9H124.669v26.566h37.489Zm61.236,0H201.549v-84.843H173.573v-18.181h77.8v18.181H223.393Zm59.9-103.023L280.4-132.93H266.52l-2.889-37.207Zm83.152,74.414q0,13.953-10.042,21.986T328.46-65.7q-16.489,0-29.174-6.2V-92.2a120.222,120.222,0,0,0,17.652,6.553,52.234,52.234,0,0,0,13.213,1.9q7.188,0,11.028-2.748t3.84-8.174a9.024,9.024,0,0,0-1.691-5.391,18.925,18.925,0,0,0-4.968-4.545,127.776,127.776,0,0,0-13.354-6.976q-9.443-4.439-14.164-8.527a32.01,32.01,0,0,1-7.54-9.513,27.148,27.148,0,0,1-2.819-12.684q0-13.671,9.266-21.493t25.615-7.822a60.488,60.488,0,0,1,15.327,1.9,105.347,105.347,0,0,1,15.256,5.355L358.9-147.376a103.105,103.105,0,0,0-13.635-4.721,43.89,43.89,0,0,0-10.605-1.339q-6.2,0-9.513,2.889a9.53,9.53,0,0,0-3.312,7.54,9.331,9.331,0,0,0,1.339,5.038,14.721,14.721,0,0,0,4.263,4.158q2.924,2.008,13.847,7.223,14.446,6.906,19.8,13.847T366.442-95.723Zm78.007-25.932h7.188q10.077,0,15.08-3.981t5-11.592q0-7.681-4.193-11.345t-13.142-3.664H444.45ZM493.777-138q0,16.63-10.394,25.439t-29.561,8.808H444.45v36.643H422.6V-170.137h32.908q18.744,0,28.5,8.069T493.777-138Zm19.449,70.89V-170.137h21.845v84.984h41.787v18.04Zm144.6,0-7.469-24.523H612.8l-7.47,24.523H581.791L618.152-170.56h26.707l36.5,103.446Zm-12.684-42.844q-10.359-33.331-11.662-37.7t-1.867-6.906q-2.325,9.02-13.318,44.606Zm81.249-17.758,21.493-42.421h23.536L737.242-107.21v40.1h-21.7V-106.5l-34.177-63.632h23.677Zm74.343,26.425H783.539l-3.594-68.847h24.382Zm-21.07,24.1q0-5.919,3.171-8.949t9.231-3.03q5.849,0,9.055,3.1t3.206,8.879q0,5.567-3.241,8.773t-9.02,3.206q-5.919,0-9.161-3.136T779.663-77.19Z" transform="translate(-21.293 171.617)" fill="url(#a)"/></svg>