<svg xmlns="http://www.w3.org/2000/svg" xmlns:xlink="http://www.w3.org/1999/xlink" width="632.242" height="114.31" viewBox="0 0 632.242 114.31">
  <defs>
    <linearGradient id="linear-gradient" x1="0.5" x2="0.5" y2="1" gradientUnits="objectBoundingBox">
      <stop offset="0" stop-color="#fff"/>
      <stop offset="1" stop-color="#fff" stop-opacity="0"/>
    </linearGradient>
  </defs>
  <path id="MYBETS" d="M60.644,3.447,33.873-83.788h-.684q1.445,26.619,1.445,35.518V3.447H13.566V-107.745h32.1L71.976-22.716h.456l27.912-85.029h32.1V3.447H110.46v-52.63q0-3.727.114-8.594T111.6-83.636h-.684L82.244,3.447ZM195.033-61.96l23.2-45.785h25.4L206.745-39.828V3.447H183.32V-39.068l-36.887-68.677h25.554Zm103.054-45.785h34.6q23.653,0,34.339,6.731T377.716-79.6q0,9.963-4.677,16.352A18.685,18.685,0,0,1,360.6-55.572v.761q10.572,2.358,15.249,8.822T380.53-28.8q0,15.211-10.99,23.729T339.689,3.447h-41.6Zm23.577,44.036h13.69q9.583,0,13.88-2.966t4.3-9.811q0-6.389-4.677-9.165t-14.793-2.776h-12.4Zm0,18.709v28.977h15.363q9.735,0,14.374-3.727t4.639-11.408Q356.041-45,336.266-45ZM466.776,3.447H402.738V-107.745h64.038v19.318H426.315v24.414h37.647V-44.7H426.315v28.673h40.461Zm66.092,0H509.291v-91.57H479.1v-19.622h83.964v19.622H532.868ZM645.809-27.431q0,15.059-10.838,23.729t-30.156,8.67q-17.8,0-31.487-6.693v-21.9a129.753,129.753,0,0,0,19.052,7.073,56.375,56.375,0,0,0,14.26,2.053q7.758,0,11.9-2.966t4.145-8.822a9.739,9.739,0,0,0-1.825-5.818,20.425,20.425,0,0,0-5.362-4.906,137.9,137.9,0,0,0-14.412-7.529q-10.191-4.791-15.287-9.2a34.546,34.546,0,0,1-8.138-10.267,29.3,29.3,0,0,1-3.042-13.69q0-14.755,10-23.2t27.646-8.442a65.284,65.284,0,0,1,16.542,2.053,113.707,113.707,0,0,1,16.466,5.78l-7.605,18.329a111.273,111.273,0,0,0-14.717-5.1,47.37,47.37,0,0,0-11.446-1.445q-6.693,0-10.267,3.118a10.286,10.286,0,0,0-3.575,8.138,10.071,10.071,0,0,0,1.445,5.438,15.888,15.888,0,0,0,4.6,4.487q3.156,2.168,14.945,7.8Q634.249-53.29,640.029-45.8T645.809-27.431Z" transform="translate(-13.566 109.342)" fill="url(#linear-gradient)"/>
</svg>
