<svg xmlns="http://www.w3.org/2000/svg" xmlns:xlink="http://www.w3.org/1999/xlink" width="1039.844" height="161.455" viewBox="0 0 1039.844 161.455"><defs><linearGradient id="a" x1="0.5" x2="0.5" y2="1" gradientUnits="objectBoundingBox"><stop offset="0" stop-color="#fff"/><stop offset="1" stop-color="#fff" stop-opacity="0"/></linearGradient></defs><path d="M109.355-157.051h33.623L89.59,0H53.281L0-157.051H33.623L63.164-63.594q2.471,8.271,5.1,19.282T71.543-29q1.182-9.883,8.057-34.59ZM162.744,0V-157.051h33.3V0ZM268.877-83.145h10.957q15.361,0,22.988-6.069t7.627-17.671q0-11.709-6.392-17.295t-20.034-5.586H268.877Zm75.2-24.922q0,25.352-15.845,38.779T283.164-55.859H268.877V0h-33.3V-157.051h50.166q28.574,0,43.452,12.3T344.072-108.066ZM490.488-88.193h62.3V-6.768A175.654,175.654,0,0,1,524.272.161a185.771,185.771,0,0,1-27.339,1.987q-35.557,0-54.3-20.894t-18.745-60q0-38.027,21.753-59.3t60.317-21.27a116.706,116.706,0,0,1,46.621,9.668L541.514-123a79.023,79.023,0,0,0-35.771-8.594q-21.592,0-34.59,14.5t-13,38.994q0,25.566,10.474,39.048t30.454,13.481a107.721,107.721,0,0,0,21.162-2.148V-60.479H490.488ZM686.318,0,674.932-37.383H617.676L606.289,0H570.41l55.43-157.7h40.713L722.2,0ZM666.982-65.312q-15.791-50.811-17.778-57.471t-2.847-10.527q-3.545,13.75-20.3,68ZM808.457,0,770.645-123.213h-.967q2.041,37.6,2.041,50.166V0H741.963V-157.051h45.332l37.168,120.1h.645l39.424-120.1h45.332V0H878.818V-74.336q0-5.264.161-12.139T880.43-123h-.967L838.965,0Zm231.387,0H949.395V-157.051h90.449v27.285H982.7v34.482h53.174V-68H982.7v40.5h57.148Z" transform="translate(0 159.307)" fill="url(#a)"/></svg>