<svg xmlns="http://www.w3.org/2000/svg" xmlns:xlink="http://www.w3.org/1999/xlink" width="1267.155" height="1322.15" viewBox="0 0 1267.155 1322.15"><defs><clipPath id="a"><rect width="1224.215" height="1248.862" fill="none"/></clipPath><filter id="b" x="422.297" y="1011.27" width="424.372" height="310.881" filterUnits="userSpaceOnUse"><feOffset dy="3" input="SourceAlpha"/><feGaussianBlur stdDeviation="18.5" result="c"/><feFlood flood-opacity="0.161"/><feComposite operator="in" in2="c"/><feComposite in="SourceGraphic"/></filter></defs><g transform="translate(0 38.241)"><g clip-path="url(#a)" style="isolation:isolate"><g transform="translate(-148.052 -152.415)"><g transform="translate(0 1135.878) rotate(-69.316)"><path d="M185.656,302.716c-33.384,45.713-155.3,135.717-181.3,216.823S77.239,757.682,77.239,757.682s-16.458,47.677,8.91,85.381,41.234,39.321,41.234,39.321,70.779,191.769,99.2,212.656,210.968-8.172,210.968-8.172,130.622,67.189,223.772,83.32,109.707-20.912,142.4-27.965,58.516,3.694,74.761-28.732c0,0,68.044-11.468,80.035-30.556,11.966-19.088,10.776-33.618,10.776-33.618s41.161-6.067,63.767-36.427,24.233-44.561,24.233-44.561,38.438-14.023,57.36-43.815,13.406-52.794,13.406-52.794,30.135-17.309,41.712-60.687c11.554-43.375,3.478-58.37,3.478-58.37s27.2-30.05,27.959-61.62-9.724-40.866-9.724-40.866,22.285-27.518,22.1-65.287-28.99-48.306-28.99-48.306,25.054-32.51,15.536-72.137c-9.541-39.627-33.54-43.3-33.54-43.3s18.785-25.713.458-63.483-49.581-47.931-49.581-47.931,8.763-21.893-10.525-51.141c-19.31-29.25-49.009-42.442-49.009-42.442s10.2-19.068-23.589-54.208c-33.816-35.14-59.6-25.848-59.6-25.848s-5.514-23-34.205-39.392c-28.669-16.391-59.854-15.916-59.854-15.916s-7.5-20.378-31.277-33.862S787.4,40.453,787.4,40.453s-12.229-17.526-42.6-25.036-48.545,7.2-48.545,7.2S675.267.48,632.111.008s-53.352,20.373-53.352,20.373S566.484,7.556,539.742,10.65s-38.9,20.941-38.9,20.941-16.124-9.953-36.352-7.1S424.2,47.93,424.2,47.93s-33.906-9.25-52.784,5.825S334.8,93.118,327.96,96.2s-34.233,11.853-77.028,86.913S185.656,302.716,185.656,302.716Z" transform="translate(1.25 0)" fill="#e0704e"/><path d="M250.713,58.447S165.029,365.846,0,719.932c0,0,354.884-690.677,346.953-709.751S284.1-5.529,250.713,58.447Z" transform="translate(77.034 38.502)" fill="#f58c7d"/><path d="M422.138,23.739s11.728,10.878-61.307,147.4S172.335,459.82,0,749.077c0,0,477.864-643.6,500.057-736.548C500.058,12.529,466.09-22.077,422.138,23.739Z" transform="translate(78.489 8.605)" fill="#f58c7d"/><path d="M621.391,10.79S171.6,567.726,0,758.526c0,0,623.891-623.689,712.533-729.9C712.533,28.622,665.648-21.375,621.391,10.79Z" transform="translate(74.657 12.585)" fill="#f58c7d"/><path d="M806.747,1.766S45.689,664.963,0,702.552L900.8,57.074S888.357-11.782,806.747,1.766Z" transform="translate(73.725 79.771)" fill="#f58c7d"/><path d="M984.461,0,0,578.148,1043.994,93.586S1067.012,32.721,984.461,0Z" transform="translate(73.261 216.901)" fill="#f58c7d"/><path d="M1092.126,0,0,385.549,1110.109,115.435S1164.495,35.3,1092.126,0Z" transform="translate(74.277 421.898)" fill="#f58c7d"/><path d="M1115.25,0,0,172.114l1097.015-69.628S1163.023,60.894,1115.25,0Z" transform="translate(76.045 650.927)" fill="#f58c7d"/><path d="M1044.47,36.093,0,0,973.7,132.7S1055.82,117.549,1044.47,36.093Z" transform="translate(83.378 836.376)" fill="#f58c7d"/><path d="M876.121,199.1,0,0,785.31,263.27S876.008,279.776,876.121,199.1Z" transform="translate(92.962 850.971)" fill="#f58c7d"/><path d="M658.559,266.675,0,0S454.211,266.27,464.831,269.688,592.821,342.769,658.559,266.675Z" transform="translate(127.178 883.135)" fill="#f58c7d"/><path d="M183.09,0s-43.426,288.433-104.6,450.021c0,0-93.472-139.25-76.408-227.149S140.654,56.027,183.09,0Z" transform="translate(0 307.661)" fill="#e0704e"/><path d="M0,0S50.915,177.062,99.2,212.656s210.968-8.172,210.968-8.172S36.793,16.669,0,0Z" transform="translate(128.636 882.384)" fill="#e0704e"/><path d="M106.619,8.256,0,305.346S151.1,11.272,142.472,2.748,106.619,8.256,106.619,8.256Z" transform="translate(250.007 69.471)" fill="#f8b0ae"/><path d="M0,443.734,354.959,10s30.545-24.393,44.483,3.015Z" transform="translate(349.252 29.104)" fill="#f8b0ae"/><path d="M602.138.114C596.738.367,0,513.68,0,513.68L650.253,27.2S648.264-2.048,602.138.114Z" transform="translate(294.12 95.671)" fill="#f8b0ae"/><path d="M760.135,0,0,439.345,793.152,56.488S823.536,14.884,760.135,0Z" transform="translate(294.772 238.855)" fill="#f8b0ae"/><path d="M862.35,0,0,297.455,863.013,68.845S913.967,33.931,862.35,0Z" transform="translate(298.744 439.229)" fill="#f8b0ae"/><path d="M874.281,0,0,122,857.672,51.8S896.681,18.719,874.281,0Z" transform="translate(307.862 674.848)" fill="#f8b0ae"/><path d="M756.07,34.267S-1.658,5.389,0,.209,727.516,87.9,727.516,87.9,776.823,58.166,756.07,34.267Z" transform="translate(339.221 858.3)" fill="#f8b0ae"/><path d="M0,0,651.137,148.671s5.491,36.093-52.624,40.095Z" transform="translate(295.227 907.131)" fill="#f8b0ae"/><path d="M0,0,405.142,171.688s-30.545,24.39-124.985-17.736S0,0,0,0Z" transform="translate(340.365 978.99)" fill="#f8b0ae"/><path d="M.132,162.06C-3.348,166.6,62.778,96.624,81.7,108.491S50.6,435.838,50.6,435.838,97.885,309.99,120.337,184.847,149.452,0,149.452,0,45.735,102.526.132,162.06Z" transform="translate(27.71 315.009)" fill="#a74537"/><path d="M0,0S273.357,146.444,303.806,207.6c0,0-137.2,52.437-200.931,3.13,0,0,66.89,21.736,64.576-41.931S0,0,0,0Z" transform="translate(127.418 881.196)" fill="#a74537"/><path d="M31.756.015S-9.08,21.063,1.863,93.253s52.592,137.2,52.592,137.2S77.9-2.15,31.756.015Z" transform="translate(14.898 477.448)" fill="#f58c7d"/><path d="M0,0S40.642,139.039,69.853,154.248s27.063-31.243,27.063-31.243S49.792,21.9,0,0Z" transform="translate(153.309 906.767)" fill="#f58c7d"/><path d="M1109.89,0,0,271.971l3.16,13.489L1116.8,113.593S323.725,231.673,314.763,218.277,1109.89,0,1109.89,0Z" transform="translate(74.497 537.334)" fill="#be564c"/><path d="M901.267,0,.464,645.478,0,658.2,984.458,80.056S312.141,466.881,298.889,459.485,901.267,0,901.267,0Z" transform="translate(73.263 136.846)" fill="#be564c"/><path d="M713.465,0,.931,729.9,0,741.116,806.747,40.329S314.24,457.078,301.837,455.908,713.465,0,713.465,0Z" transform="translate(73.725 41.207)" fill="#be564c"/><path d="M503.89,0s-46.1,97.76-144.133,238.7S3.832,736.548,3.832,736.548L0,749.977,621.391,2.241s-407.927,479.17-412.96,474.2S528.083,30.724,503.89,0Z" transform="translate(74.657 21.134)" fill="#be564c"/><path d="M341.993,16.338S292.053,135.968,234.56,251.6,0,715.878,0,715.878s156.3-243.54,191.437-300.02S402.781,114.3,418.632,0c0,0-106.262,212.074-167.1,301.693s-66.41,91.509-68.86,90.29S350.34,29.6,341.993,16.338Z" transform="translate(81.994 32.344)" fill="#be564c"/><path d="M97.787,222.249s-15.24,113.8-33.313,202.791S0,650.262,0,650.262,72.544,501.326,117.453,382.094,248.867,0,248.867,0s-141.1,400.268-153.5,401.242,8.841-190.53,8.841-190.53Z" transform="translate(78.881 96.947)" fill="#be564c"/><path d="M1095.111,0,0,70.248,5.429,82.961,1049.9,119.054S354.689,83.972,354.151,72.361,1095.111,0,1095.111,0Z" transform="translate(77.949 753.413)" fill="#be564c"/><path d="M885.706,213.692,9.585,14.6,0,0,973.7,132.7S464.649,73.781,445.778,82.426,885.706,213.692,885.706,213.692Z" transform="translate(83.378 836.374)" fill="#be564c"/><path d="M785.31,263.271,0,0S17.83,28.912,35.672,31.413l657.1,267.425S286.568,118.088,281.7,112.586,785.31,263.271,785.31,263.271Z" transform="translate(92.963 850.97)" fill="#be564c"/><path d="M1043.994,0,0,484.564l.838,11.546,1092.3-384.695S428.784,332.577,416.376,324.024,1043.994,0,1043.994,0Z" transform="translate(73.261 310.485)" fill="#be564c"/></g></g></g></g><rect width="1267.039" height="1287.367" transform="translate(0.116 0)" fill="none"/><g transform="translate(477.797 1063.77)"><g transform="matrix(1, 0, 0, 1, -477.8, -1063.77)" filter="url(#b)"><rect width="313.372" height="199.881" rx="12" transform="translate(477.8 1063.77)" fill="#ffce19"/></g><path d="M91.137,38.052a96.07,96.07,0,0,1-1.914,23.794Q85.94,75.794,72.676,89.469T43,105.6q-6.017.82-23.794.547H9.226a74.792,74.792,0,0,1-12.444-.82q-4.1-.547-5.88-2.6t-1.5-6.154q.82-1.367.41-13.4t-.41-13.4q.273-35.28,1.367-65.091,0-3.829.137-11.076t.41-11.076q0-4.649,1.367-6.154T-1.3-25.671q27.9-2.461,38.015-1.641Q66.522-25.124,81.017.037,90.043,16.447,91.137,38.052Zm-29.263-.82Q62.42,19.182,47.1,15.626a24.668,24.668,0,0,0-4.1-.82q-7.931-.82-8.888,0t-1.231,8.752Q32.61,45.984,30.422,68.41a5.516,5.516,0,0,0,.41,2.735q.41.547,2.325.547A22.884,22.884,0,0,0,50.934,63.76Q61.873,51.18,61.873,37.232Z" transform="translate(116.387 60.313)"/></g></svg>