<svg xmlns="http://www.w3.org/2000/svg" xmlns:xlink="http://www.w3.org/1999/xlink" width="2233" height="2268" viewBox="0 0 2233 2268"><defs><clipPath id="a"><rect x="259" y="270" width="2157.186" height="2200.615" fill="none"/></clipPath></defs><g transform="translate(-5798 -13286)"><g transform="translate(5798 13353)"><g transform="translate(-259 -270)" clip-path="url(#a)" style="isolation:isolate"><g transform="translate(-2140.657 -1267.379)"><g transform="matrix(0.353, -0.935, 0.935, 0.353, -393.449, 4997.629)"><path d="M2841.171,2293.361c-58.826,80.55-273.647,239.146-319.467,382.063s128.425,419.631,128.425,419.631-29,84.012,15.7,150.45,72.659,69.287,72.659,69.287,124.72,337.916,174.8,374.721,371.746-14.4,371.746-14.4,230.169,118.394,394.307,146.818,193.315-36.849,250.928-49.277,103.111,6.51,131.736-50.629c0,0,119.9-20.208,141.029-53.843,21.085-33.635,18.989-59.238,18.989-59.238s72.53-10.691,112.363-64.189,42.7-78.521,42.7-78.521,67.732-24.71,101.074-77.206S4501.783,3296,4501.783,3296s53.1-30.5,73.5-106.936c20.36-76.431,6.128-102.853,6.128-102.853s47.937-52.951,49.267-108.58-17.135-72.01-17.135-72.01,39.269-48.49,38.947-115.042-51.082-85.12-51.082-85.12,44.147-57.285,27.375-127.112c-16.812-69.827-59.1-76.3-59.1-76.3s33.1-45.308.807-111.863-87.367-84.459-87.367-84.459,15.441-38.578-18.546-90.116c-34.027-51.542-86.358-74.787-86.358-74.787s17.981-33.6-41.567-95.519c-59.588-61.92-105.025-45.547-105.025-45.547s-9.716-40.527-60.273-69.413c-50.518-28.882-105.469-28.046-105.469-28.046s-13.224-35.908-55.113-59.668-109.271-11.4-109.271-11.4-21.549-30.883-75.058-44.115-85.541,12.692-85.541,12.692-36.99-39.013-113.036-39.845-94.011,35.9-94.011,35.9-21.63-22.6-68.752-17.148-68.551,36.9-68.551,36.9-28.411-17.538-64.055-12.509-70.99,41.3-70.99,41.3-59.746-16.3-93.011,10.265-64.519,69.36-76.574,74.787-60.322,20.886-135.731,153.149S2841.171,2293.361,2841.171,2293.361Z" fill="#e0704e"/><path d="M3089.345,1930.78s-150.983,541.666-441.78,1165.6c0,0,625.339-1217.039,611.365-1250.649S3148.18,1818.048,3089.345,1930.78Z" fill="#f58c7d"/><path d="M3393.976,1816.94s20.666,19.169-108.029,259.74S2953.8,2585.356,2650.129,3095.055c0,0,842.042-1134.086,881.149-1297.869C3531.279,1797.186,3471.424,1736.207,3393.976,1816.94Z" fill="#f58c7d"/><path d="M3738.326,1801.135s-792.581,981.375-1094.95,1317.583c0,0,1099.356-1099,1255.552-1286.16C3898.928,1832.558,3816.311,1744.458,3738.326,1801.135Z" fill="#f58c7d"/><path d="M4063.3,1903.622S2722.244,3072.24,2641.735,3138.475l1587.3-1137.394S4207.106,1879.749,4063.3,1903.622Z" fill="#f58c7d"/><path d="M4375.631,2142.148,2640.917,3160.9l1839.618-853.845S4521.095,2199.806,4375.631,2142.148Z" fill="#f58c7d"/><path d="M4567.137,2503.373l-1924.43,679.375,1956.119-475.967S4694.658,2565.578,4567.137,2503.373Z" fill="#f58c7d"/><path d="M4611,2906.944,2645.823,3210.226l1933.045-122.692S4695.182,3014.245,4611,2906.944Z" fill="#f58c7d"/><path d="M4499.2,3297.323l-1840.457-63.6L4374.5,3467.555S4519.2,3440.857,4499.2,3297.323Z" fill="#f58c7d"/><path d="M4219.443,3610.266l-1543.81-350.827,1383.792,463.908S4219.242,3752.432,4219.443,3610.266Z" fill="#f58c7d"/><path d="M3896.368,3786.022,2735.923,3316.115S3536.286,3785.308,3555,3791.331,3780.53,3920.107,3896.368,3786.022Z" fill="#f58c7d"/><path d="M2834.446,2302.075s-76.521,508.246-184.317,792.98c0,0-164.707-245.372-134.638-400.259S2759.67,2400.8,2834.446,2302.075Z" fill="#e0704e"/><path d="M2738.492,3314.792s89.717,312,174.8,374.721,371.746-14.4,371.746-14.4S2803.325,3344.165,2738.492,3314.792Z" fill="#e0704e"/><path d="M3140.233,1896.909l-187.872,523.5s266.257-518.186,251.049-533.207S3140.233,1896.909,3140.233,1896.909Z" fill="#f8b0ae"/><path d="M3127.239,2593.133l625.472-764.281s53.823-42.982,78.384,5.313Z" fill="#f8b0ae"/><path d="M4091.115,1928.73c-9.515.446-1061.024,904.953-1061.024,904.953L4175.9,1976.449S4172.394,1924.919,4091.115,1928.73Z" fill="#f8b0ae"/><path d="M4370.672,2180.832,3031.241,2955l1397.609-674.63S4482.39,2207.059,4370.672,2180.832Z" fill="#f8b0ae"/><path d="M4557.783,2533.911,3038.24,3058.055l1520.712-402.832S4648.738,2593.7,4557.783,2533.911Z" fill="#f8b0ae"/><path d="M4594.874,2949.094,3054.306,3164.062l1511.3-123.695S4634.344,2982.079,4594.874,2949.094Z" fill="#f8b0ae"/><path d="M4441.831,3332.736s-1335.19-50.885-1332.263-60.013,1281.948,154.521,1281.948,154.521S4478.4,3374.849,4441.831,3332.736Z" fill="#f8b0ae"/><path d="M3032.043,3358.4l1147.366,261.973s9.676,63.6-92.729,70.651Z" fill="#f8b0ae"/><path d="M3111.58,3485.021l713.9,302.531s-53.823,42.978-220.235-31.252S3111.58,3485.021,3111.58,3485.021Z" fill="#f8b0ae"/><path d="M2560.884,2600.588c-6.132,8.008,110.387-115.305,143.726-94.394s-54.8,576.818-54.8,576.818,83.323-221.758,122.886-442.271S2824,2315.022,2824,2315.022,2641.24,2495.682,2560.884,2600.588Z" fill="#a74537"/><path d="M2736.347,3312.7s481.682,258.048,535.335,365.816c0,0-241.76,92.4-354.059,5.516,0,0,117.867,38.3,113.79-73.886S2736.347,3312.7,2736.347,3312.7Z" fill="#a74537"/><path d="M2594.032,2601.282s-71.958,37.089-52.674,164.294,92.672,241.76,92.672,241.76S2675.347,2597.467,2594.032,2601.282Z" fill="#f58c7d"/><path d="M2781.969,3357.758s71.615,245,123.087,271.8,47.687-55.053,47.687-55.053S2869.707,3396.349,2781.969,3357.758Z" fill="#f58c7d"/><path d="M4598.826,2706.782,2643.094,3186.02l5.568,23.768L4611,2906.944s-1397.472,208.068-1413.264,184.462S4598.826,2706.782,4598.826,2706.782Z" fill="#be564c"/><path d="M4229.039,2001.082l-1587.3,1137.394-.818,22.421L4375.631,2142.148s-1184.687,681.624-1208.039,668.591S4229.039,2001.082,4229.039,2001.082Z" fill="#be564c"/><path d="M3898.928,1832.558,2643.376,3118.718l-1.641,19.758L4063.3,1903.622s-867.845,734.351-889.7,732.289S3898.928,1832.558,3898.928,1832.558Z" fill="#be564c"/><path d="M3531.279,1797.186s-81.226,172.262-253.976,420.609-627.173,877.26-627.173,877.26l-6.753,23.663,1094.95-1317.583s-718.806,844.343-727.675,835.58S3573.91,1851.325,3531.279,1797.186Z" fill="#be564c"/><path d="M3258.93,1845.729s-88,210.8-189.308,414.557-413.317,818.1-413.317,818.1,275.409-429.141,337.331-528.665,372.407-531.381,400.339-732.781c0,0-187.243,373.694-294.438,531.612s-117.02,161.247-121.338,159.1S3273.638,1869.1,3258.93,1845.729Z" fill="#be564c"/><path d="M2823.129,2322.4s-26.855,200.535-58.7,357.337S2650.819,3076.6,2650.819,3076.6s127.829-262.439,206.963-472.537,231.564-673.287,231.564-673.287-248.626,705.311-270.478,707.028,15.578-335.732,15.578-335.732Z" fill="#be564c"/><path d="M4578.869,3087.534,2649.178,3211.318l9.567,22.4,1840.457,63.6S3274.174,3235.5,3273.227,3215.04,4578.869,3087.534,4578.869,3087.534Z" fill="#be564c"/><path d="M4219.443,3610.266l-1543.81-350.827-16.889-25.72L4374.5,3467.555s-897-103.827-930.252-88.594S4219.443,3610.266,4219.443,3610.266Z" fill="#be564c"/><path d="M4059.426,3723.347,2675.634,3259.438s31.419,50.946,62.858,55.353l1157.876,471.23s-715.774-318.5-724.345-328.195S4059.426,3723.347,4059.426,3723.347Z" fill="#be564c"/><path d="M4480.535,2307.051,2640.917,3160.9l1.476,20.346,1924.744-677.869s-1170.661,389.706-1192.526,374.636S4480.535,2307.051,4480.535,2307.051Z" fill="#be564c"/></g></g></g></g><rect width="2233" height="2268" transform="translate(5798 13286)" fill="none"/></g></svg>