<svg id="erVvIJzdwoT1" xmlns="http://www.w3.org/2000/svg" xmlns:xlink="http://www.w3.org/1999/xlink" viewBox="0 0 552 587" shape-rendering="geometricPrecision" text-rendering="geometricPrecision"><g id="erVvIJzdwoT2" transform="matrix(1 0 0 1 -0.000303 0)" clip-rule="evenodd"><g id="erVvIJzdwoT3" transform="matrix(1 0 0 0.865888 0 40.695157)" clip-rule="evenodd"><path id="erVvIJzdwoT4" d="M168.286,385.822C168.286,385.822,156.126,363.669,133.973,357.839C111.819,352.009,81.837,355.174,73.175,355.174C64.514,355.174,46.524,343.347,41.86,325.524C37.196,307.701,47.523,299.706,47.523,299.706C47.523,299.706,13.377,284.881,13.377,240.907C13.377,196.933,41.693,191.936,41.693,191.936C41.693,191.936,25.036,150.293,50.688,119.978C76.34,89.662,100.659,100.656,100.659,100.656C100.659,100.656,93.33,72.006,124.978,49.02C156.626,26.033,187.941,41.691,187.941,41.691C187.941,41.691,209.928,-0.951,257.9,0.048C305.872,1.048,319.198,36.027,319.198,36.027C319.198,36.027,363.172,21.036,390.156,37.693C417.14,54.35,424.135,86.331,424.135,86.331C424.135,86.331,461.115,78.669,483.768,102.988C506.422,127.307,494.762,162.619,494.762,162.619C494.762,162.619,541.068,176.945,542.734,223.584C544.399,270.223,509.42,293.876,496.427,297.207C496.427,297.207,505.256,308.034,493.429,327.69C481.603,347.345,459.782,349.677,452.786,349.677C445.79,349.677,392.488,350.51,364.338,389.82C364.338,389.82,336.965,410.919,273.225,412.917C209.484,414.916,168.286,385.822,168.286,385.822Z" clip-rule="evenodd" fill="rgb(254,233,217)" stroke="none" stroke-width="1" stroke-linejoin="round" stroke-miterlimit="2"/><path id="erVvIJzdwoT5" d="M72.231,297.652C72.231,297.652,109.654,301.872,141.302,317.196C172.95,332.52,191.606,358.838,191.606,358.838L201.933,320.194C201.933,320.194,150.741,213.034,56.907,194.157L53.811,196.175C53.811,196.175,85.738,197.997,123.757,229.469C161.774,260.942,174.838,296.985,174.172,307.424C173.505,317.862,153.739,318.306,135.083,311.421C116.428,304.536,83.404,296.124,69.267,295.666L72.231,297.652Z" clip-rule="evenodd" fill="rgb(244,218,200)" stroke="none" stroke-width="1" stroke-linejoin="round" stroke-miterlimit="2"/><path id="erVvIJzdwoT6" d="M113.985,117.234C113.985,117.234,156.182,147.922,189.052,214.106C221.921,280.289,222.588,301.963,222.588,301.963L201.933,320.351C201.933,320.351,157.55,233.458,83.353,202.186C83.353,202.186,112.892,209.52,152.971,247.498C193.049,285.476,199.268,281.681,201.933,277.461C204.598,273.241,201.933,232.105,168.619,182.356C135.305,132.608,109.543,117.234,109.543,117.234L113.985,117.234Z" clip-rule="evenodd" fill="rgb(244,218,200)" stroke="none" stroke-width="1" stroke-linejoin="round" stroke-miterlimit="2"/><path id="erVvIJzdwoT7" d="M82.947,345.78C82.947,345.78,120.528,348.355,138.799,359.427C138.799,359.427,157.126,367.999,168.286,385.822C168.286,385.822,201.786,405.387,218.933,407.098L191.606,358.838C191.606,358.838,166.589,317.963,98.741,302.564C98.741,302.564,126.477,310.033,148.298,324.025C170.118,338.017,170.451,357.839,143.467,352.009C116.483,346.179,82.947,345.78,82.947,345.78Z" clip-rule="evenodd" fill="rgb(244,218,200)" stroke="none" stroke-width="1" stroke-linejoin="round" stroke-miterlimit="2"/><path id="erVvIJzdwoT8" d="M462.891,333.853C462.891,333.853,416.113,342.861,391.864,360.788C367.614,378.715,364.338,389.82,364.338,389.82C364.338,389.82,354.066,400.168,318.976,407.098C318.976,407.098,344.516,356.265,345.183,354.831C345.849,353.397,403.791,313.146,474.761,300.735L477.794,302.398C477.794,302.398,446.304,307.127,407.813,323.303C369.321,339.48,385.159,355.84,401.649,349.177C418.14,342.514,462.891,333.853,462.891,333.853Z" clip-rule="evenodd" fill="rgb(244,218,200)" stroke="none" stroke-width="1" stroke-linejoin="round" stroke-miterlimit="2"/><path id="erVvIJzdwoT9" d="M473.108,171.503C473.108,171.503,432.465,183.941,385.603,229.247C338.742,274.554,324.528,307.868,324.528,307.868L345.183,354.831C345.183,354.831,384.977,327.922,425.267,314.009C465.557,300.095,474.761,300.735,474.761,300.735C474.761,300.735,519.249,279.803,526.494,246.974C526.494,246.974,509.975,268.78,456.451,292.099C402.926,315.419,370.501,314.086,361.617,293.432C352.734,272.777,377.45,238.987,400.484,218.462C423.517,197.937,468.427,172.409,479.207,172.289L473.108,171.503Z" clip-rule="evenodd" fill="rgb(244,218,200)" stroke="none" stroke-width="1" stroke-linejoin="round" stroke-miterlimit="2"/><path id="erVvIJzdwoT10" d="M407.146,108.873C407.146,108.873,386.936,128.417,353.4,177.5C319.864,226.582,300.542,290.767,300.542,290.767L324.528,307.868C324.528,307.868,342.711,276.183,370.376,244.72C398.041,213.257,438.044,188.503,438.044,188.503C438.044,188.503,402.482,206.594,371.612,236.132C340.741,265.67,329.192,270.112,331.857,243.239C334.522,216.366,354.066,180.387,374.943,152.403C395.82,124.42,409.714,107.752,409.714,107.752L407.146,108.873Z" clip-rule="evenodd" fill="rgb(244,218,200)" stroke="none" stroke-width="1" stroke-linejoin="round" stroke-miterlimit="2"/><path id="erVvIJzdwoT11" d="M314.312,54.461C314.312,54.461,304.54,86.331,292.547,158.289C280.554,230.247,278.084,284.881,278.084,284.881L300.542,290.767C300.542,290.767,322.284,227.683,354.887,175.33C354.887,175.33,329.081,209.592,318.976,228.914C308.87,248.236,283.219,230.913,297.211,155.957C311.202,81.001,317.691,50.777,317.691,50.777L314.312,54.461Z" clip-rule="evenodd" fill="rgb(244,218,200)" stroke="none" stroke-width="1" stroke-linejoin="round" stroke-miterlimit="2"/><path id="erVvIJzdwoT12" d="M196.103,58.181C196.103,58.181,220.922,111.649,233.581,169.282C246.241,226.915,252.57,286.88,252.57,286.88L278.084,284.881C278.084,284.881,288.065,164.819,301.799,107.752C301.799,107.752,293.546,144.63,284.218,186.939C274.89,229.247,253.57,246.237,244.575,202.263C235.58,158.289,224.586,109.01,197.602,53.53L196.103,58.181Z" clip-rule="evenodd" fill="rgb(244,218,200)" stroke="none" stroke-width="1" stroke-linejoin="round" stroke-miterlimit="2"/><path id="erVvIJzdwoT13" d="M113.985,116.647C113.985,116.647,145.14,140.875,170.538,181.23C195.937,221.585,209.007,255.099,214.262,271.167C219.517,287.234,222.588,301.816,222.588,301.816L252.57,286.88C252.57,286.88,248.035,216.255,227.65,145.463C207.266,74.67,196.103,58.181,196.103,58.181C196.103,58.181,213.26,103.987,226.918,160.621C240.577,217.254,234.914,244.572,228.584,249.902C222.254,255.232,203.265,225.25,172.284,177.278C141.302,129.306,113.985,116.647,113.985,116.647Z" clip-rule="evenodd" fill="rgb(244,218,200)" stroke="none" stroke-width="1" stroke-linejoin="round" stroke-miterlimit="2"/><path id="erVvIJzdwoT14" d="M38.532,211.816C38.532,211.816,71.01,211.591,102.325,233.911C133.64,256.231,150.963,290.545,143.634,293.543C136.305,296.541,50.37,279.383,50.37,279.383C50.37,279.383,16.05,247.354,38.532,211.816Z" clip-rule="evenodd" fill="rgb(255,239,228)" stroke="none" stroke-width="1" stroke-linejoin="round" stroke-miterlimit="2"/><path id="erVvIJzdwoT15" d="M55.923,163.109C55.923,163.109,102.325,184.219,129.642,206.9C156.959,229.58,172.284,239.241,174.616,238.242C176.948,237.243,165.621,191.936,131.641,155.957C97.661,119.978,93.274,119.256,93.274,119.256C93.274,119.256,61.158,122.956,55.923,163.109Z" clip-rule="evenodd" fill="rgb(255,239,228)" stroke="none" stroke-width="1" stroke-linejoin="round" stroke-miterlimit="2"/><path id="erVvIJzdwoT16" d="M119.538,81.038C119.538,81.038,151.962,113.648,178.613,153.625C205.264,193.601,218.59,200.042,215.259,171.503C211.927,142.964,183.61,61.038,170.285,53.53C170.285,53.53,135.419,56.091,119.538,81.038Z" clip-rule="evenodd" fill="rgb(255,239,228)" stroke="none" stroke-width="1" stroke-linejoin="round" stroke-miterlimit="2"/><path id="erVvIJzdwoT17" d="M222.588,25.607C222.588,25.607,243.658,99.108,252.57,135.968C262.235,175.945,266.012,172.836,271.95,137.745C277.889,102.655,289.741,25.607,289.741,25.607C289.741,25.607,261.01,1.861,222.588,25.607Z" clip-rule="evenodd" fill="rgb(255,239,228)" stroke="none" stroke-width="1" stroke-linejoin="round" stroke-miterlimit="2"/><path id="erVvIJzdwoT18" d="M360.442,43.791C360.442,43.791,314.218,144.854,316.486,164.175C318.754,183.496,355.127,127.835,403.79,81.709C403.79,81.709,396.358,53.781,360.442,43.791Z" clip-rule="evenodd" fill="rgb(255,239,228)" stroke="none" stroke-width="1" stroke-linejoin="round" stroke-miterlimit="2"/><path id="erVvIJzdwoT19" d="M457.694,102.083C457.694,102.083,399.595,139.966,373.832,195.933C373.832,195.933,375.609,201.264,412.032,185.717C448.455,170.171,485.126,137.762,485.126,137.762C485.126,137.762,484.699,112.172,457.694,102.083Z" clip-rule="evenodd" fill="rgb(255,239,228)" stroke="none" stroke-width="1" stroke-linejoin="round" stroke-miterlimit="2"/><path id="erVvIJzdwoT20" d="M502.088,181.451C502.088,181.451,409.367,231.348,416.918,263.167C424.47,294.987,528.527,229.624,528.527,229.624C528.527,229.624,529.069,201.172,502.088,181.451Z" clip-rule="evenodd" fill="rgb(255,239,228)" stroke="none" stroke-width="1" stroke-linejoin="round" stroke-miterlimit="2"/><path id="erVvIJzdwoT21" d="M123.598,352.996C123.598,352.996,149.186,360.06,164.399,380.492L193.739,381.732L189.283,354.89C189.283,354.89,174.56,335.276,145.327,319.24C145.327,319.24,173.283,338.616,178.28,348.338C183.277,358.061,180.501,370.831,166.619,368.61C152.74,366.389,147.189,359.489,123.598,352.996Z" clip-rule="evenodd" fill="rgb(234,194,169)" stroke="none" stroke-width="1" stroke-linejoin="round" stroke-miterlimit="2"/><path id="erVvIJzdwoT22" d="M165.972,267.412C165.972,267.412,189.163,296.874,200.6,317.085L189.37,355.416C189.37,355.416,173.646,332.921,145.327,319.24C145.327,319.24,158.181,324.525,171.617,332.964C185.054,341.404,196.065,329.411,189.283,310.311C182.5,291.211,165.972,267.412,165.972,267.412Z" clip-rule="evenodd" fill="rgb(234,194,169)" stroke="none" stroke-width="1" stroke-linejoin="round" stroke-miterlimit="2"/><path id="erVvIJzdwoT23" d="M192.9,221.661C192.9,221.661,200.242,233.682,209.749,258.505C219.256,283.327,220.478,291.766,220.478,291.766L200.6,317.549C200.6,317.549,164.277,261.016,149.125,248.741C149.125,248.741,158.403,254.677,177.059,278.552C195.714,302.427,208.325,295.431,210.237,286.88C212.149,278.33,210.262,262.006,202.71,244.683C195.159,227.359,192.9,221.661,192.9,221.661Z" clip-rule="evenodd" fill="rgb(234,194,169)" stroke="none" stroke-width="1" stroke-linejoin="round" stroke-miterlimit="2"/><path id="erVvIJzdwoT24" d="M239.747,195.437C239.747,195.437,251.404,263.227,252.57,278.385L220.478,291.766C220.478,291.766,204.283,241.298,191.948,219.699C191.948,219.699,210.095,254.899,217.258,266.392C224.42,277.885,244.242,280.051,246.074,260.229C247.906,240.407,239.747,195.437,239.747,195.437Z" clip-rule="evenodd" fill="rgb(234,194,169)" stroke="none" stroke-width="1" stroke-linejoin="round" stroke-miterlimit="2"/><path id="erVvIJzdwoT25" d="M286.936,199.48L278.854,276.085L252.57,278.385C252.57,278.385,243.58,209.155,239.747,195.437C239.747,195.437,249.577,271.889,266.731,264.338C283.885,256.787,286.936,199.48,286.936,199.48Z" clip-rule="evenodd" fill="rgb(234,194,169)" stroke="none" stroke-width="1" stroke-linejoin="round" stroke-miterlimit="2"/><path id="erVvIJzdwoT26" d="M333.186,214.366C333.186,214.366,310.256,262.609,303.067,282.962L278.854,276.085C278.854,276.085,285.239,214.789,286.374,204.81C287.509,194.832,288,190.923,288,190.923C288,190.923,279.554,257.444,290.881,263.167C302.208,268.891,333.186,214.366,333.186,214.366Z" clip-rule="evenodd" fill="rgb(234,194,169)" stroke="none" stroke-width="1" stroke-linejoin="round" stroke-miterlimit="2"/><path id="erVvIJzdwoT27" d="M388.293,226.676C388.293,226.676,354.344,256.398,325.86,306.036L303.067,282.962C303.067,282.962,321.713,236.049,333.186,214.366C333.186,214.366,311.435,264.227,314.234,272.222C317.032,280.217,324.52,289.379,333.186,282.05C341.851,274.721,366.609,245.925,388.293,226.676Z" clip-rule="evenodd" fill="rgb(234,194,169)" stroke="none" stroke-width="1" stroke-linejoin="round" stroke-miterlimit="2"/><path id="erVvIJzdwoT28" d="M441.46,308.701C441.46,308.701,417.557,316.359,392.28,327.937C367.003,339.516,347.848,353.917,347.848,353.917L325.86,306.036C325.86,306.036,351.819,262.796,373.236,241.691C373.236,241.691,349.18,270.006,346.349,286.855C343.517,303.704,353.511,331.521,386.159,322.859C418.806,314.198,441.46,308.701,441.46,308.701Z" clip-rule="evenodd" fill="rgb(234,194,169)" stroke="none" stroke-width="1" stroke-linejoin="round" stroke-miterlimit="2"/><path id="erVvIJzdwoT29" d="M416.481,347.764C416.481,347.764,380.568,360.567,365.54,388.186C365.54,388.186,349.178,387.356,348.291,386.478C347.403,385.6,347.848,353.916,347.848,353.916C347.848,353.916,366.109,341.984,388.293,329.812C388.293,329.812,364.282,342.836,362.728,358.999C361.173,375.162,401.608,351.236,416.481,347.764Z" clip-rule="evenodd" fill="rgb(234,194,169)" stroke="none" stroke-width="1" stroke-linejoin="round" stroke-miterlimit="2"/><path id="erVvIJzdwoT30" d="M138.799,359.426C138.799,359.426,119.648,352.175,73.175,355.174C73.175,355.174,48.864,351.124,43.113,329.385C37.363,307.646,47.523,299.706,47.523,299.706C47.523,299.706,15.153,285.881,13.377,242.795C11.6,199.709,41.693,191.936,41.693,191.936C41.693,191.936,27.239,152.548,48.18,123.159C69.122,93.771,93.33,97.991,100.659,100.656C100.659,100.656,94.275,65.342,129.448,46.021C164.622,26.7,187.941,41.691,187.941,41.691C187.941,41.691,209.595,-0.951,257.9,0.048C306.205,1.048,319.198,36.027,319.198,36.027C319.198,36.027,353.844,19.037,387.158,32.03C420.471,45.022,424.135,86.331,424.135,86.331C424.135,86.331,465.112,76.337,487.599,103.821C510.086,131.305,494.762,162.62,494.762,162.62C494.762,162.62,541.734,175.279,544.233,219.919C546.731,264.56,522.079,292.377,496.427,297.208C496.427,297.208,504.09,306.702,497.76,324.358C491.43,342.015,470.776,349.843,452.786,349.677C434.797,349.51,408.954,355.575,389.894,366.451C370.834,377.327,367.469,385.736,367.469,385.736C367.469,385.736,374.721,368.277,405.814,352.731C436.907,337.184,462.891,333.853,462.891,333.853C462.891,333.853,479.548,330.521,482.213,315.641C484.879,300.761,473.33,301.427,473.33,301.427C473.33,301.427,536.626,272.555,527.742,222.807C518.859,173.058,473.108,171.503,473.108,171.503C473.108,171.503,497.804,144.838,476.661,115.314C455.518,85.79,407.146,108.873,407.146,108.873C407.146,108.873,413.365,67.786,372.5,48.465C331.635,29.143,314.312,54.461,314.312,54.461C314.312,54.461,295.212,14.04,256.235,15.04C217.257,16.039,196.769,50.852,196.103,58.181C196.103,58.181,174.616,46.022,140.302,62.345C105.989,78.669,113.985,115.98,113.985,115.98C113.985,115.98,76.895,116.202,63.347,140.41C49.8,164.618,56.907,194.157,56.907,194.157C56.907,194.157,27.591,210.592,30.922,242.351C34.253,274.11,72.231,297.652,72.231,297.652C72.231,297.652,61.127,304.314,62.237,318.973C63.347,333.631,77.561,344.735,84.002,346.068C90.443,347.4,123.193,346.578,138.799,359.426Z" clip-rule="evenodd" fill="rgb(246,146,115)" stroke="none" stroke-width="1" stroke-linejoin="round" stroke-miterlimit="2"/><path id="erVvIJzdwoT31" d="M47.523,299.706C47.523,299.706,16.375,286.991,13.377,242.795C10.378,198.599,41.693,191.936,41.693,191.936C41.693,191.936,25.703,149.183,49.022,119.256C72.342,89.329,100.659,100.656,100.659,100.656C100.659,100.656,94.329,63.011,131.974,44.356C169.619,25.7,187.941,41.691,187.941,41.691C187.941,41.691,209.262,-1.319,260.565,0.031C311.869,1.381,319.198,36.027,319.198,36.027C319.198,36.027,359.66,15.879,393.064,34.781C426.468,53.684,424.135,86.331,424.135,86.331C424.135,86.331,470.677,75.538,490.548,107.752C510.419,139.966,494.762,162.62,494.762,162.62C494.762,162.62,535.088,169.949,544.408,209.592C553.727,249.236,534.738,289.212,496.427,297.208C496.427,297.208,524.765,288.357,535.426,249.047C546.086,209.737,528.742,173.94,486.433,168.113C486.433,168.113,505.121,145.065,482.109,111.651C459.097,78.236,416.481,94.992,416.481,94.992C416.481,94.992,418.671,50.084,375.696,37.425C332.721,24.765,314.234,46.355,314.234,46.355C314.234,46.355,305.135,7.865,256.164,7.865C207.193,7.865,191.948,47.354,191.948,47.354C191.948,47.354,169.144,35.096,135.608,53.53C102.072,71.963,107.544,107.752,107.544,107.752C107.544,107.752,70.832,100.921,53.811,129.058C36.79,157.195,48.245,196.815,48.245,196.815C48.245,196.815,17.709,206.843,24.816,249.485C31.923,292.127,60.682,300.735,60.682,300.735C60.682,300.735,46.871,307.858,51.091,329.623C55.31,351.389,73.175,355.174,73.175,355.174C73.175,355.174,47.357,348.289,42.027,327.19C36.696,306.091,47.523,299.706,47.523,299.706Z" clip-rule="evenodd" fill="rgb(249,172,138)" stroke="none" stroke-width="1" stroke-linejoin="round" stroke-miterlimit="2"/><path id="erVvIJzdwoT32" d="M329.82,303.613C320.416,291.669,307.554,282.577,292.742,277.847C292.361,277.702,291.974,277.56,291.59,277.421C309.8,281.33,321.849,291.662,329.82,303.613Z" clip-rule="evenodd" fill="rgb(250,248,243)" stroke="none" stroke-width="1" stroke-linejoin="round" stroke-miterlimit="2"/><path id="erVvIJzdwoT33" d="M255.84,282.994C255.84,282.994,286.328,272.333,312.757,290.767C339.186,309.2,334.522,346.734,334.522,346.734C334.522,346.734,323.64,319.417,297.655,318.75C271.67,318.084,267.45,320.083,263.453,309.867C259.455,299.65,255.84,282.994,255.84,282.994Z" clip-rule="evenodd" fill="rgb(255,255,255)" stroke="none" stroke-width="1" stroke-linejoin="round" stroke-miterlimit="2"/><path id="erVvIJzdwoT34" d="M64.994,238.312C58.425,238.239,55.47,249.787,71.563,260.201C87.657,270.614,129.04,282.215,129.368,278.385C129.697,274.556,84.044,238.525,64.994,238.312Z" clip-rule="evenodd" fill="rgb(255,247,241)" stroke="none" stroke-width="1" stroke-linejoin="round" stroke-miterlimit="2"/><path id="erVvIJzdwoT35" d="M96.196,145.808C87.287,141.548,84.044,157.488,101.451,170.205C118.858,182.922,150.955,214.608,152.97,214.365C154.986,214.123,126.412,160.259,96.196,145.808Z" clip-rule="evenodd" fill="rgb(255,247,241)" stroke="none" stroke-width="1" stroke-linejoin="round" stroke-miterlimit="2"/><path id="erVvIJzdwoT36" d="M160.57,82.091C150.717,84.391,194.322,170.954,200.6,170.205C206.879,169.456,184.217,101.798,177.648,92.273C171.08,82.748,160.57,82.091,160.57,82.091Z" clip-rule="evenodd" fill="rgb(255,247,241)" stroke="none" stroke-width="1" stroke-linejoin="round" stroke-miterlimit="2"/><path id="erVvIJzdwoT37" d="M256.164,28.557C250.561,27.571,242.679,30.527,247.277,66.327C251.875,102.126,258.772,133.328,260.086,133.328C261.4,133.328,266.641,70.041,265.006,50.777C263.37,31.513,256.164,28.557,256.164,28.557Z" clip-rule="evenodd" fill="rgb(255,247,241)" stroke="none" stroke-width="1" stroke-linejoin="round" stroke-miterlimit="2"/><path id="erVvIJzdwoT38" d="M372.411,65.67C363.215,63.699,330.416,136.94,333.186,139.896C335.955,142.852,376.353,86.033,376.353,76.837C376.353,67.64,372.411,65.67,372.411,65.67Z" clip-rule="evenodd" fill="rgb(255,247,241)" stroke="none" stroke-width="1" stroke-linejoin="round" stroke-miterlimit="2"/><path id="erVvIJzdwoT39" d="M456.82,126.151C449.983,119.652,395.074,177.506,399.343,177.587C403.613,177.667,470.694,139.338,456.82,126.151Z" clip-rule="evenodd" fill="rgb(255,247,241)" stroke="none" stroke-width="1" stroke-linejoin="round" stroke-miterlimit="2"/><path id="erVvIJzdwoT40" d="M503.129,211.816C497.283,201.458,437.661,245.653,438.044,251.237C438.427,256.82,510.355,224.617,503.129,211.816Z" clip-rule="evenodd" fill="rgb(255,247,241)" stroke="none" stroke-width="1" stroke-linejoin="round" stroke-miterlimit="2"/></g><g id="erVvIJzdwoT41" clip-rule="evenodd"><path id="erVvIJzdwoT42" d="M4.37,453.342C4.37,453.342,1.769,468.747,77.058,524.381C152.348,580.015,210.98,574.018,210.98,574.018C210.98,574.018,235.632,593.007,272.611,580.681C272.611,580.681,294.598,592.674,317.917,581.348C317.917,581.348,324.58,587.344,343.902,583.346C363.224,579.349,376.217,572.353,376.217,572.353C376.217,572.353,428.519,568.022,482.821,528.045C537.123,488.07,548.611,463.327,548.611,463.327C548.611,463.327,462.833,438.764,286.269,436.432C109.706,434.1,4.37,453.342,4.37,453.342Z" clip-rule="evenodd" fill="rgb(246,146,115)" stroke="none" stroke-width="1" stroke-linejoin="round" stroke-miterlimit="2"/><path id="erVvIJzdwoT43" d="M10.097,462.417C10.097,462.417,-9.558,445.76,18.759,422.441C47.076,399.121,147.839,384.353,163.751,387.239C179.665,390.126,366.855,393.038,366.855,393.038C366.855,393.038,448.286,393.399,503.809,420.69C559.332,447.981,555.778,467.525,535.346,474.188C514.913,480.851,492.704,468.858,492.704,468.858C492.704,468.858,518.467,494.177,490.483,507.058C462.5,519.939,438.069,504.837,438.069,504.837C438.069,504.837,440.29,523.937,415.416,527.49C390.542,531.044,371.442,515.941,366.556,512.832C366.556,512.832,354.119,535.93,313.254,536.374C272.389,536.818,257.286,512.832,257.286,512.832C257.286,512.832,226.193,535.041,181.331,526.602C136.468,518.162,132.471,490.5,132.471,490.5C132.471,490.5,111.149,505.725,84.054,503.06C56.959,500.395,55.182,481.295,57.848,475.077C57.848,475.077,22.313,476.409,10.097,462.417Z" clip-rule="evenodd" fill="rgb(244,218,200)" stroke="none" stroke-width="1" stroke-linejoin="round" stroke-miterlimit="2"/><path id="erVvIJzdwoT44" d="M65.732,457.753C65.732,457.753,63.4,487.07,81.389,494.732C99.379,502.394,129.694,488.07,129.694,488.07C129.694,488.07,153.68,523.381,195.989,522.049C238.297,520.716,258.286,506.391,258.286,506.391C258.286,506.391,292.599,538.04,327.245,531.71C361.892,525.38,362.558,507.735,362.558,507.735C362.558,507.735,390.542,527.046,415.86,521.716C441.179,516.386,433.183,495.15,433.183,495.15C433.183,495.15,448.175,504.393,457.169,503.393C466.164,502.394,475.492,463.417,472.494,451.09C469.495,438.764,65.732,457.753,65.732,457.753Z" clip-rule="evenodd" fill="rgb(221,133,132)" stroke="none" stroke-width="1" stroke-linejoin="round" stroke-miterlimit="2"/><path id="erVvIJzdwoT45" d="M267.725,404.451C211.091,406.006,197.099,398.899,148.461,406.006C99.823,413.113,64.399,445.427,65.732,457.753C67.064,470.079,128.362,507.058,264.282,507.724C400.203,508.39,470.162,477.408,472.494,451.09C474.826,424.772,402.202,400.455,349.233,402.786C296.264,405.117,267.725,404.451,267.725,404.451Z" clip-rule="evenodd" fill="rgb(248,173,169)" stroke="none" stroke-width="1" stroke-linejoin="round" stroke-miterlimit="2"/><path id="erVvIJzdwoT46" d="M251.956,488.07C251.956,488.07,264.948,468.839,292.599,461.63C320.249,454.422,389.209,474.85,389.209,474.85L399.536,474.079C399.536,474.079,369.887,449.425,353.23,442.429C336.573,435.433,383.879,414.864,422.523,420.318C461.167,425.772,472.494,451.09,472.494,451.09C472.494,451.09,475.856,431.071,422.037,412.94C368.219,394.808,286.271,404.43,273.276,404.52C260.282,404.611,201.225,396.851,145.472,406.481C89.718,416.111,75.32,436.765,65.695,452.756C65.695,452.756,89.718,425.439,129.028,416.111C168.338,406.783,189.326,413.532,188.993,420.318C188.66,427.104,152.015,444.095,118.034,448.758C118.034,448.758,143.686,454.089,147.017,453.422C150.349,452.756,192.991,449.281,216.977,455.183C240.962,461.085,251.956,488.07,251.956,488.07Z" clip-rule="evenodd" fill="rgb(247,160,156)" stroke="none" stroke-width="1" stroke-linejoin="round" stroke-miterlimit="2"/><path id="erVvIJzdwoT47" d="M163.518,403.677C163.518,403.677,308.08,392.661,405.735,408.321C405.735,408.321,352.854,406.054,341.528,411.051C330.201,416.048,319.895,432.268,336.885,444.828C353.875,457.389,366.545,461.614,366.545,461.614C366.545,461.614,325.273,439.952,297.258,444.852C269.242,449.752,255.285,471.075,255.285,471.075C255.285,471.075,263.615,450.155,235.298,441.16C206.981,432.165,158.677,447.061,158.677,447.061L152.015,447.061C152.015,447.061,191.325,437.083,204.65,428.754C217.976,420.426,201.675,404.569,163.518,403.677Z" clip-rule="evenodd" fill="rgb(200,118,119)" stroke="none" stroke-width="1" stroke-linejoin="round" stroke-miterlimit="2"/><path id="erVvIJzdwoT48" d="M131.526,494.398C131.526,494.398,146.018,543.259,210.98,574.018C210.98,574.018,243.961,594.784,272.611,580.681C272.611,580.681,258.776,566.768,257.286,512.832C257.286,512.832,255.51,533.265,259.063,554.585C262.617,575.906,258.619,577.683,241.296,572.797C223.972,567.911,184.884,541.704,178.221,534.597C171.559,527.49,191.334,527.899,191.334,527.899C191.334,527.899,150.571,525.269,131.526,494.398Z" clip-rule="evenodd" fill="rgb(230,121,93)" stroke="none" stroke-width="1" stroke-linejoin="round" stroke-miterlimit="2"/><path id="erVvIJzdwoT49" d="M366.556,512.832C366.556,512.832,361.885,535.383,340.901,560.309C319.916,585.234,311.921,586.307,293.265,586.215C274.609,586.123,272.611,580.681,272.611,580.681C272.611,580.681,262.866,572.353,259.932,543.859C259.932,543.859,263.949,572.353,287.935,575.462C311.921,578.571,337.428,544.75,332.798,539.995C328.167,535.239,319.583,536.38,319.583,536.38C319.583,536.38,356.339,534.153,366.556,512.832Z" clip-rule="evenodd" fill="rgb(230,121,93)" stroke="none" stroke-width="1" stroke-linejoin="round" stroke-miterlimit="2"/><path id="erVvIJzdwoT50" d="M59.623,489.738C59.623,489.738,80.737,525.675,123.261,552.567C165.784,579.46,210.98,574.018,210.98,574.018C210.98,574.018,176.38,555.818,154.425,532.104C154.425,532.104,172.891,553.253,171.114,555.474C169.338,557.695,143.575,557.251,115.591,534.597C87.608,511.944,93.853,503.983,93.853,503.983C93.853,503.983,65.57,504.38,59.623,489.738Z" clip-rule="evenodd" fill="rgb(230,121,93)" stroke="none" stroke-width="1" stroke-linejoin="round" stroke-miterlimit="2"/><path id="erVvIJzdwoT51" d="M437.43,515.996C435.282,518.456,402.757,556.362,376.217,572.353C376.217,572.353,417.851,567.551,447.93,549.526C478.008,531.5,499.412,503.445,501.586,497.917C501.586,497.917,471.383,526.158,445.621,543.481C419.857,560.804,452.283,511.225,452.283,511.225L438.069,504.837C438.069,504.837,440.475,512.509,437.43,515.996Z" clip-rule="evenodd" fill="rgb(230,121,93)" stroke="none" stroke-width="1" stroke-linejoin="round" stroke-miterlimit="2"/><path id="erVvIJzdwoT52" d="M366.556,512.832C366.556,512.832,353.23,556.584,317.917,581.348C317.917,581.348,323.914,585.456,343.902,583.346C363.891,581.237,381.881,568.675,381.881,568.675L415.075,539.995C415.075,539.995,388.765,561.248,370.553,564.802C352.342,568.355,352.342,555.03,358.116,542.148C363.891,529.267,368.679,514.404,368.679,514.404L366.556,512.832Z" clip-rule="evenodd" fill="rgb(230,121,93)" stroke="none" stroke-width="1" stroke-linejoin="round" stroke-miterlimit="2"/><path id="erVvIJzdwoT53" d="M548.611,463.327C548.611,463.327,554.533,462.339,514.957,502.021C475.381,541.704,458.393,543.902,458.393,543.902C458.393,543.902,494.033,513.207,501.586,497.917C509.139,482.627,492.704,468.858,492.704,468.858C492.704,468.858,507.551,478.61,524.225,477.287C540.898,475.965,548.611,463.327,548.611,463.327Z" clip-rule="evenodd" fill="rgb(230,121,93)" stroke="none" stroke-width="1" stroke-linejoin="round" stroke-miterlimit="2"/><path id="erVvIJzdwoT54" d="M4.37,453.342C4.37,453.342,3.434,465.082,44.966,504.615C86.497,544.147,119.081,550.492,119.081,550.492C119.081,550.492,84.873,524.118,69.028,503.151C53.183,482.183,57.847,475.076,57.847,475.076C57.847,475.076,15.965,478.69,4.37,453.342Z" clip-rule="evenodd" fill="rgb(230,121,93)" stroke="none" stroke-width="1" stroke-linejoin="round" stroke-miterlimit="2"/><path id="erVvIJzdwoT55" d="M147.573,420.318C120.477,422.218,74.717,443.948,74.726,456.114C74.736,468.279,137.356,484.013,172.447,491.539C207.538,499.062,228.748,502.172,227.915,485.294C227.082,468.414,188.438,457.791,160.453,463.324C132.47,468.858,114.802,463.324,114.802,463.324C114.802,463.324,104.279,450.716,127.258,440.243C150.238,429.77,147.573,420.318,147.573,420.318Z" clip-rule="evenodd" fill="rgb(250,200,198)" stroke="none" stroke-width="1" stroke-linejoin="round" stroke-miterlimit="2"/><path id="erVvIJzdwoT56" d="M269.115,494.398C269.115,494.398,274.609,475.957,307.479,471.075C340.349,466.193,397.771,482.737,397.771,482.737L415.867,476.853C415.867,476.853,376.772,452.423,378.993,440.874C381.214,429.325,424.998,427.8,443.844,433.101C462.69,438.401,462.726,454.847,458.393,461.63C454.06,468.414,442.511,480.903,383.879,491.539C325.247,502.172,278.723,502.616,269.115,494.398Z" clip-rule="evenodd" fill="rgb(250,200,198)" stroke="none" stroke-width="1" stroke-linejoin="round" stroke-miterlimit="2"/><path id="erVvIJzdwoT57" d="M193.125,389.034L198.676,401.651C198.676,401.651,146.216,403.417,114.802,414.095C83.388,424.772,62.849,450.128,66.288,459.579C66.288,459.579,30.806,465.938,20.452,455.183C20.452,455.183,43.373,451.715,51.243,442.135C58.797,432.939,74.514,408.635,124.484,397.796C174.455,386.957,135.301,390.192,135.301,390.192L163.751,387.24L193.125,389.034Z" clip-rule="evenodd" fill="rgb(234,194,169)" stroke="none" stroke-width="1" stroke-linejoin="round" stroke-miterlimit="2"/><path id="erVvIJzdwoT58" d="M462.391,498.926C462.391,498.926,474.826,478.408,472.494,451.09C470.162,423.773,404.292,399.811,343.448,402.631L348.179,392.728C348.179,392.728,424.242,395.449,464.578,412.358C464.578,412.358,411.4,401.651,408.117,401.651C405.845,401.651,459.904,409.355,477.18,422.976C510.458,449.213,497.479,480.073,482.654,492.066C467.83,504.059,462.391,498.926,462.391,498.926Z" clip-rule="evenodd" fill="rgb(234,194,169)" stroke="none" stroke-width="1" stroke-linejoin="round" stroke-miterlimit="2"/><path id="erVvIJzdwoT59" d="M163.751,387.24C163.751,387.24,123.904,383.837,62.503,403.139C1.102,422.441,0.973,441.268,4.37,453.342C7.766,465.415,24.978,475.743,57.847,475.076C57.847,475.076,52.608,496.664,77.659,502.027C102.71,507.391,119.001,500.843,131.526,494.398C131.526,494.398,141.599,524.026,188.449,527.701C235.299,531.377,257.286,512.832,257.286,512.832C257.286,512.832,274.609,541.05,319.583,536.38C364.557,531.71,366.556,512.832,366.556,512.832C366.556,512.832,394.685,535.393,420.763,526.389C446.842,517.385,438.069,504.837,438.069,504.837C438.069,504.837,470.031,519.539,492.667,505.969C515.302,492.401,498.645,472.744,490.483,466.748C490.483,466.748,511.915,481.406,532.126,476.187C552.336,470.968,552.78,458.753,544.452,447.426C536.123,436.099,503.809,412.946,453.005,401.952C402.202,390.959,366.855,393.038,366.855,393.038C366.855,393.038,444.677,403.285,483.154,418.443C521.632,433.601,531.115,454.307,529.288,458.779C527.462,463.25,512.304,471.912,475.492,453.756C475.492,453.756,495.147,480.74,482.654,492.066C470.162,503.393,443.178,499.396,428.02,489.901C428.02,489.901,431.296,510.722,413.861,513.943C396.427,517.163,378.438,511.166,363.113,498.951C363.113,498.951,347.789,523.27,317.14,524.159C286.491,525.047,259.84,496.953,259.84,496.953C259.84,496.953,231.524,516.504,192.213,511.225C152.903,505.947,138.356,484.238,133.359,483.406C123.923,481.832,112.926,495.287,87.83,487.737C62.733,480.185,71.395,459.974,69.84,459.308C68.286,458.642,23.763,467.895,16.538,449.98C9.313,432.065,36.561,412.76,83.166,400.675C129.771,388.591,163.751,387.24,163.751,387.24Z" clip-rule="evenodd" fill="rgb(250,185,159)" stroke="none" stroke-width="1" stroke-linejoin="round" stroke-miterlimit="2"/><path id="erVvIJzdwoT60" d="M65.633,401.651C65.633,401.651,24.089,412.113,6.1,433.101C-11.89,454.089,11.259,476.565,57.847,475.076C57.847,475.076,51.941,495.332,77.659,502.027C103.376,508.723,131.526,494.398,131.526,494.398C131.526,494.398,137.488,527.137,188.669,530.813C239.849,534.488,257.286,512.832,257.286,512.832C257.286,512.832,275.276,542.524,317.917,538.695C360.559,534.866,366.889,516.608,366.556,512.832C366.556,512.832,395.889,535.153,423.188,527.49C449.965,519.974,437.181,503.613,437.181,503.613C437.181,503.613,467.386,522.847,492.926,507.735C518.467,492.622,499.725,470.956,491.551,467.575C491.551,467.575,510.849,483.651,540.198,473.255C569.548,462.861,537.912,427.817,480.218,409.471C480.218,409.471,525.334,426.735,538.233,444.86C551.132,462.985,544.23,472.181,523.797,471.075C503.365,469.968,483.376,461.445,483.376,461.445C483.376,461.445,506.474,485.354,489.817,500.092C473.16,514.831,430.74,497.917,430.74,497.917C430.74,497.917,441.516,517.391,421.19,523.492C400.865,529.594,363.668,503.613,363.668,503.613C363.668,503.613,361.448,529.389,318.362,532.104C275.276,534.819,258.286,505.059,258.286,505.059C258.286,505.059,233.8,524.214,192.491,522.215C151.182,520.217,135.524,496.397,133.359,488.07C133.359,488.07,103.043,505.059,81.223,496.897C59.402,488.735,61.724,471.075,61.724,471.075C61.724,471.075,15.428,472.744,7.599,450.424C-0.23,428.104,49.151,405.782,65.633,401.651Z" clip-rule="evenodd" fill="rgb(252,208,194)" stroke="none" stroke-width="1" stroke-linejoin="round" stroke-miterlimit="2"/><path id="erVvIJzdwoT61" d="M393.147,397.02C393.147,397.02,365.507,390.617,348.179,392.728L343.448,402.631C343.448,402.631,384.744,403.377,413.798,410.433C440.15,416.832,460.381,430.713,467.216,438.887C474.051,447.061,473.236,460.694,472.273,467.158C471.31,473.623,469.003,482.044,467.586,487.38C466.168,492.714,462.391,498.926,462.391,498.926C462.391,498.926,477.607,499.446,484.313,490.224C491.02,481,483.695,465.051,475.917,454.359C475.917,454.359,489.481,460.434,496.556,462.124C496.556,462.124,482.389,458.228,477.18,447.499C471.971,436.77,463.322,424.071,435.952,412.247C408.582,400.423,355.595,397.686,355.595,397.686C355.595,397.686,362.385,393.946,393.147,397.02Z" clip-rule="evenodd" fill="rgb(189,124,111)" stroke="none" stroke-width="1" stroke-linejoin="round" stroke-miterlimit="2"/><path id="erVvIJzdwoT62" d="M134.647,390.616C134.647,390.616,169.842,383.927,192.934,388.218C192.934,388.218,197.002,398.644,198.712,401.634C198.712,401.634,154.153,403.27,124.977,410.925C89.521,420.228,66.023,445.126,66.023,457.753L66.023,459.542C66.023,459.542,38.722,464.71,23.388,457.117C23.388,457.117,37.014,458.08,45.66,453.342C57.358,446.93,72.372,429.107,105.326,413.232C138.279,397.358,182.618,395.825,185.793,394.402C188.968,392.979,161.451,386.829,134.647,390.616Z" clip-rule="evenodd" fill="rgb(189,124,111)" stroke="none" stroke-width="1" stroke-linejoin="round" stroke-miterlimit="2"/><path id="erVvIJzdwoT63" d="M5.162,459.978C5.162,459.978,29.904,493.699,59.623,518.332C89.342,542.965,120.048,550.492,120.048,550.492C120.048,550.492,78.339,518.004,63.559,495.013C63.559,495.013,86.878,525.394,84.087,526.872C81.295,528.349,40.569,492.714,30.387,482.204C20.206,471.694,21.906,470.343,21.906,470.343C21.906,470.343,11.302,466.984,5.162,459.978Z" clip-rule="evenodd" fill="rgb(189,94,76)" stroke="none" stroke-width="1" stroke-linejoin="round" stroke-miterlimit="2"/><path id="erVvIJzdwoT64" d="M137.436,507.735C137.436,507.735,149.273,527.937,169.805,546.454C190.336,564.97,210.98,574.018,210.98,574.018C210.98,574.018,189.475,576.45,161.906,569.314C134.338,562.178,119.081,549.73,119.081,549.73C119.081,549.73,156.014,566.777,174.407,568.583C192.799,570.389,180.811,561.193,168.495,547.891C156.179,534.59,141.355,516.843,137.436,507.735Z" clip-rule="evenodd" fill="rgb(189,94,76)" stroke="none" stroke-width="1" stroke-linejoin="round" stroke-miterlimit="2"/><path id="erVvIJzdwoT65" d="M257.286,512.832C257.286,512.832,260.895,532.577,263.085,548.39C265.274,564.204,272.611,580.681,272.611,580.681C272.611,580.681,261.99,586.111,247.977,586.215C233.963,586.319,211.082,576.794,203.857,571.32C203.857,571.32,229.745,581.18,247.539,580.188C264.234,579.257,266.369,574.418,266.369,574.418C266.369,574.418,256.305,542.475,257.286,512.832Z" clip-rule="evenodd" fill="rgb(189,94,76)" stroke="none" stroke-width="1" stroke-linejoin="round" stroke-miterlimit="2"/><path id="erVvIJzdwoT66" d="M366.556,512.832C366.556,512.832,366.871,523.205,349.573,550.492C332.276,577.779,312.35,587.652,291.987,586.219C271.624,584.786,271.47,580.015,268.34,569.504C268.34,569.504,273.157,586.1,294.396,582.815C315.635,579.531,334.477,565.08,343.448,552.161C352.42,539.243,350.97,530.432,350.97,530.432C350.97,530.432,364.297,524.915,366.556,512.832Z" clip-rule="evenodd" fill="rgb(189,94,76)" stroke="none" stroke-width="1" stroke-linejoin="round" stroke-miterlimit="2"/><path id="erVvIJzdwoT67" d="M415.075,539.995C415.075,539.995,392.248,565.249,371.896,574.47C351.544,583.691,326.08,590.588,317.448,580.407L335.341,567.05C335.341,567.05,326.364,576.466,331.619,578.655C336.874,580.845,381.358,576.566,415.075,539.995Z" clip-rule="evenodd" fill="rgb(189,94,76)" stroke="none" stroke-width="1" stroke-linejoin="round" stroke-miterlimit="2"/><path id="erVvIJzdwoT68" d="M501.995,500.092C501.995,500.092,471.794,547.231,420.756,562.724C369.717,578.217,374.753,570.992,374.753,570.992L393.365,560.263C393.365,560.263,401.466,563.985,426.209,555.883C450.951,547.782,493.92,515.68,501.995,500.092Z" clip-rule="evenodd" fill="rgb(189,94,76)" stroke="none" stroke-width="1" stroke-linejoin="round" stroke-miterlimit="2"/><path id="erVvIJzdwoT69" d="M549.543,466.852C549.543,466.852,527.477,493.208,509.741,509.136C492.005,525.065,471.166,544.323,458.393,543.902C445.621,543.481,457.684,543.293,457.684,543.293C457.684,543.293,498.329,508.314,501.995,500.092C501.995,500.092,492.239,514.062,496.556,514.062C500.873,514.062,524.028,487.953,524.685,482.534C525.342,477.113,517.957,476.687,517.957,476.687C517.957,476.687,540.9,478.432,549.543,466.852Z" clip-rule="evenodd" fill="rgb(189,94,76)" stroke="none" stroke-width="1" stroke-linejoin="round" stroke-miterlimit="2"/><path id="erVvIJzdwoT70" d="M366.855,393.038C366.855,393.038,399.058,391.082,441.973,399.913C484.889,408.744,502.623,419.477,502.623,419.477C502.623,419.477,466.953,405.35,429.055,399.328C391.157,393.307,468.51,413.422,468.51,413.422C468.51,413.422,408.661,396.382,366.855,393.038Z" clip-rule="evenodd" fill="rgb(246,146,115)" stroke="none" stroke-width="1" stroke-linejoin="round" stroke-miterlimit="2"/><path id="erVvIJzdwoT71" d="M84.482,396.914C84.482,396.914,159.569,379.297,192.934,388.218C192.934,388.218,122.02,386.176,73.975,403.226C73.975,403.226,33.131,415.592,21.496,430.424C21.496,430.424,28.514,419.206,56.498,408.06C84.482,396.914,122.984,390.251,122.984,390.251L84.482,396.914Z" clip-rule="evenodd" fill="rgb(246,146,115)" stroke="none" stroke-width="1" stroke-linejoin="round" stroke-miterlimit="2"/><path id="erVvIJzdwoT72" d="M366.496,501.107C366.496,501.107,392.209,519.734,413.861,513.943C435.514,508.151,427.303,489.738,427.303,489.738C427.303,489.738,429.274,503.224,417.286,506.673C405.298,510.121,379.844,502.075,379.187,501.582C378.53,501.089,395.557,495.67,395.557,495.67C395.557,495.67,376.96,500.796,366.496,501.107Z" clip-rule="evenodd" fill="rgb(200,118,119)" stroke="none" stroke-width="1" stroke-linejoin="round" stroke-miterlimit="2"/><path id="erVvIJzdwoT73" d="M273.431,507.494C273.431,507.494,290.341,523.333,315.961,524.057C341.581,524.781,360.543,502.339,360.543,502.339C360.543,502.339,344.701,513.442,323.189,514.909C301.676,516.375,282.463,507.494,282.463,507.494L273.431,507.494Z" clip-rule="evenodd" fill="rgb(200,118,119)" stroke="none" stroke-width="1" stroke-linejoin="round" stroke-miterlimit="2"/></g></g><g id="erVvIJzdwoT74" transform="matrix(0.243889 0 0 0.243889 109.563742 268.568304)"><path id="erVvIJzdwoT75" d="M949.4,377.721L949.4,67.229C949.402209,34.661064,923.003936,8.25697,890.436,8.252L653.139,0.523L503.357,144.223L219.446,8.252C129.279,8.252,117.577,-27.901,84.838,56.119L19.111,226.5C51.849,310.52,129.279,436.682,219.446,436.682L668.78,528.272L890.436,436.682C922.999975,436.682552,949.398895,410.284975,949.4,377.721Z" transform="matrix(1 0 0 1 198.436 5.374)" fill="rgb(252,205,86)" stroke="none" stroke-width="1"/><path id="erVvIJzdwoT76" d="M164.529,231.878L230.257,61.493L70.822,0L5.106,170.386Z" transform="matrix(1 0 0 1 53.018 0)" fill="rgb(70,201,204)" stroke="none" stroke-width="1"/><path id="erVvIJzdwoT77" d="M136.487,60.575L140.642,49.795L15.334,1.461L11.179,12.23Z" transform="matrix(1 0 0 1 116.075 15.17)" fill="rgb(11,160,160)" stroke="none" stroke-width="1"/><path id="erVvIJzdwoT78" d="M135.731,62.562L139.886,51.782L14.567,3.448L10.412,14.228Z" transform="matrix(1 0 0 1 108.111 35.802)" fill="rgb(11,160,160)" stroke="none" stroke-width="1"/><path id="erVvIJzdwoT79" d="M134.954,64.549L139.109,53.78L13.8,5.435L9.646,16.215Z" transform="matrix(1 0 0 1 100.158 56.433)" fill="rgb(11,160,160)" stroke="none" stroke-width="1"/><path id="erVvIJzdwoT80" d="M134.187,66.525L138.353,55.756L13.034,7.423L8.879,18.192Z" transform="matrix(1 0 0 1 92.194 77.075)" fill="rgb(11,160,160)" stroke="none" stroke-width="1"/><path id="erVvIJzdwoT81" d="M133.431,68.512L137.586,57.743L12.267,9.41L8.112,20.179Z" transform="matrix(1 0 0 1 84.23 97.707)" fill="rgb(11,160,160)" stroke="none" stroke-width="1"/><path id="erVvIJzdwoT82" d="M132.654,70.511L136.809,59.742L11.5,11.4L7.346,22.177Z" transform="matrix(1 0 0 1 76.276 118.339)" fill="rgb(11,160,160)" stroke="none" stroke-width="1"/><path id="erVvIJzdwoT83" d="M131.9,72.5L136.055,61.731L10.734,13.384L6.579,24.164L131.9,72.5Z" transform="matrix(1 0 0 1 68.312 138.97)" fill="rgb(11,160,160)" stroke="none" stroke-width="1"/><path id="erVvIJzdwoT84" d="M36.71,8.247L346.951,233.387L346.951,329.371L427.306,372.024L540.616,258.635L427.306,149.23L492.418,30.684L673.584,8.247L470.4,0.518L320.618,144.218L36.71,8.247Z" transform="matrix(1 0 0 1 381.172 5.379)" fill="rgb(234,172,33)" stroke="none" stroke-width="1"/><path id="erVvIJzdwoT85" d="M69.1,33.822L130.388,13.582L281.958,181.9L88.214,175.2L106.222,226.835L69.1,226.835L25.025,151.65L72.289,114.575L69.1,33.822Z" transform="matrix(1 0 0 1 259.843 141.026)" fill="rgb(234,172,33)" stroke="none" stroke-width="1"/><path id="erVvIJzdwoT86" d="M77.3,414.9L241.937,185.72L208.916,4.057L293.892,25.776L293.892,174.806L224.932,250.551L252.1,325.727L77.3,414.9Z" transform="matrix(1 0 0 1 802.651 42.125)" fill="rgb(234,172,33)" stroke="none" stroke-width="1"/><path id="erVvIJzdwoT87" d="M40.191,150.95L188.516,135.025L205.816,23.343L263.1,125.474L368.384,185.988L325.332,230.576L227.754,179.613L174.639,189.164L40.191,150.95Z" transform="matrix(1 0 0 1 417.316 242.378)" fill="rgb(255,221,146)" stroke="none" stroke-width="1"/><path id="erVvIJzdwoT88" d="M25.025,131.015L88.214,63.25L181.352,94.543L141.693,4.057L69.1,4.057L25.025,131.015Z" transform="matrix(1 0 0 1 259.843 42.125)" fill="rgb(255,221,146)" stroke="none" stroke-width="1"/><path id="erVvIJzdwoT89" d="M628.089,586.592L433.582,577.929L235.365,513.5L433.583,577.918ZM812.689,453.992L799.052,383.415ZM628.2,423.7C605.777421,418.423263,583.710496,411.735618,562.131,403.677L532.99,388.218L530.19,356.538L609.509,392.088L707.383,348.911L611.983,363.072L685.083,328.911L588.441,359.05L494.29,302.27L496.43,307.541L458.512,281.678L765.3,344.218L747.018,363.069L758.174,419.348L628.2,423.7ZM46.447,400.941L8.313,285.844C25.877,218.09,65.613,165.67,128.813,129.437L171.375,127.217C211.084,193.446,268.171,255.8,331.565,255.8L376.21,264.907L291.11,363.065L224.222,341.565L174.659,322.714L169.889,324.091L108.8,304.456C108.8,304.456,64.33,353.063,46.447,400.941ZM141.2,171.567L203.15,321.474L282.435,340.052L330.757,284.581L270.05,321.474L236.594,285.844L222.968,217.407L187.042,242.177L164.742,149.266L108.8,161.652L38.228,270.147L141.2,171.567ZM1070.375,95.993L1061.519,95.993L1061.519,82.22L1070.375,95.994ZM1061.519,32.941L1061.519,17.941L1145.949,17.941C1146.609,18.396,1147.258,18.852,1147.896,19.318C1147.258,18.851,1146.61,18.396,1145.949,17.941L1083.785,17.941Z" transform="matrix(1 0 0 1 86.317 186.256)" fill="rgb(174,229,234)" stroke="none" stroke-width="1"/><path id="erVvIJzdwoT90" d="M616.563,344.218L309.771,281.678L306.128,279.196L318.3,242.178L239.914,212.035L356.9,245.286L392.427,238.9L460.52,262.11L507.59,286.7L513.79,280.268L530.136,285.846C593.989,159.023,685.113,72.453,807.893,32.577L809.532,41.593L743.839,133.035Q645.59,168.312,569.788,285.845C618.488,225.035,673.297,180.492,732.788,148.426L644.9,270.773L729.728,227.494L616.563,344.218ZM227.469,264.91L182.824,255.8C119.43,255.8,62.343,193.442,22.638,127.214L60.838,125.222L93.886,181.6L131.007,181.6L113,129.961L168.949,131.896L305.139,198.196L226.014,206.688L189.451,192.63L196.884,165.367L122.551,155.467L147.321,190.152L182.021,172.815L175.828,203.778L238.607,252.078L227.474,264.918ZM261.221,248.564L257.282,245.878L260.059,244.66ZM807.347,147.435L792.526,106.421L861.486,30.676L861.486,18.564C862.533,18.364,863.592,18.143,864.651,17.938L912.78,17.938L912.78,32.938L890.661,47.831L912.779,82.22L912.779,95.993L857.217,95.993L807.347,147.434Z" transform="matrix(1 0 0 1 235.058 186.256)" fill="rgb(173,208,163)" stroke="none" stroke-width="1"/><path id="erVvIJzdwoT91" d="M96.161,87.8L59.04,87.8L25.994,31.433L111.244,26.971L134.1,38.1L78.152,36.169Z" transform="matrix(1 0 0 1 269.904 280.048)" fill="rgb(166,195,140)" stroke="none" stroke-width="1"/><path id="erVvIJzdwoT92" d="M77.3,270.2L165.191,147.852C184.603468,137.407238,204.641487,128.169377,225.191,120.191C208.509321,122.652432,192.113013,126.762899,176.243,132.462L241.936,41.02L240.3,32.006C257.883711,26.320989,275.777038,21.642407,293.893,17.993L293.893,30.1L224.933,105.845L239.754,146.859L162.131,226.918L77.3,270.2Z" transform="matrix(1 0 0 1 802.652 186.827)" fill="rgb(166,195,140)" stroke="none" stroke-width="1"/><path id="erVvIJzdwoT93" d="M322.082,122.278L275.012,97.69L328.286,115.846ZM171.389,80.866L54.4,47.615L40.5,42.265L119.625,33.773L194.725,70.325L206.917,74.48Z" transform="matrix(1 0 0 1 420.566 350.676)" fill="rgb(174,215,188)" stroke="none" stroke-width="1"/><path id="erVvIJzdwoT94" d="M141.1,553.132C88.5,528.373,52.142,485.925,23.422,435.178L11.663,399.685L23.422,435.178C52.142,485.925,88.5,528.378,141.103,553.132L200.581,512.243ZM1035.59,452.732L917.9,452.732L764.271,382.154L917.9,452.731L1035.592,452.731C1099.942,442.566,1129.292,411.431,1129.277,362.678C1129.289,411.432,1099.942,442.566,1035.593,452.731ZM1119.49,307.185C1116.223,292.819,1121.22,277.748,1131.99,267.446C1176.021,225.282,1168.382,183.232,1131.432,141.239C1168.382,183.232,1176.021,225.282,1131.99,267.446C1121.218,277.747,1116.221,292.818,1119.488,307.184ZM1130.919,140.647C1120.279885,128.201147,1117.890232,110.688233,1124.806,95.847C1138.762,66.364,1141.847,39.033,1113.115,18.065C1141.847,39.033,1138.762,66.365,1124.815,95.847C1117.890174,110.684877,1120.275981,128.200738,1130.917,140.646Z" transform="matrix(1 0 0 1 121.101 187.512)" fill="rgb(181,233,235)" stroke="none" stroke-width="1"/><path id="erVvIJzdwoT95" d="M593.305,586.592L398.8,577.917L200.581,513.5L141.1,554.388C88.5,529.63,52.142,487.181,23.422,436.434L11.663,400.941C29.546,353.063,74.021,304.456,74.021,304.456L135.1,324.092L69.775,343.148L133.67,348.908L295.97,392.085L334.377,305.743L278.622,375.489L189.434,341.567L256.322,363.067L341.422,264.909L387.911,274.38L403.745,285.843L403.745,328.906L419.545,280.834L423.723,281.676L461.641,307.539L478.386,348.906L495.404,356.533L498.204,388.213L450.827,363.067L371.497,361.781L351.91,381.441L321.984,359.05L337.932,395.465L288.332,445.244L118.006,347.5L122.343,432.5L208.731,473.229L149.708,491.2L59.336,441.568L138.636,514.74L218.547,477.847L241.154,488.513L343.729,486.658L361.529,490.858L385.172,551.907L385.172,496.436L532.131,531.087L683.745,486.658L587.055,435.358L728.345,445.25C679.772,440.458,634.387,433.537,593.419,423.701L723.394,419.353L712.238,363.074L730.52,344.223L746.12,347.399L757.82,342.561Q746.943,350.877,735.782,359.055L723.397,400.763L760.564,441.572L761.805,415.629L750.649,389.618L748.179,363.072L761.8,363.072L801.721,324.426L962.841,257.845L982.113,292.063L915.419,347.5L820.494,340.055L906.745,412.612L1006.679,404.166L1064.096,328.911L1046.168,119.4L1026.919,143.829L1026.919,129.438L1026.737,129.313L1026.737,95.993L1035.593,95.993L1026.737,82.219L1026.737,51.451C1083.642,93.103,1111.122,149.826,1069.049,242.179C1099.112,358.479,1072.1,415.968,1004.619,431.734Q1012.627,432.502,1019.975,432.497C1083.426,432.497,1109.721,389.797,1100.022,305.744Q1154.44,200.169,1100.022,149.269C1110.13,83.405,1091.712,47.844,1039.816,47.844C1035.447577,47.84992,1031.082279,48.07788,1026.737,48.527L1026.737,32.941L1049.003,17.941L1111.167,17.941C1111.827,18.396,1112.476,18.852,1113.114,19.318C1141.845,40.286,1138.761,67.618,1124.805,97.1C1117.889232,111.941233,1120.278885,129.454147,1130.918,141.9C1131.089,142.094,1131.26,142.3,1131.43,142.492C1168.38,184.485,1176.018,226.535,1131.988,268.699C1121.219,278.999,1116.222,294.072,1119.488,308.438C1119.716,309.394,1119.966,310.35,1120.262,311.307C1126.204,330.613,1129.278,348.189,1129.278,363.932C1129.289,412.687,1099.943,443.82,1035.593,453.985L917.9,453.985L764.271,383.411L777.908,453.988C727.07,514.342,661.514,552.465,593.308,586.588Z" transform="matrix(1 0 0 1 121.101 186.256)" fill="rgb(124,210,215)" stroke="none" stroke-width="1"/><path id="erVvIJzdwoT96" d="M445.32,333.709L429.72,330.533L542.887,213.808L617.937,175.515C573.269,231.145,518.618,281.756,457.022,328.871ZM500.928,310.737L633.213,182.652L708.787,135.582L710.21,150.335L651.3,225.1L662.046,244.156ZM122.933,267.993L118.755,267.151L119.29,265.512ZM87.121,260.693L40.632,251.222L51.765,238.382L53.404,239.646L70.445,232.19L74.384,234.876L80.656,256.026L87.122,260.693ZM630.015,160.033L620.51,133.749L670.38,82.308L725.942,82.308L725.942,115.627L680.283,82.308C665.522888,109.453957,648.718369,135.437311,630.015,160.033ZM725.942,68.533L703.824,34.145L725.942,19.256L725.942,34.84C724.781,34.954,723.608,35.079,722.413,35.227C723.597,36.069,724.781,36.912,725.942,37.765Z" transform="matrix(1 0 0 1 421.895 199.941)" fill="rgb(123,190,150)" stroke="none" stroke-width="1"/><path id="erVvIJzdwoT97" d="M84.754,109.373L162.377,29.314L171.882,55.6Q165.974,63.4,159.804,71.081L84.754,109.374Z" transform="matrix(1 0 0 1 880.028 304.377)" fill="rgb(118,179,129)" stroke="none" stroke-width="1"/><path id="erVvIJzdwoT98" d="M168.969,320.063L82.717,247.505L177.642,254.95L244.337,199.513L225.065,165.295L229.994,163.257C249.987659,163.26834,268.623008,153.140228,279.489,136.357L289.142,236.357L289.142,51.28L308.391,26.851L326.32,236.361L268.9,311.616L168.966,320.062Z" transform="matrix(1 0 0 1 858.877 278.802)" fill="rgb(87,192,197)" stroke="none" stroke-width="1"/><path id="erVvIJzdwoT99" d="M105.024,124.592L94.278,105.537L153.187,30.771L159.448,95.656C148.582008,112.439228,129.946659,122.56734,109.953,122.556L105.024,124.594Z" transform="matrix(1 0 0 1 978.919 319.505)" fill="rgb(87,174,138)" stroke="none" stroke-width="1"/><path id="erVvIJzdwoT100" d="M57.82,89.033L55.293,60.449L92.949,87.849ZM83.546,65.924Q68.486,60.2,54.69,53.665L54.405,50.465L83.546,65.925Z" transform="matrix(1 0 0 1 564.905 524.005)" fill="rgb(124,210,215)" stroke="none" stroke-width="1"/><path id="erVvIJzdwoT101" d="M435.13,230.479L288.171,195.828L288.171,147.791L275.786,96.441L254.909,80.834L274.5,61.175L353.83,62.461L401.207,87.607L401.492,90.807C386.556473,83.7909,372.2518,75.503718,358.736,66.037L353.83,62.463C355.446,63.67,357.074,64.863,358.736,66.037L402.1,97.59L404.627,126.174L439.756,124.99L449.227,131.89L490.059,134.747L586.749,186.047L435.13,230.479ZM264.53,190.25L246.73,186.05L144.15,187.906L121.543,177.24L169.99,154.872L111.73,172.619L25.342,131.888L21.005,46.888L191.334,144.637L240.934,94.858L249.767,115.018L249.767,152.118L264.531,190.252Z" transform="matrix(1 0 0 1 218.102 486.863)" fill="rgb(87,192,197)" stroke="none" stroke-width="1"/><path id="erVvIJzdwoT102" d="M255.147,220.259L175.862,201.681L113.914,51.775L10.941,150.354L81.518,41.86L137.456,29.475L159.756,122.386L195.682,97.616L209.308,166.052L242.764,201.682L303.471,164.789Z" transform="matrix(1 0 0 1 113.604 306.048)" fill="rgb(66,188,194)" stroke="none" stroke-width="1"/><path id="erVvIJzdwoT103" d="M214.994,153.756L170.087,123.123L168.926,119.223L166.148,120.441L157.781,114.727L147.468,126.634L84.689,78.33L90.882,47.367L56.185,64.7L31.415,30.019L105.748,39.919L98.315,67.186L134.878,81.244L131.315,81.631L148.777,86.594L227.163,116.737Z" transform="matrix(1 0 0 1 326.192 311.697)" fill="rgb(65,170,135)" stroke="none" stroke-width="1"/><path id="erVvIJzdwoT104" d="M57.653,39.869L40.191,34.906L43.754,34.519Z" transform="matrix(1 0 0 1 417.316 358.422)" fill="rgb(66,175,155)" stroke="none" stroke-width="1"/><path id="erVvIJzdwoT105" d="M60.55,94.992L60.55,51.929L44.716,40.466L76.35,46.92Z" transform="matrix(1 0 0 1 464.301 420.171)" fill="rgb(47,172,178)" stroke="none" stroke-width="1"/><path id="erVvIJzdwoT106" d="M108.6,78.133L76.967,71.678L70.5,67.011L64.228,45.861L109.135,76.494ZM43.248,50.633L41.61,49.367L51.923,37.46L60.29,43.174L43.249,50.63Z" transform="matrix(1 0 0 1 432.05 388.959)" fill="rgb(47,156,124)" stroke="none" stroke-width="1"/><path id="erVvIJzdwoT107" d="M114.248,405.219Q106.906,405.219,98.892,404.456C166.372,388.69,193.385,331.204,163.322,214.901C205.395,122.548,177.915,65.825,121.01,24.174L121.01,21.248C125.355279,20.79888,129.720577,20.57092,134.089,20.565C185.989,20.565,204.404,56.127,194.295,121.99Q248.884,172.805,194.295,278.465C203.994,362.52,177.7,405.219,114.248,405.219Z" transform="matrix(1 0 0 1 1026.83 213.533)" fill="rgb(47,172,178)" stroke="none" stroke-width="1"/><path id="erVvIJzdwoT108" d="M104.054,23.551C102.893,22.697,101.709,21.851,100.525,21.013C101.725,20.865,102.893,20.74,104.054,20.626Z" transform="matrix(1 0 0 1 1043.78 214.156)" fill="rgb(47,156,124)" stroke="none" stroke-width="1"/><path id="erVvIJzdwoT109" d="M111.354,339.978L74.187,299.169L86.572,257.46Q97.739,249.298,108.61,240.966L152.515,222.832L112.594,261.478L98.969,261.478L101.439,288.024L112.595,314.035L111.354,339.978ZM377.53,42.463L377.53,27.722L377.712,27.847L377.712,42.236Z" transform="matrix(1 0 0 1 770.308 287.846)" fill="rgb(47,172,178)" stroke="none" stroke-width="1"/><path id="erVvIJzdwoT110" d="M77.211,271.358C138.811,224.242,193.457,173.632,238.126,118.002L253.05,110.402L250.2,102.52C268.904538,77.926052,285.710392,51.944372,300.472,24.8L346.131,58.119L346.131,72.855L330.4,92.822L328.977,78.069L253.4,125.139L121.116,253.224L77.211,271.358Z" transform="matrix(1 0 0 1 801.707 257.454)" fill="rgb(47,156,124)" stroke="none" stroke-width="1"/><path id="erVvIJzdwoT111" d="M91.347,47.1Q97.511,39.433,103.425,31.619L106.271,39.496Z" transform="matrix(1 0 0 1 948.485 328.352)" fill="rgb(44,146,107)" stroke="none" stroke-width="1"/><path id="erVvIJzdwoT112" d="M109.656,214.078L100.003,114.078C106.20547,104.534808,109.496302,93.392681,109.474,82.011L109.474,29.225L109.656,28.997L109.656,214.078Z" transform="matrix(1 0 0 1 1038.36 301.085)" fill="rgb(32,158,164)" stroke="none" stroke-width="1"/><path id="erVvIJzdwoT113" d="M105.714,113.868L99.453,48.983L115.185,29.017L115.185,81.8C115.207302,93.181681,111.91647,104.323808,105.714,113.867Z" transform="matrix(1 0 0 1 1032.65 301.293)" fill="rgb(33,142,114)" stroke="none" stroke-width="1"/><path id="erVvIJzdwoT114" d="M102.113,240.76L78.47,179.711L102.113,185.289ZM54.872,84.319L38.924,47.9L68.851,70.3Z" transform="matrix(1 0 0 1 404.161 497.402)" fill="rgb(47,172,178)" stroke="none" stroke-width="1"/><path id="erVvIJzdwoT115" d="M87.566,164.865L63.923,159.287L49.158,121.153L49.158,84.053L40.325,63.9L54.3,49.871L75.181,65.477L87.566,116.827L87.566,164.865Z" transform="matrix(1 0 0 1 418.708 517.826)" fill="rgb(32,158,164)" stroke="none" stroke-width="1"/><path id="erVvIJzdwoT116" d="M76.84,63.563L22.507,46.089L27.277,44.712Z" transform="matrix(1 0 0 1 233.698 464.259)" fill="rgb(66,188,194)" stroke="none" stroke-width="1"/><path id="erVvIJzdwoT117" d="M242.966,129.563L80.663,86.387L16.768,80.627L82.1,61.571L136.433,79.044L225.621,112.966L281.376,43.22Z" transform="matrix(1 0 0 1 174.108 448.777)" fill="rgb(47,172,178)" stroke="none" stroke-width="1"/><path id="erVvIJzdwoT118" d="M95.147,128.325L15.847,55.153L106.219,104.784L165.246,86.81L175.058,91.432Z" transform="matrix(1 0 0 1 164.586 572.671)" fill="rgb(47,172,178)" stroke="none" stroke-width="1"/><path id="erVvIJzdwoT119" d="M38.787,78.743L28.975,74.121L87.235,56.374L38.787,78.743Z" transform="matrix(1 0 0 1 300.857 585.36)" fill="rgb(32,158,164)" stroke="none" stroke-width="1"/><path id="erVvIJzdwoT120" d="M70.7,180.859Q146.5,63.315,244.755,28.049L233.7,43.439C174.213,75.506,119.4,120.049,70.7,180.859Z" transform="matrix(1 0 0 1 734.143 291.242)" fill="rgb(65,170,135)" stroke="none" stroke-width="1"/><path id="erVvIJzdwoT121" d="M85.023,54.632L96.076,39.242C111.946005,33.542873,128.342316,29.432407,145.024,26.971C124.474496,34.949398,104.436478,44.187258,85.024,54.632Z" transform="matrix(1 0 0 1 882.821 280.048)" fill="rgb(63,160,116)" stroke="none" stroke-width="1"/><path id="erVvIJzdwoT122" d="M96.4,72.747L56.965,51.824C78.544489,59.882641,100.611415,66.570287,123.034,71.847L96.397,72.747Z" transform="matrix(1 0 0 1 591.486 538.105)" fill="rgb(66,188,194)" stroke="none" stroke-width="1"/><path id="erVvIJzdwoT123" d="M221.992,75.132L80.7,65.24L60.429,54.482L87.066,53.582C128.035,63.417,173.42,70.338,221.992,75.131Z" transform="matrix(1 0 0 1 627.454 556.369)" fill="rgb(47,172,178)" stroke="none" stroke-width="1"/><path id="erVvIJzdwoT124" d="M92.689,84.931L55.033,57.531L54.433,50.747Q68.21,57.3,83.287,63.007L122.719,83.93Z" transform="matrix(1 0 0 1 565.164 526.922)" fill="rgb(47,172,178)" stroke="none" stroke-width="1"/><path id="erVvIJzdwoT125" d="M186.467,120.541L145.635,117.684L136.164,110.784L166.193,109.784ZM98.508,83.386L55.149,51.831C68.663216,61.297163,82.966209,69.584006,97.9,76.6ZM55.149,51.831C53.487,50.659,51.859,49.463,50.243,48.257Z" transform="matrix(1 0 0 1 521.689 501.068)" fill="rgb(32,158,164)" stroke="none" stroke-width="1"/><path id="erVvIJzdwoT126" d="M166.227,132.73L86.908,97.18L84.461,69.553L53.145,48.186L51.005,42.915L145.156,99.7L241.8,69.553L168.7,103.714L264.1,89.553Z" transform="matrix(1 0 0 1 529.602 445.61)" fill="rgb(66,188,194)" stroke="none" stroke-width="1"/><path id="erVvIJzdwoT127" d="M84.956,92.373L67.938,84.746L51.193,43.379L82.508,64.745Z" transform="matrix(1 0 0 1 531.554 450.418)" fill="rgb(47,172,178)" stroke="none" stroke-width="1"/><path id="erVvIJzdwoT128" d="M47.613,41.5C14.1,50.287,-2.746,96.765,9.98,145.315C22.706,193.865,60.2,226.091,93.716,217.3C127.232,208.509,144.064,162.034,131.338,113.5C118.612,64.966,81.126,32.711,47.613,41.5Z" transform="matrix(1 0 0 1 59.538 415.906)" fill="rgb(14,158,173)" stroke="none" stroke-width="1"/><path id="erVvIJzdwoT129" d="M42.773,43.153C13.336,50.871,-2.054,89.449,8.4,129.325C18.854,169.201,51.2,195.269,80.639,187.551C110.078,179.833,125.478,141.244,115.017,101.368C104.556,61.492,72.217,35.424,42.778,43.154Z" transform="matrix(1 0 0 1 53.177 433.979)" fill="rgb(70,201,204)" stroke="none" stroke-width="1"/><path id="erVvIJzdwoT130" d="M51.644,41.915L4.267,54.334C78.532,55.666,101.196,161.934,42.139,198.734L89.505,186.315C121.617,131.242,113.605,82.397,51.644,41.915Z" transform="matrix(1 0 0 1 44.306 435.217)" fill="rgb(70,201,204)" stroke="none" stroke-width="1"/><path id="erVvIJzdwoT131" d="M40.948,43.176C11.511,50.894,-3.288,91.726,7.891,134.376C19.07,177.026,52.013,205.34,81.45,197.622C110.887,189.904,125.697,149.072,114.507,106.422C103.317,63.772,70.4,35.458,40.948,43.176Z" transform="matrix(1 0 0 1 43.209 435.14)" fill="rgb(221,93,5)" stroke="none" stroke-width="1"/><path id="erVvIJzdwoT132" d="M50.6,42.019L3.232,54.438C77.85,57.124,102.426,170.707,43.732,208.887L91.1,196.468C122.415,138.356,113.525,86.186,50.6,42.019Z" transform="matrix(1 0 0 1 33.559 436.297)" fill="rgb(221,93,5)" stroke="none" stroke-width="1"/><path id="erVvIJzdwoT133" d="M36.791,44.267C7.354,51.985,-7.456,92.816,3.734,135.47C14.924,178.124,47.844,206.434,77.293,198.716C106.742,190.998,121.529,150.166,110.35,107.516C99.171,64.866,66.229,36.549,36.791,44.267Z" transform="matrix(1 0 0 1 0 446.468)" fill="rgb(255,119,21)" stroke="none" stroke-width="1"/><path id="erVvIJzdwoT134" d="M91.35,35.668L23.79,29.475L23.79,64.16L76.153,69.112L76.153,90.182L110.588,83.511L93.24,124.867L152.706,83.511L158.9,67.882L118.023,77.171Z" transform="matrix(1 0 0 1 247.019 306.048)" fill="rgb(220,254,255)" stroke="none" stroke-width="1"/><path id="erVvIJzdwoT135" d="M78.42,63.611L40.013,30.781L40.013,50.6L70.987,69.951L178.764,106.81L142.838,127.41L146.56,151.224L259.289,213.824L195.281,106.81L78.42,63.611Z" transform="matrix(1 0 0 1 415.468 319.609)" fill="rgb(220,254,255)" stroke="none" stroke-width="1"/><path id="erVvIJzdwoT136" d="M161.841,112.2L70.16,198.3L120.952,170.422L76.352,244.937L127.144,224.937L308.026,27.951L160.6,158.04Z" transform="matrix(1 0 0 1 728.494 290.224)" fill="rgb(220,254,255)" stroke="none" stroke-width="1"/></g><script><![CDATA[!function(t,n){"object"==typeof exports&&"undefined"!=typeof module?module.exports=n():"function"==typeof define&&define.amd?define(n):((t="undefined"!=typeof globalThis?globalThis:t||self).__SVGATOR_PLAYER__=t.__SVGATOR_PLAYER__||{},t.__SVGATOR_PLAYER__["91c80d77"]=n())}(this,(function(){"use strict";function t(t,n){var e=Object.keys(t);if(Object.getOwnPropertySymbols){var r=Object.getOwnPropertySymbols(t);n&&(r=r.filter((function(n){return Object.getOwnPropertyDescriptor(t,n).enumerable}))),e.push.apply(e,r)}return e}function n(n){for(var e=1;e<arguments.length;e++){var r=null!=arguments[e]?arguments[e]:{};e%2?t(Object(r),!0).forEach((function(t){o(n,t,r[t])})):Object.getOwnPropertyDescriptors?Object.defineProperties(n,Object.getOwnPropertyDescriptors(r)):t(Object(r)).forEach((function(t){Object.defineProperty(n,t,Object.getOwnPropertyDescriptor(r,t))}))}return n}function e(t){return(e="function"==typeof Symbol&&"symbol"==typeof Symbol.iterator?function(t){return typeof t}:function(t){return t&&"function"==typeof Symbol&&t.constructor===Symbol&&t!==Symbol.prototype?"symbol":typeof t})(t)}function r(t,n){if(!(t instanceof n))throw new TypeError("Cannot call a class as a function")}function i(t,n){for(var e=0;e<n.length;e++){var r=n[e];r.enumerable=r.enumerable||!1,r.configurable=!0,"value"in r&&(r.writable=!0),Object.defineProperty(t,r.key,r)}}function u(t,n,e){return n&&i(t.prototype,n),e&&i(t,e),t}function o(t,n,e){return n in t?Object.defineProperty(t,n,{value:e,enumerable:!0,configurable:!0,writable:!0}):t[n]=e,t}function a(t){return(a=Object.setPrototypeOf?Object.getPrototypeOf:function(t){return t.__proto__||Object.getPrototypeOf(t)})(t)}function l(t,n){return(l=Object.setPrototypeOf||function(t,n){return t.__proto__=n,t})(t,n)}function s(){if("undefined"==typeof Reflect||!Reflect.construct)return!1;if(Reflect.construct.sham)return!1;if("function"==typeof Proxy)return!0;try{return Boolean.prototype.valueOf.call(Reflect.construct(Boolean,[],(function(){}))),!0}catch(t){return!1}}function f(t,n,e){return(f=s()?Reflect.construct:function(t,n,e){var r=[null];r.push.apply(r,n);var i=new(Function.bind.apply(t,r));return e&&l(i,e.prototype),i}).apply(null,arguments)}function c(t,n){if(n&&("object"==typeof n||"function"==typeof n))return n;if(void 0!==n)throw new TypeError("Derived constructors may only return object or undefined");return function(t){if(void 0===t)throw new ReferenceError("this hasn't been initialised - super() hasn't been called");return t}(t)}function h(t,n,e){return(h="undefined"!=typeof Reflect&&Reflect.get?Reflect.get:function(t,n,e){var r=function(t,n){for(;!Object.prototype.hasOwnProperty.call(t,n)&&null!==(t=a(t)););return t}(t,n);if(r){var i=Object.getOwnPropertyDescriptor(r,n);return i.get?i.get.call(e):i.value}})(t,n,e||t)}function v(t){return function(t){if(Array.isArray(t))return d(t)}(t)||function(t){if("undefined"!=typeof Symbol&&null!=t[Symbol.iterator]||null!=t["@@iterator"])return Array.from(t)}(t)||function(t,n){if(!t)return;if("string"==typeof t)return d(t,n);var e=Object.prototype.toString.call(t).slice(8,-1);"Object"===e&&t.constructor&&(e=t.constructor.name);if("Map"===e||"Set"===e)return Array.from(t);if("Arguments"===e||/^(?:Ui|I)nt(?:8|16|32)(?:Clamped)?Array$/.test(e))return d(t,n)}(t)||function(){throw new TypeError("Invalid attempt to spread non-iterable instance.\nIn order to be iterable, non-array objects must have a [Symbol.iterator]() method.")}()}function d(t,n){(null==n||n>t.length)&&(n=t.length);for(var e=0,r=new Array(n);e<n;e++)r[e]=t[e];return r}var y=g(Math.pow(10,-6));function g(t){var n=arguments.length>1&&void 0!==arguments[1]?arguments[1]:6;if(Number.isInteger(t))return t;var e=Math.pow(10,n);return Math.round((+t+Number.EPSILON)*e)/e}function p(t,n){var e=arguments.length>2&&void 0!==arguments[2]?arguments[2]:y;return Math.abs(t-n)<e}var m=Math.PI/180;function b(t){return t}function w(t,n,e){var r=1-e;return 3*e*r*(t*r+n*e)+e*e*e}function A(){var t=arguments.length>0&&void 0!==arguments[0]?arguments[0]:0,n=arguments.length>1&&void 0!==arguments[1]?arguments[1]:0,e=arguments.length>2&&void 0!==arguments[2]?arguments[2]:1,r=arguments.length>3&&void 0!==arguments[3]?arguments[3]:1;return t<0||t>1||e<0||e>1?null:p(t,n)&&p(e,r)?b:function(i){if(i<=0)return t>0?i*n/t:0===n&&e>0?i*r/e:0;if(i>=1)return e<1?1+(i-1)*(r-1)/(e-1):1===e&&t<1?1+(i-1)*(n-1)/(t-1):1;for(var u,o=0,a=1;o<a;){var l=w(t,e,u=(o+a)/2);if(p(i,l))break;l<i?o=u:a=u}return w(n,r,u)}}function x(){return 1}function k(t){return 1===t?1:0}function _(){var t=arguments.length>0&&void 0!==arguments[0]?arguments[0]:1,n=arguments.length>1&&void 0!==arguments[1]?arguments[1]:0;if(1===t){if(0===n)return k;if(1===n)return x}var e=1/t;return function(t){return t>=1?1:(t+=n*e)-t%e}}var S=Math.sin,O=Math.cos,M=Math.acos,E=Math.asin,j=Math.tan,P=Math.atan2,I=Math.PI/180,B=180/Math.PI,R=Math.sqrt,T=function(){function t(){var n=arguments.length>0&&void 0!==arguments[0]?arguments[0]:1,e=arguments.length>1&&void 0!==arguments[1]?arguments[1]:0,i=arguments.length>2&&void 0!==arguments[2]?arguments[2]:0,u=arguments.length>3&&void 0!==arguments[3]?arguments[3]:1,o=arguments.length>4&&void 0!==arguments[4]?arguments[4]:0,a=arguments.length>5&&void 0!==arguments[5]?arguments[5]:0;r(this,t),this.m=[n,e,i,u,o,a],this.i=null,this.w=null,this.s=null}return u(t,[{key:"determinant",get:function(){var t=this.m;return t[0]*t[3]-t[1]*t[2]}},{key:"isIdentity",get:function(){if(null===this.i){var t=this.m;this.i=1===t[0]&&0===t[1]&&0===t[2]&&1===t[3]&&0===t[4]&&0===t[5]}return this.i}},{key:"point",value:function(t,n){var e=this.m;return{x:e[0]*t+e[2]*n+e[4],y:e[1]*t+e[3]*n+e[5]}}},{key:"translateSelf",value:function(){var t=arguments.length>0&&void 0!==arguments[0]?arguments[0]:0,n=arguments.length>1&&void 0!==arguments[1]?arguments[1]:0;if(!t&&!n)return this;var e=this.m;return e[4]+=e[0]*t+e[2]*n,e[5]+=e[1]*t+e[3]*n,this.w=this.s=this.i=null,this}},{key:"rotateSelf",value:function(){var t=arguments.length>0&&void 0!==arguments[0]?arguments[0]:0;if(t%=360){var n=S(t*=I),e=O(t),r=this.m,i=r[0],u=r[1];r[0]=i*e+r[2]*n,r[1]=u*e+r[3]*n,r[2]=r[2]*e-i*n,r[3]=r[3]*e-u*n,this.w=this.s=this.i=null}return this}},{key:"scaleSelf",value:function(){var t=arguments.length>0&&void 0!==arguments[0]?arguments[0]:1,n=arguments.length>1&&void 0!==arguments[1]?arguments[1]:1;if(1!==t||1!==n){var e=this.m;e[0]*=t,e[1]*=t,e[2]*=n,e[3]*=n,this.w=this.s=this.i=null}return this}},{key:"skewSelf",value:function(t,n){if(n%=360,(t%=360)||n){var e=this.m,r=e[0],i=e[1],u=e[2],o=e[3];t&&(t=j(t*I),e[2]+=r*t,e[3]+=i*t),n&&(n=j(n*I),e[0]+=u*n,e[1]+=o*n),this.w=this.s=this.i=null}return this}},{key:"resetSelf",value:function(){var t=arguments.length>0&&void 0!==arguments[0]?arguments[0]:1,n=arguments.length>1&&void 0!==arguments[1]?arguments[1]:0,e=arguments.length>2&&void 0!==arguments[2]?arguments[2]:0,r=arguments.length>3&&void 0!==arguments[3]?arguments[3]:1,i=arguments.length>4&&void 0!==arguments[4]?arguments[4]:0,u=arguments.length>5&&void 0!==arguments[5]?arguments[5]:0,o=this.m;return o[0]=t,o[1]=n,o[2]=e,o[3]=r,o[4]=i,o[5]=u,this.w=this.s=this.i=null,this}},{key:"recomposeSelf",value:function(){var t=arguments.length>0&&void 0!==arguments[0]?arguments[0]:null,n=arguments.length>1&&void 0!==arguments[1]?arguments[1]:null,e=arguments.length>2&&void 0!==arguments[2]?arguments[2]:null,r=arguments.length>3&&void 0!==arguments[3]?arguments[3]:null,i=arguments.length>4&&void 0!==arguments[4]?arguments[4]:null;return this.isIdentity||this.resetSelf(),t&&(t.x||t.y)&&this.translateSelf(t.x,t.y),n&&this.rotateSelf(n),e&&(e.x&&this.skewSelf(e.x,0),e.y&&this.skewSelf(0,e.y)),!r||1===r.x&&1===r.y||this.scaleSelf(r.x,r.y),i&&(i.x||i.y)&&this.translateSelf(i.x,i.y),this}},{key:"decompose",value:function(){var t=arguments.length>0&&void 0!==arguments[0]?arguments[0]:0,n=arguments.length>1&&void 0!==arguments[1]?arguments[1]:0,e=this.m,r=e[0]*e[0]+e[1]*e[1],i=[[e[0],e[1]],[e[2],e[3]]],u=R(r);if(0===u)return{origin:{x:g(e[4]),y:g(e[5])},translate:{x:g(t),y:g(n)},scale:{x:0,y:0},skew:{x:0,y:0},rotate:0};i[0][0]/=u,i[0][1]/=u;var o=e[0]*e[3]-e[1]*e[2]<0;o&&(u=-u);var a=i[0][0]*i[1][0]+i[0][1]*i[1][1];i[1][0]-=i[0][0]*a,i[1][1]-=i[0][1]*a;var l=R(i[1][0]*i[1][0]+i[1][1]*i[1][1]);if(0===l)return{origin:{x:g(e[4]),y:g(e[5])},translate:{x:g(t),y:g(n)},scale:{x:g(u),y:0},skew:{x:0,y:0},rotate:0};i[1][0]/=l,i[1][1]/=l,a/=l;var s=0;return i[1][1]<0?(s=M(i[1][1])*B,i[0][1]<0&&(s=360-s)):s=E(i[0][1])*B,o&&(s=-s),a=P(a,R(i[0][0]*i[0][0]+i[0][1]*i[0][1]))*B,o&&(a=-a),{origin:{x:g(e[4]),y:g(e[5])},translate:{x:g(t),y:g(n)},scale:{x:g(u),y:g(l)},skew:{x:g(a),y:0},rotate:g(s)}}},{key:"clone",value:function(){var t=this.m;return new this.constructor(t[0],t[1],t[2],t[3],t[4],t[5])}},{key:"toString",value:function(){var t=arguments.length>0&&void 0!==arguments[0]?arguments[0]:" ";return null===this.s&&(this.s="matrix("+this.m.map((function(t){return g(t)})).join(t)+")"),this.s}}],[{key:"create",value:function(t){return t?Array.isArray(t)?f(this,v(t)):t instanceof this?t.clone():(new this).recomposeSelf(t.origin,t.rotate,t.skew,t.scale,t.translate):new this}}]),t}();function N(t,n,e){return t>=.5?e:n}function C(t,n,e){return 0===t||n===e?n:t*(e-n)+n}function F(t,n,e){var r=C(t,n,e);return r<=0?0:r}function L(t,n,e){var r=C(t,n,e);return r<=0?0:r>=1?1:r}function q(t,n,e){return 0===t?n:1===t?e:{x:C(t,n.x,e.x),y:C(t,n.y,e.y)}}function V(t,n,e){return 0===t?n:1===t?e:{x:F(t,n.x,e.x),y:F(t,n.y,e.y)}}function D(t,n,e){var r=function(t,n,e){return Math.round(C(t,n,e))}(t,n,e);return r<=0?0:r>=255?255:r}function z(t,n,e){return 0===t?n:1===t?e:{r:D(t,n.r,e.r),g:D(t,n.g,e.g),b:D(t,n.b,e.b),a:C(t,null==n.a?1:n.a,null==e.a?1:e.a)}}function Y(t,n,e){var r=n.length;if(r!==e.length)return N(t,n,e);for(var i=new Array(r),u=0;u<r;u++)i[u]=C(t,n[u],e[u]);return i}function G(t,n){for(var e=[],r=0;r<t;r++)e.push(n);return e}function U(t,n){if(--n<=0)return t;var e=(t=Object.assign([],t)).length;do{for(var r=0;r<e;r++)t.push(t[r])}while(--n>0);return t}var $,W=function(){function t(n){r(this,t),this.list=n,this.length=n.length}return u(t,[{key:"setAttribute",value:function(t,n){for(var e=this.list,r=0;r<this.length;r++)e[r].setAttribute(t,n)}},{key:"removeAttribute",value:function(t){for(var n=this.list,e=0;e<this.length;e++)n[e].removeAttribute(t)}},{key:"style",value:function(t,n){for(var e=this.list,r=0;r<this.length;r++)e[r].style[t]=n}}]),t}(),H=/-./g,Q=function(t,n){return n.toUpperCase()};function X(t){return"function"==typeof t?t:N}function J(t){return t?"function"==typeof t?t:Array.isArray(t)?function(t){var n=arguments.length>1&&void 0!==arguments[1]?arguments[1]:b;if(!Array.isArray(t))return n;switch(t.length){case 1:return _(t[0])||n;case 2:return _(t[0],t[1])||n;case 4:return A(t[0],t[1],t[2],t[3])||n}return n}(t,null):function(t,n){var e=arguments.length>2&&void 0!==arguments[2]?arguments[2]:b;switch(t){case"linear":return b;case"steps":return _(n.steps||1,n.jump||0)||e;case"bezier":case"cubic-bezier":return A(n.x1||0,n.y1||0,n.x2||0,n.y2||0)||e}return e}(t.type,t.value,null):null}function Z(t,n,e){var r=arguments.length>3&&void 0!==arguments[3]&&arguments[3],i=n.length-1;if(t<=n[0].t)return r?[0,0,n[0].v]:n[0].v;if(t>=n[i].t)return r?[i,1,n[i].v]:n[i].v;var u,o=n[0],a=null;for(u=1;u<=i;u++){if(!(t>n[u].t)){a=n[u];break}o=n[u]}return null==a?r?[i,1,n[i].v]:n[i].v:o.t===a.t?r?[u,1,a.v]:a.v:(t=(t-o.t)/(a.t-o.t),o.e&&(t=o.e(t)),r?[u,t,e(t,o.v,a.v)]:e(t,o.v,a.v))}function K(t,n){var e=arguments.length>2&&void 0!==arguments[2]?arguments[2]:null;return t&&t.length?"function"!=typeof n?null:("function"!=typeof e&&(e=null),function(r){var i=Z(r,t,n);return null!=i&&e&&(i=e(i)),i}):null}function tt(t,n){return t.t-n.t}function nt(t,n,r,i,u){var o,a="@"===r[0],l="#"===r[0],s=$[r],f=N;switch(a?(o=r.substr(1),r=o.replace(H,Q)):l&&(r=r.substr(1)),e(s)){case"function":if(f=s(i,u,Z,J,r,a,n,t),l)return f;break;case"string":f=K(i,X(s));break;case"object":if((f=K(i,X(s.i),s.f))&&"function"==typeof s.u)return s.u(n,f,r,a,t)}return f?function(t,n,e){if(arguments.length>3&&void 0!==arguments[3]&&arguments[3])return t instanceof W?function(r){return t.style(n,e(r))}:function(r){return t.style[n]=e(r)};if(Array.isArray(n)){var r=n.length;return function(i){var u=e(i);if(null==u)for(var o=0;o<r;o++)t[o].removeAttribute(n);else for(var a=0;a<r;a++)t[a].setAttribute(n,u)}}return function(r){var i=e(r);null==i?t.removeAttribute(n):t.setAttribute(n,i)}}(n,r,f,a):null}function et(t,n,r,i){if(!i||"object"!==e(i))return null;var u=null,o=null;return Array.isArray(i)?o=function(t){if(!t||!t.length)return null;for(var n=0;n<t.length;n++)t[n].e&&(t[n].e=J(t[n].e));return t.sort(tt)}(i):(o=i.keys,u=i.data||null),o?nt(t,n,r,o,u):null}function rt(t,n,e){if(!e)return null;var r=[];for(var i in e)if(e.hasOwnProperty(i)){var u=et(t,n,i,e[i]);u&&r.push(u)}return r.length?r:null}function it(t,n){if(!n.duration||n.duration<0)return null;var e=function(t,n){if(!n)return null;var e=[];if(Array.isArray(n))for(var r=n.length,i=0;i<r;i++){var u=n[i];if(2===u.length){var o=null;if("string"==typeof u[0])o=t.getElementById(u[0]);else if(Array.isArray(u[0])){o=[];for(var a=0;a<u[0].length;a++)if("string"==typeof u[0][a]){var l=t.getElementById(u[0][a]);l&&o.push(l)}o=o.length?1===o.length?o[0]:new W(o):null}if(o){var s=rt(t,o,u[1]);s&&(e=e.concat(s))}}}else for(var f in n)if(n.hasOwnProperty(f)){var c=t.getElementById(f);if(c){var h=rt(t,c,n[f]);h&&(e=e.concat(h))}}return e.length?e:null}(t,n.elements);return e?function(t,n){var e=arguments.length>2&&void 0!==arguments[2]?arguments[2]:1/0,r=arguments.length>3&&void 0!==arguments[3]?arguments[3]:1,i=arguments.length>4&&void 0!==arguments[4]&&arguments[4],u=arguments.length>5&&void 0!==arguments[5]?arguments[5]:1,o=t.length,a=r>0?n:0;i&&e%2==0&&(a=n-a);var l=null;return function(s,f){var c=s%n,h=1+(s-c)/n;f*=r,i&&h%2==0&&(f=-f);var v=!1;if(h>e)c=a,v=!0,-1===u&&(c=r>0?0:n);else if(f<0&&(c=n-c),c===l)return!1;l=c;for(var d=0;d<o;d++)t[d](c);return v}}(e,n.duration,n.iterations||1/0,n.direction||1,!!n.alternate,n.fill||1):null}function ut(t){return+("0x"+(t.replace(/[^0-9a-fA-F]+/g,"")||27))}function ot(t,n,e){return!t||!e||n>t.length?t:t.substring(0,n)+ot(t.substring(n+1),e,e)}function at(t){var n=arguments.length>1&&void 0!==arguments[1]?arguments[1]:27;return!t||t%n?t%n:at(t/n,n)}function lt(t,n,e){if(t&&t.length){var r=ut(e),i=ut(n),u=at(r)+5,o=ot(t,at(r,5),u);return o=o.replace(/\x7c$/g,"==").replace(/\x2f$/g,"="),o=function(t,n,e){var r=+("0x"+t.substring(0,4));t=t.substring(4);for(var i=n%r+e%27,u=[],o=0;o<t.length;o+=2)if("|"!==t[o]){var a=+("0x"+t[o]+t[o+1])-i;u.push(a)}else{var l=+("0x"+t.substring(o+1,o+1+4))-i;o+=3,u.push(l)}return String.fromCharCode.apply(String,u)}(o=(o=atob(o)).replace(/[\x41-\x5A]/g,""),i,r),o=JSON.parse(o)}}Number.isInteger||(Number.isInteger=function(t){return"number"==typeof t&&isFinite(t)&&Math.floor(t)===t}),Number.EPSILON||(Number.EPSILON=2220446049250313e-31);var st=function(){function t(n,e){var i=arguments.length>2&&void 0!==arguments[2]?arguments[2]:{};r(this,t),this._id=0,this._running=!1,this._rollingBack=!1,this._animations=n,this.duration=e.duration,this.alternate=e.alternate,this.fill=e.fill,this.iterations=e.iterations,this.direction=i.direction||1,this.speed=i.speed||1,this.fps=i.fps||100,this.offset=i.offset||0,this.rollbackStartOffset=0}return u(t,[{key:"_rollback",value:function(){var t=this,n=1/0,e=null;this.rollbackStartOffset=this.offset,this._rollingBack||(this._rollingBack=!0,this._running=!0);this._id=window.requestAnimationFrame((function r(i){if(t._rollingBack){null==e&&(e=i);var u=i-e,o=t.rollbackStartOffset-u,a=Math.round(o*t.speed);if(a>t.duration&&n!=1/0){var l=!!t.alternate&&a/t.duration%2>1,s=a%t.duration;a=(s+=l?t.duration:0)||t.duration}var f=t.fps?1e3/t.fps:0,c=Math.max(0,a);if(c<n-f){t.offset=c,n=c;for(var h=t._animations,v=h.length,d=0;d<v;d++)h[d](c,t.direction)}var y=!1;if(t.iterations>0&&-1===t.fill){var g=t.iterations*t.duration,p=g==a;a=p?0:a,t.offset=p?0:t.offset,y=a>g}a>0&&t.offset>=a&&!y?t._id=window.requestAnimationFrame(r):t.stop()}}))}},{key:"_start",value:function(){var t=this,n=arguments.length>0&&void 0!==arguments[0]?arguments[0]:0,e=-1/0,r=null,i={},u=function u(o){t._running=!0,null==r&&(r=o);var a=Math.round((o-r+n)*t.speed),l=t.fps?1e3/t.fps:0;if(a>e+l&&!t._rollingBack){t.offset=a,e=a;for(var s=t._animations,f=s.length,c=0,h=0;h<f;h++)i[h]?c++:(i[h]=s[h](a,t.direction),i[h]&&c++);if(c===f)return void t._stop()}t._id=window.requestAnimationFrame(u)};this._id=window.requestAnimationFrame(u)}},{key:"_stop",value:function(){this._id&&window.cancelAnimationFrame(this._id),this._running=!1,this._rollingBack=!1}},{key:"play",value:function(){!this._rollingBack&&this._running||(this._rollingBack=!1,this.rollbackStartOffset>this.duration&&(this.offset=this.rollbackStartOffset-(this.rollbackStartOffset-this.offset)%this.duration,this.rollbackStartOffset=0),this._start(this.offset))}},{key:"stop",value:function(){this._stop(),this.offset=0,this.rollbackStartOffset=0;var t=this.direction,n=this._animations;window.requestAnimationFrame((function(){for(var e=0;e<n.length;e++)n[e](0,t)}))}},{key:"reachedToEnd",value:function(){return this.iterations>0&&this.offset>=this.iterations*this.duration}},{key:"restart",value:function(){this._stop(),this.offset=0,this._start()}},{key:"pause",value:function(){this._stop()}},{key:"reverse",value:function(){this.direction=-this.direction}}],[{key:"build",value:function(e,r){return delete e.animationSettings,e.options=lt(e.options,e.root,"91c80d77"),e.animations.map((function(t){var r=lt(t.s,e.root,"91c80d77");for(var i in delete t.s,e.animationSettings||(e.animationSettings=n({},r)),r)r.hasOwnProperty(i)&&(t[i]=r[i])})),(e=function(t,n){if($=n,!t||!t.root||!Array.isArray(t.animations))return null;for(var e=document.getElementsByTagName("svg"),r=!1,i=0;i<e.length;i++)if(e[i].id===t.root&&!e[i].svgatorAnimation){(r=e[i]).svgatorAnimation=!0;break}if(!r)return null;var u=t.animations.map((function(t){return it(r,t)})).filter((function(t){return!!t}));return u.length?{element:r,animations:u,animationSettings:t.animationSettings,options:t.options||void 0}:null}(e,r))?{el:e.element,options:e.options||{},player:new t(e.animations,e.animationSettings,e.options)}:null}},{key:"push",value:function(t){return this.build(t)}},{key:"init",value:function(){var t=this,n=window.__SVGATOR_PLAYER__&&window.__SVGATOR_PLAYER__["91c80d77"];Array.isArray(n)&&n.splice(0).forEach((function(n){return t.build(n)}))}}]),t}();!function(){for(var t=0,n=["ms","moz","webkit","o"],e=0;e<n.length&&!window.requestAnimationFrame;++e)window.requestAnimationFrame=window[n[e]+"RequestAnimationFrame"],window.cancelAnimationFrame=window[n[e]+"CancelAnimationFrame"]||window[n[e]+"CancelRequestAnimationFrame"];window.requestAnimationFrame||(window.requestAnimationFrame=function(n){var e=Date.now(),r=Math.max(0,16-(e-t)),i=window.setTimeout((function(){n(e+r)}),r);return t=e+r,i},window.cancelAnimationFrame=window.clearTimeout)}();var ft=function(t,n){var e=!1,r=null;return function(i){e&&clearTimeout(e),e=setTimeout((function(){return function(){for(var i=0,u=window.innerHeight,o=0,a=window.innerWidth,l=t.parentNode;l instanceof Element;){var s=window.getComputedStyle(l);if("visible"!==s.overflowY||"visible"!==s.overflowX){var f=l.getBoundingClientRect();"visible"!==s.overflowY&&(i=Math.max(i,f.top),u=Math.min(u,f.bottom)),"visible"!==s.overflowX&&(o=Math.max(o,f.left),a=Math.min(a,f.right))}if(l===l.parentNode)break;l=l.parentNode}e=!1;var c=t.getBoundingClientRect(),h=Math.min(c.height,Math.max(0,i-c.top)),v=Math.min(c.height,Math.max(0,c.bottom-u)),d=Math.min(c.width,Math.max(0,o-c.left)),y=Math.min(c.width,Math.max(0,c.right-a)),g=(c.height-h-v)/c.height,p=(c.width-d-y)/c.width,m=Math.round(g*p*100);null!==r&&r===m||(r=m,n(m))}()}),100)}},ct=function(){function t(n,e,i){r(this,t),e=Math.max(1,e||1),e=Math.min(e,100),this.el=n,this.onTresholdChange=i&&i.call?i:function(){},this.tresholdPercent=e||1,this.currentVisibility=null,this.visibilityCalculator=ft(n,this.onVisibilityUpdate.bind(this)),this.bindScrollWatchers(),this.visibilityCalculator()}return u(t,[{key:"bindScrollWatchers",value:function(){for(var t=this.el.parentNode;t&&(t.addEventListener("scroll",this.visibilityCalculator),t!==t.parentNode&&t!==document);)t=t.parentNode}},{key:"onVisibilityUpdate",value:function(t){var n=this.currentVisibility>=this.tresholdPercent,e=t>=this.tresholdPercent;if(null===this.currentVisibility||n!==e)return this.currentVisibility=t,void this.onTresholdChange(e);this.currentVisibility=t}}]),t}();function ht(t){return g(t)+""}function vt(t){var n=arguments.length>1&&void 0!==arguments[1]?arguments[1]:" ";return t&&t.length?t.map(ht).join(n):""}function dt(t){return ht(t.x)+","+ht(t.y)}function yt(t){return t?null==t.a||t.a>=1?"rgb("+t.r+","+t.g+","+t.b+")":"rgba("+t.r+","+t.g+","+t.b+","+t.a+")":"transparent"}function gt(t){return t?"url(#"+t+")":"none"}var pt={f:null,i:V,u:function(t,n){return function(e){var r=n(e);t.setAttribute("rx",ht(r.x)),t.setAttribute("ry",ht(r.y))}}},mt={f:null,i:function(t,n,e){return 0===t?n:1===t?e:{width:F(t,n.width,e.width),height:F(t,n.height,e.height)}},u:function(t,n){return function(e){var r=n(e);t.setAttribute("width",ht(r.width)),t.setAttribute("height",ht(r.height))}}};Object.freeze({M:2,L:2,Z:0,H:1,V:1,C:6,Q:4,T:2,S:4,A:7});var bt={},wt=null;function At(t){var n=function(){if(wt)return wt;if("object"!==("undefined"==typeof document?"undefined":e(document))||!document.createElementNS)return{};var t=document.createElementNS("http://www.w3.org/2000/svg","svg");return t&&t.style?(t.style.position="absolute",t.style.opacity="0.01",t.style.zIndex="-9999",t.style.left="-9999px",t.style.width="1px",t.style.height="1px",wt={svg:t}):{}}().svg;if(!n)return function(t){return null};var r=document.createElementNS(n.namespaceURI,"path");r.setAttributeNS(null,"d",t),r.setAttributeNS(null,"fill","none"),r.setAttributeNS(null,"stroke","none"),n.appendChild(r);var i=r.getTotalLength();return function(t){var n=r.getPointAtLength(i*t);return{x:n.x,y:n.y}}}function xt(t){return bt[t]?bt[t]:bt[t]=At(t)}function kt(t,n,e,r){if(!t||!r)return!1;var i=["M",t.x,t.y];if(n&&e&&(i.push("C"),i.push(n.x),i.push(n.y),i.push(e.x),i.push(e.y)),n?!e:e){var u=n||e;i.push("Q"),i.push(u.x),i.push(u.y)}return n||e||i.push("L"),i.push(r.x),i.push(r.y),i.join(" ")}function _t(t,n,e,r){var i=arguments.length>4&&void 0!==arguments[4]?arguments[4]:1,u=kt(t,n,e,r),o=xt(u);try{return o(i)}catch(t){return null}}function St(t,n,e,r){var i=1-r;return i*i*t+2*i*r*n+r*r*e}function Ot(t,n,e,r){return 2*(1-r)*(n-t)+2*r*(e-n)}function Mt(t,n,e,r){var i=arguments.length>4&&void 0!==arguments[4]&&arguments[4],u=_t(t,n,null,e,r);return u||(u={x:St(t.x,n.x,e.x,r),y:St(t.y,n.y,e.y,r)}),i&&(u.a=Et(t,n,e,r)),u}function Et(t,n,e,r){return Math.atan2(Ot(t.y,n.y,e.y,r),Ot(t.x,n.x,e.x,r))}function jt(t,n,e,r,i){var u=i*i;return i*u*(r-t+3*(n-e))+3*u*(t+e-2*n)+3*i*(n-t)+t}function Pt(t,n,e,r,i){var u=1-i;return 3*(u*u*(n-t)+2*u*i*(e-n)+i*i*(r-e))}function It(t,n,e,r,i){var u=arguments.length>5&&void 0!==arguments[5]&&arguments[5],o=_t(t,n,e,r,i);return o||(o={x:jt(t.x,n.x,e.x,r.x,i),y:jt(t.y,n.y,e.y,r.y,i)}),u&&(o.a=Bt(t,n,e,r,i)),o}function Bt(t,n,e,r,i){return Math.atan2(Pt(t.y,n.y,e.y,r.y,i),Pt(t.x,n.x,e.x,r.x,i))}function Rt(t,n,e){return t+(n-t)*e}function Tt(t,n,e){var r=arguments.length>3&&void 0!==arguments[3]&&arguments[3],i={x:Rt(t.x,n.x,e),y:Rt(t.y,n.y,e)};return r&&(i.a=Nt(t,n)),i}function Nt(t,n){return Math.atan2(n.y-t.y,n.x-t.x)}function Ct(t,n,e){var r=arguments.length>3&&void 0!==arguments[3]&&arguments[3];if(Lt(n)){if(qt(e))return Mt(n,e.start,e,t,r)}else if(Lt(e)){if(n.end)return Mt(n,n.end,e,t,r)}else{if(n.end)return e.start?It(n,n.end,e.start,e,t,r):Mt(n,n.end,e,t,r);if(e.start)return Mt(n,e.start,e,t,r)}return Tt(n,e,t,r)}function Ft(t,n,e){var r=Ct(t,n,e,!0);return r.a=function(t){return arguments.length>1&&void 0!==arguments[1]&&arguments[1]?t+Math.PI:t}(r.a)/m,r}function Lt(t){return!t.type||"corner"===t.type}function qt(t){return null!=t.start&&!Lt(t)}var Vt=new T;var Dt={f:function(t){return t?t.join(" "):""},i:function(t,n,r){if(0===t)return n;if(1===t)return r;var i=n.length;if(i!==r.length)return N(t,n,r);for(var u,o=new Array(i),a=0;a<i;a++){if((u=e(n[a]))!==e(r[a]))return N(t,n,r);if("number"===u)o[a]=C(t,n[a],r[a]);else{if(n[a]!==r[a])return N(t,n,r);o[a]=n[a]}}return o}},zt={f:null,i:Y,u:function(t,n){return function(e){var r=n(e);t.setAttribute("x1",ht(r[0])),t.setAttribute("y1",ht(r[1])),t.setAttribute("x2",ht(r[2])),t.setAttribute("y2",ht(r[3]))}}},Yt={f:ht,i:C},Gt={f:ht,i:L},Ut={f:function(t){var n=arguments.length>1&&void 0!==arguments[1]?arguments[1]:" ";return t&&t.length>0&&(t=t.map((function(t){return g(t,4)}))),vt(t,n)},i:function(t,n,e){var r,i,u,o=n.length,a=e.length;if(o!==a)if(0===o)n=G(o=a,0);else if(0===a)a=o,e=G(o,0);else{var l=(u=(r=o)*(i=a)/function(t,n){for(var e;n;)e=n,n=t%n,t=e;return t||1}(r,i))<0?-u:u;n=U(n,Math.floor(l/o)),e=U(e,Math.floor(l/a)),o=a=l}for(var s=[],f=0;f<o;f++)s.push(g(F(t,n[f],e[f])));return s}};function $t(t,n,e){return t.map((function(t){return function(t,n,e){var r=t.v;if(!r||"g"!==r.t||r.s||!r.v||!r.r)return t;var i=e.getElementById(r.r),u=i&&i.querySelectorAll("stop")||[];return r.s=r.v.map((function(t,n){var e=u[n]&&u[n].getAttribute("offset");return{c:t,o:e=g(parseInt(e)/100)}})),delete r.v,t}(t,0,e)}))}var Wt={gt:"gradientTransform",c:{x:"cx",y:"cy"},rd:"r",f:{x:"x1",y:"y1"},to:{x:"x2",y:"y2"}};function Ht(t,n,r,i,u,o,a,l){return $t(t,0,l),n=function(t,n,e){for(var r,i,u,o=t.length-1,a={},l=0;l<=o;l++)(r=t[l]).e&&(r.e=n(r.e)),r.v&&"g"===(i=r.v).t&&i.r&&(u=e.getElementById(i.r))&&(a[i.r]={e:u,s:u.querySelectorAll("stop")});return a}(t,i,l),function(i){var u=r(i,t,Qt);if(!u)return"none";if("c"===u.t)return yt(u.v);if("g"===u.t){if(!n[u.r])return gt(u.r);var o=n[u.r];return function(t,n){for(var e=t.s,r=e.length;r<n.length;r++){var i=e[e.length-1].cloneNode();i.id=Zt(i.id),t.e.appendChild(i),e=t.s=t.e.querySelectorAll("stop")}for(var u=0,o=e.length,a=n.length-1;u<o;u++)e[u].setAttribute("stop-color",yt(n[Math.min(u,a)].c)),e[u].setAttribute("offset",n[Math.min(u,a)].o)}(o,u.s),Object.keys(Wt).forEach((function(t){if(void 0!==u[t])if("object"!==e(Wt[t])){var n,r="gt"===t?(n=u[t],Array.isArray(n)?"matrix("+n.join(" ")+")":""):u[t],i=Wt[t];o.e.setAttribute(i,r)}else Object.keys(Wt[t]).forEach((function(n){if(void 0!==u[t][n]){var e=u[t][n],r=Wt[t][n];o.e.setAttribute(r,e)}}))})),gt(u.r)}return"none"}}function Qt(t,e,r){if(0===t)return e;if(1===t)return r;if(e&&r){var i=e.t;if(i===r.t)switch(e.t){case"c":return{t:i,v:z(t,e.v,r.v)};case"g":if(e.r===r.r){var u={t:i,s:Xt(t,e.s,r.s),r:e.r};return e.gt&&r.gt&&(u.gt=Y(t,e.gt,r.gt)),e.c?(u.c=q(t,e.c,r.c),u.rd=F(t,e.rd,r.rd)):e.f&&(u.f=q(t,e.f,r.f),u.to=q(t,e.to,r.to)),u}}if("c"===e.t&&"g"===r.t||"c"===r.t&&"g"===e.t){var o="c"===e.t?e:r,a="g"===e.t?n({},e):n({},r),l=a.s.map((function(t){return{c:o.v,o:t.o}}));return a.s="c"===e.t?Xt(t,l,a.s):Xt(t,a.s,l),a}}return N(t,e,r)}function Xt(t,n,e){if(n.length===e.length)return n.map((function(n,r){return Jt(t,n,e[r])}));for(var r=Math.max(n.length,e.length),i=[],u=0;u<r;u++){var o=Jt(t,n[Math.min(u,n.length-1)],e[Math.min(u,e.length-1)]);i.push(o)}return i}function Jt(t,n,e){return{o:L(t,n.o,e.o||0),c:z(t,n.c,e.c||{})}}function Zt(t){return t.replace(/-fill-([0-9]+)$/,(function(t,n){return"-fill-"+(+n+1)}))}var Kt={blur:V,brightness:F,contrast:F,"drop-shadow":function(t,n,e){return 0===t?n:1===t?e:{blur:V(t,n.blur,e.blur),offset:q(t,n.offset,e.offset),color:z(t,n.color,e.color)}},grayscale:F,"hue-rotate":C,invert:F,opacity:F,saturate:F,sepia:F};function tn(t,n,e){if(0===t)return n;if(1===t)return e;var r=n.length;if(r!==e.length)return N(t,n,e);for(var i,u=[],o=0;o<r;o++){if(n[o].type!==e[o].type)return n;if(!(i=Kt[n[o].type]))return N(t,n,e);u.push({type:n.type,value:i(t,n[o].value,e[o].value)})}return u}var nn={blur:function(t){return t?function(n){t.setAttribute("stdDeviation",dt(n))}:null},brightness:function(t,n,e){return(t=rn(e,n))?function(n){n=ht(n),t.map((function(t){return t.setAttribute("slope",n)}))}:null},contrast:function(t,n,e){return(t=rn(e,n))?function(n){var e=ht((1-n)/2);n=ht(n),t.map((function(t){t.setAttribute("slope",n),t.setAttribute("intercept",e)}))}:null},"drop-shadow":function(t,n,e){var r=e.getElementById(n+"-blur");if(!r)return null;var i=e.getElementById(n+"-offset");if(!i)return null;var u=e.getElementById(n+"-flood");return u?function(t){r.setAttribute("stdDeviation",dt(t.blur)),i.setAttribute("dx",ht(t.offset.x)),i.setAttribute("dy",ht(t.offset.y)),u.setAttribute("flood-color",yt(t.color))}:null},grayscale:function(t){return t?function(n){t.setAttribute("values",vt(function(t){return[.2126+.7874*(t=1-t),.7152-.7152*t,.0722-.0722*t,0,0,.2126-.2126*t,.7152+.2848*t,.0722-.0722*t,0,0,.2126-.2126*t,.7152-.7152*t,.0722+.9278*t,0,0,0,0,0,1,0]}(n)))}:null},"hue-rotate":function(t){return t?function(n){return t.setAttribute("values",ht(n))}:null},invert:function(t,n,e){return(t=rn(e,n))?function(n){n=ht(n)+" "+ht(1-n),t.map((function(t){return t.setAttribute("tableValues",n)}))}:null},opacity:function(t,n,e){return(t=e.getElementById(n+"-A"))?function(n){return t.setAttribute("tableValues","0 "+ht(n))}:null},saturate:function(t){return t?function(n){return t.setAttribute("values",ht(n))}:null},sepia:function(t){return t?function(n){return t.setAttribute("values",vt(function(t){return[.393+.607*(t=1-t),.769-.769*t,.189-.189*t,0,0,.349-.349*t,.686+.314*t,.168-.168*t,0,0,.272-.272*t,.534-.534*t,.131+.869*t,0,0,0,0,0,1,0]}(n)))}:null}};var en=["R","G","B"];function rn(t,n){var e=en.map((function(e){return t.getElementById(n+"-"+e)||null}));return-1!==e.indexOf(null)?null:e}var un={fill:Ht,"fill-opacity":Gt,stroke:Ht,"stroke-opacity":Gt,"stroke-width":Yt,"stroke-dashoffset":{f:ht,i:C},"stroke-dasharray":Ut,opacity:Gt,transform:function(t,n,r,i){if(!(t=function(t,n){if(!t||"object"!==e(t))return null;var r=!1;for(var i in t)t.hasOwnProperty(i)&&(t[i]&&t[i].length?(t[i].forEach((function(t){t.e&&(t.e=n(t.e))})),r=!0):delete t[i]);return r?t:null}(t,i)))return null;var u=function(e,i,u){var o=arguments.length>3&&void 0!==arguments[3]?arguments[3]:null;return t[e]?r(i,t[e],u):n&&n[e]?n[e]:o};return n&&n.a&&t.o?function(n){var e=r(n,t.o,Ft);return Vt.recomposeSelf(e,u("r",n,C,0)+e.a,u("k",n,q),u("s",n,q),u("t",n,q)).toString()}:function(t){return Vt.recomposeSelf(u("o",t,Ct,null),u("r",t,C,0),u("k",t,q),u("s",t,q),u("t",t,q)).toString()}},"#filter":function(t,n,e,r,i,u,o,a){if(!n.items||!t||!t.length)return null;var l=function(t,n){var e=(t=t.map((function(t){return t&&nn[t[0]]?(n.getElementById(t[1]),nn[t[0]](n.getElementById(t[1]),t[1],n)):null}))).length;return function(n){for(var r=0;r<e;r++)t[r]&&t[r](n[r].value)}}(n.items,a);return l?(t=function(t,n){return t.map((function(t){return t.e=n(t.e),t}))}(t,r),function(n){l(e(n,t,tn))}):null},"#line":zt,points:{f:vt,i:Y},d:Dt,r:Yt,"#size":mt,"#radius":pt,_:function(t,n){if(Array.isArray(t))for(var e=0;e<t.length;e++)this[t[e]]=n;else this[t]=n}},on=function(t){!function(t,n){if("function"!=typeof n&&null!==n)throw new TypeError("Super expression must either be null or a function");t.prototype=Object.create(n&&n.prototype,{constructor:{value:t,writable:!0,configurable:!0}}),n&&l(t,n)}(o,t);var n,e,i=(n=o,e=s(),function(){var t,r=a(n);if(e){var i=a(this).constructor;t=Reflect.construct(r,arguments,i)}else t=r.apply(this,arguments);return c(this,t)});function o(){return r(this,o),i.apply(this,arguments)}return u(o,null,[{key:"build",value:function(t){var n=h(a(o),"build",this).call(this,t,un);if(!n)return null;var e=n.el,r=n.options,i=n.player;return function(t,n,e){if("click"===e.start){var r=function(){switch(e.click){case"freeze":return!t._running&&t.reachedToEnd()&&(t.offset=0),t._running?t.pause():t.play();case"restart":return t.offset>0?t.restart():t.play();case"reverse":var n=!t._rollingBack&&t._running,r=t.reachedToEnd();return n||r&&1===t.fill?(t.pause(),r&&(t.offset=t.duration-1),t._rollback()):r?t.restart():t.play();case"none":default:return!t._running&&t.offset?t.restart():t.play()}};return void n.addEventListener("click",r)}if("hover"===e.start)return n.addEventListener("mouseenter",(function(){return t.reachedToEnd()?t.restart():t.play()})),void n.addEventListener("mouseleave",(function(){switch(e.hover){case"freeze":return t.pause();case"reset":return t.stop();case"reverse":return t.pause(),t._rollback();case"none":default:return}}));if("scroll"===e.start)return void new ct(n,e.scroll||25,(function(n){n?t.reachedToEnd()?t.restart():t.play():t.pause()}));t.play()}(i,e,r),i}}]),o}(st);return on.init(),on}));
(function(s,i,o,w){w[o]=w[o]||{};w[o][s]=w[o][s]||[];w[o][s].push(i);})('91c80d77',{"root":"erVvIJzdwoT1","animations":[{"elements":{"erVvIJzdwoT3":{"transform":{"data":{"t":{"x":-279.96259,"y":-206.507671}},"keys":{"o":[{"t":0,"v":{"x":279.96259,"y":219.507671,"type":"corner"},"e":[0.42,0,0.58,1]},{"t":900,"v":{"x":279.96259,"y":237.507671,"type":"corner"},"e":[0.42,0,0.58,1]},{"t":2000,"v":{"x":279.96259,"y":219.507671,"type":"corner"},"e":[0.42,0,0.58,1]}],"s":[{"t":0,"v":{"x":1,"y":0.865888},"e":[0.42,0,0.58,1]},{"t":900,"v":{"x":1,"y":0.762258},"e":[0.42,0,0.58,1]},{"t":2000,"v":{"x":1,"y":0.865888}}]}}},"erVvIJzdwoT41":{"transform":{"data":{"t":{"x":-275.66861,"y":-486.02507}},"keys":{"o":[{"t":0,"v":{"x":275.66861,"y":486.02507,"type":"corner"},"e":[0.42,0,0.58,1]},{"t":1200,"v":{"x":275.66861,"y":462.02507,"type":"corner"},"e":[0.42,0,0.58,1]},{"t":2000,"v":{"x":275.66861,"y":486.02507,"type":"corner"}}],"s":[{"t":0,"v":{"x":1,"y":1},"e":[0.42,0,0.58,1]},{"t":1200,"v":{"x":1,"y":0.852113},"e":[0.42,0,0.58,1]},{"t":2000,"v":{"x":1,"y":1}}]}}},"erVvIJzdwoT74":{"transform":{"data":{"t":{"x":-641.628601,"y":-386.424011}},"keys":{"o":[{"t":0,"v":{"x":266.0499,"y":362.81287,"type":"corner"},"e":[0.42,0,0.58,1]},{"t":600,"v":{"x":266.0499,"y":330.287101,"type":"corner"},"e":[0.42,0,0.58,1]},{"t":1300,"v":{"x":266.0499,"y":352.603522,"type":"corner"},"e":[0.42,0,0.58,1]},{"t":2000,"v":{"x":266.0499,"y":362.81287,"type":"corner"}}],"r":[{"t":0,"v":0,"e":[0.42,0,0.58,1]},{"t":600,"v":4.645982,"e":[0.42,0,0.58,1]},{"t":1300,"v":-9.064899,"e":[0.42,0,0.58,1]},{"t":2000,"v":0}],"s":[{"t":0,"v":{"x":0.243889,"y":0.243889},"e":[0.42,0,0.58,1]},{"t":600,"v":{"x":0.262907,"y":0.27356},"e":[0.42,0,0.58,1]},{"t":1300,"v":{"x":0.248124,"y":0.242745},"e":[0.42,0,0.58,1]},{"t":2000,"v":{"x":0.243889,"y":0.243889}}]}}}},"s":"MDUA1M2JiNjJhNAGI1YjJhMWI0NYTlZYWZhZTYDyN2E3MjcwNzNA3MDZjTTYyYETRKYTliMmE1GYTNiNGE5YWZKhZTYyN2E3MTNZjNjJhOWI0YATViMmExYjRhWOWFmYWViMzYKyN2E3MDZjNjCJhNmE5SmFjYDWM2MjdhNzE2OYzYyYTFLYWNLRYjRhNURiMkPVhZWExYjRhNRTYyN2FhNmExHYWNiM2E1NmMW2MmIzYjBhNWAE1YTQ2MjdhNJzFiZEQ/"}],"options":"MDMAxMDgyMjk3YQTdiNjg3OTdiOMjk0MTI5NzNLHNzY2ODZiMjUk4NA|"},'__SVGATOR_PLAYER__',window)]]></script></svg>