<svg xmlns="http://www.w3.org/2000/svg" width="2048.223" height="2178.313" viewBox="0 0 2048.223 2178.313"><g transform="translate(0)"><g transform="translate(48.943 0)"><path d="M588.866,1433.25s-45.175-82.3-127.473-103.957-193.686-9.9-225.865-9.9-99.009-43.937-116.336-110.15,21.038-95.914,21.038-95.914S13.377,1058.253,13.377,894.889,118.571,712.961,118.571,712.961s-61.881-154.7,33.417-267.325,185.643-71.781,185.643-71.781S310.4,267.42,427.976,182.027,661.885,154.8,661.885,154.8,743.566-3.616,921.783.095s227.723,133.662,227.723,133.662,163.364-55.692,263.61,6.189,126.233,180.691,126.233,180.691,137.381-28.464,221.537,61.881,40.843,221.53,40.843,221.53,172.028,53.221,178.217,226.486-123.762,261.136-172.031,273.51c0,0,32.8,40.222-11.138,113.245s-125,81.682-150.989,81.682-224.008,3.095-328.585,149.132c0,0-101.691,78.383-338.486,85.806s-389.85-100.658-389.85-100.658Z" transform="translate(-12.625 0.084)" fill="#fee9d9"/><path d="M122.242,578.642s139.027,15.677,256.6,72.606,186.88,154.7,186.88,154.7l38.365-143.563S413.907,264.285,65.313,194.157l-11.5,7.5s118.609,6.769,259.85,123.688,189.767,250.823,187.292,289.6-75.909,40.427-145.216,14.849-191.988-56.828-244.507-58.53l11.011,7.378Z" transform="translate(97.154 527.139)" fill="#f4dac8"/><path d="M197.151,117.234S353.914,231.24,476.026,477.115,600.613,803.5,600.613,803.5l-76.734,68.312S359,549.008,83.353,432.832c0,0,109.738,27.246,258.632,168.335s171.994,126.99,181.895,111.313,0-168.5-123.762-353.316S180.649,117.234,180.649,117.234h16.5Z" transform="translate(177.361 318.292)" fill="#f4dac8"/><path d="M82.947,463.112s139.614,9.566,207.491,50.7c0,0,68.085,31.845,109.545,98.058,0,0,124.453,72.684,188.154,79.041L486.617,511.623S393.678,359.771,141.622,302.564c0,0,103.04,27.747,184.1,79.728s82.3,125.619-17.947,103.961S82.947,463.112,82.947,463.112Z" transform="translate(176.258 821.465)" fill="#f4dac8"/><path d="M853.622,423.769S679.841,457.234,589.756,523.833,487.5,631.687,487.5,631.687s-38.161,38.443-168.52,64.188c0,0,94.881-188.845,97.359-194.173s217.729-154.86,481.384-200.967l11.268,6.178S792,324.481,649.007,384.575s-84.16,120.875-22.9,96.122S853.622,423.769,853.622,423.769Z" transform="translate(817.08 816.5)" fill="#f4dac8"/><path d="M876.5,171.5S725.515,217.71,551.422,386.023,324.528,678.1,324.528,678.1l76.734,174.468S549.1,752.6,698.775,700.915,882.645,651.6,882.645,651.6s165.273-77.763,192.189-199.723c0,0-61.368,81.009-260.211,167.64s-319.305,81.682-352.31,4.952,58.82-202.264,144.391-278.515S859.115,174.869,899.162,174.423L876.5,171.5Z" transform="translate(832.154 465.633)" fill="#f4dac8"/><path d="M696.577,111.916S621.5,184.523,496.91,366.867,300.542,787.655,300.542,787.655l89.108,63.53s67.55-117.71,170.326-234.6S811.364,407.743,811.364,407.743s-132.113,67.208-246.8,176.942-157.591,126.236-147.69,26.4,82.507-233.5,160.065-337.457S706.117,107.752,706.117,107.752l-9.54,4.165Z" transform="translate(767.032 292.549)" fill="#f4dac8"/><path d="M412.672,64.463s-36.3,118.4-80.857,385.722-53.73,470.291-53.73,470.291l83.432,21.867s80.772-234.358,201.892-428.85c0,0-95.87,127.284-133.41,199.065s-132.838,7.426-80.857-271.036S425.225,50.777,425.225,50.777Z" transform="translate(706.058 137.861)" fill="#f4dac8"/><path d="M196.1,70.809s92.2,198.634,139.231,412.742,70.544,436.878,70.544,436.878L500.663,913s37.079-446.032,88.1-658.036c0,0-30.66,137-65.314,294.181S409.594,769.439,376.177,606.075,301.918,259.639,201.672,53.53L196.1,70.809Z" transform="translate(483.478 145.335)" fill="#f4dac8"/><path d="M113.985,275.383S229.726,365.39,324.08,515.31,466.993,789.734,486.515,849.427s30.931,113.861,30.931,113.861L628.83,907.8s-16.848-262.373-92.578-525.366-117.2-324.254-117.2-324.254,63.738,170.17,114.478,380.566,29.705,311.879,6.189,331.68-94.06-91.583-209.155-269.8S113.985,275.383,113.985,275.383Z" transform="translate(260.527 157.963)" fill="#f4dac8"/><path d="M59.264,211.816S179.92,210.98,296.256,293.9,476.946,504.3,449.719,515.433s-346.477-52.6-346.477-52.6S-24.257,343.84,59.264,211.816Z" transform="translate(34.939 575.083)" fill="#ffefe4"/><path d="M55.923,282.171S228.307,360.594,329.79,444.855,488.206,565,496.869,561.29,463.453,389.263,337.216,255.6,194.682,119.256,194.682,119.256,75.371,133,55.923,282.17Z" transform="translate(102.888 323.782)" fill="#ffefe4"/><path d="M119.538,155.723S239.994,276.869,339,425.384s148.515,172.44,136.14,66.417S357.566,81.422,308.064,53.53c0,0-129.528,9.514-188.526,102.193Z" transform="translate(275.603 145.335)" fill="#ffefe4"/><path d="M222.588,54.261s78.275,273.057,111.383,409.993c35.906,148.515,49.937,136.965,72,6.6S472.062,54.261,472.062,54.261s-106.736-88.217-249.474,0Z" transform="translate(555.385 40.87)" fill="#ffefe4"/><path d="M480,43.791s-171.723,375.45-163.3,447.228,143.552-135,324.335-306.362C641.041,184.657,613.431,80.9,480,43.791Z" transform="translate(810.101 118.894)" fill="#ffefe4"/><path d="M685.38,102.083S469.542,242.819,373.832,450.737c0,0,6.6,19.8,141.914-37.953S787.291,234.631,787.291,234.631,785.7,139.564,685.38,102.083Z" transform="translate(966.015 277.157)" fill="#ffefe4"/><path d="M734.513,181.451S390.053,366.819,418.105,485.027,832.734,360.414,832.734,360.414s2.014-105.7-98.221-178.963Z" transform="translate(1081.806 492.642)" fill="#ffefe4"/><path d="M123.6,444.644s95.06,26.243,151.576,102.148l109,4.607L367.619,451.68s-54.7-72.866-163.3-132.44c0,0,103.857,71.982,122.421,108.1s8.251,83.562-43.321,75.311S211.239,468.766,123.6,444.644Z" transform="translate(286.626 866.741)" fill="#eac2a9"/><path d="M222.023,267.412s86.155,109.452,128.643,184.536l-41.72,142.4s-58.415-83.569-163.62-134.394a725.414,725.414,0,0,1,97.668,50.985c49.919,31.355,90.825-13.2,65.629-84.156S222.023,267.412,222.023,267.412Z" transform="translate(345.621 726.027)" fill="#eac2a9"/><path d="M311.75,221.661s27.276,44.658,62.594,136.876S414.2,482.1,414.2,482.1l-73.847,95.784s-134.94-210.021-191.23-255.623c0,0,34.468,22.052,103.775,110.748s116.154,62.706,123.257,30.939.093-92.407-27.963-156.762-36.444-85.527-36.444-85.527Z" transform="translate(355.932 601.813)" fill="#eac2a9"/><path d="M369.522,195.437S412.828,447.278,417.16,503.59L297.937,553.3s-60.165-187.489-105.989-267.73c0,0,67.416,130.768,94.027,173.465s100.246,50.743,107.052-22.9-23.5-240.7-23.5-240.7Z" transform="translate(472.198 530.614)" fill="#eac2a9"/><path d="M415.055,210.457,385.03,495.045l-97.645,8.544s-33.4-257.19-47.638-308.153c0,0,36.519,284.02,100.246,255.968s75.062-240.948,75.062-240.948Z" transform="translate(601.972 530.614)" fill="#eac2a9"/><path d="M480.7,278.014S395.513,457.237,368.806,532.849L278.854,507.3s23.72-227.715,27.937-264.788,6.041-51.59,6.041-51.59-31.377,247.126,10.7,268.387S480.7,278.014,480.7,278.014Z" transform="translate(708.148 518.359)" fill="#eac2a9"/><path d="M619.683,260.1S493.562,370.516,387.743,554.921L303.067,469.2s69.27-174.282,111.892-254.835c0,0-80.805,185.234-70.407,214.936s38.213,63.739,70.407,36.511S539.126,331.608,619.683,260.1Z" transform="translate(773.887 582.007)" fill="#eac2a9"/><path d="M755.316,490.634s-88.8,28.45-182.7,71.462-165.065,96.516-165.065,96.516L325.86,480.733s96.438-160.637,176-239.042c0,0-89.368,105.191-99.886,167.785s26.607,165.935,147.895,133.755S755.316,490.634,755.316,490.634Z" transform="translate(835.77 656.194)" fill="#eac2a9"/><path d="M603.123,396.5S469.706,444.067,413.877,546.672c0,0-60.785-3.083-64.08-6.345s-1.646-120.968-1.646-120.968,67.84-44.328,150.254-89.547c0,0-89.2,48.384-94.974,108.43S547.87,409.4,603.123,396.5Z" transform="translate(895.165 895.444)" fill="#eac2a9"/><path d="M479.527,1335.189s-71.146-26.938-243.794-15.8c0,0-90.316-15.046-111.681-95.807s16.383-110.258,16.383-110.258S20.18,1061.968,13.583,901.9,118.777,712.961,118.777,712.961s-53.7-146.327,24.1-255.507,167.733-93.5,194.96-83.6c0,0-23.717-131.192,106.952-202.97S662.09,154.8,662.09,154.8,742.535-3.616,921.989.095s227.723,133.662,227.723,133.662,128.71-63.118,252.472-14.849,137.37,201.729,137.37,201.729,152.23-37.128,235.77,64.976,26.611,218.439,26.611,218.439,174.5,47.028,183.785,212.866-82.3,269.182-177.6,287.13c0,0,28.468,35.27,4.952,100.863s-100.246,94.677-167.079,94.06-162.837,21.911-233.645,62.316-83.309,71.644-83.309,71.644,26.941-64.86,142.452-122.614,212.042-70.132,212.042-70.132,61.881-12.378,71.781-67.658-33-52.805-33-52.805,235.145-107.26,202.141-292.074-202.966-190.595-202.966-190.595,91.746-99.061,13.2-208.743-258.249-23.928-258.249-23.928,23.1-152.639-128.71-224.416S1131.56,202.24,1131.56,202.24,1060.6,52.075,915.8,55.79,694.886,188.832,692.412,216.06c0,0-79.825-45.171-207.3,15.469s-97.768,199.255-97.768,199.255-137.79.825-188.121,90.758S175.3,721.212,175.3,721.212,66.388,782.269,78.763,900.254,232.226,1105.7,232.226,1105.7s-41.252,24.749-37.128,79.208,56.929,95.706,80.857,100.658,145.6,1.895,203.572,49.625Z" transform="translate(-12.831 0.084)" fill="#f69273"/><path d="M140.779,1113.412S25.064,1066.176,13.927,901.987,119.121,713.045,119.121,713.045s-59.4-158.828,27.227-270.007,191.832-69.1,191.832-69.1S314.664,234.087,454.516,164.783s207.918-9.9,207.918-9.9S741.642-4.9,932.233.116s217.822,133.726,217.822,133.726,150.317-74.85,274.413-4.629S1539.9,320.721,1539.9,320.721s172.9-40.1,246.725,79.579,15.655,203.835,15.655,203.835,149.812,27.227,184.436,174.5-35.924,295.789-178.25,325.495c0,0,105.276-32.882,144.882-178.919s-24.831-279.023-182.01-300.671c0,0,69.426-85.624-16.064-209.757S1511.463,352.9,1511.463,352.9s8.136-166.834-151.517-213.862-228.332,33.175-228.332,33.175-33.8-142.991-215.731-142.991-238.563,146.7-238.563,146.7-84.717-45.539-209.3,22.944S363.758,400.3,363.758,400.3s-136.386-25.377-199.619,79.152-20.678,251.718-20.678,251.718S30.02,768.425,56.423,926.84s133.243,190.394,133.243,190.394-51.308,26.462-35.631,107.319,82.042,94.922,82.042,94.922-95.914-25.578-115.715-103.961,20.418-102.1,20.418-102.1Z" transform="translate(-13.175 0)" fill="#f9ac8a"/><path d="M433.615,374.725A286.457,286.457,0,0,0,295.87,279c-1.415-.539-2.853-1.066-4.28-1.582C359.24,291.943,404,330.327,433.615,374.725Z" transform="translate(742.727 753.202)" fill="#faf8f3"/><path d="M255.84,291.32S369.1,251.714,467.287,320.2s80.857,207.918,80.857,207.918S507.718,426.632,411.183,424.154s-112.212,4.952-127.061-33S255.84,291.32,255.84,291.32Z" transform="translate(645.665 760.007)" fill="#fff"/><path d="M79.3,238.313c-24.4-.271-35.382,42.63,24.4,81.318s213.528,81.782,214.746,67.554S150.07,239.1,79.3,238.313Z" transform="translate(113.211 647.02)" fill="#fff7f1"/><path d="M115.895,147.72c-33.1-15.826-45.145,43.391,19.522,90.635S319.325,403.313,326.811,402.41s-98.663-201-210.916-254.69Z" transform="translate(192.531 393.959)" fill="#fff7f1"/><path d="M164.488,82.091c-36.6,8.545,125.389,330.127,148.712,327.345S252.337,155.3,227.933,119.917,164.488,82.091,164.488,82.091Z" transform="translate(383.088 222.879)" fill="#fff7f1"/><path d="M284.045,28.963c-20.815-3.663-50.1,7.319-33.015,140.316s42.7,248.91,47.586,248.91,24.352-235.112,18.278-306.678-32.848-82.548-32.848-82.548Z" transform="translate(618.664 77.127)" fill="#fff7f1"/><path d="M479.357,65.776c-34.163-7.322-156.012,264.769-145.721,275.751S494,141.425,494,107.262,479.357,65.776,479.357,65.776Z" transform="translate(855.211 178.189)" fill="#fff7f1"/><path d="M613.512,127.534c-25.4-24.144-229.387,190.784-213.528,191.085S665.055,176.523,613.512,127.534Z" transform="translate(1034.636 341.119)" fill="#fff7f1"/><path d="M679.841,216.069c-21.718-38.48-243.214,125.7-241.791,146.45S706.685,263.625,679.841,216.069Z" transform="translate(1140.346 570.831)" fill="#fff7f1"/></g><g transform="translate(0 1432.868)"><path d="M4.4,499.785S-5.263,557.015,274.436,763.7,771.958,948.1,771.958,948.1s91.583,70.544,228.96,24.753c0,0,81.682,44.554,168.312,2.478,0,0,24.753,22.275,96.535,7.423s120.051-40.839,120.051-40.839,194.3-16.09,396.035-164.6S2026.262,536.88,2026.262,536.88s-318.666-91.252-974.6-99.915S4.4,499.785,4.4,499.785Z" transform="translate(11.834 -248.481)" fill="#f69273"/><path d="M28.128,667.5S-44.891,605.62,60.307,518.989s479.534-141.5,538.647-130.776,754.534,21.543,754.534,21.543,302.517,1.341,508.786,102.728,193.065,173.992,117.16,198.746-158.416-19.8-158.416-19.8,95.71,94.06-8.251,141.914-194.719-8.251-194.719-8.251,8.251,70.957-84.156,84.156-163.364-42.9-181.516-54.455c0,0-46.2,85.81-198.017,87.459s-207.922-87.459-207.922-87.459S830.927,937.3,664.264,905.949,482.749,771.83,482.749,771.83s-79.211,56.561-179.87,46.661-107.26-80.857-97.356-103.957c0,0-132.013,4.948-177.4-47.032Z" transform="translate(9.382 -382.483)" fill="#f4dac8"/><path d="M66,487.139s-8.663,108.913,58.166,137.377S303.62,599.767,303.62,599.767,392.728,730.947,549.907,726s231.434-58.17,231.434-58.17,127.473,117.577,256.183,94.06,131.188-89.068,131.188-89.068,103.961,71.741,198.018,51.94,64.355-98.693,64.355-98.693,55.7,34.338,89.108,30.623,68.07-148.511,56.933-194.306S66,487.139,66,487.139Z" transform="translate(178.194 -219.448)" fill="#dd8584"/><path d="M816.237,409.392c-210.4,5.777-262.377-20.626-443.067,5.777S60.879,561.619,65.831,607.41,298.5,790.579,803.447,793.053s764.847-112.624,773.51-210.4-261.136-188.11-457.916-179.45-302.8,6.186-302.8,6.186Z" transform="translate(178.363 -339.719)" fill="#f8ada9"/><path d="M757.657,722.7s48.265-71.443,150.989-98.225,358.907,49.112,358.907,49.112l38.365-2.864s-110.146-91.59-172.027-117.58,113.861-102.4,257.424-82.143,185.643,114.318,185.643,114.318,12.49-74.371-187.448-141.728S885.138,411.976,836.861,412.31s-267.67-28.49-474.793,7.285S101.452,532.1,65.7,591.507c0,0,89.246-101.483,235.283-136.137S524.986,445.79,523.749,471,386.375,559.332,260.135,576.655c0,0,95.3,19.8,107.672,17.327S538.6,578.6,627.71,600.524,757.657,722.7,757.657,722.7Z" transform="translate(178.362 -342.38)" fill="#f7a09c"/><path d="M194.749,413.9s537.05-40.925,899.839,17.253c0,0-196.454-8.422-238.53,10.142s-80.367,78.821-17.249,125.482S949,629.133,949,629.133s-153.326-80.475-257.4-62.271-155.93,97.419-155.93,97.419,30.946-77.718-74.252-111.135-284.648,21.922-284.648,21.922H152.015S298.052,538,347.555,507.058,336.5,417.21,194.749,413.9Z" transform="translate(412.721 -347.098)" fill="#c87677"/><path d="M131.526,494.4S185.364,675.918,426.7,790.188c0,0,122.525,77.146,228.96,24.753,0,0-51.4-51.687-56.933-252.06,0,0-6.6,75.909,6.6,155.113s-1.649,85.81-66,67.658S329.752,670.141,305,643.738s48.715-24.883,48.715-24.883S202.279,609.084,131.526,494.4Z" transform="translate(357.094 -90.571)" fill="#e6795d"/><path d="M656.042,512.832s-17.353,83.777-95.309,176.378-107.661,96.583-176.968,96.241-76.73-20.559-76.73-20.559-36.2-30.938-47.1-136.794c0,0,14.923,105.856,104.031,117.406s183.867-114.1,166.667-131.76-49.094-13.43-49.094-13.43,136.549-8.273,174.505-87.481Z" transform="translate(705.718 -40.522)" fill="#e6795d"/><path d="M59.623,489.738s78.439,133.506,236.416,233.41,325.877,79.691,325.877,79.691-128.539-67.613-210.1-155.711c0,0,68.6,78.569,62,86.82s-102.308,6.6-206.269-77.558-80.757-113.731-80.757-113.731-105.072,1.475-127.165-52.92Z" transform="translate(161.876 -103.223)" fill="#e6795d"/><path d="M603.624,565.081c-7.98,9.139-128.811,149.96-227.407,209.367,0,0,154.671-17.839,266.415-84.8S833.888,518.454,841.965,497.917c0,0-112.2,104.916-207.911,169.271S658.8,547.356,658.8,547.356L606,523.625S614.936,552.127,603.624,565.081Z" transform="translate(1021.433 -81.017)" fill="#e6795d"/><path d="M498.612,512.832S449.105,675.371,317.917,767.37c0,0,22.279,15.261,96.535,7.423s141.092-54.5,141.092-54.5L678.86,613.743S581.118,692.7,513.46,705.9s-67.654-36.3-46.2-84.16S506.5,518.672,506.5,518.672l-7.887-5.84Z" transform="translate(863.147 -40.522)" fill="#e6795d"/><path d="M793.554,463.333s22-3.67-125.025,143.749S458.393,762.67,458.393,762.67,590.8,648.638,618.856,591.836s-33-107.955-33-107.955,55.157,36.229,117.1,31.314S793.554,463.333,793.554,463.333Z" transform="translate(1244.542 -174.935)" fill="#e6795d"/><path d="M4.375,453.342S.9,496.956,155.189,643.822,430.528,814.256,430.528,814.256,303.444,716.276,244.58,638.383s-41.538-104.3-41.538-104.3S47.45,547.51,4.375,453.342Z" transform="translate(11.859 -202.038)" fill="#e6795d"/><path d="M345.354,420.318C244.692,427.377,74.693,508.1,74.726,553.3S307.4,656.946,437.761,684.9s209.159,39.5,206.064-23.2S497.168,559.531,393.2,580.086s-169.594,0-169.594,0-39.093-46.839,46.274-85.746S345.354,420.318,345.354,420.318Z" transform="translate(202.881 -291.699)" fill="#fac8c6"/><path d="M269.115,668.753s20.41-68.509,142.523-86.645,335.436,43.324,335.436,43.324L814.3,603.573S669.062,512.816,677.313,469.911s170.909-48.57,240.922-28.877,70.147,80.787,54.05,105.986-59,71.6-276.82,111.112-390.656,41.151-426.35,10.621Z" transform="translate(730.649 -264.926)" fill="#fac8c6"/><path d="M661.934,393.9l20.622,46.872s-194.889,6.561-311.593,46.23S177.957,620.87,190.733,655.98c0,0-131.816,23.624-170.281-16.331,0,0,85.152-12.884,114.389-48.474,28.063-34.163,86.452-124.453,272.091-164.72s40.185-28.249,40.185-28.249L552.81,387.24,661.934,393.9Z" transform="translate(55.526 -381.506)" fill="#eac2a9"/><path d="M785.323,787.255s46.2-76.225,37.533-177.711-253.371-190.5-479.407-180.026l17.576-36.79S643.6,402.837,793.448,465.654c0,0-197.557-39.777-209.753-39.777-8.441,0,192.389,28.621,256.57,79.223,123.628,97.471,75.411,212.116,20.336,256.67s-75.277,25.485-75.277,25.485Z" transform="translate(932.464 -366.606)" fill="#eac2a9"/><path d="M599.617,387.868S451.585,375.226,223.48,446.933-5.1,588.583,7.515,633.438s76.559,83.22,198.668,80.742c0,0-19.463,80.2,73.6,100.123s153.586-4.4,200.117-28.342c0,0,37.421,110.068,211.47,123.721S947.1,854.444,947.1,854.444s64.355,104.83,231.434,87.481,174.505-87.481,174.505-87.481,104.5,83.814,201.38,50.365,64.292-80.066,64.292-80.066,118.739,54.618,202.832,4.205,22.208-123.431-8.114-145.707c0,0,79.62,54.455,154.7,35.066s76.73-64.768,45.791-106.847S1862.937,483.366,1674.2,442.523s-320.048-33.116-320.048-33.116,289.11,38.068,432.052,94.38,178.176,133.235,171.388,149.849-63.1,48.789-199.853-18.661c0,0,73.018,100.246,26.607,142.322s-146.654,27.231-202.966-8.043c0,0,12.17,77.35-52.6,89.316s-131.6-10.317-188.529-55.7c0,0-56.929,90.345-170.79,93.648s-212.87-101.071-212.87-101.071S851.4,868.085,705.354,848.474,505.275,748.216,486.711,745.126c-35.055-5.847-75.909,44.138-169.141,16.09S256.514,658.076,250.737,655.6,79.56,687.5,52.719,620.948,127.1,482.675,300.243,437.779s299.374-49.911,299.374-49.911Z" transform="translate(8.718 -382.134)" fill="#fab99f"/><path d="M243.827,401.651S89.49,440.518,22.661,518.488,41.827,679.958,214.9,674.426c0,0-21.941,75.251,73.6,100.123S488.62,746.207,488.62,746.207,510.769,867.833,700.907,881.49s254.913-66.8,254.913-66.8S1022.653,925,1181.065,910.771,1363,828.718,1361.759,814.69c0,0,108.972,82.923,210.389,54.455,99.477-27.922,51.984-88.7,51.984-88.7s112.212,71.455,207.093,15.313,25.258-136.634-5.108-149.195c0,0,71.693,59.723,180.724,21.1s-8.493-168.8-222.827-236.958c0,0,167.606,64.136,215.526,131.471s22.279,101.5-53.63,97.389-150.164-35.776-150.164-35.776,85.809,88.822,23.928,143.574-219.472-8.08-219.472-8.08,40.033,72.346-35.478,95.011-213.695-73.851-213.695-73.851-8.247,95.758-168.312,105.844S959.535,785.813,959.535,785.813s-90.966,71.161-244.429,63.735S503.473,753.634,495.43,722.7c0,0-112.624,63.114-193.686,32.792S229.3,659.562,229.3,659.562s-171.99,6.2-201.075-76.719S182.6,417,243.827,401.651Z" transform="translate(0 -342.38)" fill="#fcd0c2"/><path d="M528.08,409.832S425.4,386.045,361.024,393.887l-17.576,36.79s153.415,2.771,261.351,28.985C702.7,483.434,777.856,535,803.248,565.369s22.364,81.013,18.787,105.027-12.148,55.3-17.412,75.125-19.3,42.893-19.3,42.893,56.528,1.932,81.44-32.328-2.3-93.518-31.191-133.239c0,0,50.39,22.569,76.674,28.847,0,0-52.63-14.474-71.982-54.332S788.781,510.327,687.1,466.4s-298.527-54.094-298.527-54.094,25.225-13.894,139.506-2.474Z" transform="translate(932.464 -367.765)" fill="#bd7c6f"/><path d="M436.717,401.027s130.75-24.85,216.537-8.909c0,0,15.113,38.733,21.465,49.841,0,0-165.537,6.078-273.926,34.516-131.72,34.561-219.015,127.057-219.015,173.967v6.646s-101.424,19.2-158.39-9.009c0,0,50.621,3.578,82.741-14.024,43.458-23.821,99.235-90.033,221.66-149.009s287.141-64.667,298.936-69.954-90.431-28.134-190.008-14.065Z" transform="translate(63.498 -382.751)" fill="#bd7c6f"/><path d="M5.162,459.978S97.079,585.252,207.485,676.764s224.48,119.475,224.48,119.475S277.015,675.545,222.108,590.133c0,0,86.63,112.866,76.262,118.357s-161.67-126.9-199.5-165.942-31.507-44.064-31.507-44.064-39.394-12.479-62.2-38.506Z" transform="translate(14.014 -184.021)" fill="#bd5e4c"/><path d="M187.27,507.735s43.975,75.051,120.251,143.842,152.966,102.4,152.966,102.4S380.6,763.012,278.176,736.5s-159.1-72.755-159.1-72.755,137.207,63.33,205.537,70.039,23.791-27.454-21.963-76.871S201.829,541.572,187.27,507.735Z" transform="translate(323.305 -54.361)" fill="#bd5e4c"/><path d="M402.346,512.832s13.408,73.353,21.543,132.1,35.389,119.961,35.389,119.961-39.457,20.172-91.516,20.559-137.065-35-163.906-55.335c0,0,96.174,36.63,162.279,32.945,62.022-3.459,69.954-21.436,69.954-21.436S398.7,622.956,402.346,512.832Z" transform="translate(553.473 -40.522)" fill="#bd5e4c"/><path d="M633.214,512.832s1.17,38.536-63.092,139.907S431.838,790.789,356.189,785.466s-76.221-23.048-87.849-62.1c0,0,17.9,61.655,96.8,49.451s148.9-65.886,182.229-113.88,27.944-80.724,27.944-80.724,49.51-20.5,57.9-65.384Z" transform="translate(728.545 -40.522)" fill="#bd5e4c"/><path d="M680.134,540s-84.8,93.819-160.411,128.075-170.207,59.878-202.275,22.056L383.921,640.5s-33.35,34.981-13.827,43.113S554.875,675.857,680.134,540Z" transform="translate(861.874 33.226)" fill="#bd5e4c"/><path d="M847.83,500.092s-112.2,175.122-301.8,232.679-170.9,30.716-170.9,30.716l69.144-39.858s30.1,13.827,122.016-16.272S817.831,558,847.83,500.092Z" transform="translate(1017.086 -75.111)" fill="#bd5e4c"/><path d="M812.944,466.852s-81.975,97.913-147.865,157.086S521.772,754.658,474.32,753.094s-2.634-2.262-2.634-2.262,151-129.947,164.616-160.492c0,0-36.244,51.9-20.206,51.9s102.059-97,104.5-117.127S695.6,503.389,695.6,503.389s85.234,6.483,117.342-36.537Z" transform="translate(1228.615 -165.358)" fill="#bd5e4c"/><path d="M366.855,393.538s119.635-7.267,279.064,25.541,225.315,72.68,225.315,72.68S738.72,439.278,597.929,416.906,744.5,469.265,744.5,469.265,522.165,405.961,366.855,393.538Z" transform="translate(996.015 -366.265)" fill="#f69273"/><path d="M255.49,427.37s278.949-65.448,402.9-32.306c0,0-263.446-7.586-441.934,55.755,0,0-151.736,45.94-194.96,101.041,0,0,26.072-41.675,130.033-83.083s247-66.161,247-66.161L255.49,427.37Z" transform="translate(58.361 -385.696)" fill="#f69273"/><path d="M366.5,531.974s95.524,69.2,175.961,47.686,49.937-89.922,49.937-89.922,7.322,50.1-37.213,62.914-139.1-17.082-141.538-18.913,60.815-21.963,60.815-21.963-69.088,19.043-107.962,20.2Z" transform="translate(995.04 -103.223)" fill="#c87677"/><path d="M273.431,521.49s62.821,58.842,158,61.532,165.623-80.683,165.623-80.683-58.853,41.248-138.771,46.7-151.3-27.547-151.3-27.547H273.431Z" transform="translate(742.367 -69.011)" fill="#c87677"/></g><g transform="translate(382.485 935.885)"><path d="M949.4,377.721V67.229A58.973,58.973,0,0,0,890.436,8.252L653.139.523l-149.782,143.7L219.446,8.252c-90.167,0-101.869-36.153-134.608,47.867L19.111,226.5c32.738,84.02,110.168,210.182,200.335,210.182l449.334,91.59,221.656-91.59A58.963,58.963,0,0,0,949.4,377.721Z" transform="translate(198.436 5.374)" fill="#fccd56"/><path d="M164.529,231.878,230.257,61.493,70.822,0,5.106,170.386Z" transform="translate(53.018)" fill="#46c9cc"/><path d="M136.487,60.575l4.155-10.78L15.334,1.461,11.179,12.23Z" transform="translate(116.075 15.17)" fill="#0ba0a0"/><path d="M135.731,62.562l4.155-10.78L14.567,3.448l-4.155,10.78Z" transform="translate(108.111 35.802)" fill="#0ba0a0"/><path d="M134.954,64.549l4.155-10.769L13.8,5.435,9.646,16.215Z" transform="translate(100.158 56.433)" fill="#0ba0a0"/><path d="M134.187,66.525l4.166-10.769L13.034,7.423,8.879,18.192Z" transform="translate(92.194 77.075)" fill="#0ba0a0"/><path d="M133.431,68.512l4.155-10.769L12.267,9.41,8.112,20.179Z" transform="translate(84.23 97.707)" fill="#0ba0a0"/><path d="M132.654,70.511l4.155-10.769L11.5,11.4,7.346,22.177Z" transform="translate(76.276 118.339)" fill="#0ba0a0"/><path d="M131.9,72.5l4.155-10.769L10.734,13.384,6.579,24.164,131.9,72.5Z" transform="translate(68.312 138.97)" fill="#0ba0a0"/><path d="M36.71,8.247,346.951,233.387v95.984l80.355,42.653,113.31-113.389L427.306,149.23,492.418,30.684,673.584,8.247,470.4.518l-149.782,143.7L36.71,8.247Z" transform="translate(381.172 5.379)" fill="#eaac21"/><path d="M69.1,33.822l61.288-20.24L281.958,181.9l-193.744-6.7,18.008,51.635H69.1L25.025,151.65l47.264-37.075L69.1,33.822Z" transform="translate(259.843 141.026)" fill="#eaac21"/><path d="M77.3,414.9l164.637-229.18L208.916,4.057l84.976,21.719v149.03l-68.96,75.745L252.1,325.727,77.3,414.9Z" transform="translate(802.651 42.125)" fill="#eaac21"/><path d="M40.191,150.95l148.325-15.925,17.3-111.682L263.1,125.474l105.284,60.514-43.052,44.588-97.578-50.963-53.115,9.551L40.191,150.95Z" transform="translate(417.316 242.378)" fill="#ffdd92"/><path d="M25.025,131.015,88.214,63.25l93.138,31.293L141.693,4.057H69.1L25.025,131.015Z" transform="translate(259.843 42.125)" fill="#ffdd92"/><path d="M628.089,586.592l-194.507-8.663L235.365,513.5l198.218,64.418Zm184.6-132.6-13.637-70.577ZM628.2,423.7a547.078,547.078,0,0,1-66.069-20.023l-29.141-15.459-2.8-31.68,79.319,35.55,97.874-43.177-95.4,14.161,73.1-34.161L588.441,359.05l-94.151-56.78,2.14,5.271-37.918-25.863L765.3,344.218l-18.282,18.851,11.156,56.279L628.2,423.7ZM46.447,400.941,8.313,285.844c17.564-67.754,57.3-120.174,120.5-156.407l42.562-2.22C211.084,193.446,268.171,255.8,331.565,255.8l44.645,9.107-85.1,98.158-66.888-21.5-49.563-18.851-4.77,1.377L108.8,304.456S64.33,353.063,46.447,400.941ZM141.2,171.567,203.15,321.474l79.285,18.578,48.322-55.471L270.05,321.474l-33.456-35.63-13.626-68.437-35.926,24.77-22.3-92.911L108.8,161.652,38.228,270.147,141.2,171.567Zm929.175-75.574h-8.856V82.22l8.856,13.774Zm-8.856-63.052v-15h84.43c.66.455,1.309.911,1.947,1.377-.638-.467-1.286-.922-1.947-1.377h-62.164Z" transform="translate(86.317 186.256)" fill="#aee5ea"/><path d="M616.563,344.218l-306.792-62.54-3.643-2.482L318.3,242.178l-78.386-30.143L356.9,245.286l35.527-6.386L460.52,262.11,507.59,286.7l6.2-6.432,16.346,5.578C593.989,159.023,685.113,72.453,807.893,32.577l1.639,9.016-65.693,91.442q-98.249,35.277-174.051,152.81c48.7-60.81,103.509-105.353,163-137.419L644.9,270.773l84.828-43.279L616.563,344.218ZM227.469,264.91,182.824,255.8c-63.394,0-120.481-62.358-160.186-128.586l38.2-1.992L93.886,181.6h37.121L113,129.961l55.949,1.935,136.19,66.3-79.125,8.492-36.563-14.058,7.433-27.263-74.333-9.9,24.77,34.685,34.7-17.337-6.193,30.963,62.779,48.3-11.133,12.84Zm33.752-16.346-3.939-2.686,2.777-1.218ZM807.347,147.435l-14.821-41.014,68.96-75.745V18.564c1.047-.2,2.106-.421,3.165-.626h48.129v15L890.661,47.831,912.779,82.22V95.993H857.217l-49.87,51.441Z" transform="translate(235.058 186.256)" fill="#add0a3"/><path d="M96.161,87.8H59.04L25.994,31.433l85.25-4.462L134.1,38.1,78.152,36.169Z" transform="translate(269.904 280.048)" fill="#a6c38c"/><path d="M77.3,270.2l87.891-122.348a536.266,536.266,0,0,1,60-27.661,254.929,254.929,0,0,0-48.948,12.271l65.693-91.442L240.3,32.006a486.535,486.535,0,0,1,53.593-14.013V30.1l-68.96,75.745,14.821,41.014-77.623,80.059L77.3,270.2Z" transform="translate(802.652 186.827)" fill="#a6c38c"/><path d="M322.082,122.278,275.012,97.69l53.274,18.156ZM171.389,80.866,54.4,47.615l-13.9-5.35,79.125-8.492,75.1,36.552,12.192,4.155Z" transform="translate(420.566 350.676)" fill="#aed7bc"/><path d="M141.1,553.132C88.5,528.373,52.142,485.925,23.422,435.178L11.663,399.685l11.759,35.493c28.72,50.747,65.078,93.2,117.681,117.954l59.478-40.889Zm894.49-100.4H917.9L764.271,382.154,917.9,452.731h117.692c64.35-10.165,93.7-41.3,93.685-90.053C1129.289,411.432,1099.942,442.566,1035.593,452.731Zm83.9-145.547c-3.267-14.366,1.73-29.437,12.5-39.739,44.031-42.164,36.392-84.214-.558-126.207,36.95,41.993,44.589,84.043.558,126.207C1121.218,277.747,1116.221,292.818,1119.488,307.184Zm11.429-166.538a41.785,41.785,0,0,1-6.113-44.8c13.956-29.483,17.041-56.814-11.691-77.782,28.732,20.968,25.647,48.3,11.7,77.782A41.76,41.76,0,0,0,1130.917,140.646Z" transform="translate(121.101 187.512)" fill="#b5e9eb"/><path d="M593.305,586.592,398.8,577.917,200.581,513.5,141.1,554.388C88.5,529.63,52.142,487.181,23.422,436.434L11.663,400.941c17.883-47.878,62.358-96.485,62.358-96.485L135.1,324.092,69.775,343.148l63.895,5.76,162.3,43.177,38.407-86.342-55.755,69.746-89.188-33.922,66.888,21.5,85.1-98.158,46.489,9.471,15.834,11.463v43.063l15.8-48.072,4.178.842,37.918,25.863,16.745,41.367,17.018,7.627,2.8,31.68-47.377-25.146-79.33-1.286L351.91,381.441,321.984,359.05l15.948,36.415-49.6,49.779L118.006,347.5l4.337,85,86.388,40.729L149.708,491.2,59.336,441.568l79.3,73.172,79.911-36.893,22.607,10.666,102.575-1.855,17.8,4.2,23.643,61.049V496.436l146.959,34.651,151.614-44.429-96.69-51.3,141.29,9.892c-48.573-4.792-93.958-11.713-134.926-21.549l129.975-4.348-11.156-56.279,18.282-18.851,15.6,3.176,11.7-4.838q-10.877,8.316-22.038,16.494l-12.385,41.708,37.167,40.809,1.241-25.943-11.156-26.011-2.47-26.546H761.8l39.921-38.646,161.12-66.581,19.272,34.218L915.419,347.5l-94.925-7.445,86.251,72.557,99.934-8.446,57.417-75.255L1046.168,119.4l-19.249,24.429V129.438l-.182-.125V95.993h8.856l-8.856-13.774V51.451c56.905,41.652,84.385,98.375,42.312,190.728,30.063,116.3,3.051,173.789-64.43,189.555q8.008.768,15.356.763c63.451,0,89.746-42.7,80.047-126.753q54.418-105.575,0-156.475c10.108-65.864-8.31-101.425-60.206-101.425a128.914,128.914,0,0,0-13.079.683V32.941l22.266-15h62.164c.66.455,1.309.911,1.947,1.377,28.731,20.968,25.647,48.3,11.691,77.782a41.785,41.785,0,0,0,6.113,44.8c.171.194.342.4.512.592,36.95,41.993,44.588,84.043.558,126.207-10.769,10.3-15.766,25.373-12.5,39.739.228.956.478,1.912.774,2.869,5.942,19.306,9.016,36.882,9.016,52.625.011,48.755-29.335,79.888-93.685,90.053H917.9L764.271,383.411l13.637,70.577c-50.838,60.354-116.394,98.477-184.6,132.6Z" transform="translate(121.101 186.256)" fill="#7cd2d7"/><path d="M445.32,333.709l-15.6-3.176L542.887,213.808l75.05-38.293c-44.668,55.63-99.319,106.241-160.915,153.356Zm55.608-22.972L633.213,182.652l75.574-47.07,1.423,14.753L651.3,225.1l10.746,19.056ZM122.933,267.993l-4.178-.842.535-1.639Zm-35.812-7.3-46.489-9.471,11.133-12.84,1.639,1.264,17.041-7.456,3.939,2.686,6.272,21.15,6.466,4.667ZM630.015,160.033l-9.505-26.284,49.87-51.441h55.562v33.319L680.283,82.308A609.051,609.051,0,0,1,630.015,160.033Zm95.927-91.5L703.824,34.145l22.118-14.889V34.84c-1.161.114-2.334.239-3.529.387,1.184.842,2.368,1.685,3.529,2.538Z" transform="translate(421.895 199.941)" fill="#7bbe96"/><path d="M84.754,109.373l77.623-80.059L171.882,55.6q-5.908,7.8-12.078,15.481l-75.05,38.293Z" transform="translate(880.028 304.377)" fill="#76b381"/><path d="M168.969,320.063,82.717,247.505l94.925,7.445,66.695-55.437-19.272-34.218,4.929-2.038a58.923,58.923,0,0,0,49.495-26.9l9.653,100V51.28l19.249-24.429,17.929,209.51L268.9,311.616l-99.934,8.446Z" transform="translate(858.877 278.802)" fill="#57c0c5"/><path d="M105.024,124.592,94.278,105.537l58.909-74.766,6.261,64.885a58.923,58.923,0,0,1-49.495,26.9l-4.929,2.038Z" transform="translate(978.919 319.505)" fill="#57ae8a"/><path d="M57.82,89.033,55.293,60.449l37.656,27.4ZM83.546,65.924Q68.486,60.2,54.69,53.665l-.285-3.2L83.546,65.925Z" transform="translate(564.905 524.005)" fill="#7cd2d7"/><path d="M435.13,230.479,288.171,195.828V147.791l-12.385-51.35L254.909,80.834,274.5,61.175l79.33,1.286,47.377,25.146.285,3.2a287.9,287.9,0,0,1-42.756-24.77l-4.906-3.574c1.616,1.207,3.244,2.4,4.906,3.574L402.1,97.59l2.527,28.584,35.129-1.184,9.471,6.9,40.832,2.857,96.69,51.3L435.13,230.479Zm-170.6-40.229-17.8-4.2L144.15,187.906l-22.607-10.666,48.447-22.368-58.26,17.747L25.342,131.888l-4.337-85,170.329,97.749,49.6-49.779,8.833,20.16v37.1l14.764,38.134Z" transform="translate(218.102 486.863)" fill="#57c0c5"/><path d="M255.147,220.259l-79.285-18.578L113.914,51.775,10.941,150.354,81.518,41.86l55.938-12.385,22.3,92.911,35.926-24.77,13.626,68.436,33.456,35.63,60.707-36.893Z" transform="translate(113.604 306.048)" fill="#42bcc2"/><path d="M214.994,153.756l-44.907-30.633-1.161-3.9-2.778,1.218-8.367-5.714-10.313,11.907L84.689,78.33l6.193-30.963L56.185,64.7,31.415,30.019l74.333,9.9L98.315,67.186l36.563,14.058-3.563.387,17.462,4.963,78.386,30.143Z" transform="translate(326.192 311.697)" fill="#41aa87"/><path d="M57.653,39.869,40.191,34.906l3.563-.387Z" transform="translate(417.316 358.422)" fill="#42af9b"/><path d="M60.55,94.992V51.929L44.716,40.466,76.35,46.92Z" transform="translate(464.301 420.171)" fill="#2facb2"/><path d="M108.6,78.133,76.967,71.678,70.5,67.011l-6.272-21.15,44.907,30.633Zm-65.352-27.5L41.61,49.367,51.923,37.46l8.367,5.714L43.249,50.63Z" transform="translate(432.05 388.959)" fill="#2f9c7c"/><path d="M114.248,405.219q-7.342,0-15.356-.763c67.48-15.766,94.493-73.252,64.43-189.555,42.073-92.353,14.593-149.076-42.312-190.727V21.248a128.914,128.914,0,0,1,13.079-.683c51.9,0,70.315,35.562,60.206,101.425q54.589,50.815,0,156.475C203.994,362.52,177.7,405.219,114.248,405.219Z" transform="translate(1026.827 213.533)" fill="#2facb2"/><path d="M104.054,23.551c-1.161-.854-2.345-1.7-3.529-2.538,1.2-.148,2.368-.273,3.529-.387Z" transform="translate(1043.783 214.156)" fill="#2f9c7c"/><path d="M111.354,339.978,74.187,299.169,86.572,257.46q11.167-8.162,22.038-16.494l43.905-18.134-39.921,38.646H98.969l2.47,26.546,11.156,26.011-1.241,25.943ZM377.53,42.463V27.722l.182.125V42.236Z" transform="translate(770.308 287.846)" fill="#2facb2"/><path d="M77.211,271.358c61.6-47.116,116.246-97.726,160.915-153.356l14.924-7.6L250.2,102.52A609.049,609.049,0,0,0,300.472,24.8l45.659,33.319V72.855L330.4,92.822l-1.423-14.753L253.4,125.139,121.116,253.224,77.211,271.358Z" transform="translate(801.707 257.454)" fill="#2f9c7c"/><path d="M91.347,47.1q6.164-7.667,12.078-15.481l2.846,7.877Z" transform="translate(948.485 328.352)" fill="#2c926b"/><path d="M109.656,214.078l-9.653-100a58.633,58.633,0,0,0,9.471-32.067V29.225l.182-.228V214.078Z" transform="translate(1038.363 301.085)" fill="#209ea4"/><path d="M105.714,113.868,99.453,48.983l15.732-19.966V81.8a58.633,58.633,0,0,1-9.471,32.067Z" transform="translate(1032.652 301.293)" fill="#218e72"/><path d="M102.113,240.76,78.47,179.711l23.643,5.578ZM54.872,84.319,38.924,47.9,68.851,70.3Z" transform="translate(404.161 497.402)" fill="#2facb2"/><path d="M87.566,164.865l-23.643-5.578L49.158,121.153v-37.1L40.325,63.9,54.3,49.871,75.181,65.477l12.385,51.35v48.038Z" transform="translate(418.708 517.826)" fill="#209ea4"/><path d="M76.84,63.563,22.507,46.089l4.77-1.377Z" transform="translate(233.698 464.259)" fill="#42bcc2"/><path d="M242.966,129.563,80.663,86.387l-63.895-5.76L82.1,61.571l54.333,17.473,89.188,33.922,55.755-69.746Z" transform="translate(174.108 448.777)" fill="#2facb2"/><path d="M95.147,128.325l-79.3-73.172,90.372,49.631L165.246,86.81l9.812,4.622Z" transform="translate(164.586 572.671)" fill="#2facb2"/><path d="M38.787,78.743l-9.812-4.622,58.26-17.747L38.787,78.743Z" transform="translate(300.857 585.36)" fill="#209ea4"/><path d="M70.7,180.859Q146.5,63.315,244.755,28.049L233.7,43.439C174.213,75.506,119.4,120.049,70.7,180.859Z" transform="translate(734.143 291.242)" fill="#41aa87"/><path d="M85.023,54.632l11.053-15.39a254.925,254.925,0,0,1,48.948-12.271,536.275,536.275,0,0,0-60,27.661Z" transform="translate(882.821 280.048)" fill="#3fa074"/><path d="M96.4,72.747,56.965,51.824a547.069,547.069,0,0,0,66.069,20.023l-26.637.9Z" transform="translate(591.486 538.105)" fill="#42bcc2"/><path d="M221.992,75.132,80.7,65.24,60.429,54.482l26.637-.9c40.969,9.835,86.354,16.756,134.926,21.549Z" transform="translate(627.454 556.369)" fill="#2facb2"/><path d="M92.689,84.931l-37.656-27.4-.6-6.784Q68.21,57.3,83.287,63.007l39.432,20.923Z" transform="translate(565.164 526.922)" fill="#2facb2"/><path d="M186.467,120.541l-40.832-2.857-9.471-6.9,30.029-1ZM98.508,83.386,55.149,51.831A287.891,287.891,0,0,0,97.9,76.6ZM55.149,51.831c-1.662-1.172-3.29-2.368-4.906-3.574Z" transform="translate(521.689 501.068)" fill="#209ea4"/><path d="M166.227,132.73,86.908,97.18,84.461,69.553,53.145,48.186l-2.14-5.271L145.156,99.7,241.8,69.553l-73.1,34.161,95.4-14.161Z" transform="translate(529.602 445.61)" fill="#42bcc2"/><path d="M84.956,92.373,67.938,84.746,51.193,43.379,82.508,64.745Z" transform="translate(531.554 450.418)" fill="#2facb2"/><path d="M47.613,41.5C14.1,50.287-2.746,96.765,9.98,145.315S60.2,226.091,93.716,217.3s50.348-55.266,37.622-103.8S81.126,32.711,47.613,41.5Z" transform="translate(59.538 415.906)" fill="#0e9ead"/><path d="M42.773,43.153C13.336,50.871-2.054,89.449,8.4,129.325s42.8,65.944,72.239,58.226,44.839-46.307,34.378-86.183-42.8-65.944-72.239-58.214Z" transform="translate(53.177 433.979)" fill="#46c9cc"/><path d="M51.644,41.915,4.267,54.334c74.265,1.332,96.929,107.6,37.872,144.4l47.366-12.419c32.112-55.073,24.1-103.918-37.861-144.4Z" transform="translate(44.306 435.217)" fill="#46c9cc"/><path d="M40.948,43.176c-29.437,7.718-44.236,48.55-33.057,91.2s44.122,70.964,73.559,63.246,44.247-48.55,33.057-91.2S70.4,35.458,40.948,43.176Z" transform="translate(43.209 435.14)" fill="#dd5d05"/><path d="M50.6,42.019,3.232,54.438c74.618,2.686,99.194,116.269,40.5,154.449L91.1,196.468C122.415,138.356,113.525,86.186,50.6,42.019Z" transform="translate(33.559 436.297)" fill="#dd5d05"/><path d="M36.791,44.267C7.354,51.985-7.456,92.816,3.734,135.47s44.11,70.964,73.559,63.246,44.236-48.55,33.057-91.2S66.229,36.549,36.791,44.267Z" transform="translate(0 446.468)" fill="#ff7715"/><path d="M91.35,35.668,23.79,29.475V64.16l52.363,4.952V90.182l34.435-6.671L93.24,124.867l59.466-41.356L158.9,67.882l-40.877,9.289Z" transform="translate(247.019 306.048)" fill="#dcfeff"/><path d="M78.42,63.611,40.013,30.781V50.6L70.987,69.951,178.764,106.81l-35.926,20.6,3.722,23.814,112.729,62.6L195.281,106.81,78.42,63.611Z" transform="translate(415.468 319.609)" fill="#dcfeff"/><path d="M161.841,112.2,70.16,198.3l50.792-27.878-44.6,74.515,50.792-20L308.026,27.951,160.6,158.04Z" transform="translate(728.494 290.224)" fill="#dcfeff"/></g></g></svg>