<svg xmlns="http://www.w3.org/2000/svg" xmlns:xlink="http://www.w3.org/1999/xlink" width="1447.16" height="745" viewBox="0 0 1447.16 745"><defs><clipPath id="a"><rect x="37" y="38" width="1447.16" height="745" fill="none"/></clipPath><clipPath id="b"><rect width="634.776" height="647.556" fill="none"/></clipPath><filter id="c" x="634.958" y="80.076" width="210.073" height="365.519" filterUnits="userSpaceOnUse"><feOffset dy="3" input="SourceAlpha"/><feGaussianBlur stdDeviation="4" result="d"/><feFlood flood-color="#141414"/><feComposite operator="in" in2="d"/><feComposite in="SourceGraphic"/></filter><filter id="e" x="794.843" y="235.227" width="217.514" height="367.923" filterUnits="userSpaceOnUse"><feOffset dy="3" input="SourceAlpha"/><feGaussianBlur stdDeviation="4" result="f"/><feFlood flood-color="#141414"/><feComposite operator="in" in2="f"/><feComposite in="SourceGraphic"/></filter><filter id="g" x="946.964" y="44.657" width="249.137" height="379.516" filterUnits="userSpaceOnUse"><feOffset dy="3" input="SourceAlpha"/><feGaussianBlur stdDeviation="4" result="h"/><feFlood flood-color="#141414"/><feComposite operator="in" in2="h"/><feComposite in="SourceGraphic"/></filter><filter id="i" x="1108.604" y="239.122" width="200.574" height="362.941" filterUnits="userSpaceOnUse"><feOffset dy="3" input="SourceAlpha"/><feGaussianBlur stdDeviation="4" result="j"/><feFlood flood-color="#141414"/><feComposite operator="in" in2="j"/><feComposite in="SourceGraphic"/></filter></defs><g transform="translate(-37 -38)" clip-path="url(#a)" style="isolation:isolate"><g transform="translate(-13104.701 -13933.863)"><g transform="translate(13622.291 14101.344)"><path d="M848.911,21.208a5360.909,5360.909,0,0,0-808.827,0c-5.4.4-11.245,5.531-12.942,11.419A712.659,712.659,0,0,0,8.422,116.583c-.947,5.888,3.012,10.518,8.73,10.331q47.352-1.608,94.7-2.859c13.616-.373,11.246,20.4-1.4,20.647q-47.9.979-95.8,2.253A12.389,12.389,0,0,0,3.116,157.925a663.56,663.56,0,0,0,1.56,142.853c.7,5.9,6,10.844,11.724,11.015q35.592,1.142,71.183,2.082c9.809.249,13.393,10.735,10.241,16.623-3.967,7.364-9.117,2.439-78.5,1.352-5.689-.217-9.52,4.381-8.444,10.269a719.186,719.186,0,0,0,18.757,78.037c1.774,5.9,7.653,11.046,13.017,11.466a5082.327,5082.327,0,0,0,803.677.016c5.367-.435,11.243-5.577,13.017-11.466a720.327,720.327,0,0,0,18.757-78.053c1.077-5.888-2.755-10.487-8.445-10.269l-4.939.186c-7.177.28-9.416-6.2-7.56-11.885,2.726-8.374,10.842-8.343,14.128-8.312a7.236,7.236,0,0,0,1.3-.031c5.721-.186,11.021-5.127,11.725-11.031q2.423-20.391,3.59-40.766a9.847,9.847,0,0,0-9.973-10.58q-32.763.3-65.528.575c-13.875.124-12.876-20.461-.122-20.476q33.08-.07,66.158-.155a10.638,10.638,0,0,0,10.539-10.7q-.485-93.029-27.129-186.043c-1.7-5.888-7.541-11.015-12.942-11.419Z" transform="translate(0 3.284)" fill="#662f14"/><path d="M202.148,88.707A315.589,315.589,0,0,0,122.192,79.2c.536,5.624-3.344,12.367-10.626,12.538q-47.742,1.142-95.484,2.61a12.544,12.544,0,0,0-11.658,10.72A663.412,663.412,0,0,0,2.942,243.958,12.15,12.15,0,0,0,14.42,254.631q35.753.909,71.51,1.693a11.077,11.077,0,0,1,9.916,16.126c254.282,20.166,507.578,9.042,763.43-9.772a11.191,11.191,0,0,1,10.831-7.939c1.484-.031,2.969-.078,4.452-.109a12.147,12.147,0,0,0,11.478-10.673q1.869-19.808,2.55-39.632a10.052,10.052,0,0,0-10.232-10.347q-32.8.14-65.594.264c-6.95.031-10.262-4.956-10.238-9.943s3.375-9.974,9.75-9.959q33.079.07,66.157.155a10.173,10.173,0,0,0,10.318-10.362,670.773,670.773,0,0,0-7.527-83.879C844.37,81.514,807.753,85.8,770.843,90.462,583.215,117,393.732,130.934,202.148,88.707Z" transform="translate(0 43.838)" fill="#dfa164"/><g transform="translate(0)"><path d="M2.024,185.277v-.016l0-.047v.016a.124.124,0,0,0,0,.031Z" transform="translate(1.118 102.534)" fill="#efd6c2"/><path d="M3.13,189.265a11.085,11.085,0,0,1-1.092-3.822A11.117,11.117,0,0,0,3.13,189.265Zm880.91-.948h0Zm.023-.062s0,0,0-.016C884.066,188.255,884.064,188.255,884.063,188.255Zm.022-.062s0,0,.007-.016C884.089,188.193,884.088,188.193,884.085,188.193Zm.022-.047c0-.016.007-.016.01-.031C884.114,188.131,884.109,188.131,884.107,188.147Zm.022-.062c0-.016.007-.031.012-.031C884.136,188.069,884.131,188.069,884.128,188.084Zm.022-.062c0-.016.007-.031.012-.031S884.155,188.007,884.15,188.022Zm.02-.062c0-.016.009-.031.013-.031S884.175,187.945,884.171,187.96Zm.022-.062.013-.047Zm.019-.062c.006-.016.012-.031.016-.047C884.223,187.8,884.217,187.82,884.211,187.836Zm.02-.062.017-.047Zm.02-.062.018-.047ZM2.033,185.4v-.016c-.016-.155-.031-.311-.045-.466C2,185.07,2.019,185.226,2.033,185.4Z" transform="translate(1.101 102.368)" fill="#874923"/><path d="M608.849,186.779c0-.016,0-.047.008-.078.137-1.352.27-2.719.4-4.086-.127,1.367-.261,2.734-.4,4.086C608.854,186.732,608.852,186.763,608.849,186.779Z" transform="translate(276.997 101.095)" fill="#efd6c2"/><path d="M884.339,188.047a10.8,10.8,0,0,0,.444-2.16A10.807,10.807,0,0,1,884.339,188.047ZM2,185.079c-.01-.109-.02-.218-.029-.326C1.978,184.862,1.988,184.971,2,185.079Zm-.051-.559c-.009-.093-.019-.186-.028-.3Z" transform="translate(1.063 101.986)" fill="#874923"/><path d="M1.891,183.921s0,0,0-.016Z" transform="translate(1.046 101.809)" fill="#efd6c2"/><path d="M1.912,184.149c-.006-.078-.014-.14-.02-.218l0-.016a.181.181,0,0,1,0-.031C1.895,183.978,1.9,184.056,1.912,184.149Z" transform="translate(1.045 101.798)" fill="#874923"/><path d="M1.864,183.658c0-.031,0-.062-.008-.093C1.859,183.6,1.861,183.627,1.864,183.658Z" transform="translate(1.028 101.621)" fill="#efd6c2"/><path d="M1.876,183.773c0-.047-.006-.078-.011-.109s0-.062-.008-.093c0,0,0-.016,0-.016C1.862,183.617,1.87,183.695,1.876,183.773Z" transform="translate(1.027 101.615)" fill="#874923"/><path d="M1.832,183.334c0-.047-.006-.078-.009-.109C1.826,183.256,1.829,183.287,1.832,183.334Z" transform="translate(1.009 101.432)" fill="#efd6c2"/><path d="M1.841,183.423a.644.644,0,0,0-.008-.078c0-.047-.006-.078-.009-.109,0-.016,0-.016,0-.031.006.078.012.14.019.217Z" transform="translate(1.009 101.421)" fill="#874923"/><path d="M1.8,183.015c0-.047-.008-.093-.012-.14C1.795,182.922,1.8,182.968,1.8,183.015Z" transform="translate(0.991 101.239)" fill="#efd6c2"/><path d="M1.809,183.077c0-.016,0-.047-.006-.062,0-.047-.008-.093-.012-.14h0l.02.2Z" transform="translate(0.991 101.239)" fill="#874923"/><path d="M1.77,182.654c0-.031-.008-.078-.012-.109C1.763,182.576,1.766,182.623,1.77,182.654Z" transform="translate(0.973 101.056)" fill="#efd6c2"/><path d="M1.776,182.727c0-.016,0-.031,0-.062s-.008-.078-.012-.109a.209.209,0,0,0,0-.031c.006.078.012.14.019.2Z" transform="translate(0.973 101.045)" fill="#874923"/><path d="M1.745,182.4c0-.016,0-.047-.006-.078s-.008-.078-.012-.124l0-.016C1.731,182.263,1.739,182.34,1.745,182.4Z" transform="translate(0.955 100.857)" fill="#874923"/><path d="M1.706,181.995c0-.047-.008-.093-.011-.14C1.7,181.9,1.7,181.948,1.706,181.995Z" transform="translate(0.939 100.674)" fill="#efd6c2"/><path d="M1.715,182.063c0-.016,0-.047-.008-.062,0-.047-.008-.093-.011-.14,0,0,0-.016,0-.016l.022.218Z" transform="translate(0.938 100.669)" fill="#874923"/><path d="M1.675,181.639c0-.031-.008-.078-.012-.124Z" transform="translate(0.921 100.486)" fill="#efd6c2"/><path d="M1.682,181.723c0-.031,0-.047-.006-.078l-.012-.124c0-.016,0-.016,0-.016C1.668,181.567,1.676,181.645,1.682,181.723Z" transform="translate(0.92 100.48)" fill="#874923"/><path d="M1.644,181.3c0-.031-.008-.078-.012-.124Z" transform="translate(0.904 100.298)" fill="#efd6c2"/><path d="M1.653,181.388a.643.643,0,0,1-.008-.078l-.012-.124a.092.092,0,0,0,0-.031l.023.233Z" transform="translate(0.903 100.287)" fill="#874923"/><path d="M1.612,180.954c0-.031-.006-.078-.009-.109C1.606,180.876,1.609,180.907,1.612,180.954Z" transform="translate(0.888 100.115)" fill="#efd6c2"/><path d="M1.622,181.069c0-.031,0-.062-.008-.093,0-.047-.006-.078-.009-.109,0-.016,0-.031-.006-.062C1.607,180.9,1.615,180.976,1.622,181.069Z" transform="translate(0.885 100.093)" fill="#874923"/><path d="M1.58,180.582l0-.047Z" transform="translate(0.872 99.943)" fill="#efd6c2"/><path d="M1.675,181.687c0-.047-.006-.078-.009-.109l0-.047c0-.031-.006-.078-.009-.109.008.093.016.171.023.264Zm-.048-.544c-.006-.078-.014-.155-.022-.249C1.613,180.988,1.619,181.065,1.627,181.143Zm-.047-.528c-.008-.093-.014-.171-.022-.249C1.567,180.444,1.573,180.522,1.581,180.615Zm-.045-.528c-.008-.078-.016-.171-.023-.264C1.52,179.916,1.528,180.009,1.536,180.087Zm-.047-.528c-.008-.093-.016-.186-.025-.28C1.473,179.372,1.481,179.465,1.489,179.558Zm-.045-.528c-.008-.093-.016-.2-.025-.3C1.428,178.828,1.436,178.937,1.444,179.03Z" transform="translate(0.786 98.947)" fill="#874923"/><path d="M1.408,178.613c0-.031,0-.047-.006-.078l.006.062Z" transform="translate(0.776 98.836)" fill="#efd6c2"/><path d="M1.415,178.686l-.006-.062c-.006-.078-.014-.171-.02-.249C1.4,178.468,1.406,178.577,1.415,178.686Z" transform="translate(0.769 98.748)" fill="#874923"/><path d="M1.38,178.273c0-.031,0-.047-.006-.078l0,.047c0,.016,0,.016,0,.031Z" transform="translate(0.761 98.648)" fill="#efd6c2"/><path d="M1.387,178.341l0-.047-.023-.28.028.326Z" transform="translate(0.753 98.548)" fill="#874923"/><path d="M1.364,178.077c0-.031,0-.062-.008-.093l0,.047C1.361,178.046,1.363,178.061,1.364,178.077Zm-.037-.466s0-.016,0-.016S1.326,177.611,1.327,177.611Z" transform="translate(0.733 98.316)" fill="#efd6c2"/><path d="M1.36,178.024l0-.047c-.009-.124-.02-.249-.03-.373.011.14.022.28.034.419Z" transform="translate(0.734 98.321)" fill="#874923"/><path d="M1.4,178.528c0-.031,0-.062-.008-.093l0,.047C1.4,178.5,1.4,178.513,1.4,178.528Zm-.037-.451-.014-.186,0,.031c0,.047.006.093.009.124,0,.016,0,.016,0,.031Zm-.04-.513-.019-.233c0,.031,0,.047,0,.062,0,.031.006.062.009.109,0,.016,0,.031,0,.062Zm-.044-.544c0-.078-.011-.155-.017-.217l0,.047c0,.031,0,.062.006.093s0,.047.006.078Zm-.042-.528c0-.078-.011-.155-.017-.233,0,.016,0,.031,0,.047,0,.031,0,.062.008.093s0,.062.006.093Zm-.042-.544c0-.047-.006-.078-.009-.124l0,.031c0,.031,0,.062.006.093Z" transform="translate(0.656 97.336)" fill="#efd6c2"/><path d="M1.394,178.471l0-.047c-.009-.124-.019-.249-.03-.357,0-.016,0-.016,0-.031.012.14.023.3.036.435Zm-.045-.559,0-.031c-.009-.109-.019-.217-.026-.326,0-.031,0-.047,0-.062C1.326,177.632,1.337,177.771,1.349,177.911Zm-.044-.528c0-.016,0-.031,0-.062-.008-.109-.016-.2-.025-.311,0-.031,0-.047-.006-.078C1.282,177.088,1.295,177.228,1.306,177.383Zm-.042-.544,0-.047c-.008-.109-.016-.217-.025-.311,0-.031,0-.062-.006-.093C1.239,176.544,1.251,176.684,1.264,176.839ZM1.22,176.3c0-.016,0-.031,0-.047-.008-.109-.016-.2-.025-.311,0-.031,0-.062-.006-.093C1.2,176,1.209,176.14,1.22,176.3Z" transform="translate(0.657 97.347)" fill="#874923"/><path d="M1.213,176.2c0-.031-.006-.062-.008-.093,0,.016,0,.031,0,.047Zm-.031-.388c-.006-.078-.012-.171-.019-.249,0,.031,0,.047.006.078,0,.016,0,.031,0,.047C1.176,175.715,1.179,175.762,1.182,175.809Zm-.04-.544c0-.047-.008-.093-.011-.14v.016C1.134,175.172,1.139,175.218,1.142,175.265Z" transform="translate(0.626 96.948)" fill="#efd6c2"/><path d="M1.209,176.145c0-.016,0-.031,0-.047-.008-.093-.016-.2-.023-.3,0-.047-.006-.093-.009-.124C1.185,175.834,1.2,175.99,1.209,176.145Zm-.039-.513c0-.031,0-.047-.006-.078-.008-.093-.016-.2-.022-.3,0-.047-.008-.093-.011-.124C1.145,175.29,1.156,175.461,1.17,175.632Z" transform="translate(0.626 96.954)" fill="#874923"/><path d="M1.132,175.137c0-.016,0-.047,0-.062l0,.047Z" transform="translate(0.624 96.921)" fill="#efd6c2"/><path d="M1.158,175.481l0-.047c-.011-.155-.023-.311-.034-.466C1.132,175.14,1.144,175.311,1.158,175.481Zm-.04-.513c-.012-.186-.026-.357-.039-.544C1.091,174.611,1.105,174.782,1.118,174.969Z" transform="translate(0.598 96.561)" fill="#874923"/><path d="M1.67,190.043c-.008-.093-.016-.186-.022-.28C1.654,189.856,1.662,189.95,1.67,190.043Zm-.036-.466c-.008-.124-.017-.249-.025-.357C1.617,189.328,1.626,189.452,1.634,189.577Zm-.039-.559c-.009-.109-.017-.233-.026-.357C1.578,188.784,1.586,188.909,1.595,189.017Zm-.037-.513c-.009-.14-.019-.264-.028-.388C1.539,188.241,1.548,188.365,1.558,188.5Zm-.039-.544c-.009-.14-.019-.28-.03-.419C1.5,187.681,1.51,187.821,1.519,187.961Zm-.036-.513c-.011-.155-.02-.3-.031-.451C1.463,187.138,1.472,187.293,1.483,187.448Zm-.039-.575-.028-.419Zm-.037-.544c-.009-.155-.019-.3-.03-.435C1.388,186.035,1.4,186.174,1.407,186.33Zm-.036-.544c-.011-.155-.022-.326-.033-.482C1.35,185.46,1.36,185.631,1.371,185.786Zm-.036-.528c-.011-.186-.023-.357-.034-.528C1.312,184.9,1.325,185.071,1.336,185.258Zm-.036-.544Q.328,169.706.082,154.7c0,.124,0,.249.006.373,0,.031,0,.078,0,.109,0,.171,0,.326.008.5,0,.031,0,.047,0,.078.006.311.012.621.019.948,0,.047,0,.093,0,.155l.009.466c0,.062,0,.124,0,.171.006.28.011.544.017.808l0,.233c0,.124.006.264.009.4,0,.093,0,.2.008.3,0,.186.009.388.014.575,0,.124.006.264.009.388s.006.249.009.357c0,.124.006.233.009.342,0,.124.006.233.009.342,0,.218.011.419.017.621,0,.093,0,.2.008.3,0,.14.008.28.012.419,0,.109,0,.2.008.3.006.218.014.435.02.653l0,.186c.006.186.012.373.019.544,0,.078,0,.155.006.217.008.233.016.482.023.715a.208.208,0,0,0,0,.031c.008.233.016.466.023.715,0,.047,0,.093.006.14.017.513.034,1.01.053,1.507,0,.031,0,.062,0,.078q.319,8.529.87,17.058ZM.082,154.621c-.009-.5-.016-.994-.023-1.491l0,.28c0,.031,0,.062,0,.093q.007.559.017,1.119ZM.057,152.99c0-.249-.006-.482-.009-.73C.051,152.508.054,152.741.057,152.99Zm-.011-.839c0-.2,0-.4-.008-.606,0,.078,0,.155,0,.233v.031C.043,151.918.045,152.042.046,152.151Zm-.009-.792c0-.217,0-.435-.006-.652C.032,150.923.035,151.141.037,151.358Zm-.009-.9,0-.466Zm-.006-.73c0-.2,0-.388,0-.59C.018,149.339.02,149.525.021,149.727Zm-.008-.932c0-.109,0-.217,0-.326C.013,148.577.013,148.686.013,148.795Zm0-.963c0-.078,0-.155,0-.233C.007,147.676.007,147.754.009,147.832Zm0-.668c0-.062,0-.109,0-.171C0,147.055,0,147.1.006,147.164Zm0-1.01v0Z" transform="translate(0.001 80.85)" fill="#efd6c2"/><path d="M1.661,188.093c0-.031,0-.062-.006-.093-.008-.093-.016-.186-.022-.28l-.014-.186c-.008-.124-.017-.249-.025-.357,0-.062-.009-.124-.014-.2-.009-.109-.017-.233-.026-.357,0-.062-.008-.109-.011-.155-.009-.14-.019-.264-.028-.388,0-.062-.006-.109-.011-.155-.009-.14-.019-.28-.03-.419,0-.031,0-.062-.006-.093-.011-.155-.02-.311-.031-.451,0-.047,0-.078-.008-.124l-.028-.419c0-.047-.006-.093-.009-.124-.009-.155-.019-.3-.03-.435,0-.031,0-.078-.006-.109-.011-.155-.022-.326-.033-.482,0-.016,0-.031,0-.047-.011-.186-.023-.357-.034-.528,0-.016,0-.016,0-.016q-.552-8.529-.87-17.058c0,.062,0,.124.006.171,0,.093.006.171.009.249.009.217.017.419.025.637,0,.124.009.233.014.357,0,.109.009.217.014.342,0,.14.011.28.017.419,0,.124.009.249.016.373.006.171.014.357.022.528,0,.093.006.171.011.249.009.217.017.435.026.637,0,.016,0,.031,0,.047q.4,9.228,1.083,18.472ZM.412,165.535c-.019-.5-.036-.994-.053-1.507,0,.062,0,.109,0,.171l0,.093c.009.3.02.59.031.87,0,.062,0,.124.006.186s0,.124.006.186Zm-.059-1.647c-.008-.249-.016-.482-.023-.715,0,.155.011.326.016.482a.208.208,0,0,1,0,.031C.349,163.748.352,163.811.353,163.888Zm-.025-.746c-.008-.233-.016-.482-.023-.715C.313,162.661.321,162.91.328,163.143ZM.3,162.21c-.006-.171-.012-.357-.019-.544C.286,161.853.293,162.04.3,162.21Zm-.023-.73c-.006-.217-.014-.435-.02-.653C.262,161.045.269,161.263.276,161.48Zm-.028-.948c0-.14-.009-.28-.012-.419C.238,160.253.243,160.393.248,160.533Zm-.02-.715c-.006-.2-.012-.4-.017-.621,0,.217.011.419.017.621ZM.2,158.855c0-.109-.006-.218-.009-.342C.195,158.637.2,158.746.2,158.855Zm-.019-.7c0-.124-.006-.264-.009-.388C.176,157.891.179,158.031.182,158.156Zm-.023-.963c0-.093,0-.2-.008-.3C.154,156.99.156,157.1.159,157.192Zm-.017-.7,0-.233ZM.12,155.452c0-.047,0-.109,0-.171C.117,155.344.119,155.406.12,155.452Zm-.012-.637c0-.062,0-.109,0-.155C.1,154.707.106,154.753.108,154.815Zm-.022-1.1c0-.031,0-.047,0-.078C.086,153.666.086,153.681.086,153.712Zm-.009-.575c0-.031,0-.078,0-.109C.075,153.06.075,153.106.077,153.137ZM.05,151.46c0-.031,0-.062,0-.093C.049,151.4.049,151.428.05,151.46Zm-.023-1.693v0Z" transform="translate(0.015 82.893)" fill="#874923"/><path d="M310.014,96.393q-10.5-1.328-21-2.828c-51.91,7.628-186.127,4.77-285.572,2.983-.034.186-.061.373-.085.559-.309,2.517-.6,5.018-.882,7.535,66.251,1.383,138.592,2.61,191.507,1.958C269.942,105.668,298.66,101.069,310.014,96.393Z" transform="translate(1.369 51.797)" fill="#ce7f42"/><path d="M654.183,94.1c-26.15-2.967-58.5-6.494-92.327-9.726q-13.992,1.538-28.014,3.216c-3.876.5-7.752.979-11.63,1.476,47.728,4.055,96.48,9.135,133.025,13.128-.334-2.7-.684-5.391-1.053-8.094Z" transform="translate(229.034 46.71)" fill="#ce7f42"/><path d="M457.259,95.875q-13.959,1.352-27.931,2.563c60.032,13.8,183.863,21.067,280.14,25.261q-.315-4.032-.685-8.063C614.028,111.131,516.424,104.653,457.259,95.875Z" transform="translate(177.615 53.076)" fill="#ce7f42"/><path d="M418.2,152.486c-.6-.016-1.2-.016-1.807-.031C417,152.471,417.6,152.471,418.2,152.486Z" transform="translate(189.416 84.398)" fill="#ce7f42"/><path d="M373.094,151.775h0Z" transform="translate(169.786 84.022)" fill="#ce7f42"/><path d="M372.47,151.765h0Z" transform="translate(169.472 84.016)" fill="#ce7f42"/><path d="M373.4,151.781c-.359,0-.646-.016-.859-.016C372.755,151.765,373.043,151.781,373.4,151.781Z" transform="translate(169.501 84.016)" fill="#ce7f42"/><path d="M372.559,151.765h0Z" transform="translate(169.489 84.016)" fill="#ce7f42"/><path d="M372.486,151.765h0Z" transform="translate(169.399 84.016)" fill="#ce7f42"/><path d="M.16,138.19C.082,141.7.032,145.2.009,148.708c81.3-8.5,167.639-2.066,243.788,9.151,436.7,8.079,422.049,7.317,364.75,6.541,51.718.823,138.452,2.3,276.913,3.884a10.36,10.36,0,0,0-7.317-2.967q-32.79.14-65.578.264c-7,.031-10.261-4.971-10.228-9.974-186.3-8.762-376.6-13.843-557.322-15.132C167.465,130.515,81.435,126.305.16,138.19Z" transform="translate(0.005 72.501)" fill="#ce7f42"/><path d="M372.281,151.765h0Z" transform="translate(169.388 84.016)" fill="#ce7f42"/><path d="M372.549,151.765h0Z" transform="translate(169.525 84.016)" fill="#ce7f42"/><path d="M418.669,152.491c-.371,0-.741-.016-1.109-.016C417.93,152.475,418.3,152.491,418.669,152.491Z" transform="translate(189.975 84.409)" fill="#ce7f42"/><path d="M417.921,152.477c-1.453-.016-2.877-.047-4.275-.062C415.087,152.431,416.515,152.462,417.921,152.477Z" transform="translate(188.057 84.376)" fill="#ce7f42"/><path d="M413.656,152.415h0Z" transform="translate(188.232 84.376)" fill="#ce7f42"/><path d="M436.065,152.769c-39.839-.621-58.129-.917-62.972-.994C379.823,151.884,410.285,152.365,436.065,152.769Z" transform="translate(167.169 84.022)" fill="#ce7f42"/><path d="M171.852,183.2A474.354,474.354,0,0,1,2.773,196.914a12.363,12.363,0,0,0,3.446,4.241,475.732,475.732,0,0,0,166.825-13.92c114.329-30.28,515.545,5.282,696.307,16.592,1.077-.031,2.156-.047,3.235-.078a11.9,11.9,0,0,0,7.627-3.185c-176.18-11.077-591.129-48.472-708.362-17.369Z" transform="translate(1.535 94.719)" fill="#ce7f42"/><path d="M258.435,196.264c-10.084-18.705,144.518-1.709,165.321.528,20.27.808,95.044,4.878,110.274,17.027C514.657,225.114,269.918,217.455,258.435,196.264Zm280.125,18.55a3.315,3.315,0,0,0-1.069-3.791c-16.359-14.9-108.239-18.239-113.238-18.472-16.31-1.756-157.823-18.022-169.478-.87-13.549,20.476,93.969,29.643,176.768,31.025q49.861-1.515,99.8-3.791c5.525-1.336,6.705-2.781,7.218-4.1Z" transform="translate(104.65 101.801)" fill="#ce7f42"/><path d="M834.321,80.779c-108.522,8.374-170.341,28.8-374.616,36.37-58.432,3.418-106.343.544-155.265-2.828-137.964-14.6-151.313-32.377-220.5-34.583.027-.233.055-.451.082-.684,42.491-1.8,79.845,7.628,136.153,17.074,54.627,9.166,127.094,18.317,239.4,17.2,147.077-.28,260.326-33.511,374.607-33.185.049.2.1.419.144.637Z" transform="translate(46.467 43.641)" fill="#662f14"/><path d="M842.006,15.917a5066.41,5066.41,0,0,0-802.562,0c-5.357.435-11.184,5.438-12.911,11.17A719.5,719.5,0,0,0,7.124,108.713c-1.016,5.733,2.859,10.207,8.547,9.99q47.1-1.794,94.194-3.2c5.809-.171,8.6,3.371,9,7.535a314.746,314.746,0,0,1,79.846,9.508c191.32,42.227,380.545,28.291,567.916,1.756,36.86-4.661,73.426-8.949,110.227-10.207a715.322,715.322,0,0,0-21.941-97.006c-1.725-5.733-7.553-10.735-12.911-11.17Z" transform="translate(3.855 0)" fill="#dfa164"/><path d="M600.932,55.919s0-.016,0-.016S600.93,55.919,600.932,55.919Zm-.385-1.662c-.009-.031-.019-.078-.028-.109C600.528,54.179,600.537,54.226,600.547,54.257Zm-.132-.559c-.019-.078-.036-.155-.054-.233C600.377,53.542,600.4,53.62,600.414,53.7Zm-.151-.653c-.025-.109-.05-.2-.073-.311C600.214,52.843,600.239,52.936,600.264,53.045Zm-.2-.839c-.034-.14-.067-.3-.1-.435C600,51.911,600.031,52.066,600.065,52.206Zm-.168-.715c-.036-.14-.07-.3-.106-.435C599.827,51.2,599.862,51.352,599.9,51.491Zm-.162-.668c-.047-.2-.095-.4-.141-.606C599.641,50.42,599.689,50.621,599.736,50.823Zm-.161-.684c-.057-.233-.113-.482-.171-.715C599.461,49.658,599.517,49.907,599.574,50.14Zm-.2-.823c-.051-.2-.1-.419-.152-.621C599.277,48.9,599.329,49.114,599.378,49.316Z" transform="translate(271.669 26.957)" fill="#7a3e1d"/><path d="M603.7,64.592l-.026-.109C603.686,64.515,603.7,64.561,603.7,64.592ZM603.56,64c-.012-.047-.026-.109-.037-.155C603.535,63.893,603.548,63.955,603.56,64Zm-.154-.621c0-.031-.011-.047-.017-.078C603.4,63.334,603.4,63.349,603.406,63.381Zm-.238-.979c-.02-.078-.039-.155-.059-.233C603.13,62.246,603.148,62.324,603.168,62.4Zm-.149-.606c-.025-.093-.05-.2-.075-.3C602.97,61.609,602.995,61.7,603.019,61.8Zm-.158-.637c-.03-.109-.059-.233-.087-.342C602.8,60.926,602.831,61.05,602.861,61.159Zm-.163-.653c-.053-.2-.106-.419-.158-.621C602.592,60.087,602.646,60.3,602.7,60.506Zm-.177-.7c-.05-.2-.1-.4-.151-.606C602.421,59.4,602.471,59.605,602.521,59.807Zm-.2-.792c-.045-.171-.087-.342-.132-.513C602.236,58.673,602.281,58.844,602.325,59.015Zm-.172-.684c-.05-.186-.1-.388-.149-.575C602.053,57.943,602.1,58.145,602.152,58.331Zm-.171-.668c-.123-.482-.242-.948-.365-1.429C601.739,56.716,601.86,57.182,601.982,57.663Zm-.368-1.429c-.059-.233-.12-.466-.179-.7C601.494,55.768,601.554,56,601.613,56.234Zm-.19-.746q-3.838-14.891-8.389-29.782c-.006-.016-.011-.031-.017-.047q-1.1-3.612-2.251-7.224Q596.65,36.962,601.424,55.488Z" transform="translate(266.986 10.206)" fill="#f6e7db"/><path d="M603.083,62.764q-4.8-19.832-10.867-39.679c.006.016.011.031.017.047q4.551,14.891,8.39,29.782c0,.016.008.031.011.047.059.233.12.466.179.7h0c.123.482.242.948.365,1.429.006.031.014.062.022.093.05.186.1.388.149.575.012.062.026.109.04.171.045.171.087.342.132.513.016.062.031.124.045.186.05.2.1.4.151.606a.584.584,0,0,1,.019.078c.053.2.106.419.159.621l.076.311c.028.109.057.233.087.342.028.124.056.233.084.342.025.093.05.2.075.3.029.124.061.249.09.373.02.078.039.155.059.233.075.311.148.606.221.9.006.031.012.047.017.078l.116.466c.011.047.025.109.037.155.039.171.078.326.118.482.008.031.019.078.027.109.061.249.12.5.18.746Z" transform="translate(267.788 12.78)" fill="#7a3e1d"/><path d="M12.119,63.554c.007-.047.016-.078.023-.109C12.135,63.477,12.126,63.508,12.119,63.554Zm.17-.746c.012-.047.023-.093.036-.155C12.312,62.716,12.3,62.762,12.289,62.809Zm.194-.839c.036-.155.074-.311.11-.466C12.557,61.659,12.519,61.814,12.483,61.97Zm.158-.668c.041-.171.08-.342.12-.528C12.721,60.96,12.682,61.131,12.641,61.3Zm.157-.668.13-.559Zm.141-.606c.13-.544.26-1.1.39-1.647C13.2,58.925,13.067,59.484,12.938,60.028Zm.468-1.973c.02-.093.042-.186.062-.264C13.448,57.868,13.427,57.962,13.406,58.055Zm.216-.9c0-.016,0-.016,0-.016S13.622,57.138,13.622,57.154ZM851.01,19.432c-.059-.2-.12-.4-.18-.606C850.89,19.028,850.951,19.23,851.01,19.432Zm-.222-.761c-.071-.233-.141-.466-.21-.7C850.648,18.205,850.717,18.438,850.788,18.671Zm-.21-.7a13.708,13.708,0,0,0-.551-1.507h0A13.146,13.146,0,0,1,850.578,17.972Z" transform="translate(6.709 9.115)" fill="#f6e7db"/><path d="M610.167,92.871C597.718,73.187,576.418,53.984,548.8,35.714c22.477-6.183,44.021-12.817,64.109-19.249a13.459,13.459,0,0,1,.589,1.507q.112.35.225.7c.016.047.029.093.045.155.064.2.129.4.193.606l.033.093q1.147,3.612,2.251,7.224,6.068,19.832,10.867,39.679c.008.031.017.078.025.109.051.2.1.419.152.621.008.047.017.078.025.109.057.233.113.482.171.715.006.031.012.047.02.078.047.2.095.4.141.606l.056.233c.036.14.07.3.106.435.022.093.044.186.067.28.034.14.067.3.1.435.042.171.084.357.126.528.023.109.048.2.073.311.031.14.064.28.1.419.019.078.036.155.054.233.036.14.07.3.1.451.009.031.019.078.028.109.127.544.255,1.1.381,1.647,0,0,0,.016,0,.016q2.137,9.3,4,18.6-10.913.326-22.675.513Z" transform="translate(243.755 9.115)" fill="#dc9b5e"/><path d="M27.182,19.365a16.685,16.685,0,0,0-5.63,7.721Q19.937,32.143,18.4,37.2c106.735,10.58,183.49-1.321,251.878-13.237,72.425-12.6,135.466-25.215,214.8-11.108C619.508,38.054,646.7,53.2,718.207,5.569q-14.059-.606-28.12-1.165C638.423,33.269,611.524,21.1,511.045.193Q402.665-.692,294.287,2.508c-64.449,12.429-143.1,24.158-267.1,16.857Z" transform="translate(10.186 0.001)" fill="#ce7f42"/><path d="M362.591,33.391h0l-.057-.016Z" transform="translate(164.979 18.476)" fill="#ce7f42"/><path d="M550.876,48.739c.355.14-35.108-14.076-91-24.174l-15.36-1.538c-54.961-4.661-108.482,6.09-171.141,16.841C203.351,51.893,121.921,63.9,14.33,54.41c-.351,1.429-.7,2.859-1.042,4.272C116.883,67.491,200.9,56.414,273.9,45.337c94.073-14.278,169.851-28.54,245.661-.249,1.768.59,29.923,9.9,30.265,10.005,97.2,27.716,212.821-6.572,299.487-36.292a17.505,17.505,0,0,0-5.117-6.556c-87.433,30.4-199.051,63.278-293.318,36.494Z" transform="translate(7.356 6.779)" fill="#ce7f42"/><path d="M315.524,104.475c1.136-2.781,1.2-7.084-4.9-11.761C276.623,66.412,118.9,63.911,7.834,68.23c-.236,1.212-.469,2.424-.7,3.651a8.81,8.81,0,0,0,.239,4.412c118.182-4.1,284.993-.761,300.168,25.526-2.321,2.843-9.721,5.034-21.017,6.712q10.5,1.491,21,2.828c6.225-2.532,7.255-5.065,8-6.882Z" transform="translate(3.855 36.832)" fill="#ce7f42"/><path d="M324.891,63.614C277.231,71.3,86.919,54,11.8,50.315c-.593,2.657-1.168,5.329-1.727,7.985C86.566,62.386,276.547,79.958,325.7,72c24.406-5.034,126.33-.419,242.32,4.195,105.877,4.21,223.471,8.42,304.533,5.3q-.69-3.938-1.428-7.877C793.345,76.151,679.425,72,575.267,67.855,456.147,63.1,349.8,58.347,324.891,63.614Z" transform="translate(5.577 27.854)" fill="#ce7f42"/><path d="M406.852,86.9c-4.184,8.529,9.825,15.614,35.326,21.486q13.971-1.212,27.93-2.563c-30.011-4.459-50.142-9.539-55.168-15.272,11.167-8.622,89.841-4.909,171.539,2.1,3.878-.5,7.756-.979,11.63-1.476q14.027-1.655,28.014-3.216C526.381,78.246,414.252,71.768,406.852,86.9Z" transform="translate(164.767 43.128)" fill="#ce7f42"/><path d="M868.713,208.729c-1.654.062-3.308.109-4.964.171-7.212.233-9.648-6.075-7.939-11.605-255.547,18.814-508.54,29.938-762.519,9.772a7.764,7.764,0,0,1-7.393,3.822q-35.787-.979-71.575-2.159a8.387,8.387,0,0,0-8.818,10.052,708.23,708.23,0,0,0,16.1,75.878c1.551,5.733,7.305,10.7,12.742,11.093a5763.073,5763.073,0,0,0,814.346,0c5.438-.388,11.191-5.36,12.742-11.093a707.524,707.524,0,0,0,16.1-75.878A8.387,8.387,0,0,0,868.713,208.729Z" transform="translate(2.979 109.222)" fill="#dfa164"/><path d="M15.009,255.251c-.367-1.429-.727-2.843-1.084-4.272.357,1.429.719,2.843,1.086,4.272Zm-1.173-4.63c-.014-.062-.03-.124-.043-.171C13.806,250.5,13.82,250.56,13.836,250.622Zm-.169-.684c-.006-.031-.014-.047-.022-.078C13.652,249.892,13.659,249.907,13.666,249.938Zm-.166-.668-.014-.047Zm-.168-.684s0,0,0-.016C13.329,248.587,13.331,248.587,13.332,248.587Zm-1.442-5.966c-.012-.047-.025-.109-.037-.155C11.866,242.512,11.878,242.574,11.891,242.621ZM11.745,242c-.022-.078-.042-.171-.064-.264C11.7,241.828,11.723,241.922,11.745,242Zm-.14-.59c-.031-.124-.061-.264-.09-.388C11.544,241.16,11.574,241.285,11.6,241.409Zm-.137-.59c-.039-.155-.076-.326-.115-.482C11.392,240.492,11.429,240.663,11.468,240.819Zm-.131-.544c-.494-2.128-.977-4.241-1.45-6.37.017.078.033.155.05.217.031.14.064.3.095.435.012.047.023.093.034.14.037.171.076.342.115.513,0,.031.009.047.014.078Q10.757,237.781,11.338,240.275Z" transform="translate(5.474 129.489)" fill="#f6e7db"/><path d="M14.992,255.174c-.367-1.429-.729-2.843-1.086-4.272-.03-.124-.059-.233-.089-.357-.016-.062-.03-.124-.043-.171l-.126-.513c-.008-.031-.014-.047-.022-.078-.048-.2-.1-.388-.144-.59l-.014-.047c-.051-.217-.1-.419-.154-.637,0,0,0,0,0-.016-.488-1.973-.968-3.962-1.437-5.95-.012-.047-.025-.109-.037-.155-.037-.155-.073-.311-.109-.466-.022-.078-.042-.171-.064-.264-.026-.109-.051-.217-.076-.326-.031-.124-.061-.249-.09-.388-.016-.062-.031-.124-.047-.2-.039-.155-.076-.326-.115-.482,0-.016-.009-.047-.016-.062q-.58-2.494-1.142-4.987,2.246,9.974,4.815,19.964h0m-4.827-20.041c-.039-.171-.078-.342-.115-.513C10.086,234.791,10.125,234.962,10.164,235.133Zm-.149-.653c-.031-.14-.064-.3-.095-.435C9.951,234.185,9.984,234.34,10.015,234.48Z" transform="translate(5.492 129.566)" fill="#7a3e1d"/><path d="M248.6,293.664c-38.08,0-86.6-32.75-117.444-39.865-6.409-1.507-16.389-2.113-28.5-2.113-24.58,0-57.936,2.486-87.992,4.894q-2.39-9.974-4.483-19.964c0-.031-.009-.047-.013-.078-.036-.171-.072-.342-.107-.513-.01-.047-.02-.093-.032-.14-.029-.14-.059-.3-.088-.435-.016-.062-.03-.14-.045-.217,42.468-1.678,87.587-3.729,116.189-3.729,11.681,0,20.615.342,25.477,1.2,31.62,5.484,27.616,31.911,73.1,31.911.816,0,1.653,0,2.5-.016,46.282-.994,96.717-27.67,124.7-27.67h.3c25.762.839,178.384,24.469,251.562,24.469a186.419,186.419,0,0,0,23.352-1.2,109.3,109.3,0,0,1,11.163-.5c44.683,0,135.613,18.519,188.093,28.275q-47.5,3.239-95,5.671c-85.539-10.813-210.045-28.54-312.977-28.54-60.34,0-113.27,6.09-146.581,23.257a48.744,48.744,0,0,1-23.172,5.3Z" transform="translate(5.475 128.16)" fill="#dc9b5e"/><path d="M411.67,233.284c51.662,10.937,110.6,23.879,159.27,11.869-6.046-.839,78.566-30.948,294.1,24.423q.532-2.191,1.048-4.381c-215.619-58.773-291.16-29.643-303.463-26.349-82.092,10.86-129.982-15.676-210.969-25.277C299.6,207.23,120.341,211.642,5.8,214.64c.4,2.5.813,5.018,1.242,7.519C329.284,217.825,344.631,217.561,411.67,233.284Z" transform="translate(3.21 116.438)" fill="#ce7f42"/><path d="M451.877,208.765a114.771,114.771,0,0,0,16.061-2.33q-49.936,2.26-99.8,3.791C405.078,210.894,437.253,210.133,451.877,208.765Z" transform="translate(163.262 114.281)" fill="#ce7f42"/><path d="M138.169,250.619c11.9,2.657,27.1,8.949,43.069,15.629,95.251,40.533,89.117,21.937,138.95,8.7,48.356-14.278,152.68-23.211,434.714,12.786q13.836-.606,27.671-1.274c-145.668-17.152-396.6-51.7-493.366-5.282C247.113,302,178.6,255.28,138.248,246.611c-20.841-4.6-76.9-.808-125.063,2.781q.52,2.027,1.053,4.055c47.914-3.527,103.758-7.286,123.93-2.828Z" transform="translate(7.299 135.348)" fill="#ce7f42"/><path d="M152.369,235.62c32.258,5.577,27.522,32.874,75.766,31.9,46.549-.994,97.294-27.871,125.274-27.67,29.052.948,219.082,30.746,275.522,23.273,38.747-4.008,142.224,17.121,199.7,27.778,5.563-.388,11.126-.761,16.689-1.165a13.394,13.394,0,0,0,7.03-2.905c-51.423-9.461-177.489-36.572-223.239-32.1-36.7,4.288-129.03-5.842-197.791-14.619-86.53-11.031-79.39-12.941-130.488,3.138-130.433,40.207-98.175-7.644-148.393-15.8-17.569-3-83.238.186-143.656,2.75q.781,3.962,1.608,7.954c59.944-2.361,125.171-5.469,141.981-2.532Z" transform="translate(4.861 125.242)" fill="#ce7f42"/><path d="M820.809,197.738C579.46,217.857,294.445,233.5,65.886,207.51c-.013-.217-.024-.435-.036-.652,301.945,13.376,455.772,9.213,755-9.772C820.839,197.3,820.825,197.52,820.809,197.738Z" transform="translate(36.454 109.105)" fill="#662f14"/><path d="M351.368,45.872c.073,5.08-20.324,9.12-45.55,9.182s-45.533-3.868-45.342-8.933c.193-5.049,20.594-9.337,45.558-9.415S351.3,40.807,351.368,45.872Z" transform="translate(115.813 20.319)" fill="#ce7f42"/><path d="M361.6,226.285c-2.253,0-4.533,0-6.792-.016-97.149-.435-189.48-12.009-269.33-30.062,17.13-2.486,34.962-5.9,53.433-10.471,34.908-8.654,94.878-11.932,167.2-11.932,105.64,0,237.664,6.976,356.713,14.4-22.563,6.106-46.39,11.636-71.285,16.468-31.877-4.956-70.995-6.385-74.209-6.541-10.777-1.165-76.236-8.654-122.76-8.654-23.879,0-42.766,1.973-46.718,7.783-8.925,13.5,34.675,22.077,89.141,26.753-24.682,1.492-49.861,2.268-75.39,2.268Zm106.05-4.505c-58.134-3.542-110.952-10.362-116.14-19.933-3.5-6.494,12.847-8.685,36.541-8.685,44.58,0,115.2,7.752,128.781,9.213,10.787.435,37.011,1.787,61.482,4.785C543.206,213.531,506.133,218.5,467.652,221.78Z" transform="translate(47.322 96.218)" fill="#e5ad70"/><path d="M.082,167.586v0Zm-.023-1.569c0-.047,0-.093,0-.14C.058,165.924.059,165.971.059,166.017Zm-.011-.87c0-.031,0-.062,0-.109C.047,165.085.048,165.116.048,165.147Zm-.009-.715c0-.062,0-.124,0-.186C.037,164.308.039,164.37.039,164.432Zm-.008-.839c0-.078,0-.171,0-.249C.03,163.423.03,163.516.031,163.594Zm-.008-.715c0-.078,0-.171,0-.264C.022,162.708.023,162.8.023,162.879Zm-.006-.854c0-.109,0-.217,0-.342C.016,161.807.016,161.916.017,162.024Zm0-.668c0-.217,0-.419,0-.637v.047C.011,160.968.011,161.17.012,161.356Zm0-.87c0-.155,0-.3,0-.435v.155C.006,160.3.008,160.393.008,160.486Zm0-.606c0-.28,0-.559,0-.839a.12.12,0,0,0,0,.031v.062c0,.171,0,.326,0,.5v.249Zm0-.948c-.012-5.344.044-10.673.169-16.018q-.028,1.212-.053,2.424v.062c0,.186-.008.373-.011.559,0,.031,0,.062,0,.109,0,.186-.008.388-.011.59,0,0,0,.016,0,.031Q0,152.144,0,157.6v.435c0,.171,0,.326,0,.482v.419ZM.171,142.9c.012-.544.026-1.1.04-1.647C.2,141.8.183,142.356.171,142.9Zm.042-1.678c.014-.544.03-1.088.045-1.647C.242,140.134.227,140.678.213,141.222Zm.047-1.662c.037-1.305.078-2.595.124-3.884C.337,136.965.3,138.254.26,139.559Zm.124-3.915c.02-.544.039-1.088.059-1.616C.423,134.557.4,135.1.384,135.644Zm.062-1.709c.02-.528.04-1.041.062-1.569C.486,132.894.466,133.407.446,133.935Zm.067-1.678c.02-.513.044-1.041.065-1.569,0,.062,0,.109-.006.171h0c-.008.186-.014.357-.022.544C.536,131.7.524,131.978.513,132.257Zm.068-1.647q.049-1.1.1-2.191c0,.062-.006.14-.011.218,0,.031,0,.062,0,.109-.006.14-.012.3-.02.435,0,.031,0,.062,0,.093-.008.171-.016.311-.022.482,0,.016,0,.031,0,.047-.006.171-.014.326-.022.5,0,.016,0,.031,0,.047,0,.078-.008.171-.012.264Zm.1-2.237c.026-.544.051-1.072.079-1.616l-.019.373c-.006.14-.012.264-.019.388,0,.047,0,.093-.008.14-.006.14-.012.28-.02.419,0,.047,0,.078,0,.124S.685,128.311.682,128.373Zm.082-1.693c.026-.513.053-1.041.079-1.569l-.009.186c0,.062-.006.14-.009.2-.006.109-.012.233-.019.342,0,.078-.006.14-.009.2-.006.124-.012.249-.019.357l-.014.28ZM.85,125c.028-.528.056-1.056.085-1.569l0,.031c0,.093-.009.171-.014.264,0,.047,0,.093-.008.14,0,.078-.008.14-.011.218,0,.047,0,.078-.008.124,0,.078-.008.14-.011.2,0,.093-.011.2-.016.3s-.009.171-.012.249c0,.016,0,.031,0,.047Zm.089-1.647,0-.093c0,.031,0,.047,0,.062s0,.016,0,.031Zm0-.093c.009-.155.019-.326.028-.5,0,.016,0,.031,0,.031,0,.031,0,.047,0,.062-.008.124-.014.249-.022.373a.208.208,0,0,1,0,.031Z" transform="translate(0 67.962)" fill="#fff"/><path d="M0,159.683v0Zm0-.559v0Zm797.609-.419a10.812,10.812,0,0,1,.96-3.231,10.881,10.881,0,0,0-.953,3.231M0,158.6v0Zm0-.575v0Zm0-.435q0-5.453.087-10.906l-.013.932c0,.031,0,.078,0,.124,0,.14,0,.28-.006.419,0,.062,0,.14,0,.2,0,.124,0,.233,0,.357q-.009.606-.014,1.212c0,.031,0,.047,0,.078,0,.186,0,.373-.006.575,0,.016,0,.047,0,.062,0,.2,0,.4-.006.606v.031c-.006.621-.01,1.243-.014,1.88,0,.016,0,.047,0,.078C0,154.68,0,156.141,0,157.586Zm806.149-7.333h0Zm.059-.016h0Zm.058,0h0Zm.053,0c.275-.016.555-.031.843-.031h0C806.879,150.206,806.6,150.221,806.319,150.237ZM.088,146.648c0-.2.006-.4.01-.59C.094,146.244.091,146.446.088,146.648Zm.012-.7c0-.186.006-.373.01-.559C.106,145.576.1,145.763.1,145.949Zm.01-.621q.024-1.212.049-2.424v-.016c.012-.544.025-1.1.038-1.647a.223.223,0,0,0,0-.031c.013-.544.027-1.088.042-1.647,0,0,0-.016,0-.016.035-1.305.072-2.594.116-3.884v-.031c.019-.544.036-1.088.055-1.616,0-.031,0-.062,0-.093.019-.528.038-1.041.058-1.569,0-.031,0-.062,0-.109.01-.28.022-.559.033-.855q-.247,6.269-.373,12.538c0,.124,0,.249-.007.357,0,.062,0,.124,0,.186,0,.155-.007.311-.01.482v.016c0,.109,0,.233-.007.357Zm.4-13.936c.007-.186.013-.357.02-.544C.524,131.035.518,131.206.511,131.392Zm.022-.544c0-.062,0-.109.006-.171,0-.031,0-.062,0-.078,0-.093.007-.186.012-.264C.545,130.506.538,130.677.532,130.848Zm.022-.559c.007-.171.014-.326.02-.5C.568,129.963.561,130.118.554,130.289Zm.023-.544c.006-.171.013-.311.02-.482C.59,129.419.583,129.59.577,129.745ZM.6,129.17c.007-.14.013-.3.019-.435C.613,128.875.607,129.03.6,129.17Zm.023-.544c0-.078.007-.155.01-.217,0-.016,0-.031,0-.047,0-.062.006-.124.009-.171C.636,128.331.631,128.487.623,128.627Zm.025-.559c.007-.14.013-.28.019-.419C.661,127.788.655,127.927.648,128.067Zm.026-.559c.006-.124.012-.249.017-.388C.686,127.259.68,127.384.674,127.508Zm.026-.575.009-.186c0-.016,0-.047,0-.078l0-.093C.71,126.7.7,126.824.7,126.933Zm.025-.544c.006-.109.012-.233.017-.357C.736,126.156.73,126.265.725,126.389Zm.026-.559c.006-.109.012-.233.017-.342C.762,125.6.756,125.721.751,125.83Zm.026-.544.009-.186c0-.031,0-.078.006-.109,0-.016,0-.031,0-.047-.006.124-.012.233-.017.342Zm.029-.59c0-.093.01-.2.014-.3C.816,124.494.81,124.6.806,124.7Zm.032-.621c0-.078.006-.14.01-.217,0,.047,0,.093-.007.155a.575.575,0,0,0,0,.062Zm.03-.621,0-.031c0-.031,0-.062,0-.078s0-.016,0-.031c0,.016,0,.031,0,.047,0,.031,0,.062-.006.093Zm.032-.606c0-.016,0-.031,0-.062C.9,122.816.9,122.832.9,122.847Z" transform="translate(0 67.973)" fill="#814926"/><path d="M113.189,226.241h0a478.294,478.294,0,0,0,59.3-11.854A478.315,478.315,0,0,1,113.189,226.241Zm560.582-8.778c-113.62-7.737-241.413-15.163-343.32-15.179C432.351,202.3,560.148,209.726,673.771,217.463Zm-343.59-15.179h0Zm304.144-28.462c-3.222-.031-17.686-.264-50.08-.808l3.15.047c29.648.513,43.317.715,46.752.761Zm-49.6-.808-3.263-.047c-54.649-.948-157.781-2.781-338.675-6.137C427.341,170.265,530.959,172.1,584.724,173.015Zm-.478,0c-.191-.016-.384-.016-.574-.016.175,0,.352,0,.527.016h.046Zm-.291-.016c-15.474-.249-30.5-.513-38.568-.653-2.257-.031-3.84-.062-4.825-.078,3.719.062,15.945.28,40.9.7.842.016,1.673.016,2.494.031Zm-34.421-.575c-4.186-.078-7.333-.124-8.971-.155,1.04.016,2.689.047,4.825.078C546.578,172.378,547.956,172.393,549.533,172.425Zm247.42-7.939C612.088,155.77,423.306,150.736,244,149.447c-44.149-5.7-91.069-9.508-138.275-9.508A730.385,730.385,0,0,0,.16,147.163l-.026,1.212q.128-6.269.374-12.538c.007-.186.013-.357.02-.544h0c.006-.171.013-.342.02-.513,0-.016,0-.031,0-.047.007-.171.014-.326.02-.5,0-.016,0-.031,0-.047.006-.155.013-.326.02-.482,0-.031,0-.062,0-.093.007-.14.013-.3.019-.435,0-.047,0-.078,0-.109.007-.14.013-.3.02-.435,0-.047,0-.078,0-.124.007-.14.013-.28.019-.419,0-.047,0-.093.007-.14.006-.124.012-.249.017-.388l.009-.186c0-.109.01-.233.016-.357l.009-.186c.006-.124.012-.233.017-.357,0-.062.006-.124.009-.2.006-.109.012-.233.017-.342,0-.062.006-.14.009-.2.006-.109.012-.217.017-.342,0-.078.007-.155.012-.249s.01-.2.014-.3c0-.062.007-.124.01-.2-.042.854-.083,1.693-.122,2.532,233.585-11.466,325.86-16.421,374.368-16.421,76.334,0,44.282,12.258,283.984,30.668,22.479,1.724,40.909,2.393,56.64,2.393,28.43,0,48.042-2.191,66.822-4.4,15.273-1.787,30-3.558,48.469-4.164a204.515,204.515,0,0,1-19.2,15.4h-3.117c-.288,0-.569.016-.845.031h-.112c-.016,0-.03.016-.046.016h-.013a8.994,8.994,0,0,0-7.591,5.22,10.792,10.792,0,0,0-.962,3.231c-.71.451-1.423.886-2.149,1.336ZM.009,157.681l1.345-.14Zm0-.078c0-.637.009-1.258.014-1.88C.019,156.345.015,156.966.01,157.6Zm.014-1.911c0-.2,0-.4.006-.606C.029,155.288.028,155.49.025,155.692Zm.007-.668c0-.2,0-.388.006-.575C.037,154.636.034,154.838.032,155.024Zm.007-.653q.007-.606.014-1.212Q.045,153.766.039,154.372ZM.058,152.8c0-.062,0-.14,0-.2C.06,152.663.06,152.74.058,152.8Zm.009-.621c0-.047,0-.093,0-.124C.068,152.088.068,152.135.067,152.181Zm.046-2.765v0Zm.01-.5c0-.062,0-.124,0-.186C.125,148.794.123,148.856.123,148.919Zm.714-20.461c0-.062,0-.109.007-.155s0-.093.007-.14c0,.093-.01.186-.014.3Zm.033-.653c0-.016,0-.031,0-.047s0-.031,0-.062a.223.223,0,0,0,0-.031c0,.047,0,.093-.006.14Z" transform="translate(0.005 63.528)" fill="#e5ad70"/><path d="M.43,168.132c0-.016,0-.047,0-.078C.429,168.085.43,168.116.43,168.132Zm-.056-1.585c0-.047,0-.093-.006-.14C.37,166.454.371,166.5.374,166.547Zm-.03-.854a.208.208,0,0,1,0-.031A.209.209,0,0,0,.345,165.693Zm-.025-.746c0-.062,0-.14-.006-.217C.315,164.807.318,164.885.32,164.947ZM.3,164.186l0-.186Zm-.025-.839c0-.093,0-.186-.008-.3C.266,163.16.267,163.253.27,163.347Zm-.02-.715c0-.093-.006-.2-.008-.3C.244,162.43.247,162.523.25,162.632Zm-.025-.917c0-.109-.006-.217-.009-.342C.219,161.5.222,161.607.225,161.715Zm-.019-.684c0-.109-.006-.233-.009-.357C.2,160.8.2,160.923.207,161.032Zm-.019-.746c0-.186-.009-.388-.014-.575,0,.186.009.373.014.575Zm-.022-.87c0-.14-.006-.28-.009-.4C.16,159.136.163,159.276.166,159.416Zm-.014-.637c-.006-.264-.011-.528-.017-.808C.141,158.251.146,158.515.152,158.779Zm-.02-.979-.009-.466Zm-.012-.621c-.006-.326-.012-.637-.019-.948C.107,156.542.113,156.853.12,157.179ZM.1,156.153c0-.171,0-.326-.008-.5C.095,155.827.1,155.983.1,156.153Zm-.011-.606c0-.124,0-.249-.006-.373V155.1q-.009-.559-.017-1.119c.006.528.016,1.041.023,1.569Zm-.025-1.662,0-.28c0-.047,0-.093,0-.14,0-.249-.006-.482-.009-.73,0-.031,0-.062,0-.109,0-.109,0-.233,0-.342C.048,152.813.056,153.357.064,153.885Zm-.022-1.631c0-.078,0-.155,0-.233,0-.062,0-.124,0-.186,0-.217,0-.435-.006-.652,0-.078,0-.171,0-.249l0-.466c0-.078,0-.171,0-.264,0-.2,0-.388,0-.59,0-.109,0-.217,0-.342,0-.109,0-.217,0-.326,0-.186,0-.388,0-.59.006,1.305.017,2.595.033,3.9Zm-.033-3.9v-.047c0-.078,0-.155,0-.233,0-.093,0-.186,0-.28,0,.186,0,.373,0,.559Zm0-.559v-.155c0-.062,0-.109,0-.171v-.186C0,147.453.006,147.624.006,147.8Zm0-.575c0-.171,0-.326,0-.5C0,146.878,0,147.049,0,147.22Zm0-.559a.12.12,0,0,1,0-.031v-.435C0,146.35,0,146.506,0,146.661Zm0-.559c0-.155,0-.311,0-.482C0,145.791,0,145.946,0,146.1Zm0-.544v0Z" transform="translate(0 80.374)" fill="#f2dbc7"/><path d="M.594,173.69c0-.016,0-.031,0-.047C.592,173.659.592,173.674.594,173.69Zm-.03-.684c0-.078-.008-.155-.011-.249C.556,172.835.559,172.929.564,173.006Zm-.033-.777c-.006-.124-.011-.249-.016-.373C.521,171.981.525,172.105.531,172.23ZM.5,171.437c0-.124-.009-.233-.014-.342C.489,171.2.494,171.313.5,171.437Zm-.028-.7c-.008-.217-.016-.419-.025-.637C.455,170.319.463,170.521.471,170.738Zm-.034-.886c0-.047,0-.109-.006-.171,0-.016,0-.047,0-.078,0-.062,0-.124-.006-.186,0,.155.011.3.016.435Zm-.022-.621c-.011-.28-.022-.575-.031-.87C.393,168.656.4,168.952.415,169.231Zm-.036-.963c0-.062,0-.109,0-.171,0-.047,0-.093-.006-.14,0-.078,0-.14-.006-.2C.367,167.926.373,168.1.379,168.268Zm-.019-.544c0-.155-.011-.326-.016-.482a.208.208,0,0,1,0-.031c-.008-.233-.016-.482-.023-.715,0-.062,0-.14-.006-.217-.006-.171-.012-.357-.019-.544l0-.186c-.006-.217-.014-.435-.02-.653,0-.093,0-.186-.008-.3,0-.14-.009-.28-.012-.419,0-.109-.006-.2-.008-.3-.006-.2-.012-.4-.017-.621,0-.109-.006-.217-.009-.342,0-.109-.006-.218-.009-.342,0-.109-.006-.233-.009-.357s-.006-.264-.009-.388c0-.2-.009-.388-.014-.575,0-.093,0-.2-.008-.3,0-.14-.006-.28-.009-.4l0-.233c-.006-.264-.011-.528-.017-.808,0-.047,0-.109,0-.171l-.009-.466c0-.062,0-.109,0-.155-.006-.326-.012-.637-.019-.948,0-.031,0-.047,0-.078,0-.171,0-.326-.008-.5,0-.031,0-.078,0-.109-.008-.528-.017-1.041-.023-1.569,0-.031,0-.062,0-.093-.008-.528-.016-1.072-.022-1.6V153.8c-.016-1.305-.026-2.595-.033-3.9,0-.186,0-.373,0-.559,0-.171,0-.342,0-.513v-.062c0-.171,0-.342,0-.5v-.062c0-.155,0-.311,0-.466v-.093c0-.155,0-.311,0-.482v-.435c0-1.445,0-2.905.014-4.35q-.086,12.677.346,25.339Z" transform="translate(0 78.824)" fill="#9c6034"/><path d="M112.62,212.335C70.937,201.677,33.136,188.953.551,175.079c0-.016,0-.031,0-.047-.009-.2-.016-.419-.025-.637,0-.078-.007-.171-.01-.249-.007-.171-.014-.357-.02-.528-.006-.124-.01-.249-.014-.373-.006-.14-.012-.28-.016-.419,0-.124-.009-.233-.013-.342,0-.124-.009-.249-.013-.357-.007-.217-.014-.419-.023-.637,0-.078-.006-.155-.009-.249,0-.14-.01-.28-.014-.435,0-.062,0-.124-.006-.186-.01-.28-.02-.575-.029-.87l0-.093c-.006-.171-.012-.342-.016-.513,0-.016,0-.016,0-.031q-.4-12.654-.321-25.339l1.338-.14a749.891,749.891,0,0,1,76.823-3.76c55.973,0,112.017,5.407,163.392,13.05,179.981,3.356,282.594,5.189,336.967,6.137-24.828-.419-36.992-.637-40.693-.7,1.63.031,4.762.078,8.926.155,7.016.124,18,.311,33.966.575.189,0,.381,0,.571.016,32.231.544,46.622.777,49.828.808,34.879.575,81.181,1.305,141.725,2.128-28.833,15.35-63.446,29.456-102.478,41.512-113.051-7.737-240.2-15.163-341.588-15.179h-.268c-67.845,0-124.1,3.325-156.9,12.1a473.768,473.768,0,0,1-59,11.854Zm425.217-53.972h0Zm-.8-.016c.2,0,.469.016.8.016C537.5,158.363,537.237,158.347,537.039,158.347Zm-.027,0h0Zm-.1,0h0Zm-.061,0h0Zm-.21,0h0Zm-.056,0h0Zm47.856.808-3.134-.047h-.046c.594,0,1.191.016,1.8.031.405,0,.81,0,1.215.016h.167Zm-.281,0c-.37-.016-.737-.016-1.1-.016l-2.041-.047c-.816-.016-1.643-.016-2.481-.031l3.246.047Z" transform="translate(0 77.434)" fill="#e0a366"/><path d="M629.275,143.209c-82.634,0-243.2-26.163-346.826-36.168,13.112.435,26.483.7,40.283.7,18.166,0,37.089-.451,57.154-1.538,54.564-1.864,99.705-4.521,138.539-7.6,55.543,11.31,154.681,17.975,240.852,22.139a106.857,106.857,0,0,1-13.83,17.385c-7.954-.3-15.873-.466-23.75-.466a481.773,481.773,0,0,0-67.12,4.428A247.261,247.261,0,0,1,629.275,143.209Z" transform="translate(96.303 54.587)" fill="#e5ad70"/><path d="M.636,135.929c.008-.109.014-.233.02-.342C.65,135.7.644,135.82.636,135.929Zm.053-.9c.008-.14.014-.264.022-.388C.7,134.764.7,134.888.689,135.028Zm.036-.621c.014-.249.03-.513.045-.761-.014.233-.028.466-.042.715C.726,134.375.725,134.391.725,134.406Zm.057-.948c.008-.14.016-.28.025-.419C.8,133.179.79,133.319.782,133.459Zm.042-.7c.012-.217.026-.419.039-.637C.85,132.34.836,132.542.824,132.759Zm.059-.948c.008-.124.016-.264.025-.388C.9,131.548.891,131.687.883,131.812Zm.044-.684c.011-.186.023-.373.036-.544C.95,130.755.939,130.942.927,131.128Zm.061-.948c.009-.124.017-.233.025-.357C1,129.947,1,130.056.987,130.18Zm.047-.7c.011-.155.02-.3.031-.451C1.054,129.171,1.045,129.326,1.034,129.481Zm.064-.948c.008-.093.016-.2.022-.311C1.113,128.332,1.105,128.44,1.1,128.534Zm.051-.73c.006-.093.012-.186.019-.264C1.161,127.633,1.155,127.71,1.149,127.8Zm.064-.9c.006-.093.012-.171.019-.264C1.225,126.732,1.219,126.809,1.212,126.9Zm.054-.761c0-.062.011-.14.016-.217C1.278,126,1.271,126.079,1.267,126.141Zm.065-.886c0-.062.009-.14.016-.217C1.341,125.116,1.337,125.178,1.332,125.256Zm.056-.761c0-.062.009-.109.012-.171C1.4,124.386,1.393,124.432,1.388,124.494Zm.067-.87c0-.062.008-.109.012-.171C1.463,123.516,1.458,123.562,1.455,123.624Zm.059-.777c0-.047.008-.093.011-.14C1.522,122.754,1.517,122.8,1.514,122.848Zm.067-.87c0-.031.006-.078.009-.109C1.587,121.9,1.584,121.946,1.581,121.978Zm.064-.777c0-.031,0-.062.008-.093C1.649,121.139,1.646,121.17,1.644,121.2Zm.068-.854c0-.031,0-.047.006-.078C1.717,120.3,1.714,120.331,1.713,120.346Zm.065-.792c0-.016,0-.047,0-.062C1.781,119.507,1.779,119.538,1.778,119.554Zm.07-.839c0-.016,0-.031,0-.047C1.851,118.684,1.849,118.7,1.848,118.715Zm.067-.792,0-.047Zm.141-1.616,0-.047Zm.3-3.263v0Zm.152-1.616,0-.016S2.5,111.413,2.5,111.429Zm.656-6.478,0-.016Zm.172-1.6,0-.047Zm.18-1.631,0-.031Zm.182-1.6c0-.016,0-.047,0-.062C3.7,100.072,3.7,100.1,3.7,100.118Zm.185-1.6.009-.093Z" transform="translate(0.352 54.488)" fill="#fff"/><path d="M.7,140.051c.013-.249.026-.482.039-.715,0-.062.007-.124.012-.186.007-.14.015-.28.023-.419,0-.093.01-.186.016-.28.012-.217.025-.419.036-.637.007-.109.013-.2.019-.311.007-.124.015-.264.023-.388.006-.093.012-.2.017-.3.012-.186.022-.373.033-.544.007-.14.016-.264.023-.4.009-.124.016-.233.023-.357.007-.109.013-.233.02-.342.01-.155.019-.311.029-.451.01-.171.02-.326.031-.5.007-.093.015-.2.02-.311.009-.14.019-.28.028-.419.006-.093.012-.171.017-.264.015-.217.028-.419.042-.637.006-.093.012-.171.017-.264.01-.155.022-.326.033-.5,0-.062.01-.14.015-.217.016-.217.031-.451.046-.668,0-.078.009-.14.015-.217.012-.186.025-.357.038-.544,0-.062.009-.109.012-.171.017-.233.033-.466.051-.7,0-.062.007-.109.012-.171l.044-.606c0-.047.007-.093.01-.14.017-.249.035-.482.052-.73,0-.031.006-.078.009-.109.017-.233.033-.451.051-.668,0-.031,0-.062.007-.093.019-.249.038-.513.057-.761,0-.016,0-.047.006-.078.019-.249.036-.482.055-.715,0-.016,0-.047,0-.062.02-.264.041-.513.061-.777,0-.016,0-.031,0-.047.02-.249.041-.5.06-.746l0-.047c.02-.264.042-.528.064-.792L1.937,122l0-.047c.044-.544.089-1.072.134-1.6.045-.544.092-1.088.139-1.616v-.016c.046-.528.094-1.072.142-1.6,0-.016,0-.016,0-.016.048-.544.1-1.072.147-1.616q.224-2.424.465-4.847v-.016q.078-.792.16-1.585l0-.047q.081-.792.164-1.585l0-.031c.055-.528.11-1.041.167-1.569,0-.016,0-.047,0-.062q.083-.769.169-1.538l.009-.093c.007-.062.015-.124.022-.2q-.2,1.864-.4,3.729c50.114,1.119,103.965,2.144,148.9,2.144,10.612,0,20.719-.062,30.171-.186,59.39-.777,87.9-4.117,101.851-7.923,17.093,2.532,36.851,5.049,60.11,7.488q9.228.629,18.428,1.227c-88.229.016-257.7,15.8-361.9,27.235q-.072,1.212-.138,2.424Zm859.272-21.44c-75.156-4.133-149.643-9.694-200.045-16.888,43.574-4.288,78.381-9.1,110.932-13.578,33.408,3.154,66.7,6.789,94.721,9.99A66.573,66.573,0,0,1,859.967,118.611ZM3.7,103.7c.022-.2.044-.4.067-.606C3.741,103.293,3.72,103.495,3.7,103.7Z" transform="translate(0.385 48.797)" fill="#e5ad70"/><path d="M2.846,97.484c0-.031.009-.078.014-.109C2.855,97.406,2.851,97.453,2.846,97.484Z" transform="translate(1.576 53.906)" fill="#fff"/><path d="M2.832,97.986c.008-.062.014-.124.022-.186,0-.031.009-.078.014-.109,0-.047.011-.093.016-.14C2.866,97.691,2.849,97.83,2.832,97.986Zm.106-.886c.012-.109.023-.2.036-.3C2.963,96.9,2.95,97.007,2.938,97.1Z" transform="translate(1.568 53.591)" fill="#e5ad70"/><path d="M162.667,106.416c-52.2,0-110.153-1.15-159.542-2.035-.034.186-.061.373-.085.559.71-5.733,6.334-10.533,12.446-10.72q50.97-1.468,101.936-2.61a11.492,11.492,0,0,0,11.4-11.466c0-.249-.008-.5-.025-.73,56.032,1.662,78.158,12.087,148.659,23.351-27.23,2.765-68.778,3.651-114.786,3.651Z" transform="translate(1.683 43.964)" fill="#e5ad70"/><path d="M2.97,96.47c.006-.047.012-.093.02-.155C2.982,96.377,2.976,96.424,2.97,96.47Z" transform="translate(1.644 53.319)" fill="#fff"/><path d="M2.969,105.017s0,0,0-.016c.006-.047.012-.093.019-.155,0-.016,0-.031.006-.047C2.986,104.861,2.978,104.939,2.969,105.017ZM864.637,94.126c-18.14-2.16-38.544-4.49-59.817-6.727,18.859-2.455,37.76-4.676,58.08-6.494.5,2.128.889,4.241,1.175,6.385a63.013,63.013,0,0,1,.562,6.836Z" transform="translate(1.644 44.789)" fill="#e5ad70"/><path d="M161.712,106.3c-48.056,0-105.646-1.025-159.24-2.144q.205-1.864.424-3.729c.009-.062.017-.14.026-.217.023-.2.047-.4.071-.606.012-.109.025-.217.037-.311.017-.155.034-.3.051-.435s.037-.3.054-.451c.012-.093.025-.2.036-.3.023-.2.048-.388.071-.59.009-.078.019-.155.028-.217l.082-.684c.025-.186.051-.373.085-.559,49.389.886,107.341,2.035,159.542,2.035,46.008,0,87.556-.886,114.786-3.651,7.76,1.243,16.092,2.486,25.136,3.744-14.922,3.806-45.41,7.147-108.924,7.923C183.87,106.237,173.061,106.3,161.712,106.3Z" transform="translate(1.369 52.284)" fill="#d78f51"/><path d="M632.146,99.829c-29.964-3.2-65.571-6.836-101.3-9.99,12.753-1.647,25.182-3.247,37.633-4.754,22.755,2.237,44.582,4.568,63.986,6.727A57.712,57.712,0,0,1,632.146,99.829Z" transform="translate(233.815 47.103)" fill="#d78f51"/><path d="M675.191,121.7c-86.172-4.164-185.31-10.829-240.852-22.139q16.359-1.282,31.3-2.672c53.9,7.193,133.561,12.755,213.936,16.888A80.791,80.791,0,0,1,675.191,121.7Z" transform="translate(180.389 53.635)" fill="#d78f51"/><path d="M373.094,151.775h0Z" transform="translate(169.786 84.022)" fill="#d78f51"/><path d="M372.47,151.765h0Z" transform="translate(169.472 84.016)" fill="#d78f51"/><path d="M373.4,151.781c-.354,0-.642-.016-.859-.016C372.751,151.765,373.038,151.781,373.4,151.781Z" transform="translate(169.501 84.016)" fill="#d78f51"/><path d="M372.559,151.765h0Z" transform="translate(169.489 84.016)" fill="#d78f51"/><path d="M372.486,151.765h0Z" transform="translate(169.399 84.016)" fill="#d78f51"/><path d="M774.372,166.977c-60.664-.823-107.056-1.554-142-2.128h-.178c-3.425-.047-17.051-.249-46.608-.761h-.168c4.047.062,8.094.14,12.025.2q-6.472-.117-12.139-.2l-2.382-.047c-53.6-.917-156.9-2.75-340.882-6.183-51.476-7.644-107.63-13.05-163.713-13.05a752.827,752.827,0,0,0-76.974,3.76l-1.34.14c0-.031,0-.062,0-.078,0-.637.009-1.258.014-1.88v-.031c0-.2,0-.4.006-.606,0-.016,0-.047,0-.062,0-.186,0-.388.006-.575,0-.031,0-.047,0-.078q.006-.606.014-1.212c0-.124,0-.233,0-.357,0-.062,0-.14,0-.2,0-.14,0-.28.006-.419,0-.047,0-.093,0-.124l.013-.932c0-.016,0-.031,0-.031,0-.2.006-.4.01-.59,0-.047,0-.078,0-.109,0-.186.006-.373.01-.559V140.8c0-.124.006-.249.007-.357v-.016c0-.171.006-.326.01-.482,0-.062,0-.124,0-.186,0-.109,0-.233.007-.357l.026-1.212A725.918,725.918,0,0,1,105.4,130.965c47.06,0,93.836,3.806,137.848,9.508C422,141.763,610.2,146.8,794.494,155.512q-9.518,5.826-20.122,11.466ZM604.153,164.4c-.342,0-.687-.016-1.031-.016C603.464,164.383,603.808,164.4,604.153,164.4Zm-2.711-.047c-.391,0-.786-.016-1.18-.016l-2.795-.047,2.795.047C600.653,164.336,601.046,164.352,601.442,164.352Zm-4-.062h0Z" transform="translate(0.005 72.502)" fill="#d78f51"/><path d="M372.281,151.765h0Z" transform="translate(169.388 84.016)" fill="#d78f51"/><path d="M372.549,151.765h0Z" transform="translate(169.525 84.016)" fill="#d78f51"/><path d="M418.669,152.491c-.371,0-.741-.016-1.109-.016C417.93,152.475,418.3,152.491,418.669,152.491Z" transform="translate(189.975 84.409)" fill="#d78f51"/><path d="M417.92,152.477c-.426,0-.848-.016-1.269-.016C417.075,152.462,417.5,152.477,417.92,152.477Zm-1.269-.016-3.006-.047Z" transform="translate(188.057 84.376)" fill="#d78f51"/><path d="M413.656,152.415h0Z" transform="translate(188.232 84.376)" fill="#d78f51"/><path d="M436.065,152.769c-4.227-.062-8.58-.14-12.934-.2-.437-.016-.873-.016-1.31-.016.393,0,.788,0,1.187.016Q429.11,152.661,436.065,152.769Zm-14.243-.217c-.654-.016-1.3-.031-1.937-.031-.188-.016-.378-.016-.566-.016-17.209-.264-29.044-.451-36.606-.575-1.692-.031-3.169-.047-4.446-.078,8.652.14,24.763.4,41.355.653l2.2.047Zm-43.555-.7c-2.29-.031-4.058-.062-5.173-.078C374.15,151.791,375.846,151.822,378.267,151.853Z" transform="translate(167.169 84.022)" fill="#d78f51"/><path d="M716.056,154.619c-15.743,0-34.188-.668-56.685-2.393-239.895-18.41-207.817-30.668-284.212-30.668-48.547,0-140.9,4.956-374.669,16.421.039-.839.08-1.678.122-2.532,0-.047,0-.078.007-.124a.574.574,0,0,1,0-.062c0-.109.01-.2.015-.3s.009-.171.013-.264c0-.031,0-.062.006-.093,0-.047,0-.093.006-.14.007-.124.013-.249.02-.373,0-.016,0-.031,0-.062,0,0,0-.016,0-.031.006-.093.012-.2.016-.311s.013-.233.019-.342l.03-.559c.007-.14.013-.264.02-.388l.013-.233c0-.016,0-.031,0-.047q.067-1.212.138-2.424c104.008-11.434,273.172-27.219,361.238-27.235,15.563.994,31.163,1.88,47.179,2.439,96.715,10.005,246.582,36.168,323.708,36.168a215.513,215.513,0,0,0,23.615-1.119,420.165,420.165,0,0,1,62.646-4.428c7.352,0,14.743.171,22.167.466-3.061,3.4-6.409,6.743-10.039,10.067-18.482.606-33.223,2.377-48.508,4.164-18.8,2.206-38.423,4.4-66.876,4.4Z" transform="translate(0.272 56.724)" fill="#d78f51"/><path d="M89.552,197.708c-3.845-.87-7.642-1.756-11.427-2.657A545.784,545.784,0,0,0,141.711,183.2c35.343-8.778,95.973-12.1,169.09-12.1h.289c109.272.016,246.3,7.442,368.134,15.179-4.069,1.165-8.17,2.3-12.328,3.433-119.049-7.426-251.073-14.4-356.713-14.4-72.32,0-132.29,3.278-167.2,11.932-18.471,4.568-36.3,7.985-53.433,10.471Z" transform="translate(43.25 94.717)" fill="#d78f51"/><path d="M343.916,218.431c-54.466-4.676-98.066-13.252-89.141-26.753,3.952-5.81,22.839-7.784,46.718-7.784,46.524,0,111.983,7.488,122.76,8.654,3.214.155,42.332,1.585,74.209,6.541q-6.569,1.282-13.224,2.486c-24.471-3-50.7-4.35-61.482-4.785-13.583-1.46-84.2-9.213-128.781-9.213-23.694,0-40.041,2.191-36.541,8.685,5.189,9.57,58.007,16.39,116.14,19.933q-15.187,1.305-30.66,2.237Z" transform="translate(106.702 101.803)" fill="#d78f51"/><path d="M406.24,118.491c-12.757,0-25.116-.264-37.236-.7-15.862-.559-31.311-1.445-46.724-2.439q-9.108-.583-18.217-1.227c-22.993-2.439-42.525-4.956-59.422-7.488-8.359-1.258-16.061-2.5-23.234-3.744C156.238,91.629,135.786,81.2,83.992,79.542c-.007-.109-.016-.233-.026-.342.895,0,1.792-.016,2.687-.016a307.457,307.457,0,0,1,76.216,9.524C249.241,108,335.186,115.57,420.716,115.57c101.686,0,202.789-10.7,303.357-25.106q12.966-1.655,25.9-3.216c-.006,0,0,0-.01-.016,22.611-2.688,45.161-5,67.769-6.277.072.3.144.606.213.9-20.092,1.818-38.781,4.039-57.429,6.494-11.509,1.507-23,3.107-34.786,4.754-32.178,4.474-66.587,9.291-109.662,13.578q-13.834,1.375-28.931,2.672c-35.9,3.076-77.623,5.733-128.06,7.6-18.547,1.088-36.039,1.538-52.831,1.538Z" transform="translate(46.483 43.836)" fill="#814926"/><path d="M459.081,145.963c-86.445,0-173.31-7.566-260.605-26.862a313.892,313.892,0,0,0-77.031-9.524c-.9,0-1.811.016-2.716.016-.39-4.055-3.06-7.535-8.585-7.535h-.406q-47.04,1.4-94.077,3.2h-.388a7.969,7.969,0,0,1-8.31-8.2,10.172,10.172,0,0,1,.161-1.787,9.4,9.4,0,0,0,.224,4.412c24.685-.917,51.658-1.46,78.795-1.46,94.238,0,190.63,6.572,201.638,26.986-2.168,2.843-9.082,5.034-19.635,6.712q9.812,1.491,19.621,2.828c5.816-2.532,6.778-5.065,7.471-6.882,1.061-2.781,1.119-7.084-4.573-11.761C266.616,96.185,176.345,89.924,88.887,89.924c-28.091,0-55.885.637-81.11,1.693-.221,1.212-.438,2.424-.653,3.651q2.151-12.235,4.752-24.454c-.135.637-.267,1.274-.4,1.9C74.113,76.051,212.9,88.448,288.009,88.448c16.554,0,30-.59,38.871-2.035,7.529-1.554,22.438-2.191,42.861-2.191,45.745,0,119.156,3.2,199.291,6.385s167,6.385,239.618,6.385c16.229,0,31.742-.171,46.315-.528a79.918,79.918,0,0,1,5.373,14.883c-22.85,1.274-45.641,3.589-68.494,6.277-53.3-5.546-110.4-10.036-150.788-10.036-30.225,0-51.1,2.517-54.056,9-3.909,8.529,9.179,15.614,33,21.486q13.052-1.212,26.094-2.563c-28.037-4.459-46.845-9.539-51.541-15.272,4.3-3.558,19.29-5.018,40.764-5.018,30.682,0,74.6,2.983,119.5,7.115,3.623-.5,7.246-.979,10.866-1.476-101.643,14.4-203.828,25.106-306.6,25.106ZM817.969,88.806c-71.671,0-159.707-3.278-241.69-6.541-81.976-3.278-157.9-6.556-205.363-6.556-7.71,0-14.67.093-20.78.28,6.113-.186,13.073-.28,20.788-.28,47.462,0,123.389,3.278,205.369,6.556,81.982,3.263,170.029,6.541,241.7,6.541,11.362,0,22.3-.093,32.753-.264h0c-10.456.186-21.406.264-32.775.264Zm-529.531-8.84h0Zm37-1.849.637-.093ZM349.742,76h0Zm.2-.016h0ZM12.992,65.673c.475-2.159.959-4.3,1.454-6.447q-.634,2.75-1.244,5.5c-.07.311-.141.621-.21.948ZM20.46,65.1h0Zm-1.18-.062-.779-.047Zm-1.2-.062-.718-.047Zm-1.208-.062c-.139-.016-.27-.016-.408-.031C16.6,64.9,16.733,64.9,16.872,64.912Zm-2.434-.124-.8-.047Zm.032-5.671c.048-.2.1-.419.147-.637C14.567,58.7,14.518,58.915,14.47,59.117Zm617.671-.466c-26.936,0-53.451-3.014-78.729-10.223,25.273,7.209,51.8,10.223,78.729,10.223,11.237,0,22.537-.528,33.856-1.491-11.32.963-22.621,1.491-33.856,1.491ZM14.653,58.324c.052-.218.1-.451.158-.684C14.757,57.874,14.705,58.107,14.653,58.324Zm.269-1.15c.016-.078.032-.14.048-.2C14.953,57.035,14.937,57.1,14.921,57.175Zm.168-.73c.012-.047.023-.093.036-.14C15.114,56.351,15.1,56.4,15.09,56.444Zm.167-.7c0-.016.007-.031.01-.047C15.264,55.714,15.26,55.73,15.257,55.745Zm76.2-.528c-23.942,0-48.989-.963-75.317-3.2,26.315,2.237,51.383,3.2,75.314,3.2,20.413,0,40-.7,58.871-1.9C131.465,54.518,111.866,55.217,91.46,55.217Zm-75.8-1.165.078-.326Zm.141-.59c.052-.217.1-.435.154-.637C15.9,53.027,15.85,53.244,15.8,53.462Zm.155-.653c.308-1.274.62-2.563.935-3.837-.251,1.01-.5,2.035-.745,3.045q-.094.4-.19.792ZM553.287,48.4c-2.061-.684-28.47-9.415-30.181-9.974C524.817,38.982,551.226,47.713,553.287,48.4ZM245.2,43.348q16.314-2.284,31.91-4.676c14.047-2.128,27.685-4.257,40.977-6.245-13.292,1.989-26.929,4.117-40.976,6.245Q261.5,41.048,245.2,43.348ZM501.3,31.432a260.251,260.251,0,0,0-37.277-7.147A260.251,260.251,0,0,1,501.3,31.432Zm-37.293-7.147h0Z" transform="translate(3.855 13.444)" fill="#e5ad70"/><path d="M814.978,89.57c-71.573,0-159.5-3.278-241.376-6.541-81.871-3.278-157.7-6.556-205.1-6.556-7.7,0-14.655.093-20.76.28h-.2a.814.814,0,0,1-.193.016h0c-10.683.326-18.736.979-23.634,2.02l-.636.093c-8.487,1.305-21.266,1.849-36.942,1.849h-.009c-71.3.016-202.925-11.31-267.622-14.868h-.094c-.358-.031-.729-.047-1.084-.062l-.778-.047c-.142,0-.278-.016-.42-.016l-.718-.047c-.159,0-.33-.016-.488-.016-.139-.016-.27-.016-.407-.031L12.5,65.551l-.8-.047c-.144,0-.288-.016-.431-.016q.611-2.75,1.242-5.5c.007-.047.016-.078.023-.109.048-.2.1-.419.146-.637.012-.047.023-.093.036-.155.052-.218.1-.451.158-.684.036-.155.074-.311.11-.466.016-.078.032-.14.048-.2.041-.171.08-.342.12-.528.012-.047.025-.093.036-.14l.13-.559c0-.016.007-.031.01-.047.129-.544.259-1.1.39-1.647l.078-.326c.02-.093.042-.186.062-.264.052-.218.1-.435.154-.637,0-.016,0-.016,0-.016q.1-.4.19-.792c26.293,2.237,51.307,3.2,75.217,3.2,20.379,0,39.951-.7,58.789-1.9,33.756-2.128,65.163-5.826,94.745-9.974q16.292-2.284,31.869-4.676c14.028-2.128,27.647-4.257,40.921-6.245,38.276-5.717,73.687-10.285,107.665-10.285a321.472,321.472,0,0,1,38.054,2.144h.025A259.6,259.6,0,0,1,498.711,32.2q10.9,2.936,21.766,6.991l-.045-.016.054.016c1.709.559,28.083,9.29,30.141,9.974.071.016.113.031.125.031C576,56.4,602.476,59.415,629.376,59.415c11.221,0,22.507-.528,33.811-1.491,43.384-3.7,86.927-13.889,127.247-25.774,25.765,18.27,45.638,37.473,57.253,57.157-10.437.171-21.363.264-32.71.264ZM415.63,44.345h-.623c-23.291.078-42.326,4.366-42.506,9.415-.177,5.018,18.474,8.933,41.756,8.933h.548c23.536-.062,42.566-4.1,42.5-9.182C457.237,48.493,438.635,44.345,415.63,44.345Z" transform="translate(6.235 12.68)" fill="#e2a86b"/><path d="M10.4,55.7c.009-.031.017-.062.026-.109C10.415,55.636,10.407,55.667,10.4,55.7Zm.9-3.868c.011-.047.023-.093.034-.14C11.318,51.736,11.305,51.783,11.294,51.829Zm.121-.513c.026-.109.053-.233.081-.342C11.468,51.084,11.442,51.208,11.416,51.317Z" transform="translate(5.757 28.22)" fill="#e5ad70"/><path d="M503.968,5.225a2.738,2.738,0,0,0-.357-.016A2.739,2.739,0,0,1,503.968,5.225ZM501.433,5.1c-.034,0-.057-.016-.093-.016C501.37,5.085,501.4,5.1,501.433,5.1Zm-2.208-.109-.74-.047Zm-2.208-.109-.758-.047Zm-2.609-.124c-.367-.016-.71-.031-1.077-.062C493.694,4.728,494.047,4.743,494.409,4.759Zm-2.035-.093c-.4-.031-.778-.047-1.179-.062C491.586,4.619,491.981,4.634,492.374,4.666ZM491.121,4.6l-3.012-.14Zm-3.479-.171c-6.371-.3-12.7-.575-19.072-.854-.121,0-.241-.016-.36-.016l-.974-.047L466.1,3.469H466c-.895-.047-1.79-.078-2.683-.124,8.118.357,16.213.715,24.331,1.088Z" transform="translate(208.797 1.852)" fill="#fff"/><path d="M622.9,63.5c-25.92,0-51.4-2.936-75.714-9.881h0c-.024,0-35.179-14.138-90.423-24.174L441.5,27.91q-13.491-1.142-26.915-1.119c-45.46,0-91.123,8.98-143.128,17.96S161.111,62.71,90.324,62.71c-23.92.016-49.243-1.01-76.242-3.418q2.949-12,6.327-23.988a706.332,706.332,0,0,0,75.093,4.1c62.048,0,112.272-8.669,158.395-17.338,46.115-8.654,88.139-17.323,133.759-17.323a344.064,344.064,0,0,1,65.356,6.214c65.6,13.268,103.66,23.754,134.658,23.754,27.887,0,50.059-8.483,81.451-31.041l-3.092-.14c5.906.28,11.773.559,17.679.854.14.016.292.016.432.031l2.793.14H687c.372.016.72.031,1.093.062.294.016.595.031.889.031.34.031.658.047,1,.062.573.031,1.142.062,1.715.078l.7.047c.448.016.915.047,1.361.062l.685.047,1.96.093c.033,0,.055.016.086.016.671.031,1.348.062,2.019.109a2.354,2.354,0,0,1,.331.016q12.378.653,24.749,1.383a515.913,515.913,0,0,1,52.778,30.885C727.224,52.006,674.2,63.5,622.9,63.5ZM13.838,60.287l.013-.047Zm7.071-26.753a.347.347,0,0,1,.016-.062A.347.347,0,0,0,20.909,33.534Zm.105-.373q1.134-3.985,2.316-7.97Q22.148,29.176,21.014,33.161ZM665.695,3.518l-.9-.047Zm-1.957-.093h0Z" transform="translate(7.661 1.896)" fill="#e5ad70"/><path d="M29.313,15.023q129.479-9.6,258.928-13.408h0Q158.763,5.414,29.313,15.023Z" transform="translate(16.228 0.894)" fill="#fff"/><path d="M98.423,20.724c-22.67,0-47.107-.684-73.62-2.253A20.154,20.154,0,0,0,22.7,20.4a16.582,16.582,0,0,1,10.277-5.375Q162.452,5.421,291.9,1.615c-50.667,9.772-110.12,19.109-193.478,19.109Z" transform="translate(12.566 0.894)" fill="#e5ad70"/><path d="M582.269,4.4Q492.773.906,403.23.191h0Q379.9.005,356.566.005H344.4c-.682.016-1.386.016-2.069.016h-3.115q-37.78.117-75.589.73h-.185c-.385,0-.788.016-1.171.016h-.258l-2.369.047h-.093c-.28,0-.564.016-.844.016-.233,0-.471,0-.7.016h-.736c-.292.016-.589.016-.881.016-.191.016-.416.016-.607.016-.429.016-.848.016-1.276.031h-.222c-.533,0-1.069.016-1.6.031h-.144c-.516,0-1.021.016-1.536.031h-.079q-18.878.326-37.762.808Q284.856,0,356.532,0,469.4,0,582.269,4.4h0" transform="translate(83.594 0.003)" fill="#fff"/><path d="M628.195,21.445c-27.912,0-61.411-9.166-119.518-21.253q89.5.722,179.041,4.21C665.933,16.566,648.548,21.445,628.195,21.445ZM22.678,21.336c.009-.016.019-.031.028-.031C22.7,21.3,22.687,21.32,22.678,21.336ZM356.367.968h0Zm1.616-.031h0ZM359.73.906h0Zm1.5-.031c.191,0,.416,0,.607-.016C361.634.875,361.43.875,361.228.875Zm1.488-.031h0Zm1.44-.016c.28,0,.564-.016.844-.016C364.717.813,364.439.828,364.157.828Zm.937-.016,2.369-.047Zm2.627-.047c.384,0,.786-.016,1.171-.016C368.5.751,368.109.766,367.721.766Zm1.356-.016q37.783-.606,75.589-.73Q406.871.137,369.077.751Zm75.688-.73h0Zm1.5,0h0Zm1.516,0c.684,0,1.387,0,2.069-.016C449.158.021,448.475.021,447.78.021Zm2.281-.016h0Zm1.507,0h0Zm1.582,0h0Zm1.986,0h0Zm1.743,0h0Zm1.644,0h0Z" transform="translate(12.555 0.003)" fill="#e5ad70"/><path d="M602.39,4.563c-.426-.031-.85-.047-1.276-.062C601.537,4.516,601.968,4.532,602.39,4.563Zm-2.955-.124a1.192,1.192,0,0,0-.235-.016A1.192,1.192,0,0,1,599.435,4.439ZM211.512,1.207c.18,0,.378,0,.559-.016C211.885,1.207,211.7,1.207,211.512,1.207Zm1.37-.031c.332-.016.665-.016,1-.031C213.549,1.161,213.213,1.161,212.882,1.176Z" transform="translate(81.613 0.634)" fill="#fff"/><path d="M99.408,41.3C74.34,41.3,47.48,40.072,18.4,37.2q.268-.886.541-1.771a.327.327,0,0,1,.017-.062c.033-.109.064-.2.1-.311q1.223-3.985,2.5-7.97a15.618,15.618,0,0,1,3.494-5.748c.009-.016.019-.031.028-.031s0-.016,0-.016a20.154,20.154,0,0,1,2.105-1.926c26.514,1.569,50.95,2.253,73.62,2.253,83.358,0,142.811-9.337,193.479-19.109h.006q12.057-.373,24.13-.668c.185,0,.373,0,.559-.016.27,0,.539-.016.811-.016.331-.016.666-.016,1-.031h.188q18.878-.466,37.762-.808h.079c.516-.016,1.021-.031,1.537-.031h.144c.534-.016,1.07-.031,1.6-.031h.222c.427-.016.847-.016,1.276-.031.2,0,.405,0,.607-.016.292,0,.589,0,.881-.016h.736c.233-.016.471-.016.7-.016.283,0,.561-.016.844-.016h.093l2.369-.047h.258c.388,0,.783-.016,1.171-.016h.185q37.8-.606,75.589-.73h3.115c.694,0,1.378,0,2.069-.016h12.165q23.329,0,46.662.186c58.108,12.087,91.606,21.253,119.518,21.253,20.354,0,37.738-4.878,59.524-17.043l16.019.653a1.192,1.192,0,0,1,.235.016c.558.016,1.122.047,1.679.062.426.016.85.031,1.276.062h.317c.893.047,1.788.078,2.683.124h.1l1.137.047.974.047c.12,0,.239.016.36.016l3.336.14c-33.865,22.558-57.783,31.041-87.867,31.041-33.44,0-74.5-10.487-145.264-23.754a399.529,399.529,0,0,0-70.5-6.214c-49.213,0-94.547,8.669-144.295,17.323C220.523,32.631,166.343,41.3,99.407,41.3Z" transform="translate(10.186 0.003)" fill="#d78f51"/><path d="M362.59,33.391l-.057-.016.048.016h.009Z" transform="translate(164.979 18.476)" fill="#d78f51"/><path d="M625.04,61.872c-26.743,0-53.088-3.014-78.187-10.223-.012,0-.053-.016-.124-.031-2.047-.684-28.274-9.415-29.973-9.974h-.009Q505.933,37.59,495.1,34.653a256.87,256.87,0,0,0-37.021-7.147h-.025a317.922,317.922,0,0,0-37.842-2.144c-33.789,0-69,4.568-107.066,10.285-13.2,1.989-26.745,4.117-40.695,6.245q-15.5,2.377-31.69,4.676c-29.417,4.148-60.649,7.846-94.217,9.974-18.739,1.2-38.192,1.9-58.465,1.9-23.767,0-48.662-.963-74.8-3.2.244-1.01.49-2.035.739-3.045.017-.078.035-.155.053-.233l.013-.047c.076-.311.154-.621.231-.948,27.023,2.408,52.369,3.433,76.31,3.418,70.85,0,129.25-8.98,181.3-17.96s97.754-17.96,143.255-17.96q13.455,0,26.939,1.119L457.4,21.122C512.693,31.158,547.878,45.3,547.9,45.3h0c24.34,6.945,49.838,9.881,75.781,9.881,51.346,0,104.419-11.5,153.607-26.054q4.043,2.727,7.914,5.484c-40.1,11.885-83.4,22.077-126.538,25.774-11.242.963-22.464,1.491-33.623,1.491Z" transform="translate(7.356 10.222)" fill="#d78f51"/><path d="M307.527,111.356q-10.5-1.328-21-2.828c11.3-1.678,18.7-3.868,21.017-6.712C295.76,81.4,192.585,74.831,91.714,74.831c-29.046,0-57.918.544-84.34,1.46a8.81,8.81,0,0,1-.239-4.412c.23-1.227.463-2.439.7-3.651,27-1.056,56.75-1.693,86.818-1.693,93.613,0,190.238,6.261,215.976,26.178,6.093,4.676,6.031,8.98,4.9,11.761-.741,1.818-1.771,4.35-8,6.882Z" transform="translate(3.855 36.833)" fill="#d78f51"/><path d="M806.588,82.583c-72.559,0-159.352-3.2-239.42-6.385s-153.419-6.385-199.126-6.385c-20.406,0-35.3.637-42.826,2.191-8.862,1.445-22.3,2.035-38.839,2.035-75.043,0-213.72-12.4-276.3-15.738.132-.621.264-1.258.4-1.9.023-.109.048-.217.073-.342.009-.031.016-.062.025-.109.267-1.243.537-2.5.812-3.76.01-.047.022-.093.032-.14.028-.124.054-.249.081-.373.025-.109.049-.233.075-.342.006-.031.012-.047.017-.078.07-.326.141-.637.21-.948.142,0,.287.016.431.016l.8.047,2.025.093c.138.016.268.016.408.031.158,0,.329.016.489.016l.718.047c.142,0,.278.016.421.016l.779.047c.355.016.727.031,1.085.062h.094c64.73,3.558,196.421,14.883,267.758,14.868h.009c15.684,0,28.47-.544,36.961-1.849l.637-.093c4.9-1.041,12.958-1.693,23.646-2.02h0a.815.815,0,0,0,.193-.016h.2c6.106-.186,13.059-.28,20.763-.28,47.42,0,123.286,3.278,205.194,6.556C656.325,71.118,744.288,74.4,815.9,74.4c11.36,0,22.3-.078,32.748-.264q2.332,3.962,4.217,7.923c-14.562.357-30.062.528-46.277.528Z" transform="translate(5.577 27.854)" fill="#d78f51"/><path d="M442.177,108.387c-25.5-5.873-39.509-12.957-35.326-21.486,3.166-6.478,25.508-9,57.861-9,43.235,0,104.35,4.49,161.4,10.036.006.016,0,.016.011.016q-13.992,1.538-28.014,3.216c-3.875.5-7.752.979-11.63,1.476-48.059-4.133-95.065-7.115-127.906-7.115-22.985,0-39.034,1.46-43.633,5.018,5.026,5.733,25.157,10.813,55.168,15.272q-13.959,1.352-27.931,2.563Z" transform="translate(164.767 43.128)" fill="#d78f51"/><path d="M305.231,55.053c-24.954,0-44.944-3.915-44.754-8.933.193-5.049,20.594-9.337,45.558-9.415h.668c24.657,0,44.594,4.148,44.666,9.166.073,5.08-20.324,9.12-45.55,9.182Z" transform="translate(115.813 20.32)" fill="#d78f51"/></g><path d="M610.633,159.1v0Zm-.008-.078h0Zm-.009-.062h0Zm-.02-.124s0,0,0-.016C610.594,158.838,610.6,158.838,610.6,158.838Zm-.011-.062,0-.016Zm-.011-.062,0-.016Zm-.011-.062,0-.016Zm-.012-.062c0-.016,0-.016,0-.016S610.55,158.574,610.55,158.59Zm-.012-.062c0-.016,0-.016,0-.016S610.538,158.512,610.538,158.528Zm-.012-.078h0Zm-.012-.062h0Zm-.014-.062s0,0,0-.016C610.5,158.326,610.5,158.326,610.5,158.326Zm-.014-.062s0,0,0-.016C610.484,158.264,610.484,158.264,610.485,158.264Zm-.016-.062h0Zm-.014-.062h0Zm-.016-.062h0Zm-.016-.062h0Z" transform="translate(277.868 87.476)" fill="#efd6c2"/><path d="M882.053,209.95l-.662-.047a.739.739,0,0,1-.183-.016c-4.885-.3-9.94-.637-15.178-.979a3.62,3.62,0,0,1-.407-.031l-.9-.047a.332.332,0,0,0-.122-.016c-.175-.016-.365-.016-.54-.031-.153-.016-.306-.016-.457-.031-.527-.031-1.049-.078-1.579-.109-.153-.016-.3-.016-.45-.031-.071,0-.154-.016-.224-.016-.3-.016-.579-.031-.875-.062-.143,0-.294-.016-.436-.016l-.605-.047c-1.333-.093-2.664-.186-4.016-.264-.495-.047-.988-.078-1.486-.109-.387-.031-.78-.047-1.17-.078h0c-37.377-2.532-82.136-5.826-130.784-9.244l-3.49-.233c-4.315-.311-8.682-.606-13.053-.917-9.5-.652-19.091-1.321-28.823-1.973,39.4-12.056,74.342-26.163,103.447-41.512,28.659.388,60.478.792,95.746,1.2,3.213.031,6.46.078,9.731.109a9.853,9.853,0,0,1,2.647,4.707h0a.4.4,0,0,1,.013.062h0a.4.4,0,0,1,.013.062h0a.463.463,0,0,1,.012.062h0c0,.016.009.031.012.047s0,.016,0,.016c0,.016.007.031.01.047s0,.016,0,.016a.5.5,0,0,1,.01.062h0a.557.557,0,0,1,.009.062h0a.526.526,0,0,0,.01.062s0,0,0,.016.007.031.01.047c0,0,0,0,0,.016s.006.031.01.047v.016l.009.047v.016l.009.047v.016l.009.047c0,.016,0,.016,0,.016a.542.542,0,0,1,.009.062c0,.016.006.047.009.062h0a.386.386,0,0,0,.007.062h0a.38.38,0,0,0,.007.062v.016a9.985,9.985,0,0,1,.07,1.585q-.611,17.781-2.177,35.546c-.119,1.367-.244,2.734-.372,4.086,0,.031,0,.062-.007.078a10.8,10.8,0,0,1-.444,2.16h0l-.018.047c0,.016,0,.016,0,.016l-.017.047c0,.016,0,.016,0,.016,0,.016-.01.031-.016.047s0,.016-.006.016l-.013.047c0,.016-.006.016-.009.031,0,0-.009.016-.013.031s-.006.016-.009.031c0,0-.007.016-.012.031a.265.265,0,0,0-.01.031s-.009.016-.012.031-.009.016-.012.031-.007.016-.01.031c0,0-.009.016-.015.031s0,.016-.007.016l-.018.047c0,.016,0,.016,0,.016a.4.4,0,0,0-.02.062h0a12.21,12.21,0,0,1-3.162,4.6ZM51.016,208.6c-16.985,0-32.735-.917-47.086-2.3a11.114,11.114,0,0,1-1.093-3.822v-.016a.132.132,0,0,1,0-.031c-.015-.171-.031-.326-.045-.482l-.02-.217c-.01-.109-.02-.217-.029-.326l-.049-.528c-.009-.093-.016-.186-.025-.264-.007-.093-.016-.171-.023-.264l-.028-.3c-.006-.078-.013-.155-.02-.217-.009-.109-.019-.218-.029-.326-.006-.078-.012-.14-.017-.218-.01-.093-.019-.2-.029-.311l-.019-.2c-.009-.124-.019-.233-.029-.342-.006-.062-.012-.124-.017-.2-.009-.093-.017-.2-.028-.311-.006-.062-.013-.14-.019-.218-.009-.109-.017-.2-.026-.311l-.02-.217c-.009-.109-.017-.2-.026-.311-.006-.078-.013-.155-.019-.217-.009-.109-.017-.2-.025-.311l-.022-.233c-.007-.093-.015-.186-.023-.28s-.015-.171-.022-.264-.015-.186-.022-.264c-.007-.093-.015-.171-.022-.264s-.016-.186-.023-.28c-.007-.078-.013-.155-.02-.249s-.016-.186-.023-.28-.013-.171-.02-.249l-.022-.28c-.007-.078-.015-.171-.022-.264s-.015-.171-.022-.264-.015-.186-.023-.28c-.006-.078-.012-.171-.019-.249-.007-.093-.015-.2-.023-.3-.006-.078-.012-.155-.019-.233V192.1c-.009-.109-.017-.217-.025-.311-.006-.078-.01-.14-.016-.2,0-.016,0-.016,0-.031l-.026-.326c0-.062-.009-.124-.013-.171,0-.016,0-.031,0-.047-.012-.14-.022-.28-.032-.419,0,0,0-.016,0-.016,0-.016,0-.031,0-.047s0-.031,0-.047c-.012-.14-.022-.3-.033-.435,0-.031-.006-.078-.009-.124-.012-.14-.022-.28-.032-.419,0-.047-.006-.078-.009-.109-.01-.155-.022-.3-.033-.451,0-.031,0-.062-.006-.093-.012-.155-.023-.3-.033-.451,0-.031,0-.062-.007-.093-.01-.155-.022-.3-.032-.451l0-.031v-.016l0-.047c-.012-.155-.022-.311-.033-.466,0-.016,0-.031,0-.047-.013-.171-.023-.342-.036-.5v-.016s0-.016,0-.016v-.016c-.013-.171-.025-.342-.036-.513h0c-.012-.186-.025-.357-.036-.544Q.827,176.4.45,167.18c32.893,13.874,71.052,26.6,113.129,37.255A471.611,471.611,0,0,1,51.015,208.6ZM.447,167.133c-.009-.2-.016-.419-.025-.637C.431,166.714.439,166.931.447,167.133Zm-.035-.886c-.007-.171-.015-.357-.02-.528C.4,165.89.405,166.077.412,166.248Zm-.035-.9c-.006-.14-.012-.28-.016-.419C.366,165.067.372,165.207.378,165.346Zm-.029-.761c0-.124-.009-.233-.013-.357C.34,164.337.344,164.461.348,164.585Zm-.036-.994c0-.078-.006-.155-.009-.249C.306,163.435.309,163.513.312,163.591Zm-.023-.684c0-.062,0-.124-.006-.186C.284,162.783.286,162.845.289,162.907Zm-.035-1.056,0-.093Zm-.02-.606a.222.222,0,0,0,0-.031C.232,161.229.233,161.229.233,161.245Z" transform="translate(0.129 85.334)" fill="#da9659"/><path d="M759.336,139.954C691.372,147.6,506.589,113.807,399.583,103.8,332.236,97.215,122.339,116.4.927,129.7c-.163,2.765-.308,5.515-.437,8.281,603.78-29.534,267.485-15.862,661.208,14.246,63.383,4.816,94.7,1.414,124-2,27.621-3.2,53.45-6.416,102.663-2.75-.087-2.734-.192-5.484-.314-8.219-43.963-4.645-87.509-5.515-128.708.7Z" transform="translate(0.272 56.723)" fill="#ce7f42"/></g><g transform="translate(13104.701 13971.166) rotate(-3)"><g transform="matrix(0.996, -0.087, 0.087, 0.996, 0, 57.269)"><g transform="translate(0 19.716)"><g clip-path="url(#b)" style="isolation:isolate"><g transform="translate(-76.767 -79.03)"><g transform="translate(0 588.972) rotate(-69.316)"><path d="M96.266,156.963c-17.31,23.7-80.524,70.371-94.007,112.426S40.05,392.871,40.05,392.871s-8.534,24.721,4.62,44.272S66.05,457.531,66.05,457.531s36.7,99.436,51.437,110.266,109.391-4.237,109.391-4.237,67.73,34.839,116.029,43.2,56.885-10.843,73.838-14.5,30.342,1.916,38.765-14.9c0,0,35.282-5.946,41.5-15.844s5.588-17.431,5.588-17.431,21.343-3.146,33.064-18.888,12.565-23.106,12.565-23.106,19.931-7.271,29.742-22.719S584.92,452,584.92,452s15.625-8.975,21.628-31.467,1.8-30.266,1.8-30.266,14.106-15.581,14.5-31.951-5.042-21.19-5.042-21.19,11.555-14.269,11.461-33.852-15.032-25.048-15.032-25.048,12.991-16.857,8.055-37.4S604.9,218.371,604.9,218.371s9.74-13.332.237-32.917S579.429,160.6,579.429,160.6s4.544-11.352-5.457-26.518-25.412-22.007-25.412-22.007,5.291-9.887-12.232-28.108-30.9-13.4-30.9-13.4-2.859-11.925-17.736-20.426-31.035-8.253-31.035-8.253-3.891-10.566-16.218-17.558-32.154-3.355-32.154-3.355-6.341-9.088-22.087-12.981-25.171,3.735-25.171,3.735S350.137.249,327.76,0,300.1,10.568,300.1,10.568s-6.365-6.65-20.231-5.046S259.693,16.38,259.693,16.38A30.956,30.956,0,0,0,240.844,12.7c-10.489,1.48-20.89,12.153-20.89,12.153s-17.581-4.8-27.37,3.021S173.6,48.283,170.052,49.88s-17.75,6.146-39.94,45.066S96.266,156.963,96.266,156.963Z" transform="translate(0.648 0)" fill="#e0704e"/><path d="M130,30.306S85.57,189.7,0,373.3c0,0,184.013-358.127,179.9-368.017S147.312-2.867,130,30.306Z" transform="translate(39.943 19.964)" fill="#f58c7d"/><path d="M218.885,12.309S224.967,17.95,187.1,88.74,89.359,238.424,0,388.409c0,0,247.78-333.718,259.288-381.913C259.288,6.5,241.675-11.448,218.885,12.309Z" transform="translate(40.698 4.462)" fill="#f58c7d"/><path d="M322.2,5.595S88.975,294.375,0,393.308c0,0,323.5-323.393,369.46-378.467C369.46,14.841,345.149-11.083,322.2,5.595Z" transform="translate(38.711 6.525)" fill="#f58c7d"/><path d="M418.311.916S23.691,344.794,0,364.285L467.081,29.594S460.628-6.109,418.311.916Z" transform="translate(38.228 41.362)" fill="#f58c7d"/><path d="M510.459,0,0,299.779,541.328,48.526S553.264,16.966,510.459,0Z" transform="translate(37.987 112.467)" fill="#f58c7d"/><path d="M566.285,0,0,199.914,575.61,59.855S603.81,18.3,566.285,0Z" transform="translate(38.514 218.761)" fill="#f58c7d"/><path d="M578.275,0,0,89.244l568.82-36.1S603.047,31.574,578.275,0Z" transform="translate(39.431 337.517)" fill="#f58c7d"/><path d="M541.575,18.715,0,0,504.881,68.808S547.46,60.951,541.575,18.715Z" transform="translate(43.233 433.675)" fill="#f58c7d"/><path d="M454.283,103.235,0,0,407.2,136.51S454.225,145.069,454.283,103.235Z" transform="translate(48.203 441.242)" fill="#f58c7d"/><path d="M341.474,138.275,0,0S235.516,138.065,241.023,139.838,307.387,177.731,341.474,138.275Z" transform="translate(65.944 457.92)" fill="#f58c7d"/><path d="M94.935,0S72.418,149.557,40.7,233.343c0,0-48.467-72.2-39.619-117.781S72.931,29.051,94.935,0Z" transform="translate(0 159.527)" fill="#e0704e"/><path d="M0,0S26.4,91.809,51.437,110.266s109.39-4.237,109.39-4.237S19.078,8.643,0,0Z" transform="translate(66.7 457.531)" fill="#e0704e"/><path d="M55.284,4.281,0,158.327S78.349,5.845,73.874,1.425,55.284,4.281,55.284,4.281Z" transform="translate(129.633 36.022)" fill="#f8b0ae"/><path d="M0,230.083,184.052,5.185S199.89-7.463,207.118,6.749Z" transform="translate(181.093 15.091)" fill="#f8b0ae"/><path d="M312.218.059C309.418.19,0,266.352,0,266.352L337.167,14.1S336.136-1.062,312.218.059Z" transform="translate(152.506 49.607)" fill="#f8b0ae"/><path d="M394.143,0,0,227.808,411.262,29.29S427.017,7.718,394.143,0Z" transform="translate(152.844 123.85)" fill="#f8b0ae"/><path d="M447.143,0,0,154.235,447.487,35.7S473.907,17.594,447.143,0Z" transform="translate(154.904 227.748)" fill="#f8b0ae"/><path d="M453.33,0,0,63.257l444.717-36.4S464.944,9.706,453.33,0Z" transform="translate(159.631 349.92)" fill="#f8b0ae"/><path d="M392.035,17.768S-.86,2.794,0,.108,377.229,45.578,377.229,45.578,402.8,30.16,392.035,17.768Z" transform="translate(175.892 445.043)" fill="#f8b0ae"/><path d="M0,0,337.625,77.088s2.847,18.715-27.287,20.79Z" transform="translate(153.08 470.363)" fill="#f8b0ae"/><path d="M0,0,210.073,89.023s-15.838,12.647-64.807-9.2S0,0,0,0Z" transform="translate(176.485 507.622)" fill="#f8b0ae"/><path d="M.069,84.031c-1.8,2.356,32.483-33.93,42.293-27.777S26.236,225.99,26.236,225.99,50.755,160.735,62.4,95.846,77.493,0,77.493,0,23.714,53.161.069,84.031Z" transform="translate(14.368 163.337)" fill="#a74537"/><path d="M0,0S141.74,75.934,157.528,107.646c0,0-71.141,27.19-104.186,1.623,0,0,34.684,11.27,33.484-21.742S0,0,0,0Z" transform="translate(66.068 456.915)" fill="#a74537"/><path d="M16.466.008S-4.708,10.922.966,48.353s27.27,71.141,27.27,71.141S40.394-1.115,16.466.008Z" transform="translate(7.725 247.564)" fill="#f58c7d"/><path d="M0,0S21.074,72.094,36.22,79.98s14.032-16.2,14.032-16.2S25.818,11.356,0,0Z" transform="translate(79.493 470.174)" fill="#f58c7d"/><path d="M575.5,0,0,141.021l1.638,6.994L579.078,58.9S167.857,120.126,163.21,113.18,575.5,0,575.5,0Z" transform="translate(38.628 278.617)" fill="#be564c"/><path d="M467.322,0,.241,334.691,0,341.288,510.458,41.51S161.85,242.086,154.979,238.251,467.322,0,467.322,0Z" transform="translate(37.988 70.957)" fill="#be564c"/><path d="M369.943,0,.483,378.467,0,384.281,418.311,20.911S162.938,237,156.507,236.4,369.943,0,369.943,0Z" transform="translate(38.228 21.367)" fill="#be564c"/><path d="M261.275,0s-23.9,50.69-74.735,123.769S1.987,381.912,1.987,381.912L0,388.876,322.2,1.162S110.684,249.619,108.075,247.041,273.82,15.931,261.275,0Z" transform="translate(38.711 10.958)" fill="#be564c"/><path d="M177.329,8.471s-25.9,62.03-55.706,121.988S0,371.195,0,371.195s81.042-126.28,99.263-155.565S208.848,59.264,217.068,0c0,0-55.1,109.964-86.642,156.433S95.991,203.882,94.721,203.25,181.657,15.349,177.329,8.471Z" transform="translate(42.515 16.771)" fill="#be564c"/><path d="M50.7,115.24s-7.9,59.01-17.273,105.15S0,337.172,0,337.172s37.615-77.226,60.9-139.049S129.041,0,129.041,0,55.88,207.546,49.45,208.051s4.584-98.793,4.584-98.793Z" transform="translate(40.901 50.268)" fill="#be564c"/><path d="M567.833,0,0,36.425l2.815,6.591L544.391,61.731S183.912,43.541,183.633,37.52,567.833,0,567.833,0Z" transform="translate(40.418 390.657)" fill="#be564c"/><path d="M459.253,110.8,4.97,7.568,0,0,504.88,68.809S240.928,38.257,231.143,42.739,459.253,110.8,459.253,110.8Z" transform="translate(43.233 433.674)" fill="#be564c"/><path d="M407.2,136.51,0,0S9.245,14.991,18.5,16.288L359.215,154.953S148.59,61.231,146.068,58.378,407.2,136.51,407.2,136.51Z" transform="translate(48.203 441.242)" fill="#be564c"/><path d="M541.328,0,0,251.254l.434,5.987L566.812,57.771S222.332,172.446,215.9,168.012,541.328,0,541.328,0Z" transform="translate(37.987 160.992)" fill="#be564c"/></g></g></g></g><rect width="657.085" height="667.385" transform="translate(0 0)" fill="none"/><g transform="translate(247.474 537.027)"><rect width="162.432" height="104.168" rx="52.084" transform="translate(0 14.125)" fill="#ffce19"/><path d="M27.661.294A27.57,27.57,0,0,0,22.145.85,27.215,27.215,0,0,0,12.36,4.968,27.447,27.447,0,0,0,2.445,17.008,27.226,27.226,0,0,0,.85,22.145a27.572,27.572,0,0,0-.556,5.516V76.508A27.572,27.572,0,0,0,.85,82.023a27.215,27.215,0,0,0,4.118,9.785,27.447,27.447,0,0,0,12.041,9.915,27.226,27.226,0,0,0,5.137,1.594,27.57,27.57,0,0,0,5.516.556H134.772a27.571,27.571,0,0,0,5.516-.556,27.215,27.215,0,0,0,9.785-4.118,27.448,27.448,0,0,0,9.915-12.041,27.228,27.228,0,0,0,1.594-5.137,27.572,27.572,0,0,0,.556-5.516V27.661a27.572,27.572,0,0,0-.556-5.516,27.214,27.214,0,0,0-4.118-9.785,27.447,27.447,0,0,0-12.041-9.915A27.226,27.226,0,0,0,140.287.85a27.57,27.57,0,0,0-5.516-.556H27.661m0-.294H134.772a27.661,27.661,0,0,1,27.661,27.661V76.508a27.661,27.661,0,0,1-27.661,27.661H27.661A27.661,27.661,0,0,1,0,76.508V27.661A27.661,27.661,0,0,1,27.661,0Z" transform="translate(0 14.125)" fill="#707070"/><text transform="translate(80.553 101)" font-size="145" font-family="HappyCloverDisplay, Happy Clover"><tspan x="-30.45" y="0">c</tspan></text></g></g></g><g transform="translate(13766.728 14084.831)"><g transform="matrix(1, 0, 0, 1, -625.03, -112.97)" filter="url(#c)"><text transform="translate(681.92 364.8) rotate(-5)" fill="#9b6d43" stroke="#4e3620" stroke-width="12" font-size="250" font-family="Impact"><tspan x="0" y="0">8</tspan></text></g><g transform="matrix(1, 0, 0, 1, -625.03, -112.97)" filter="url(#e)"><text transform="matrix(0.99, 0.1, -0.1, 0.99, 825.57, 508.04)" fill="#9b6d43" stroke="#4e3620" stroke-width="12" font-size="250" font-family="Impact"><tspan x="0" y="0">9</tspan></text></g><g transform="matrix(1, 0, 0, 1, -625.03, -112.97)" filter="url(#g)"><text transform="translate(986.33 312.72) rotate(14)" fill="#9b6d43" stroke="#4e3620" stroke-width="12" font-size="250" font-family="Impact"><tspan x="0" y="0">a</tspan></text></g><g transform="matrix(1, 0, 0, 1, -625.03, -112.97)" filter="url(#i)"><text transform="matrix(1, 0.07, -0.07, 1, 1137.11, 512.32)" fill="#9b6d43" stroke="#4e3620" stroke-width="12" font-size="250" font-family="Impact"><tspan x="0" y="0">b</tspan></text></g></g></g></g></svg>