<svg xmlns="http://www.w3.org/2000/svg" xmlns:xlink="http://www.w3.org/1999/xlink" width="643.672" height="161.455" viewBox="0 0 643.672 161.455"><defs><linearGradient id="a" x1="0.5" x2="0.5" y2="1" gradientUnits="objectBoundingBox"><stop offset="0" stop-color="#fff"/><stop offset="1" stop-color="#fff" stop-opacity="0"/></linearGradient></defs><path d="M112.471-43.613q0,21.27-15.308,33.516T54.57,2.148Q29.434,2.148,10.1-7.3V-38.242a183.27,183.27,0,0,0,26.909,9.99,79.626,79.626,0,0,0,20.142,2.9q10.957,0,16.812-4.189T79.814-42a13.756,13.756,0,0,0-2.578-8.218,28.849,28.849,0,0,0-7.573-6.929q-5-3.33-20.356-10.635-14.395-6.768-21.592-13a48.8,48.8,0,0,1-11.494-14.5,41.384,41.384,0,0,1-4.3-19.336q0-20.84,14.126-32.764T65.1-159.307a92.209,92.209,0,0,1,23.364,2.9,160.6,160.6,0,0,1,23.257,8.164l-10.742,25.889a157.167,157.167,0,0,0-20.786-7.2,66.906,66.906,0,0,0-16.167-2.041q-9.453,0-14.5,4.4a14.528,14.528,0,0,0-5.049,11.494,14.225,14.225,0,0,0,2.041,7.681,22.441,22.441,0,0,0,6.5,6.338q4.458,3.062,21.108,11.011,22.021,10.527,30.186,21.108T112.471-43.613ZM269.629,0H236.436V-67.783h-62.2V0h-33.3V-157.051h33.3V-95.5h62.2v-61.553h33.193ZM399.717,0H309.268V-157.051h90.449v27.285H342.568v34.482h53.174V-68H342.568v40.5h57.148ZM432.48,0V-157.051h33.3V-27.5h63.7V0ZM556.768,0V-157.051h33.3V-27.5h63.7V0Z" transform="translate(-10.098 159.307)" fill="url(#a)"/></svg>