<svg xmlns="http://www.w3.org/2000/svg" xmlns:xlink="http://www.w3.org/1999/xlink" width="1576.416" height="370.67" viewBox="0 0 1576.416 370.67"><defs><linearGradient id="a" x1="0.5" x2="0.5" y2="1" gradientUnits="objectBoundingBox"><stop offset="0" stop-color="#fff"/><stop offset="1" stop-color="#fff" stop-opacity="0"/></linearGradient></defs><path d="M19.766,0V-157.051h33.3V-27.5h63.7V0ZM234.5,0H144.053V-157.051H234.5v27.285H177.354v34.482h53.174V-68H177.354v40.5H234.5ZM363.408,0,352.021-37.383H294.766L283.379,0H247.5l55.43-157.7h40.713L399.287,0ZM344.072-65.312q-15.791-50.811-17.778-57.471t-2.847-10.527q-3.545,13.75-20.3,68ZM549.355-80.029q0,38.779-22.075,59.4T463.525,0H419.053V-157.051h49.307q38.457,0,59.727,20.3T549.355-80.029Zm-34.59.859q0-50.6-44.687-50.6H452.354V-27.5h14.287Q514.766-27.5,514.766-79.17ZM672.354,0H581.9V-157.051h90.449v27.285H615.205v34.482h53.174V-68H615.205v40.5h57.148Zm66.064-87.334H749.16q15.791,0,23.311-5.264t7.52-16.543q0-11.172-7.681-15.9t-23.794-4.727h-10.1Zm0,27.07V0h-33.3V-157.051h45.762q32.012,0,47.373,11.655T813.613-110a41.669,41.669,0,0,1-7.627,24.653q-7.627,10.8-21.592,16.919Q819.844-15.469,830.586,0H793.633l-37.49-60.264Zm111.934-96.787h48.877q33.408,0,48.5,9.507T962.822-117.3q0,14.072-6.606,23.1a26.391,26.391,0,0,1-17.563,10.85v1.074q14.932,3.33,21.538,12.461T966.8-45.547q0,21.484-15.522,33.516T909.111,0h-58.76Zm33.3,62.2h19.336q13.535,0,19.6-4.189t6.069-13.857q0-9.023-6.606-12.944t-20.894-3.921h-17.51Zm0,26.426V-27.5h21.7q13.75,0,20.3-5.264t6.553-16.113q0-19.551-27.93-19.551ZM1140.713-78.74q0,38.994-19.336,59.941t-55.43,20.947q-36.094,0-55.43-20.947T991.182-78.955q0-39.209,19.39-59.888t55.591-20.679q36.2,0,55.376,20.84T1140.713-78.74Zm-114.619,0q0,26.318,9.99,39.639t29.863,13.32q39.853,0,39.854-52.959,0-53.066-39.639-53.066-19.873,0-29.971,13.374T1026.094-78.74ZM1265,0l-11.387-37.383h-57.256L1184.971,0h-35.879l55.43-157.7h40.713L1300.879,0Zm-19.336-65.312q-15.791-50.811-17.778-57.471t-2.847-10.527q-3.545,13.75-20.3,68Zm108.281-22.021h10.742q15.791,0,23.311-5.264t7.52-16.543q0-11.172-7.681-15.9t-23.794-4.727h-10.1Zm0,27.07V0h-33.3V-157.051h45.762q32.012,0,47.373,11.655t15.361,35.4a41.669,41.669,0,0,1-7.627,24.653q-7.627,10.8-21.592,16.919Q1435.371-15.469,1446.113,0H1409.16l-37.49-60.264Zm242.236-19.766q0,38.779-22.075,59.4T1510.352,0h-44.473V-157.051h49.307q38.457,0,59.727,20.3T1596.182-80.029Zm-34.59.859q0-50.6-44.687-50.6H1499.18V-27.5h14.287Q1561.592-27.5,1561.592-79.17ZM150.068,128.971q0,38.779-22.075,59.4T64.238,209H19.766V51.949H69.072q38.457,0,59.727,20.3T150.068,128.971Zm-34.59.859q0-50.6-44.687-50.6H53.066V181.5H67.354Q115.479,181.5,115.479,129.83Zm100.439-8.164H226.66q15.791,0,23.311-5.264t7.52-16.543q0-11.172-7.681-15.9t-23.794-4.727h-10.1Zm0,27.07V209h-33.3V51.949h45.762q32.012,0,47.373,11.655T291.113,99a41.669,41.669,0,0,1-7.627,24.653q-7.627,10.8-21.592,16.919Q297.344,193.531,308.086,209H271.133l-37.49-60.264ZM470.4,130.26q0,38.994-19.336,59.941t-55.43,20.947q-36.094,0-55.43-20.947t-19.336-60.156q0-39.209,19.39-59.888T395.85,49.479q36.2,0,55.376,20.84T470.4,130.26Zm-114.619,0q0,26.318,9.99,39.639t29.863,13.32q39.854,0,39.854-52.959,0-53.066-39.639-53.066-19.873,0-29.971,13.374T355.781,130.26Zm180.469-4.4h10.957q15.361,0,22.988-6.069t7.627-17.671q0-11.709-6.392-17.295T551.4,79.234H536.25Zm75.2-24.922q0,25.352-15.845,38.779t-45.063,13.428H536.25V209h-33.3V51.949h50.166q28.574,0,43.452,12.3T611.445,100.934Z" transform="translate(-19.766 159.521)" fill="url(#a)"/></svg>