<svg xmlns="http://www.w3.org/2000/svg" xmlns:xlink="http://www.w3.org/1999/xlink" width="1600.371" height="161.67" viewBox="0 0 1600.371 161.67"><defs><linearGradient id="a" x1="0.5" x2="0.5" y2="1" gradientUnits="objectBoundingBox"><stop offset="0" stop-color="#fff"/><stop offset="1" stop-color="#fff" stop-opacity="0"/></linearGradient></defs><path d="M148.457,0H115.264V-67.783h-62.2V0h-33.3V-157.051h33.3V-95.5h62.2v-61.553h33.193ZM284.238,0,272.852-37.383H215.6L204.209,0H168.33l55.43-157.7h40.713L320.117,0ZM264.9-65.312q-15.791-50.811-17.778-57.471t-2.847-10.527q-3.545,13.75-20.3,68Zm167.686,21.7q0,21.27-15.308,33.516T374.688,2.148q-25.137,0-44.473-9.453V-38.242a183.27,183.27,0,0,0,26.909,9.99,79.626,79.626,0,0,0,20.142,2.9q10.957,0,16.812-4.189T399.932-42a13.756,13.756,0,0,0-2.578-8.218,28.849,28.849,0,0,0-7.573-6.929q-5-3.33-20.356-10.635-14.395-6.768-21.592-13a48.8,48.8,0,0,1-11.494-14.5,41.384,41.384,0,0,1-4.3-19.336q0-20.84,14.126-32.764t39.048-11.924a92.209,92.209,0,0,1,23.364,2.9,160.6,160.6,0,0,1,23.257,8.164l-10.742,25.889a157.167,157.167,0,0,0-20.786-7.2,66.906,66.906,0,0,0-16.167-2.041q-9.453,0-14.5,4.4a14.528,14.528,0,0,0-5.049,11.494,14.225,14.225,0,0,0,2.041,7.681,22.441,22.441,0,0,0,6.5,6.338q4.458,3.062,21.108,11.011,22.021,10.527,30.186,21.108T432.588-43.613ZM589.746,0H556.553V-67.783h-62.2V0h-33.3V-157.051h33.3V-95.5h62.2v-61.553h33.193Zm96.787,0V-157.051h33.3V-27.5h63.7V0ZM948.965-78.74q0,38.994-19.336,59.941T874.2,2.148q-36.094,0-55.43-20.947T799.434-78.955q0-39.209,19.39-59.888t55.591-20.679q36.2,0,55.376,20.84T948.965-78.74Zm-114.619,0q0,26.318,9.99,39.639T874.2-25.781q39.854,0,39.854-52.959,0-53.066-39.639-53.066-19.873,0-29.971,13.374T834.346-78.74ZM1035.547,0h-33.3V-129.336H959.6v-27.715h118.594v27.715h-42.646Zm131.807,0h-33.3V-129.336h-42.646v-27.715H1210v27.715h-42.646Zm157.266,0H1234.17V-157.051h90.449v27.285h-57.148v34.482h53.174V-68h-53.174v40.5h57.148Zm66.064-87.334h10.742q15.791,0,23.311-5.264t7.52-16.543q0-11.172-7.681-15.9t-23.794-4.727h-10.1Zm0,27.07V0h-33.3V-157.051h45.762q32.012,0,47.373,11.655t15.361,35.4a41.669,41.669,0,0,1-7.627,24.653q-7.627,10.8-21.592,16.919Q1472.109-15.469,1482.852,0H1445.9l-37.49-60.264Zm160.811-32.119,32.764-64.668h35.879l-52.1,95.928V0h-33.086V-60.049l-52.1-97h36.094Z" transform="translate(-19.766 159.521)" fill="url(#a)"/></svg>