<svg xmlns="http://www.w3.org/2000/svg" xmlns:xlink="http://www.w3.org/1999/xlink" width="1358" height="646" viewBox="0 0 1358 646">
  <defs>
    <linearGradient id="linear-gradient" x1="0.012" y1="0.023" x2="0.745" y2="0.709" gradientUnits="objectBoundingBox">
      <stop offset="0" stop-color="#ff8815"/>
      <stop offset="1" stop-color="#ff8815" stop-opacity="0"/>
    </linearGradient>
    <linearGradient id="linear-gradient-2" x1="0.012" y1="0.977" x2="0.724" y2="0.417" gradientUnits="objectBoundingBox">
      <stop offset="0" stop-color="#ff0f52"/>
      <stop offset="1" stop-color="#e51aff" stop-opacity="0"/>
    </linearGradient>
    <linearGradient id="linear-gradient-3" x1="0.988" y1="0.977" x2="0.467" y2="0.461" gradientUnits="objectBoundingBox">
      <stop offset="0" stop-color="#ff0047"/>
      <stop offset="1" stop-color="#e51aff" stop-opacity="0"/>
    </linearGradient>
    <linearGradient id="linear-gradient-4" x1="0.538" y1="1" x2="0.547" y2="0.315" gradientUnits="objectBoundingBox">
      <stop offset="0"/>
      <stop offset="1" stop-opacity="0"/>
    </linearGradient>
    <clipPath id="clip-hl-jackpot-bg">
      <rect width="1358" height="646"/>
    </clipPath>
  </defs>
  <g id="hl-jackpot-bg" clip-path="url(#clip-hl-jackpot-bg)">
    <rect width="1358" height="646" fill="#1a0a0b"/>
    <g id="_14-Money" data-name="14-Money" transform="translate(-156 98.318)">
      <path id="Path_6966" data-name="Path 6966" d="M23,20.484A13.972,13.972,0,0,1,23.78,16,13.973,13.973,0,0,0,23,20.484Z" transform="translate(174.307 127.496)" fill="#a80132"/>
      <path id="Path_6967" data-name="Path 6967" d="M40.913,16a13.972,13.972,0,0,1,.78,4.484A13.973,13.973,0,0,0,40.913,16Z" transform="translate(317.047 127.496)" fill="#a80132"/>
      <path id="Path_6968" data-name="Path 6968" d="M35.042,32.937H171a12.8,12.8,0,0,0,11.955-8.969A12.8,12.8,0,0,0,171,15H35.042a12.8,12.8,0,0,0-11.955,8.969,12.8,12.8,0,0,0,11.955,8.969Z" transform="translate(175.001 119.528)" fill="#a80132"/>
      <path id="Path_6969" data-name="Path 6969" d="M40.913,13a13.972,13.972,0,0,1,.78,4.484A13.972,13.972,0,0,0,40.913,13Z" transform="translate(317.047 103.591)" fill="#a80132"/>
      <path id="Path_6970" data-name="Path 6970" d="M23,17.484A13.972,13.972,0,0,1,23.78,13,13.972,13.972,0,0,0,23,17.484Z" transform="translate(174.307 103.591)" fill="#a80132"/>
      <path id="Path_6971" data-name="Path 6971" d="M35.042,29.937H171a12.8,12.8,0,0,0,11.955-8.969A12.8,12.8,0,0,0,171,12H35.042a12.8,12.8,0,0,0-11.955,8.969,12.8,12.8,0,0,0,11.955,8.969Z" transform="translate(175.001 95.622)" fill="#a80132"/>
      <path id="Path_6972" data-name="Path 6972" d="M25.031,21.359c.673.457,1.381.9,2.161,1.363.323.188.664.368,1,.556.9.466,1.794.9,2.789,1.39.3.143.6.287.9.422A112.7,112.7,0,0,0,54.3,31.816l.323.063c2.332.475,4.762.9,7.309,1.345a308.636,308.636,0,0,0,49.748,3.65c49.506,0,80.717-8.968,89.685-17.937,0,0-17.937-17.937-89.685-17.937S22,18.937,22,18.937a20.629,20.629,0,0,0,2.242,1.883C24.484,21,24.771,21.179,25.031,21.359Z" transform="translate(166.339 7.969)" fill="#de8800"/>
      <path id="Path_6973" data-name="Path 6973" d="M23.9,4.061c-.314-.135-.619-.278-.9-.422C23.323,3.782,23.61,3.926,23.9,4.061Z" transform="translate(174.307 28.997)" fill="#ffc608"/>
      <path id="Path_6974" data-name="Path 6974" d="M23.583,3.978c-.341-.188-.682-.368-1-.556C22.9,3.61,23.243,3.79,23.583,3.978Z" transform="translate(170.953 27.268)" fill="#ffc608"/>
      <path id="Path_6975" data-name="Path 6975" d="M23.039,3.748c-.26-.179-.547-.359-.789-.538C22.492,3.389,22.779,3.569,23.039,3.748Z" transform="translate(168.331 25.579)" fill="#ffc608"/>
      <path id="Path_6976" data-name="Path 6976" d="M25.95,4.5l-.35-.063Z" transform="translate(195.026 35.348)" fill="#ffc608"/>
      <path id="Path_6977" data-name="Path 6977" d="M26.454,17.287h0l3.1,10.825a51.892,51.892,0,0,0,49.9,37.668h39.148a46.852,46.852,0,0,0,30.027-11.04L165.879,3C156.91,11.969,125.7,20.937,76.193,20.937a308.628,308.628,0,0,1-49.739-3.65Z" transform="translate(201.831 23.906)" fill="#ffc608"/>
      <path id="Path_6978" data-name="Path 6978" d="M189.011,18H134.733A230.087,230.087,0,0,0,18.071,224.276c0,170.4,349.772,143.5,349.772,62.78C367.843,222.124,291.073,58.179,189.011,18Z" transform="translate(134.394 143.433)" fill="#ffc608"/>
      <path id="Path_6979" data-name="Path 6979" d="M23.087,13Z" transform="translate(175.001 103.591)" fill="#7d0126"/>
      <path id="Path_6980" data-name="Path 6980" d="M40.913,13Z" transform="translate(317.047 103.591)" fill="#7d0126"/>
      <path id="Path_6981" data-name="Path 6981" d="M40.913,16Z" transform="translate(317.047 127.496)" fill="#7d0126"/>
      <path id="Path_6982" data-name="Path 6982" d="M23.087,16Z" transform="translate(175.001 127.496)" fill="#7d0126"/>
      <path id="Path_6983" data-name="Path 6983" d="M24.5,4.633c-.78-.448-1.489-.9-2.161-1.363C23.011,3.727,23.719,4.185,24.5,4.633Z" transform="translate(169.032 26.057)" fill="#f09413"/>
      <path id="Path_6984" data-name="Path 6984" d="M32.948,5.788c-2.547-.413-4.978-.9-7.309-1.345C27.98,4.954,30.4,5.376,32.948,5.788Z" transform="translate(195.336 35.404)" fill="#f09413"/>
      <path id="Path_6985" data-name="Path 6985" d="M25.478,4.874c-1-.457-1.919-.9-2.789-1.39C23.568,3.95,24.5,4.417,25.478,4.874Z" transform="translate(171.829 27.762)" fill="#f09413"/>
      <path id="Path_6986" data-name="Path 6986" d="M22,3a20.629,20.629,0,0,0,2.242,1.883A20.63,20.63,0,0,1,22,3Z" transform="translate(166.339 23.906)" fill="#f09413"/>
      <path id="Path_6987" data-name="Path 6987" d="M45.521,10.412A112.7,112.7,0,0,1,23.1,3.686a112.7,112.7,0,0,0,22.421,6.726Z" transform="translate(175.104 29.372)" fill="#f09413"/>
      <path id="Path_6988" data-name="Path 6988" d="M142.685,64.843,112.82,79.82,97.843,109.685,82.865,79.82,53,64.843,82.865,49.865,97.843,20,112.82,49.865Z" transform="translate(413.363 159.37)" fill="#ff9c00"/>
      <path id="Path_6989" data-name="Path 6989" d="M90.685,52.843,60.82,67.82,45.843,97.685,30.865,67.82,1,52.843,30.865,37.865,45.843,8,60.82,37.865Z" transform="translate(-1 63.748)" fill="#ff9c00"/>
      <path id="Path_6990" data-name="Path 6990" d="M67.058,39.75a30.026,30.026,0,0,0-2.152,11.211V176.789c-8.879.269-17.847.269-26.906-.179V77.866C38,62.978,49.121,49.526,67.058,39.75Z" transform="translate(293.835 316.749)" fill="#f09413"/>
      <path id="Path_6991" data-name="Path 6991" d="M183.657,47.874A12.8,12.8,0,0,0,171.7,38.906a13.121,13.121,0,0,0,12.735-13.453,13.973,13.973,0,0,0-.78-4.484h0A12.8,12.8,0,0,0,171.7,12H35.739a12.8,12.8,0,0,0-11.955,8.969h0A13.972,13.972,0,0,0,23,25.453,13.121,13.121,0,0,0,35.739,38.906a12.8,12.8,0,0,0-11.955,8.969h0A13.972,13.972,0,0,0,23,52.358,13.121,13.121,0,0,0,35.739,65.811H171.7a13.121,13.121,0,0,0,12.735-13.453A13.971,13.971,0,0,0,183.657,47.874Z" transform="translate(174.303 95.622)" fill="#a80132"/>
      <path id="Path_6992" data-name="Path 6992" d="M168.055,12.193A228.992,228.992,0,0,0,96.011,3.117a228.993,228.993,0,0,0-72.044,9.076,243.872,243.872,0,0,0,72.044,8.861,243.871,243.871,0,0,0,72.044-8.861Z" transform="translate(182.013 23.789)" fill="#c97c10"/>
      <path id="Path_6993" data-name="Path 6993" d="M158.967,30.937H171.7a13.121,13.121,0,0,0,12.735-13.453,13.973,13.973,0,0,0-.78-4.484h0A12.8,12.8,0,0,1,171.7,21.969H35.739A12.8,12.8,0,0,1,23.784,13h0A13.972,13.972,0,0,0,23,17.484,13.121,13.121,0,0,0,35.739,30.937Z" transform="translate(174.303 103.591)" fill="#7d0126"/>
      <path id="Path_6994" data-name="Path 6994" d="M149.1,33.937h22.6a13.121,13.121,0,0,0,12.735-13.453,13.971,13.971,0,0,0-.78-4.484h0A12.8,12.8,0,0,1,171.7,24.969H35.739A12.8,12.8,0,0,1,23.784,16h0A13.972,13.972,0,0,0,23,20.484,13.121,13.121,0,0,0,35.739,33.937Z" transform="translate(174.303 127.496)" fill="#7d0126"/>
      <path id="Path_6995" data-name="Path 6995" d="M166.931,83.717h7.534l9.659-28.977A46.852,46.852,0,0,1,154.1,65.78H114.95a51.891,51.891,0,0,1-49.9-37.664l-3.1-10.855h0c-2.547-.413-4.978-.9-7.309-1.345l-.35-.036A112.7,112.7,0,0,1,31.865,9.152c-.323-.135-.61-.278-.9-.422-1-.457-1.928-.9-2.789-1.39-.341-.188-.682-.368-1-.556-.78-.448-1.489-.9-2.161-1.363-.26-.179-.547-.359-.789-.538A20.629,20.629,0,0,1,22,3L48.906,83.717Z" transform="translate(166.339 23.906)" fill="#f09413"/>
      <path id="Path_6996" data-name="Path 6996" d="M105.654,224.276A230.087,230.087,0,0,1,222.316,18H185.832C83.771,58.179,7,222.124,7,287.056c0,74.259,100.358,134.528,224.213,134.528s224.213-60.268,224.213-134.528C455.426,367.772,105.654,394.678,105.654,224.276Z" transform="translate(46.811 143.433)" fill="#ff9c00"/>
      <path id="Path_6997" data-name="Path 6997" d="M51.967,71.748a8.969,8.969,0,0,1-6.341-15.309L99.437,2.628A8.968,8.968,0,1,1,112.12,15.31L58.308,69.12A8.969,8.969,0,0,1,51.967,71.748Z" transform="translate(333.68 0)" fill="#ffc608"/>
      <path id="Path_6998" data-name="Path 6998" d="M51.979,93.687a8.969,8.969,0,0,1-4.986-16.43L154.615,5.509a8.97,8.97,0,1,1,9.955,14.924L56.947,92.18A8.969,8.969,0,0,1,51.979,93.687Z" transform="translate(333.667 31.872)" fill="#ffc608"/>
      <path id="Path_6999" data-name="Path 6999" d="M75.78,71.748a8.967,8.967,0,0,1-6.339-2.626L15.628,15.309A8.968,8.968,0,1,1,28.31,2.627L82.12,56.439A8.969,8.969,0,0,1,75.78,71.748Z" transform="translate(94.622 0)" fill="#ffc608"/>
      <path id="Path_7000" data-name="Path 7000" d="M123.585,93.687a8.969,8.969,0,0,1-4.969-1.507L10.994,20.432A8.97,8.97,0,1,1,20.949,5.509L128.571,77.257a8.969,8.969,0,0,1-4.986,16.43Z" transform="translate(46.817 31.872)" fill="#ffc608"/>
      <path id="Path_7001" data-name="Path 7001" d="M124.166,151.752l-27.408-13.7V62.874H114.7v8.969h17.937V53.906a8.969,8.969,0,0,0-8.969-8.969H96.759V27H78.822V44.937H72.777a47.766,47.766,0,0,0-21.363,90.492l27.408,13.7v75.174H42.948v-8.968H25.01v17.937a8.969,8.969,0,0,0,8.969,8.969H78.822v17.937H96.759V242.244H102.8a47.766,47.766,0,0,0,21.363-90.492ZM59.432,119.376a29.829,29.829,0,0,1,13.345-56.5h6.045V129.08ZM102.8,224.307H96.759V158.1l19.39,9.7a29.829,29.829,0,0,1-13.345,56.5Z" transform="translate(190.234 215.15)" fill="#ffdf75"/>
      <path id="Path_7002" data-name="Path 7002" d="M33,59.845v8.673A47.461,47.461,0,0,0,67.888,49.89a47.273,47.273,0,0,1-28.843,9.955Z" transform="translate(253.993 397.549)" fill="#fa0"/>
      <path id="Path_7003" data-name="Path 7003" d="M86.78,66.937H41.937a8.969,8.969,0,0,1-8.969-8.969V49H24V66.937a8.969,8.969,0,0,0,8.969,8.969H77.811V93.843H95.748V84.874H86.78Z" transform="translate(182.276 390.457)" fill="#fa0"/>
      <path id="Path_7004" data-name="Path 7004" d="M50.937,31H33v8.969h8.969v8.969H59.906V39.969H50.937Z" transform="translate(253.993 247.024)" fill="#fa0"/>
      <path id="Path_7005" data-name="Path 7005" d="M38.969,36.969V28H30v9.264c.987-.063,1.919-.3,2.924-.3Z" transform="translate(230.087 223.119)" fill="#fa0"/>
      <path id="Path_7006" data-name="Path 7006" d="M86.78,116.383l-27.408-13.7A47.408,47.408,0,0,1,42.924,31.11a47.533,47.533,0,0,0,7.48,80.537l27.408,13.7v66.206H86.78Z" transform="translate(182.276 247.901)" fill="#fa0"/>
      <path id="Path_7007" data-name="Path 7007" d="M27.533,44.749a29.6,29.6,0,0,1,16.081-4.78h6.045V92.721l8.969,4.484V31H52.582A29.793,29.793,0,0,0,27.533,44.749Z" transform="translate(210.429 247.024)" fill="#fa0"/>
      <path id="Path_7008" data-name="Path 7008" d="M68.874,77.994A29.668,29.668,0,0,0,52.39,51.322L33,41.618V55.071l10.421,5.211A29.7,29.7,0,0,1,55.08,103.043,29.793,29.793,0,0,0,68.874,77.994Z" transform="translate(253.993 331.634)" fill="#fa0"/>
      <path id="Path_7009" data-name="Path 7009" d="M64.906,194.457V50.961A30.026,30.026,0,0,1,67.058,39.75C49.121,49.526,38,62.978,38,77.866v143.5a34.466,34.466,0,0,0,8.251,21.614,300.048,300.048,0,0,0,46.008-11.39C75.309,221.99,64.906,208.9,64.906,194.457Z" transform="translate(293.835 316.749)" fill="#ff9c00"/>
      <path id="Path_7010" data-name="Path 7010" d="M39.794,42.864A30.492,30.492,0,0,0,38,53.052V95.724A47.533,47.533,0,0,0,39.794,42.864Z" transform="translate(293.835 341.563)" fill="#ffc052"/>
      <path id="Path_7011" data-name="Path 7011" d="M238.307,53V88.874c0,29.686-44.125,53.811-98.654,53.811S41,118.56,41,88.874V53c0,29.686,44.125,53.811,98.654,53.811S238.307,82.686,238.307,53Z" transform="translate(317.741 422.332)" fill="#ffcb52"/>
      <path id="Path_7012" data-name="Path 7012" d="M238.307,45V80.874c0,29.686-44.125,53.811-98.654,53.811S41,110.56,41,80.874V45c0,29.686,44.125,53.811,98.654,53.811S238.307,74.686,238.307,45Z" transform="translate(317.741 358.583)" fill="#ffcb52"/>
      <path id="Path_7013" data-name="Path 7013" d="M238.307,49V84.874c0,29.686-44.125,53.811-98.654,53.811S41,114.56,41,84.874V49c0,29.686,44.125,53.811,98.654,53.811S238.307,78.686,238.307,49Z" transform="translate(317.741 390.457)" fill="#f09413"/>
      <path id="Path_7014" data-name="Path 7014" d="M238.307,41V76.874c0,29.686-44.125,53.811-98.654,53.811S41,106.56,41,76.874V41c0,29.686,44.125,53.811,98.654,53.811S238.307,70.686,238.307,41Z" transform="translate(317.741 326.709)" fill="#f09413"/>
      <path id="Path_7015" data-name="Path 7015" d="M238.307,88.811c0,29.686-44.125,53.811-98.654,53.811S41,118.5,41,88.811,85.125,35,139.654,35,238.307,59.125,238.307,88.811Zm-35.874,0c0-14.888-28.071-26.906-62.78-26.906s-62.78,12.018-62.78,26.906,28.071,26.906,62.78,26.906S202.433,103.7,202.433,88.811Z" transform="translate(317.741 278.898)" fill="#ffc052"/>
      <ellipse id="Ellipse_120" data-name="Ellipse 120" cx="62" cy="27.5" rx="62" ry="27.5" transform="translate(395 339.682)" fill="#ffdf75"/>
      <path id="Path_7016" data-name="Path 7016" d="M170.56,64.906a11.129,11.129,0,0,1-.9,4.484C164.73,56.655,138.9,46.969,107.78,46.969S50.83,56.655,45.9,69.39a11.131,11.131,0,0,1-.9-4.484C45,50.018,73.072,38,107.78,38S170.56,50.018,170.56,64.906Z" transform="translate(349.614 302.804)" fill="#c97c10"/>
      <path id="Path_7017" data-name="Path 7017" d="M238.307,58.937V76.874c0,29.686-44.125,53.811-98.654,53.811A154.744,154.744,0,0,1,76.874,118.4C54.991,108.533,41,93.556,41,76.874V41c0,16.681,13.991,31.659,35.874,41.524h0a25.354,25.354,0,0,0,18.475,24.529,168.726,168.726,0,0,0,44.3,5.7C194.182,112.748,238.307,88.623,238.307,58.937Z" transform="translate(317.741 326.709)" fill="#de8800"/>
      <path id="Path_7018" data-name="Path 7018" d="M238.307,62.937V80.874c0,29.686-44.125,53.811-98.654,53.811A154.743,154.743,0,0,1,76.874,122.4C54.991,112.533,41,97.556,41,80.874V45c0,16.681,13.991,31.659,35.874,41.524h0a25.354,25.354,0,0,0,18.475,24.529,168.725,168.725,0,0,0,44.3,5.695C194.182,116.748,238.307,92.623,238.307,62.937Z" transform="translate(317.741 358.583)" fill="#de8800"/>
      <path id="Path_7019" data-name="Path 7019" d="M238.307,66.937V84.874c0,29.686-44.125,53.811-98.654,53.811A154.744,154.744,0,0,1,76.874,126.4C54.991,116.533,41,101.556,41,84.874V49c0,16.681,13.991,31.659,35.874,41.524h0a25.354,25.354,0,0,0,18.475,24.529,168.728,168.728,0,0,0,44.3,5.7C194.182,120.748,238.307,96.623,238.307,66.937Z" transform="translate(317.741 390.457)" fill="#de8800"/>
      <path id="Path_7020" data-name="Path 7020" d="M238.307,70.937V88.874c0,29.686-44.125,53.811-98.654,53.811A154.743,154.743,0,0,1,76.874,130.4C54.991,120.533,41,105.556,41,88.874V53c0,16.681,13.991,31.659,35.874,41.524h0a25.354,25.354,0,0,0,18.475,24.529,168.726,168.726,0,0,0,44.3,5.7C194.182,124.748,238.307,100.623,238.307,70.937Z" transform="translate(317.741 422.332)" fill="#de8800"/>
    </g>
    <g id="_24-Crowns" data-name="24-Crowns" transform="translate(333 390.176) rotate(11)">
      <rect id="Rectangle_517" data-name="Rectangle 517" width="236.168" height="33.211" rx="2" transform="translate(55.351 212.797)" fill="#fadf7d"/>
      <path id="Path_7021" data-name="Path 7021" d="M223.784,11.189H11.189A11.223,11.223,0,0,1,0,0V11.189A11.223,11.223,0,0,0,11.189,22.378H223.784a11.223,11.223,0,0,0,11.189-11.189V0a11.223,11.223,0,0,1-11.189,11.189Z" transform="translate(55.949 223.821)" fill="#ffbf40"/>
      <path id="Path_7022" data-name="Path 7022" d="M34.631,41.107A22.378,22.378,0,1,1,44.758,22.365,22.378,22.378,0,0,1,34.631,41.107Z" transform="translate(0.002 22.429)" fill="#ffc608"/>
      <path id="Path_7023" data-name="Path 7023" d="M33.737,41.661a22.149,22.149,0,0,1-22.714,0,22.378,22.378,0,1,1,22.714,0Z" transform="translate(151.056 0)" fill="#ffc608"/>
      <path id="Path_7024" data-name="Path 7024" d="M22.378,44.757A22.378,22.378,0,1,1,44.757,22.378,22.378,22.378,0,0,1,22.378,44.757Z" transform="translate(302.112 22.415)" fill="#ffc608"/>
      <path id="Path_7025" data-name="Path 7025" d="M22.458,32.675a15.508,15.508,0,0,1-5.595,1.007,16.47,16.47,0,0,1-7.049-1.566,16.823,16.823,0,1,1,12.644.559Z" transform="translate(240.492 39.085)" fill="#ff9c00"/>
      <path id="Path_7026" data-name="Path 7026" d="M23.747,31.941A16.47,16.47,0,0,1,16.7,33.508,15.508,15.508,0,0,1,11.1,32.5a16.739,16.739,0,1,1,12.644-.559Z" transform="translate(72.819 39.259)" fill="#ff9c00"/>
      <path id="Path_7027" data-name="Path 7027" d="M54.491,67.471c-6.769,10.8-15.441,18.015-26.518,18.015C19.917,85.486,10.014,77.6,0,66.352V.559A15.508,15.508,0,0,0,5.595,1.566,16.47,16.47,0,0,0,12.644,0C17.175,12.14,32.113,48.561,54.491,67.471Z" transform="translate(83.922 71.2)" fill="#fa0"/>
      <path id="Path_7028" data-name="Path 7028" d="M54.491.559V66.352C44.477,77.6,34.575,85.486,26.518,85.486,15.441,85.486,6.769,78.268,0,67.471,22.378,48.561,37.316,12.14,41.848,0A16.47,16.47,0,0,0,48.9,1.567,15.508,15.508,0,0,0,54.491.559Z" transform="translate(208.458 71.2)" fill="#fa0"/>
      <path id="Path_7029" data-name="Path 7029" d="M162.635,152.956a6.031,6.031,0,0,0,9.567-5.93l-2.965-14.434,7.888-7.721a5.757,5.757,0,0,0-4.028-9.846H162.188L156.481,101.6a6.065,6.065,0,0,0-10.853,0l-5.707,13.427H129.011a5.757,5.757,0,0,0-4.028,9.846l7.888,7.721-2.965,14.434a6.031,6.031,0,0,0,9.567,5.93l11.581-8.5Zm77.933-57.065c21.819-24.392,44.253-64.73,49.288-74.017a22.378,22.378,0,0,0,12.252,3.636L257.352,148.593v22.378H44.757V148.593L0,25.511a22.378,22.378,0,0,0,12.252-3.636C17.287,31.162,39.722,71.5,61.541,95.891c10.014,11.245,19.917,19.134,27.973,19.134,11.077,0,19.749-7.217,26.518-18.015C134.326,67.863,138.914,12.308,139.7,0a22.149,22.149,0,0,0,22.714,0c.783,12.308,5.371,67.863,23.665,97.01,6.769,10.8,15.441,18.015,26.518,18.015C220.651,115.025,230.553,107.137,240.568,95.891Z" transform="translate(22.382 41.661)" fill="#fadf7d"/>
      <path id="Path_7030" data-name="Path 7030" d="M33.2,3.357,38.91,16.784H49.819a5.757,5.757,0,0,1,4.028,9.847l-7.888,7.721,2.965,14.434a6.031,6.031,0,0,1-9.567,5.93l-11.581-8.5L16.2,54.716a6.031,6.031,0,0,1-9.567-5.93L9.594,34.351,1.705,26.631a5.757,5.757,0,0,1,4.028-9.846H16.643L22.349,3.357a6.065,6.065,0,0,1,10.854,0Z" transform="translate(145.66 139.901)" fill="#d1013e"/>
      <path id="Path_7031" data-name="Path 7031" d="M33.739,13.522a22.149,22.149,0,0,1-22.714,0A22.233,22.233,0,0,1,.753,0,21.925,21.925,0,0,0,11.025,24.711a22.149,22.149,0,0,0,22.714,0A21.925,21.925,0,0,0,44.01,0,22.233,22.233,0,0,1,33.739,13.522Z" transform="translate(151.054 16.949)" fill="#fa0"/>
      <path id="Path_7032" data-name="Path 7032" d="M33.739,13.522a22.149,22.149,0,0,1-22.714,0A22.233,22.233,0,0,1,.753,0,21.925,21.925,0,0,0,11.025,24.711a22.149,22.149,0,0,0,22.714,0A21.925,21.925,0,0,0,44.01,0,22.233,22.233,0,0,1,33.739,13.522Z" transform="translate(302.108 39.328)" fill="#fa0"/>
      <path id="Path_7033" data-name="Path 7033" d="M33.739,13.522a22.149,22.149,0,0,1-22.714,0A22.233,22.233,0,0,1,.753,0,21.925,21.925,0,0,0,11.025,24.711a22.149,22.149,0,0,0,22.714,0A21.925,21.925,0,0,0,44.01,0,22.233,22.233,0,0,1,33.739,13.522Z" transform="translate(0 39.328)" fill="#fa0"/>
      <path id="Path_7034" data-name="Path 7034" d="M23.833,9.572a16.47,16.47,0,0,1-7.049,1.566,15.508,15.508,0,0,1-5.595-1.007A16.538,16.538,0,0,1,1,.017,16.783,16.783,0,0,0,0,5.544,16.6,16.6,0,0,0,11.189,21.321a15.508,15.508,0,0,0,5.595,1.007,16.471,16.471,0,0,0,7.049-1.566A16.543,16.543,0,0,0,32.561,0,16.644,16.644,0,0,1,23.833,9.572Z" transform="translate(72.733 50.439)" fill="#de8800"/>
      <path id="Path_7035" data-name="Path 7035" d="M23.833,9.572a16.47,16.47,0,0,1-7.049,1.566,15.508,15.508,0,0,1-5.595-1.007A16.538,16.538,0,0,1,1,.017,16.784,16.784,0,0,0,0,5.544,16.6,16.6,0,0,0,11.189,21.321a15.508,15.508,0,0,0,5.595,1.007,16.47,16.47,0,0,0,7.049-1.566A16.543,16.543,0,0,0,32.561,0,16.644,16.644,0,0,1,23.833,9.572Z" transform="translate(240.571 50.439)" fill="#de8800"/>
      <path id="Path_7036" data-name="Path 7036" d="M11.268,66.8a11.144,11.144,0,0,1-5.673-9.746V23.945A11.189,11.189,0,0,1,16.784,12.756h1.057c-2.333-5.3-4.084-9.768-5.2-12.756A16.47,16.47,0,0,1,5.595,1.566,15.509,15.509,0,0,1,0,.559V66.352C10.014,77.6,19.917,85.486,27.973,85.486c11.077,0,19.749-7.217,26.518-18.015-.559-.487-1.119-1.029-1.678-1.539C37.327,78.392,19.99,71.706,11.268,66.8Z" transform="translate(83.922 71.2)" fill="#ff9c00"/>
      <path id="Path_7037" data-name="Path 7037" d="M48.9,1.566A16.47,16.47,0,0,1,41.848,0c-1.119,2.988-2.864,7.452-5.2,12.756h1.057A11.189,11.189,0,0,1,48.9,23.945V57.054A11.144,11.144,0,0,1,43.224,66.8C34.5,71.706,17.181,78.352,1.712,65.916,1.153,66.43.593,66.979,0,67.471c6.769,10.8,15.441,18.015,26.518,18.015,8.056,0,17.959-7.888,27.973-19.134V.559A15.508,15.508,0,0,1,48.9,1.566Z" transform="translate(208.458 71.2)" fill="#ff9c00"/>
      <path id="Path_7038" data-name="Path 7038" d="M72.948,19.134a5.628,5.628,0,0,1,6.747-2.8l1.8.6,4.839-13.3A22.378,22.378,0,0,1,74.078,0C69.043,9.287,46.609,49.624,24.79,74.017,16.056,83.824,7.413,91.069,0,92.764,9.835,90.951,41.137,80.417,72.948,19.134Z" transform="translate(238.16 63.536)" fill="#ffbf40"/>
      <path id="Path_7039" data-name="Path 7039" d="M162.635,131.082l-5.941-4.364H145.415l-5.941,4.364a6.042,6.042,0,0,1-9.639-4.364H78.324a16.784,16.784,0,0,1-16.784-16.784l-46-86.9a5.595,5.595,0,0,1,4.946-8.213h.14C16.672,8.051,13.712,2.7,12.23,0A22.378,22.378,0,0,1,0,3.636L44.757,126.718V149.1H257.352V126.718H172.275a6.042,6.042,0,0,1-9.64,4.364Z" transform="translate(22.382 63.536)" fill="#ffbf40"/>
      <path id="Path_7040" data-name="Path 7040" d="M55.5,24.8A11.189,11.189,0,0,1,66.688,14.322h7.486C73.485,7.888,73.1,2.792,72.92,0A22.149,22.149,0,0,1,50.206,0c-.783,12.308-5.371,67.863-23.665,97.01C19.749,107.808,11.077,115.025,0,115.025,44.757,115.025,53.708,50.575,55.5,24.8Z" transform="translate(111.895 41.661)" fill="#ffbf40"/>
      <path id="Path_7041" data-name="Path 7041" d="M65.886,23.822a11.268,11.268,0,0,0-10.473-7.038H48.2L43.944,6.758q-.067-.157-.151-.319A11.586,11.586,0,0,0,33.37,0,11.715,11.715,0,0,0,22.8,6.758L18.539,16.784H11.327A11.351,11.351,0,0,0,3.389,36.225l5.7,5.595L6.746,53.249a11.407,11.407,0,0,0,5.1,12.028,11.748,11.748,0,0,0,6.322,1.863,11.54,11.54,0,0,0,6.925-2.309l8.276-6.088L41.605,64.8a11.592,11.592,0,0,0,13.287.47A11.407,11.407,0,0,0,60,53.255l-2.35-11.447,5.718-5.595A11.3,11.3,0,0,0,65.886,23.822Zm-6.445,8.392-7.888,7.721,2.965,14.434a6.031,6.031,0,0,1-9.567,5.93L33.37,51.806l-11.581,8.5a6.031,6.031,0,0,1-9.567-5.93l2.965-14.434L7.3,32.225a5.757,5.757,0,0,1,4.028-9.846H22.237L27.943,8.951a6.065,6.065,0,0,1,10.854,0L44.5,22.378H55.413a5.757,5.757,0,0,1,4.028,9.847Z" transform="translate(140.066 134.307)" fill="#ff9c00"/>
      <ellipse id="Ellipse_121" data-name="Ellipse 121" cx="5.535" cy="6.15" rx="5.535" ry="6.15" transform="translate(257.079 44.281)" fill="#ffc608"/>
      <ellipse id="Ellipse_122" data-name="Ellipse 122" cx="5.535" cy="6.15" rx="5.535" ry="6.15" transform="translate(89.793 44.281)" fill="#ffc608"/>
      <ellipse id="Ellipse_123" data-name="Ellipse 123" cx="5.535" cy="5.535" rx="5.535" ry="5.535" transform="translate(173.436 11.07)" fill="#fffced"/>
      <ellipse id="Ellipse_124" data-name="Ellipse 124" cx="5.535" cy="5.535" rx="5.535" ry="5.535" transform="translate(329.651 33.211)" fill="#fffced"/>
      <ellipse id="Ellipse_125" data-name="Ellipse 125" cx="5.535" cy="5.535" rx="5.535" ry="5.535" transform="translate(28.291 33.211)" fill="#fffced"/>
    </g>
    <rect id="Rectangle_514" data-name="Rectangle 514" width="994" height="646" opacity="0.381" fill="url(#linear-gradient)"/>
    <rect id="Rectangle_515" data-name="Rectangle 515" width="660" height="646" opacity="0.381" fill="url(#linear-gradient-2)"/>
    <rect id="Rectangle_519" data-name="Rectangle 519" width="660" height="646" transform="translate(698)" opacity="0.448" fill="url(#linear-gradient-3)"/>
    <rect id="Rectangle_516" data-name="Rectangle 516" width="1358" height="396" transform="translate(0 250)" opacity="0.606" fill="url(#linear-gradient-4)"/>
    <g id="Rectangle_518" data-name="Rectangle 518" stroke="#707070" stroke-width="1" opacity="0.228">
      <rect width="1358" height="646" stroke="none"/>
      <rect x="0.5" y="0.5" width="1357" height="645" fill="none"/>
    </g>
  </g>
</svg>
