<svg id="visual" viewBox="0 0 960 540" width="960" height="540" xmlns="http://www.w3.org/2000/svg" xmlns:xlink="http://www.w3.org/1999/xlink" version="1.1"><rect x="0" y="0" width="960" height="540" fill="#001220"></rect><path d="M0 451L20 452.5C40 454 80 457 120 458C160 459 200 458 240 461.3C280 464.7 320 472.3 360 472.8C400 473.3 440 466.7 480 461.8C520 457 560 454 600 456.8C640 459.7 680 468.3 720 472.7C760 477 800 477 840 472.7C880 468.3 920 459.7 940 455.3L960 451L960 541L940 541C920 541 880 541 840 541C800 541 760 541 720 541C680 541 640 541 600 541C560 541 520 541 480 541C440 541 400 541 360 541C320 541 280 541 240 541C200 541 160 541 120 541C80 541 40 541 20 541L0 541Z" fill="#bb1a48"></path><path d="M0 481L20 480.5C40 480 80 479 120 478.3C160 477.7 200 477.3 240 474.7C280 472 320 467 360 466C400 465 440 468 480 472.3C520 476.7 560 482.3 600 481.3C640 480.3 680 472.7 720 469.5C760 466.3 800 467.7 840 468.7C880 469.7 920 470.3 940 470.7L960 471L960 541L940 541C920 541 880 541 840 541C800 541 760 541 720 541C680 541 640 541 600 541C560 541 520 541 480 541C440 541 400 541 360 541C320 541 280 541 240 541C200 541 160 541 120 541C80 541 40 541 20 541L0 541Z" fill="#c92744"></path><path d="M0 478L20 478.2C40 478.3 80 478.7 120 481.7C160 484.7 200 490.3 240 490.3C280 490.3 320 484.7 360 484.2C400 483.7 440 488.3 480 489.2C520 490 560 487 600 486.2C640 485.3 680 486.7 720 486.5C760 486.3 800 484.7 840 483.5C880 482.3 920 481.7 940 481.3L960 481L960 541L940 541C920 541 880 541 840 541C800 541 760 541 720 541C680 541 640 541 600 541C560 541 520 541 480 541C440 541 400 541 360 541C320 541 280 541 240 541C200 541 160 541 120 541C80 541 40 541 20 541L0 541Z" fill="#d5353f"></path><path d="M0 504L20 504.8C40 505.7 80 507.3 120 507.7C160 508 200 507 240 504.7C280 502.3 320 498.7 360 499.2C400 499.7 440 504.3 480 505.5C520 506.7 560 504.3 600 501.5C640 498.7 680 495.3 720 496.2C760 497 800 502 840 502.7C880 503.3 920 499.7 940 497.8L960 496L960 541L940 541C920 541 880 541 840 541C800 541 760 541 720 541C680 541 640 541 600 541C560 541 520 541 480 541C440 541 400 541 360 541C320 541 280 541 240 541C200 541 160 541 120 541C80 541 40 541 20 541L0 541Z" fill="#e14339"></path><path d="M0 515L20 515.2C40 515.3 80 515.7 120 513.7C160 511.7 200 507.3 240 506.8C280 506.3 320 509.7 360 509.7C400 509.7 440 506.3 480 507.2C520 508 560 513 600 515.5C640 518 680 518 720 516.7C760 515.3 800 512.7 840 511.3C880 510 920 510 940 510L960 510L960 541L940 541C920 541 880 541 840 541C800 541 760 541 720 541C680 541 640 541 600 541C560 541 520 541 480 541C440 541 400 541 360 541C320 541 280 541 240 541C200 541 160 541 120 541C80 541 40 541 20 541L0 541Z" fill="#eb5231"></path><path d="M0 529L20 529C40 529 80 529 120 527C160 525 200 521 240 519.3C280 517.7 320 518.3 360 518.8C400 519.3 440 519.7 480 519.2C520 518.7 560 517.3 600 517.2C640 517 680 518 720 518.3C760 518.7 800 518.3 840 518.7C880 519 920 520 940 520.5L960 521L960 541L940 541C920 541 880 541 840 541C800 541 760 541 720 541C680 541 640 541 600 541C560 541 520 541 480 541C440 541 400 541 360 541C320 541 280 541 240 541C200 541 160 541 120 541C80 541 40 541 20 541L0 541Z" fill="#f36127"></path></svg>