<svg xmlns="http://www.w3.org/2000/svg" width="174" height="263" viewBox="0 0 174 263"><g transform="translate(-6633 -15944)"><rect width="133" height="46" transform="translate(6661 15957)" fill="#fff" opacity="0.356"/><path d="M164,204H10A10.011,10.011,0,0,1,0,194V10A10.011,10.011,0,0,1,10,0H164a10.011,10.011,0,0,1,10,10V194A10.011,10.011,0,0,1,164,204ZM87,53.209h0L28.452,102,87,150.79,145.549,102,87,53.209ZM144,9a6,6,0,1,0,0,12h2.4a6,6,0,0,0,0-12ZM105.6,9a6,6,0,0,0,0,12H108a6,6,0,1,0,0-12ZM66,9a6,6,0,0,0,0,12h2.4a6,6,0,1,0,0-12ZM27.6,9a6,6,0,1,0,0,12H30A6,6,0,1,0,30,9ZM87,135.234h0L47.12,102,87,68.765,126.882,102,87,135.234Z" transform="translate(6633 16003)" fill="#fff"/><rect width="133" height="59" transform="translate(6642 15944)" fill="#fff" opacity="0.318"/></g></svg>