<svg xmlns="http://www.w3.org/2000/svg" width="404" height="404" viewBox="0 0 404 404"><g transform="translate(5276 -15546)"><g transform="translate(-5335 15573)"><rect width="404" height="404" transform="translate(59 -27)" fill="none"/><g transform="translate(28.486 -62.425)"><path d="M205.182,301.058a5.085,5.085,0,0,0-.988,4.328,46.67,46.67,0,0,0,12.03,22.039,56,56,0,0,1,67.819,0,46.661,46.661,0,0,0,12.03-22.048,5.076,5.076,0,0,0-.988-4.319,5.174,5.174,0,0,0-4.078-1.968h-7.4a15.69,15.69,0,0,1-15.3,12.306h-36.35a15.69,15.69,0,0,1-15.3-12.306h-7.4a5.174,5.174,0,0,0-4.078,1.968Z" transform="translate(-17.733 -23.241)"/><path d="M128.549,218.71c-.321,19.395,10.632,37.4,29.3,48.264a29.476,29.476,0,0,1,15.138,25.592v.151c0,32.85,30.9,59.573,68.879,59.573s68.87-26.714,68.87-59.573v-.125a29.486,29.486,0,0,1,15.138-25.619c18.7-10.828,29.617-28.869,29.3-48.264h0c-.49-30.276-29.386-55.486-64.32-56.243a75.771,75.771,0,0,0-20.4,2.306,115.949,115.949,0,0,1-57.178,0,75.78,75.78,0,0,0-18.7-2.324h-1.692C157.9,163.224,129.039,188.452,128.549,218.71Zm42.743,16.5a5.344,5.344,0,1,1-7.249-7.854,25.3,25.3,0,0,1,35.753,1.416,5.344,5.344,0,0,1-7.845,7.257,14.613,14.613,0,0,0-20.659-.819Zm117.775-54.978a40.179,40.179,0,0,1,54.4,16.4,5.343,5.343,0,1,1-9.412,5.049,29.519,29.519,0,0,0-39.894-12.03,5.347,5.347,0,0,1-5.058-9.421Zm-5.272,48.54a25.316,25.316,0,0,1,35.762-1.416,5.344,5.344,0,0,1-7.249,7.854,14.613,14.613,0,0,0-20.659.819,5.347,5.347,0,1,1-7.854-7.257Zm-41.968,5.877c15.031,0,26.8,7.471,26.8,17.008s-11.772,17.008-26.8,17.008-26.812-7.471-26.812-17.008,11.808-17.008,26.848-17.008Zm33.838,40.57h7.026a14.079,14.079,0,0,1,13.749,17.2h0a55.335,55.335,0,0,1-13.918,25.824l.169.151-3.785,3.339h0a55.985,55.985,0,0,1-31.977,13.785c-1.692.151-3.393.232-5.1.232a55.993,55.993,0,0,1-37.08-14.016l-3.785-3.339.169-.151a55.29,55.29,0,0,1-13.918-25.824,14.07,14.07,0,0,1,13.74-17.2h74.72Zm-107.65-98.033a39.9,39.9,0,0,1,30.6,3.063,5.343,5.343,0,0,1-5.049,9.4,29.5,29.5,0,0,0-39.938,12.03,5.343,5.343,0,0,1-4.711,2.823,5.254,5.254,0,0,1-2.52-.641,5.343,5.343,0,0,1-2.182-7.231,39.911,39.911,0,0,1,23.8-19.448Z" transform="translate(-9.462 -8.276)"/><path d="M395.574,149.57A61.951,61.951,0,0,0,363,158.706a140.794,140.794,0,0,1,45.655,103.91q0,5.423-.41,10.748a62.547,62.547,0,0,0-12.689-123.777Z" transform="translate(-35.139 -6.866)"/><path d="M137.048,158.573A62.553,62.553,0,1,0,91.669,273.294q-.4-5.289-.41-10.686a141.186,141.186,0,0,1,45.789-104.035Z" transform="translate(0 -6.866)"/><path d="M225.56,336.514l.516.365.57.383c.383.249.775.5,1.175.739l.516.321,1.5.89.214.116c.588.321,1.184.623,1.781.891l.427.2c.454.214.89.427,1.371.623l.614.267,1.229.49.668.258c.41.151.819.294,1.238.427l.65.223c.463.151.89.294,1.4.427l.49.142c.641.178,1.282.338,1.923.49l.356.071c.525.116,1.051.232,1.576.329l.668.116,1.3.2.739.1,1.264.151.739.071,1.354.089h.65c.659,0,1.327.045,1.995.045s1.336,0,1.995-.045h.65l1.354-.089.739-.071,1.264-.151.739-.1,1.291-.2.677-.116c.525-.1,1.042-.2,1.558-.321l.383-.08c.641-.151,1.273-.312,1.906-.49l.516-.151c.463-.134.89-.267,1.38-.419l.668-.223c.41-.134.81-.276,1.211-.427l.695-.258,1.184-.481.65-.276,1.309-.6.49-.232c.588-.285,1.175-.588,1.781-.891l.3-.169c.481-.267.953-.534,1.416-.81l.57-.347,1.122-.712c.2-.134.41-.267.606-.41s.338-.232.5-.347a47.2,47.2,0,0,0-53.856,0Z" transform="translate(-20.087 -26.416)"/><path d="M361.711,224.734c.374,22.663-12.235,43.634-33.731,56.1a20.665,20.665,0,0,0-10.686,17.872v.178c0,37.756-34.889,68.478-77.775,68.478s-77.784-30.722-77.784-68.478v-.16a20.708,20.708,0,0,0-10.686-17.89c-21.5-12.467-34.105-33.438-33.731-56.1a58.043,58.043,0,0,1,.419-5.984A131.791,131.791,0,0,0,107.3,270.193c0,72.9,59.324,132.219,132.237,132.219s132.228-59.324,132.228-132.228a131.194,131.194,0,0,0-10.4-51.149A50.6,50.6,0,0,1,361.711,224.734Z" transform="translate(-7.136 -14.442)"/><path d="M234.669,302.492h36.349a6.777,6.777,0,0,0,5.878-3.4H228.81a6.786,6.786,0,0,0,5.859,3.4Z" transform="translate(-20.443 -23.241)"/><path d="M219.013,147.869a106.983,106.983,0,0,0,52.779,0,84.774,84.774,0,0,1,22.8-2.582,81.978,81.978,0,0,1,34.9,8.54A130.9,130.9,0,0,0,272.932,126.4l-2.529-.543-.793-2.458c-2.93-9.19-.561-19.591,2.164-27.017-4.711,2.235-8.317,4.728-10.481,7.257a8.237,8.237,0,0,1-14.328-3.562,49.929,49.929,0,0,1-1.122-13.2,25.824,25.824,0,0,0-5.877,15.254,8.086,8.086,0,0,1-4.452,6.919,8.281,8.281,0,0,1-8.308-.472A153.217,153.217,0,0,1,211.9,96.6a53,53,0,0,0,10.98,22l4.978,5.824-7.525,1.443A131.409,131.409,0,0,0,160.9,154.013a81.925,81.925,0,0,1,35.334-8.762,84.747,84.747,0,0,1,22.779,2.618Z" transform="translate(-13.006)"/><path d="M253.6,269.737c10.926,0,17.9-4.8,17.9-8.1s-6.972-8.1-17.9-8.1-17.908,4.8-17.908,8.1S242.662,269.737,253.6,269.737Z" transform="translate(-21.197 -18.251)"/></g></g></g></svg>