<?xml version="1.0" encoding="UTF-8" standalone="no"?><!DOCTYPE svg PUBLIC "-//W3C//DTD SVG 1.1//EN" "http://www.w3.org/Graphics/SVG/1.1/DTD/svg11.dtd"><svg width="100%" height="100%" viewBox="0 0 798 691" version="1.1" xmlns="http://www.w3.org/2000/svg" xmlns:xlink="http://www.w3.org/1999/xlink" xml:space="preserve" xmlns:serif="http://www.serif.com/" style="fill-rule:evenodd;clip-rule:evenodd;stroke-linejoin:round;stroke-miterlimit:2;"><path d="M398.983,-0c33.54,-0 67.1,17.784 83.18,53.349c0.48,1.026 0.55,2.152 0.28,3.177c-27.59,101.797 -45.6,206.72 -54.3,311.968c-0.2,2.426 3.93,2.951 4.35,0.475c17.18,-103.897 35.07,-208.12 62.63,-309.717c0.3,-1.05 0.92,-1.95 1.75,-2.551c47.25,-41.895 122.46,-12.38 128.63,50.448c0.11,1.051 -0.15,2.051 -0.62,2.876c-50.02,91.342 -99.42,184.71 -135.44,282.755c-1.17,3.201 2.6,4.277 3.73,1.876c44.04,-94.168 92.72,-186.26 142.61,-277.402c0.65,-1.2 1.83,-2.026 3.13,-2.376c52.97,-14.182 101.55,35.291 86.32,88.04c-0.31,1.076 -0.88,1.776 -1.68,2.501c-73.93,66.756 -140.81,140.815 -192.36,225.904c-1.7,2.801 1.52,4.952 3.42,2.352c58.03,-78.637 123.43,-151.32 196.02,-217.076c1.25,-1.125 2.85,-1.45 4.45,-1.05c40.32,10.555 58.28,57.351 36.07,92.118c-0.38,0.575 -0.93,1.125 -1.5,1.475c-74.26,47.596 -146.72,99.746 -206.32,164.974c-2.78,3.05 0.7,5.55 2.92,3.55c63.91,-57.548 133.64,-108.171 205.95,-154.718c1.85,-1.2 4.22,-0.925 5.77,0.501c28.27,24.361 26.24,69.207 -4.4,90.767c-0.3,0.199 -0.62,0.374 -0.95,0.524c-68.63,28.538 -137.59,64.157 -195.61,111.856c-2.65,2.2 0.3,5.87 2.45,4.47c60.65,-39.82 125.81,-73.78 192.39,-101.869c1.95,-0.825 4.15,-0.225 5.45,1.325c25.66,28.884 14.53,74.784 -21.74,88.544c-0.37,0.15 -0.77,0.22 -1.17,0.27c-117.18,16.01 -222.73,61.51 -304.29,147.82c-29.69,31.39 -72.58,31.39 -102.27,-0c-81.57,-86.31 -187.09,-131.81 -304.27,-147.82c-0.42,-0.05 -0.82,-0.12 -1.2,-0.27c-36.26,-13.76 -47.4,-59.66 -21.73,-88.544c1.3,-1.55 3.5,-2.15 5.45,-1.325c66.58,28.089 131.74,62.049 192.39,101.869c2.15,1.4 5.1,-2.27 2.45,-4.47c-58.03,-47.699 -126.98,-83.318 -195.62,-111.856c-0.32,-0.15 -0.65,-0.325 -0.95,-0.524c-30.64,-21.56 -32.66,-66.406 -4.4,-90.767c1.55,-1.426 3.93,-1.701 5.78,-0.501c72.31,46.547 142.04,97.17 205.94,154.718c2.23,2 5.71,-0.5 2.93,-3.55c-59.6,-65.228 -132.06,-117.378 -206.32,-164.974c-0.57,-0.35 -1.12,-0.9 -1.5,-1.475c-22.19,-34.767 -4.25,-81.563 36.07,-92.118c1.6,-0.4 3.2,-0.075 4.45,1.05c72.58,65.756 137.99,138.439 196.01,217.076c1.9,2.6 5.13,0.449 3.43,-2.352c-51.55,-85.089 -118.43,-159.148 -192.36,-225.904c-0.8,-0.725 -1.38,-1.425 -1.68,-2.501c-15.23,-52.749 33.34,-102.222 86.32,-88.04c1.3,0.35 2.47,1.176 3.12,2.376c49.9,91.142 98.57,183.234 142.62,277.402c1.12,2.401 4.9,1.325 3.72,-1.876c-36.01,-98.045 -85.41,-191.413 -135.43,-282.755c-0.48,-0.825 -0.73,-1.825 -0.63,-2.876c6.18,-62.828 81.39,-92.343 128.64,-50.448c0.82,0.601 1.45,1.501 1.75,2.551c27.56,101.597 45.44,205.82 62.65,309.717c0.4,2.476 4.53,1.951 4.33,-0.475c-8.71,-105.248 -26.71,-210.171 -54.3,-311.968c-0.28,-1.025 -0.2,-2.151 0.27,-3.177c16.08,-35.565 49.65,-53.349 83.22,-53.349Zm82.58,660.006c-2.05,2.77 -0.62,6.85 2.8,7.65c69.26,16.48 90.77,9.58 104.03,-64.35c0.67,-3.16 -1.9,-6.16 -5.18,-5.88c-42.14,3.55 -79.04,27.06 -101.65,62.58Zm-165.2,-0c2.08,2.77 0.63,6.85 -2.8,7.65c-69.26,16.48 -90.77,9.58 -104.02,-64.35c-0.68,-3.16 1.9,-6.16 5.18,-5.88c42.14,3.55 79.03,27.06 101.64,62.58Z" style="fill:#1a0f0e;"/></svg>