<svg xmlns="http://www.w3.org/2000/svg" viewBox="0 0 48 48">
  <title>ticket, theater, circus, carnival</title>
  <path d="M33.8994,9.8579a.9993.9993,0,0,0,0-1.4142L29.6568,4.2011a1,1,0,0,0-1.4142,0l-6.3639,6.364L24,12.6864a1,1,0,0,1-1.4142,1.4142l-2.1213-2.1213L4.2011,28.2426a1,1,0,0,0,0,1.4142l4.2426,4.2426a.9993.9993,0,0,0,1.4142,0,3,3,0,0,1,4.2427,4.2427.9993.9993,0,0,0,0,1.4142l4.2426,4.2426a1,1,0,0,0,1.4142,0L36.0207,27.5355l-2.1213-2.1213A1,1,0,1,1,35.3136,24l2.1213,2.1213,6.364-6.3639a1,1,0,0,0,0-1.4142l-4.2426-4.2426a.9993.9993,0,0,0-1.4142,0,3,3,0,0,1-4.2427-4.2427ZM24,31.071l-2.8284,2.8284a1,1,0,1,1-1.4142-1.4142l2.8284-2.8284A1,1,0,0,1,24,31.071ZM25.4142,24l-7.071,7.071a1,1,0,0,1-1.4142-1.4142L24,22.5858A1,1,0,0,1,25.4142,24Zm-2.8284-2.8284-7.071,7.071a1,1,0,0,1-1.4142-1.4142l7.071-7.071a1,1,0,1,1,1.4142,1.4142Zm9.8994,0a1,1,0,1,1-1.4142,1.4142l-1.4142-1.4142a1,1,0,0,1,1.4142-1.4142ZM28.2426,16.929a1,1,0,0,1-1.4142,1.4142L25.4142,16.929a1,1,0,1,1,1.4142-1.4142Z" fill="#646464"/>
</svg>
