<svg xmlns="http://www.w3.org/2000/svg" viewBox="0 0 48 48">
  <title>slot, machine, casino, gambling</title>
  <g>
    <path d="M46,17a3,3,0,1,0-4,2.8158V28H38V7a1,1,0,0,0-1-1H5A1,1,0,0,0,4,7V41a1,1,0,0,0,1,1H37a1,1,0,0,0,1-1V30h5a1,1,0,0,0,1-1V19.8158A2.9952,2.9952,0,0,0,46,17ZM36,40H6V8H36Z" fill="#646464"/>
    <path d="M33,14H9a1,1,0,0,0-1,1V29a1,1,0,0,0,1,1H33a1,1,0,0,0,1-1V15A1,1,0,0,0,33,14ZM10,16h6V28H10Zm8,0h6V28H18ZM32,28H26V16h6Z" fill="#646464"/>
    <path d="M33,32H9a1,1,0,0,0-1,1v4a1,1,0,0,0,1,1H33a1,1,0,0,0,1-1V33A1,1,0,0,0,33,32Zm-1,4H10V34H32Z" fill="#646464"/>
    <path d="M11,12h4a1,1,0,0,0,0-2H11a1,1,0,0,0,0,2Z" fill="#646464"/>
    <path d="M19,12h4a1,1,0,0,0,0-2H19a1,1,0,0,0,0,2Z" fill="#646464"/>
    <path d="M27,12h4a1,1,0,0,0,0-2H27a1,1,0,0,0,0,2Z" fill="#646464"/>
  </g>
</svg>
