<svg xmlns="http://www.w3.org/2000/svg" width="20.748" height="13.743" viewBox="0 0 20.748 13.743"><g transform="translate(0 -9.052)"><path d="M18.893,11.483c-2.74-4.5-6.869-1.37-6.869-1.37a2.14,2.14,0,0,1-1.1.369H9.821a2.125,2.125,0,0,1-1.1-.368S4.6,6.981,1.855,11.484a13.892,13.892,0,0,0-1.636,9.4c.193,1.2.831,2,2.034,1.9s3.8-3.232,3.8-3.232a1.484,1.484,0,0,1,1-.469h6.629a1.482,1.482,0,0,1,1,.469s2.6,3.132,3.806,3.232,1.841-.7,2.033-1.9A13.888,13.888,0,0,0,18.893,11.483ZM7.883,15.147H6.461v1.37a1.325,1.325,0,0,1-.767.224.926.926,0,0,1-.676-.251V15.148H3.676a1.08,1.08,0,0,1-.212-.624,1.432,1.432,0,0,1,.185-.818H5.071V12.284a1.545,1.545,0,0,1,.713-.145,1.88,1.88,0,0,1,.729.171l-.006,1.394H7.85a1.337,1.337,0,0,1,.254.665A1.679,1.679,0,0,1,7.883,15.147Zm6.52,1.562a1.125,1.125,0,1,1,1.126-1.125A1.123,1.123,0,0,1,14.4,16.709Zm0-3.1a1.125,1.125,0,1,1,1.126-1.125A1.123,1.123,0,0,1,14.4,13.613Zm2.8,1.662A1.125,1.125,0,1,1,18.33,14.15,1.123,1.123,0,0,1,17.2,15.275Z" transform="translate(0)"/></g></svg>