<svg xmlns="http://www.w3.org/2000/svg" width="18.48" height="15.962" viewBox="0 0 18.48 15.962"><g transform="translate(2377 -2246)"><circle cx="7.981" cy="7.981" r="7.981" transform="translate(-2377 2246)" fill="#ffce19"/><circle cx="7.981" cy="7.981" r="7.981" transform="translate(-2377 2246)"/><path d="M0,14.839H0A9.312,9.312,0,0,0,3.649,7.42,9.312,9.312,0,0,0,0,0,7.974,7.974,0,0,1,3.625,2.887,7.935,7.935,0,0,1,5.036,7.42a7.935,7.935,0,0,1-1.412,4.534A7.974,7.974,0,0,1,0,14.839Z" transform="translate(-2363.556 2246.561)" fill="#777"/></g></svg>