<svg id="visual" viewBox="0 0 960 540" width="960" height="540" xmlns="http://www.w3.org/2000/svg" xmlns:xlink="http://www.w3.org/1999/xlink" version="1.1"><path d="M0 430L20 434.2C40 438.3 80 446.7 120 454.2C160 461.7 200 468.3 240 466.2C280 464 320 453 360 448.2C400 443.3 440 444.7 480 450.3C520 456 560 466 600 465C640 464 680 452 720 445.2C760 438.3 800 436.7 840 442C880 447.3 920 459.7 940 465.8L960 472L960 541L940 541C920 541 880 541 840 541C800 541 760 541 720 541C680 541 640 541 600 541C560 541 520 541 480 541C440 541 400 541 360 541C320 541 280 541 240 541C200 541 160 541 120 541C80 541 40 541 20 541L0 541Z" fill="#9ec35b"></path><path d="M0 438L20 444.2C40 450.3 80 462.7 120 469.3C160 476 200 477 240 471.7C280 466.3 320 454.7 360 446.5C400 438.3 440 433.7 480 433C520 432.3 560 435.7 600 437.5C640 439.3 680 439.7 720 444.3C760 449 800 458 840 461.5C880 465 920 463 940 462L960 461L960 541L940 541C920 541 880 541 840 541C800 541 760 541 720 541C680 541 640 541 600 541C560 541 520 541 480 541C440 541 400 541 360 541C320 541 280 541 240 541C200 541 160 541 120 541C80 541 40 541 20 541L0 541Z" fill="#74a24b"></path><path d="M0 462L20 462C40 462 80 462 120 465.7C160 469.3 200 476.7 240 480.3C280 484 320 484 360 480.2C400 476.3 440 468.7 480 468C520 467.3 560 473.7 600 478.8C640 484 680 488 720 486.8C760 485.7 800 479.3 840 475.3C880 471.3 920 469.7 940 468.8L960 468L960 541L940 541C920 541 880 541 840 541C800 541 760 541 720 541C680 541 640 541 600 541C560 541 520 541 480 541C440 541 400 541 360 541C320 541 280 541 240 541C200 541 160 541 120 541C80 541 40 541 20 541L0 541Z" fill="#4d823b"></path><path d="M0 506L20 503.8C40 501.7 80 497.3 120 498.5C160 499.7 200 506.3 240 508.7C280 511 320 509 360 503.7C400 498.3 440 489.7 480 484.3C520 479 560 477 600 476.2C640 475.3 680 475.7 720 482.5C760 489.3 800 502.7 840 504.5C880 506.3 920 496.7 940 491.8L960 487L960 541L940 541C920 541 880 541 840 541C800 541 760 541 720 541C680 541 640 541 600 541C560 541 520 541 480 541C440 541 400 541 360 541C320 541 280 541 240 541C200 541 160 541 120 541C80 541 40 541 20 541L0 541Z" fill="#29622b"></path><path d="M0 517L20 514.5C40 512 80 507 120 508.2C160 509.3 200 516.7 240 515.7C280 514.7 320 505.3 360 502.5C400 499.7 440 503.3 480 507.7C520 512 560 517 600 516.8C640 516.7 680 511.3 720 507.3C760 503.3 800 500.7 840 499.8C880 499 920 500 940 500.5L960 501L960 541L940 541C920 541 880 541 840 541C800 541 760 541 720 541C680 541 640 541 600 541C560 541 520 541 480 541C440 541 400 541 360 541C320 541 280 541 240 541C200 541 160 541 120 541C80 541 40 541 20 541L0 541Z" fill="#00441b"></path></svg>