<svg xmlns="http://www.w3.org/2000/svg" xmlns:xlink="http://www.w3.org/1999/xlink" width="1010.41" height="161.67" viewBox="0 0 1010.41 161.67"><defs><linearGradient id="a" x1="0.5" x2="0.5" y2="1" gradientUnits="objectBoundingBox"><stop offset="0" stop-color="#fff"/><stop offset="1" stop-color="#fff" stop-opacity="0"/></linearGradient></defs><path d="M80.352,0h-33.3V-129.336H4.4v-27.715H123v27.715H80.352ZM300.137,0h-37.92l-21.27-82.5q-1.182-4.4-4.028-18.208t-3.276-18.53q-.645,5.8-3.223,18.638t-3.975,18.315L205.283,0H167.471L127.4-157.051h32.764l20.088,85.723q5.264,23.74,7.627,41.143.645-6.123,2.954-18.96t4.351-19.927l22.881-87.979h31.475l22.881,87.979q1.5,5.908,3.76,18.047t3.438,20.84q1.074-8.379,3.438-20.894t4.3-20.249l19.98-85.723H340.1ZM500.264-78.74q0,38.994-19.336,59.941T425.5,2.148q-36.094,0-55.43-20.947T350.732-78.955q0-39.209,19.39-59.888t55.591-20.679q36.2,0,55.376,20.84T500.264-78.74Zm-114.619,0q0,26.318,9.99,39.639T425.5-25.781q39.854,0,39.854-52.959,0-53.066-39.639-53.066-19.873,0-29.971,13.374T385.645-78.74ZM742.93,0H705.01L683.74-82.5q-1.182-4.4-4.028-18.208t-3.276-18.53q-.645,5.8-3.223,18.638t-3.975,18.315L648.076,0H610.264L570.2-157.051h32.764l20.088,85.723q5.264,23.74,7.627,41.143.645-6.123,2.954-18.96t4.351-19.927l22.881-87.979h31.475l22.881,87.979q1.5,5.908,3.76,18.047t3.438,20.84q1.074-8.379,3.438-20.894t4.3-20.249l19.98-85.723h32.764Zm59.727,0V-157.051h33.3V0Zm212.158,0H972.49L904.17-118.809H903.2q2.041,31.475,2.041,44.9V0H875.488V-157.051h42L985.7-39.424h.752q-1.611-30.615-1.611-43.291v-74.336h29.971Z" transform="translate(-4.404 159.521)" fill="url(#a)"/></svg>